<?xml version="1.0" encoding="utf-8"?>
<!-- Generator: Adobe Illustrator 16.0.0, SVG Export Plug-In . SVG Version: 6.00 Build 0)  -->
<!DOCTYPE svg PUBLIC "-//W3C//DTD SVG 1.1//EN" "http://www.w3.org/Graphics/SVG/1.1/DTD/svg11.dtd">
<svg version="1.1" id="Layer_1" xmlns="http://www.w3.org/2000/svg" xmlns:xlink="http://www.w3.org/1999/xlink" x="0px" y="0px"
	 width="256px" height="182px" viewBox="-78 -41 256 182" enable-background="new -78 -41 256 182" xml:space="preserve">
<g id="Your_Icon">
	<g>
		<path d="M170.703,49l-1.635-2.033c-0.576-0.712-14.292-17.637-36.036-34.056c-19.275-14.549-49.32-31.897-83.031-31.897
			c-65.088,0-116.897,63.262-119.071,65.957L-70.705,49l1.634,2.031c2.174,2.694,53.91,65.955,119.071,65.955
			c33.711,0,63.756-17.346,83.026-31.899c21.793-16.45,35.462-33.346,36.036-34.051L170.703,49z M160.378,51.17
			c-12.556,13.921-57.622,59.342-110.377,59.342c-52.644,0-97.792-45.423-110.375-59.345L-62.334,49l1.958-2.17
			C-47.822,32.908-2.754-12.512,50.001-12.512c52.625,0,97.787,45.423,110.374,59.345L162.338,49L160.378,51.17z"/>
		<path d="M50.001,3.028C24.65,3.028,4.029,23.649,4.029,49c0,25.348,20.622,45.972,45.972,45.972
			c25.349,0,45.973-20.624,45.973-45.972C95.974,23.649,75.35,3.028,50.001,3.028z M50.001,88.497
			c-21.78,0-39.497-17.717-39.497-39.497c0-21.78,17.717-39.497,39.497-39.497c21.78,0,39.497,17.717,39.497,39.497
			C89.498,70.78,71.781,88.497,50.001,88.497z"/>
		<path d="M50.001,34.107c-8.21,0-14.893,6.682-14.893,14.893c0,8.212,6.683,14.894,14.893,14.894
			c8.213,0,14.893-6.682,14.893-14.894C64.894,40.79,58.214,34.107,50.001,34.107z M50.001,57.418c-4.641,0-8.417-3.776-8.417-8.418
			c0-4.641,3.776-8.417,8.417-8.417c4.642,0,8.418,3.776,8.418,8.417C58.419,53.642,54.643,57.418,50.001,57.418z"/>
	</g>
</g>
</svg>
