<?xml version="1.0" encoding="utf-8"?>
<!-- Generator: Adobe Illustrator 16.0.4, SVG Export Plug-In . SVG Version: 6.00 Build 0)  -->
<!DOCTYPE svg PUBLIC "-//W3C//DTD SVG 1.1//EN" "http://www.w3.org/Graphics/SVG/1.1/DTD/svg11.dtd">
<svg version="1.1" id="Livello_1" xmlns="http://www.w3.org/2000/svg" xmlns:xlink="http://www.w3.org/1999/xlink" x="0px" y="0px"
	 width="84.11px" height="60.425px" viewBox="0 0 84.11 60.425" enable-background="new 0 0 84.11 60.425" xml:space="preserve">
<path d="M1.8,1.8h80.51v46.232H1.8V1.8z M0,49.833h84.11V0H0V49.833z"/>
<g>
	<defs>
		<rect id="SVGID_1_" y="0" width="84.11" height="60.425"/>
	</defs>
	<clipPath id="SVGID_2_">
		<use xlink:href="#SVGID_1_"  overflow="visible"/>
	</clipPath>
	
		<line clip-path="url(#SVGID_2_)" fill="none" stroke="#000000" stroke-width="1.8" stroke-miterlimit="10" x1="42.055" y1="48.859" x2="42.055" y2="60.382"/>
	
		<line clip-path="url(#SVGID_2_)" fill="none" stroke="#000000" stroke-width="1.8" stroke-miterlimit="10" x1="20.055" y1="59.525" x2="64.055" y2="59.525"/>
	<path clip-path="url(#SVGID_2_)" d="M56.59,9.349c0.056-0.22,0.021-0.446-0.095-0.638c-0.115-0.191-0.299-0.326-0.516-0.38h-0.001
		l-7.96-1.973c-0.216-0.054-0.445-0.02-0.637,0.097C47.189,6.572,47.055,6.757,47,6.976l-1.975,7.955
		c-0.111,0.452,0.166,0.911,0.619,1.023c0.062,0.016,0.129,0.023,0.203,0.023c0.384,0,0.729-0.27,0.819-0.642l1.479-5.976
		l0.933,1.544c2.024,3.355,2.618,7.295,1.674,11.094c-0.939,3.805-3.306,7.013-6.659,9.033c-0.553,0.333-1.117,0.627-1.679,0.872
		l-0.208,0.091l-0.11-0.199c-0.838-1.511-2.284-2.581-3.968-2.935c-0.402-0.084-0.814-0.126-1.222-0.126
		c-2.788,0-5.228,1.981-5.803,4.711c-0.324,1.551-0.025,3.136,0.84,4.463c0.865,1.324,2.195,2.234,3.745,2.562
		c0.401,0.083,0.814,0.126,1.227,0.126c2.789,0,5.227-1.981,5.797-4.711c0.146-0.699,0.165-1.403,0.06-2.095l-0.03-0.191
		l0.179-0.077c0.708-0.299,1.396-0.652,2.048-1.047c3.737-2.253,6.376-5.83,7.428-10.067c1.045-4.241,0.38-8.636-1.872-12.375
		l-0.934-1.545l5.977,1.479c0.22,0.054,0.448,0.018,0.641-0.098C56.401,9.75,56.537,9.567,56.59,9.349 M41.063,35.537L41.063,35.537
		c-0.41,1.954-2.154,3.372-4.148,3.372c-0.302,0-0.598-0.029-0.878-0.088c-1.11-0.237-2.061-0.889-2.679-1.837
		c-0.62-0.944-0.833-2.077-0.6-3.19c0.41-1.953,2.154-3.371,4.148-3.371c0.298,0,0.593,0.03,0.878,0.088
		C40.071,30.995,41.542,33.249,41.063,35.537"/>
	<path clip-path="url(#SVGID_2_)" d="M56.368,34.307l2.793-2.794l2.794,2.794c0.317,0.315,0.872,0.317,1.191,0
		c0.161-0.159,0.249-0.371,0.249-0.597s-0.088-0.436-0.248-0.593l-2.795-2.795l2.794-2.794c0.161-0.159,0.249-0.37,0.249-0.596
		s-0.088-0.437-0.248-0.595c-0.159-0.161-0.37-0.249-0.595-0.249h-0.001c-0.227,0-0.438,0.088-0.596,0.247l-2.795,2.795
		l-2.793-2.794c-0.158-0.16-0.37-0.248-0.596-0.248h-0.001c-0.225,0-0.436,0.088-0.593,0.247c-0.163,0.16-0.25,0.371-0.25,0.597
		s0.087,0.437,0.248,0.595l2.794,2.795l-2.793,2.793c-0.162,0.159-0.249,0.369-0.249,0.595s0.087,0.438,0.248,0.596
		C55.497,34.625,56.052,34.624,56.368,34.307"/>
	<path clip-path="url(#SVGID_2_)" d="M33.606,18.12l2.793-2.789l2.79,2.789c0.323,0.324,0.872,0.324,1.195,0
		c0.16-0.159,0.248-0.37,0.248-0.596c0-0.225-0.088-0.437-0.247-0.594l-2.795-2.795l2.794-2.793c0.16-0.159,0.248-0.37,0.248-0.596
		s-0.088-0.437-0.247-0.595c-0.161-0.161-0.373-0.249-0.598-0.249c-0.226,0-0.438,0.088-0.598,0.248l-2.79,2.794l-2.793-2.794
		c-0.32-0.32-0.875-0.32-1.195,0c-0.329,0.329-0.329,0.863,0,1.192l2.793,2.793l-2.793,2.794c-0.329,0.328-0.329,0.862,0,1.191
		C32.734,18.444,33.283,18.444,33.606,18.12"/>
	<path clip-path="url(#SVGID_2_)" d="M27.816,27.672l-2.794-2.794l2.794-2.793c0.328-0.329,0.328-0.864,0-1.192
		c-0.32-0.32-0.875-0.319-1.196,0l-2.788,2.794l-2.794-2.794c-0.16-0.16-0.372-0.248-0.597-0.248c-0.226,0-0.438,0.088-0.599,0.248
		c-0.16,0.159-0.248,0.37-0.248,0.596c0,0.225,0.088,0.437,0.247,0.595l2.795,2.794l-2.794,2.794
		c-0.16,0.159-0.248,0.371-0.248,0.596s0.088,0.437,0.247,0.594c0.321,0.32,0.878,0.319,1.197,0.001l2.794-2.789l2.788,2.789
		c0.319,0.318,0.878,0.317,1.196,0C28.145,28.535,28.145,28.001,27.816,27.672"/>
</g>
</svg>
