<?xml version="1.0" encoding="utf-8"?>
<!-- Generator: Adobe Illustrator 16.0.0, SVG Export Plug-In . SVG Version: 6.00 Build 0)  -->
<!DOCTYPE svg PUBLIC "-//W3C//DTD SVG 1.1//EN" "http://www.w3.org/Graphics/SVG/1.1/DTD/svg11.dtd">
<svg version="1.1" id="Layer_1" xmlns="http://www.w3.org/2000/svg" xmlns:xlink="http://www.w3.org/1999/xlink" x="0px" y="0px"
	 width="256px" height="182px" viewBox="-78 -41 256 182" enable-background="new -78 -41 256 182" xml:space="preserve">
<path d="M165.358,81.736l5.973-2.987l-6.052-3.026l-0.868-0.406l-18.427-9.218l-3.508-1.752l3.508-1.757l18.427-9.21l0.924-0.463
	l0.028,0.019l5.973-2.989l-6.031-3.015l-0.894-0.418l-18.465-9.233l-3.509-1.754l3.509-1.754l18.465-9.233l0.878-0.437l0.033,0.017
	l6.014-3.009l-6.019-3.013l-0.901-0.421L49.895-39.59L-64.634,17.664L-65.51,18.1l-0.028-0.013l-6.017,3.009l6.017,3.007
	l0.899,0.426l18.468,9.236l3.51,1.754l-3.51,1.754l-18.463,9.231l-0.876,0.437l-0.025-0.013l-6.02,3.012l6.017,3.004l0.899,0.429
	l18.435,9.216l3.506,1.752l-3.506,1.757l-18.427,9.21l-0.854,0.427l-0.027-0.013l-6.043,3.021l6.022,3.003l0.901,0.424
	L49.89,139.443l114.521-57.266l0.919-0.457L165.358,81.736z M-56.015,22.853l-3.507-1.756l3.507-1.754L49.014-33.173l0.876-0.437
	l0.876,0.437L155.79,19.345l3.509,1.754l-3.509,1.755l-18.464,9.232l-0.876,0.437h-0.003l-8.932,4.472L50.771,75.37l-0.875,0.439
	l-0.876-0.439l-76.19-38.096l-3.506-1.754l0,0l-6.869-3.434L-56.015,22.853z M-56.012,51.691l-3.51-1.748l3.51-1.754l18.465-9.231
	l0.876-0.437l0.876,0.437L49.89,81.798l85.677-42.844l0.878-0.437l0.876,0.437l18.47,9.232l3.509,1.756l-3.509,1.756l-18.431,9.207
	l-0.849,0.427l-0.046-0.021l-5.873,2.941l0.003,0.003l-3.618,1.839l-76.208,38.118l-0.876,0.439l-0.875-0.439l-76.223-38.113
	l-3.631-1.813l0.04-0.018l-5.86-2.932l-0.928-0.424L-56.012,51.691z M155.795,80.503L50.769,133.019l-0.876,0.439l-0.875-0.439
	L-56.015,80.503l-3.51-1.754l3.51-1.757l18.431-9.214l0.876-0.438l0.876,0.438l85.721,42.863l85.713-42.865l0.878-0.439l0.876,0.439
	l18.438,9.21l3.509,1.76L155.795,80.503z"/>
</svg>
