<?xml version="1.0" encoding="utf-8"?>
<!-- Generator: Adobe Illustrator 16.0.0, SVG Export Plug-In . SVG Version: 6.00 Build 0)  -->
<!DOCTYPE svg PUBLIC "-//W3C//DTD SVG 1.1//EN" "http://www.w3.org/Graphics/SVG/1.1/DTD/svg11.dtd">
<svg version="1.1" id="Layer_1" xmlns="http://www.w3.org/2000/svg" xmlns:xlink="http://www.w3.org/1999/xlink" x="0px" y="0px"
	 width="256px" height="182px" viewBox="-78 -41 256 182" enable-background="new -78 -41 256 182" xml:space="preserve">
<path d="M-71.5-13.681v142.062h243V-13.681h-11.02h-1.3v-1.298v-13.404H64.699c-5.395,0-10.377,2.487-13.669,6.827l-1.033,1.363
	l-1.036-1.363c-3.289-4.34-8.271-6.827-13.666-6.827h-94.479v13.404v1.298h-1.297H-71.5z M159.181-7.465v-1.298h1.3h4.811h1.299
	v1.298v129.639v1.298h-1.299H56.356h-2.411l1.323-2.011c1.99-3.022,5.897-8.096,9.748-8.096h94.164V-7.465L159.181-7.465z
	 M52.454,113.241V-11.223c0-6.755,5.496-12.248,12.251-12.248h88.262h1.299v1.298v129.32v1.298h-1.299h-87.95
	c-3.42,0-6.886,1.906-10.307,5.669l-2.256,2.492V113.241z M-54.263,107.151V-22.172v-1.298h1.299h88.26
	c6.723,0,12.217,5.473,12.243,12.201v0.06l-0.005,0.084l0.003,124.362v3.367l-2.261-2.495c-3.407-3.755-6.869-5.658-10.292-5.658
	h-87.947h-1.299V107.151z M34.983,113.357c3.83,0,7.743,5.072,9.733,8.098l1.325,2.009h-2.41H-65.282h-1.298v-1.298V-7.467v-1.299
	h1.298h4.802h1.297v1.299v120.825H34.983z"/>
</svg>
