<?xml version="1.0" encoding="utf-8"?>
<!-- Generator: Adobe Illustrator 20.0.0, SVG Export Plug-In . SVG Version: 6.00 Build 0)  -->
<svg version="1.1" id="Layer_1" xmlns="http://www.w3.org/2000/svg" xmlns:xlink="http://www.w3.org/1999/xlink" x="0px" y="0px"
	 viewBox="0 0 1920 1080" style="enable-background:new 0 0 1920 1080;" xml:space="preserve">
<style type="text/css">
	.st0{fill:#BCBEC0;}
	.st1{fill:#E6E7E8;}
	.st2{fill:#6D6E71;}
	.st3{fill:none;stroke:#E9E9EA;stroke-width:0.849;stroke-miterlimit:10;}
	.st4{fill:#FFFFFF;}
	.st5{clip-path:url(#SVGID_2_);}
	.st6{fill:#676464;}
	.st7{opacity:0.15;fill-rule:evenodd;clip-rule:evenodd;fill:#010101;}
	.st8{fill:none;stroke:#756458;stroke-miterlimit:10;}
	.st9{fill:#756458;}
	.st10{fill:none;stroke:#756458;stroke-width:3.5778;stroke-linecap:round;stroke-linejoin:round;stroke-miterlimit:10;}
	.st11{fill:none;stroke:#756458;stroke-width:1.0945;stroke-miterlimit:10;}
	.st12{fill:#756458;stroke:#756458;stroke-width:1.0945;stroke-miterlimit:10;}
	.st13{fill:none;stroke:#756458;stroke-width:4.3778;stroke-linecap:round;stroke-linejoin:round;stroke-miterlimit:10;}
	.st14{fill:#756458;stroke:#756458;stroke-width:2.1889;stroke-linecap:round;stroke-linejoin:round;stroke-miterlimit:10;}
	.st15{fill-rule:evenodd;clip-rule:evenodd;fill:#FED6B7;}
	.st16{fill-rule:evenodd;clip-rule:evenodd;fill:#F1BF95;}
	.st17{fill-rule:evenodd;clip-rule:evenodd;fill:#CC5D33;}
	.st18{fill:#EACA49;}
	.st19{fill:#FFDF4F;}
	.st20{opacity:0.48;fill:#D1D3D4;}
	.st21{fill-rule:evenodd;clip-rule:evenodd;fill:#EACA49;}
	.st22{fill-rule:evenodd;clip-rule:evenodd;fill:#F2A51E;}
	.st23{fill:none;stroke:#756458;stroke-width:4.3365;stroke-linecap:round;stroke-linejoin:round;stroke-miterlimit:10;}
	.st24{fill:none;stroke:#756458;stroke-width:3.2834;stroke-linecap:round;stroke-linejoin:round;stroke-miterlimit:10;}
	.st25{fill-rule:evenodd;clip-rule:evenodd;fill:#414141;}
	.st26{fill-rule:evenodd;clip-rule:evenodd;fill:#B53536;}
	.st27{fill-rule:evenodd;clip-rule:evenodd;fill:#FFFFFF;}
	.st28{fill-rule:evenodd;clip-rule:evenodd;fill:#FED4A4;}
	.st29{fill-rule:evenodd;clip-rule:evenodd;fill:#4E4E4E;}
	.st30{fill-rule:evenodd;clip-rule:evenodd;fill:#1D5B8D;}
	.st31{fill-rule:evenodd;clip-rule:evenodd;fill:#F37B7E;}
	.st32{fill-rule:evenodd;clip-rule:evenodd;fill:#DD6A26;}
	.st33{fill-rule:evenodd;clip-rule:evenodd;fill:#8D8E8F;}
	.st34{fill-rule:evenodd;clip-rule:evenodd;fill:#C3842B;}
	.st35{fill:#CC5D33;}
	.st36{fill-rule:evenodd;clip-rule:evenodd;fill:#818181;}
	.st37{opacity:0.15;fill:#010101;}
	.st38{fill:#FEFFFF;}
	.st39{fill:#5E0F17;}
	.st40{fill:#8E1921;}
	.st41{fill:#BD202E;}
	.st42{fill:#CA4B56;}
	.st43{fill:#EF4237;}
	.st44{fill:#F2675D;}
	.st45{fill:#F58D86;}
	.st46{fill:#F8B3AF;}
	.st47{fill:#F69320;}
	.st48{fill:#F9A84B;}
	.st49{fill:#F8BF76;}
	.st50{fill:#FAD4A5;}
	.st51{fill:#8CC640;}
	.st52{fill:#A3CF64;}
	.st53{fill:#BBDA8D;}
	.st54{fill:#D2E6B1;}
	.st55{fill:#00A79C;}
	.st56{fill:#32B7B0;}
	.st57{fill:#69C7C1;}
	.st58{fill:#9BD7D6;}
	.st59{fill:#1D75BC;}
	.st60{fill:#4990C8;}
	.st61{fill:#77ABD5;}
	.st62{fill:#A3C8E4;}
	.st63{fill:#FDE8BD;}
	.st64{opacity:0.9;fill:#3B3838;}
	.st65{opacity:0.15;clip-path:url(#SVGID_4_);}
	.st66{fill:#010101;}
	.st67{clip-path:url(#SVGID_4_);}
	.st68{fill-rule:evenodd;clip-rule:evenodd;fill:#CDCCCC;}
	.st69{fill-rule:evenodd;clip-rule:evenodd;fill:none;stroke:#CDCCCC;stroke-width:1.6938;stroke-miterlimit:22.9256;}
	.st70{fill-rule:evenodd;clip-rule:evenodd;fill:#F8A58E;}
	.st71{fill-rule:evenodd;clip-rule:evenodd;fill:#ED7B5C;}
	.st72{fill-rule:evenodd;clip-rule:evenodd;fill:#E66D4B;}
	.st73{fill-rule:evenodd;clip-rule:evenodd;fill:#D54527;}
	.st74{fill-rule:evenodd;clip-rule:evenodd;fill:#4E8EB4;}
	.st75{fill-rule:evenodd;clip-rule:evenodd;fill:#94C0E7;}
	.st76{fill-rule:evenodd;clip-rule:evenodd;fill:#A7CBEC;}
	.st77{fill-rule:evenodd;clip-rule:evenodd;fill:#B9D8F2;}
	.st78{fill-rule:evenodd;clip-rule:evenodd;fill:#CBE3F6;}
	.st79{fill-rule:evenodd;clip-rule:evenodd;fill:#81B4E1;}
	.st80{fill-rule:evenodd;clip-rule:evenodd;fill:#E4EAF2;}
	.st81{fill-rule:evenodd;clip-rule:evenodd;fill:#D4DBE4;}
	.st82{fill-rule:evenodd;clip-rule:evenodd;fill:#896835;}
	.st83{fill-rule:evenodd;clip-rule:evenodd;fill:#6A5029;}
	.st84{fill-rule:evenodd;clip-rule:evenodd;fill:#BC9D6E;}
	.st85{fill-rule:evenodd;clip-rule:evenodd;fill:#CCCCCC;}
	.st86{fill-rule:evenodd;clip-rule:evenodd;fill:#54585C;}
	.st87{fill-rule:evenodd;clip-rule:evenodd;fill:#8A9096;}
	.st88{fill-rule:evenodd;clip-rule:evenodd;fill:#333538;}
	.st89{fill-rule:evenodd;clip-rule:evenodd;fill:#BFC8D4;}
	.st90{fill-rule:evenodd;clip-rule:evenodd;fill:#BCC7D6;}
	.st91{fill-rule:evenodd;clip-rule:evenodd;fill:#F3F4F6;}
	.st92{fill-rule:evenodd;clip-rule:evenodd;fill:#D8D6D6;}
	.st93{fill-rule:evenodd;clip-rule:evenodd;fill:#F79B1D;}
	.st94{fill:#454242;}
	.st95{fill:#777373;}
	.st96{fill-rule:evenodd;clip-rule:evenodd;fill:#454242;}
	.st97{fill-rule:evenodd;clip-rule:evenodd;fill:#DB971B;}
	.st98{fill-rule:evenodd;clip-rule:evenodd;fill:#F8B75D;}
	.st99{fill-rule:evenodd;clip-rule:evenodd;fill:#9EB8CC;}
	.st100{fill-rule:evenodd;clip-rule:evenodd;fill:#86888A;}
	.st101{fill-rule:evenodd;clip-rule:evenodd;fill:#B4B4B4;}
	.st102{fill-rule:evenodd;clip-rule:evenodd;fill:#DCDDDE;}
	.st103{fill-rule:evenodd;clip-rule:evenodd;fill:#62C4C5;}
	.st104{fill-rule:evenodd;clip-rule:evenodd;fill:#C5D0E0;}
	.st105{fill-rule:evenodd;clip-rule:evenodd;fill:#798790;}
	.st106{fill-rule:evenodd;clip-rule:evenodd;fill:#92A1A9;}
	.st107{fill-rule:evenodd;clip-rule:evenodd;fill:#3B6482;}
	.st108{fill:#3B6482;}
	.st109{fill-rule:evenodd;clip-rule:evenodd;fill:#777373;}
	.st110{fill-rule:evenodd;clip-rule:evenodd;fill:#D3DADE;}
	.st111{fill:#D4DBE4;}
	.st112{fill-rule:evenodd;clip-rule:evenodd;fill:#E6E6E5;}
	.st113{fill:#AF9154;}
	.st114{fill:none;stroke:#000000;stroke-width:2;stroke-miterlimit:10;}
	.st115{opacity:0.25;}
	.st116{fill:none;stroke:#454242;stroke-miterlimit:10;}
	.st117{fill:none;stroke:#454242;stroke-width:0.7489;stroke-miterlimit:10;}
	.st118{fill:none;stroke:#777373;stroke-width:2.5;stroke-miterlimit:10;}
	.st119{fill:#454242;stroke:#454242;stroke-width:1.4978;stroke-linecap:round;stroke-linejoin:round;stroke-miterlimit:10;}
	.st120{fill:#454242;stroke:#454242;stroke-miterlimit:10;}
	.st121{fill:none;stroke:#777373;stroke-width:2.9674;stroke-linecap:round;stroke-linejoin:round;stroke-miterlimit:10;}
	.st122{opacity:0.5;fill-rule:evenodd;clip-rule:evenodd;fill:#777373;}
	.st123{clip-path:url(#SVGID_6_);}
	.st124{fill-rule:evenodd;clip-rule:evenodd;fill:#A09C9C;}
	.st125{fill:#8F8B8B;}
	.st126{opacity:0.7;fill:#D8D6D6;}
	.st127{opacity:0.6;fill:#FFFFFF;}
	.st128{fill-rule:evenodd;clip-rule:evenodd;fill:#8F8B8B;}
	.st129{opacity:0.5;fill:#777373;}
	.st130{fill:#D8D6D6;}
	.st131{clip-path:url(#SVGID_8_);}
	.st132{fill-rule:evenodd;clip-rule:evenodd;fill:none;stroke:#CDCCCC;stroke-width:1.915;stroke-miterlimit:22.9256;}
	.st133{opacity:0.48;}
	.st134{fill-rule:evenodd;clip-rule:evenodd;fill:#D1D3D4;}
	.st135{fill-rule:evenodd;clip-rule:evenodd;fill:#C5C1C0;}
</style>
<path class="st129" d="M819.7,796.8c4.4-4.5,4.3-11.8-0.2-16.2l-39.6-38.9l17.1-46.9l-114.6-49.3l-49.6-2l41.6,17.9l-0.8,1.5
	l-23,23.5l-0.5-0.6c-0.9-1.2-2.2-1.4-3.3-1.1c-0.4,0.1-0.8,0.3-1.2,0.6c-0.3,0.3-0.6,0.6-0.9,1c-0.6,1-0.7,2.3,0.3,3.5l1,1.3
	l-15.8,16.1l-92.6-5.7l-4.9,79.3l107.7,6.6l20.8,20.4c2,2,2.7,4.1,1.8,6.2l-1.8,4.1c-0.8,1.8-0.3,2.9,1.4,4.5l6.9,6.8l52,51
	c4.5,4.4,11.8,4.3,16.2-0.2l13.7-14l14.6,2.4l2.2-13.3l1.7,1.2c1.2,0.8,2.5,0.7,3.5,0c0.4-0.3,0.7-0.6,0.9-0.9
	c0.2-0.4,0.4-0.8,0.5-1.2c0.3-1.1-0.1-2.4-1.3-3.2l-4.2-2.9l0.1-0.3L819.7,796.8z M647.7,689.4c0-0.2,0-0.4,0.1-0.5
	c0.1-0.1,0.2-0.3,0.3-0.4c0.1-0.1,0.3-0.2,0.4-0.2c0.1,0,0.2,0,0.3,0L647.7,689.4z M768.9,850.8l1.7,1.2c0.5,0.3,0.6,0.8,0.5,1.1
	c0,0.2-0.1,0.3-0.2,0.4c-0.1,0.1-0.2,0.2-0.3,0.3c-0.3,0.2-0.8,0.2-1.2-0.1l-0.9-0.6L768.9,850.8z M645.8,689.3
	c-0.7-0.8-0.6-1.7-0.2-2.4c0.2-0.3,0.4-0.5,0.7-0.7c0.3-0.2,0.6-0.4,0.9-0.5c0.8-0.2,1.7-0.1,2.3,0.7l0.6,0.7l-0.4,0.4
	c-0.4-0.2-0.9-0.2-1.3-0.1c-0.3,0.1-0.5,0.2-0.7,0.4c-0.2,0.2-0.4,0.4-0.5,0.6c-0.3,0.5-0.4,1.1-0.1,1.8l-0.3,0.3L645.8,689.3z
	 M773,852c0.9,0.6,1.1,1.5,0.9,2.2c-0.1,0.3-0.2,0.6-0.4,0.9c-0.2,0.3-0.4,0.5-0.7,0.7c-0.7,0.5-1.6,0.6-2.4,0l-2.1-1.4l0.1-0.3
	l0.5,0.4c0.8,0.6,1.6,0.5,2.3,0.1c0.2-0.2,0.4-0.4,0.6-0.6c0.2-0.2,0.3-0.5,0.3-0.8c0.1-0.7-0.1-1.5-0.9-2.1l-2.1-1.4l0.1-0.3
	L773,852z"/>
<g>
	<path class="st96" d="M674.9,647.8l-82,83.5c-4.4,4.5-4.3,11.8,0.2,16.2l19.1,18.7l6.9,6.8c1.7,1.6,2.7,2.1,4.6,1.3l4.1-1.9
		c2-0.9,4.2-0.3,6.2,1.7l23.8,23.4c2,2,2.7,4.1,1.8,6.2l-1.8,4.1c-0.8,1.8-0.3,2.9,1.4,4.5l6.9,6.8l52,51c4.5,4.4,11.8,4.3,16.2-0.2
		l82-83.5c4.4-4.5,4.3-11.8-0.2-16.2L691.1,647.7C686.6,643.3,679.3,643.3,674.9,647.8z"/>
	<g>
		<polygon class="st124" points="747,792.6 632.4,743.2 652.6,687.9 773.3,739.8 		"/>
		<polygon class="st92" points="793.5,684.5 678.9,635.2 652.6,687.9 773.3,739.8 		"/>
		<polygon class="st124" points="793.5,684.5 678.9,635.2 629.3,633.2 750,685.1 		"/>
	</g>
	<g>
		<g>
			
				<rect x="571.3" y="656.2" transform="matrix(6.144877e-02 -0.9981 0.9981 6.144877e-02 -160.8363 1300.4095)" class="st27" width="79.5" height="159"/>
			<path class="st92" d="M604.4,731l-55.5-3.4c-1.6-0.1-3,1.1-3.1,2.7l-1.5,24.8c-0.1,1.6,1.1,3,2.7,3.1l55.5,3.4
				c1.6,0.1,3-1.1,3.1-2.7l1.5-24.8C607.2,732.5,606,731.1,604.4,731z"/>
		</g>
		<g>
			<g>
				
					<rect x="674.6" y="739.1" transform="matrix(3.910881e-02 -0.9992 0.9992 3.910881e-02 -91.384 1388.334)" class="st92" width="3.1" height="5.2"/>
				
					<rect x="665.6" y="736.6" transform="matrix(3.907740e-02 -0.9992 0.9992 3.907740e-02 -99.6444 1379.045)" class="st92" width="3.1" height="9.4"/>
				
					<rect x="656.8" y="738.3" transform="matrix(3.887925e-02 -0.9992 0.9992 3.887925e-02 -107.6722 1370.0278)" class="st92" width="3.1" height="5.3"/>
			</g>
			<g>
				
					<rect x="674.8" y="745.3" transform="matrix(3.901730e-02 -0.9992 0.9992 3.901730e-02 -97.8013 1393.7604)" class="st92" width="1.9" height="4.9"/>
				
					<rect x="670.1" y="746.5" transform="matrix(3.914219e-02 -0.9992 0.9992 3.914219e-02 -102.166 1388.845)" class="st92" width="1.9" height="2"/>
				
					<rect x="667.2" y="746.4" transform="matrix(3.892640e-02 -0.9992 0.9992 3.892640e-02 -104.6818 1386.0269)" class="st110" width="1.9" height="2"/>
				
					<rect x="662.8" y="744.8" transform="matrix(3.894994e-02 -0.9992 0.9992 3.894994e-02 -108.7609 1381.438)" class="st92" width="1.9" height="4.9"/>
				
					<rect x="658.2" y="746.1" transform="matrix(3.904195e-02 -0.9992 0.9992 3.904195e-02 -113.104 1376.548)" class="st92" width="1.9" height="2"/>
				
					<rect x="655.3" y="746" transform="matrix(3.860331e-02 -0.9993 0.9993 3.860331e-02 -115.4825 1373.9027)" class="st92" width="1.9" height="2"/>
			</g>
			<g>
				
					<rect x="645.1" y="751" transform="matrix(3.910295e-02 -0.9992 0.9992 3.910295e-02 -130.6074 1368.0409)" class="st92" width="1.8" height="1.8"/>
				
					<rect x="649" y="750" transform="matrix(3.902136e-02 -0.9992 0.9992 3.902136e-02 -127.0187 1372.1655)" class="st92" width="1.8" height="4.2"/>
				
					<rect x="642.1" y="751" transform="matrix(3.885858e-02 -0.9992 0.9992 3.885858e-02 -133.2527 1365.155)" class="st92" width="1.8" height="1.8"/>
				
					<rect x="638" y="749.6" transform="matrix(3.902136e-02 -0.9992 0.9992 3.902136e-02 -137.151 1360.7562)" class="st92" width="1.8" height="4.2"/>
				
					<rect x="674.2" y="750.5" transform="matrix(3.922206e-02 -0.9992 0.9992 3.922206e-02 -103.8528 1398.1945)" class="st92" width="1.8" height="5.3"/>
				
					<rect x="669.2" y="751.8" transform="matrix(3.936602e-02 -0.9992 0.9992 3.936602e-02 -108.5872 1392.8607)" class="st92" width="1.8" height="2.2"/>
				
					<rect x="666.1" y="751.7" transform="matrix(3.900687e-02 -0.9992 0.9992 3.900687e-02 -111.2329 1389.9064)" class="st92" width="1.8" height="2.2"/>
				
					<rect x="661.3" y="750" transform="matrix(3.913940e-02 -0.9992 0.9992 3.913940e-02 -115.7204 1384.8506)" class="st92" width="1.8" height="5.3"/>
				
					<rect x="656.3" y="751.3" transform="matrix(3.900864e-02 -0.9992 0.9992 3.900864e-02 -120.2806 1379.7306)" class="st92" width="1.8" height="2.2"/>
				
					<rect x="653.1" y="751.2" transform="matrix(3.891796e-02 -0.9992 0.9992 3.891796e-02 -123.0994 1376.567)" class="st110" width="1.8" height="2.2"/>
				
					<rect x="675.6" y="755.7" transform="matrix(3.872439e-02 -0.9992 0.9992 3.872439e-02 -105.9503 1403.5333)" class="st92" width="1.8" height="2.2"/>
				
					<rect x="645.4" y="752.3" transform="matrix(3.912115e-02 -0.9992 0.9992 3.912115e-02 -134.045 1371.9115)" class="st92" width="1.8" height="6.6"/>
				
					<rect x="651.7" y="754.5" transform="matrix(3.895487e-02 -0.9992 0.9992 3.895487e-02 -128.0916 1378.6207)" class="st92" width="1.8" height="2.8"/>
				
					<rect x="655.7" y="754.7" transform="matrix(3.895627e-02 -0.9992 0.9992 3.895627e-02 -124.4688 1382.6945)" class="st92" width="1.8" height="2.8"/>
				
					<rect x="661.7" y="753" transform="matrix(3.907476e-02 -0.9992 0.9992 3.907476e-02 -118.9948 1388.8423)" class="st92" width="1.8" height="6.6"/>
				
					<rect x="668" y="755.2" transform="matrix(3.859644e-02 -0.9993 0.9993 3.859644e-02 -112.839 1395.7963)" class="st92" width="1.8" height="2.8"/>
				
					<rect x="672" y="755.3" transform="matrix(3.863660e-02 -0.9993 0.9993 3.863660e-02 -109.2399 1399.8401)" class="st92" width="1.8" height="2.8"/>
			</g>
		</g>
	</g>
	<path class="st94" d="M652.8,684.8c0.2,0.2,0.5,0.2,0.7,0.1c0.2-0.2,0.2-0.4,0.1-0.7l-6.9-8.7c-0.9-1.2-2.2-1.4-3.3-1.1
		c-0.4,0.1-0.8,0.3-1.2,0.6c-0.3,0.3-0.6,0.6-0.9,1c-0.6,1-0.7,2.3,0.3,3.5l10.1,12.8c0.8,1,1.8,1.2,2.8,1c0.3-0.1,0.7-0.3,1-0.5
		c0.3-0.2,0.5-0.5,0.7-0.8c0.5-0.8,0.5-1.9-0.3-2.9l-8.8-11.2c-0.6-0.8-1.4-0.9-2.1-0.7c-0.3,0.1-0.5,0.2-0.7,0.4
		c-0.2,0.2-0.4,0.4-0.5,0.6c-0.4,0.6-0.4,1.5,0.2,2.3l5.8,7.3c0.2,0.2,0.5,0.2,0.7,0.1c0.2-0.2,0.2-0.5,0.1-0.7l-5.8-7.3
		c-0.3-0.4-0.3-0.9-0.2-1.2c0.1-0.1,0.2-0.3,0.3-0.4c0.1-0.1,0.3-0.2,0.4-0.2c0.4-0.1,0.8,0,1.1,0.4l8.8,11.2
		c0.5,0.7,0.5,1.4,0.2,1.9c-0.1,0.2-0.3,0.4-0.5,0.6c-0.2,0.2-0.4,0.3-0.6,0.3c-0.6,0.2-1.2,0-1.8-0.6l-10.1-12.8
		c-0.7-0.8-0.6-1.7-0.2-2.4c0.2-0.3,0.4-0.5,0.7-0.7c0.3-0.2,0.6-0.4,0.9-0.5c0.8-0.2,1.7-0.1,2.3,0.7L652.8,684.8z"/>
	<g>
		
			<rect x="715.6" y="803.3" transform="matrix(0.1602 -0.9871 0.9871 0.1602 -207.8607 1425.8738)" class="st92" width="36.9" height="63.6"/>
		<g>
			
				<rect x="742.4" y="827.5" transform="matrix(0.1602 -0.9871 0.9871 0.1602 -194.5191 1431.304)" class="st27" width="2.9" height="4.9"/>
			
				<rect x="734.1" y="824.2" transform="matrix(0.1603 -0.9871 0.9871 0.1603 -200.2635 1421.8116)" class="st27" width="2.9" height="8.9"/>
			
				<rect x="725.8" y="824.8" transform="matrix(0.1602 -0.9871 0.9871 0.1602 -205.8091 1412.6388)" class="st27" width="2.9" height="5"/>
			
				<rect x="726.7" y="841" transform="matrix(0.1601 -0.9871 0.9871 0.1601 -219.8623 1425.2506)" class="st27" width="1.7" height="1.7"/>
			
				<rect x="722.9" y="839.2" transform="matrix(0.1602 -0.9871 0.9871 0.1602 -222.53 1420.8419)" class="st27" width="1.7" height="4"/>
			
				<rect x="719.1" y="839.7" transform="matrix(0.1604 -0.987 0.987 0.1604 -225.2205 1416.3954)" class="st27" width="1.7" height="1.7"/>
			
				<rect x="715.3" y="838" transform="matrix(0.1602 -0.9871 0.9871 0.1602 -227.6844 1412.3203)" class="st27" width="1.7" height="3.9"/>
			
				<rect x="741.4" y="836.7" transform="matrix(0.1604 -0.9871 0.9871 0.1604 -204.8786 1437.0774)" class="st27" width="1.7" height="4.4"/>
			
				<rect x="737.2" y="837.4" transform="matrix(0.1603 -0.9871 0.9871 0.1603 -207.6822 1432.4381)" class="st27" width="1.7" height="1.9"/>
			
				<rect x="734.6" y="836.9" transform="matrix(0.1604 -0.9871 0.9871 0.1604 -209.4805 1429.4664)" class="st27" width="1.7" height="1.9"/>
			
				<rect x="730.6" y="835" transform="matrix(0.1604 -0.9871 0.9871 0.1604 -212.2098 1424.9542)" class="st27" width="1.7" height="4.4"/>
			
				<rect x="726.4" y="835.6" transform="matrix(0.1606 -0.987 0.987 0.1606 -215.2126 1419.9946)" class="st27" width="1.7" height="1.9"/>
			
				<rect x="723.8" y="835.2" transform="matrix(0.16 -0.9871 0.9871 0.16 -216.5863 1417.7078)" class="st27" width="1.7" height="1.9"/>
			
				<rect x="749.1" y="843" transform="matrix(0.1603 -0.9871 0.9871 0.1603 -204.7829 1450.1865)" class="st27" width="1.7" height="5"/>
			
				<rect x="744.4" y="843.7" transform="matrix(0.1602 -0.9871 0.9871 0.1602 -207.9424 1444.96)" class="st27" width="1.7" height="2.1"/>
			
				<rect x="741.5" y="843.2" transform="matrix(0.1604 -0.9871 0.9871 0.1604 -209.9938 1441.5734)" class="st27" width="1.7" height="2.1"/>
			
				<rect x="737" y="841" transform="matrix(0.1601 -0.9871 0.9871 0.1601 -212.8773 1436.7988)" class="st27" width="1.7" height="5"/>
			
				<rect x="732.3" y="841.7" transform="matrix(0.16 -0.9871 0.9871 0.16 -216.001 1431.6312)" class="st27" width="1.7" height="2.1"/>
			
				<rect x="729.4" y="841.2" transform="matrix(0.1606 -0.987 0.987 0.1606 -218.3141 1427.8191)" class="st27" width="1.7" height="2.1"/>
			
				<rect x="747" y="847.4" transform="matrix(0.1604 -0.9871 0.9871 0.1604 -209.5567 1450.5487)" class="st27" width="1.7" height="2.1"/>
			
				<rect x="718.8" y="840.8" transform="matrix(0.1604 -0.9871 0.9871 0.1604 -228.6666 1418.948)" class="st27" width="1.7" height="6.3"/>
			
				<rect x="724.8" y="843.5" transform="matrix(0.16 -0.9871 0.9871 0.16 -224.4284 1425.952)" class="st27" width="1.7" height="2.6"/>
			
				<rect x="728.4" y="844.1" transform="matrix(0.1603 -0.9871 0.9871 0.1603 -222.1397 1429.7406)" class="st27" width="1.7" height="2.6"/>
			
				<rect x="734" y="843.2" transform="matrix(0.1604 -0.9871 0.9871 0.1604 -218.3406 1436.0217)" class="st27" width="1.7" height="6.3"/>
			
				<rect x="740" y="846" transform="matrix(0.1604 -0.987 0.987 0.1604 -214.3762 1442.5804)" class="st27" width="1.7" height="2.6"/>
			
				<rect x="743.6" y="846.6" transform="matrix(0.1603 -0.9871 0.9871 0.1603 -211.7926 1446.8484)" class="st27" width="1.7" height="2.6"/>
		</g>
	</g>
	<g>
		<path class="st92" d="M785.3,746.5l-2.7-1.2c-0.2-0.1-0.5,0-0.6,0.2l-7.2,15.7c-0.1,0.2,0,0.5,0.2,0.6l2.7,1.2
			c0.2,0.1,0.5,0,0.6-0.2l7.2-15.7C785.7,746.9,785.6,746.6,785.3,746.5z"/>
		<g>
			<path class="st130" d="M778.1,753l-0.4-0.2l0,0c-1-0.5-2.2-1.1-3.4,0.4c-0.7,0.9-3.3,6.2-6,12c-3.3,7.1-6.7,14.8-6.9,15.9
				c-0.1,0.3-0.1,0.5-0.1,0.7c0-0.1,0.1-0.1,0.1-0.2c0.2-0.2,0.3-0.4,0.4-0.6c0.1-0.2,0.2-0.3,0.2-0.5c-0.1-0.2-0.1-0.5,0.1-0.7
				c0.2-0.4,0.8-0.5,1.2-0.3c0.5,0.3,0.6,0.9,0.4,1.5c-0.1,0.2-0.2,0.5-0.4,0.8c-0.2,0.3-0.4,0.5-0.6,0.8c-0.7,0.8-1.6,1.4-2.3,1
				c-0.4-0.2-0.7-0.5-0.8-1.2c0-0.4,0-0.9,0.2-1.7c0.3-1.2,3.7-9.1,7-16.3c2.7-5.9,5.4-11.3,6.2-12.4c2-2.5,3.8-1.6,5.4-0.8l0,0
				l0.6,1.6C778.7,753,778.4,753.1,778.1,753L778.1,753z M778.4,751.2L778.4,751.2L778.4,751.2z M779,752.8l-0.6-1.6l0,0
				c0.1,0,0.1,0.1,0.4,0.2c0.4,0.2,0.6,0.7,0.4,1.1C779.2,752.7,779.1,752.8,779,752.8L779,752.8z M778.4,751.2L778.4,751.2
				L778.4,751.2z"/>
		</g>
		<path class="st124" d="M783.5,753.2l-4.7-2.2c-0.4-0.2-0.9,0-1.1,0.4l-36.8,79.9c-0.8,1.7-8.2,20.5-7.2,21l2.3,1
			c0.8,0.4,10.5-17.5,11.2-19.1l36.8-79.9C784.1,753.9,783.9,753.4,783.5,753.2z"/>
		<g>
			
				<rect x="753.3" y="807.2" transform="matrix(0.4183 -0.9083 0.9083 0.4183 -297.5861 1156.6252)" class="st92" width="1.8" height="6.9"/>
			
				<rect x="754.6" y="804.4" transform="matrix(0.4187 -0.9081 0.9081 0.4187 -294.4528 1155.7053)" class="st92" width="1.8" height="6.9"/>
		</g>
	</g>
	<path class="st94" d="M757.7,839.3c-0.2-0.1-0.5-0.1-0.6,0.1c-0.1,0.2-0.1,0.5,0.1,0.6l9.2,6.2c1.2,0.8,2.5,0.7,3.5,0
		c0.4-0.3,0.7-0.6,0.9-0.9c0.2-0.4,0.4-0.8,0.5-1.2c0.3-1.1-0.1-2.4-1.3-3.2l-13.5-9.1c-1.1-0.7-2.1-0.6-2.9-0.1
		c-0.3,0.2-0.6,0.5-0.8,0.8c-0.2,0.3-0.4,0.6-0.4,1c-0.2,0.9,0.1,2,1.2,2.7l11.8,8c0.8,0.6,1.6,0.5,2.3,0.1c0.2-0.2,0.4-0.4,0.6-0.6
		c0.2-0.2,0.3-0.5,0.3-0.8c0.1-0.7-0.1-1.5-0.9-2.1l-7.7-5.2c-0.2-0.1-0.5-0.1-0.6,0.1c-0.1,0.2-0.1,0.5,0.1,0.6l7.7,5.2
		c0.5,0.3,0.6,0.8,0.5,1.1c0,0.2-0.1,0.3-0.2,0.4c-0.1,0.1-0.2,0.2-0.3,0.3c-0.3,0.2-0.8,0.2-1.2-0.1l-11.8-8
		c-0.7-0.5-0.9-1.1-0.8-1.7c0-0.2,0.1-0.5,0.3-0.7c0.1-0.2,0.3-0.4,0.5-0.5c0.5-0.3,1.2-0.4,1.9,0.1l13.5,9.1
		c0.9,0.6,1.1,1.5,0.9,2.2c-0.1,0.3-0.2,0.6-0.4,0.9c-0.2,0.3-0.4,0.5-0.7,0.7c-0.7,0.5-1.6,0.6-2.4,0L757.7,839.3z"/>
</g>
<path class="st122" d="M1580,228.6l-58.1-47.9l-15.2,18.4l-5.8-19c0.5-0.2,0.8-0.8,0.6-1.3c-0.2-0.5-0.7-0.8-1.3-0.7l-0.6-1.9
	c-1.6-5.3-7.2-8.2-12.5-6.6l-26.1,8l-1.2-3.8c-0.5-1.8-2.5-2.8-4.3-2.3l-14.8,4.5c-1.8,0.6-2.8,2.5-2.3,4.3l1.2,3.8l-11.8,3.6
	c-2,0.6-2.4,1.8-2.1,3.4c-0.5-1.5-2.1-2.4-3.6-1.9l-11.2,3.5c-1.5,0.5-2.4,2.1-1.9,3.6l1.1,3.6c0,0,0,0-0.1,0
	c-3.1,1.1-3.6,3.2-3.2,4.6l0.6,1.9c-0.5,0.2-0.8,0.8-0.6,1.3c0.2,0.5,0.7,0.8,1.3,0.7l12.1,39.5c0.4,1.2,0.9,2.2,1.6,3.1l0,0
	c-1,0.3-1,2.5,1.7,1.7l0,0c0,0,0.1,0,0.1,0.1c0.1,0.1,0.1,0.1,0.2,0.1c0.3,0.2,0.5,0.4,0.8,0.5c0.1,0.1,0.2,0.1,0.3,0.2
	c0.7,0.4,1.4,0.7,2.2,0.9c0.1,0,0.2,0.1,0.3,0.1c0.3,0.1,0.6,0.1,0.9,0.2c0.1,0,0.2,0,0.3,0c0.4,0,0.8,0.1,1.2,0.1
	c0.1,0,0.2,0,0.3,0c0.3,0,0.7,0,1-0.1c0.1,0,0.2,0,0.3-0.1c0.4-0.1,0.8-0.2,1.2-0.3l55.1-16.9l1.4,1.2l-14.3,4.9l24.3,71.2
	l62.1-21.2l-10.4-30.3L1580,228.6z"/>
<g>
	<g>
		
			<rect x="1478.2" y="229" transform="matrix(0.9463 -0.3233 0.3233 0.9463 -5.0368 502.9085)" class="st27" width="65.7" height="75.3"/>
		
			<rect x="1481.6" y="233.8" transform="matrix(0.9463 -0.3233 0.3233 0.9463 -3.487 502.0826)" class="st96" width="55.6" height="55.6"/>
	</g>
	<g>
		
			<rect x="1490" y="190.1" transform="matrix(0.6364 -0.7714 0.7714 0.6364 378.0665 1257.5051)" class="st27" width="65.7" height="75.3"/>
		
			<rect x="1490.9" y="196.6" transform="matrix(0.6363 -0.7714 0.7714 0.6363 379.2326 1253.1117)" class="st96" width="55.6" height="55.6"/>
	</g>
	<g>
		<path class="st124" d="M1403.9,190.6l11.2-3.5c1.5-0.5,3.2,0.4,3.6,1.9l5.1,16.5c0.5,1.5-0.4,3.2-1.9,3.6l-11.2,3.5
			c-1.5,0.5-3.2-0.4-3.6-1.9l-5.1-16.5C1401.5,192.7,1402.3,191.1,1403.9,190.6z"/>
		<path class="st112" d="M1421.9,185.3l58.1-17.9c5.3-1.6,10.9,1.4,12.5,6.6l13.3,43.3c1.6,5.3-1.4,10.9-6.6,12.5l-73.6,22.6
			c-5.2,1.6-10.9-1.4-12.5-6.6l-13.3-43.3c-0.2-0.7,0.2-3.8,3.9-4.9l16.1-4.9L1421.9,185.3z"/>
		<path class="st124" d="M1506.1,222.1c-0.7,3.6-3.2,6.6-6.9,7.8l-73.6,22.6c-3.7,1.1-7.5,0-10.1-2.6L1506.1,222.1z"/>
		<path class="st128" d="M1420.8,185.7l59.2-18.2c5.3-1.6,10.9,1.4,12.5,6.6l0.9,2.9l-92.7,28.5l-0.9-2.9c-0.4-1.4,0-3.7,3.6-4.8
			l16.4-5l-1-3.2C1418.3,187.7,1418.5,186.3,1420.8,185.7z"/>
		<path class="st124" d="M1422,187.2l58.7-18c3.8-1.2,8.9,1.4,10.3,5.7l0.6,1.9l-89.5,27.5l-0.6-1.9c-0.3-1,0-2.5,2.4-3.2l17.9-5.5
			l-1.2-3.8C1420.2,188.7,1420.4,187.7,1422,187.2z"/>
		<polygon class="st128" points="1445.7,240.6 1446,240.5 1446.2,240.4 1446.5,240.3 1446.8,240.3 1447.1,240.2 1447.3,240.1 
			1447.6,240 1447.8,240 1448.1,239.9 1448.3,239.8 1448.6,239.7 1448.9,239.6 1449.2,239.5 1449.4,239.5 1449.7,239.4 
			1449.9,239.3 1450.2,239.2 1450.4,239.1 1450.7,239.1 1450.9,239 1451.3,238.9 1451.5,238.8 1451.8,238.7 1452,238.7 
			1452.3,238.6 1452.5,238.5 1452.8,238.4 1453,238.3 1453.4,238.2 1453.6,238.2 1453.9,238.1 1454.1,238 1454.4,237.9 
			1454.6,237.9 1454.9,237.8 1455.1,237.7 1455.5,237.6 1455.7,237.5 1456,237.4 1456.2,237.4 1456.5,237.3 1456.7,237.2 
			1457,237.1 1457.2,237.1 1457.5,237 1457.8,236.9 1458.1,236.8 1458.3,236.7 1458.6,236.6 1458.8,236.6 1459.1,236.5 
			1459.3,236.4 1459.6,236.3 1459.9,236.2 1460.2,236.1 1460.4,236.1 1460.7,236 1460.9,235.9 1461.2,235.8 1461.4,235.8 
			1461.7,235.7 1462,235.6 1462.3,235.5 1462.5,235.4 1462.8,235.3 1463,235.3 1463.3,235.2 1463.5,235.1 1463.8,235 1464.1,235 
			1464.4,234.9 1464.6,234.8 1464.9,234.7 1465.1,234.6 1465.4,234.5 1465.6,234.5 1465.9,234.4 1466.2,234.3 1466.5,234.2 
			1466.7,234.1 1467,234.1 1467.2,234 1467.5,233.9 1467.7,233.8 1468,233.7 1468.3,233.7 1468.6,233.6 1468.8,233.5 1469.1,233.4 
			1469.3,233.3 1469.6,233.2 1469.8,233.2 1470.1,233.1 1470.4,233 1470.7,232.9 1470.9,232.9 1471.2,232.8 1471.4,232.7 
			1471.7,232.6 1471.9,232.5 1472.2,232.4 1472.5,232.4 1472.8,232.3 1473,232.2 1473.3,232.1 1473.5,232.1 1473.8,232 1474,231.9 
			1474.3,231.8 1474.6,231.7 1474.9,231.6 1475.1,231.6 1475.4,231.5 1475.6,231.4 1475.9,231.3 1479.3,230.3 1473,183.2 
			1469.6,184.2 1469.2,184.4 1468.9,184.5 1468.5,184.6 1468.1,184.7 1467.7,184.8 1467.4,184.9 1466.9,185.1 1466.6,185.2 
			1466.2,185.3 1465.8,185.4 1465.4,185.5 1465.1,185.6 1464.7,185.7 1464.3,185.9 1463.9,186 1463.6,186.1 1463.1,186.2 
			1462.8,186.3 1462.4,186.4 1462.1,186.6 1461.6,186.7 1461.3,186.8 1460.9,186.9 1460.5,187 1460.1,187.1 1459.8,187.2 
			1459.3,187.4 1459,187.5 1458.6,187.6 1458.3,187.7 1457.8,187.8 1457.5,187.9 1457.1,188.1 1456.7,188.2 1456.3,188.3 
			1456,188.4 1455.6,188.5 1455.2,188.6 1454.8,188.8 1454.5,188.9 1454,189 1453.7,189.1 1453.3,189.2 1452.9,189.3 1452.5,189.5 
			1452.2,189.6 1451.8,189.7 1451.4,189.8 1451,189.9 1450.7,190 1450.2,190.2 1449.9,190.3 1449.5,190.4 1449.2,190.5 
			1448.7,190.6 1448.4,190.7 1448,190.9 1447.6,191 1447.2,191.1 1446.9,191.2 1446.5,191.3 1446.1,191.4 1445.7,191.6 
			1445.4,191.7 1444.9,191.8 1444.6,191.9 1444.2,192 1443.8,192.1 1443.4,192.3 1443.1,192.4 1442.7,192.5 1442.3,192.6 
			1441.9,192.7 1441.6,192.8 1441.1,193 1440.8,193.1 1440.4,193.2 1440.1,193.3 1439.6,193.4 1439.3,193.5 1438.9,193.7 
			1438.5,193.8 1438.1,193.9 1437.8,194 1437.3,194.1 1437,194.2 1436.6,194.4 1436.3,194.5 1435.8,194.6 1435.5,194.7 
			1435.1,194.8 1434.7,194.9 1434.3,195.1 1434,195.2 1433.6,195.3 1433.2,195.4 1432.8,195.5 1432.5,195.6 1432,195.8 
			1431.7,195.9 1431.3,196 1430.9,196.1 1430.5,196.2 1430.2,196.3 1429.8,196.5 1429.4,196.6 1429,196.7 1428.7,196.8 
			1428.2,196.9 1427.9,197 1427.5,197.2 1427.2,197.3 1426.7,197.4 1426.4,197.5 1426,197.6 1425.6,197.7 1425.2,197.9 1424.9,198 
			1424.5,198.1 1421.1,199.1 1442.3,241.6 		"/>
		<path class="st124" d="M1422.8,198.6l21.3,42.5c11.2-3.4,22.4-6.9,33.6-10.3l-6.3-47.1C1455.1,188.7,1439,193.6,1422.8,198.6z"/>
		<path class="st128" d="M1400.5,204.4l92.5-28.4c0.6-0.2,1.1,0.1,1.3,0.7l0,0c0.2,0.6-0.1,1.1-0.7,1.3l-92.5,28.4
			c-0.6,0.2-1.1-0.1-1.3-0.7l0,0C1399.6,205.1,1399.9,204.5,1400.5,204.4z"/>
		<path class="st128" d="M1414.8,249l91.5-28.1c1-0.3,2.5,1.4-0.4,2.3l-89.4,27.5C1413.8,251.5,1413.8,249.3,1414.8,249z"/>
		<path class="st112" d="M1459.5,231.8c9.3-2.9,14.5-12.8,11.7-22c-2.9-9.3-12.8-14.5-22-11.7c-9.3,2.9-14.5,12.8-11.7,22
			C1440.4,229.4,1450.3,234.7,1459.5,231.8z"/>
		<path class="st128" d="M1433.7,174l14.8-4.5c1.8-0.6,3.7,0.5,4.3,2.3l5.4,17.5c0.6,1.8-0.5,3.7-2.3,4.3l-14.8,4.5
			c-1.8,0.6-3.7-0.5-4.3-2.3l-5.4-17.5C1430.9,176.4,1431.9,174.5,1433.7,174z"/>
		<path class="st112" d="M1435,175.1l13-4c1.6-0.5,3.3,0.4,3.7,2l4.7,15.4c0.5,1.6-0.4,3.3-2,3.7l-13,4c-1.6,0.5-3.3-0.4-3.8-2
			l-4.7-15.4C1432.5,177.3,1433.4,175.6,1435,175.1z"/>
		<path class="st33" d="M1435.8,176.9l12.6-3.9c0.8-0.2,1.7,0.2,1.9,1l4.5,14.6c0.2,0.8-0.2,1.7-1,1.9l-12.6,3.9
			c-0.8,0.3-1.7-0.2-1.9-1l-4.5-14.6C1434.5,178,1435,177.1,1435.8,176.9z"/>
		
			<ellipse transform="matrix(0.2249 -0.9744 0.9744 0.2249 975.1443 1576.4668)" class="st112" cx="1478.4" cy="175.3" rx="4.1" ry="4.1"/>
		
			<ellipse transform="matrix(0.2252 -0.9743 0.9743 0.2252 974.6148 1576.2764)" class="st25" cx="1478.4" cy="175.3" rx="3.2" ry="3.2"/>
		
			<ellipse transform="matrix(0.2251 -0.9743 0.9743 0.2251 966.0726 1570.3485)" class="st112" cx="1470.3" cy="177.8" rx="3.1" ry="3.1"/>
		
			<ellipse transform="matrix(0.2248 -0.9744 0.9744 0.2248 966.4958 1570.5013)" class="st25" cx="1470.3" cy="177.8" rx="2.2" ry="2.2"/>
		<path class="st25" d="M1458.3,227.9c7.1-2.2,11.1-9.7,8.9-16.8c-2.2-7.1-9.7-11.1-16.8-8.9c-7.1,2.2-11.1,9.7-8.9,16.8
			C1443.7,226,1451.2,230,1458.3,227.9z"/>
		<ellipse transform="matrix(0.956 -0.2935 0.2935 0.956 0.9509 436.2842)" class="st124" cx="1454.4" cy="215" rx="4.8" ry="4.8"/>
		<path class="st124" d="M1445.1,208.6c0.8-1.1,2.1-2.5,3.6-3.3c1.5-0.8,2.7,1.2,1.2,2.1c-1.2,0.7-2.2,1.5-2.8,2.6
			C1446.1,211.6,1444.1,210.2,1445.1,208.6z"/>
		<path class="st124" d="M1445.4,221.7c-1.9-2.6-2.6-5.8-2-8.7c0.4-1.8,2.7-1.3,2.3,0.4c-0.4,2.3,0.1,4.8,1.6,6.9
			C1448.5,221.8,1446.5,223.1,1445.4,221.7z"/>
		<path class="st25" d="M1440,180.1l6.6-2c0.4-0.1,0.9,0.1,1,0.5l2.4,7.7c0.1,0.4-0.1,0.9-0.5,1l-6.6,2c-0.4,0.1-0.9-0.1-1-0.5
			l-2.4-7.7C1439.4,180.7,1439.6,180.2,1440,180.1z"/>
	</g>
</g>
<g>
	<defs>
		<rect id="SVGID_7_" y="0" width="1920" height="1080"/>
	</defs>
	<clipPath id="SVGID_2_">
		<use xlink:href="#SVGID_7_"  style="overflow:visible;"/>
	</clipPath>
	<g class="st5">
		<g>
			<polygon class="st96" points="1354.1,747.1 1448.5,712.2 1464.4,706.4 1522,862.4 1411.7,903.2 			"/>
			<g>
				<polygon class="st27" points="1383.7,727.6 1482.1,706.3 1502.2,719.2 1498.6,702.7 1533.9,865.2 1418.9,890.2 				"/>
				<line class="st132" x1="1478.5" y1="827.7" x2="1480.7" y2="837.9"/>
				<line class="st132" x1="1503.2" y1="822.4" x2="1507.6" y2="842.7"/>
				<g>
					
						<ellipse transform="matrix(0.9773 -0.2119 0.2119 0.9773 -133.4259 334.3954)" class="st124" cx="1493.7" cy="789.8" rx="12.5" ry="12.5"/>
					<path class="st92" d="M1489.2,801.4c-2-0.8-3.8-2.1-5.1-3.7l9.6-7.9L1489.2,801.4z"/>
					<path class="st68" d="M1484.1,797.7c-1.2-1.5-2.1-3.3-2.5-5.3c-0.8-3.9,0.2-7.8,2.6-10.6l9.6,8L1484.1,797.7z"/>
					<path class="st124" d="M1484.2,781.9c1.7-2.1,4.1-3.6,6.9-4.2l2.6,12.2L1484.2,781.9z"/>
					<path class="st92" d="M1491.1,777.7l2.6,12.2l6.8-10.4C1497.9,777.6,1494.5,776.9,1491.1,777.7z"/>
				</g>
				<g>
					
						<rect x="1415.1" y="815.7" transform="matrix(0.9773 -0.2119 0.2119 0.9773 -140.6214 324.4908)" class="st92" width="57.1" height="5.3"/>
					
						<rect x="1411.8" y="790.4" transform="matrix(0.9773 -0.2119 0.2119 0.9773 -138.5661 318.545)" class="st124" width="10.2" height="30.6"/>
					
						<rect x="1424.5" y="799.4" transform="matrix(0.9773 -0.2119 0.2119 0.9773 -138.9537 321.3361)" class="st68" width="10.2" height="19.1"/>
					
						<rect x="1436.7" y="803.3" transform="matrix(0.9773 -0.2119 0.2119 0.9773 -138.806 323.8883)" class="st92" width="10.2" height="12.6"/>
					
						<rect x="1447.5" y="794.9" transform="matrix(0.9773 -0.212 0.212 0.9773 -137.4653 326.2154)" class="st124" width="10.2" height="18.5"/>
					
						<rect x="1459.5" y="797.7" transform="matrix(0.9773 -0.2119 0.2119 0.9773 -137.1489 328.5615)" class="st92" width="10.2" height="13.2"/>
				</g>
				
					<rect x="1485.9" y="805.9" transform="matrix(0.9773 -0.2118 0.2118 0.9773 -137.4896 333.5994)" class="st68" width="5.1" height="5.3"/>
				
					<rect x="1493.1" y="803.3" transform="matrix(0.9773 -0.2119 0.2119 0.9773 -136.6772 336.239)" class="st68" width="15.2" height="5.3"/>
				<g>
					
						<rect x="1416.8" y="732.5" transform="matrix(0.9773 -0.2119 0.2119 0.9773 -122.8296 322.9713)" class="st68" width="57.1" height="4.1"/>
					
						<rect x="1399.5" y="742.4" transform="matrix(0.9773 -0.2119 0.2119 0.9773 -124.882 323.6471)" class="st68" width="96" height="4.1"/>
					
						<rect x="1401" y="749.4" transform="matrix(0.9773 -0.2119 0.2119 0.9773 -126.3214 324.1303)" class="st68" width="96" height="4.1"/>
					
						<rect x="1402.5" y="756.3" transform="matrix(0.9773 -0.2119 0.2119 0.9773 -127.7587 324.606)" class="st68" width="96" height="4.1"/>
					
						<rect x="1404.6" y="768.7" transform="matrix(0.9773 -0.2119 0.2119 0.9773 -130.9099 319.9279)" class="st68" width="45" height="4.1"/>
					<polygon class="st68" points="1485.7,722.8 1502.2,719.2 1482.1,706.3 					"/>
				</g>
				
					<rect x="1419" y="835.4" transform="matrix(0.9773 -0.2119 0.2119 0.9773 -145.2141 321.8706)" class="st92" width="20.3" height="6.2"/>
				
					<rect x="1443.8" y="830" transform="matrix(0.9773 -0.2119 0.2119 0.9773 -143.5189 327.0059)" class="st92" width="20.3" height="6.2"/>
				
					<rect x="1468.4" y="824.7" transform="matrix(0.9773 -0.2119 0.2119 0.9773 -141.8317 332.1105)" class="st92" width="20.3" height="6.2"/>
				
					<rect x="1493" y="819.3" transform="matrix(0.9773 -0.212 0.212 0.9773 -140.1599 337.2971)" class="st78" width="20.3" height="6.2"/>
				
					<rect x="1421.2" y="845.5" transform="matrix(0.9773 -0.2119 0.2119 0.9773 -147.325 322.5926)" class="st92" width="20.3" height="6.2"/>
				
					<rect x="1423.4" y="855.7" transform="matrix(0.9773 -0.2119 0.2119 0.9773 -149.402 323.2138)" class="st92" width="20.3" height="6.2"/>
				
					<rect x="1425.6" y="865.8" transform="matrix(0.9773 -0.2119 0.2119 0.9773 -151.5298 323.985)" class="st92" width="20.3" height="6.2"/>
				
					<rect x="1470.6" y="834.8" transform="matrix(0.9773 -0.2119 0.2119 0.9773 -143.9259 332.7802)" class="st79" width="20.3" height="6.2"/>
				
					<rect x="1495.3" y="829.5" transform="matrix(0.9773 -0.2119 0.2119 0.9773 -142.2393 337.9155)" class="st78" width="20.3" height="6.2"/>
				
					<rect x="1497.5" y="839.6" transform="matrix(0.9773 -0.2119 0.2119 0.9773 -144.3446 338.6209)" class="st78" width="20.3" height="6.2"/>
			</g>
		</g>
		<g>
			
				<ellipse transform="matrix(0.4385 -0.8987 0.8987 0.4385 384.9245 1764.434)" class="st92" cx="1604.5" cy="574.2" rx="47.1" ry="47.1"/>
			
				<ellipse transform="matrix(0.4385 -0.8987 0.8987 0.4385 384.9449 1764.4551)" class="st124" cx="1604.5" cy="574.2" rx="44.2" ry="44.2"/>
			<path class="st92" d="M1626.6,522.3l2.8,1.4c1.8,0.9,2.6,3.1,1.7,4.9l-10.2,20.8c-0.9,1.8-3.1,2.6-4.9,1.7l-2.8-1.4
				c-1.8-0.9-2.6-3.1-1.7-4.9l10.2-20.8C1622.6,522.1,1624.8,521.4,1626.6,522.3z"/>
			<path class="st124" d="M1626.3,524.2l1.8,0.9c1.2,0.6,1.6,2,1.1,3.1l-9.5,19.5c-0.6,1.2-2,1.6-3.1,1.1l-1.8-0.9
				c-1.2-0.6-1.6-2-1.1-3.1l9.5-19.5C1623.7,524.1,1625.2,523.6,1626.3,524.2z"/>
			
				<ellipse transform="matrix(0.4385 -0.8987 0.8987 0.4385 384.9324 1764.4423)" class="st92" cx="1604.5" cy="574.2" rx="37.1" ry="37.1"/>
			
				<ellipse transform="matrix(0.4385 -0.8987 0.8987 0.4385 384.9282 1764.4382)" class="st124" cx="1604.5" cy="574.2" rx="33.4" ry="33.4"/>
			
				<ellipse transform="matrix(0.4385 -0.8987 0.8987 0.4385 384.9047 1764.4136)" class="st96" cx="1604.5" cy="574.2" rx="28.4" ry="28.4"/>
			
				<ellipse transform="matrix(0.4385 -0.8987 0.8987 0.4385 384.9307 1764.4402)" class="st128" cx="1604.5" cy="574.2" rx="20.5" ry="20.5"/>
			<path class="st128" d="M1629.2,568.8c1.2,5.4,0.6,11.1-2,16.5c-6.1,12.5-21.3,17.8-33.8,11.6c-5.3-2.6-9.3-6.8-11.7-11.7
				c2.5,4.1,6.1,7.6,10.7,9.8c12.7,6.2,28.1,0.9,34.3-11.8C1629,578.5,1629.8,573.5,1629.2,568.8z"/>
		</g>
		<g>
			<path class="st85" d="M1365.2,973.9c19.2-6.4,89.1-21.9,100.3-22.8c11.2-0.9,16.3,11.7,18,16.9c1.6,5.3-4.1,8.6-6.9-0.2
				c-2.8-8.9-5-13.5-11.4-12.1c-6.4,1.4-91.4,22.7-97.3,24.4C1362.1,981.7,1361.2,974.8,1365.2,973.9z"/>
			<path class="st96" d="M1476.2,939.5c-19.5,5.6-85.9,32.3-95.6,38c-9.7,5.6-6.9,18.9-5.3,24.1c1.6,5.3,8.3,4.8,5.5-4.1
				c-2.8-8.9-3.5-13.9,2.6-16.4c6-2.5,88.3-33,94-34.9C1483.2,944.2,1480,938,1476.2,939.5z"/>
			<path class="st85" d="M1452.7,985.1c3.2,0.2,6.9-0.3,11.2-2c15.2-6,16.9-13.6,15.8-22.3c-1.2-9.5-2.1-12.7,0.1-14.3
				c1.6-1.2,1.4-3.3,0.5-5.6c-0.9-2.3-1-2.5-4.4-2.6c-2.1,0-10.8,1.8-19.1,4.3l-0.3,2.8c5.5-1.5,10.3-2.2,12.3-1.7
				c6.1,1.4,9.6,16.3,7.8,24.7c-1.7,8.3-15.1,14.8-23.6,14.3L1452.7,985.1z M1421.2,958.9c-3,1-15.5,1.6-25.5,3.3l-0.2,2.6
				c6.7-1.3,13.3-1.4,16.7,1.1c7,5.1,4,23.7-2.5,29.7c-3.8,3.5-11.1,5.9-17.7,5.8l-0.2,2.6c2.4-0.1,5.1-0.4,8.3-1.2
				c15.7-3.6,17.7-15,18.4-18.7c1.2-6.6-2.1-14.1,5.6-16.5c7.7-2.4,9.3,5.5,14,10.3c1.9,1.9,6.6,6.8,14.5,7.2l0.2-2.4
				c-0.4,0-0.8-0.1-1.2-0.1c-8.7-1.2-21.7-14.9-18.8-23.1c2.2-6.2,13.9-11.4,23.5-14.1l0.3-2.8c-3.1,0.9-6.2,2-8.9,3
				C1439,949.2,1429.3,956.2,1421.2,958.9z M1395.8,962.2c-1.3,0.2-2.5,0.5-3.7,0.7c-10.3,2.3-24.9,8.2-27.2,9.8
				c-2.8,1.9-2.8,2.2-2.2,4.6c0.6,2.4,1.6,4.3,3.6,4.3c2.7,0.1,3.7,3.2,8.2,11.7c3.2,6.2,7.5,10.9,17.4,10.6l0.2-2.6
				c-4.3,0-8.2-1.1-10.8-3.5c-6.2-5.9-11.7-20.2-7.5-24.8c2.2-2.4,12.2-6.6,21.8-8.4L1395.8,962.2z"/>
			<path class="st96" d="M1373.7,973.2c3.7-4.1,30.1-13.3,38.5-7.2c7,5.1,4,23.7-2.5,29.7c-6.3,5.8-22,8.5-28.5,2.3
				C1375.1,992,1369.6,977.8,1373.7,973.2L1373.7,973.2z M1468.7,943.8c-5.4-1.3-32.4,6.1-35.8,15.8c-2.9,8.2,10.1,21.8,18.8,23.1
				c8.5,1.2,23-5.5,24.8-14.2C1478.3,960,1474.8,945.2,1468.7,943.8z"/>
			<g class="st133">
				<path class="st134" d="M1376,971.5c7.6-4.4,28.8-10.9,36.2-5.6c4.9,3.6,4.9,13.8,2.2,21.7L1376,971.5z"/>
				<path class="st134" d="M1436.2,955.1l39.2,16.4c0.6-1,1-2,1.2-3c1.8-8.4-1.7-23.2-7.8-24.7
					C1464.2,942.7,1444.5,947.7,1436.2,955.1z"/>
			</g>
			<path class="st96" d="M1461.9,944.2c-6.6,2.4-14.4,5.3-22.4,8.4c-2.1,1.3-3.8,2.8-5,4.3l0,0l0,0l0,0l0,0l0,0l0,0l0,0l0,0l0,0l0,0
				l0,0l-0.1,0.1l0,0l0,0l0,0l0,0l0,0l0,0l0,0l0,0l0,0l0,0l0,0l0,0l0,0l0,0l0,0l0,0l0,0l0,0l0,0l0,0.1l0,0l0,0l0,0l0,0l0,0l0,0l0,0
				l0,0l0,0l0,0l0,0l0,0l0,0l0,0l0,0l0,0l0,0l0,0l0,0l0,0l0,0l0,0l0,0l0,0l0,0l0,0.1l0,0l0,0l0,0l0,0.1l0,0l0,0l0,0l0,0l0,0l0,0l0,0
				l0,0l0,0l0,0l0,0l0,0l0,0l0,0l0,0.1l0,0l0,0l0,0.1l0,0l0,0.1l0,0l0,0l0,0l0,0l0,0l0,0l0,0l0,0l0,0l0,0l0,0l0,0l0,0l0,0l0,0l0,0
				l0,0l0,0l0,0l0,0l0,0l0,0c-0.3,1.1-0.3,2.3-0.1,3.6c16.5-4.1,30.2-7.5,32.6-8c6.4-1.4,8.6,3.2,11.4,12.1l0,0
				c0.6-3.7,0.3-8.6-0.7-12.9c-2.7-2.5-6.1-4.1-10.4-3.8c-0.7,0-1.5,0.1-2.5,0.3c4.1-1.5,7.6-2.8,10.1-3.7c-1.2-2.1-2.7-3.5-4.4-3.9
				C1467.5,943.5,1465,943.6,1461.9,944.2L1461.9,944.2z M1379.6,969.7c6.8-1.8,14.8-3.8,23.2-5.8c2.5-0.1,4.7,0.1,6.6,0.7v0l0.1,0
				l0,0c0.1,0,0.2,0,0.2,0.1l0,0l0,0l0,0l0,0l0,0l0,0l0,0l0,0l0,0l0,0l0,0l0,0l0,0l0,0l0,0l0,0l0,0l0,0l0,0l0,0l0,0l0,0l0,0l0,0l0,0
				l0,0l0,0l0,0l0,0l0,0l0,0l0,0l0,0l0,0l0,0l0,0l0,0l0,0l0,0l0,0l0,0l0,0l0,0l0,0l0,0l0,0l0,0l0,0l0,0l0,0l0,0l0,0l0,0l0,0l0,0l0,0
				l0,0l0,0l0,0l0,0l0,0l0,0l0,0l0,0l0,0l0,0l0,0l0,0l0,0l0.1,0l0,0l0.1,0.1l0,0l0,0l0.1,0.1l0,0l0,0l0,0l0,0l0,0l0,0l0,0l0,0l0,0
				l0,0l0,0l0,0l0,0l0,0l0,0l0,0l0,0l0.1,0.1l0,0l0,0l0,0c0.8,0.8,1.5,1.7,2.1,2.8c-15.9,5.9-29.1,10.9-31.4,11.8
				c-6,2.5-5.3,7.5-2.6,16.4l0,0.1c-2.7-2.7-5.1-6.9-6.7-11.1c0.8-3.6,2.7-6.9,6.4-9.1c0.6-0.3,1.3-0.7,2.3-1.2
				c-4.3,1.1-7.9,2-10.5,2.7c-0.1-2.4,0.3-4.4,1.4-5.7C1374.6,972.2,1376.8,971,1379.6,969.7z"/>
			<g>
				<path class="st86" d="M1376,971.5l15.4,6.5c5.8-2.2,14.2-5.3,23.4-8.7c-0.5-1.1-1.2-2.1-2.1-2.8l0,0l0,0l0,0l-0.1-0.1l0,0l0,0
					l0,0l0,0l0,0l0,0l0,0l0,0l0,0l0,0l0,0l0,0l0,0l0,0l0,0l0,0l0,0l-0.1-0.1l0,0l0,0l-0.1-0.1l0,0l-0.1,0l0,0l0,0l0,0l0,0l0,0l0,0
					l0,0l0,0l0,0l0,0l0,0l0,0l0,0l0,0l0,0l0,0l0,0l0,0l0,0l0,0l0,0l0,0l0,0l0,0l0,0l0,0l0,0l0,0l0,0l0,0l0,0l0,0l0,0l0,0l0,0l0,0
					l0,0l0,0l0,0l0,0l0,0l0,0l0,0l0,0l0,0l0,0l0,0l0,0l0,0l0,0l0,0l0,0l0,0l0,0l0,0l0,0l0,0l0,0l0,0l0,0l0,0l0,0l0,0l0,0l0,0l0,0
					l0,0l0,0l0,0c-0.1,0-0.2-0.1-0.2-0.1l0,0l-0.1,0v0c-1.9-0.5-4.1-0.7-6.6-0.7c-8.4,2-16.4,4-23.2,5.8
					C1378.2,970.3,1377,970.9,1376,971.5z"/>
				<path class="st86" d="M1461.9,944.2c-6.6,2.4-14.4,5.3-22.4,8.4c-1.2,0.8-2.4,1.6-3.3,2.5l11.6,4.8c9.2-2.3,15.9-3.9,17.5-4.3
					c6.4-1.4,8.6,3.2,11.4,12.1l0,0c0.6-3.7,0.3-8.6-0.7-12.9c-2.7-2.5-6.1-4.1-10.4-3.8c-0.7,0-1.5,0.1-2.5,0.3
					c4.1-1.5,7.6-2.8,10.1-3.7c-1.2-2.1-2.7-3.5-4.4-3.9C1467.5,943.5,1465,943.6,1461.9,944.2z"/>
			</g>
		</g>
		<g>
			<g>
				<g>
					<path class="st130" d="M1805.4,759.6c2.9,0.6,5.5,1.5,8,2.6c8.2,3.7,14.2,10.2,16.7,20.2c1.5,6,1.8,13.2,0.5,21.9
						c1.4,0.9,2.7,1.9,4,3.1c4.2,3.8,7.5,9,10.2,15c8.1,18.4,9.5,44.5,7.8,62.2l-0.5,7.7l-1.4-2.8l0.3-5c1.7-17.5,0.3-43.3-7.7-61.4
						c-2.5-5.8-5.8-10.8-9.8-14.5c-1-0.9-2.1-1.8-3.2-2.5c-0.3,2-0.8,4.1-1.3,6.3c-4.8,20.8-13.9,30.6-23,33.5
						c-0.2,0.1-0.5,0.1-0.7,0.2v-1.7l0.2-0.1c8.6-2.7,17.3-12.1,21.9-32.3c0.6-2.4,1-4.7,1.3-6.9c-2.9-1.7-6.1-2.7-9.7-3.1
						c-4.1-0.4-8.7,0.2-13.8,1.9v-1.7c5.1-1.7,9.8-2.2,14-1.8c3.6,0.3,6.8,1.4,9.8,3c1.1-8.2,0.9-15-0.5-20.6
						c-2.4-9.5-8.1-15.6-15.8-19.1c-2.3-1-4.8-1.8-7.4-2.4V759.6z M1725.1,778.3c17-9.7,39.4-17.8,59.2-19.6
						c7.6-0.7,14.8-0.5,21.2,1v1.6c-6.3-1.4-13.5-1.7-21-1c-19.6,1.8-41.7,9.9-58.6,19.4L1725.1,778.3L1725.1,778.3z M1805.4,846
						c-6.5,1.8-12.9,0.1-17.6-3.5c-4.9-3.8-7.9-9.8-7.5-16.2c0.6-7.7,6.3-16,20.1-22.1c1.7-0.7,3.4-1.4,5-1.9v1.7
						c-1.4,0.5-2.8,1-4.3,1.7c-13.2,5.8-18.6,13.6-19.1,20.7c-0.5,5.9,2.4,11.3,6.8,14.8c4.4,3.5,10.5,5,16.6,3.1V846z"/>
					<g>
						
							<ellipse transform="matrix(0.9439 -0.3301 0.3301 0.9439 -195.6685 664.7368)" class="st92" cx="1859.4" cy="908.5" rx="18.3" ry="23.9"/>
						
							<ellipse transform="matrix(0.9439 -0.3301 0.3301 0.9439 -194.8736 664.3432)" class="st27" cx="1858.5" cy="905.9" rx="15.1" ry="19.8"/>
						<path class="st90" d="M1851.5,885.9c0.1,0,0.2-0.1,0.4-0.1l4.1,11.8l-0.7,0.3l-4.1-11.8C1851.3,886,1851.4,886,1851.5,885.9z"
							/>
						<path class="st92" d="M1851.3,889.4l2.7-0.9c0.6-0.2,1.3,0.1,1.5,0.7l4.3,12.2c0.2,0.6-0.1,1.3-0.7,1.5l-2.7,0.9
							c-0.6,0.2-1.3-0.1-1.5-0.7l-4.3-12.2C1850.3,890.3,1850.7,889.7,1851.3,889.4z"/>
						<path class="st27" d="M1852.2,890.1l1.5-0.5c0.3-0.1,0.7,0.1,0.8,0.4l4,11.4c0.1,0.3-0.1,0.7-0.4,0.8l-1.5,0.5
							c-0.3,0.1-0.7-0.1-0.8-0.4l-4-11.4C1851.6,890.6,1851.8,890.2,1852.2,890.1z"/>
					</g>
				</g>
				<g>
					<path class="st135" d="M1725.4,772.8l-181.9,125.8c-2.3,1.6-2.9,4.8-1.3,7.2l81.6,118c1.6,2.3,4.8,2.9,7.2,1.3l181.9-125.8
						c2.3-1.6,2.9-4.8,1.3-7.2l-81.6-118C1731,771.8,1727.7,771.2,1725.4,772.8z"/>
					<path class="st135" d="M1690.3,683l-216.7,149.8c-5.2,3.6-6.5,6.7,1,13l63.6,53.2l189.9-131.3l-24.7-70.2
						C1697.9,681.8,1696.1,679,1690.3,683z"/>
					<path class="st27" d="M1691.8,684.7l-219,151.5c-0.6,0.4-0.8,1.3-0.3,1.9l0,0c0.4,0.6,1.3,0.8,1.9,0.3l219.1-151.5
						c0.6-0.4,0.8-1.3,0.3-1.9l0,0C1693.3,684.4,1692.4,684.2,1691.8,684.7z"/>
					<g>
						<path class="st96" d="M1717.1,778.5l-10.5,7.3l4.2,6c0.4,0.5,1.1,0.7,1.7,0.3l8.6-5.9c0.5-0.4,0.7-1.1,0.3-1.7L1717.1,778.5z"
							/>
						<path class="st96" d="M1569.5,905.6l-5.9,4.1c-0.7,0.5-0.8,1.4-0.4,2.1l3,4.4c0.5,0.7,1.4,0.8,2.1,0.4l5.9-4.1
							c0.7-0.5,0.8-1.4,0.4-2.1l-3-4.4C1571.1,905.3,1570.1,905.1,1569.5,905.6z"/>
						<path class="st96" d="M1575,914.1l-5.3,3.7c-0.8,0.6-1,1.7-0.5,2.5l4.1,5.9c0.6,0.8,1.7,1,2.5,0.5l5.3-3.7
							c0.8-0.6,1-1.7,0.5-2.5l-4.1-5.9C1576.9,913.7,1575.8,913.5,1575,914.1z"/>
						<path class="st96" d="M1582.2,924.5l-5.3,3.7c-0.8,0.6-1,1.7-0.5,2.5l4.1,5.9c0.6,0.8,1.7,1,2.5,0.5l5.3-3.7
							c0.8-0.6,1-1.7,0.5-2.5l-4.1-5.9C1584.1,924.1,1583,923.9,1582.2,924.5z"/>
						<path class="st96" d="M1589.4,934.9l-5.3,3.7c-0.8,0.6-1,1.7-0.5,2.5l4.1,5.9c0.6,0.8,1.7,1,2.5,0.5l5.3-3.7
							c0.8-0.6,1-1.7,0.5-2.5l-4.1-5.9C1591.3,934.5,1590.2,934.3,1589.4,934.9z"/>
						<path class="st96" d="M1596.6,945.3l-5.3,3.7c-0.8,0.6-1,1.7-0.5,2.5l4.1,5.9c0.6,0.8,1.7,1,2.5,0.5l5.3-3.7
							c0.8-0.6,1-1.7,0.5-2.5l-4.1-5.9C1598.5,945,1597.4,944.7,1596.6,945.3z"/>
						<path class="st96" d="M1603.8,955.7l-5.3,3.7c-0.8,0.6-1,1.7-0.5,2.5l4.1,5.9c0.6,0.8,1.7,1,2.5,0.5l5.3-3.7
							c0.8-0.6,1-1.7,0.5-2.5l-4.1-5.9C1605.7,955.4,1604.6,955.2,1603.8,955.7z"/>
						<path class="st96" d="M1579.8,898.4l-5.9,4.1c-0.7,0.5-0.8,1.4-0.4,2.1l3,4.4c0.5,0.7,1.4,0.8,2.1,0.4l5.9-4.1
							c0.7-0.5,0.8-1.4,0.4-2.1l-3-4.4C1581.4,898.1,1580.5,897.9,1579.8,898.4z"/>
						<path class="st96" d="M1594.8,900.3l-14.7,10.2c-0.9,0.6-1.1,1.8-0.5,2.7l3.9,5.7c0.6,0.9,1.8,1.1,2.7,0.5l14.7-10.2
							c0.9-0.6,1.1-1.8,0.5-2.7l-3.9-5.7C1596.9,900,1595.7,899.7,1594.8,900.3z"/>
						<path class="st96" d="M1595.3,915.4l-8,5.5c-0.9,0.6-1.1,1.8-0.5,2.7l3.9,5.7c0.6,0.9,1.8,1.1,2.7,0.5l8-5.5
							c0.9-0.6,1.1-1.8,0.5-2.7l-3.9-5.7C1597.3,915,1596.1,914.8,1595.3,915.4z"/>
						<path class="st96" d="M1610.4,920.4l-15.9,11c-0.9,0.6-1.1,1.8-0.5,2.7l3.9,5.7c0.6,0.9,1.8,1.1,2.7,0.5l15.9-11
							c0.9-0.6,1.1-1.8,0.5-2.7l-3.9-5.7C1612.5,920,1611.3,919.8,1610.4,920.4z"/>
						<path class="st96" d="M1606.9,938.1l-5.3,3.7c-0.8,0.6-1,1.7-0.5,2.5l4.1,5.9c0.6,0.8,1.7,1,2.5,0.5l5.3-3.7
							c0.8-0.6,1-1.7,0.5-2.5l-4.1-5.9C1608.9,937.8,1607.8,937.6,1606.9,938.1z"/>
						<path class="st96" d="M1614.1,948.6l-5.3,3.7c-0.8,0.6-1,1.7-0.5,2.5l4.1,5.9c0.6,0.8,1.7,1,2.5,0.5l5.3-3.7
							c0.8-0.6,1-1.7,0.5-2.5l-4.1-5.9C1616.1,948.2,1615,948,1614.1,948.6z"/>
						<path class="st96" d="M1589.4,891.8l-5.1,3.5c-0.7,0.5-0.8,1.4-0.4,2.1l3,4.4c0.5,0.7,1.4,0.8,2.1,0.4l5.1-3.5
							c0.7-0.5,0.8-1.4,0.4-2.1l-3-4.4C1591,891.5,1590.1,891.3,1589.4,891.8z"/>
						<path class="st96" d="M1599.2,885l-5.1,3.5c-0.7,0.5-0.8,1.4-0.4,2.1l3,4.4c0.5,0.7,1.4,0.8,2.1,0.4l5.1-3.5
							c0.7-0.5,0.8-1.4,0.4-2.1l-3-4.4C1600.8,884.7,1599.8,884.6,1599.2,885z"/>
						<path class="st96" d="M1608.9,878.3l-5.1,3.5c-0.7,0.5-0.8,1.4-0.4,2.1l3,4.4c0.5,0.7,1.4,0.8,2.1,0.4l5.1-3.5
							c0.7-0.5,0.8-1.4,0.4-2.1l-3-4.4C1610.5,878,1609.6,877.8,1608.9,878.3z"/>
						<path class="st96" d="M1618.7,871.5l-5.1,3.5c-0.7,0.5-0.8,1.4-0.4,2.1l3,4.4c0.5,0.7,1.4,0.8,2.1,0.4l5.1-3.5
							c0.7-0.5,0.8-1.4,0.4-2.1l-3-4.4C1620.2,871.3,1619.3,871.1,1618.7,871.5z"/>
						<path class="st96" d="M1628.4,864.8l-5.1,3.5c-0.7,0.5-0.8,1.4-0.4,2.1l3,4.4c0.5,0.7,1.4,0.8,2.1,0.4l5.1-3.5
							c0.7-0.5,0.8-1.4,0.4-2.1l-3-4.4C1630,864.5,1629.1,864.3,1628.4,864.8z"/>
						<path class="st96" d="M1638.1,858.1l-5.1,3.5c-0.7,0.5-0.8,1.4-0.4,2.1l3,4.4c0.5,0.7,1.4,0.8,2.1,0.4l5.1-3.5
							c0.7-0.5,0.8-1.4,0.4-2.1l-3-4.4C1639.7,857.8,1638.8,857.6,1638.1,858.1z"/>
						<path class="st96" d="M1647.9,851.3l-5.1,3.5c-0.7,0.5-0.8,1.4-0.4,2.1l3,4.4c0.5,0.7,1.4,0.8,2.1,0.4l5.1-3.5
							c0.7-0.5,0.8-1.4,0.4-2.1l-3-4.4C1649.5,851,1648.5,850.9,1647.9,851.3z"/>
						<path class="st96" d="M1657.6,844.6l-5.1,3.5c-0.7,0.5-0.8,1.4-0.4,2.1l3,4.4c0.5,0.7,1.4,0.8,2.1,0.4l5.1-3.5
							c0.7-0.5,0.8-1.4,0.4-2.1l-3-4.4C1659.2,844.3,1658.3,844.1,1657.6,844.6z"/>
						<path class="st96" d="M1667.4,837.9l-5.1,3.5c-0.7,0.5-0.8,1.4-0.4,2.1l3,4.4c0.5,0.7,1.4,0.8,2.1,0.4l5.1-3.5
							c0.7-0.5,0.8-1.4,0.4-2.1l-3-4.4C1668.9,837.6,1668,837.4,1667.4,837.9z"/>
						<path class="st96" d="M1677.1,831.1l-5.1,3.5c-0.7,0.5-0.8,1.4-0.4,2.1l3,4.4c0.5,0.7,1.4,0.8,2.1,0.4l5.1-3.5
							c0.7-0.5,0.8-1.4,0.4-2.1l-3-4.4C1678.7,830.8,1677.8,830.7,1677.1,831.1z"/>
						<path class="st96" d="M1686.8,824.4l-5.1,3.5c-0.7,0.5-0.8,1.4-0.4,2.1l3,4.4c0.5,0.7,1.4,0.8,2.1,0.4l5.1-3.5
							c0.7-0.5,0.8-1.4,0.4-2.1l-3-4.4C1688.4,824.1,1687.5,823.9,1686.8,824.4z"/>
						<path class="st96" d="M1696.6,817.7l-5.1,3.5c-0.7,0.5-0.8,1.4-0.4,2.1l3,4.4c0.5,0.7,1.4,0.8,2.1,0.4l5.1-3.5
							c0.7-0.5,0.8-1.4,0.4-2.1l-3-4.4C1698.2,817.4,1697.2,817.2,1696.6,817.7z"/>
						<path class="st96" d="M1706.3,810.9l-5.1,3.5c-0.7,0.5-0.8,1.4-0.4,2.1l3,4.4c0.5,0.7,1.4,0.8,2.1,0.4l5.1-3.5
							c0.7-0.5,0.8-1.4,0.4-2.1l-3-4.4C1707.9,810.6,1707,810.5,1706.3,810.9z"/>
						<path class="st96" d="M1716.1,804.2l-5.1,3.5c-0.7,0.5-0.8,1.4-0.4,2.1l3,4.4c0.5,0.7,1.4,0.8,2.1,0.4l5.1-3.5
							c0.7-0.5,0.8-1.4,0.4-2.1l-3-4.4C1717.6,803.9,1716.7,803.7,1716.1,804.2z"/>
						<path class="st96" d="M1727,796.6l-5.9,4.1c-0.7,0.5-0.8,1.4-0.4,2.1l3,4.4c0.5,0.7,1.4,0.8,2.1,0.4l5.9-4.1
							c0.7-0.5,0.8-1.4,0.4-2.1l-3-4.4C1728.6,796.3,1727.7,796.2,1727,796.6z"/>
						<path class="st96" d="M1605.3,893.1l-5.2,3.6c-0.8,0.6-1,1.7-0.4,2.5l4.1,6c0.6,0.8,1.7,1,2.5,0.4l5.2-3.6
							c0.8-0.6,1-1.7,0.4-2.5l-4.1-6C1607.2,892.7,1606.1,892.5,1605.3,893.1z"/>
						<path class="st96" d="M1615.9,885.8l-5.2,3.6c-0.8,0.6-1,1.7-0.5,2.5l4.1,6c0.6,0.8,1.7,1,2.5,0.4l5.2-3.6
							c0.8-0.6,1-1.7,0.5-2.5l-4.1-6C1617.8,885.4,1616.7,885.2,1615.9,885.8z"/>
						<path class="st96" d="M1626.5,878.5l-5.2,3.6c-0.8,0.6-1,1.7-0.4,2.5l4.1,6c0.6,0.8,1.7,1,2.5,0.4l5.2-3.6
							c0.8-0.6,1-1.7,0.5-2.5l-4.1-6C1628.4,878.1,1627.3,877.9,1626.5,878.5z"/>
						<path class="st96" d="M1637,871.1l-5.2,3.6c-0.8,0.6-1,1.7-0.5,2.5l4.1,6c0.6,0.8,1.7,1,2.5,0.4l5.2-3.6
							c0.8-0.6,1-1.7,0.4-2.5l-4.1-6C1638.9,870.8,1637.8,870.6,1637,871.1z"/>
						<path class="st96" d="M1647.6,863.8l-5.2,3.6c-0.8,0.6-1,1.7-0.5,2.5l4.1,6c0.6,0.8,1.7,1,2.5,0.4l5.2-3.6
							c0.8-0.6,1-1.7,0.4-2.5l-4.1-6C1649.5,863.5,1648.4,863.3,1647.6,863.8z"/>
						<path class="st96" d="M1658.2,856.5l-5.2,3.6c-0.8,0.6-1,1.7-0.4,2.5l4.1,6c0.6,0.8,1.7,1,2.5,0.4l5.2-3.6
							c0.8-0.6,1-1.7,0.4-2.5l-4.1-6C1660.1,856.2,1659,856,1658.2,856.5z"/>
						<path class="st96" d="M1668.7,849.2l-5.2,3.6c-0.8,0.6-1,1.7-0.4,2.5l4.1,6c0.6,0.8,1.7,1,2.5,0.4l5.2-3.6
							c0.8-0.6,1-1.7,0.4-2.5l-4.1-6C1670.6,848.9,1669.5,848.7,1668.7,849.2z"/>
						<path class="st96" d="M1679.3,841.9l-5.2,3.6c-0.8,0.6-1,1.7-0.4,2.5l4.1,6c0.6,0.8,1.7,1,2.5,0.4l5.2-3.6
							c0.8-0.6,1-1.7,0.4-2.5l-4.1-6C1681.2,841.6,1680.1,841.4,1679.3,841.9z"/>
						<path class="st96" d="M1689.9,834.6l-5.2,3.6c-0.8,0.6-1,1.7-0.4,2.5l4.1,6c0.6,0.8,1.7,1,2.5,0.4l5.2-3.6
							c0.8-0.6,1-1.7,0.5-2.5l-4.1-6C1691.8,834.3,1690.7,834.1,1689.9,834.6z"/>
						<path class="st96" d="M1700.4,827.3l-5.2,3.6c-0.8,0.6-1,1.7-0.4,2.5l4.1,6c0.6,0.8,1.7,1,2.5,0.4l5.2-3.6
							c0.8-0.6,1-1.7,0.4-2.5l-4.1-6C1702.3,826.9,1701.2,826.7,1700.4,827.3z"/>
						<path class="st96" d="M1711,820l-5.2,3.6c-0.8,0.6-1,1.7-0.4,2.5l4.1,6c0.6,0.8,1.7,1,2.5,0.4l5.2-3.6c0.8-0.6,1-1.7,0.4-2.5
							l-4.1-6C1712.9,819.6,1711.8,819.4,1711,820z"/>
						<path class="st96" d="M1721.6,812.7l-5.2,3.6c-0.8,0.6-1,1.7-0.5,2.5l4.1,6c0.6,0.8,1.7,1,2.5,0.4l5.2-3.6
							c0.8-0.6,1-1.7,0.4-2.5l-4.1-6C1723.5,812.3,1722.4,812.1,1721.6,812.7z"/>
						<path class="st96" d="M1732.5,805.1l-5.3,3.7c-0.8,0.6-1,1.7-0.5,2.5l4.1,5.9c0.6,0.8,1.7,1,2.5,0.5l5.3-3.7
							c0.8-0.6,1-1.7,0.5-2.5l-4.1-5.9C1734.4,804.8,1733.3,804.6,1732.5,805.1z"/>
						<path class="st96" d="M1739.6,815.6l-11,7.6c-0.9,0.6-1.1,1.8-0.5,2.7l3.9,5.7c0.6,0.9,1.8,1.1,2.7,0.5l11-7.6
							c0.9-0.6,1.1-1.8,0.5-2.7l-3.9-5.7C1741.7,815.2,1740.5,815,1739.6,815.6z"/>
						<path class="st96" d="M1746.8,826l-13.1,9c-0.9,0.6-1.1,1.8-0.5,2.7l3.9,5.7c0.6,0.9,1.8,1.1,2.7,0.5l13-9
							c0.9-0.6,1.1-1.8,0.5-2.7l-3.9-5.7C1748.9,825.6,1747.7,825.4,1746.8,826z"/>
						<path class="st96" d="M1754,836.4l-18.7,12.9c-0.9,0.6-1.1,1.8-0.5,2.7l3.9,5.7c0.6,0.9,1.8,1.1,2.7,0.5l18.7-12.9
							c0.9-0.6,1.1-1.8,0.5-2.7l-3.9-5.7C1756.1,836.1,1754.9,835.8,1754,836.4z"/>
						<path class="st96" d="M1761.2,846.9l-7.8,5.4c-0.9,0.6-1.1,1.8-0.5,2.7l3.9,5.7c0.6,0.9,1.8,1.1,2.7,0.5l7.8-5.4
							c0.9-0.6,1.1-1.8,0.5-2.7l-3.9-5.7C1763.3,846.5,1762.1,846.3,1761.2,846.9z"/>
						<path class="st96" d="M1724.1,826.3l-5.6,3.9c-0.9,0.6-1.1,1.8-0.5,2.6l4,5.8c0.6,0.9,1.8,1.1,2.6,0.5l5.6-3.9
							c0.9-0.6,1.1-1.8,0.5-2.6l-4-5.8C1726.2,825.9,1725,825.7,1724.1,826.3z"/>
						<path class="st96" d="M1713.4,833.7l-5.6,3.9c-0.9,0.6-1.1,1.8-0.5,2.6l4,5.8c0.6,0.9,1.8,1.1,2.6,0.5l5.6-3.9
							c0.9-0.6,1.1-1.8,0.5-2.6l-4-5.8C1715.4,833.4,1714.2,833.1,1713.4,833.7z"/>
						<path class="st96" d="M1702.6,841.2l-5.6,3.9c-0.9,0.6-1.1,1.8-0.5,2.6l4,5.8c0.6,0.9,1.8,1.1,2.6,0.5l5.6-3.9
							c0.9-0.6,1.1-1.8,0.5-2.6l-4-5.8C1704.7,840.8,1703.5,840.6,1702.6,841.2z"/>
						<path class="st96" d="M1691.8,848.6l-5.6,3.9c-0.9,0.6-1.1,1.8-0.5,2.6l4,5.8c0.6,0.9,1.8,1.1,2.6,0.5l5.6-3.9
							c0.9-0.6,1.1-1.8,0.5-2.6l-4-5.8C1693.9,848.3,1692.7,848,1691.8,848.6z"/>
						<path class="st96" d="M1681.1,856.1l-5.6,3.9c-0.9,0.6-1.1,1.8-0.5,2.6l4,5.8c0.6,0.9,1.8,1.1,2.6,0.5l5.6-3.9
							c0.9-0.6,1.1-1.8,0.5-2.6l-4-5.8C1683.1,855.7,1681.9,855.5,1681.1,856.1z"/>
						<path class="st96" d="M1670.3,863.5l-5.6,3.9c-0.9,0.6-1.1,1.8-0.5,2.6l4,5.8c0.6,0.9,1.8,1.1,2.6,0.5l5.6-3.9
							c0.9-0.6,1.1-1.8,0.5-2.6l-4-5.8C1672.4,863.1,1671.2,862.9,1670.3,863.5z"/>
						<path class="st96" d="M1659.5,871l-5.6,3.9c-0.9,0.6-1.1,1.8-0.5,2.6l4,5.8c0.6,0.9,1.8,1.1,2.6,0.5l5.6-3.9
							c0.9-0.6,1.1-1.8,0.5-2.6l-4-5.8C1661.6,870.6,1660.4,870.4,1659.5,871z"/>
						<path class="st96" d="M1648.8,878.4l-5.6,3.9c-0.9,0.6-1.1,1.8-0.5,2.6l4,5.8c0.6,0.9,1.8,1.1,2.6,0.5l5.6-3.9
							c0.9-0.6,1.1-1.8,0.5-2.6l-4-5.8C1650.8,878,1649.6,877.8,1648.8,878.4z"/>
						<path class="st96" d="M1638,885.9l-5.6,3.9c-0.9,0.6-1.1,1.8-0.5,2.6l4,5.8c0.6,0.9,1.8,1.1,2.6,0.5l5.6-3.9
							c0.9-0.6,1.1-1.8,0.5-2.6l-4-5.8C1640.1,885.5,1638.9,885.3,1638,885.9z"/>
						<path class="st96" d="M1627.2,893.3l-5.6,3.9c-0.9,0.6-1.1,1.8-0.5,2.6l4,5.8c0.6,0.9,1.8,1.1,2.6,0.5l5.6-3.9
							c0.9-0.6,1.1-1.8,0.5-2.6l-4-5.8C1629.3,892.9,1628.1,892.7,1627.2,893.3z"/>
						<path class="st96" d="M1616.5,900.8l-5.6,3.9c-0.9,0.6-1.1,1.8-0.5,2.6l4,5.8c0.6,0.9,1.8,1.1,2.6,0.5l5.6-3.9
							c0.9-0.6,1.1-1.8,0.5-2.6l-4-5.8C1618.5,900.4,1617.3,900.2,1616.5,900.8z"/>
						<path class="st96" d="M1605.7,908.2l-5.6,3.9c-0.9,0.6-1.1,1.8-0.5,2.6l4,5.8c0.6,0.9,1.8,1.1,2.6,0.5l5.6-3.9
							c0.9-0.6,1.1-1.8,0.5-2.6l-4-5.8C1607.8,907.8,1606.6,907.6,1605.7,908.2z"/>
						<path class="st96" d="M1728.3,838.8l-5.6,3.9c-0.9,0.6-1.1,1.8-0.5,2.6l4,5.8c0.6,0.9,1.8,1.1,2.6,0.5l5.6-3.9
							c0.9-0.6,1.1-1.8,0.5-2.6l-4-5.8C1730.4,838.4,1729.2,838.2,1728.3,838.8z"/>
						<path class="st96" d="M1717.6,846.2l-5.6,3.9c-0.9,0.6-1.1,1.8-0.5,2.6l4,5.8c0.6,0.9,1.8,1.1,2.6,0.5l5.6-3.9
							c0.9-0.6,1.1-1.8,0.5-2.6l-4-5.8C1719.6,845.8,1718.4,845.6,1717.6,846.2z"/>
						<path class="st96" d="M1706.8,853.7l-5.6,3.9c-0.9,0.6-1.1,1.8-0.5,2.6l4,5.8c0.6,0.9,1.8,1.1,2.6,0.5l5.6-3.9
							c0.9-0.6,1.1-1.8,0.5-2.6l-4-5.8C1708.9,853.3,1707.7,853.1,1706.8,853.7z"/>
						<path class="st96" d="M1696.1,861.1l-5.6,3.9c-0.9,0.6-1.1,1.8-0.5,2.6l4,5.8c0.6,0.9,1.8,1.1,2.6,0.5l5.6-3.9
							c0.9-0.6,1.1-1.8,0.5-2.6l-4-5.8C1698.1,860.7,1696.9,860.5,1696.1,861.1z"/>
						<path class="st96" d="M1685.3,868.6l-5.6,3.9c-0.9,0.6-1.1,1.8-0.5,2.6l4,5.8c0.6,0.9,1.8,1.1,2.6,0.5l5.6-3.9
							c0.9-0.6,1.1-1.8,0.5-2.6l-4-5.8C1687.3,868.2,1686.1,868,1685.3,868.6z"/>
						<path class="st96" d="M1674.5,876l-5.6,3.9c-0.9,0.6-1.1,1.8-0.5,2.6l4,5.8c0.6,0.9,1.8,1.1,2.6,0.5l5.6-3.9
							c0.9-0.6,1.1-1.8,0.5-2.6l-4-5.8C1676.6,875.6,1675.4,875.4,1674.5,876z"/>
						<path class="st96" d="M1663.8,883.5l-5.6,3.9c-0.9,0.6-1.1,1.8-0.5,2.6l4,5.8c0.6,0.9,1.8,1.1,2.6,0.5l5.6-3.9
							c0.9-0.6,1.1-1.8,0.5-2.6l-4-5.8C1665.8,883.1,1664.6,882.9,1663.8,883.5z"/>
						<path class="st96" d="M1653,890.9l-5.6,3.9c-0.9,0.6-1.1,1.8-0.5,2.6l4,5.8c0.6,0.9,1.8,1.1,2.6,0.5l5.6-3.9
							c0.9-0.6,1.1-1.8,0.5-2.6l-4-5.8C1655,890.5,1653.8,890.3,1653,890.9z"/>
						<path class="st96" d="M1642.2,898.3l-5.6,3.9c-0.9,0.6-1.1,1.8-0.5,2.6l4,5.8c0.6,0.9,1.8,1.1,2.6,0.5l5.6-3.9
							c0.9-0.6,1.1-1.8,0.5-2.6l-4-5.8C1644.3,898,1643.1,897.8,1642.2,898.3z"/>
						<path class="st96" d="M1631.5,905.8l-5.6,3.9c-0.9,0.6-1.1,1.8-0.5,2.6l4,5.8c0.6,0.9,1.8,1.1,2.6,0.5l5.6-3.9
							c0.9-0.6,1.1-1.8,0.5-2.6l-4-5.8C1633.5,905.4,1632.3,905.2,1631.5,905.8z"/>
						<path class="st96" d="M1620.7,913.2l-5.6,3.9c-0.9,0.6-1.1,1.8-0.5,2.6l4,5.8c0.6,0.9,1.8,1.1,2.6,0.5l5.6-3.9
							c0.9-0.6,1.1-1.8,0.5-2.6l-4-5.8C1622.7,912.9,1621.5,912.6,1620.7,913.2z"/>
						<path class="st96" d="M1729.9,853.1l-5.6,3.9c-0.9,0.6-1.1,1.8-0.5,2.6l4,5.8c0.6,0.9,1.8,1.1,2.6,0.5l5.6-3.9
							c0.9-0.6,1.1-1.8,0.5-2.6l-4-5.8C1732,852.7,1730.8,852.5,1729.9,853.1z"/>
						<path class="st96" d="M1719.1,860.5l-5.6,3.9c-0.9,0.6-1.1,1.8-0.5,2.6l4,5.8c0.6,0.9,1.8,1.1,2.6,0.5l5.6-3.9
							c0.9-0.6,1.1-1.8,0.5-2.6l-4-5.8C1721.2,860.2,1720,859.9,1719.1,860.5z"/>
						<path class="st96" d="M1708.4,868l-5.6,3.9c-0.9,0.6-1.1,1.8-0.5,2.6l4,5.8c0.6,0.9,1.8,1.1,2.6,0.5l5.6-3.9
							c0.9-0.6,1.1-1.8,0.5-2.6l-4-5.8C1710.4,867.6,1709.2,867.4,1708.4,868z"/>
						<path class="st96" d="M1697.6,875.4l-5.6,3.9c-0.9,0.6-1.1,1.8-0.5,2.6l4,5.8c0.6,0.9,1.8,1.1,2.6,0.5l5.6-3.9
							c0.9-0.6,1.1-1.8,0.5-2.6l-4-5.8C1699.7,875.1,1698.5,874.8,1697.6,875.4z"/>
						<path class="st96" d="M1686.8,882.9l-5.6,3.9c-0.9,0.6-1.1,1.8-0.5,2.6l4,5.8c0.6,0.9,1.8,1.1,2.6,0.5l5.6-3.9
							c0.9-0.6,1.1-1.8,0.5-2.6l-4-5.8C1688.9,882.5,1687.7,882.3,1686.8,882.9z"/>
						<path class="st96" d="M1676.1,890.3l-5.6,3.9c-0.9,0.6-1.1,1.8-0.5,2.6l4,5.8c0.6,0.9,1.8,1.1,2.6,0.5l5.6-3.9
							c0.9-0.6,1.1-1.8,0.5-2.6l-4-5.8C1678.1,889.9,1676.9,889.7,1676.1,890.3z"/>
						<path class="st96" d="M1665.3,897.8l-5.6,3.9c-0.9,0.6-1.1,1.8-0.5,2.6l4,5.8c0.6,0.9,1.8,1.1,2.6,0.5l5.6-3.9
							c0.9-0.6,1.1-1.8,0.5-2.6l-4-5.8C1667.4,897.4,1666.2,897.2,1665.3,897.8z"/>
						<path class="st96" d="M1654.6,905.2l-5.6,3.9c-0.9,0.6-1.1,1.8-0.5,2.6l4,5.8c0.6,0.9,1.8,1.1,2.6,0.5l5.6-3.9
							c0.9-0.6,1.1-1.8,0.5-2.6l-4-5.8C1656.6,904.8,1655.4,904.6,1654.6,905.2z"/>
						<path class="st96" d="M1643.8,912.7l-5.6,3.9c-0.9,0.6-1.1,1.8-0.5,2.6l4,5.8c0.6,0.9,1.8,1.1,2.6,0.5l5.6-3.9
							c0.9-0.6,1.1-1.8,0.5-2.6l-4-5.8C1645.8,912.3,1644.6,912.1,1643.8,912.7z"/>
						<path class="st96" d="M1633,920.1l-5.6,3.9c-0.9,0.6-1.1,1.8-0.5,2.6l4,5.8c0.6,0.9,1.8,1.1,2.6,0.5l5.6-3.9
							c0.9-0.6,1.1-1.8,0.5-2.6l-4-5.8C1635.1,919.7,1633.9,919.5,1633,920.1z"/>
						<path class="st96" d="M1622.2,927.6l-10.1,7c-0.9,0.6-1.1,1.8-0.5,2.7l3.9,5.7c0.6,0.9,1.8,1.1,2.7,0.5l10.1-7
							c0.9-0.6,1.1-1.8,0.5-2.7l-3.9-5.7C1624.3,927.2,1623.1,927,1622.2,927.6z"/>
						<path class="st96" d="M1748.1,855.9l-5.6,3.9c-0.9,0.6-1.1,1.8-0.5,2.6l4,5.8c0.6,0.9,1.8,1.1,2.6,0.5l5.6-3.9
							c0.9-0.6,1.1-1.8,0.5-2.6l-4-5.8C1750.1,855.6,1748.9,855.3,1748.1,855.9z"/>
						<path class="st96" d="M1737.3,863.4l-5.6,3.9c-0.9,0.6-1.1,1.8-0.5,2.6l4,5.8c0.6,0.9,1.8,1.1,2.6,0.5l5.6-3.9
							c0.9-0.6,1.1-1.8,0.5-2.6l-4-5.8C1739.3,863,1738.1,862.8,1737.3,863.4z"/>
						<path class="st96" d="M1726.5,870.8l-5.6,3.9c-0.9,0.6-1.1,1.8-0.5,2.6l4,5.8c0.6,0.9,1.8,1.1,2.6,0.5l5.6-3.9
							c0.9-0.6,1.1-1.8,0.5-2.6l-4-5.8C1728.6,870.5,1727.4,870.2,1726.5,870.8z"/>
						<path class="st96" d="M1715.8,878.3l-5.6,3.9c-0.9,0.6-1.1,1.8-0.5,2.6l4,5.8c0.6,0.9,1.8,1.1,2.6,0.5l5.6-3.9
							c0.9-0.6,1.1-1.8,0.5-2.6l-4-5.8C1717.8,877.9,1716.6,877.7,1715.8,878.3z"/>
						<path class="st96" d="M1705,885.7l-5.6,3.9c-0.9,0.6-1.1,1.8-0.5,2.6l4,5.8c0.6,0.9,1.8,1.1,2.6,0.5l5.6-3.9
							c0.9-0.6,1.1-1.8,0.5-2.6l-4-5.8C1707,885.3,1705.8,885.1,1705,885.7z"/>
						<path class="st96" d="M1694.2,893.2l-5.6,3.9c-0.9,0.6-1.1,1.8-0.5,2.6l4,5.8c0.6,0.9,1.8,1.1,2.6,0.5l5.6-3.9
							c0.9-0.6,1.1-1.8,0.5-2.6l-4-5.8C1696.3,892.8,1695.1,892.6,1694.2,893.2z"/>
						<path class="st96" d="M1683.5,900.6l-5.6,3.9c-0.9,0.6-1.1,1.8-0.5,2.6l4,5.8c0.6,0.9,1.8,1.1,2.6,0.5l5.6-3.9
							c0.9-0.6,1.1-1.8,0.5-2.6l-4-5.8C1685.5,900.2,1684.3,900,1683.5,900.6z"/>
						<path class="st96" d="M1672.7,908.1l-5.6,3.9c-0.9,0.6-1.1,1.8-0.5,2.6l4,5.8c0.6,0.9,1.8,1.1,2.6,0.5l5.6-3.9
							c0.9-0.6,1.1-1.8,0.5-2.6l-4-5.8C1674.7,907.7,1673.6,907.5,1672.7,908.1z"/>
						<path class="st96" d="M1661.9,915.5l-5.6,3.9c-0.9,0.6-1.1,1.8-0.5,2.6l4,5.8c0.6,0.9,1.8,1.1,2.6,0.5l5.6-3.9
							c0.9-0.6,1.1-1.8,0.5-2.6l-4-5.8C1664,915.1,1662.8,914.9,1661.9,915.5z"/>
						<path class="st96" d="M1651.2,922.9l-5.6,3.9c-0.9,0.6-1.1,1.8-0.5,2.6l4,5.8c0.6,0.9,1.8,1.1,2.6,0.5l5.6-3.9
							c0.9-0.6,1.1-1.8,0.5-2.6l-4-5.8C1653.2,922.6,1652,922.4,1651.2,922.9z"/>
						<path class="st96" d="M1640.4,930.4l-10.1,7c-0.9,0.6-1.1,1.8-0.5,2.7l3.9,5.7c0.6,0.9,1.8,1.1,2.7,0.5l10.1-7
							c0.9-0.6,1.1-1.8,0.5-2.7l-3.9-5.7C1642.4,930,1641.2,929.8,1640.4,930.4z"/>
						<path class="st96" d="M1624.5,941.4l-5.3,3.7c-0.8,0.6-1,1.7-0.5,2.5l4.1,5.9c0.6,0.8,1.7,1,2.5,0.5l5.3-3.7
							c0.8-0.6,1-1.7,0.5-2.5l-4.1-5.9C1626.5,941,1625.3,940.8,1624.5,941.4z"/>
						<path class="st128" d="M1720,899.5l-55.9,38.7c-0.9,0.6-1.1,1.8-0.5,2.6l18.6,26.9c0.6,0.9,1.8,1.1,2.6,0.5l55.9-38.7
							c0.9-0.6,1.1-1.8,0.5-2.6l-18.6-26.9C1722,899.2,1720.8,898.9,1720,899.5z"/>
						<path class="st128" d="M1743.3,930.7l-27.8,19.2c-0.2,0.1-0.2,0.4-0.1,0.5l3.9,5.6c0.1,0.2,0.4,0.2,0.5,0.1l27.8-19.2
							c0.2-0.1,0.2-0.4,0.1-0.5l-3.9-5.6C1743.8,930.6,1743.5,930.6,1743.3,930.7z"/>
						<path class="st128" d="M1712.8,951.8l-27.8,19.2c-0.2,0.1-0.2,0.4-0.1,0.5l3.9,5.6c0.1,0.2,0.4,0.2,0.5,0.1l27.8-19.2
							c0.2-0.1,0.2-0.4,0.1-0.5l-3.9-5.6C1713.2,951.8,1712.9,951.7,1712.8,951.8z"/>
						<path class="st96" d="M1563.1,885l-10.5,7.3l4.2,6c0.4,0.5,1.1,0.7,1.7,0.3l8.6-5.9c0.5-0.4,0.7-1.1,0.3-1.7L1563.1,885z"/>
					</g>
					<g>
						<path class="st27" d="M1490.4,844.8c34-23.5,68-47,101.9-70.5c34-23.5,68-47,102-70.5c3.6,9.9,7.1,19.8,10.7,29.7
							c3.6,9.9,7.1,19.8,10.7,29.7c-29.6,20.6-59.2,41.1-88.8,61.7c-29.6,20.6-59.2,41.1-88.7,61.7c-8-7-15.9-13.9-23.9-20.9
							C1506.3,858.7,1498.4,851.7,1490.4,844.8z"/>
						<g>
							<path class="st128" d="M1490.4,844.8c34-23.5,68-47,101.9-70.5c34-23.5,68-47,102-70.5c0.3,1,0.7,1.9,1,2.9
								c-33.8,23.4-67.5,46.7-101.3,70.1c-33.7,23.3-67.5,46.7-101.3,70.1C1491.9,846.1,1491.2,845.4,1490.4,844.8z"/>
							<path class="st92" d="M1548.1,810.7c15.6-10.8,31.3-21.7,46.9-32.5c15.6-10.8,31.3-21.6,47-32.5c0.7,1.4,1.4,2.7,2.1,4.1
								c-15.5,10.7-31,21.5-46.5,32.2c-15.5,10.7-31,21.5-46.5,32.2C1550.1,813,1549,811.9,1548.1,810.7z"/>
							<path class="st92" d="M1501.8,854.7c32.9-22.8,65.9-45.6,98.8-68.4c32.9-22.8,65.9-45.6,98.8-68.4c1.5,4,2.9,8.1,4.4,12.1
								c-32.1,22.2-64.1,44.4-96.1,66.6c-32,22.2-64.1,44.4-96.1,66.6C1508.3,860.4,1505,857.6,1501.8,854.7z"/>
							<path class="st92" d="M1538.6,827.3c20.3-14.1,40.7-28.2,61.1-42.3c20.3-14.1,40.7-28.2,61.1-42.3c-0.3-0.6-0.5-1.2-0.8-1.7
								c-20.4,14.2-40.9,28.3-61.3,42.4c-20.4,14.2-40.9,28.3-61.3,42.4C1537.7,826.4,1538.1,826.8,1538.6,827.3z"/>
							<path class="st128" d="M1533.9,882.8c30-20.8,60-41.6,89.9-62.4c30-20.8,59.9-41.6,89.9-62.5c0.6,1.8,1.3,3.5,1.9,5.3
								c-29.6,20.6-59.2,41.1-88.8,61.7c-29.6,20.6-59.2,41.1-88.7,61.7C1536.8,885.3,1535.3,884.1,1533.9,882.8z"/>
							<path class="st92" d="M1535.1,866.3c7.8-5.4,15.5-10.8,23.3-16.1c7.8-5.4,15.5-10.8,23.3-16.1c-0.4-0.5-0.8-1-1.2-1.5
								c-7.8,5.4-15.6,10.8-23.4,16.2c-7.8,5.4-15.6,10.8-23.4,16.2C1534.2,865.4,1534.7,865.9,1535.1,866.3z"/>
							<path class="st92" d="M1537.6,868.6c7.7-5.3,15.4-10.7,23.1-16c7.7-5.3,15.4-10.7,23.1-16c-0.4-0.5-0.8-1-1.2-1.5
								c-7.7,5.4-15.5,10.7-23.2,16.1c-7.7,5.4-15.5,10.7-23.2,16.1C1536.7,867.7,1537.1,868.1,1537.6,868.6z"/>
							<path class="st92" d="M1540.1,870.9c7.6-5.3,15.3-10.6,22.9-15.9c7.6-5.3,15.3-10.6,22.9-15.9c-0.4-0.5-0.8-1-1.2-1.5
								c-7.7,5.3-15.4,10.7-23,16c-7.7,5.3-15.3,10.7-23,16C1539.1,870,1539.6,870.4,1540.1,870.9z"/>
							<path class="st92" d="M1542.5,873.2c9.6-6.7,19.2-13.3,28.8-20c-0.4-0.5-0.9-1-1.3-1.4c-9.7,6.7-19.3,13.4-28.9,20.1
								C1541.6,872.3,1542.1,872.7,1542.5,873.2z"/>
							<path class="st92" d="M1593.3,826c7.7-5.4,15.5-10.8,23.3-16.1c7.8-5.4,15.5-10.8,23.3-16.2c-0.3-0.5-0.6-1.1-0.9-1.6
								c-7.8,5.4-15.6,10.8-23.4,16.2c-7.8,5.4-15.6,10.8-23.4,16.2C1592.6,824.9,1592.9,825.4,1593.3,826z"/>
							<path class="st92" d="M1595.3,828.5c7.7-5.3,15.4-10.7,23.1-16c7.7-5.3,15.4-10.7,23.1-16c-0.3-0.6-0.7-1.1-1-1.6
								c-7.7,5.4-15.5,10.7-23.2,16.1c-7.7,5.4-15.5,10.7-23.2,16.1C1594.6,827.5,1595,828,1595.3,828.5z"/>
							<path class="st92" d="M1597.4,831.1c7.6-5.3,15.3-10.6,22.9-15.9c7.6-5.3,15.3-10.6,22.9-15.9c-0.3-0.6-0.7-1.1-1-1.7
								c-7.7,5.4-15.4,10.7-23,16c-7.7,5.3-15.4,10.7-23,16C1596.6,830.1,1597,830.6,1597.4,831.1z"/>
							<path class="st92" d="M1599.4,833.7c9.6-6.7,19.2-13.3,28.8-20c-0.3-0.5-0.7-1-1-1.6c-9.7,6.7-19.3,13.4-28.9,20.1
								C1598.6,832.7,1599,833.2,1599.4,833.7z"/>
							<path class="st92" d="M1651.5,785.6c7.7-5.4,15.5-10.8,23.3-16.1c7.7-5.4,15.5-10.8,23.3-16.2c-0.2-0.6-0.5-1.2-0.7-1.8
								c-7.8,5.4-15.6,10.8-23.4,16.2c-7.8,5.4-15.6,10.8-23.4,16.2C1650.9,784.5,1651.2,785,1651.5,785.6z"/>
							<path class="st92" d="M1653.1,788.5c7.7-5.3,15.4-10.7,23.1-16c7.7-5.3,15.4-10.7,23.1-16c-0.2-0.6-0.5-1.2-0.7-1.8
								c-7.7,5.4-15.5,10.7-23.2,16.1c-7.7,5.4-15.5,10.7-23.2,16.1C1652.5,787.3,1652.8,787.9,1653.1,788.5z"/>
							<path class="st92" d="M1654.7,791.3c7.6-5.3,15.3-10.6,22.9-15.9c7.6-5.3,15.3-10.6,22.9-15.9c-0.2-0.6-0.5-1.2-0.7-1.8
								c-7.7,5.3-15.4,10.7-23,16c-7.7,5.3-15.4,10.6-23,16C1654.1,790.2,1654.4,790.8,1654.7,791.3z"/>
							<path class="st92" d="M1656.3,794.2c9.6-6.7,19.2-13.3,28.8-20c-0.3-0.6-0.5-1.2-0.8-1.8c-9.7,6.7-19.3,13.4-28.9,20.1
								C1655.7,793.1,1656,793.6,1656.3,794.2z"/>
						</g>
						<path class="st92" d="M1669,757.2c13.3-9.2,24.8-14.5,25.9-11.8c1,2.7-8.6,12.1-21.5,21.1c-12.9,9-24.5,14.3-25.9,11.8
							C1646.1,775.8,1655.8,766.4,1669,757.2z"/>
						<path class="st92" d="M1549.1,840.3c13.3-9.2,25.4-14.9,27.2-12.7c1.8,2.1-7.2,11.2-20.2,20.2c-13,9-25.2,14.7-27.3,12.7
							C1526.8,858.5,1535.8,849.5,1549.1,840.3z"/>
						<path class="st92" d="M1609.1,798.7c13.3-9.2,25.1-14.7,26.6-12.3c1.4,2.4-7.9,11.6-20.9,20.6c-13,9-24.9,14.5-26.6,12.3
							C1586.5,817.2,1595.8,807.9,1609.1,798.7z"/>
					</g>
				</g>
			</g>
			<g>
				<g>
					<path class="st124" d="M1701,792.2L1701,792.2c-3.4-0.4-6.1-3.5-5.6-6.9l4.6-32.6c0.5-3.4,3.5-6,6.9-5.6l0,0
						c3.4,0.4,5.9,3.5,5.6,6.9l-4.5,32.6C1707.5,790,1704.5,792.6,1701,792.2z"/>
					<path class="st124" d="M1714.6,788.6L1714.6,788.6c-3.5,0.2-6.5-2.5-6.6-5.9l-0.7-32.9c-0.1-3.5,2.5-6.4,5.9-6.6l0,0
						c3.5-0.2,6.4,2.5,6.6,5.9l0.7,33C1720.6,785.5,1718,788.5,1714.6,788.6z"/>
					<polygon class="st124" points="1753.9,747.3 1716.1,731.9 1693.2,755.2 1693.1,776.4 1745.1,767.1 					"/>
					<path class="st124" d="M1728.6,783.9L1728.6,783.9c-3.3,1.1-7-0.6-8-3.9l-9.6-31.5c-1-3.3,0.7-6.9,3.9-8l0,0
						c3.3-1.1,6.9,0.7,8,3.9l9.6,31.5C1733.5,779.3,1731.9,782.8,1728.6,783.9z"/>
					<path class="st92" d="M1744,745.6c10.7-7.5,27.2,4.6,28.8,13.9c1.6,9.3-7.4,17.9-20.3,20.8c-12.9,2.9-23.3-5.2-24-10.1
						C1727.9,765.3,1733.3,753.1,1744,745.6z"/>
					<path class="st92" d="M1760.5,748.9L1760.5,748.9c-0.7,3.4-4.3,6.2-7.5,4.8l-38.5-17.1c-3.2-1.4-5.6-4.1-4.8-7.5l0,0
						c0.7-3.4,4.1-5.6,7.5-4.8l38.5,17.1C1758.8,742.8,1761.2,745.5,1760.5,748.9z"/>
					<path class="st92" d="M1690,752.5L1690,752.5c-2.2-2.7-1.7-6.6,1-8.8l20.5-17.7c2.6-2.3,6.7-1.7,8.8,1l0,0
						c2.2,2.7,1.7,6.7-1,8.8l-20.5,17.7C1696.2,755.8,1692.2,755.2,1690,752.5z"/>
					<path class="st92" d="M1684.9,787.7L1684.9,787.7c-3.4-0.7-5.7-4.1-4.8-7.5l8-32c0.8-3.3,4.1-5.5,7.5-4.8l0,0
						c3.4,0.7,5.5,4.1,4.8,7.5l-8,32C1691.5,786.3,1688.3,788.4,1684.9,787.7z"/>
					<path class="st92" d="M1711,743.5c5.7,1.6,28.5,8.4,18.3,19.4c-10.2,11,26.9-0.5,26.9-0.5l-10.7-22.1
						C1745.6,740.3,1720.7,720.7,1711,743.5z"/>
					<polygon class="st92" points="1746.6,740.5 1749.8,772.3 1769.6,773.2 1769.8,741.2 					"/>
					
						<rect x="1756.9" y="747.5" transform="matrix(1.759256e-02 -0.9998 0.9998 1.759256e-02 987.6189 2522.2202)" class="st124" width="40.8" height="22.1"/>
					<g>
						
							<rect x="1680.1" y="754.8" transform="matrix(0.2487 -0.9686 0.9686 0.2487 517.5619 2212.5508)" class="st94" width="9.9" height="35.6"/>
						<path class="st95" d="M1716.9,789c4.2,1.1,8.5-1.5,9.6-5.7c1.1-4.2-1.5-8.5-5.7-9.6l-32.6-8.4c-4.2-1.1-8.5,1.5-9.6,5.7
							c-1.1,4.2,1.5,8.5,5.7,9.6L1716.9,789z"/>
						
							<ellipse transform="matrix(1.399801e-02 -0.9999 0.9999 1.399801e-02 852.7571 2385.0764)" class="st20" cx="1635.7" cy="760.1" rx="32.6" ry="32.6"/>
						<path class="st4" d="M1630.2,735.8c16.4,0.2,29.7,12.7,31.4,28.6c0.2-1.1,0.3-2.2,0.3-3.4c0.2-14.4-11.3-26.2-25.7-26.4
							c-3,0-5.8,0.4-8.5,1.3C1628.5,735.8,1629.4,735.8,1630.2,735.8z"/>
						<path class="st94" d="M1636.2,723.5c3,0,6.1,0.4,9.1,1.2c19.6,5,31.4,25,26.3,44.5c-4.2,16.5-19.1,27.5-35.4,27.5v-6.8
							c13.3,0,25.4-8.9,28.8-22.4l0,0c4.1-15.9-5.5-32.1-21.4-36.2c-2.5-0.6-5-0.9-7.4-0.9V723.5z M1600.8,751
							c4.2-16.5,19.1-27.5,35.4-27.5v6.8c-13.3,0-25.4,8.9-28.8,22.4c-4.1,15.9,5.5,32.1,21.4,36.2c2.5,0.6,5,0.9,7.4,0.9v6.8
							c-3,0-6.1-0.4-9.1-1.2C1607.5,790.5,1595.7,770.6,1600.8,751z"/>
						
							<ellipse transform="matrix(0.9439 -0.3302 0.3302 0.9439 -160.4671 597.9635)" class="st96" cx="1680.2" cy="771.4" rx="4.9" ry="4.9"/>
					</g>
					<path class="st92" d="M1740.4,766.7L1740.4,766.7c1.3,3.9-0.7,8.3-4.7,9.3l-35.5,9.1c-3.9,1-8.1-0.8-9.3-4.7l0,0
						c-1.3-3.9,0.8-8.1,4.7-9.3l35.5-9.1C1735,761.1,1739.2,762.9,1740.4,766.7z"/>
					<polygon class="st128" points="1786.5,734.8 1785.7,782.4 1951.1,781.8 1951.9,734.3 					"/>
				</g>
				<polygon class="st128" points="1786.1,758.6 1785.7,782.3 1951.1,781.8 1951.5,758.1 				"/>
			</g>
			<g>
				
					<rect x="1599.4" y="959.9" transform="matrix(0.9994 -3.486077e-02 3.486077e-02 0.9994 -33.3027 56.9455)" class="st92" width="33.9" height="47.3"/>
				<g>
					<polygon class="st124" points="1594.7,973.3 1636.3,972 1636.7,998 1595.2,999.3 					"/>
					<g>
						<path class="st92" d="M1635.3,924.7c0,4,0.2,8.9,0.3,14.6l10.9-17.8c4.6-7.5,11.7-4.2,14.5-0.9l-21.3,41.6
							c-3,5.8-12.3,8.9-21.3,9.4c-18.6,1-30.3-10.8-31.4-36.4l-4.7-19.5c-1.9-8.2,9.8-10.8,11.6-2.5l1.8,8.2
							c0.3-0.4,0.8-0.9,1.3-1.3l-1.9-16.5c-1.1-8.5,10.8-8.9,11.8-1.8l1.8,13.6c0.3-0.1,1.1-0.1,1.3-0.1l-0.9-17.5
							c-0.4-7.9,11.5-8.4,11.9-0.5l1,20.2c0.5,0.3,1.1,0.5,1.6,0.9l2.2-40.6c0.4-7.7,12.3-7.4,11.9,0.7L1635.3,924.7z"/>
						
							<rect x="1594.9" y="991.3" transform="matrix(0.9996 -2.682884e-02 2.682884e-02 0.9996 -28.1008 43.8434)" class="st128" width="49.8" height="155.8"/>
						
							<rect x="1619.8" y="990.9" transform="matrix(0.9996 -2.681382e-02 2.681382e-02 0.9996 -28.072 44.1525)" class="st128" width="24.9" height="155.8"/>
					</g>
				</g>
			</g>
			<g>
				<g>
					<path class="st135" d="M1816.9,815.7l15.4-22.4c2.9-4.2,8.8-5.3,13-2.4l60.2,41.5c4.2,2.9,5.3,8.8,2.4,13l-15.4,22.4
						c-2.9,4.2-8.8,5.3-13,2.4l-60.2-41.5C1815,825.8,1814,820,1816.9,815.7z"/>
					
						<rect x="1841.5" y="795" transform="matrix(0.5681 -0.8229 0.8229 0.5681 120.9252 1889.885)" class="st100" width="39.2" height="69.5"/>
					<path class="st27" d="M1823.8,814.7l10-14.5c0.3-0.4,0.2-0.9-0.2-1.2l0,0c-0.4-0.3-0.9-0.2-1.2,0.2l-10,14.5
						c-0.3,0.4-0.2,0.9,0.2,1.2l0,0C1823,815.2,1823.5,815.1,1823.8,814.7z"/>
					<path class="st27" d="M1887.7,866.2l16.9-24.5c0.4-0.6,0.3-1.5-0.3-1.9h0c-0.6-0.4-1.5-0.3-1.9,0.3l-16.9,24.5
						c-0.4,0.6-0.3,1.5,0.3,1.9l0,0C1886.4,866.9,1887.3,866.8,1887.7,866.2z"/>
					
						<ellipse transform="matrix(0.5682 -0.8229 0.8229 0.5682 116.1748 1927.7504)" class="st27" cx="1895" cy="853.2" rx="5.3" ry="5.3"/>
					
						<ellipse transform="matrix(0.5682 -0.8229 0.8229 0.5682 116.2221 1927.8292)" class="st135" cx="1895" cy="853.2" rx="3.7" ry="3.7"/>
				</g>
				<g>
					<polygon class="st27" points="1820.2,825.3 1842.4,793 1900.7,833.2 1878.5,865.5 					"/>
					<polygon class="st92" points="1820.2,825.3 1842.4,793 1845.2,795 1823,827.3 					"/>
					<polygon class="st92" points="1830.7,819.8 1841,804.8 1845.3,807.8 1835,822.8 					"/>
					<polygon class="st109" points="1834.1,834.9 1856.3,802.6 1868.2,810.8 1846,843.1 					"/>
					<polygon class="st102" points="1836.8,827.6 1850.5,807.7 1848.7,806.5 1835,826.4 					"/>
					<polygon class="st92" points="1859.4,849.4 1864.9,841.3 1855.3,834.7 1849.7,842.8 					"/>
					<polygon class="st92" points="1866.3,839.3 1871.9,831.2 1862.3,824.5 1856.7,832.6 					"/>
					<polygon class="st92" points="1873.3,829.1 1878.9,821 1869.2,814.4 1863.7,822.5 					"/>
					<polygon class="st92" points="1873.4,861.9 1895.5,829.6 1900.8,833.3 1878.5,865.5 					"/>
					<polygon class="st92" points="1862.5,851.6 1868.1,843.5 1866.3,842.2 1860.7,850.3 					"/>
					<polygon class="st92" points="1865.6,853.7 1871.2,845.6 1869.4,844.3 1863.8,852.5 					"/>
					<polygon class="st92" points="1868.7,855.9 1874.3,847.7 1872.5,846.5 1866.9,854.6 					"/>
					<polygon class="st92" points="1871.8,858 1875.3,852.9 1873.5,851.6 1870,856.7 					"/>
					
						<rect x="1866.4" y="835.6" transform="matrix(0.5659 -0.8245 0.8245 0.5659 122.4769 1906.103)" class="st92" width="9.8" height="2.2"/>
					<polygon class="st92" points="1872.6,843.6 1878.1,835.4 1876.3,834.2 1870.8,842.3 					"/>
					<polygon class="st92" points="1875.7,845.7 1881.2,837.6 1879.4,836.3 1873.9,844.5 					"/>
					<polygon class="st92" points="1878.8,847.8 1882.3,842.7 1880.5,841.5 1877,846.6 					"/>
					<polygon class="st92" points="1876.4,831.3 1882,823.2 1880.2,821.9 1874.6,830 					"/>
					<polygon class="st92" points="1879.5,833.4 1885.1,825.3 1883.3,824.1 1877.7,832.2 					"/>
					<polygon class="st92" points="1882.6,835.6 1888.2,827.4 1886.4,826.2 1880.8,834.3 					"/>
					
						<rect x="1883.5" y="833.4" transform="matrix(0.566 -0.8244 0.8244 0.566 130.8658 1917.5873)" class="st92" width="6.2" height="2.2"/>
				</g>
			</g>
		</g>
	</g>
	<g class="st5">
		<path class="st92" d="M294.8,935.6c16.9,10.5,22,32.8,11.4,49.6c-10.5,16.9-32.8,22-49.6,11.4c-16.9-10.5-15.6-36.4-9.2-55.3
			C254.9,919.6,278,925.1,294.8,935.6z"/>
		<polygon class="st128" points="324.2,842.2 227.9,801.7 173.3,920.7 269.6,961.3 		"/>
		
			<rect x="187.4" y="828.6" transform="matrix(0.388 -0.9217 0.9217 0.388 -658.0321 770.6362)" class="st27" width="127.8" height="104.5"/>
		<g>
			<g>
				<path class="st92" d="M232.2,803.5l-49.6,117.7c0.2,0.1,0.3,0.2,0.5,0.3l0.1,0l49.6-117.8l-0.1,0
					C232.5,803.6,232.4,803.5,232.2,803.5z"/>
				<polygon class="st92" points="237.6,805.8 188.1,923.5 188.7,923.8 238.3,806 				"/>
				
					<rect x="154.7" y="866.7" transform="matrix(0.388 -0.9217 0.9217 0.388 -665.3486 732.1079)" class="st92" width="127.8" height="0.7"/>
				<polygon class="st92" points="248.5,810.3 198.9,928.1 199.6,928.4 249.1,810.6 				"/>
				<polygon class="st92" points="254,812.6 204.4,930.4 205,930.7 254.6,812.9 				"/>
				
					<rect x="171.1" y="873.6" transform="matrix(0.388 -0.9217 0.9217 0.388 -661.6906 751.3756)" class="st92" width="127.8" height="0.7"/>
				
					<rect x="176.5" y="875.9" transform="matrix(0.388 -0.9217 0.9217 0.388 -660.4723 757.8022)" class="st92" width="127.8" height="0.7"/>
				
					<rect x="181.9" y="878.2" transform="matrix(0.388 -0.9217 0.9217 0.388 -659.2505 764.2125)" class="st92" width="127.8" height="0.7"/>
				
					<rect x="187.4" y="880.5" transform="matrix(0.388 -0.9217 0.9217 0.388 -658.0322 770.6379)" class="st92" width="127.8" height="0.7"/>
				
					<rect x="192.8" y="882.8" transform="matrix(0.388 -0.9217 0.9217 0.388 -656.8134 777.0659)" class="st92" width="127.8" height="0.7"/>
				
					<rect x="198.3" y="885.1" transform="matrix(0.388 -0.9217 0.9217 0.388 -655.5933 783.4792)" class="st92" width="127.8" height="0.7"/>
				
					<rect x="203.7" y="887.4" transform="matrix(0.388 -0.9217 0.9217 0.388 -654.3735 789.9007)" class="st92" width="127.8" height="0.7"/>
				
					<rect x="209.2" y="889.6" transform="matrix(0.388 -0.9217 0.9217 0.388 -653.1542 796.3238)" class="st92" width="127.8" height="0.7"/>
				<polygon class="st92" points="303,833.3 253.4,951 254,951.3 303.6,833.5 				"/>
				
					<rect x="220.1" y="894.2" transform="matrix(0.388 -0.9217 0.9217 0.388 -650.7155 809.165)" class="st92" width="127.8" height="0.7"/>
				
					<rect x="225.5" y="896.5" transform="matrix(0.388 -0.9217 0.9217 0.388 -649.4954 815.5782)" class="st92" width="127.8" height="0.7"/>
				<path class="st92" d="M319.3,840.1l-49.6,117.8l0.1,0c0.2,0.1,0.4,0.1,0.5,0.2l49.6-117.7C319.8,840.3,319.6,840.3,319.3,840.1
					L319.3,840.1z"/>
			</g>
			<g>
				
					<rect x="266.5" y="791.6" transform="matrix(0.388 -0.9217 0.9217 0.388 -614.465 762.3692)" class="st92" width="0.7" height="104.5"/>
				
					<rect x="264.1" y="797.3" transform="matrix(0.3886 -0.9214 0.9214 0.3886 -621.0551 763.04)" class="st92" width="0.7" height="104.5"/>
				
					<rect x="261.7" y="802.9" transform="matrix(0.388 -0.9217 0.9217 0.388 -627.7604 764.8865)" class="st92" width="0.7" height="104.5"/>
				
					<rect x="259.4" y="808.5" transform="matrix(0.388 -0.9217 0.9217 0.388 -634.4091 766.1556)" class="st92" width="0.7" height="104.5"/>
				
					<rect x="257" y="814.2" transform="matrix(0.3882 -0.9216 0.9216 0.3882 -641.0336 767.2055)" class="st92" width="0.7" height="104.5"/>
				
					<rect x="254.6" y="819.8" transform="matrix(0.388 -0.9217 0.9217 0.388 -647.7053 768.6824)" class="st92" width="0.7" height="104.5"/>
				
					<rect x="252.2" y="825.4" transform="matrix(0.3875 -0.9219 0.9219 0.3875 -654.4096 770.4194)" class="st92" width="0.7" height="104.5"/>
				
					<rect x="249.9" y="831.1" transform="matrix(0.3873 -0.922 0.922 0.3873 -661.0887 771.9191)" class="st92" width="0.7" height="104.5"/>
				
					<rect x="247.5" y="836.7" transform="matrix(0.388 -0.9217 0.9217 0.388 -667.6484 772.4621)" class="st92" width="0.7" height="104.5"/>
				
					<rect x="245.1" y="842.4" transform="matrix(0.3875 -0.9219 0.9219 0.3875 -674.3699 774.2845)" class="st92" width="0.7" height="104.5"/>
				
					<rect x="242.7" y="848" transform="matrix(0.388 -0.9217 0.9217 0.388 -680.9453 774.9879)" class="st92" width="0.7" height="104.5"/>
				
					<rect x="240.4" y="853.6" transform="matrix(0.3886 -0.9214 0.9214 0.3886 -687.5145 775.6899)" class="st92" width="0.7" height="104.5"/>
				
					<rect x="238" y="859.3" transform="matrix(0.3876 -0.9218 0.9218 0.3876 -694.2971 777.9)" class="st92" width="0.7" height="104.5"/>
				
					<rect x="235.6" y="864.9" transform="matrix(0.388 -0.9217 0.9217 0.388 -700.8899 778.7778)" class="st92" width="0.7" height="104.5"/>
				
					<rect x="233.2" y="870.5" transform="matrix(0.3875 -0.9219 0.9219 0.3875 -707.6236 780.6047)" class="st92" width="0.7" height="104.5"/>
				
					<rect x="230.9" y="876.2" transform="matrix(0.388 -0.9217 0.9217 0.388 -714.1848 781.2935)" class="st92" width="0.7" height="104.5"/>
				
					<rect x="228.5" y="881.8" transform="matrix(0.387 -0.9221 0.9221 0.387 -720.9926 783.5641)" class="st92" width="0.7" height="104.5"/>
				<path class="st92" d="M322.2,846.9l-96.3-40.5c0,0,0,0.1,0,0.1l-0.2,0.5l96.3,40.5l0.2-0.5C322.2,847,322.2,846.9,322.2,846.9z"
					/>
				
					<rect x="271.2" y="780.3" transform="matrix(0.3885 -0.9214 0.9214 0.3885 -601.1263 759.3393)" class="st92" width="0.7" height="104.5"/>
				
					<rect x="268.8" y="786" transform="matrix(0.388 -0.9217 0.9217 0.388 -607.8154 761.0989)" class="st92" width="0.7" height="104.5"/>
			</g>
		</g>
		
			<rect x="263.5" y="778" transform="matrix(0.388 -0.9217 0.9217 0.388 -598.3948 759.3096)" class="st96" width="18" height="104.5"/>
		<g>
			<polygon class="st92" points="296.7,967.7 312,1038.3 263.1,1028.9 252.9,981.7 			"/>
			<polygon class="st124" points="308.9,1005 316.3,1039.2 264.1,1056.9 257.2,1016.2 			"/>
			<path class="st124" d="M298.1,962.6c5.8,7,3.7,17.6-4.9,23.6c-8.5,6-20.2,5.3-26-1.7c-5.8-7-3.7-17.6,4.9-23.6
				C280.6,954.9,292.3,955.6,298.1,962.6z"/>
			<path class="st124" d="M298.6,901.9c-1.5,2.6-1.8,2.4-1.1,5.2l11.8,54.1c1.1,4.9-1.4,13.2-6.3,14.3l0,0c-4.9,1.1-9.9-2.1-10.9-7
				l-10.4-48C279.8,912.5,290.4,903.2,298.6,901.9z"/>
			<path class="st92" d="M298.6,901.9l12.8,58.7c1.1,4.9-1.4,13.2-6.3,14.3l0,0c-4.9,1.1-9.9-2.1-10.9-7l-10-46.1
				C281.2,908.5,294.6,902.4,298.6,901.9z"/>
			<path class="st92" d="M303.1,963.5c5.5,7.1,2.3,18.1-7.3,24.5c-9.6,6.4-21.8,5.9-27.3-1.2c-5.5-7.1-2.3-18.1,7.3-24.5
				C285.3,955.8,297.6,956.4,303.1,963.5z"/>
			<polygon class="st128" points="314.1,1020.9 329.3,1093.4 301.7,1101.9 286.2,1027 			"/>
			<polygon class="st128" points="286.2,1027 301.7,1101.9 273.9,1111.2 258.3,1033 			"/>
		</g>
		<path class="st124" d="M204.2,844.6L204.2,844.6c3.9-0.9,6.5-4.9,5.4-8.7l-9.7-36.8c-1-3.9-4.8-6.3-8.7-5.4l0,0
			c-3.9,0.9-6.3,4.8-5.4,8.7l9.7,36.8C196.5,843,200.3,845.5,204.2,844.6z"/>
		<path class="st124" d="M188.2,842.4L188.2,842.4c4-0.3,7.2-3.8,6.8-7.7l-3.8-37.8c-0.4-4-3.7-7-7.7-6.8l0,0c-4,0.3-7,3.7-6.8,7.7
			l3.8,37.8C180.9,839.6,184.3,842.7,188.2,842.4z"/>
		<polygon class="st124" points="137.4,800.5 178.6,777.7 208.1,801.2 211.1,825.4 150.3,822 		"/>
		<path class="st124" d="M171.5,839L171.5,839c3.9,0.8,7.9-1.7,8.6-5.6l6.7-37.4c0.7-3.9-1.7-7.8-5.6-8.6l0,0
			c-3.9-0.8-7.8,1.7-8.6,5.6l-6.7,37.4C165.2,834.3,167.6,838.1,171.5,839z"/>
		<path class="st92" d="M148.5,797.2c-13.3-7.1-30.6,9-31.1,19.9c-0.5,10.9,11,19.5,26.1,21.1c15.2,1.6,25.9-9.2,26.1-14.9
			C169.7,817.5,161.9,804.3,148.5,797.2z"/>
		<path class="st92" d="M130.1,803.2L130.1,803.2c1.3,3.8,5.8,6.5,9.2,4.5l41.7-24.9c3.4-2,5.8-5.5,4.5-9.2l0,0
			c-1.3-3.8-5.4-5.8-9.2-4.5L134.6,794C131.2,796,128.8,799.4,130.1,803.2z"/>
		<path class="st92" d="M211.4,797.6L211.4,797.6c2.1-3.4,1-7.8-2.3-10l-26-17.5c-3.3-2.2-7.9-1.1-10,2.3l0,0
			c-2.1,3.4-1.1,7.9,2.3,10l26,17.5C204.7,802.2,209.3,801,211.4,797.6z"/>
		<path class="st92" d="M222.1,837.2L222.1,837.2c3.8-1.3,5.9-5.5,4.5-9.2L213,792.5c-1.4-3.7-5.5-5.8-9.2-4.5l0,0
			c-3.8,1.3-5.8,5.5-4.5,9.2l13.6,35.5C214.3,836.5,218.3,838.5,222.1,837.2z"/>
		<path class="st92" d="M187.4,789.5c-6.3,2.6-32.9,14.4-19.7,25.6c13.2,11.2-30.8,3.1-30.8,3.1l9.1-26.8
			C146,791.3,168.4,774.2,187.4,789.5z"/>
		<path class="st92" d="M225.6,840.8l3.6,7.7c0.5,1.2,0,1.8-1.2,1l-6.9-4.7L225.6,840.8z"/>
		<path class="st96" d="M225.6,840.8l3.1,6.7c-0.7,0.2-1.3,0.7-1.6,1.5l-6-4.1L225.6,840.8z"/>
		<polygon class="st68" points="228,842.2 146.3,743.8 139.5,749.1 221.3,847.8 		"/>
		<polygon class="st96" points="142.9,746.5 139.5,749.1 221.3,847.8 224.7,845 		"/>
		<polygon class="st92" points="144.8,791.6 145.6,828.5 123.1,832.4 118.3,795.7 		"/>
		
			<rect x="110.3" y="792.3" transform="matrix(0.9905 -0.1375 0.1375 0.9905 -111.0615 23.9169)" class="st124" width="14.6" height="47.1"/>
		<polygon class="st128" points="-21.4,864.1 114.3,844.9 106.5,788.9 -6.4,804.9 		"/>
		<path class="st92" d="M155.6,820.9L155.6,820.9c-0.9,4.6,2,9.4,6.6,10.1l41.9,5.5c4.6,0.6,9.1-2.1,10.1-6.6l0,0
			c0.9-4.6-2.1-9.1-6.6-10.1l-41.9-5.5C161,813.6,156.5,816.3,155.6,820.9z"/>
		<polygon class="st96" points="167.1,763.7 147.6,737.7 138,745.2 139.1,746.6 147.6,739.9 165.9,764.7 		"/>
		<polygon class="st68" points="168,767.1 143.6,737.8 134,745.4 158.3,774.7 		"/>
		<polygon class="st96" points="138.8,741.6 134,745.4 158.3,774.7 163.1,770.9 		"/>
		<polygon class="st128" points="168.4,770.4 166.5,768.2 159.7,773.6 161.8,776.1 		"/>
		<g>
			<path class="st130" d="M231.6,850.5L231.6,850.5l-0.1,0l-0.1,0l-0.1,0l-0.1,0l-0.1,0l-0.1,0l-0.1,0l-0.1,0l-0.1,0l-0.1,0l-0.1,0
				l-0.1,0l-0.1,0l-0.1,0l-0.1,0l-0.1,0l-0.1,0l-0.1,0l-0.1,0l-0.1,0l-0.1,0l-0.1,0l-0.1,0l-0.1,0l0,0l0,0l0,0l0,0l0,0l0,0l0,0l0,0
				l0,0l0,0l0,0l0,0l0,0l0,0l0,0l0,0l0,0l0,0l0,0l0,0l0,0l0,0l0,0l0,0l0,0l0,0l0,0l0,0l0,0l0,0l0,0l0,0l0,0l0,0l0,0l0,0l0,0l0,0
				l0.1,0L231.6,850.5L231.6,850.5z M239.7,847.4L239.7,847.4l-0.7,0.4l-0.6,0.3l-0.5,0.3l-0.4,0.3l-0.3,0.2l-0.3,0.2l-0.2,0.2
				l-0.2,0.1l-0.1,0.1l-0.1,0.1l-0.1,0.1l0,0l0,0l0,0l0,0l0,0l0,0.1l-0.2,0.2l-0.3,0.1l-0.2,0l-0.1,0l-0.1,0l-0.1,0l-0.1,0l-0.2,0
				l-0.2,0l-0.3,0l-0.4,0l-0.4,0l-0.5,0.1l-0.6,0.1l-0.7,0.1l-1.4-1.5l0.7-0.1l0.6-0.1l0.5-0.1l0.5,0l0.4,0l0.3,0l0.3,0l0.2,0l0.2,0
				l0.1,0l0.1,0h0l-0.1,0l-0.2,0.1l-0.2,0.2l0,0.1l0,0l0-0.1l0-0.1l0.1-0.1l0.1-0.1l0.1-0.1l0.1-0.1l0.2-0.2l0.2-0.2l0.3-0.2
				l0.3-0.2l0.4-0.2l0.4-0.3l0.5-0.3l0.6-0.3l0.7-0.4l0,0L239.7,847.4L239.7,847.4z M255.8,851.1L255.8,851.1l-1.8,1.5l-1.6,1.3
				l-1.5,1.1l-1.3,0.9l-1.2,0.7l-1.1,0.5l-1,0.3l-1,0.2l-1,0l-1.1-0.3l-1-0.6l-0.6-0.6l-0.4-0.6l-0.3-0.6l-0.2-0.7l-0.1-0.7
				l-0.1-0.7l-0.1-0.7l0-0.7l0-0.7l0-0.7l0-0.7l-0.1-0.6l-0.1-0.6l-0.1-0.5L240,847l-0.1-0.2l0.1,0.1l0.4,0.2l0.1,0l-0.3,0.1
				l-0.5,0.2l-2-1.3l0.7-0.3l0.8-0.2l1,0l1.2,0.5l0.7,0.6l0.4,0.5l0.2,0.6l0.1,0.6l0.1,0.6l0.1,0.7l0,0.7l0,0.7l0,0.7l0,0.7l0.1,0.7
				l0.1,0.7l0.1,0.6l0.2,0.6l0.2,0.5l0.2,0.3l0.1,0.1l-0.1,0l-0.1,0l0.3,0l0.6-0.1l0.8-0.3l0.9-0.4l1.1-0.6l1.3-0.8l1.4-1l1.6-1.3
				l1.8-1.5l0,0L255.8,851.1L255.8,851.1z M271.3,866.7L271.3,866.7l-1.6,0.6l-1.4,0.3l-1.4,0l-1.5-0.3l-1.3-0.7l-0.9-0.8l-0.5-0.9
				l-0.4-1l-0.2-1l-0.1-1.1l0-1.2l0-1.3l0.1-1.3l0.1-1.3l0.1-1.3l0.1-1.3l0.1-1.3l0.1-1.2l0.1-1.2l0-1.1l0-0.9l-0.1-0.8l-0.2-0.6
				l-0.2-0.3l0.1,0.1l0.2,0.1l-0.4,0l-0.8,0.3l-1,0.5l-1.3,0.8l-1.5,1.1l-1.7,1.4l-2.2-1.2l1.8-1.5l1.6-1.2l1.4-0.9l1.2-0.6l1.1-0.4
				l1.2-0.1l1.5,0.4l1.1,0.8l0.5,0.8l0.3,0.8l0.1,0.9l0.1,1l0,1.1l-0.1,1.2l-0.1,1.2l-0.1,1.3l-0.1,1.3l-0.1,1.3l-0.1,1.3l-0.1,1.3
				l0,1.2l0,1.1l0.1,1.1l0.2,0.9l0.3,0.8l0.3,0.6l0.3,0.3l0.1,0.1l0.3,0.1l0.8,0l1.1-0.2l1.4-0.5l0,0L271.3,866.7L271.3,866.7z
				 M279.7,871L279.7,871l-0.1-0.5l0-0.5l0-0.5l0-0.5l0.1-0.5l0.1-0.5l0.1-0.5l0.1-0.5l0.1-0.5l0.1-0.5l0.1-0.4l0.1-0.4l0.1-0.4
				l0-0.3l0-0.3l0-0.2l-0.1-0.2l0,0l0.1,0.1l0.2,0.1l0.1,0l-0.1,0l-0.3,0l-0.5,0.1l-0.6,0.1l-0.7,0.2l-0.9,0.2l-1,0.3l-1.1,0.4
				l-1.2,0.5l-1.4,0.5l-1.5,0.6l-1.9-1.4l1.5-0.6l1.4-0.6l1.3-0.5l1.1-0.4l1-0.3l0.9-0.3l0.8-0.2l0.8-0.1l0.7-0.1l0.7,0l0.7,0.1
				l0.8,0.2l0.7,0.4l0.5,0.5l0.3,0.4l0.1,0.4l0.1,0.4l0,0.4l0,0.4l-0.1,0.4l-0.1,0.4l-0.1,0.5l-0.1,0.5l-0.1,0.5l-0.1,0.5l-0.1,0.5
				l-0.1,0.5l-0.1,0.5l0,0.5l0,0.5l0,0.5l0.1,0.4l0,0L279.7,871L279.7,871z M290.4,872L290.4,872l-0.4,0.3l-0.4,0.3l-0.4,0.3
				l-0.4,0.3l-0.4,0.3l-0.4,0.3l-0.3,0.2l-0.3,0.2l-0.3,0.2l-0.3,0.2l-0.3,0.2l-0.3,0.2l-0.3,0.1l-0.3,0.1l-0.4,0.1l-0.4,0.1l-0.4,0
				l-0.4,0l-0.5-0.1l-0.5-0.1l-0.5-0.2l-0.5-0.2l-0.4-0.3l-0.3-0.3l-0.3-0.3l-0.2-0.3l-0.2-0.3l-0.2-0.4l-0.2-0.4l-0.1-0.4l-0.1-0.5
				l-0.1-0.5l2.5,0.4l0.1,0.4l0.1,0.4l0.1,0.4l0.1,0.3l0.1,0.3l0.1,0.2l0.1,0.2l0.1,0.1l0.1,0.1l0,0l0,0l0,0l0,0l0,0l0.1,0l0.1,0
				l0.2,0l0.2-0.1l0.2-0.1l0.3-0.1l0.3-0.1l0.3-0.1l0.3-0.2l0.3-0.2l0.3-0.2l0.3-0.2l0.3-0.2l0.3-0.3l0.3-0.3l0.3-0.3l0.4-0.3
				l0.4-0.3l0,0L290.4,872L290.4,872z M293.6,876.3l0-0.7l0-0.7l0-0.6l0-0.6l0-0.5l-0.1-0.5l-0.1-0.5l-0.1-0.4l-0.1-0.4l-0.1-0.3
				l-0.1-0.3l-0.1-0.2l-0.1-0.2l-0.1-0.1l-0.1-0.1l0,0l0.1,0l0.2,0.1l0.2,0l0.1,0l0,0l-0.1,0l-0.2,0l-0.2,0.1l-0.2,0.1l-0.3,0.1
				l-0.3,0.2l-0.3,0.2l-0.3,0.2l-0.3,0.2l-0.3,0.3l-0.3,0.3l-2.3-1.2l0.4-0.3l0.4-0.3l0.3-0.3l0.3-0.2l0.3-0.2l0.3-0.2l0.3-0.2
				l0.3-0.1l0.3-0.1l0.3-0.1l0.4-0.1l0.4,0l0.5,0.1l0.6,0.2l0.5,0.3l0.4,0.3l0.3,0.3l0.3,0.3l0.2,0.3l0.2,0.3l0.1,0.3l0.1,0.4
				l0.1,0.4l0.1,0.4l0.1,0.5l0.1,0.5l0.1,0.5l0,0.6l0,0.6l0,0.6l0,0.7l0,0.7L293.6,876.3L293.6,876.3z M296.1,876.9L296.1,876.9
				L296.1,876.9l0,0.1l0,0l0,0l0,0l0,0l0,0l0,0l0,0l0,0l0,0l0,0l0,0l0,0l0,0l0,0l0,0l0,0l-0.1,0l-0.1,0l-0.1,0l-0.1,0l-0.1,0l-0.1,0
				l-0.1,0l-0.1,0l-0.1,0l-0.1,0l-0.1,0l-0.1,0l-0.1,0l-0.1,0l-0.1,0l-0.1,0l-0.1,0l-0.1,0l-0.1,0l-0.1,0l-0.1,0l-0.1,0l-0.1,0
				l-0.1,0l0,0l0,0l0,0l0,0l0,0l0,0l0,0l0,0l0,0l0,0l0,0l0,0l0,0l0,0l0,0l0,0l0,0l0,0l0,0l0,0L296.1,876.9L296.1,876.9z"/>
		</g>
	</g>
</g>
</svg>
