<?xml version="1.0" encoding="utf-8"?>
<!-- Generator: Adobe Illustrator 20.0.0, SVG Export Plug-In . SVG Version: 6.00 Build 0)  -->
<svg version="1.1" id="Layer_1" xmlns="http://www.w3.org/2000/svg" xmlns:xlink="http://www.w3.org/1999/xlink" x="0px" y="0px"
	 viewBox="0 0 187 187" style="enable-background:new 0 0 187 187;" xml:space="preserve">
<style type="text/css">
	.st0{fill:#BCBEC0;}
	.st1{fill:#E6E7E8;}
	.st2{fill:#6D6E71;}
	.st3{fill:none;stroke:#E9E9EA;stroke-width:0.849;stroke-miterlimit:10;}
	.st4{fill:#FFFFFF;}
	.st5{clip-path:url(#SVGID_2_);}
	.st6{fill:#676464;}
	.st7{opacity:0.15;fill-rule:evenodd;clip-rule:evenodd;fill:#010101;}
	.st8{fill:none;stroke:#756458;stroke-miterlimit:10;}
	.st9{fill:#756458;}
	.st10{fill:none;stroke:#756458;stroke-width:3.5778;stroke-linecap:round;stroke-linejoin:round;stroke-miterlimit:10;}
	.st11{fill:none;stroke:#756458;stroke-width:1.0945;stroke-miterlimit:10;}
	.st12{fill:#756458;stroke:#756458;stroke-width:1.0945;stroke-miterlimit:10;}
	.st13{fill:none;stroke:#756458;stroke-width:4.3778;stroke-linecap:round;stroke-linejoin:round;stroke-miterlimit:10;}
	.st14{fill:#756458;stroke:#756458;stroke-width:2.1889;stroke-linecap:round;stroke-linejoin:round;stroke-miterlimit:10;}
	.st15{fill-rule:evenodd;clip-rule:evenodd;fill:#FED6B7;}
	.st16{fill-rule:evenodd;clip-rule:evenodd;fill:#F1BF95;}
	.st17{fill-rule:evenodd;clip-rule:evenodd;fill:#CC5D33;}
	.st18{fill:#EACA49;}
	.st19{fill:#FFDF4F;}
	.st20{opacity:0.48;fill:#D1D3D4;}
	.st21{fill-rule:evenodd;clip-rule:evenodd;fill:#EACA49;}
	.st22{fill-rule:evenodd;clip-rule:evenodd;fill:#F2A51E;}
	.st23{fill:none;stroke:#756458;stroke-width:4.3365;stroke-linecap:round;stroke-linejoin:round;stroke-miterlimit:10;}
	.st24{fill:none;stroke:#756458;stroke-width:3.2834;stroke-linecap:round;stroke-linejoin:round;stroke-miterlimit:10;}
	.st25{fill-rule:evenodd;clip-rule:evenodd;fill:#414141;}
	.st26{fill-rule:evenodd;clip-rule:evenodd;fill:#B53536;}
	.st27{fill-rule:evenodd;clip-rule:evenodd;fill:#FFFFFF;}
	.st28{fill-rule:evenodd;clip-rule:evenodd;fill:#FED4A4;}
	.st29{fill-rule:evenodd;clip-rule:evenodd;fill:#4E4E4E;}
	.st30{fill-rule:evenodd;clip-rule:evenodd;fill:#1D5B8D;}
	.st31{fill-rule:evenodd;clip-rule:evenodd;fill:#F37B7E;}
	.st32{fill-rule:evenodd;clip-rule:evenodd;fill:#DD6A26;}
	.st33{fill-rule:evenodd;clip-rule:evenodd;fill:#8D8E8F;}
	.st34{fill-rule:evenodd;clip-rule:evenodd;fill:#C3842B;}
	.st35{fill:#CC5D33;}
	.st36{fill-rule:evenodd;clip-rule:evenodd;fill:#818181;}
	.st37{opacity:0.15;fill:#010101;}
	.st38{fill:#FEFFFF;}
	.st39{fill:#5E0F17;}
	.st40{fill:#8E1921;}
	.st41{fill:#BD202E;}
	.st42{fill:#CA4B56;}
	.st43{fill:#EF4237;}
	.st44{fill:#F2675D;}
	.st45{fill:#F58D86;}
	.st46{fill:#F8B3AF;}
	.st47{fill:#F69320;}
	.st48{fill:#F9A84B;}
	.st49{fill:#F8BF76;}
	.st50{fill:#FAD4A5;}
	.st51{fill:#8CC640;}
	.st52{fill:#A3CF64;}
	.st53{fill:#BBDA8D;}
	.st54{fill:#D2E6B1;}
	.st55{fill:#00A79C;}
	.st56{fill:#32B7B0;}
	.st57{fill:#69C7C1;}
	.st58{fill:#9BD7D6;}
	.st59{fill:#1D75BC;}
	.st60{fill:#4990C8;}
	.st61{fill:#77ABD5;}
	.st62{fill:#A3C8E4;}
	.st63{fill:#FDE8BD;}
	.st64{opacity:0.9;fill:#3B3838;}
	.st65{opacity:0.15;clip-path:url(#SVGID_4_);}
	.st66{fill:#010101;}
	.st67{clip-path:url(#SVGID_4_);}
	.st68{fill-rule:evenodd;clip-rule:evenodd;fill:#CDCCCC;}
	.st69{fill-rule:evenodd;clip-rule:evenodd;fill:none;stroke:#CDCCCC;stroke-width:1.6938;stroke-miterlimit:22.9256;}
	.st70{fill-rule:evenodd;clip-rule:evenodd;fill:#F8A58E;}
	.st71{fill-rule:evenodd;clip-rule:evenodd;fill:#ED7B5C;}
	.st72{fill-rule:evenodd;clip-rule:evenodd;fill:#E66D4B;}
	.st73{fill-rule:evenodd;clip-rule:evenodd;fill:#D54527;}
	.st74{fill-rule:evenodd;clip-rule:evenodd;fill:#4E8EB4;}
	.st75{fill-rule:evenodd;clip-rule:evenodd;fill:#94C0E7;}
	.st76{fill-rule:evenodd;clip-rule:evenodd;fill:#A7CBEC;}
	.st77{fill-rule:evenodd;clip-rule:evenodd;fill:#B9D8F2;}
	.st78{fill-rule:evenodd;clip-rule:evenodd;fill:#CBE3F6;}
	.st79{fill-rule:evenodd;clip-rule:evenodd;fill:#81B4E1;}
	.st80{fill-rule:evenodd;clip-rule:evenodd;fill:#E4EAF2;}
	.st81{fill-rule:evenodd;clip-rule:evenodd;fill:#D4DBE4;}
	.st82{fill-rule:evenodd;clip-rule:evenodd;fill:#896835;}
	.st83{fill-rule:evenodd;clip-rule:evenodd;fill:#6A5029;}
	.st84{fill-rule:evenodd;clip-rule:evenodd;fill:#BC9D6E;}
	.st85{fill-rule:evenodd;clip-rule:evenodd;fill:#CCCCCC;}
	.st86{fill-rule:evenodd;clip-rule:evenodd;fill:#54585C;}
	.st87{fill-rule:evenodd;clip-rule:evenodd;fill:#8A9096;}
	.st88{fill-rule:evenodd;clip-rule:evenodd;fill:#333538;}
	.st89{fill-rule:evenodd;clip-rule:evenodd;fill:#BFC8D4;}
	.st90{fill-rule:evenodd;clip-rule:evenodd;fill:#BCC7D6;}
	.st91{fill-rule:evenodd;clip-rule:evenodd;fill:#F3F4F6;}
	.st92{fill-rule:evenodd;clip-rule:evenodd;fill:#D8D6D6;}
	.st93{fill-rule:evenodd;clip-rule:evenodd;fill:#F79B1D;}
	.st94{fill:#454242;}
	.st95{fill:#777373;}
	.st96{fill-rule:evenodd;clip-rule:evenodd;fill:#454242;}
	.st97{fill-rule:evenodd;clip-rule:evenodd;fill:#DB971B;}
	.st98{fill-rule:evenodd;clip-rule:evenodd;fill:#F8B75D;}
	.st99{fill-rule:evenodd;clip-rule:evenodd;fill:#9EB8CC;}
	.st100{fill-rule:evenodd;clip-rule:evenodd;fill:#86888A;}
	.st101{fill-rule:evenodd;clip-rule:evenodd;fill:#B4B4B4;}
	.st102{fill-rule:evenodd;clip-rule:evenodd;fill:#DCDDDE;}
	.st103{fill-rule:evenodd;clip-rule:evenodd;fill:#62C4C5;}
	.st104{fill-rule:evenodd;clip-rule:evenodd;fill:#C5D0E0;}
	.st105{fill-rule:evenodd;clip-rule:evenodd;fill:#798790;}
	.st106{fill-rule:evenodd;clip-rule:evenodd;fill:#92A1A9;}
	.st107{fill-rule:evenodd;clip-rule:evenodd;fill:#3B6482;}
	.st108{fill:#3B6482;}
	.st109{fill-rule:evenodd;clip-rule:evenodd;fill:#777373;}
	.st110{fill-rule:evenodd;clip-rule:evenodd;fill:#D3DADE;}
	.st111{fill:#D4DBE4;}
	.st112{fill-rule:evenodd;clip-rule:evenodd;fill:#E6E6E5;}
	.st113{fill:#AF9154;}
	.st114{fill:none;stroke:#000000;stroke-width:2;stroke-miterlimit:10;}
	.st115{opacity:0.25;}
	.st116{fill:none;stroke:#454242;stroke-miterlimit:10;}
	.st117{fill:none;stroke:#454242;stroke-width:0.7489;stroke-miterlimit:10;}
	.st118{fill:none;stroke:#777373;stroke-width:2.5;stroke-miterlimit:10;}
	.st119{fill:#454242;stroke:#454242;stroke-width:1.4978;stroke-linecap:round;stroke-linejoin:round;stroke-miterlimit:10;}
	.st120{fill:#454242;stroke:#454242;stroke-miterlimit:10;}
	.st121{fill:none;stroke:#777373;stroke-width:2.9674;stroke-linecap:round;stroke-linejoin:round;stroke-miterlimit:10;}
	.st122{opacity:0.5;fill-rule:evenodd;clip-rule:evenodd;fill:#777373;}
	.st123{clip-path:url(#SVGID_6_);}
	.st124{fill-rule:evenodd;clip-rule:evenodd;fill:#A09C9C;}
	.st125{fill:#8F8B8B;}
	.st126{opacity:0.7;fill:#D8D6D6;}
	.st127{opacity:0.6;fill:#FFFFFF;}
	.st128{fill-rule:evenodd;clip-rule:evenodd;fill:#8F8B8B;}
	.st129{opacity:0.5;fill:#777373;}
	.st130{fill:#D8D6D6;}
	.st131{clip-path:url(#SVGID_8_);}
	.st132{fill-rule:evenodd;clip-rule:evenodd;fill:none;stroke:#CDCCCC;stroke-width:1.915;stroke-miterlimit:22.9256;}
	.st133{opacity:0.48;}
	.st134{fill-rule:evenodd;clip-rule:evenodd;fill:#D1D3D4;}
	.st135{fill-rule:evenodd;clip-rule:evenodd;fill:#C5C1C0;}
</style>
<g>
	<g>
		<g>
			<path d="M70.8,84.1c-0.4,0.3-0.9,0.3-1.2,0l-5.3-5.7c-3.2,2.6-7.3,4-12.2,4c-9,0-15.1-4.3-17.8-12.4c-1-2.9-1.6-6.5-1.6-15.9
				c0-9.5,0.6-13,1.6-15.9C36.9,30,43.1,25.8,52,25.8c8.9,0,15,4.3,17.7,12.4c1,2.9,1.6,6.5,1.6,15.9c0,9.5-0.6,13-1.6,15.9
				c-0.6,2-1.5,3.7-2.6,5.3l5.7,5.9c0.3,0.3,0.3,0.8-0.1,1.1L70.8,84.1z M61.2,75.1l-6.6-7.1c-0.3-0.3-0.3-0.8,0-1.1l2-1.9
				c0.4-0.3,0.8-0.3,1.1,0.1l6.2,6.7c0.6-1,1-1.9,1.4-3.1c0.7-2.2,1.4-5.7,1.4-14.6c0-8.9-0.6-12.4-1.4-14.6
				c-2-6.1-6.5-9.3-13.3-9.3c-6.9,0-11.3,3.2-13.3,9.3c-0.7,2.2-1.4,5.7-1.4,14.6c0,8.9,0.6,12.4,1.4,14.6c2,6.1,6.5,9.3,13.3,9.3
				C55.7,78,58.8,77,61.2,75.1z"/>
		</g>
		<g>
			<path d="M129.1,106c0.2-0.5,0.5-0.8,1-0.8h2.9c0.6,0,0.8,0.3,1,0.8l19.1,53.3c0.2,0.5-0.1,0.8-0.6,0.8h-3.2
				c-0.6,0-0.9-0.2-1.1-0.8l-4.8-13.5h-23.9l-4.8,13.5c-0.2,0.6-0.6,0.8-1.1,0.8h-3.2c-0.5,0-0.7-0.3-0.6-0.8L129.1,106z
				 M141.9,141.4l-10.3-28.8h-0.2L121,141.4H141.9z"/>
		</g>
	</g>
	<polyline class="st114" points="30.4,156.6 154.2,32.9 186,32.9 186,1 1,1 1,186 186,186 186,62.5 	"/>
</g>
</svg>
