<?xml version="1.0" encoding="utf-8"?>
<!-- Generator: Adobe Illustrator 20.0.0, SVG Export Plug-In . SVG Version: 6.00 Build 0)  -->
<svg version="1.1" id="Layer_1" xmlns="http://www.w3.org/2000/svg" xmlns:xlink="http://www.w3.org/1999/xlink" x="0px" y="0px"
	 viewBox="0 0 64.5 200.7" style="enable-background:new 0 0 64.5 200.7;" xml:space="preserve">
<style type="text/css">
	.st0{fill:#BCBEC0;}
	.st1{fill:#E6E7E8;}
	.st2{fill:#6D6E71;}
	.st3{fill:none;stroke:#E9E9EA;stroke-width:0.849;stroke-miterlimit:10;}
	.st4{fill:#FFFFFF;}
	.st5{clip-path:url(#SVGID_2_);}
	.st6{fill:#676464;}
	.st7{opacity:0.15;fill-rule:evenodd;clip-rule:evenodd;fill:#010101;}
	.st8{fill:none;stroke:#756458;stroke-miterlimit:10;}
	.st9{fill:#756458;}
	.st10{fill:none;stroke:#756458;stroke-width:3.5778;stroke-linecap:round;stroke-linejoin:round;stroke-miterlimit:10;}
	.st11{fill:none;stroke:#756458;stroke-width:1.0945;stroke-miterlimit:10;}
	.st12{fill:#756458;stroke:#756458;stroke-width:1.0945;stroke-miterlimit:10;}
	.st13{fill:none;stroke:#756458;stroke-width:4.3778;stroke-linecap:round;stroke-linejoin:round;stroke-miterlimit:10;}
	.st14{fill:#756458;stroke:#756458;stroke-width:2.1889;stroke-linecap:round;stroke-linejoin:round;stroke-miterlimit:10;}
	.st15{fill-rule:evenodd;clip-rule:evenodd;fill:#FED6B7;}
	.st16{fill-rule:evenodd;clip-rule:evenodd;fill:#F1BF95;}
	.st17{fill-rule:evenodd;clip-rule:evenodd;fill:#CC5D33;}
	.st18{fill:#EACA49;}
	.st19{fill:#FFDF4F;}
	.st20{opacity:0.48;fill:#D1D3D4;}
	.st21{fill-rule:evenodd;clip-rule:evenodd;fill:#EACA49;}
	.st22{fill-rule:evenodd;clip-rule:evenodd;fill:#F2A51E;}
	.st23{fill:none;stroke:#756458;stroke-width:4.3365;stroke-linecap:round;stroke-linejoin:round;stroke-miterlimit:10;}
	.st24{fill:none;stroke:#756458;stroke-width:3.2834;stroke-linecap:round;stroke-linejoin:round;stroke-miterlimit:10;}
	.st25{fill-rule:evenodd;clip-rule:evenodd;fill:#414141;}
	.st26{fill-rule:evenodd;clip-rule:evenodd;fill:#B53536;}
	.st27{fill-rule:evenodd;clip-rule:evenodd;fill:#FFFFFF;}
	.st28{fill-rule:evenodd;clip-rule:evenodd;fill:#FED4A4;}
	.st29{fill-rule:evenodd;clip-rule:evenodd;fill:#4E4E4E;}
	.st30{fill-rule:evenodd;clip-rule:evenodd;fill:#1D5B8D;}
	.st31{fill-rule:evenodd;clip-rule:evenodd;fill:#F37B7E;}
	.st32{fill-rule:evenodd;clip-rule:evenodd;fill:#DD6A26;}
	.st33{fill-rule:evenodd;clip-rule:evenodd;fill:#8D8E8F;}
	.st34{fill-rule:evenodd;clip-rule:evenodd;fill:#C3842B;}
	.st35{fill:#CC5D33;}
	.st36{fill-rule:evenodd;clip-rule:evenodd;fill:#818181;}
	.st37{opacity:0.15;fill:#010101;}
	.st38{fill:#FEFFFF;}
	.st39{fill:#5E0F17;}
	.st40{fill:#8E1921;}
	.st41{fill:#BD202E;}
	.st42{fill:#CA4B56;}
	.st43{fill:#EF4237;}
	.st44{fill:#F2675D;}
	.st45{fill:#F58D86;}
	.st46{fill:#F8B3AF;}
	.st47{fill:#F69320;}
	.st48{fill:#F9A84B;}
	.st49{fill:#F8BF76;}
	.st50{fill:#FAD4A5;}
	.st51{fill:#8CC640;}
	.st52{fill:#A3CF64;}
	.st53{fill:#BBDA8D;}
	.st54{fill:#D2E6B1;}
	.st55{fill:#00A79C;}
	.st56{fill:#32B7B0;}
	.st57{fill:#69C7C1;}
	.st58{fill:#9BD7D6;}
	.st59{fill:#1D75BC;}
	.st60{fill:#4990C8;}
	.st61{fill:#77ABD5;}
	.st62{fill:#A3C8E4;}
	.st63{fill:#FDE8BD;}
	.st64{opacity:0.9;fill:#3B3838;}
	.st65{opacity:0.15;clip-path:url(#SVGID_4_);}
	.st66{fill:#010101;}
	.st67{clip-path:url(#SVGID_4_);}
	.st68{fill-rule:evenodd;clip-rule:evenodd;fill:#CDCCCC;}
	.st69{fill-rule:evenodd;clip-rule:evenodd;fill:none;stroke:#CDCCCC;stroke-width:1.6938;stroke-miterlimit:22.9256;}
	.st70{fill-rule:evenodd;clip-rule:evenodd;fill:#F8A58E;}
	.st71{fill-rule:evenodd;clip-rule:evenodd;fill:#ED7B5C;}
	.st72{fill-rule:evenodd;clip-rule:evenodd;fill:#E66D4B;}
	.st73{fill-rule:evenodd;clip-rule:evenodd;fill:#D54527;}
	.st74{fill-rule:evenodd;clip-rule:evenodd;fill:#4E8EB4;}
	.st75{fill-rule:evenodd;clip-rule:evenodd;fill:#94C0E7;}
	.st76{fill-rule:evenodd;clip-rule:evenodd;fill:#A7CBEC;}
	.st77{fill-rule:evenodd;clip-rule:evenodd;fill:#B9D8F2;}
	.st78{fill-rule:evenodd;clip-rule:evenodd;fill:#CBE3F6;}
	.st79{fill-rule:evenodd;clip-rule:evenodd;fill:#81B4E1;}
	.st80{fill-rule:evenodd;clip-rule:evenodd;fill:#E4EAF2;}
	.st81{fill-rule:evenodd;clip-rule:evenodd;fill:#D4DBE4;}
	.st82{fill-rule:evenodd;clip-rule:evenodd;fill:#896835;}
	.st83{fill-rule:evenodd;clip-rule:evenodd;fill:#6A5029;}
	.st84{fill-rule:evenodd;clip-rule:evenodd;fill:#BC9D6E;}
	.st85{fill-rule:evenodd;clip-rule:evenodd;fill:#CCCCCC;}
	.st86{fill-rule:evenodd;clip-rule:evenodd;fill:#54585C;}
	.st87{fill-rule:evenodd;clip-rule:evenodd;fill:#8A9096;}
	.st88{fill-rule:evenodd;clip-rule:evenodd;fill:#333538;}
	.st89{fill-rule:evenodd;clip-rule:evenodd;fill:#BFC8D4;}
	.st90{fill-rule:evenodd;clip-rule:evenodd;fill:#BCC7D6;}
	.st91{fill-rule:evenodd;clip-rule:evenodd;fill:#F3F4F6;}
	.st92{fill-rule:evenodd;clip-rule:evenodd;fill:#D8D6D6;}
	.st93{fill-rule:evenodd;clip-rule:evenodd;fill:#F79B1D;}
	.st94{fill:#454242;}
	.st95{fill:#777373;}
	.st96{fill-rule:evenodd;clip-rule:evenodd;fill:#454242;}
	.st97{fill-rule:evenodd;clip-rule:evenodd;fill:#DB971B;}
	.st98{fill-rule:evenodd;clip-rule:evenodd;fill:#F8B75D;}
	.st99{fill-rule:evenodd;clip-rule:evenodd;fill:#9EB8CC;}
	.st100{fill-rule:evenodd;clip-rule:evenodd;fill:#86888A;}
	.st101{fill-rule:evenodd;clip-rule:evenodd;fill:#B4B4B4;}
	.st102{fill-rule:evenodd;clip-rule:evenodd;fill:#DCDDDE;}
	.st103{fill-rule:evenodd;clip-rule:evenodd;fill:#62C4C5;}
	.st104{fill-rule:evenodd;clip-rule:evenodd;fill:#C5D0E0;}
	.st105{fill-rule:evenodd;clip-rule:evenodd;fill:#798790;}
	.st106{fill-rule:evenodd;clip-rule:evenodd;fill:#92A1A9;}
	.st107{fill-rule:evenodd;clip-rule:evenodd;fill:#3B6482;}
	.st108{fill:#3B6482;}
	.st109{fill-rule:evenodd;clip-rule:evenodd;fill:#777373;}
	.st110{fill-rule:evenodd;clip-rule:evenodd;fill:#D3DADE;}
	.st111{fill:#D4DBE4;}
	.st112{fill-rule:evenodd;clip-rule:evenodd;fill:#E6E6E5;}
	.st113{fill:#AF9154;}
	.st114{fill:none;stroke:#000000;stroke-width:2;stroke-miterlimit:10;}
</style>
<g>
	<g>
		<rect x="1" y="1" class="st114" width="62.5" height="198.7"/>
		<g>
			<path d="M52.4,19.5c0.1,0,0.1,0.1,0.1,0.1v3c0,1.6-0.6,2.6-1.9,3c-0.6,0.2-1.1,0.3-2.8,0.3s-2.3-0.1-2.8-0.3
				c-1.3-0.4-1.9-1.5-1.9-3v-3c0-0.1,0.1-0.1,0.1-0.1H52.4z M43.7,20.3v2.1c0,1.2,0.4,2,1.4,2.4c0.5,0.2,1,0.2,2.6,0.2
				s2.1-0.1,2.6-0.2c1-0.3,1.4-1.1,1.4-2.4v-2.1c0-0.1,0-0.1-0.1-0.1L43.7,20.3C43.7,20.3,43.7,20.3,43.7,20.3z"/>
			<path d="M52.4,29.5c0.1,0,0.1,0.1,0.1,0.1v0.5c0,0.1-0.1,0.1-0.1,0.1h-9.2c-0.1,0-0.1-0.1-0.1-0.1v-0.5c0-0.1,0.1-0.1,0.1-0.1
				H52.4z"/>
			<path d="M43,40c0-0.1,0-0.1,0.1-0.2l4.1-2v-0.1v-2.5c0-0.1,0-0.1-0.1-0.1h-4C43,35.2,43,35.1,43,35v-0.5c0-0.1,0.1-0.1,0.1-0.1
				h9.2c0.1,0,0.1,0.1,0.1,0.1v3.2c0,1.8-1,2.9-2.6,2.9c-1.3,0-2.2-0.7-2.5-1.9l-4.2,2.1c-0.1,0.1-0.2,0-0.2-0.1V40z M49.9,39.8
				c1.2,0,1.9-0.8,1.9-2.1v-2.4c0-0.1,0-0.1-0.1-0.1h-3.6c-0.1,0-0.1,0-0.1,0.1v2.4C48,39.1,48.7,39.8,49.9,39.8z"/>
			<path d="M52.4,44.4c0.1,0,0.1,0.1,0.1,0.1V50c0,0.1-0.1,0.1-0.1,0.1h-0.5c-0.1,0-0.1-0.1-0.1-0.1v-4.7c0-0.1,0-0.1-0.1-0.1h-3.4
				c-0.1,0-0.1,0-0.1,0.1v4c0,0.1-0.1,0.1-0.1,0.1h-0.5c-0.1,0-0.1-0.1-0.1-0.1v-4c0-0.1,0-0.1-0.1-0.1h-3.5c-0.1,0-0.1,0-0.1,0.1
				V50c0,0.1-0.1,0.1-0.1,0.1h-0.5C43,50.1,43,50.1,43,50v-5.4c0-0.1,0.1-0.1,0.1-0.1H52.4z"/>
			<path d="M47.7,53.2c1.7,0,2.3,0.1,2.8,0.3c1.4,0.5,2.1,1.5,2.1,3c0,1.3-0.6,2.3-1.8,2.9c-0.1,0-0.1,0-0.2,0l-0.2-0.5
				c0-0.1,0-0.1,0.1-0.2c0.8-0.4,1.4-1.1,1.4-2.2c0-1.2-0.5-1.9-1.6-2.2c-0.4-0.1-1-0.2-2.6-0.2s-2.2,0.1-2.6,0.2
				c-1,0.4-1.6,1.1-1.6,2.2c0,1.1,0.5,1.8,1.4,2.2c0.1,0,0.1,0.1,0.1,0.2l-0.2,0.5c0,0.1-0.1,0.1-0.2,0c-1.2-0.5-1.8-1.6-1.8-2.9
				c0-1.5,0.7-2.5,2.1-3C45.4,53.3,46.1,53.2,47.7,53.2z"/>
			<path d="M43,64.6c0-0.1,0.1-0.1,0.1-0.1h8.5c0.1,0,0.1,0,0.1-0.1v-2.7c0-0.1,0.1-0.1,0.1-0.1h0.5c0.1,0,0.1,0.1,0.1,0.1v6.5
				c0,0.1-0.1,0.1-0.1,0.1h-0.5c-0.1,0-0.1-0.1-0.1-0.1v-2.7c0-0.1,0-0.1-0.1-0.1h-8.5c-0.1,0-0.1-0.1-0.1-0.1V64.6z"/>
			<path d="M45,70.8c0.5-0.2,1.1-0.3,2.8-0.3c1.6,0,2.3,0.1,2.8,0.3c1.4,0.5,2.1,1.5,2.1,3.1c0,1.5-0.7,2.6-2.1,3.1
				c-0.5,0.2-1.1,0.3-2.8,0.3c-1.6,0-2.3-0.1-2.8-0.3c-1.4-0.5-2.1-1.5-2.1-3.1C42.8,72.3,43.6,71.2,45,70.8z M50.3,76.2
				c1.1-0.3,1.6-1.1,1.6-2.3c0-1.2-0.6-2-1.6-2.3c-0.4-0.1-1-0.2-2.5-0.2c-1.5,0-2.2,0.1-2.5,0.2c-1,0.4-1.6,1.1-1.6,2.3
				c0,1.2,0.6,1.9,1.6,2.3c0.4,0.1,1,0.2,2.5,0.2C49.3,76.4,49.9,76.3,50.3,76.2z"/>
			<path d="M43,86.5c0-0.1,0-0.1,0.1-0.2l4.1-2v-0.1v-2.5c0-0.1,0-0.1-0.1-0.1h-4c-0.1,0-0.1-0.1-0.1-0.1V81c0-0.1,0.1-0.1,0.1-0.1
				h9.2c0.1,0,0.1,0.1,0.1,0.1v3.2c0,1.8-1,2.9-2.6,2.9c-1.3,0-2.2-0.7-2.5-1.9l-4.2,2.1c-0.1,0.1-0.2,0-0.2-0.1V86.5z M49.9,86.3
				c1.2,0,1.9-0.8,1.9-2.1v-2.4c0-0.1,0-0.1-0.1-0.1h-3.6c-0.1,0-0.1,0-0.1,0.1v2.4C48,85.5,48.7,86.3,49.9,86.3z"/>
			<path d="M45,95.6c0.5-0.2,1.1-0.3,2.8-0.3c1.6,0,2.3,0.1,2.8,0.3c1.4,0.5,2.1,1.5,2.1,3.1c0,1.5-0.7,2.6-2.1,3.1
				c-0.5,0.2-1.1,0.3-2.8,0.3c-1.6,0-2.3-0.1-2.8-0.3c-1.4-0.5-2.1-1.5-2.1-3.1C42.8,97.1,43.6,96,45,95.6z M50.3,100.9
				c1.1-0.3,1.6-1.1,1.6-2.3c0-1.2-0.6-2-1.6-2.3c-0.4-0.1-1-0.2-2.5-0.2c-1.5,0-2.2,0.1-2.5,0.2c-1,0.4-1.6,1.1-1.6,2.3
				c0,1.2,0.6,1.9,1.6,2.3c0.4,0.1,1,0.2,2.5,0.2C49.3,101.2,49.9,101.1,50.3,100.9z"/>
			<path d="M52.4,105.6c0.1,0,0.1,0.1,0.1,0.1v5.4c0,0.1-0.1,0.1-0.1,0.1h-0.5c-0.1,0-0.1-0.1-0.1-0.1v-4.7c0-0.1,0-0.1-0.1-0.1
				h-3.5c-0.1,0-0.1,0-0.1,0.1v4c0,0.1-0.1,0.1-0.1,0.1h-0.5c-0.1,0-0.1-0.1-0.1-0.1v-4c0-0.1,0-0.1-0.1-0.1h-4.1
				c-0.1,0-0.1-0.1-0.1-0.1v-0.5c0-0.1,0.1-0.1,0.1-0.1H52.4z"/>
			<path d="M47.7,119.2c1.7,0,2.3,0.1,2.8,0.3c1.4,0.5,2.1,1.5,2.1,3c0,1.3-0.6,2.3-1.8,2.9c-0.1,0-0.1,0-0.2,0l-0.2-0.5
				c0-0.1,0-0.1,0.1-0.2c0.8-0.4,1.4-1.1,1.4-2.2c0-1.2-0.5-1.9-1.6-2.2c-0.4-0.1-1-0.2-2.6-0.2s-2.2,0.1-2.6,0.2
				c-1,0.4-1.6,1.1-1.6,2.2c0,1.1,0.5,1.8,1.4,2.2c0.1,0,0.1,0.1,0.1,0.2l-0.2,0.5c0,0.1-0.1,0.1-0.2,0c-1.2-0.5-1.8-1.6-1.8-2.9
				c0-1.5,0.7-2.5,2.1-3C45.4,119.3,46.1,119.2,47.7,119.2z"/>
			<path d="M46.2,129.5c-1.8,0-2.7,0.9-2.7,2.4c0,1.5,0.9,2.4,2.7,2.4h6.1c0.1,0,0.1,0.1,0.1,0.1v0.5c0,0.1-0.1,0.1-0.1,0.1h-6.1
				c-2.3,0-3.4-1.3-3.4-3.2c0-2,1.1-3.2,3.4-3.2h6.1c0.1,0,0.1,0.1,0.1,0.1v0.5c0,0.1-0.1,0.1-0.1,0.1H46.2z"/>
			<path d="M52.4,139c0.1,0,0.1,0.1,0.1,0.1v3.2c0,1.8-1,2.8-2.5,2.8c-1.2,0-1.9-0.6-2.1-1.5h0c-0.1,0.7-0.9,1.6-2.3,1.6
				c-1.6,0-2.6-1.1-2.6-2.9v-3.2c0-0.1,0.1-0.1,0.1-0.1H52.4z M43.7,139.9v2.5c0,1.4,0.7,2.1,1.8,2.1s1.9-0.7,1.9-2.1v-2.5
				c0-0.1,0-0.1-0.1-0.1L43.7,139.9C43.7,139.8,43.7,139.9,43.7,139.9z M48.2,142.4c0,1.3,0.7,2,1.8,2c1.1,0,1.8-0.7,1.8-2v-2.4
				c0-0.1,0-0.1-0.1-0.1h-3.4c-0.1,0-0.1,0-0.1,0.1V142.4z"/>
			<path d="M52.4,148.9c0.1,0,0.1,0.1,0.1,0.1v5.4c0,0.1-0.1,0.1-0.1,0.1h-0.5c-0.1,0-0.1-0.1-0.1-0.1v-4.7c0-0.1,0-0.1-0.1-0.1
				h-3.4c-0.1,0-0.1,0-0.1,0.1v4c0,0.1-0.1,0.1-0.1,0.1h-0.5c-0.1,0-0.1-0.1-0.1-0.1v-4c0-0.1,0-0.1-0.1-0.1h-3.5
				c-0.1,0-0.1,0-0.1,0.1v4.7c0,0.1-0.1,0.1-0.1,0.1h-0.5c-0.1,0-0.1-0.1-0.1-0.1V149c0-0.1,0.1-0.1,0.1-0.1H52.4z"/>
			<path d="M52.4,158c0.1,0,0.1,0.1,0.1,0.1v5.4c0,0.1-0.1,0.1-0.1,0.1h-0.5c-0.1,0-0.1-0.1-0.1-0.1v-4.7c0-0.1,0-0.1-0.1-0.1h-3.4
				c-0.1,0-0.1,0-0.1,0.1v4c0,0.1-0.1,0.1-0.1,0.1h-0.5c-0.1,0-0.1-0.1-0.1-0.1v-4c0-0.1,0-0.1-0.1-0.1h-3.5c-0.1,0-0.1,0-0.1,0.1
				v4.7c0,0.1-0.1,0.1-0.1,0.1h-0.5c-0.1,0-0.1-0.1-0.1-0.1v-5.4c0-0.1,0.1-0.1,0.1-0.1H52.4z"/>
			<path d="M43,169.6c0-0.1,0.1-0.1,0.1-0.2l9.2-3.2c0.1-0.1,0.2,0,0.2,0.1v0.5c0,0.1,0,0.2-0.1,0.2l-8.1,2.8v0l8.1,2.7
				c0.1,0,0.1,0.1,0.1,0.2v0.5c0,0.1-0.1,0.2-0.2,0.1l-9.2-3.1c-0.1,0-0.1-0.1-0.1-0.2V169.6z"/>
			<path d="M45,176.2c0.5-0.2,1.1-0.3,2.8-0.3c1.6,0,2.3,0.1,2.8,0.3c1.4,0.5,2.1,1.5,2.1,3.1c0,1.5-0.7,2.6-2.1,3.1
				c-0.5,0.2-1.1,0.3-2.8,0.3c-1.6,0-2.3-0.1-2.8-0.3c-1.4-0.5-2.1-1.5-2.1-3.1C42.8,177.8,43.6,176.7,45,176.2z M50.3,181.6
				c1.1-0.3,1.6-1.1,1.6-2.3c0-1.2-0.6-2-1.6-2.3c-0.4-0.1-1-0.2-2.5-0.2c-1.5,0-2.2,0.1-2.5,0.2c-1,0.4-1.6,1.1-1.6,2.3
				c0,1.2,0.6,1.9,1.6,2.3c0.4,0.1,1,0.2,2.5,0.2C49.3,181.9,49.9,181.8,50.3,181.6z"/>
		</g>
		<g>
			<path d="M11.8,19.6c0,0,0.1,0,0.2,0.1l3.9,3.6c0.7,0.7,1.3,1,1.9,1c0.8,0,1.3-0.5,1.3-1.3c0-0.9-0.6-1.5-1.4-1.8
				c-0.1,0-0.1-0.1-0.1-0.1l0.1-0.3c0-0.1,0.1-0.1,0.1-0.1c1,0.3,1.9,1.1,1.9,2.4c0,1.1-0.7,1.8-1.8,1.8c-0.9,0-1.6-0.4-2.4-1.2
				L12,20.5h0v3.3c0,0.1,0,0.1-0.1,0.1l-0.3-0.1c-0.1,0-0.1-0.1-0.1-0.1v-3.9c0-0.1,0-0.1,0.1-0.1L11.8,19.6z"/>
			<path d="M18.2,27.1c1,0.5,1.4,1.3,1.4,2.2c0,1.1-0.7,1.8-1.8,1.8c-1,0-4.4-0.6-5.2-1c-1-0.5-1.4-1.3-1.4-2.2
				c0-1.1,0.7-1.8,1.8-1.8C14,26.1,17.4,26.7,18.2,27.1z M11.8,27.9c0,0.7,0.3,1.3,1,1.6c0.7,0.4,4.1,0.9,5,0.9
				c0.8,0,1.3-0.4,1.3-1.2c0-0.7-0.3-1.3-1-1.6c-0.7-0.4-4.1-1-5-1C12.3,26.7,11.8,27.1,11.8,27.9z"/>
			<path d="M11.3,33.5c0-1,0.4-1.3,1.5-1.2l3.6,0.7c0,0,0.1,0,0.1-0.1v-0.6c0-0.1,0-0.1,0.1-0.1l0.3,0c0.1,0,0.1,0.1,0.1,0.1v0.6
				c0,0,0,0.1,0.1,0.1l1.6,0.3c0.1,0,0.1,0.1,0.1,0.1V34c0,0.1,0,0.1-0.1,0.1l-1.6-0.3c0,0-0.1,0-0.1,0v1c0,0.1,0,0.1-0.1,0.1
				l-0.3,0c-0.1,0-0.1-0.1-0.1-0.1v-1c0,0,0-0.1-0.1-0.1L12.9,33c-0.8-0.1-1,0-1,0.7v0.2c0,0.1,0,0.1-0.1,0.1l-0.3,0
				c-0.1,0-0.1-0.1-0.1-0.1V33.5z"/>
			<path d="M11.4,39.2c0-0.1,0-0.1,0.1-0.1l3.4,0.6c1.2,0.2,1.8-0.2,1.8-1.1c0-0.8-0.6-1.6-1.6-1.8l-3.5-0.6c-0.1,0-0.1,0-0.1-0.1
				v-0.4c0-0.1,0-0.1,0.1-0.1l7.9,1.4c0.1,0,0.1,0.1,0.1,0.1v0.4c0,0.1,0,0.1-0.1,0.1L16.3,37v0c0.6,0.4,0.9,1,0.9,1.8
				c0,1.2-0.8,1.8-2.2,1.5l-3.5-0.6c-0.1,0-0.1-0.1-0.1-0.1V39.2z"/>
			<path d="M11.5,43.9l7.9,4.1c0.1,0,0.1,0.1,0.1,0.2v0.4c0,0.1,0,0.1-0.1,0.1l-7.9,1.3c-0.1,0-0.1,0-0.1-0.1v-0.4
				c0-0.1,0-0.1,0.1-0.1l2-0.3v-3.4l-2-1.1c-0.1,0-0.1-0.1-0.1-0.2V44C11.4,43.9,11.4,43.9,11.5,43.9z M14.1,49l4.4-0.7v0L14.1,46
				V49z"/>
			<path d="M9.2,51.2c0-0.1,0-0.1,0.1-0.1l7.6,1.3c0.1,0,0.1,0.1,0.1,0.1V53c0,0.1,0,0.1-0.1,0.1L16.3,53v0c0.5,0.4,0.9,0.9,0.9,1.8
				c0,1.1-0.7,1.7-1.9,1.7c-0.9,0-2.2-0.3-2.8-0.6c-0.9-0.4-1.3-1.1-1.3-2.1c0-0.9,0.4-1.3,1-1.5v0l-2.9-0.5c-0.1,0-0.1-0.1-0.1-0.1
				V51.2z M12.9,55.3c0.6,0.3,1.7,0.5,2.4,0.5c0.8,0,1.4-0.3,1.4-1.2c0-0.7-0.3-1.3-1.1-1.7c-0.4-0.2-1.7-0.5-2.4-0.5
				c-0.8,0-1.3,0.4-1.3,1.3C11.8,54.5,12.2,55,12.9,55.3z"/>
			<path d="M11.4,57.7c0-0.1,0-0.1,0.1-0.1l5.5,1c0.1,0,0.1,0.1,0.1,0.1v0.4c0,0.1,0,0.1-0.1,0.1l-0.7-0.1v0c0.6,0.3,1,0.9,1,1.6
				c0,0.4-0.2,0.8-0.4,1c0,0-0.1,0-0.2,0l-0.3-0.3c0-0.1,0-0.1,0-0.2c0.2-0.2,0.3-0.5,0.3-0.8c0-1-0.9-1.5-2-1.7l-3.2-0.6
				c-0.1,0-0.1,0-0.1-0.1V57.7z"/>
			<path d="M11.4,62.3c0-0.1,0-0.1,0.1-0.1l5.5,1c0.1,0,0.1,0.1,0.1,0.1v0.4c0,0.1,0,0.1-0.1,0.1l-5.5-1c-0.1,0-0.1,0-0.1-0.1V62.3z
				 M18.6,63.5c0-0.1,0-0.1,0.1-0.1l0.6,0.1c0.1,0,0.1,0.1,0.1,0.1v0.5c0,0.1,0,0.1-0.1,0.1l-0.6-0.1c-0.1,0-0.1-0.1-0.1-0.1V63.5z"
				/>
			<path d="M11.3,66c0-0.8,0.4-1,1.3-0.9l6.8,1.2c0.1,0,0.1,0.1,0.1,0.1v0.4c0,0.1,0,0.1-0.1,0.1l-6.8-1.2c-0.6-0.1-0.7,0-0.7,0.5
				v0.2c0,0.1,0,0.1-0.1,0.1l-0.3,0c-0.1,0-0.1-0.1-0.1-0.1V66z"/>
			<path d="M11.8,70.6c0,0,0.1,0,0.2,0.1l3.9,3.6c0.7,0.7,1.3,1,1.9,1c0.8,0,1.3-0.5,1.3-1.3c0-0.9-0.6-1.5-1.4-1.8
				c-0.1,0-0.1-0.1-0.1-0.1l0.1-0.3c0-0.1,0.1-0.1,0.1-0.1c1,0.3,1.9,1.1,1.9,2.4c0,1.1-0.7,1.8-1.8,1.8c-0.9,0-1.6-0.4-2.4-1.2
				L12,71.5h0v3.2c0,0.1,0,0.1-0.1,0.1l-0.3-0.1c-0.1,0-0.1-0.1-0.1-0.1v-3.9c0-0.1,0-0.1,0.1-0.1L11.8,70.6z"/>
			<path d="M18.2,78c1,0.5,1.4,1.3,1.4,2.2c0,1.1-0.7,1.8-1.8,1.8c-1,0-4.4-0.6-5.2-1c-1-0.5-1.4-1.3-1.4-2.2c0-1.1,0.7-1.8,1.8-1.8
				C14,77,17.4,77.7,18.2,78z M11.8,78.9c0,0.7,0.3,1.3,1,1.6c0.7,0.4,4.1,0.9,5,0.9c0.8,0,1.3-0.4,1.3-1.2c0-0.7-0.3-1.3-1-1.6
				c-0.7-0.4-4.1-1-5-1C12.3,77.7,11.8,78.1,11.8,78.9z"/>
			<path d="M18.7,86.1L18.7,86.1l-1.1-1.6c0-0.1,0-0.1,0.1-0.1l0.5,0.1c0.1,0,0.1,0,0.2,0.1l1.1,1.7c0,0.1,0.1,0.1,0.1,0.2v0.3
				c0,0.1,0,0.1-0.1,0.1l-7.9-1.4c-0.1,0-0.1-0.1-0.1-0.1v-0.4c0-0.1,0-0.1,0.1-0.1L18.7,86.1z"/>
			<path d="M15.5,90l3.9,2.7c0.1,0,0.1,0.1,0.1,0.2v0.4c0,0.1-0.1,0.1-0.1,0.1l-3.5-2.4l0,0c0.2,0.2,0.3,0.6,0.3,1.1
				c0,1.1-0.7,1.8-1.9,1.8c-1.6,0-3-1.1-3-2.7c0-1.2,0.7-1.9,1.9-1.9C13.9,89.2,14.6,89.4,15.5,90z M11.8,91.1
				c0,1.2,1.1,2.1,2.3,2.1c0.9,0,1.4-0.5,1.4-1.4c0-1.2-1.1-2-2.3-2C12.4,89.8,11.8,90.3,11.8,91.1z"/>
		</g>
	</g>
	<line class="st114" x1="30.3" y1="20" x2="30.3" y2="41.1"/>
</g>
</svg>
