<?xml version="1.0" encoding="utf-8"?>
<!-- Generator: Adobe Illustrator 20.0.0, SVG Export Plug-In . SVG Version: 6.00 Build 0)  -->
<svg version="1.1" id="Layer_1" xmlns="http://www.w3.org/2000/svg" xmlns:xlink="http://www.w3.org/1999/xlink" x="0px" y="0px"
	 viewBox="0 0 841.9 649" style="enable-background:new 0 0 841.9 649;" xml:space="preserve">
<style type="text/css">
	.st0{fill:#CFCDCD;}
	.st1{fill:#C9E9E6;}
	.st2{fill:#FFFFFF;stroke:#000000;stroke-width:2.3369;stroke-miterlimit:10;}
	.st3{fill:#FFE06A;}
	.st4{fill:none;stroke:#000000;stroke-width:2.3369;stroke-linecap:round;stroke-linejoin:round;stroke-miterlimit:10;}
	.st5{fill:#27BDBE;}
	.st6{fill:none;stroke:#27BDBE;stroke-width:4.6884;stroke-miterlimit:10;}
	.st7{fill:none;stroke:#000000;stroke-width:2.3369;stroke-miterlimit:10;}
	.st8{fill:#ECF8FE;}
	.st9{fill:none;stroke:#000000;stroke-width:2.1058;stroke-miterlimit:10;}
	.st10{fill:none;stroke:#000000;stroke-width:1.9613;stroke-miterlimit:10;}
	.st11{fill:#FFFFFF;stroke:#000000;stroke-width:2.1058;stroke-miterlimit:10;}
	.st12{fill:none;stroke:#000000;stroke-width:1.0529;stroke-miterlimit:10;}
	.st13{fill:#FFFFFF;}
	.st14{fill:#FFFFFF;stroke:#000000;stroke-width:1.5873;stroke-miterlimit:10;}
	.st15{fill:none;stroke:#000000;stroke-width:1.5873;stroke-linecap:round;stroke-linejoin:round;stroke-miterlimit:10;}
	.st16{fill:none;stroke:#000000;stroke-width:0.8323;stroke-linecap:round;stroke-linejoin:round;stroke-miterlimit:10;}
</style>
<g>
	<g>
		<g>
			<path d="M218.3,228.7c-0.1,0-0.1-0.1-0.2-0.2l-3.6-10.5c-0.1-0.1,0-0.2,0.1-0.2h0.6c0.1,0,0.2,0,0.2,0.2l3.2,9.2h0l3.1-9.2
				c0-0.1,0.1-0.2,0.2-0.2h0.6c0.1,0,0.2,0.1,0.1,0.2l-3.6,10.5c0,0.1-0.1,0.2-0.2,0.2H218.3z"/>
			<path d="M225.8,218c0-0.1,0.1-0.2,0.2-0.2h0.6c0.1,0,0.2,0.1,0.2,0.2v10.6c0,0.1-0.1,0.2-0.2,0.2H226c-0.1,0-0.2-0.1-0.2-0.2V218
				z"/>
			<path d="M230.6,227.6c-0.1-0.1-0.1-0.2,0-0.2l0.4-0.5c0.1-0.1,0.2-0.1,0.2,0c0.7,0.6,1.9,1.1,3.1,1.1c1.7,0,2.8-0.9,2.8-2.2
				c0-1.1-0.6-1.9-2.6-2.1l-0.5-0.1c-2.1-0.3-3.1-1.3-3.1-2.9c0-1.9,1.3-3.1,3.4-3.1c1.2,0,2.4,0.4,3.1,0.9c0.1,0,0.1,0.1,0,0.2
				l-0.3,0.5c-0.1,0.1-0.1,0.1-0.2,0c-0.9-0.5-1.7-0.8-2.6-0.8c-1.6,0-2.5,0.9-2.5,2.1c0,1.1,0.7,1.8,2.6,2.1l0.5,0.1
				c2.2,0.3,3.2,1.3,3.2,2.9c0,1.8-1.3,3.2-3.8,3.2C232.7,228.8,231.3,228.2,230.6,227.6z"/>
			<path d="M242.6,224.9c0,2,1,3,2.8,3c1.7,0,2.8-1,2.8-3v-7c0-0.1,0.1-0.2,0.2-0.2h0.6c0.1,0,0.2,0.1,0.2,0.2v7
				c0,2.7-1.4,3.9-3.7,3.9c-2.2,0-3.7-1.3-3.7-3.9v-7c0-0.1,0.1-0.2,0.2-0.2h0.6c0.1,0,0.2,0.1,0.2,0.2V224.9z"/>
			<path d="M255.9,218c0-0.1,0.1-0.2,0.2-0.2h0.6c0.1,0,0.2,0.1,0.2,0.2l3.8,10.6c0,0.1,0,0.2-0.1,0.2h-0.6c-0.1,0-0.2,0-0.2-0.2
				l-1-2.7H254l-1,2.7c0,0.1-0.1,0.2-0.2,0.2h-0.6c-0.1,0-0.1-0.1-0.1-0.2L255.9,218z M258.5,225l-2-5.7h0l-2,5.7H258.5z"/>
			<path d="M263.9,218c0-0.1,0.1-0.2,0.2-0.2h0.6c0.1,0,0.2,0.1,0.2,0.2v9.8c0,0.1,0,0.1,0.1,0.1h5.4c0.1,0,0.2,0.1,0.2,0.2v0.5
				c0,0.1-0.1,0.2-0.2,0.2h-6.2c-0.1,0-0.2-0.1-0.2-0.2V218z"/>
			<path d="M202.8,239.7c0-0.1,0.1-0.2,0.2-0.2h3.6c2.1,0,3.2,1.1,3.2,2.8c0,1.3-0.7,2.1-1.7,2.4v0c0.8,0.2,1.9,1,1.9,2.6
				c0,1.9-1.2,3-3.3,3H203c-0.1,0-0.2-0.1-0.2-0.2V239.7z M206.6,244.5c1.5,0,2.3-0.8,2.3-2c0-1.2-0.8-2-2.3-2h-2.8
				c-0.1,0-0.1,0-0.1,0.1v3.9c0,0.1,0,0.1,0.1,0.1H206.6z M203.8,249.6h2.9c1.6,0,2.4-0.8,2.4-2.1c0-1.3-0.8-2.1-2.4-2.1h-2.9
				c-0.1,0-0.1,0-0.1,0.1L203.8,249.6C203.7,249.5,203.8,249.6,203.8,249.6z"/>
			<path d="M220.2,250.4c-0.1,0-0.1,0-0.2-0.1l-2.3-4.7h-0.2h-2.8c-0.1,0-0.1,0-0.1,0.1v4.6c0,0.1-0.1,0.2-0.2,0.2h-0.6
				c-0.1,0-0.2-0.1-0.2-0.2v-10.6c0-0.1,0.1-0.2,0.2-0.2h3.6c2,0,3.3,1.2,3.3,3c0,1.5-0.8,2.5-2.2,2.9l2.4,4.8
				c0.1,0.1,0,0.2-0.1,0.2H220.2z M219.9,242.6c0-1.4-0.9-2.1-2.4-2.1h-2.8c-0.1,0-0.1,0-0.1,0.1v4.1c0,0.1,0,0.1,0.1,0.1h2.8
				C219.1,244.7,219.9,243.9,219.9,242.6z"/>
			<path d="M227.6,239.7c0-0.1,0.1-0.2,0.2-0.2h0.6c0.1,0,0.2,0.1,0.2,0.2l3.8,10.6c0,0.1,0,0.2-0.1,0.2h-0.6c-0.1,0-0.2,0-0.2-0.2
				l-1-2.7h-4.7l-1,2.7c0,0.1-0.1,0.2-0.2,0.2h-0.6c-0.1,0-0.1-0.1-0.1-0.2L227.6,239.7z M230.2,246.7l-2-5.7h0l-2,5.7H230.2z"/>
			<path d="M235.6,239.7c0-0.1,0.1-0.2,0.2-0.2h0.6c0.1,0,0.2,0,0.3,0.2l5.4,8.9h0v-8.9c0-0.1,0.1-0.2,0.2-0.2h0.6
				c0.1,0,0.2,0.1,0.2,0.2v10.6c0,0.1-0.1,0.2-0.2,0.2h-0.6c-0.1,0-0.2,0-0.3-0.2l-5.4-9h-0.1v9c0,0.1-0.1,0.2-0.2,0.2h-0.6
				c-0.1,0-0.2-0.1-0.2-0.2V239.7z"/>
			<path d="M247.3,239.7c0-0.1,0.1-0.2,0.2-0.2h3.4c1.8,0,3,0.7,3.5,2.2c0.2,0.6,0.3,1.2,0.3,3.2c0,2-0.1,2.6-0.3,3.2
				c-0.5,1.5-1.7,2.2-3.5,2.2h-3.4c-0.1,0-0.2-0.1-0.2-0.2V239.7z M248.4,249.6h2.4c1.4,0,2.3-0.5,2.7-1.6c0.2-0.5,0.3-1.1,0.3-2.9
				c0-1.8-0.1-2.4-0.3-2.9c-0.4-1.2-1.3-1.6-2.7-1.6h-2.4c-0.1,0-0.1,0-0.1,0.1L248.4,249.6C248.3,249.5,248.3,249.6,248.4,249.6z"
				/>
			<path d="M258.5,239.7c0-0.1,0.1-0.2,0.2-0.2h0.6c0.1,0,0.2,0.1,0.2,0.2v10.6c0,0.1-0.1,0.2-0.2,0.2h-0.6c-0.1,0-0.2-0.1-0.2-0.2
				V239.7z"/>
			<path d="M263.7,239.7c0-0.1,0.1-0.2,0.2-0.2h0.6c0.1,0,0.2,0,0.3,0.2l5.4,8.9h0v-8.9c0-0.1,0.1-0.2,0.2-0.2h0.6
				c0.1,0,0.2,0.1,0.2,0.2v10.6c0,0.1-0.1,0.2-0.2,0.2h-0.6c-0.1,0-0.2,0-0.3-0.2l-5.4-9h-0.1v9c0,0.1-0.1,0.2-0.2,0.2h-0.6
				c-0.1,0-0.2-0.1-0.2-0.2V239.7z"/>
			<path d="M275,245c0-1.9,0.1-2.6,0.3-3.2c0.5-1.6,1.8-2.4,3.6-2.4s2.9,0.9,3.4,2c0,0.1,0,0.2-0.1,0.2l-0.5,0.3
				c-0.1,0-0.2,0-0.2-0.1c-0.5-1-1.3-1.6-2.6-1.6c-1.3,0-2.3,0.6-2.7,1.8c-0.1,0.4-0.3,1.1-0.3,2.9c0,1.8,0.1,2.5,0.3,2.9
				c0.4,1.2,1.3,1.8,2.7,1.8c1.3,0,2.3-0.6,2.7-1.8c0.1-0.4,0.3-1,0.3-2.1c0-0.1,0-0.1-0.1-0.1h-2.5c-0.1,0-0.2-0.1-0.2-0.2v-0.5
				c0-0.1,0.1-0.2,0.2-0.2h3.3c0.1,0,0.2,0.1,0.2,0.2v0.7c0,1.1-0.1,1.9-0.3,2.4c-0.5,1.6-1.8,2.5-3.5,2.5c-1.8,0-3-0.8-3.6-2.4
				C275.1,247.6,275,246.9,275,245z"/>
		</g>
	</g>
	<g>
		<circle class="st0" cx="175.5" cy="154.8" r="2.5"/>
		<g>
			<g>
				<circle class="st1" cx="156.5" cy="164.3" r="9.6"/>
			</g>
		</g>
		<g>
			<circle class="st0" cx="169" cy="27.6" r="3.8"/>
		</g>
		<g>
			<circle class="st0" cx="330.7" cy="120.1" r="3.4"/>
		</g>
		<g>
			<path class="st0" d="M339.4,32.1c0,4.8-3.9,8.7-8.7,8.7c-4.8,0-8.7-3.9-8.7-8.7c0-4.8,3.9-8.7,8.7-8.7
				C335.5,23.4,339.4,27.3,339.4,32.1z"/>
		</g>
		<circle class="st2" cx="240.7" cy="96.5" r="31.1"/>
		<circle class="st3" cx="242.3" cy="93.4" r="27.5"/>
		<path class="st4" d="M184.3,96.5c0,0,30.1-37.4,64.5-30.2c34.7,7.3,48.2,30.2,48.2,30.2s-16.3,24.1-45,30.2
			C217.5,134,184.3,96.5,184.3,96.5z"/>
		<path class="st2" d="M220.5,96.5c0,11.2,9,20.2,20.2,20.2c11.2,0,20.2-9,20.2-20.2c0-11.2-9-20.2-20.2-20.2"/>
		<circle class="st5" cx="240.7" cy="96.5" r="16"/>
		<path class="st2" d="M237.5,76.6v16.9h-16.8C220.7,93.4,222.4,79.3,237.5,76.6z"/>
		<g>
			<line class="st4" x1="242.3" y1="16.1" x2="242.3" y2="35.3"/>
			<line class="st4" x1="282.9" y1="28.1" x2="273.1" y2="44.6"/>
			<line class="st4" x1="311.8" y1="59" x2="295" y2="68.3"/>
			<line class="st4" x1="313.9" y1="135.9" x2="296.5" y2="127.6"/>
			<line class="st4" x1="285.6" y1="167.4" x2="274.8" y2="151.4"/>
			<line class="st4" x1="169.5" y1="60.3" x2="186.5" y2="69.2"/>
			<line class="st4" x1="198.9" y1="29.9" x2="209" y2="46.2"/>
			<line class="st4" x1="202" y1="165" x2="211.8" y2="148.5"/>
			<line class="st4" x1="173.1" y1="134.1" x2="189.9" y2="124.8"/>
			<line class="st4" x1="242.3" y1="158.2" x2="242.3" y2="177.4"/>
			<line class="st4" x1="330.7" y1="96.5" x2="311.5" y2="96.5"/>
			<line class="st4" x1="169" y1="96.5" x2="149.8" y2="96.5"/>
		</g>
	</g>
	<g>
		<rect x="536.1" y="71.4" class="st0" width="12.6" height="28.7"/>
		<rect x="528.1" y="74.9" class="st3" width="8" height="20.8"/>
		<line class="st6" x1="630.9" y1="49.6" x2="630.9" y2="118.6"/>
		<rect x="539.3" y="121" class="st5" width="7.8" height="31.2"/>
		<rect x="552.8" y="67.7" class="st3" width="34.4" height="35.3"/>
		<rect x="563.7" y="103" class="st2" width="14" height="54.1"/>
		<path class="st2" d="M571.1,118h16.8c0,0,5.6-0.6,6.4,3.1c0,0,1.1,4.4-4.8,5c0,0,6.5-0.3,6.9,3.1c0.3,3.4-1.8,5-6.7,5.1
			c0,0,6.1-0.2,6.3,3.3c0.2,3.5-4,4.3-6,4.2c0,0,5.1,0.7,5,4.6c-0.1,2.5-1.6,5.4-11.6,4.7l-32.9,0.2v-29.1h6.7c0,0-0.6-8.9,6.6-10.3
			v6.2L571.1,118z"/>
		<rect x="536.1" y="70.6" class="st7" width="16.7" height="29.4"/>
		<rect x="528.1" y="74.9" class="st7" width="8" height="20.8"/>
		<polygon class="st7" points="639.6,45.2 639.6,121.6 587.1,100.3 587.1,69.1 		"/>
		<line class="st4" x1="657.7" y1="55.1" x2="688.9" y2="36.1"/>
		<line class="st4" x1="658.7" y1="80" x2="695.3" y2="80.1"/>
		<line class="st4" x1="660.6" y1="105" x2="691.8" y2="124"/>
		<g>
			<path class="st5" d="M531,81.2V80c0-0.2,0.2-0.4,0.4-0.4h1.2c0.2,0,0.4,0.2,0.4,0.4v1.2c0,0.2-0.2,0.4-0.4,0.4h-1.2
				C531.2,81.6,531,81.4,531,81.2z"/>
			<path class="st5" d="M531,86.2V85c0-0.2,0.2-0.4,0.4-0.4h1.2c0.2,0,0.4,0.2,0.4,0.4v1.2c0,0.2-0.2,0.4-0.4,0.4h-1.2
				C531.2,86.6,531,86.4,531,86.2z"/>
			<path class="st5" d="M531,91.2V90c0-0.2,0.2-0.4,0.4-0.4h1.2c0.2,0,0.4,0.2,0.4,0.4v1.2c0,0.2-0.2,0.4-0.4,0.4h-1.2
				C531.2,91.6,531,91.4,531,91.2z"/>
		</g>
		<rect x="552.8" y="67.7" class="st7" width="34.4" height="35.3"/>
		<g>
			<line class="st7" x1="603.5" y1="151" x2="603.5" y2="157.3"/>
			<line class="st7" x1="609.9" y1="148.6" x2="609.9" y2="157.3"/>
			<line class="st7" x1="616.4" y1="146.1" x2="616.4" y2="157.3"/>
			<line class="st7" x1="622.9" y1="143.3" x2="622.9" y2="157.3"/>
			<line class="st7" x1="629.4" y1="146.1" x2="629.4" y2="157.3"/>
			<line class="st7" x1="635.9" y1="149.2" x2="635.9" y2="157.3"/>
			<line class="st7" x1="642.4" y1="142.5" x2="642.4" y2="157.3"/>
			<line class="st7" x1="648.9" y1="137.2" x2="648.9" y2="157.3"/>
			<line class="st7" x1="655.4" y1="131.8" x2="655.4" y2="157.3"/>
			<line class="st7" x1="661.8" y1="125.4" x2="661.8" y2="157.3"/>
			<line class="st7" x1="668.3" y1="131.8" x2="668.3" y2="157.3"/>
			<line class="st7" x1="674.8" y1="138.9" x2="674.8" y2="157.3"/>
		</g>
	</g>
	<g>
		<path d="M571.8,228.7c-0.1,0-0.2-0.1-0.2-0.2v-9.8c0-0.1,0-0.1-0.1-0.1h-3.1c-0.1,0-0.2-0.1-0.2-0.2V218c0-0.1,0.1-0.2,0.2-0.2
			h7.4c0.1,0,0.2,0.1,0.2,0.2v0.5c0,0.1-0.1,0.2-0.2,0.2h-3.1c-0.1,0-0.1,0-0.1,0.1v9.8c0,0.1-0.1,0.2-0.2,0.2H571.8z"/>
		<path d="M579.4,218c0-0.1,0.1-0.2,0.2-0.2h0.6c0.1,0,0.2,0.1,0.2,0.2v4.7c0,0.1,0,0.1,0.1,0.1h5.4c0.1,0,0.1,0,0.1-0.1V218
			c0-0.1,0.1-0.2,0.2-0.2h0.6c0.1,0,0.2,0.1,0.2,0.2v10.6c0,0.1-0.1,0.2-0.2,0.2H586c-0.1,0-0.2-0.1-0.2-0.2v-4.8
			c0-0.1,0-0.1-0.1-0.1h-5.4c-0.1,0-0.1,0-0.1,0.1v4.8c0,0.1-0.1,0.2-0.2,0.2h-0.6c-0.1,0-0.2-0.1-0.2-0.2V218z"/>
		<path d="M591.4,218c0-0.1,0.1-0.2,0.2-0.2h6.2c0.1,0,0.2,0.1,0.2,0.2v0.5c0,0.1-0.1,0.2-0.2,0.2h-5.4c-0.1,0-0.1,0-0.1,0.1v3.9
			c0,0.1,0,0.1,0.1,0.1h4.6c0.1,0,0.2,0.1,0.2,0.2v0.5c0,0.1-0.1,0.2-0.2,0.2h-4.6c-0.1,0-0.1,0-0.1,0.1v4c0,0.1,0,0.1,0.1,0.1h5.4
			c0.1,0,0.2,0.1,0.2,0.2v0.5c0,0.1-0.1,0.2-0.2,0.2h-6.2c-0.1,0-0.2-0.1-0.2-0.2V218z"/>
		<path d="M601.9,218c0-0.1,0.1-0.2,0.2-0.2h0.6c0.1,0,0.2,0,0.2,0.2l3.5,7.8h0.1l3.5-7.8c0-0.1,0.1-0.2,0.2-0.2h0.6
			c0.1,0,0.2,0.1,0.2,0.2v10.6c0,0.1-0.1,0.2-0.2,0.2h-0.6c-0.1,0-0.2-0.1-0.2-0.2V220h0l-3.1,6.9c-0.1,0.1-0.1,0.2-0.3,0.2h-0.3
			c-0.1,0-0.2,0-0.3-0.2l-3.1-6.9h0v8.5c0,0.1-0.1,0.2-0.2,0.2H602c-0.1,0-0.2-0.1-0.2-0.2V218z"/>
		<path d="M618.3,218c0-0.1,0.1-0.2,0.2-0.2h0.6c0.1,0,0.2,0.1,0.2,0.2l3.8,10.6c0,0.1,0,0.2-0.1,0.2h-0.6c-0.1,0-0.2,0-0.2-0.2
			l-1-2.7h-4.7l-1,2.7c0,0.1-0.1,0.2-0.2,0.2h-0.6c-0.1,0-0.1-0.1-0.1-0.2L618.3,218z M620.9,225l-2-5.7h0l-2,5.7H620.9z"/>
		<path d="M627.9,228.7c-0.1,0-0.2-0.1-0.2-0.2v-9.8c0-0.1,0-0.1-0.1-0.1h-3.1c-0.1,0-0.2-0.1-0.2-0.2V218c0-0.1,0.1-0.2,0.2-0.2
			h7.4c0.1,0,0.2,0.1,0.2,0.2v0.5c0,0.1-0.1,0.2-0.2,0.2h-3.1c-0.1,0-0.1,0-0.1,0.1v9.8c0,0.1-0.1,0.2-0.2,0.2H627.9z"/>
		<path d="M635.5,218c0-0.1,0.1-0.2,0.2-0.2h0.6c0.1,0,0.2,0.1,0.2,0.2v10.6c0,0.1-0.1,0.2-0.2,0.2h-0.6c-0.1,0-0.2-0.1-0.2-0.2V218
			z"/>
		<path d="M640.5,223.2c0-1.9,0.1-2.6,0.3-3.2c0.5-1.6,1.7-2.4,3.4-2.4c1.5,0,2.7,0.7,3.3,2c0,0.1,0,0.2,0,0.2l-0.5,0.3
			c-0.1,0-0.2,0-0.2-0.1c-0.5-0.9-1.3-1.6-2.5-1.6c-1.3,0-2.1,0.6-2.6,1.8c-0.1,0.4-0.2,1.1-0.2,2.9c0,1.8,0.1,2.5,0.2,2.9
			c0.4,1.2,1.2,1.8,2.6,1.8c1.2,0,2-0.6,2.5-1.6c0-0.1,0.1-0.1,0.2-0.1l0.5,0.3c0.1,0,0.1,0.1,0,0.2c-0.6,1.3-1.8,2-3.3,2
			c-1.7,0-2.9-0.8-3.4-2.4C640.7,225.9,640.5,225.1,640.5,223.2z"/>
		<path d="M536.3,245c0-1.9,0.1-2.6,0.3-3.2c0.5-1.6,1.7-2.4,3.4-2.4c1.5,0,2.7,0.7,3.3,2c0,0.1,0,0.2,0,0.2l-0.5,0.3
			c-0.1,0-0.2,0-0.2-0.1c-0.5-0.9-1.3-1.6-2.5-1.6c-1.3,0-2.1,0.6-2.6,1.8c-0.1,0.4-0.2,1.1-0.2,2.9c0,1.8,0.1,2.5,0.2,2.9
			c0.4,1.2,1.2,1.8,2.6,1.8c1.2,0,2-0.6,2.5-1.6c0-0.1,0.1-0.1,0.2-0.1l0.5,0.3c0.1,0,0.1,0.1,0,0.2c-0.6,1.3-1.8,2-3.3,2
			c-1.7,0-2.9-0.8-3.4-2.4C536.4,247.6,536.3,246.9,536.3,245z"/>
		<path d="M550.1,239.7c0-0.1,0.1-0.2,0.2-0.2h0.6c0.1,0,0.2,0.1,0.2,0.2l3.8,10.6c0,0.1,0,0.2-0.1,0.2h-0.6c-0.1,0-0.2,0-0.2-0.2
			l-1-2.7h-4.7l-1,2.7c0,0.1-0.1,0.2-0.2,0.2h-0.6c-0.1,0-0.1-0.1-0.1-0.2L550.1,239.7z M552.6,246.7l-2-5.7h0l-2,5.7H552.6z"/>
		<path d="M558.4,239.7c0-0.1,0.1-0.2,0.2-0.2h0.6c0.1,0,0.2,0,0.2,0.2l3.5,7.8h0.1l3.5-7.8c0-0.1,0.1-0.2,0.2-0.2h0.6
			c0.1,0,0.2,0.1,0.2,0.2v10.6c0,0.1-0.1,0.2-0.2,0.2h-0.6c-0.1,0-0.2-0.1-0.2-0.2v-8.5h0l-3.1,6.9c-0.1,0.1-0.1,0.2-0.3,0.2h-0.3
			c-0.1,0-0.2,0-0.3-0.2l-3.1-6.9h0v8.5c0,0.1-0.1,0.2-0.2,0.2h-0.6c-0.1,0-0.2-0.1-0.2-0.2V239.7z"/>
		<path d="M572.3,250.4c-0.1,0-0.2-0.1-0.2-0.2v-10.6c0-0.1,0.1-0.2,0.2-0.2h3.6c2.1,0,3.3,1.2,3.3,3.1c0,1.9-1.3,3.1-3.3,3.1h-2.8
			c-0.1,0-0.1,0-0.1,0.1v4.5c0,0.1-0.1,0.2-0.2,0.2H572.3z M578.3,242.6c0-1.4-0.9-2.2-2.5-2.2h-2.8c-0.1,0-0.1,0-0.1,0.1v4.2
			c0,0.1,0,0.1,0.1,0.1h2.8C577.5,244.8,578.3,244,578.3,242.6z"/>
		<path d="M584.8,239.7c0-0.1,0.1-0.2,0.2-0.2h0.6c0.1,0,0.2,0.1,0.2,0.2l3.8,10.6c0,0.1,0,0.2-0.1,0.2h-0.6c-0.1,0-0.2,0-0.2-0.2
			l-1-2.7h-4.7l-1,2.7c0,0.1-0.1,0.2-0.2,0.2h-0.6c-0.1,0-0.1-0.1-0.1-0.2L584.8,239.7z M587.4,246.7l-2-5.7h0l-2,5.7H587.4z"/>
		<path d="M593.2,239.7c0-0.1,0.1-0.2,0.2-0.2h0.6c0.1,0,0.2,0.1,0.2,0.2v10.6c0,0.1-0.1,0.2-0.2,0.2h-0.6c-0.1,0-0.2-0.1-0.2-0.2
			V239.7z"/>
		<path d="M598.2,245c0-1.9,0.1-2.6,0.3-3.2c0.5-1.6,1.8-2.4,3.6-2.4c1.8,0,2.9,0.9,3.4,2c0,0.1,0,0.2-0.1,0.2l-0.5,0.3
			c-0.1,0-0.2,0-0.2-0.1c-0.5-1-1.3-1.6-2.6-1.6c-1.3,0-2.3,0.6-2.7,1.8c-0.1,0.4-0.3,1.1-0.3,2.9s0.1,2.5,0.3,2.9
			c0.4,1.2,1.3,1.8,2.7,1.8c1.3,0,2.3-0.6,2.7-1.8c0.1-0.4,0.3-1,0.3-2.1c0-0.1,0-0.1-0.1-0.1h-2.5c-0.1,0-0.2-0.1-0.2-0.2v-0.5
			c0-0.1,0.1-0.2,0.2-0.2h3.3c0.1,0,0.2,0.1,0.2,0.2v0.7c0,1.1-0.1,1.9-0.3,2.4c-0.5,1.6-1.8,2.5-3.5,2.5c-1.8,0-3-0.8-3.6-2.4
			C598.3,247.6,598.2,246.9,598.2,245z"/>
		<path d="M610,239.7c0-0.1,0.1-0.2,0.2-0.2h0.6c0.1,0,0.2,0,0.3,0.2l5.4,8.9h0v-8.9c0-0.1,0.1-0.2,0.2-0.2h0.6
			c0.1,0,0.2,0.1,0.2,0.2v10.6c0,0.1-0.1,0.2-0.2,0.2h-0.6c-0.1,0-0.2,0-0.3-0.2l-5.4-9h-0.1v9c0,0.1-0.1,0.2-0.2,0.2h-0.6
			c-0.1,0-0.2-0.1-0.2-0.2V239.7z"/>
		<path d="M627.6,239.7c0-0.1,0.1-0.2,0.2-0.2h3.4c1.8,0,3,0.7,3.5,2.2c0.2,0.6,0.3,1.2,0.3,3.2c0,2-0.1,2.6-0.3,3.2
			c-0.5,1.5-1.7,2.2-3.5,2.2h-3.4c-0.1,0-0.2-0.1-0.2-0.2V239.7z M628.6,249.6h2.4c1.4,0,2.3-0.5,2.7-1.6c0.2-0.5,0.3-1.1,0.3-2.9
			s-0.1-2.4-0.3-2.9c-0.4-1.2-1.3-1.6-2.7-1.6h-2.4c-0.1,0-0.1,0-0.1,0.1L628.6,249.6C628.5,249.5,628.5,249.6,628.6,249.6z"/>
		<path d="M639.1,239.7c0-0.1,0.1-0.2,0.2-0.2h6.2c0.1,0,0.2,0.1,0.2,0.2v0.5c0,0.1-0.1,0.2-0.2,0.2h-5.4c-0.1,0-0.1,0-0.1,0.1v3.9
			c0,0.1,0,0.1,0.1,0.1h4.6c0.1,0,0.2,0.1,0.2,0.2v0.5c0,0.1-0.1,0.2-0.2,0.2h-4.6c-0.1,0-0.1,0-0.1,0.1v4c0,0.1,0,0.1,0.1,0.1h5.4
			c0.1,0,0.2,0.1,0.2,0.2v0.5c0,0.1-0.1,0.2-0.2,0.2h-6.2c-0.1,0-0.2-0.1-0.2-0.2V239.7z"/>
		<path d="M649.1,249.3c-0.1-0.1-0.1-0.2,0-0.2l0.4-0.5c0.1-0.1,0.2-0.1,0.2,0c0.7,0.6,1.9,1.1,3.1,1.1c1.7,0,2.8-0.9,2.8-2.2
			c0-1.1-0.6-1.9-2.6-2.1l-0.5-0.1c-2.1-0.3-3.1-1.3-3.1-2.9c0-1.9,1.3-3.1,3.4-3.1c1.2,0,2.4,0.4,3.1,0.9c0.1,0,0.1,0.1,0,0.2
			l-0.3,0.5c-0.1,0.1-0.1,0.1-0.2,0c-0.9-0.5-1.7-0.8-2.6-0.8c-1.6,0-2.5,0.9-2.5,2.1c0,1.1,0.7,1.8,2.6,2.1l0.5,0.1
			c2.2,0.3,3.2,1.3,3.2,2.9c0,1.8-1.3,3.2-3.8,3.2C651.3,250.6,649.9,250,649.1,249.3z"/>
		<path d="M660.7,239.7c0-0.1,0.1-0.2,0.2-0.2h0.6c0.1,0,0.2,0.1,0.2,0.2v10.6c0,0.1-0.1,0.2-0.2,0.2h-0.6c-0.1,0-0.2-0.1-0.2-0.2
			V239.7z"/>
		<path d="M665.8,245c0-1.9,0.1-2.6,0.3-3.2c0.5-1.6,1.8-2.4,3.6-2.4c1.8,0,2.9,0.9,3.4,2c0,0.1,0,0.2-0.1,0.2l-0.5,0.3
			c-0.1,0-0.2,0-0.2-0.1c-0.5-1-1.3-1.6-2.6-1.6c-1.3,0-2.3,0.6-2.7,1.8c-0.1,0.4-0.3,1.1-0.3,2.9s0.1,2.5,0.3,2.9
			c0.4,1.2,1.3,1.8,2.7,1.8c1.3,0,2.3-0.6,2.7-1.8c0.1-0.4,0.3-1,0.3-2.1c0-0.1,0-0.1-0.1-0.1H670c-0.1,0-0.2-0.1-0.2-0.2v-0.5
			c0-0.1,0.1-0.2,0.2-0.2h3.3c0.1,0,0.2,0.1,0.2,0.2v0.7c0,1.1-0.1,1.9-0.3,2.4c-0.5,1.6-1.8,2.5-3.5,2.5c-1.8,0-3-0.8-3.6-2.4
			C665.9,247.6,665.8,246.9,665.8,245z"/>
		<path d="M677.6,239.7c0-0.1,0.1-0.2,0.2-0.2h0.6c0.1,0,0.2,0,0.3,0.2l5.4,8.9h0v-8.9c0-0.1,0.1-0.2,0.2-0.2h0.6
			c0.1,0,0.2,0.1,0.2,0.2v10.6c0,0.1-0.1,0.2-0.2,0.2h-0.6c-0.1,0-0.2,0-0.3-0.2l-5.4-9h-0.1v9c0,0.1-0.1,0.2-0.2,0.2h-0.6
			c-0.1,0-0.2-0.1-0.2-0.2V239.7z"/>
	</g>
	<g>
		<polygon class="st8" points="279.1,435.4 158.5,520 279.1,520 		"/>
		<rect x="162.4" y="420" class="st5" width="113" height="12.2"/>
		<line class="st9" x1="147.7" y1="520" x2="290.2" y2="520"/>
		<polyline class="st9" points="279.1,520 279.1,416.9 158.5,416.9 158.5,435.4 158.5,520 		"/>
		<line class="st10" x1="158.5" y1="435.4" x2="279.1" y2="435.4"/>
		<line class="st10" x1="194.1" y1="416.9" x2="194.1" y2="435.4"/>
		<line class="st9" x1="201.3" y1="425.6" x2="272.2" y2="425.6"/>
		<line class="st9" x1="169.7" y1="479.3" x2="236.7" y2="479.3"/>
		<line class="st9" x1="169.7" y1="488.5" x2="236.7" y2="488.5"/>
		<line class="st9" x1="169.7" y1="497.5" x2="236.7" y2="497.5"/>
		<line class="st9" x1="169.7" y1="506.3" x2="236.7" y2="506.3"/>
		<rect x="201.3" y="445.7" class="st3" width="66.8" height="26.3"/>
		<rect x="171.7" y="448.3" class="st5" width="22.9" height="22.4"/>
		<rect x="241.1" y="477.1" class="st5" width="27" height="31.5"/>
		<line class="st9" x1="164.8" y1="425.6" x2="169.7" y2="425.6"/>
		<line class="st9" x1="173.9" y1="425.6" x2="178.9" y2="425.6"/>
		<line class="st9" x1="182.6" y1="425.6" x2="187.5" y2="425.6"/>
		<line class="st9" x1="224.4" y1="459.5" x2="229.3" y2="459.5"/>
		<line class="st9" x1="233.6" y1="459.5" x2="238.5" y2="459.5"/>
		<line class="st9" x1="242.2" y1="459.5" x2="247.1" y2="459.5"/>
		<g>
			<g>
				<path class="st11" d="M335.8,538.4h-57.1c-1.6,0-2.8-1.3-2.8-2.8v-83.9c0-1.6,1.3-2.8,2.8-2.8h57.1c1.6,0,2.8,1.3,2.8,2.8v83.9
					C338.6,537.1,337.3,538.4,335.8,538.4z"/>
				<line class="st12" x1="302.1" y1="454" x2="312.3" y2="454"/>
				<circle class="st12" cx="307.2" cy="532" r="3.5"/>
				<polyline class="st8" points="334,526.1 334,460.8 280.5,526.1 				"/>
				<rect x="280.5" y="457.4" class="st12" width="53.5" height="68.7"/>
				<line class="st8" x1="280.5" y1="526.1" x2="334" y2="526.1"/>
				<rect x="284.6" y="460.8" class="st5" width="45.3" height="62.1"/>
			</g>
			<rect id="XMLID_10_" x="293.6" y="477.1" class="st13" width="27.2" height="3.9"/>
			<rect id="XMLID_9_" x="299.8" y="495.6" class="st3" width="14.9" height="3.9"/>
			<line class="st9" x1="296.4" y1="485.5" x2="318" y2="485.5"/>
			<line class="st9" x1="296.4" y1="490.6" x2="318" y2="490.6"/>
		</g>
		<g>
			<g>
				<path class="st11" d="M285,543.5h-27.6c-1.6,0-2.8-1.3-2.8-2.8v-54.1c0-1.6,1.3-2.8,2.8-2.8H285c1.6,0,2.8,1.3,2.8,2.8v54.1
					C287.9,542.3,286.6,543.5,285,543.5z"/>
				<line class="st12" x1="267.5" y1="489.3" x2="275" y2="489.3"/>
				<line class="st12" x1="269.3" y1="487.4" x2="273.1" y2="487.4"/>
				<circle class="st12" cx="271.2" cy="538.6" r="2.2"/>
				<polyline class="st8" points="285.4,535.3 285.4,491.7 257,535.3 				"/>
				<rect x="257.8" y="492.9" class="st12" width="26.9" height="41.3"/>
				<line class="st8" x1="257" y1="535.3" x2="285.4" y2="535.3"/>
				<rect x="260.2" y="495.6" class="st3" width="22" height="36"/>
			</g>
			<rect id="XMLID_8_" x="264.1" y="506.7" class="st13" width="14.7" height="2.1"/>
			<rect id="XMLID_5_" x="267.4" y="516.7" class="st5" width="8.1" height="2.1"/>
			<line class="st12" x1="265.6" y1="511.3" x2="277.3" y2="511.3"/>
			<line class="st12" x1="265.6" y1="514" x2="277.3" y2="514"/>
		</g>
	</g>
	<g>
		<g>
			<path d="M178.7,605.3c-0.2-0.6-0.3-1.3-0.3-3.2s0.1-2.6,0.3-3.2c0.5-1.6,1.7-2.4,3.5-2.4c1.8,0,3,0.8,3.5,2.4
				c0.2,0.6,0.3,1.3,0.3,3.2s-0.1,2.6-0.3,3.2c-0.5,1.6-1.7,2.4-3.5,2.4C180.4,607.8,179.2,606.9,178.7,605.3z M184.8,599.3
				c-0.4-1.2-1.3-1.8-2.6-1.8c-1.4,0-2.2,0.6-2.6,1.8c-0.1,0.4-0.3,1.1-0.3,2.9s0.1,2.5,0.3,2.9c0.4,1.2,1.3,1.8,2.6,1.8
				c1.3,0,2.2-0.6,2.6-1.8c0.1-0.4,0.3-1.1,0.3-2.9S184.9,599.7,184.8,599.3z"/>
			<path d="M189.8,596.9c0-0.1,0.1-0.2,0.2-0.2h0.6c0.1,0,0.2,0,0.3,0.2l5.4,8.9h0v-8.9c0-0.1,0.1-0.2,0.2-0.2h0.6
				c0.1,0,0.2,0.1,0.2,0.2v10.6c0,0.1-0.1,0.2-0.2,0.2h-0.6c-0.1,0-0.2,0-0.3-0.2l-5.4-9h-0.1v9c0,0.1-0.1,0.2-0.2,0.2H190
				c-0.1,0-0.2-0.1-0.2-0.2V596.9z"/>
			<path d="M201.5,596.9c0-0.1,0.1-0.2,0.2-0.2h0.6c0.1,0,0.2,0.1,0.2,0.2v9.8c0,0.1,0,0.1,0.1,0.1h5.4c0.1,0,0.2,0.1,0.2,0.2v0.5
				c0,0.1-0.1,0.2-0.2,0.2h-6.2c-0.1,0-0.2-0.1-0.2-0.2V596.9z"/>
			<path d="M211.3,596.9c0-0.1,0.1-0.2,0.2-0.2h0.6c0.1,0,0.2,0.1,0.2,0.2v10.6c0,0.1-0.1,0.2-0.2,0.2h-0.6c-0.1,0-0.2-0.1-0.2-0.2
				V596.9z"/>
			<path d="M216.5,596.9c0-0.1,0.1-0.2,0.2-0.2h0.6c0.1,0,0.2,0,0.3,0.2l5.4,8.9h0v-8.9c0-0.1,0.1-0.2,0.2-0.2h0.6
				c0.1,0,0.2,0.1,0.2,0.2v10.6c0,0.1-0.1,0.2-0.2,0.2h-0.6c-0.1,0-0.2,0-0.3-0.2l-5.4-9h-0.1v9c0,0.1-0.1,0.2-0.2,0.2h-0.6
				c-0.1,0-0.2-0.1-0.2-0.2V596.9z"/>
			<path d="M228.2,596.9c0-0.1,0.1-0.2,0.2-0.2h6.2c0.1,0,0.2,0.1,0.2,0.2v0.5c0,0.1-0.1,0.2-0.2,0.2h-5.4c-0.1,0-0.1,0-0.1,0.1v3.9
				c0,0.1,0,0.1,0.1,0.1h4.6c0.1,0,0.2,0.1,0.2,0.2v0.5c0,0.1-0.1,0.2-0.2,0.2h-4.6c-0.1,0-0.1,0-0.1,0.1v4c0,0.1,0,0.1,0.1,0.1h5.4
				c0.1,0,0.2,0.1,0.2,0.2v0.5c0,0.1-0.1,0.2-0.2,0.2h-6.2c-0.1,0-0.2-0.1-0.2-0.2V596.9z"/>
			<path d="M243.6,596.9c0-0.1,0.1-0.2,0.2-0.2h3.4c1.8,0,3,0.7,3.5,2.2c0.2,0.6,0.3,1.2,0.3,3.2c0,2-0.1,2.6-0.3,3.2
				c-0.5,1.5-1.7,2.2-3.5,2.2h-3.4c-0.1,0-0.2-0.1-0.2-0.2V596.9z M244.6,606.7h2.4c1.4,0,2.3-0.5,2.7-1.6c0.2-0.5,0.3-1.1,0.3-2.9
				s-0.1-2.4-0.3-2.9c-0.4-1.2-1.3-1.6-2.7-1.6h-2.4c-0.1,0-0.1,0-0.1,0.1L244.6,606.7C244.5,606.7,244.5,606.7,244.6,606.7z"/>
			<path d="M254.8,596.9c0-0.1,0.1-0.2,0.2-0.2h0.6c0.1,0,0.2,0.1,0.2,0.2v10.6c0,0.1-0.1,0.2-0.2,0.2h-0.6c-0.1,0-0.2-0.1-0.2-0.2
				V596.9z"/>
			<path d="M259.5,602.2c0-1.9,0.1-2.6,0.3-3.2c0.5-1.6,1.8-2.4,3.6-2.4s2.9,0.9,3.4,2c0,0.1,0,0.2-0.1,0.2l-0.5,0.3
				c-0.1,0-0.2,0-0.2-0.1c-0.5-1-1.3-1.6-2.6-1.6c-1.3,0-2.3,0.6-2.7,1.8c-0.1,0.4-0.3,1.1-0.3,2.9s0.1,2.5,0.3,2.9
				c0.4,1.2,1.3,1.8,2.7,1.8c1.3,0,2.3-0.6,2.7-1.8c0.1-0.4,0.3-1,0.3-2.1c0-0.1,0-0.1-0.1-0.1h-2.5c-0.1,0-0.2-0.1-0.2-0.2v-0.5
				c0-0.1,0.1-0.2,0.2-0.2h3.3c0.1,0,0.2,0.1,0.2,0.2v0.7c0,1.1-0.1,1.9-0.3,2.4c-0.5,1.6-1.8,2.5-3.5,2.5c-1.8,0-3-0.8-3.6-2.4
				C259.6,604.8,259.5,604.1,259.5,602.2z"/>
			<path d="M271,596.9c0-0.1,0.1-0.2,0.2-0.2h0.6c0.1,0,0.2,0.1,0.2,0.2v10.6c0,0.1-0.1,0.2-0.2,0.2h-0.6c-0.1,0-0.2-0.1-0.2-0.2
				V596.9z"/>
			<path d="M278.6,607.6c-0.1,0-0.2-0.1-0.2-0.2v-9.8c0-0.1,0-0.1-0.1-0.1h-3.1c-0.1,0-0.2-0.1-0.2-0.2v-0.5c0-0.1,0.1-0.2,0.2-0.2
				h7.4c0.1,0,0.2,0.1,0.2,0.2v0.5c0,0.1-0.1,0.2-0.2,0.2h-3.1c-0.1,0-0.1,0-0.1,0.1v9.8c0,0.1-0.1,0.2-0.2,0.2H278.6z"/>
			<path d="M287.5,596.9c0-0.1,0.1-0.2,0.2-0.2h0.6c0.1,0,0.2,0.1,0.2,0.2l3.8,10.6c0,0.1,0,0.2-0.1,0.2h-0.6c-0.1,0-0.2,0-0.2-0.2
				l-1-2.7h-4.7l-1,2.7c0,0.1-0.1,0.2-0.2,0.2h-0.6c-0.1,0-0.1-0.1-0.1-0.2L287.5,596.9z M290,603.9l-2-5.7h0l-2,5.7H290z"/>
			<path d="M295.5,596.9c0-0.1,0.1-0.2,0.2-0.2h0.6c0.1,0,0.2,0.1,0.2,0.2v9.8c0,0.1,0,0.1,0.1,0.1h5.4c0.1,0,0.2,0.1,0.2,0.2v0.5
				c0,0.1-0.1,0.2-0.2,0.2h-6.2c-0.1,0-0.2-0.1-0.2-0.2V596.9z"/>
			<path d="M202.1,629.4c-0.1,0-0.2-0.1-0.2-0.2v-10.6c0-0.1,0.1-0.2,0.2-0.2h3.6c2.1,0,3.3,1.2,3.3,3.1c0,1.9-1.3,3.1-3.3,3.1H203
				c-0.1,0-0.1,0-0.1,0.1v4.5c0,0.1-0.1,0.2-0.2,0.2H202.1z M208.2,621.6c0-1.4-0.9-2.2-2.5-2.2H203c-0.1,0-0.1,0-0.1,0.1v4.2
				c0,0.1,0,0.1,0.1,0.1h2.8C207.3,623.8,208.2,623,208.2,621.6z"/>
			<path d="M212.6,618.6c0-0.1,0.1-0.2,0.2-0.2h0.6c0.1,0,0.2,0.1,0.2,0.2v9.8c0,0.1,0,0.1,0.1,0.1h5.4c0.1,0,0.2,0.1,0.2,0.2v0.5
				c0,0.1-0.1,0.2-0.2,0.2h-6.2c-0.1,0-0.2-0.1-0.2-0.2V618.6z"/>
			<path d="M225.2,618.6c0-0.1,0.1-0.2,0.2-0.2h0.6c0.1,0,0.2,0.1,0.2,0.2l3.8,10.6c0,0.1,0,0.2-0.1,0.2h-0.6c-0.1,0-0.2,0-0.2-0.2
				l-1-2.7h-4.7l-1,2.7c0,0.1-0.1,0.2-0.2,0.2h-0.6c-0.1,0-0.1-0.1-0.1-0.2L225.2,618.6z M227.7,625.6l-2-5.7h0l-2,5.7H227.7z"/>
			<path d="M234.4,629.4c-0.1,0-0.2-0.1-0.2-0.2v-9.8c0-0.1,0-0.1-0.1-0.1H231c-0.1,0-0.2-0.1-0.2-0.2v-0.5c0-0.1,0.1-0.2,0.2-0.2
				h7.4c0.1,0,0.2,0.1,0.2,0.2v0.5c0,0.1-0.1,0.2-0.2,0.2h-3.1c-0.1,0-0.1,0-0.1,0.1v9.8c0,0.1-0.1,0.2-0.2,0.2H234.4z"/>
			<path d="M241.7,618.6c0-0.1,0.1-0.2,0.2-0.2h6.2c0.1,0,0.2,0.1,0.2,0.2v0.5c0,0.1-0.1,0.2-0.2,0.2h-5.4c-0.1,0-0.1,0-0.1,0.1v4
				c0,0.1,0,0.1,0.1,0.1h4.6c0.1,0,0.2,0.1,0.2,0.2v0.5c0,0.1-0.1,0.2-0.2,0.2h-4.6c-0.1,0-0.1,0-0.1,0.1v4.7c0,0.1-0.1,0.2-0.2,0.2
				h-0.6c-0.1,0-0.2-0.1-0.2-0.2V618.6z"/>
			<path d="M251.6,627.1c-0.2-0.6-0.3-1.3-0.3-3.2s0.1-2.6,0.3-3.2c0.5-1.6,1.7-2.4,3.5-2.4c1.8,0,3,0.8,3.5,2.4
				c0.2,0.6,0.3,1.3,0.3,3.2s-0.1,2.6-0.3,3.2c-0.5,1.6-1.7,2.4-3.5,2.4C253.4,629.5,252.2,628.7,251.6,627.1z M257.8,621
				c-0.4-1.2-1.3-1.8-2.6-1.8c-1.4,0-2.2,0.6-2.6,1.8c-0.1,0.4-0.3,1.1-0.3,2.9s0.1,2.5,0.3,2.9c0.4,1.2,1.3,1.8,2.6,1.8
				c1.3,0,2.2-0.6,2.6-1.8c0.1-0.4,0.3-1.1,0.3-2.9S257.9,621.4,257.8,621z"/>
			<path d="M269.3,629.4c-0.1,0-0.1,0-0.2-0.1l-2.3-4.7h-0.2h-2.8c-0.1,0-0.1,0-0.1,0.1v4.6c0,0.1-0.1,0.2-0.2,0.2H263
				c-0.1,0-0.2-0.1-0.2-0.2v-10.6c0-0.1,0.1-0.2,0.2-0.2h3.6c2,0,3.3,1.2,3.3,3c0,1.5-0.8,2.5-2.2,2.9l2.4,4.8
				c0.1,0.1,0,0.2-0.1,0.2H269.3z M269,621.5c0-1.4-0.9-2.1-2.4-2.1h-2.8c-0.1,0-0.1,0-0.1,0.1v4.1c0,0.1,0,0.1,0.1,0.1h2.8
				C268.2,623.6,269,622.9,269,621.5z"/>
			<path d="M273.9,618.6c0-0.1,0.1-0.2,0.2-0.2h0.6c0.1,0,0.2,0,0.2,0.2l3.5,7.8h0.1l3.5-7.8c0-0.1,0.1-0.2,0.2-0.2h0.6
				c0.1,0,0.2,0.1,0.2,0.2v10.6c0,0.1-0.1,0.2-0.2,0.2h-0.6c-0.1,0-0.2-0.1-0.2-0.2v-8.5h0l-3.1,6.9c-0.1,0.1-0.1,0.2-0.3,0.2h-0.3
				c-0.1,0-0.2,0-0.3-0.2l-3.1-6.9h0v8.5c0,0.1-0.1,0.2-0.2,0.2h-0.6c-0.1,0-0.2-0.1-0.2-0.2V618.6z"/>
		</g>
	</g>
	<g>
		<g>
			<g>
				<g>
					<path class="st5" d="M593.8,438.9c0-11.2,0-33.5,0-33.5H538v33.5c0,0,0,11.2,11.2,11.2c17,0,55.9,0,55.9,0
						S593.8,450,593.8,438.9z"/>
				</g>
			</g>
			<g>
				<path d="M610.6,450.7H605c-0.1,0-11.9-0.1-11.9-11.9v-34.2h7v34.2c0,10.3,10,10.5,10.5,10.5V450.7z M594.5,406v32.8
					c0,9.9,9.1,10.4,10.4,10.5c-3-1.5-6.2-4.4-6.2-10.5V406H594.5z"/>
			</g>
			<g>
				<path class="st3" d="M616.2,438.9c0-11.2,11.2-11.2,11.2-11.2h-55.9c0,0-11.2,0-11.2,11.2c0,11.2-11.2,11.2-11.2,11.2l56,0.1
					C606.5,450,616.2,449.2,616.2,438.9z"/>
			</g>
			<g>
				<g>
					<path class="st5" d="M627.3,427.7c-8.9,0-42.4,0-55.9,0c0,0,11.2,0,11.2,11.2c0,11.2,0,55.9,0,55.9l55.9,0v-55.9
						C638.5,438.9,638.5,427.7,627.3,427.7z"/>
				</g>
			</g>
			<g>
				<rect x="538" y="409.9" class="st13" width="55.2" height="1.4"/>
			</g>
			<g>
				<rect x="582.5" y="443.7" class="st13" width="56.2" height="1.4"/>
			</g>
			<g>
				<rect x="582.5" y="466" class="st13" width="56.2" height="1.4"/>
			</g>
			<g>
				<rect x="582.5" y="488.4" class="st13" width="56.2" height="1.4"/>
			</g>
			<g>
				<rect x="538" y="432.6" class="st13" width="18" height="1.4"/>
			</g>
			<g>
				<path d="M549.1,450.7h-5.6c-11.7,0-11.9-11.8-11.9-11.9v-34.2h7v34.2c0,0.4,0.1,10.5,10.5,10.5V450.7z M533.1,406v32.8
					c0,0.4,0.1,10.1,10,10.5c-5.7-3.1-5.8-10.4-5.8-10.5V406H533.1z"/>
			</g>
			<g>
				<rect x="568.7" y="427" width="58.7" height="1.4"/>
			</g>
			<g>
				<path d="M583.3,495.4h-7v-56.6c0-10.4-10-10.5-10.5-10.5V427h5.6c0.1,0,11.9,0.1,11.9,11.9V495.4z M577.8,494h4.2v-55.2
					c0-9.9-9.1-10.4-10.4-10.5c3,1.5,6.2,4.4,6.2,10.5V494z"/>
			</g>
			<g>
				<path d="M644.8,495.4h-7l0-56.6c0-0.4-0.1-10.5-10.5-10.5V427h5.6c11.7,0,11.9,11.8,11.9,11.9V495.4z M639.2,494h4.2v-55.2
					c0-0.4-0.1-10.1-10-10.5c5.7,3.1,5.8,10.4,5.8,10.5V494z"/>
			</g>
			<g>
				<path d="M549.1,450.7v-1.3c-2.8,1.3-5.5,1.3-5.6,1.3v-1.4c0.4,0,10.5-0.1,10.5-10.5c0-11.7,11.8-11.9,11.9-11.9h5.6v1.4
					c-0.4,0-10.5,0.1-10.5,10.5C561,450.6,549.2,450.7,549.1,450.7z M565.8,428.4c-1.2,0-10.4,0.6-10.4,10.5c0,6-3.1,9-6.2,10.5
					c1.2,0,10.4-0.6,10.4-10.5C559.6,432.8,562.7,429.8,565.8,428.4z"/>
			</g>
		</g>
		<g>
			<g>
				<rect x="611.3" y="494.3" class="st14" width="80.1" height="52.1"/>
			</g>
			<path class="st3" d="M615.4,499v42.7h72.5V499H615.4z"/>
			<polygon class="st13" points="647.3,525.3 647.3,515.4 656,520.3 			"/>
			<g>
				<g>
					<rect x="611.3" y="485.9" class="st3" width="80.1" height="8"/>
				</g>
				<g>
					<g>
						<polygon class="st13" points="619.6,494.3 618.9,493.6 626.9,485.6 627.6,486.4 						"/>
					</g>
					<g>
						<polygon class="st13" points="627.6,494.3 626.9,493.6 634.9,485.6 635.6,486.4 						"/>
					</g>
					<g>
						
							<rect x="633.7" y="489.5" transform="matrix(0.7072 -0.7071 0.7071 0.7072 -159.2188 595.5315)" class="st13" width="11.2" height="1"/>
					</g>
					<g>
						<polygon class="st13" points="643.7,494.3 643,493.6 650.9,485.6 651.6,486.4 						"/>
					</g>
					<g>
						<polygon class="st13" points="651.7,494.3 651,493.6 659,485.6 659.7,486.4 						"/>
					</g>
					<g>
						
							<rect x="657.7" y="489.5" transform="matrix(0.7071 -0.7071 0.7071 0.7071 -152.1814 612.5597)" class="st13" width="11.2" height="1"/>
					</g>
					<g>
						
							<rect x="665.8" y="489.5" transform="matrix(0.707 -0.7072 0.7072 0.707 -149.808 618.3618)" class="st13" width="11.2" height="1"/>
					</g>
					<g>
						
							<rect x="673.7" y="489.5" transform="matrix(0.7053 -0.7089 0.7089 0.7053 -147.147 625.9838)" class="st13" width="11.2" height="1"/>
					</g>
					<g>
						<polygon class="st13" points="683.8,494.3 683.1,493.6 691,485.6 691.7,486.4 						"/>
					</g>
					<g>
						
							<rect x="609.7" y="489.5" transform="matrix(0.7071 -0.7072 0.7072 0.7071 -166.2613 578.6324)" class="st13" width="11.1" height="1"/>
					</g>
				</g>
			</g>
			<g>
				<g>
					
						<rect x="610.2" y="472" transform="matrix(0.9887 -0.1502 0.1502 0.9887 -64.1131 103.0707)" class="st3" width="80.1" height="8"/>
				</g>
				<g>
					<g>
						
							<rect x="616.9" y="479.7" transform="matrix(0.5929 -0.8053 0.8053 0.5929 -133.2739 696.8165)" class="st13" width="11.2" height="1"/>
					</g>
					<g>
						
							<rect x="624.8" y="478.5" transform="matrix(0.5933 -0.805 0.805 0.5933 -129.215 702.2847)" class="st13" width="11.2" height="1"/>
					</g>
					<g>
						
							<rect x="632.8" y="477.3" transform="matrix(0.5925 -0.8056 0.8056 0.5925 -124.7429 709.0243)" class="st13" width="11.2" height="1"/>
					</g>
					<g>
						
							<rect x="640.7" y="476.1" transform="matrix(0.5907 -0.8069 0.8069 0.5907 -120.0355 716.5789)" class="st13" width="11.2" height="1"/>
					</g>
					<g>
						
							<rect x="648.6" y="474.9" transform="matrix(0.5934 -0.8049 0.8049 0.5934 -116.6233 719.9365)" class="st13" width="11.2" height="1"/>
					</g>
					<g>
						<polygon class="st13" points="659.2,479 658.4,478.4 665.1,469.4 665.9,470 						"/>
					</g>
					<g>
						
							<rect x="664.5" y="472.5" transform="matrix(0.5933 -0.805 0.805 0.5933 -108.2088 731.8177)" class="st13" width="11.2" height="1"/>
					</g>
					<g>
						
							<rect x="672.4" y="471.3" transform="matrix(0.5928 -0.8054 0.8054 0.5928 -103.8691 738.1684)" class="st13" width="11.2" height="1"/>
					</g>
					<g>
						
							<rect x="680.3" y="470.1" transform="matrix(0.5936 -0.8047 0.8047 0.5936 -99.9528 743.2294)" class="st13" width="11.2" height="1"/>
					</g>
					<g>
						
							<rect x="609.1" y="480.9" transform="matrix(0.5904 -0.8071 0.8071 0.5904 -136.8135 693.2879)" class="st13" width="11.1" height="1"/>
					</g>
				</g>
			</g>
			<polygon class="st15" points="610.1,478 610.9,485.6 690.5,473.9 688.9,465.8 			"/>
			<path class="st16" d="M610.9,485.6"/>
			<polygon class="st15" points="610.9,485.6 611.3,494.3 691.4,494.3 691.4,485.9 			"/>
		</g>
	</g>
	<g>
		<g>
			<path d="M539.5,596.9c0-0.1,0.1-0.2,0.2-0.2h6.2c0.1,0,0.2,0.1,0.2,0.2v0.5c0,0.1-0.1,0.2-0.2,0.2h-5.4c-0.1,0-0.1,0-0.1,0.1v3.9
				c0,0.1,0,0.1,0.1,0.1h4.6c0.1,0,0.2,0.1,0.2,0.2v0.5c0,0.1-0.1,0.2-0.2,0.2h-4.6c-0.1,0-0.1,0-0.1,0.1v4c0,0.1,0,0.1,0.1,0.1h5.4
				c0.1,0,0.2,0.1,0.2,0.2v0.5c0,0.1-0.1,0.2-0.2,0.2h-6.2c-0.1,0-0.2-0.1-0.2-0.2V596.9z"/>
			<path d="M555.5,607.6c-0.1,0-0.2,0-0.2-0.1l-2.8-4.7h0l-2.8,4.7c0,0.1-0.1,0.1-0.2,0.1h-0.7c-0.1,0-0.1-0.1-0.1-0.2l3.3-5.5l-3-5
				c-0.1-0.1,0-0.2,0.1-0.2h0.7c0.1,0,0.2,0,0.2,0.1l2.5,4.1h0l2.5-4.1c0.1-0.1,0.1-0.1,0.2-0.1h0.7c0.1,0,0.1,0.1,0.1,0.2l-3,5
				l3.3,5.5c0,0.1,0,0.2-0.1,0.2H555.5z"/>
			<path d="M559.8,607.6c-0.1,0-0.2-0.1-0.2-0.2v-10.6c0-0.1,0.1-0.2,0.2-0.2h3.6c2.1,0,3.3,1.2,3.3,3.1c0,1.9-1.3,3.1-3.3,3.1h-2.8
				c-0.1,0-0.1,0-0.1,0.1v4.5c0,0.1-0.1,0.2-0.2,0.2H559.8z M565.9,599.8c0-1.4-0.9-2.2-2.5-2.2h-2.8c-0.1,0-0.1,0-0.1,0.1v4.2
				c0,0.1,0,0.1,0.1,0.1h2.8C565,602,565.9,601.2,565.9,599.8z"/>
			<path d="M570.3,596.9c0-0.1,0.1-0.2,0.2-0.2h0.6c0.1,0,0.2,0.1,0.2,0.2v9.8c0,0.1,0,0.1,0.1,0.1h5.4c0.1,0,0.2,0.1,0.2,0.2v0.5
				c0,0.1-0.1,0.2-0.2,0.2h-6.2c-0.1,0-0.2-0.1-0.2-0.2V596.9z"/>
			<path d="M582.9,596.9c0-0.1,0.1-0.2,0.2-0.2h0.6c0.1,0,0.2,0.1,0.2,0.2l3.8,10.6c0,0.1,0,0.2-0.1,0.2h-0.6c-0.1,0-0.2,0-0.2-0.2
				l-1-2.7H581l-1,2.7c0,0.1-0.1,0.2-0.2,0.2h-0.6c-0.1,0-0.1-0.1-0.1-0.2L582.9,596.9z M585.4,603.9l-2-5.7h0l-2,5.7H585.4z"/>
			<path d="M590.9,596.9c0-0.1,0.1-0.2,0.2-0.2h0.6c0.1,0,0.2,0.1,0.2,0.2v10.6c0,0.1-0.1,0.2-0.2,0.2H591c-0.1,0-0.2-0.1-0.2-0.2
				V596.9z"/>
			<path d="M596.1,596.9c0-0.1,0.1-0.2,0.2-0.2h0.6c0.1,0,0.2,0,0.3,0.2l5.4,8.9h0v-8.9c0-0.1,0.1-0.2,0.2-0.2h0.6
				c0.1,0,0.2,0.1,0.2,0.2v10.6c0,0.1-0.1,0.2-0.2,0.2h-0.6c-0.1,0-0.2,0-0.3-0.2l-5.4-9H597v9c0,0.1-0.1,0.2-0.2,0.2h-0.6
				c-0.1,0-0.2-0.1-0.2-0.2V596.9z"/>
			<path d="M607.8,596.9c0-0.1,0.1-0.2,0.2-0.2h6.2c0.1,0,0.2,0.1,0.2,0.2v0.5c0,0.1-0.1,0.2-0.2,0.2h-5.4c-0.1,0-0.1,0-0.1,0.1v3.9
				c0,0.1,0,0.1,0.1,0.1h4.6c0.1,0,0.2,0.1,0.2,0.2v0.5c0,0.1-0.1,0.2-0.2,0.2h-4.6c-0.1,0-0.1,0-0.1,0.1v4c0,0.1,0,0.1,0.1,0.1h5.4
				c0.1,0,0.2,0.1,0.2,0.2v0.5c0,0.1-0.1,0.2-0.2,0.2h-6.2c-0.1,0-0.2-0.1-0.2-0.2V596.9z"/>
			<path d="M624.4,607.6c-0.1,0-0.1,0-0.2-0.1l-2.3-4.7h-0.2H619c-0.1,0-0.1,0-0.1,0.1v4.6c0,0.1-0.1,0.2-0.2,0.2h-0.6
				c-0.1,0-0.2-0.1-0.2-0.2v-10.6c0-0.1,0.1-0.2,0.2-0.2h3.6c2,0,3.3,1.2,3.3,3c0,1.5-0.8,2.5-2.2,2.9l2.4,4.8
				c0.1,0.1,0,0.2-0.1,0.2H624.4z M624.2,599.7c0-1.4-0.9-2.1-2.4-2.1H619c-0.1,0-0.1,0-0.1,0.1v4.1c0,0.1,0,0.1,0.1,0.1h2.8
				C623.3,601.9,624.2,601.1,624.2,599.7z"/>
			<path d="M636.6,607.6c-0.1,0-0.1-0.1-0.2-0.2l-3.6-10.5c-0.1-0.1,0-0.2,0.1-0.2h0.6c0.1,0,0.2,0,0.2,0.2l3.2,9.2h0l3.1-9.2
				c0-0.1,0.1-0.2,0.2-0.2h0.6c0.1,0,0.2,0.1,0.1,0.2l-3.6,10.5c0,0.1-0.1,0.2-0.2,0.2H636.6z"/>
			<path d="M644.1,596.9c0-0.1,0.1-0.2,0.2-0.2h0.6c0.1,0,0.2,0.1,0.2,0.2v10.6c0,0.1-0.1,0.2-0.2,0.2h-0.6c-0.1,0-0.2-0.1-0.2-0.2
				V596.9z"/>
			<path d="M649.3,596.9c0-0.1,0.1-0.2,0.2-0.2h3.4c1.8,0,3,0.7,3.5,2.2c0.2,0.6,0.3,1.2,0.3,3.2c0,2-0.1,2.6-0.3,3.2
				c-0.5,1.5-1.7,2.2-3.5,2.2h-3.4c-0.1,0-0.2-0.1-0.2-0.2V596.9z M650.3,606.7h2.4c1.4,0,2.3-0.5,2.7-1.6c0.2-0.5,0.3-1.1,0.3-2.9
				s-0.1-2.4-0.3-2.9c-0.4-1.2-1.3-1.6-2.7-1.6h-2.4c-0.1,0-0.1,0-0.1,0.1L650.3,606.7C650.2,606.7,650.2,606.7,650.3,606.7z"/>
			<path d="M660.5,596.9c0-0.1,0.1-0.2,0.2-0.2h6.2c0.1,0,0.2,0.1,0.2,0.2v0.5c0,0.1-0.1,0.2-0.2,0.2h-5.4c-0.1,0-0.1,0-0.1,0.1v3.9
				c0,0.1,0,0.1,0.1,0.1h4.6c0.1,0,0.2,0.1,0.2,0.2v0.5c0,0.1-0.1,0.2-0.2,0.2h-4.6c-0.1,0-0.1,0-0.1,0.1v4c0,0.1,0,0.1,0.1,0.1h5.4
				c0.1,0,0.2,0.1,0.2,0.2v0.5c0,0.1-0.1,0.2-0.2,0.2h-6.2c-0.1,0-0.2-0.1-0.2-0.2V596.9z"/>
			<path d="M670.5,605.3c-0.2-0.6-0.3-1.3-0.3-3.2s0.1-2.6,0.3-3.2c0.5-1.6,1.7-2.4,3.5-2.4c1.8,0,3,0.8,3.5,2.4
				c0.2,0.6,0.3,1.3,0.3,3.2s-0.1,2.6-0.3,3.2c-0.5,1.6-1.7,2.4-3.5,2.4C672.3,607.8,671.1,606.9,670.5,605.3z M676.7,599.3
				c-0.4-1.2-1.3-1.8-2.6-1.8c-1.4,0-2.2,0.6-2.6,1.8c-0.1,0.4-0.3,1.1-0.3,2.9s0.1,2.5,0.3,2.9c0.4,1.2,1.3,1.8,2.6,1.8
				c1.3,0,2.2-0.6,2.6-1.8c0.1-0.4,0.3-1.1,0.3-2.9S676.8,599.7,676.7,599.3z"/>
			<path d="M561.9,629.4c-0.1,0-0.2-0.1-0.2-0.2v-10.6c0-0.1,0.1-0.2,0.2-0.2h3.6c2.1,0,3.3,1.2,3.3,3.1c0,1.9-1.3,3.1-3.3,3.1h-2.8
				c-0.1,0-0.1,0-0.1,0.1v4.5c0,0.1-0.1,0.2-0.2,0.2H561.9z M568,621.6c0-1.4-0.9-2.2-2.5-2.2h-2.8c-0.1,0-0.1,0-0.1,0.1v4.2
				c0,0.1,0,0.1,0.1,0.1h2.8C567.1,623.8,568,623,568,621.6z"/>
			<path d="M578.8,629.4c-0.1,0-0.1,0-0.2-0.1l-2.3-4.7h-0.2h-2.8c-0.1,0-0.1,0-0.1,0.1v4.6c0,0.1-0.1,0.2-0.2,0.2h-0.6
				c-0.1,0-0.2-0.1-0.2-0.2v-10.6c0-0.1,0.1-0.2,0.2-0.2h3.6c2,0,3.3,1.2,3.3,3c0,1.5-0.8,2.5-2.2,2.9l2.4,4.8
				c0.1,0.1,0,0.2-0.1,0.2H578.8z M578.6,621.5c0-1.4-0.9-2.1-2.4-2.1h-2.8c-0.1,0-0.1,0-0.1,0.1v4.1c0,0.1,0,0.1,0.1,0.1h2.8
				C577.7,623.6,578.6,622.9,578.6,621.5z"/>
			<path d="M583.4,627.1c-0.2-0.6-0.3-1.3-0.3-3.2s0.1-2.6,0.3-3.2c0.5-1.6,1.7-2.4,3.5-2.4c1.8,0,3,0.8,3.5,2.4
				c0.2,0.6,0.3,1.3,0.3,3.2s-0.1,2.6-0.3,3.2c-0.5,1.6-1.7,2.4-3.5,2.4C585.1,629.5,583.9,628.7,583.4,627.1z M589.5,621
				c-0.4-1.2-1.3-1.8-2.6-1.8c-1.4,0-2.2,0.6-2.6,1.8c-0.1,0.4-0.3,1.1-0.3,2.9s0.1,2.5,0.3,2.9c0.4,1.2,1.3,1.8,2.6,1.8
				c1.3,0,2.2-0.6,2.6-1.8c0.1-0.4,0.3-1.1,0.3-2.9S589.6,621.4,589.5,621z"/>
			<path d="M594.5,618.6c0-0.1,0.1-0.2,0.2-0.2h3.4c1.8,0,3,0.7,3.5,2.2c0.2,0.6,0.3,1.2,0.3,3.2c0,2-0.1,2.6-0.3,3.2
				c-0.5,1.5-1.7,2.2-3.5,2.2h-3.4c-0.1,0-0.2-0.1-0.2-0.2V618.6z M595.5,628.5h2.4c1.4,0,2.3-0.5,2.7-1.6c0.2-0.5,0.3-1.1,0.3-2.9
				s-0.1-2.4-0.3-2.9c-0.4-1.2-1.3-1.6-2.7-1.6h-2.4c-0.1,0-0.1,0-0.1,0.1L595.5,628.5C595.4,628.5,595.5,628.5,595.5,628.5z"/>
			<path d="M606.5,625.6c0,2,1,3,2.8,3c1.7,0,2.8-1,2.8-3v-7c0-0.1,0.1-0.2,0.2-0.2h0.6c0.1,0,0.2,0.1,0.2,0.2v7
				c0,2.7-1.4,3.9-3.7,3.9c-2.2,0-3.7-1.3-3.7-3.9v-7c0-0.1,0.1-0.2,0.2-0.2h0.6c0.1,0,0.2,0.1,0.2,0.2V625.6z"/>
			<path d="M616.7,623.9c0-1.9,0.1-2.6,0.3-3.2c0.5-1.6,1.7-2.4,3.4-2.4c1.5,0,2.7,0.7,3.3,2c0,0.1,0,0.2,0,0.2l-0.5,0.3
				c-0.1,0-0.2,0-0.2-0.1c-0.5-0.9-1.3-1.6-2.5-1.6c-1.3,0-2.1,0.6-2.6,1.8c-0.1,0.4-0.2,1.1-0.2,2.9c0,1.8,0.1,2.5,0.2,2.9
				c0.4,1.2,1.2,1.8,2.6,1.8c1.2,0,2-0.6,2.5-1.6c0-0.1,0.1-0.1,0.2-0.1l0.5,0.3c0.1,0,0.1,0.1,0,0.2c-0.6,1.3-1.8,2-3.3,2
				c-1.7,0-2.9-0.8-3.4-2.4C616.8,626.5,616.7,625.8,616.7,623.9z"/>
			<path d="M629.5,629.4c-0.1,0-0.2-0.1-0.2-0.2v-9.8c0-0.1,0-0.1-0.1-0.1h-3.1c-0.1,0-0.2-0.1-0.2-0.2v-0.5c0-0.1,0.1-0.2,0.2-0.2
				h7.4c0.1,0,0.2,0.1,0.2,0.2v0.5c0,0.1-0.1,0.2-0.2,0.2h-3.1c-0.1,0-0.1,0-0.1,0.1v9.8c0,0.1-0.1,0.2-0.2,0.2H629.5z"/>
			<path d="M636.7,618.6c0-0.1,0.1-0.2,0.2-0.2h0.6c0.1,0,0.2,0.1,0.2,0.2v10.6c0,0.1-0.1,0.2-0.2,0.2h-0.6c-0.1,0-0.2-0.1-0.2-0.2
				V618.6z"/>
			<path d="M641.8,627.1c-0.2-0.6-0.3-1.3-0.3-3.2s0.1-2.6,0.3-3.2c0.5-1.6,1.7-2.4,3.5-2.4c1.8,0,3,0.8,3.5,2.4
				c0.2,0.6,0.3,1.3,0.3,3.2s-0.1,2.6-0.3,3.2c-0.5,1.6-1.7,2.4-3.5,2.4C643.5,629.5,642.3,628.7,641.8,627.1z M647.9,621
				c-0.4-1.2-1.3-1.8-2.6-1.8c-1.4,0-2.2,0.6-2.6,1.8c-0.1,0.4-0.3,1.1-0.3,2.9s0.1,2.5,0.3,2.9c0.4,1.2,1.3,1.8,2.6,1.8
				c1.3,0,2.2-0.6,2.6-1.8c0.1-0.4,0.3-1.1,0.3-2.9S648.1,621.4,647.9,621z"/>
			<path d="M653,618.6c0-0.1,0.1-0.2,0.2-0.2h0.6c0.1,0,0.2,0,0.3,0.2l5.4,8.9h0v-8.9c0-0.1,0.1-0.2,0.2-0.2h0.6
				c0.1,0,0.2,0.1,0.2,0.2v10.6c0,0.1-0.1,0.2-0.2,0.2h-0.6c-0.1,0-0.2,0-0.3-0.2l-5.4-9h-0.1v9c0,0.1-0.1,0.2-0.2,0.2h-0.6
				c-0.1,0-0.2-0.1-0.2-0.2V618.6z"/>
		</g>
	</g>
</g>
</svg>
