<?xml version="1.0" encoding="utf-8"?>
<!-- Generator: Adobe Illustrator 20.0.0, SVG Export Plug-In . SVG Version: 6.00 Build 0)  -->
<svg version="1.1" id="Layer_1" xmlns="http://www.w3.org/2000/svg" xmlns:xlink="http://www.w3.org/1999/xlink" x="0px" y="0px"
	 viewBox="0 0 30 62.1" style="enable-background:new 0 0 30 62.1;" xml:space="preserve">
<style type="text/css">
	.st0{fill:none;stroke:#000000;stroke-width:1.0387;stroke-miterlimit:10;}
	.st1{fill:none;stroke:#000000;stroke-miterlimit:10;}
	.st2{fill:#F58220;}
	.st3{fill:none;stroke:#F58220;stroke-miterlimit:10;}
	.st4{fill:none;stroke:#000000;stroke-width:0.3639;stroke-miterlimit:10;}
	.st5{fill:#FFFFFF;}
	.st6{fill:#ECF8FE;}
	.st7{fill:#27BDBE;}
	.st8{fill:#FFE06A;}
	.st9{fill:#D9D9D9;}
	.st10{fill:#999999;}
	.st11{fill:#BFBFBF;}
	.st12{fill:#FFFFFF;stroke:#000000;stroke-width:1.5873;stroke-miterlimit:10;}
	.st13{fill:none;stroke:#000000;stroke-width:1.5873;stroke-linecap:round;stroke-linejoin:round;stroke-miterlimit:10;}
	.st14{fill:none;stroke:#000000;stroke-width:0.8323;stroke-linecap:round;stroke-linejoin:round;stroke-miterlimit:10;}
	.st15{fill:#CFCDCD;}
	.st16{fill:#C9E9E6;}
	.st17{fill:none;stroke:#000000;stroke-width:0.8889;stroke-miterlimit:10;}
	.st18{fill:none;stroke:#FFFFFF;stroke-miterlimit:10;}
	.st19{fill:none;stroke:#000000;stroke-width:1.5873;stroke-miterlimit:10;}
	.st20{fill:none;stroke:#000000;stroke-width:1.9415;stroke-linecap:round;stroke-linejoin:round;stroke-miterlimit:10;}
	.st21{fill:#EEE809;}
	.st22{fill:#94D9F8;}
	.st23{fill:#211E1F;}
	.st24{fill:#231F20;}
	.st25{fill:#F7941F;}
	.st26{fill:#47B77B;}
	.st27{fill:#221F1F;}
	.st28{fill:#F5EB0E;}
	.st29{fill:#EBE70E;}
	.st30{fill:#4BC3C9;}
	.st31{fill:#DD1D4F;}
	.st32{fill:none;stroke:#231F20;stroke-width:0.9625;stroke-linecap:round;stroke-linejoin:round;stroke-miterlimit:10;}
	.st33{fill:none;stroke:#000000;stroke-width:2;stroke-miterlimit:10;}
	.st34{fill:#E5EFF5;}
</style>
<g>
	<g>
		<path class="st5" d="M22.8,12.7c0,2.1,0,4.3,0,6.4c0,0.2-0.1,0.4-0.1,0.5c-0.1,2.2-1.8,3.9-4,4c-2.5,0.1-5,0.1-7.5,0
			c-1.8,0-3.2-1.2-3.7-2.9c-0.1-0.5-0.2-1-0.3-1.5c0-2.2,0-4.4,0-6.6c0-0.2,0.1-0.3,0.1-0.5c0.1-1.8,1.3-3.3,3-3.8
			c0.5-0.1,0.9-0.2,1.4-0.3c2.2,0,4.4,0,6.6,0c0.2,0,0.3,0.1,0.5,0.1c1.9,0.1,3.4,1.4,3.9,3.2C22.7,11.8,22.8,12.3,22.8,12.7z
			 M21.4,16L21.4,16c0-1.1,0-2.3,0-3.4c0-1.8-1.2-2.9-2.9-2.9c-2.3,0-4.5,0-6.8,0c-1.7,0-2.9,1.2-2.9,2.9c0,2.3,0,4.6,0,6.8
			c0,1.7,1.2,2.9,2.9,2.9c2.3,0,4.5,0,6.8,0c1.6,0,2.7-0.9,2.9-2.5C21.4,18.5,21.4,16,21.4,16z"/>
		<path class="st5" d="M19,15.9c0,2.2-1.8,4-4,4c-2.2,0-4-1.8-4-4c0-2.2,1.8-4,4-4C17.3,11.9,19.1,13.7,19,15.9z M15,13.3
			c-1.4,0-2.6,1.1-2.6,2.6c0,1.5,1.1,2.6,2.6,2.6c1.4,0,2.6-1.1,2.6-2.6C17.6,14.5,16.5,13.3,15,13.3z"/>
		<path class="st5" d="M20.1,11.7c0,0.5-0.4,1-0.9,1c-0.5,0-1-0.4-1-1c0-0.5,0.4-0.9,0.9-0.9C19.7,10.8,20.1,11.2,20.1,11.7z"/>
	</g>
</g>
<g>
	<path class="st2" d="M22.8,43.9c0,2.1,0,4.3,0,6.4c0,0.2-0.1,0.4-0.1,0.5c-0.1,2.2-1.8,3.9-4,4c-2.5,0.1-5,0.1-7.5,0
		c-1.8,0-3.2-1.2-3.7-2.9c-0.1-0.5-0.2-1-0.3-1.5c0-2.2,0-4.4,0-6.6c0-0.2,0.1-0.3,0.1-0.5c0.1-1.8,1.3-3.3,3-3.8
		c0.5-0.1,0.9-0.2,1.4-0.3c2.2,0,4.4,0,6.6,0c0.2,0,0.3,0.1,0.5,0.1c1.9,0.1,3.4,1.4,3.9,3.2C22.7,43,22.8,43.5,22.8,43.9z
		 M21.4,47.2L21.4,47.2c0-1.1,0-2.3,0-3.4c0-1.8-1.2-2.9-2.9-2.9c-2.3,0-4.5,0-6.8,0c-1.7,0-2.9,1.2-2.9,2.9c0,2.3,0,4.6,0,6.8
		c0,1.7,1.2,2.9,2.9,2.9c2.3,0,4.5,0,6.8,0c1.6,0,2.7-0.9,2.9-2.5C21.4,49.7,21.4,47.2,21.4,47.2z"/>
	<path class="st2" d="M19,47.1c0,2.2-1.8,4-4,4c-2.2,0-4-1.8-4-4c0-2.2,1.8-4,4-4C17.3,43.1,19.1,44.9,19,47.1z M15,44.5
		c-1.4,0-2.6,1.1-2.6,2.6c0,1.5,1.1,2.6,2.6,2.6c1.4,0,2.6-1.1,2.6-2.6C17.6,45.7,16.5,44.5,15,44.5z"/>
	<path class="st2" d="M20.1,42.9c0,0.5-0.4,1-0.9,1c-0.5,0-1-0.4-1-1c0-0.5,0.4-0.9,0.9-0.9C19.7,42,20.1,42.4,20.1,42.9z"/>
</g>
</svg>
