<?xml version="1.0" encoding="utf-8"?>
<!-- Generator: Adobe Illustrator 17.0.0, SVG Export Plug-In . SVG Version: 6.00 Build 0)  -->
<!DOCTYPE svg PUBLIC "-//W3C//DTD SVG 1.1//EN" "http://www.w3.org/Graphics/SVG/1.1/DTD/svg11.dtd">
<svg version="1.1" id="Layer_1" xmlns="http://www.w3.org/2000/svg" xmlns:xlink="http://www.w3.org/1999/xlink" x="0px" y="0px"
	 width="80px" height="360px" viewBox="0 0 80 360" style="enable-background:new 0 0 80 360;" xml:space="preserve">
<style type="text/css">
	.st0{fill-rule:evenodd;clip-rule:evenodd;}
	.st1{fill:#F58220;}
	.st2{fill:#FFFFFF;}
	.st3{fill-rule:evenodd;clip-rule:evenodd;fill:#F58220;}
</style>
<g>
	<path d="M25.6,26.1c-0.3,0-0.5-0.2-0.5-0.5l0-0.3c0-1.5-0.5-3-1.3-4.3c-1.2-1.8-3-3.3-5.2-4.1c-0.4-0.1-0.7-0.5-0.8-1
		c-0.1-0.4,0.1-0.9,0.4-1.2c1.2-1.1,1.9-2.6,1.9-4.2C20,7.5,17.5,5,14.4,5c-3.1,0-5.6,2.5-5.6,5.6c0,1.7,0.7,3.3,2,4.3
		c0.3,0.3,0.5,0.7,0.4,1.2c-0.1,0.4-0.4,0.8-0.8,1c-3.6,1.4-6,4.5-6.2,7.9h15.8c0.3,0,0.5,0.2,0.5,0.5c0,0.3-0.2,0.5-0.5,0.5H3.7
		c-0.1,0-0.3-0.1-0.4-0.2c-0.1-0.1-0.2-0.2-0.2-0.4l0-0.3c0.1-4,2.8-7.6,6.9-9.2c0.1,0,0.1-0.1,0.1-0.1c0-0.1,0-0.1-0.1-0.2
		c-1.5-1.3-2.4-3.2-2.4-5.2c0-3.7,3-6.7,6.7-6.7c3.7,0,6.7,3,6.7,6.7c0,1.9-0.8,3.8-2.3,5c0,0-0.1,0.1-0.1,0.2
		c0,0.1,0.1,0.1,0.1,0.1c2.4,0.9,4.5,2.5,5.8,4.5c0.9,1.5,1.4,3.1,1.5,4.8l0,0.3C26.1,25.9,25.9,26.1,25.6,26.1L25.6,26.1z"/>
	<g>
		<g>
			<path class="st0" d="M10.9,60.3c0.2-0.1,0.4-0.2,0.6,0c0.2,0.1,0.2,0.4,0,0.6l-2,2C9.3,63,9,63,8.9,62.8
				c-0.1-0.1-0.1-0.2-0.1-0.3l0,0v-6.3c0-0.1,0.1-0.3,0.2-0.3l14.2-9.5c0.2-0.1,0.4-0.1,0.5,0.1c0.1,0.2,0.1,0.4-0.1,0.5l-14,9.4
				v5.2L10.9,60.3z"/>
			<path class="st0" d="M10.5,58.1c-0.2-0.1-0.1-0.4,0-0.6c0.2-0.1,0.4-0.1,0.6,0l4.4,4.4l12.3-17.7v-0.1L4.4,50.9l5.1,5.1
				c0.2,0.2,0.2,0.4,0,0.6c-0.2,0.2-0.4,0.2-0.6,0L3.4,51l0,0c0,0-0.1-0.1-0.1-0.2c-0.1-0.2,0.1-0.4,0.3-0.5L28,43.2
				c0,0,0.1,0,0.1,0c0.2,0,0.4,0.2,0.4,0.4v0.8l0,0c0,0.1,0,0.2-0.1,0.2L15.8,62.8l0,0c0,0,0,0,0,0.1c-0.2,0.2-0.4,0.2-0.6,0
				L10.5,58.1z"/>
		</g>
	</g>
	<g>
		<g>
			<path d="M28.5,102.8c0.2,0.1,0.2,0.4,0.1,0.6c-0.1,0.2-0.4,0.2-0.6,0.1l-6.2-4.6l-0.4,0.4l-0.6,0.6c-1.5,1.5-3.8,1.2-6-0.1
				c-0.8-0.5-1.6-1.1-2.2-1.8c-0.7-0.7-1.3-1.5-1.8-2.3c-1.3-2.1-1.7-4.4-0.1-5.9l1.1-1.1l-4.3-5.8l-1.9,1.9l0,0l0,0
				c-1.5,1.5-1.9,3.5-1.1,6c0.8,2.5,2.9,5.5,6.2,8.9l0.1,0.1l0,0c0.2,0.2,0.4,0.4,0.6,0.6c3.3,3.2,6.2,5.1,8.6,5.9
				c2.4,0.7,4.3,0.3,5.8-1.1l0,0l0.1,0l0.5-0.5c0.2-0.2,0.4-0.2,0.6,0c0.2,0.2,0.2,0.4,0,0.6l-0.5,0.5l0,0l-0.1,0l0,0
				c-1.7,1.7-3.9,2.1-6.6,1.3c-2.6-0.8-5.6-2.8-8.9-6c-0.2-0.2-0.4-0.4-0.6-0.6l0,0l0,0l-0.1-0.1c-3.4-3.5-5.6-6.6-6.4-9.2
				c-0.9-2.8-0.4-5,1.3-6.8l0,0l0,0l0,0L7.2,82c0,0,0,0,0,0c0.2-0.1,0.4-0.1,0.6,0.1l4.7,6.5c0.1,0.2,0.1,0.4,0,0.5l-1.3,1.3
				c-1.2,1.2-0.9,3.1,0.3,5c0.4,0.7,1,1.5,1.7,2.1c0.7,0.6,1.4,1.2,2.1,1.7c1.8,1.1,3.7,1.4,5,0.2l0.6-0.6l0.6-0.6v0
				c0.1-0.1,0.4-0.2,0.5,0L28.5,102.8L28.5,102.8z"/>
			<path d="M26.7,104.5c0.2,0.1,0.2,0.4,0.1,0.6c-0.1,0.2-0.4,0.2-0.6,0.1l-1.6-1.2l-1.6-1.2l-1.6-1.2c-0.2-0.1-0.2-0.4-0.1-0.6
				c0.1-0.2,0.4-0.2,0.6-0.1l1.6,1.2l1.6,1.2L26.7,104.5L26.7,104.5z"/>
			<path d="M5.4,84.3c-0.1-0.2-0.1-0.4,0.1-0.6c0.2-0.1,0.4-0.1,0.6,0.1l1.2,1.6l1.2,1.6l1.2,1.6c0.1,0.2,0.1,0.4-0.1,0.6
				c-0.2,0.1-0.4,0.1-0.6-0.1l-1.2-1.6l-1.2-1.6L5.4,84.3L5.4,84.3z"/>
		</g>
	</g>
	<g>
		<g>
			<path d="M5.2,180C4,180,3,179,3,177.7v-9.2c0-0.2,0.2-0.4,0.4-0.4c0.2,0,0.4,0.2,0.4,0.4v9.2c0,0.8,0.7,1.5,1.5,1.5h18.5
				c0.8,0,1.5-0.7,1.5-1.5v-11.4c0-0.8-0.7-1.5-1.5-1.5H5.2c-0.2,0-0.3,0.1-0.5,0.1L4.5,165l8.3,6.4c0.5,0.4,1.1,0.6,1.7,0.6
				c0.6,0,1.2-0.2,1.7-0.5l7.2-4.7c0.1,0,0.1-0.1,0.2-0.1c0.1,0,0.2,0.1,0.3,0.2c0.1,0.1,0.1,0.2,0.1,0.3c0,0.1-0.1,0.2-0.2,0.2
				l-7.2,4.7c-0.6,0.4-1.3,0.6-2.1,0.6c-0.8,0-1.6-0.2-2.2-0.7l-8.5-6.6l-0.2-0.1c-0.1-0.1-0.1-0.2-0.1-0.3c0-0.1,0-0.2,0.1-0.3
				c0-0.1,0.1-0.1,0.2-0.1c0.5-0.4,1-0.5,1.5-0.5h18.5c1.2,0,2.3,1,2.3,2.3v11.4c0,1.2-1,2.3-2.3,2.3H5.2z"/>
			<path d="M14.5,178c-0.1,0-0.2-0.1-0.3-0.2c-0.1-0.2-0.1-0.4,0.1-0.5l4.5-3c0.1,0,0.1-0.1,0.2-0.1c0.1,0,0.2,0.1,0.3,0.2
				c0.1,0.2,0.1,0.4-0.1,0.5l-4.5,3C14.6,178,14.6,178,14.5,178z"/>
			<path d="M18.5,178c-0.1,0-0.2-0.1-0.3-0.2c-0.1-0.2-0.1-0.4,0.1-0.5l4.5-3c0.1,0,0.1-0.1,0.2-0.1c0.1,0,0.2,0.1,0.3,0.2
				c0.1,0.2,0.1,0.4-0.1,0.5l-4.5,3C18.7,178,18.6,178,18.5,178z"/>
		</g>
	</g>
	<g>
		<g>
			<g>
				<g>
					<path d="M8.1,127.3c0.4-0.4,0.9-0.6,1.5-0.6c0.5,0,1.1,0.2,1.5,0.6c0.4,0.4,0.6,0.9,0.6,1.5c0,0.5-0.2,1.1-0.6,1.5
						c-0.4,0.4-0.9,0.6-1.5,0.6c-0.5,0-1.1-0.2-1.5-0.6c-0.4-0.4-0.6-0.9-0.6-1.5C7.5,128.3,7.7,127.7,8.1,127.3L8.1,127.3z
						 M9.6,127.5c-0.3,0-0.6,0.1-0.9,0.4s-0.4,0.6-0.4,0.9c0,0.3,0.1,0.6,0.4,0.9c0.2,0.2,0.6,0.4,0.9,0.4c0.3,0,0.6-0.1,0.9-0.4
						c0.2-0.2,0.4-0.6,0.4-0.9c0-0.3-0.1-0.6-0.4-0.9C10.2,127.7,9.9,127.5,9.6,127.5L9.6,127.5z"/>
				</g>
			</g>
			<g>
				<path d="M12.5,138c-0.2,0.2-0.4,0.2-0.6,0c-0.2-0.2-0.2-0.4,0-0.6l6.3-6.3c0.2-0.2,0.4-0.2,0.6,0c0.2,0.2,0.2,0.4,0,0.6
					L12.5,138L12.5,138z"/>
			</g>
			<g>
				<path d="M14.4,139.8c-0.2,0.2-0.4,0.2-0.6,0c-0.2-0.2-0.2-0.4,0-0.6L20,133c0.2-0.2,0.4-0.2,0.6,0c0.2,0.2,0.2,0.4,0,0.6
					L14.4,139.8L14.4,139.8z"/>
			</g>
			<g>
				<path d="M16.2,141.7c-0.2,0.2-0.4,0.2-0.6,0c-0.2-0.2-0.2-0.4,0-0.6l6.2-6.3c0.2-0.2,0.4-0.2,0.6,0c0.2,0.2,0.2,0.4,0,0.6
					L16.2,141.7L16.2,141.7z"/>
			</g>
			<g>
				<path d="M18.1,143.5c-0.2,0.2-0.4,0.2-0.6,0c-0.2-0.2-0.2-0.4,0-0.6l3.5-3.5c0.2-0.2,0.4-0.2,0.6,0c0.2,0.2,0.2,0.4,0,0.6
					L18.1,143.5L18.1,143.5z"/>
			</g>
			<g>
				<path d="M10.6,136.1c-0.2,0.2-0.4,0.2-0.6,0c-0.2-0.2-0.2-0.4,0-0.6l6.3-6.2c0.2-0.2,0.4-0.2,0.6,0c0.2,0.2,0.2,0.4,0,0.6
					L10.6,136.1L10.6,136.1z"/>
			</g>
			<g>
				<path d="M4.9,124.5c-0.2,0-0.4-0.2-0.4-0.4c0-0.2,0.2-0.4,0.4-0.4l7.8,0c3.3,0,3.3,0,5,1.7l10.9,10.9c0.3,0.3,0.4,0.7,0.4,1.1
					c0,0.4-0.1,0.8-0.4,1.1l-4.7,4.7l-4.7,4.7c-0.3,0.3-0.7,0.4-1.1,0.4c-0.4,0-0.8-0.1-1.1-0.4L6.2,136.9c-0.4-0.4-0.7-0.7-0.9-1
					c-0.1-0.2-0.2-0.3-0.3-0.4c-0.1-0.2-0.2-0.3-0.2-0.5l0,0c-0.1-0.2-0.1-0.3-0.1-0.6c0-0.2,0-0.4-0.1-0.7c0-0.5,0-1.1,0-1.8v0l0-2
					v-2l0-2c0-0.2,0.2-0.4,0.4-0.4c0.2,0,0.4,0.2,0.4,0.4v2l0,2l0,2v0c0,0.8,0,1.4,0,1.8c0,0.2,0,0.4,0.1,0.6c0,0.2,0.1,0.3,0.1,0.4
					l0,0l0,0c0,0.1,0.1,0.2,0.2,0.3c0.1,0.1,0.1,0.2,0.2,0.3c0.2,0.2,0.5,0.5,0.9,0.9l10.9,10.9c0.1,0.1,0.3,0.2,0.5,0.2
					c0.2,0,0.4-0.1,0.5-0.2l4.7-4.7l4.7-4.7c0.1-0.1,0.2-0.3,0.2-0.5c0-0.2-0.1-0.4-0.2-0.5l-10.9-10.9c-1.4-1.4-1.4-1.4-4.4-1.4
					H4.9L4.9,124.5z"/>
			</g>
		</g>
	</g>
</g>
<g>
	<g>
		<g>
			<g>
				<path d="M6.9,295.1c-0.8,0-1.5-0.7-1.5-1.5v-6.1c0-0.1,0.1-0.2,0.2-0.2s0.2,0.1,0.2,0.2v6.1c0,0.6,0.4,1,1,1h12.2
					c0.6,0,1-0.4,1-1v-7.5c0-0.6-0.4-1-1-1H6.9c-0.1,0-0.2,0-0.3,0.1l-0.2,0.1l5.5,4.2c0.3,0.2,0.7,0.4,1.1,0.4
					c0.4,0,0.8-0.1,1.1-0.3l4.7-3.1c0,0,0.1,0,0.1,0c0.1,0,0.2,0,0.2,0.1c0,0.1,0,0.1,0,0.2c0,0.1-0.1,0.1-0.1,0.2l-4.7,3.1
					c-0.4,0.3-0.9,0.4-1.4,0.4c-0.5,0-1-0.2-1.4-0.5L6,285.5l-0.1-0.1c-0.1-0.1-0.1-0.1-0.1-0.2c0-0.1,0-0.1,0-0.2
					c0,0,0.1-0.1,0.1-0.1c0.3-0.2,0.6-0.4,1-0.4h12.2c0.8,0,1.5,0.7,1.5,1.5v7.5c0,0.8-0.7,1.5-1.5,1.5H6.9z"/>
				<path d="M13,293.8c-0.1,0-0.2,0-0.2-0.1c-0.1-0.1,0-0.3,0.1-0.3l3-2c0,0,0.1,0,0.1,0c0.1,0,0.2,0,0.2,0.1c0.1,0.1,0,0.3-0.1,0.3
					l-3,2C13.1,293.8,13.1,293.8,13,293.8z"/>
				<path d="M15.7,293.8c-0.1,0-0.2,0-0.2-0.1c-0.1-0.1,0-0.3,0.1-0.3l3-2c0,0,0.1,0,0.1,0c0.1,0,0.2,0,0.2,0.1
					c0.1,0.1,0,0.3-0.1,0.3l-3,2C15.8,293.8,15.7,293.8,15.7,293.8z"/>
			</g>
			<g>
				<path d="M7.4,256c0.1,0,0.3,0.1,0.3,0.3c0,0.1-0.1,0.2-0.3,0.2H6.6c-0.4,0-0.8-0.2-1.1-0.5c-0.3-0.3-0.5-0.7-0.5-1.1v-2.6v-2.6
					c0-0.4,0.2-0.8,0.5-1.1c0.3-0.3,0.7-0.5,1.1-0.5h6.5h6.5c0.4,0,0.8,0.2,1.1,0.5c0.3,0.3,0.5,0.7,0.5,1.1v2.6v2.6
					c0,0.4-0.2,0.8-0.5,1.1c-0.3,0.3-0.7,0.5-1.1,0.5h-0.8c-0.1,0-0.3-0.1-0.3-0.2c0-0.1,0.1-0.3,0.3-0.3h0.8c0.3,0,0.5-0.1,0.7-0.3
					c0.2-0.2,0.3-0.4,0.3-0.7v-2.6v-2.6c0-0.3-0.1-0.5-0.3-0.7c-0.2-0.2-0.4-0.3-0.7-0.3h-6.5H6.6c-0.3,0-0.5,0.1-0.7,0.3
					c-0.2,0.2-0.3,0.4-0.3,0.7v2.6v2.6c0,0.3,0.1,0.5,0.3,0.7c0.2,0.2,0.4,0.3,0.7,0.3H7.4L7.4,256z"/>
				<path d="M17.7,253.7L17.7,253.7v3.9c0,0.2-0.1,0.5-0.3,0.6l0,0c-0.2,0.2-0.4,0.3-0.6,0.3h-3.7H9.4c-0.2,0-0.5-0.1-0.6-0.3l0,0
					c-0.2-0.2-0.2-0.4-0.2-0.6v-3.9c0-0.1,0.1-0.3,0.3-0.3h0h8.7C17.6,253.4,17.7,253.5,17.7,253.7L17.7,253.7z M17.2,257.5v-3.6H9
					v3.6c0,0.1,0,0.2,0.1,0.3l0,0c0.1,0.1,0.2,0.1,0.3,0.1h3.7h3.7c0.1,0,0.2,0,0.3-0.1l0,0C17.1,257.7,17.2,257.6,17.2,257.5
					L17.2,257.5z M8.7,258.1c-0.1-0.1-0.1-0.2,0-0.3L8.7,258.1L8.7,258.1z"/>
				<path d="M7.3,249.7c0.2,0,0.4,0.1,0.5,0.2l0,0c0.1,0.1,0.2,0.3,0.2,0.5c0,0.2-0.1,0.4-0.2,0.5c-0.1,0.1-0.3,0.2-0.5,0.2
					c-0.2,0-0.4-0.1-0.5-0.2l0,0c-0.1-0.1-0.2-0.3-0.2-0.5c0-0.2,0.1-0.4,0.2-0.5v0C6.9,249.8,7.1,249.7,7.3,249.7L7.3,249.7z
					 M7.4,250.3c0,0-0.1-0.1-0.2-0.1c-0.1,0-0.1,0-0.2,0.1v0c0,0-0.1,0.1-0.1,0.2c0,0.1,0,0.1,0.1,0.2l0,0c0,0,0.1,0.1,0.2,0.1
					c0.1,0,0.1,0,0.2-0.1c0,0,0.1-0.1,0.1-0.2C7.5,250.4,7.5,250.3,7.4,250.3L7.4,250.3L7.4,250.3z M6.7,250.9
					c-0.1-0.1-0.1-0.2,0-0.3L6.7,250.9L6.7,250.9z"/>
				<path d="M10.6,256.5c-0.1,0-0.2-0.1-0.2-0.2c0-0.1,0.1-0.3,0.2-0.3h2.4c0.1,0,0.2,0.1,0.2,0.3c0,0.1-0.1,0.2-0.2,0.2H10.6
					L10.6,256.5z M10.6,255.2c-0.1,0-0.2-0.1-0.2-0.2c0-0.1,0.1-0.3,0.2-0.3h4.8c0.1,0,0.2,0.1,0.2,0.3c0,0.1-0.1,0.2-0.2,0.2H10.6
					L10.6,255.2z"/>
				<path d="M17.7,247.2c0,0.1-0.1,0.2-0.3,0.2c-0.1,0-0.2-0.1-0.2-0.2v-1.3c0-0.1,0-0.2-0.1-0.3l0,0c-0.1-0.1-0.2-0.1-0.3-0.1h-3.7
					H9.4c-0.1,0-0.2,0-0.3,0.1l0,0C9,245.7,9,245.8,9,245.9v1.3c0,0.1-0.1,0.2-0.3,0.2c-0.1,0-0.3-0.1-0.3-0.2v-1.3
					c0-0.2,0.1-0.5,0.2-0.6l0,0c0.2-0.2,0.4-0.3,0.6-0.3h3.7h3.7c0.2,0,0.5,0.1,0.6,0.3l0,0c0.2,0.2,0.3,0.4,0.3,0.6V247.2
					L17.7,247.2z"/>
				<path d="M9.2,250.7c-0.1,0-0.3-0.1-0.3-0.2c0-0.1,0.1-0.3,0.3-0.3h9.7c0.1,0,0.3,0.1,0.3,0.3c0,0.1-0.1,0.2-0.3,0.2H9.2
					L9.2,250.7z"/>
			</g>
			<g>
				<path d="M20.4,216.5c0.1,0.1,0.1,0.2,0,0.3c-0.1,0.1-0.2,0.1-0.3,0l-3.5-2.5l-0.2,0.2l-0.4,0.4c-0.9,0.9-2.1,0.7-3.3-0.1
					c-0.4-0.3-0.9-0.6-1.3-1c-0.4-0.4-0.7-0.8-1-1.3c-0.7-1.2-0.9-2.5-0.1-3.3l0.6-0.6l-2.4-3.3l-1.1,1.1l0,0l0,0
					c-0.8,0.8-1.1,2-0.6,3.3c0.5,1.4,1.6,3.1,3.5,5l0.1,0.1l0,0c0.1,0.1,0.2,0.2,0.3,0.3c1.8,1.8,3.4,2.8,4.8,3.3
					c1.3,0.4,2.4,0.2,3.2-0.6l0,0l0,0l0.3-0.3c0.1-0.1,0.2-0.1,0.3,0c0.1,0.1,0.1,0.2,0,0.3l-0.3,0.3v0l0,0l0,0
					c-0.9,0.9-2.2,1.2-3.7,0.7c-1.4-0.4-3.1-1.6-5-3.4c-0.1-0.1-0.2-0.2-0.3-0.3v0l0,0l-0.1-0.1c-1.9-1.9-3.1-3.7-3.6-5.1
					c-0.5-1.5-0.2-2.8,0.7-3.8l0,0l0,0l0,0l1.3-1.3c0,0,0,0,0,0c0.1-0.1,0.2-0.1,0.3,0l2.6,3.6c0.1,0.1,0.1,0.2,0,0.3l-0.7,0.7
					c-0.7,0.7-0.5,1.8,0.1,2.8c0.3,0.4,0.6,0.8,0.9,1.2c0.4,0.4,0.8,0.7,1.2,0.9c1,0.6,2.1,0.8,2.8,0.1l0.4-0.4l0.4-0.4l0,0
					c0.1-0.1,0.2-0.1,0.3,0L20.4,216.5L20.4,216.5z"/>
				<path d="M19.4,217.5c0.1,0.1,0.1,0.2,0.1,0.3c-0.1,0.1-0.2,0.1-0.3,0l-0.9-0.7l-0.9-0.7l-0.9-0.7c-0.1-0.1-0.1-0.2,0-0.3
					c0.1-0.1,0.2-0.1,0.3,0l0.9,0.7l0.9,0.7L19.4,217.5L19.4,217.5z"/>
				<path d="M7.5,206.2c-0.1-0.1-0.1-0.2,0-0.3c0.1-0.1,0.2,0,0.3,0l0.7,0.9l0.7,0.9l0.7,0.9c0.1,0.1,0.1,0.2,0,0.3
					c-0.1,0.1-0.2,0-0.3,0L8.9,208l-0.7-0.9L7.5,206.2L7.5,206.2z"/>
			</g>
		</g>
	</g>
	<g>
		<g>
			<g>
				<g>
					<path d="M16.7,339H9.9c-0.5,0-0.9-0.4-0.9-0.9v-12.1c0-0.5,0.4-0.9,0.9-0.9h6.9c0.5,0,0.9,0.4,0.9,0.9V338
						C17.7,338.5,17.2,339,16.7,339z M9.9,325.6c-0.2,0-0.3,0.1-0.3,0.3V338c0,0.2,0.1,0.3,0.3,0.3h6.9c0.2,0,0.3-0.1,0.3-0.3v-12.1
						c0-0.2-0.1-0.3-0.3-0.3H9.9z"/>
				</g>
				<circle cx="13.3" cy="336.7" r="0.7"/>
				<path d="M14,326.9h-1.3c-0.1,0-0.2-0.1-0.2-0.2c0-0.1,0.1-0.2,0.2-0.2H14c0.1,0,0.2,0.1,0.2,0.2C14.2,326.9,14.1,326.9,14,326.9
					z"/>
			</g>
		</g>
	</g>
</g>
<g>
	<g>
		<g>
			<g>
				<path class="st1" d="M34.1,295.1c-0.8,0-1.5-0.7-1.5-1.5v-6.1c0-0.1,0.1-0.2,0.2-0.2c0.1,0,0.2,0.1,0.2,0.2v6.1c0,0.6,0.4,1,1,1
					h12.2c0.6,0,1-0.4,1-1v-7.5c0-0.6-0.4-1-1-1H34.1c-0.1,0-0.2,0-0.3,0.1l-0.2,0.1l5.5,4.2c0.3,0.2,0.7,0.4,1.1,0.4
					c0.4,0,0.8-0.1,1.1-0.3l4.7-3.1c0,0,0.1,0,0.1,0c0.1,0,0.2,0,0.2,0.1c0,0.1,0,0.1,0,0.2c0,0.1-0.1,0.1-0.1,0.2l-4.7,3.1
					c-0.4,0.3-0.9,0.4-1.4,0.4c-0.5,0-1-0.2-1.4-0.5l-5.6-4.3l-0.1-0.1c-0.1-0.1-0.1-0.1-0.1-0.2c0-0.1,0-0.1,0-0.2
					c0,0,0.1-0.1,0.1-0.1c0.3-0.2,0.6-0.4,1-0.4h12.2c0.8,0,1.5,0.7,1.5,1.5v7.5c0,0.8-0.7,1.5-1.5,1.5H34.1z"/>
				<path class="st1" d="M40.2,293.8c-0.1,0-0.2,0-0.2-0.1c-0.1-0.1,0-0.3,0.1-0.3l3-2c0,0,0.1,0,0.1,0c0.1,0,0.2,0,0.2,0.1
					c0.1,0.1,0,0.3-0.1,0.3l-3,2C40.3,293.8,40.3,293.8,40.2,293.8z"/>
				<path class="st1" d="M42.9,293.8c-0.1,0-0.2,0-0.2-0.1c-0.1-0.1,0-0.3,0.1-0.3l3-2c0,0,0.1,0,0.1,0c0.1,0,0.2,0,0.2,0.1
					c0.1,0.1,0,0.3-0.1,0.3l-3,2C43,293.8,42.9,293.8,42.9,293.8z"/>
			</g>
			<g>
				<path class="st1" d="M34.6,256c0.1,0,0.3,0.1,0.3,0.3c0,0.1-0.1,0.2-0.3,0.2h-0.8c-0.4,0-0.8-0.2-1.1-0.5
					c-0.3-0.3-0.5-0.7-0.5-1.1v-2.6v-2.6c0-0.4,0.2-0.8,0.5-1.1c0.3-0.3,0.7-0.5,1.1-0.5h6.5h6.5c0.4,0,0.8,0.2,1.1,0.5
					c0.3,0.3,0.5,0.7,0.5,1.1v2.6v2.6c0,0.4-0.2,0.8-0.5,1.1c-0.3,0.3-0.7,0.5-1.1,0.5h-0.8c-0.1,0-0.3-0.1-0.3-0.2
					c0-0.1,0.1-0.3,0.3-0.3h0.8c0.3,0,0.5-0.1,0.7-0.3c0.2-0.2,0.3-0.4,0.3-0.7v-2.6v-2.6c0-0.3-0.1-0.5-0.3-0.7
					c-0.2-0.2-0.4-0.3-0.7-0.3h-6.5h-6.5c-0.3,0-0.5,0.1-0.7,0.3c-0.2,0.2-0.3,0.4-0.3,0.7v2.6v2.6c0,0.3,0.1,0.5,0.3,0.7
					c0.2,0.2,0.4,0.3,0.7,0.3H34.6L34.6,256z"/>
				<path class="st1" d="M44.9,253.7L44.9,253.7v3.9c0,0.2-0.1,0.5-0.3,0.6l0,0c-0.2,0.2-0.4,0.3-0.6,0.3h-3.7h-3.7
					c-0.2,0-0.5-0.1-0.6-0.3l0,0c-0.2-0.2-0.2-0.4-0.2-0.6v-3.9c0-0.1,0.1-0.3,0.3-0.3h0h8.7C44.8,253.4,44.9,253.5,44.9,253.7
					L44.9,253.7z M44.4,257.5v-3.6h-8.2v3.6c0,0.1,0,0.2,0.1,0.3l0,0c0.1,0.1,0.2,0.1,0.3,0.1h3.7H44c0.1,0,0.2,0,0.3-0.1l0,0
					C44.3,257.7,44.4,257.6,44.4,257.5L44.4,257.5z M35.9,258.1c-0.1-0.1-0.1-0.2,0-0.3L35.9,258.1L35.9,258.1z"/>
				<path class="st1" d="M34.5,249.7c0.2,0,0.4,0.1,0.5,0.2l0,0c0.1,0.1,0.2,0.3,0.2,0.5c0,0.2-0.1,0.4-0.2,0.5
					c-0.1,0.1-0.3,0.2-0.5,0.2c-0.2,0-0.4-0.1-0.5-0.2l0,0c-0.1-0.1-0.2-0.3-0.2-0.5c0-0.2,0.1-0.4,0.2-0.5v0
					C34.1,249.8,34.3,249.7,34.5,249.7L34.5,249.7z M34.6,250.3c0,0-0.1-0.1-0.2-0.1c-0.1,0-0.1,0-0.2,0.1v0c0,0-0.1,0.1-0.1,0.2
					c0,0.1,0,0.1,0.1,0.2l0,0c0,0,0.1,0.1,0.2,0.1c0.1,0,0.1,0,0.2-0.1c0,0,0.1-0.1,0.1-0.2C34.7,250.4,34.7,250.3,34.6,250.3
					L34.6,250.3L34.6,250.3z M33.9,250.9c-0.1-0.1-0.1-0.2,0-0.3L33.9,250.9L33.9,250.9z"/>
				<path class="st1" d="M37.9,256.5c-0.1,0-0.2-0.1-0.2-0.2c0-0.1,0.1-0.3,0.2-0.3h2.4c0.1,0,0.2,0.1,0.2,0.3
					c0,0.1-0.1,0.2-0.2,0.2H37.9L37.9,256.5z M37.9,255.2c-0.1,0-0.2-0.1-0.2-0.2c0-0.1,0.1-0.3,0.2-0.3h4.8c0.1,0,0.2,0.1,0.2,0.3
					c0,0.1-0.1,0.2-0.2,0.2H37.9L37.9,255.2z"/>
				<path class="st1" d="M44.9,247.2c0,0.1-0.1,0.2-0.3,0.2c-0.1,0-0.2-0.1-0.2-0.2v-1.3c0-0.1,0-0.2-0.1-0.3l0,0
					c-0.1-0.1-0.2-0.1-0.3-0.1h-3.7h-3.7c-0.1,0-0.2,0-0.3,0.1l0,0c-0.1,0.1-0.1,0.2-0.1,0.3v1.3c0,0.1-0.1,0.2-0.3,0.2
					c-0.1,0-0.3-0.1-0.3-0.2v-1.3c0-0.2,0.1-0.5,0.2-0.6l0,0c0.2-0.2,0.4-0.3,0.6-0.3h3.7H44c0.2,0,0.5,0.1,0.6,0.3l0,0
					c0.2,0.2,0.3,0.4,0.3,0.6V247.2L44.9,247.2z"/>
				<path class="st1" d="M36.4,250.7c-0.1,0-0.3-0.1-0.3-0.2c0-0.1,0.1-0.3,0.3-0.3h9.7c0.1,0,0.3,0.1,0.3,0.3
					c0,0.1-0.1,0.2-0.3,0.2H36.4L36.4,250.7z"/>
			</g>
			<g>
				<path class="st1" d="M47.6,216.5c0.1,0.1,0.1,0.2,0,0.3c-0.1,0.1-0.2,0.1-0.3,0l-3.5-2.5l-0.2,0.2l-0.4,0.4
					c-0.9,0.9-2.1,0.7-3.3-0.1c-0.4-0.3-0.9-0.6-1.3-1c-0.4-0.4-0.7-0.8-1-1.3c-0.7-1.2-0.9-2.5-0.1-3.3l0.6-0.6l-2.4-3.3l-1.1,1.1
					l0,0l0,0c-0.8,0.8-1.1,2-0.6,3.3c0.5,1.4,1.6,3.1,3.5,5l0.1,0.1l0,0c0.1,0.1,0.2,0.2,0.3,0.3c1.8,1.8,3.4,2.8,4.8,3.3
					c1.3,0.4,2.4,0.2,3.2-0.6l0,0l0,0l0.3-0.3c0.1-0.1,0.2-0.1,0.3,0c0.1,0.1,0.1,0.2,0,0.3l-0.3,0.3v0l0,0l0,0
					c-0.9,0.9-2.2,1.2-3.7,0.7c-1.4-0.4-3.1-1.6-5-3.4c-0.1-0.1-0.2-0.2-0.3-0.3v0l0,0l-0.1-0.1c-1.9-1.9-3.1-3.7-3.6-5.1
					c-0.5-1.5-0.2-2.8,0.7-3.8l0,0l0,0l0,0l1.3-1.3c0,0,0,0,0,0c0.1-0.1,0.2-0.1,0.3,0l2.6,3.6c0.1,0.1,0.1,0.2,0,0.3l-0.7,0.7
					c-0.7,0.7-0.5,1.8,0.1,2.8c0.3,0.4,0.6,0.8,0.9,1.2c0.4,0.4,0.8,0.7,1.2,0.9c1,0.6,2.1,0.8,2.8,0.1l0.4-0.4l0.4-0.4l0,0
					c0.1-0.1,0.2-0.1,0.3,0L47.6,216.5L47.6,216.5z"/>
				<path class="st1" d="M46.6,217.5c0.1,0.1,0.1,0.2,0.1,0.3c-0.1,0.1-0.2,0.1-0.3,0l-0.9-0.7l-0.9-0.7l-0.9-0.7
					c-0.1-0.1-0.1-0.2,0-0.3c0.1-0.1,0.2-0.1,0.3,0l0.9,0.7l0.9,0.7L46.6,217.5L46.6,217.5z"/>
				<path class="st1" d="M34.8,206.2c-0.1-0.1-0.1-0.2,0-0.3c0.1-0.1,0.2,0,0.3,0l0.7,0.9l0.7,0.9l0.7,0.9c0.1,0.1,0.1,0.2,0,0.3
					c-0.1,0.1-0.2,0-0.3,0l-0.7-0.9l-0.7-0.9L34.8,206.2L34.8,206.2z"/>
			</g>
		</g>
	</g>
	<g>
		<g>
			<g>
				<g>
					<path class="st1" d="M43.9,339h-6.9c-0.5,0-0.9-0.4-0.9-0.9v-12.1c0-0.5,0.4-0.9,0.9-0.9h6.9c0.5,0,0.9,0.4,0.9,0.9V338
						C44.9,338.5,44.5,339,43.9,339z M37.1,325.6c-0.2,0-0.3,0.1-0.3,0.3V338c0,0.2,0.1,0.3,0.3,0.3h6.9c0.2,0,0.3-0.1,0.3-0.3
						v-12.1c0-0.2-0.1-0.3-0.3-0.3H37.1z"/>
				</g>
				<circle class="st1" cx="40.5" cy="336.7" r="0.7"/>
				<path class="st1" d="M41.2,326.9h-1.3c-0.1,0-0.2-0.1-0.2-0.2c0-0.1,0.1-0.2,0.2-0.2h1.3c0.1,0,0.2,0.1,0.2,0.2
					C41.4,326.9,41.3,326.9,41.2,326.9z"/>
			</g>
		</g>
	</g>
</g>
<g>
	<g>
		<g>
			<g>
				<path class="st2" d="M61.4,295.1c-0.8,0-1.5-0.7-1.5-1.5v-6.1c0-0.1,0.1-0.2,0.2-0.2s0.2,0.1,0.2,0.2v6.1c0,0.6,0.4,1,1,1h12.2
					c0.6,0,1-0.4,1-1v-7.5c0-0.6-0.4-1-1-1H61.4c-0.1,0-0.2,0-0.3,0.1l-0.2,0.1l5.5,4.2c0.3,0.2,0.7,0.4,1.1,0.4
					c0.4,0,0.8-0.1,1.1-0.3l4.7-3.1c0,0,0.1,0,0.1,0c0.1,0,0.2,0,0.2,0.1c0,0.1,0,0.1,0,0.2c0,0.1-0.1,0.1-0.1,0.2l-4.7,3.1
					c-0.4,0.3-0.9,0.4-1.4,0.4c-0.5,0-1-0.2-1.4-0.5l-5.6-4.3l-0.1-0.1c-0.1-0.1-0.1-0.1-0.1-0.2c0-0.1,0-0.1,0-0.2
					c0,0,0.1-0.1,0.1-0.1c0.3-0.2,0.6-0.4,1-0.4h12.2c0.8,0,1.5,0.7,1.5,1.5v7.5c0,0.8-0.7,1.5-1.5,1.5H61.4z"/>
				<path class="st2" d="M67.4,293.8c-0.1,0-0.2,0-0.2-0.1c-0.1-0.1,0-0.3,0.1-0.3l3-2c0,0,0.1,0,0.1,0c0.1,0,0.2,0,0.2,0.1
					c0.1,0.1,0,0.3-0.1,0.3l-3,2C67.5,293.8,67.5,293.8,67.4,293.8z"/>
				<path class="st2" d="M70.1,293.8c-0.1,0-0.2,0-0.2-0.1c-0.1-0.1,0-0.3,0.1-0.3l3-2c0,0,0.1,0,0.1,0c0.1,0,0.2,0,0.2,0.1
					c0.1,0.1,0,0.3-0.1,0.3l-3,2C70.2,293.8,70.2,293.8,70.1,293.8z"/>
			</g>
			<g>
				<path class="st2" d="M61.9,256c0.1,0,0.3,0.1,0.3,0.3c0,0.1-0.1,0.2-0.3,0.2h-0.8c-0.4,0-0.8-0.2-1.1-0.5
					c-0.3-0.3-0.5-0.7-0.5-1.1v-2.6v-2.6c0-0.4,0.2-0.8,0.5-1.1c0.3-0.3,0.7-0.5,1.1-0.5h6.5H74c0.4,0,0.8,0.2,1.1,0.5
					c0.3,0.3,0.5,0.7,0.5,1.1v2.6v2.6c0,0.4-0.2,0.8-0.5,1.1c-0.3,0.3-0.7,0.5-1.1,0.5h-0.8c-0.1,0-0.3-0.1-0.3-0.2
					c0-0.1,0.1-0.3,0.3-0.3H74c0.3,0,0.5-0.1,0.7-0.3c0.2-0.2,0.3-0.4,0.3-0.7v-2.6v-2.6c0-0.3-0.1-0.5-0.3-0.7
					c-0.2-0.2-0.4-0.3-0.7-0.3h-6.5h-6.5c-0.3,0-0.5,0.1-0.7,0.3c-0.2,0.2-0.3,0.4-0.3,0.7v2.6v2.6c0,0.3,0.1,0.5,0.3,0.7
					c0.2,0.2,0.4,0.3,0.7,0.3H61.9L61.9,256z"/>
				<path class="st2" d="M72.1,253.7L72.1,253.7v3.9c0,0.2-0.1,0.5-0.3,0.6l0,0c-0.2,0.2-0.4,0.3-0.6,0.3h-3.7h-3.7
					c-0.2,0-0.5-0.1-0.6-0.3l0,0c-0.2-0.2-0.2-0.4-0.2-0.6v-3.9c0-0.1,0.1-0.3,0.3-0.3h0h8.7C72,253.4,72.1,253.5,72.1,253.7
					L72.1,253.7z M71.6,257.5v-3.6h-8.2v3.6c0,0.1,0,0.2,0.1,0.3l0,0c0.1,0.1,0.2,0.1,0.3,0.1h3.7h3.7c0.1,0,0.2,0,0.3-0.1l0,0
					C71.6,257.7,71.6,257.6,71.6,257.5L71.6,257.5z M63.1,258.1c-0.1-0.1-0.1-0.2,0-0.3L63.1,258.1L63.1,258.1z"/>
				<path class="st2" d="M61.7,249.7c0.2,0,0.4,0.1,0.5,0.2l0,0c0.1,0.1,0.2,0.3,0.2,0.5c0,0.2-0.1,0.4-0.2,0.5
					c-0.1,0.1-0.3,0.2-0.5,0.2c-0.2,0-0.4-0.1-0.5-0.2l0,0c-0.1-0.1-0.2-0.3-0.2-0.5c0-0.2,0.1-0.4,0.2-0.5v0
					C61.3,249.8,61.5,249.7,61.7,249.7L61.7,249.7z M61.9,250.3c0,0-0.1-0.1-0.2-0.1c-0.1,0-0.1,0-0.2,0.1v0c0,0-0.1,0.1-0.1,0.2
					c0,0.1,0,0.1,0.1,0.2l0,0c0,0,0.1,0.1,0.2,0.1c0.1,0,0.1,0,0.2-0.1c0,0,0.1-0.1,0.1-0.2C61.9,250.4,61.9,250.3,61.9,250.3
					L61.9,250.3L61.9,250.3z M61.2,250.9c-0.1-0.1-0.1-0.2,0-0.3L61.2,250.9L61.2,250.9z"/>
				<path class="st2" d="M65.1,256.5c-0.1,0-0.2-0.1-0.2-0.2c0-0.1,0.1-0.3,0.2-0.3h2.4c0.1,0,0.2,0.1,0.2,0.3
					c0,0.1-0.1,0.2-0.2,0.2H65.1L65.1,256.5z M65.1,255.2c-0.1,0-0.2-0.1-0.2-0.2c0-0.1,0.1-0.3,0.2-0.3h4.8c0.1,0,0.2,0.1,0.2,0.3
					c0,0.1-0.1,0.2-0.2,0.2H65.1L65.1,255.2z"/>
				<path class="st2" d="M72.1,247.2c0,0.1-0.1,0.2-0.3,0.2c-0.1,0-0.2-0.1-0.2-0.2v-1.3c0-0.1,0-0.2-0.1-0.3l0,0
					c-0.1-0.1-0.2-0.1-0.3-0.1h-3.7h-3.7c-0.1,0-0.2,0-0.3,0.1l0,0c-0.1,0.1-0.1,0.2-0.1,0.3v1.3c0,0.1-0.1,0.2-0.3,0.2
					c-0.1,0-0.3-0.1-0.3-0.2v-1.3c0-0.2,0.1-0.5,0.2-0.6l0,0c0.2-0.2,0.4-0.3,0.6-0.3h3.7h3.7c0.2,0,0.5,0.1,0.6,0.3l0,0
					c0.2,0.2,0.3,0.4,0.3,0.6V247.2L72.1,247.2z"/>
				<path class="st2" d="M63.6,250.7c-0.1,0-0.3-0.1-0.3-0.2c0-0.1,0.1-0.3,0.3-0.3h9.7c0.1,0,0.3,0.1,0.3,0.3
					c0,0.1-0.1,0.2-0.3,0.2H63.6L63.6,250.7z"/>
			</g>
			<g>
				<path class="st2" d="M74.8,216.5c0.1,0.1,0.1,0.2,0,0.3c-0.1,0.1-0.2,0.1-0.3,0l-3.5-2.5l-0.2,0.2l-0.4,0.4
					c-0.9,0.9-2.1,0.7-3.3-0.1c-0.4-0.3-0.9-0.6-1.3-1c-0.4-0.4-0.7-0.8-1-1.3c-0.7-1.2-0.9-2.5-0.1-3.3l0.6-0.6l-2.4-3.3l-1.1,1.1
					l0,0l0,0c-0.8,0.8-1.1,2-0.6,3.3c0.5,1.4,1.6,3.1,3.5,5l0.1,0.1l0,0c0.1,0.1,0.2,0.2,0.3,0.3c1.8,1.8,3.4,2.8,4.8,3.3
					c1.3,0.4,2.4,0.2,3.2-0.6l0,0l0,0l0.3-0.3c0.1-0.1,0.2-0.1,0.3,0c0.1,0.1,0.1,0.2,0,0.3l-0.3,0.3v0l0,0l0,0
					c-0.9,0.9-2.2,1.2-3.7,0.7c-1.4-0.4-3.1-1.6-5-3.4c-0.1-0.1-0.2-0.2-0.3-0.3v0l0,0l-0.1-0.1c-1.9-1.9-3.1-3.7-3.6-5.1
					c-0.5-1.5-0.2-2.8,0.7-3.8l0,0l0,0l0,0l1.3-1.3c0,0,0,0,0,0c0.1-0.1,0.2-0.1,0.3,0l2.6,3.6c0.1,0.1,0.1,0.2,0,0.3l-0.7,0.7
					c-0.7,0.7-0.5,1.8,0.1,2.8c0.3,0.4,0.6,0.8,0.9,1.2c0.4,0.4,0.8,0.7,1.2,0.9c1,0.6,2.1,0.8,2.8,0.1l0.4-0.4l0.4-0.4l0,0
					c0.1-0.1,0.2-0.1,0.3,0L74.8,216.5L74.8,216.5z"/>
				<path class="st2" d="M73.9,217.5c0.1,0.1,0.1,0.2,0.1,0.3c-0.1,0.1-0.2,0.1-0.3,0l-0.9-0.7l-0.9-0.7l-0.9-0.7
					c-0.1-0.1-0.1-0.2,0-0.3c0.1-0.1,0.2-0.1,0.3,0l0.9,0.7l0.9,0.7L73.9,217.5L73.9,217.5z"/>
				<path class="st2" d="M62,206.2c-0.1-0.1-0.1-0.2,0-0.3c0.1-0.1,0.2,0,0.3,0l0.7,0.9l0.7,0.9l0.7,0.9c0.1,0.1,0.1,0.2,0,0.3
					c-0.1,0.1-0.2,0-0.3,0l-0.7-0.9l-0.7-0.9L62,206.2L62,206.2z"/>
			</g>
		</g>
	</g>
	<g>
		<g>
			<g>
				<g>
					<path class="st2" d="M71.2,339h-6.9c-0.5,0-0.9-0.4-0.9-0.9v-12.1c0-0.5,0.4-0.9,0.9-0.9h6.9c0.5,0,0.9,0.4,0.9,0.9V338
						C72.1,338.5,71.7,339,71.2,339z M64.3,325.6c-0.2,0-0.3,0.1-0.3,0.3V338c0,0.2,0.1,0.3,0.3,0.3h6.9c0.2,0,0.3-0.1,0.3-0.3
						v-12.1c0-0.2-0.1-0.3-0.3-0.3H64.3z"/>
				</g>
				<circle class="st2" cx="67.7" cy="336.7" r="0.7"/>
				<path class="st2" d="M68.4,326.9h-1.3c-0.1,0-0.2-0.1-0.2-0.2c0-0.1,0.1-0.2,0.2-0.2h1.3c0.1,0,0.2,0.1,0.2,0.2
					C68.6,326.9,68.5,326.9,68.4,326.9z"/>
			</g>
		</g>
	</g>
</g>
<g>
	<path class="st1" d="M65.7,26.1c-0.3,0-0.5-0.2-0.5-0.5l0-0.3c0-1.5-0.5-3-1.3-4.3c-1.2-1.8-3-3.3-5.2-4.1c-0.4-0.1-0.7-0.5-0.8-1
		c-0.1-0.4,0.1-0.9,0.4-1.2c1.2-1.1,1.9-2.6,1.9-4.2c0-3.1-2.5-5.6-5.6-5.6c-3.1,0-5.6,2.5-5.6,5.6c0,1.7,0.7,3.3,2,4.3
		c0.3,0.3,0.5,0.7,0.4,1.2c-0.1,0.4-0.4,0.8-0.8,1c-3.6,1.4-6,4.5-6.2,7.9h15.8c0.3,0,0.5,0.2,0.5,0.5c0,0.3-0.2,0.5-0.5,0.5H43.8
		c-0.1,0-0.3-0.1-0.4-0.2c-0.1-0.1-0.2-0.2-0.2-0.4l0-0.3c0.1-4,2.8-7.6,6.9-9.2c0.1,0,0.1-0.1,0.1-0.1c0-0.1,0-0.1-0.1-0.2
		c-1.5-1.3-2.4-3.2-2.4-5.2c0-3.7,3-6.7,6.7-6.7c3.7,0,6.7,3,6.7,6.7c0,1.9-0.8,3.8-2.3,5c0,0-0.1,0.1-0.1,0.2
		c0,0.1,0.1,0.1,0.1,0.1c2.4,0.9,4.5,2.5,5.8,4.5c0.9,1.5,1.4,3.1,1.5,4.8l0,0.3C66.2,25.9,66,26.1,65.7,26.1L65.7,26.1z"/>
	<g>
		<g>
			<path class="st3" d="M51,60.3c0.2-0.1,0.4-0.2,0.6,0c0.2,0.1,0.2,0.4,0,0.6l-2,2c-0.2,0.2-0.4,0.2-0.6,0
				c-0.1-0.1-0.1-0.2-0.1-0.3l0,0v-6.3c0-0.1,0.1-0.3,0.2-0.3l14.2-9.5c0.2-0.1,0.4-0.1,0.5,0.1c0.1,0.2,0.1,0.4-0.1,0.5l-14,9.4
				v5.2L51,60.3z"/>
			<path class="st3" d="M50.6,58.1c-0.2-0.1-0.1-0.4,0-0.6c0.2-0.1,0.4-0.1,0.6,0l4.4,4.4l12.3-17.7v-0.1l-23.3,6.8l5.1,5.1
				c0.2,0.2,0.2,0.4,0,0.6c-0.2,0.2-0.4,0.2-0.6,0L43.5,51l0,0c0,0-0.1-0.1-0.1-0.2c-0.1-0.2,0.1-0.4,0.3-0.5l24.5-7.1
				c0,0,0.1,0,0.1,0c0.2,0,0.4,0.2,0.4,0.4v0.8l0,0c0,0.1,0,0.2-0.1,0.2L55.9,62.8l0,0c0,0,0,0,0,0.1c-0.2,0.2-0.4,0.2-0.6,0
				L50.6,58.1z"/>
		</g>
	</g>
	<g>
		<g>
			<path class="st1" d="M68.6,102.8c0.2,0.1,0.2,0.4,0.1,0.6c-0.1,0.2-0.4,0.2-0.6,0.1l-6.2-4.6l-0.4,0.4l-0.6,0.6
				c-1.5,1.5-3.8,1.2-6-0.1c-0.8-0.5-1.6-1.1-2.2-1.8c-0.7-0.7-1.3-1.5-1.8-2.3c-1.3-2.1-1.7-4.4-0.1-5.9l1.1-1.1l-4.3-5.8l-1.9,1.9
				l0,0l0,0c-1.5,1.5-1.9,3.5-1.1,6c0.8,2.5,2.9,5.5,6.2,8.9l0.1,0.1l0,0c0.2,0.2,0.4,0.4,0.6,0.6c3.3,3.2,6.2,5.1,8.6,5.9
				c2.4,0.7,4.3,0.3,5.8-1.1l0,0l0.1,0l0.5-0.5c0.2-0.2,0.4-0.2,0.6,0c0.2,0.2,0.2,0.4,0,0.6l-0.5,0.5l0,0l-0.1,0l0,0
				c-1.7,1.7-3.9,2.1-6.6,1.3c-2.6-0.8-5.6-2.8-8.9-6c-0.2-0.2-0.4-0.4-0.6-0.6l0,0l0,0l-0.1-0.1c-3.4-3.5-5.6-6.6-6.4-9.2
				c-0.9-2.8-0.4-5,1.3-6.8l0,0l0,0l0,0l2.3-2.2c0,0,0,0,0,0c0.2-0.1,0.4-0.1,0.6,0.1l4.7,6.5c0.1,0.2,0.1,0.4,0,0.5l-1.3,1.3
				c-1.2,1.2-0.9,3.1,0.3,5c0.4,0.7,1,1.5,1.7,2.1c0.7,0.6,1.4,1.2,2.1,1.7c1.8,1.1,3.7,1.4,5,0.2l0.6-0.6l0.6-0.6v0
				c0.1-0.1,0.4-0.2,0.5,0L68.6,102.8L68.6,102.8z"/>
			<path class="st1" d="M66.9,104.5c0.2,0.1,0.2,0.4,0.1,0.6c-0.1,0.2-0.4,0.2-0.6,0.1l-1.6-1.2l-1.6-1.2l-1.6-1.2
				c-0.2-0.1-0.2-0.4-0.1-0.6c0.1-0.2,0.4-0.2,0.6-0.1l1.6,1.2l1.6,1.2L66.9,104.5L66.9,104.5z"/>
			<path class="st1" d="M45.5,84.3c-0.1-0.2-0.1-0.4,0.1-0.6c0.2-0.1,0.4-0.1,0.6,0.1l1.2,1.6l1.2,1.6l1.2,1.6
				c0.1,0.2,0.1,0.4-0.1,0.6c-0.2,0.1-0.4,0.1-0.6-0.1l-1.2-1.6l-1.2-1.6L45.5,84.3L45.5,84.3z"/>
		</g>
	</g>
	<g>
		<g>
			<path class="st1" d="M45.4,180c-1.2,0-2.3-1-2.3-2.3v-9.2c0-0.2,0.2-0.4,0.4-0.4c0.2,0,0.4,0.2,0.4,0.4v9.2
				c0,0.8,0.7,1.5,1.5,1.5h18.5c0.8,0,1.5-0.7,1.5-1.5v-11.4c0-0.8-0.7-1.5-1.5-1.5H45.4c-0.2,0-0.3,0.1-0.5,0.1l-0.2,0.1l8.3,6.4
				c0.5,0.4,1.1,0.6,1.7,0.6c0.6,0,1.2-0.2,1.7-0.5l7.2-4.7c0.1,0,0.1-0.1,0.2-0.1c0.1,0,0.2,0.1,0.3,0.2c0.1,0.1,0.1,0.2,0.1,0.3
				c0,0.1-0.1,0.2-0.2,0.2l-7.2,4.7c-0.6,0.4-1.3,0.6-2.1,0.6c-0.8,0-1.6-0.2-2.2-0.7l-8.5-6.6l-0.2-0.1c-0.1-0.1-0.1-0.2-0.1-0.3
				c0-0.1,0-0.2,0.1-0.3c0-0.1,0.1-0.1,0.2-0.1c0.5-0.4,1-0.5,1.5-0.5h18.5c1.2,0,2.3,1,2.3,2.3v11.4c0,1.2-1,2.3-2.3,2.3H45.4z"/>
			<path class="st1" d="M54.6,178c-0.1,0-0.2-0.1-0.3-0.2c-0.1-0.2-0.1-0.4,0.1-0.5l4.5-3c0.1,0,0.1-0.1,0.2-0.1
				c0.1,0,0.2,0.1,0.3,0.2c0.1,0.2,0.1,0.4-0.1,0.5l-4.5,3C54.8,178,54.7,178,54.6,178z"/>
			<path class="st1" d="M58.7,178c-0.1,0-0.2-0.1-0.3-0.2c-0.1-0.2-0.1-0.4,0.1-0.5l4.5-3c0.1,0,0.1-0.1,0.2-0.1
				c0.1,0,0.2,0.1,0.3,0.2c0.1,0.2,0.1,0.4-0.1,0.5l-4.5,3C58.8,178,58.7,178,58.7,178z"/>
		</g>
	</g>
	<g>
		<g>
			<g>
				<g>
					<path class="st1" d="M48.2,127.3c0.4-0.4,0.9-0.6,1.5-0.6c0.5,0,1.1,0.2,1.5,0.6c0.4,0.4,0.6,0.9,0.6,1.5
						c0,0.5-0.2,1.1-0.6,1.5c-0.4,0.4-0.9,0.6-1.5,0.6c-0.5,0-1.1-0.2-1.5-0.6c-0.4-0.4-0.6-0.9-0.6-1.5
						C47.6,128.3,47.8,127.7,48.2,127.3L48.2,127.3z M49.7,127.5c-0.3,0-0.6,0.1-0.9,0.4s-0.4,0.6-0.4,0.9c0,0.3,0.1,0.6,0.4,0.9
						c0.2,0.2,0.6,0.4,0.9,0.4c0.3,0,0.6-0.1,0.9-0.4c0.2-0.2,0.4-0.6,0.4-0.9c0-0.3-0.1-0.6-0.4-0.9
						C50.3,127.7,50,127.5,49.7,127.5L49.7,127.5z"/>
				</g>
			</g>
			<g>
				<path class="st1" d="M52.6,138c-0.2,0.2-0.4,0.2-0.6,0c-0.2-0.2-0.2-0.4,0-0.6l6.3-6.3c0.2-0.2,0.4-0.2,0.6,0
					c0.2,0.2,0.2,0.4,0,0.6L52.6,138L52.6,138z"/>
			</g>
			<g>
				<path class="st1" d="M54.5,139.8c-0.2,0.2-0.4,0.2-0.6,0c-0.2-0.2-0.2-0.4,0-0.6l6.2-6.3c0.2-0.2,0.4-0.2,0.6,0
					c0.2,0.2,0.2,0.4,0,0.6L54.5,139.8L54.5,139.8z"/>
			</g>
			<g>
				<path class="st1" d="M56.3,141.7c-0.2,0.2-0.4,0.2-0.6,0c-0.2-0.2-0.2-0.4,0-0.6l6.2-6.3c0.2-0.2,0.4-0.2,0.6,0
					c0.2,0.2,0.2,0.4,0,0.6L56.3,141.7L56.3,141.7z"/>
			</g>
			<g>
				<path class="st1" d="M58.2,143.5c-0.2,0.2-0.4,0.2-0.6,0c-0.2-0.2-0.2-0.4,0-0.6l3.5-3.5c0.2-0.2,0.4-0.2,0.6,0
					c0.2,0.2,0.2,0.4,0,0.6L58.2,143.5L58.2,143.5z"/>
			</g>
			<g>
				<path class="st1" d="M50.8,136.1c-0.2,0.2-0.4,0.2-0.6,0c-0.2-0.2-0.2-0.4,0-0.6l6.3-6.2c0.2-0.2,0.4-0.2,0.6,0
					c0.2,0.2,0.2,0.4,0,0.6L50.8,136.1L50.8,136.1z"/>
			</g>
			<g>
				<path class="st1" d="M45,124.5c-0.2,0-0.4-0.2-0.4-0.4c0-0.2,0.2-0.4,0.4-0.4l7.8,0c3.3,0,3.3,0,5,1.7l10.9,10.9
					c0.3,0.3,0.4,0.7,0.4,1.1c0,0.4-0.1,0.8-0.4,1.1l-4.7,4.7l-4.7,4.7c-0.3,0.3-0.7,0.4-1.1,0.4c-0.4,0-0.8-0.1-1.1-0.4l-10.9-10.9
					c-0.4-0.4-0.7-0.7-0.9-1c-0.1-0.2-0.2-0.3-0.3-0.4c-0.1-0.2-0.2-0.3-0.2-0.5l0,0c-0.1-0.2-0.1-0.3-0.1-0.6c0-0.2,0-0.4-0.1-0.7
					c0-0.5,0-1.1,0-1.8v0l0-2v-2l0-2c0-0.2,0.2-0.4,0.4-0.4c0.2,0,0.4,0.2,0.4,0.4v2l0,2l0,2v0c0,0.8,0,1.4,0,1.8
					c0,0.2,0,0.4,0.1,0.6c0,0.2,0.1,0.3,0.1,0.4l0,0l0,0c0,0.1,0.1,0.2,0.2,0.3c0.1,0.1,0.1,0.2,0.2,0.3c0.2,0.2,0.5,0.5,0.9,0.9
					l10.9,10.9c0.1,0.1,0.3,0.2,0.5,0.2c0.2,0,0.4-0.1,0.5-0.2l4.7-4.7l4.7-4.7c0.1-0.1,0.2-0.3,0.2-0.5c0-0.2-0.1-0.4-0.2-0.5
					l-10.9-10.9c-1.4-1.4-1.4-1.4-4.4-1.4H45L45,124.5z"/>
			</g>
		</g>
	</g>
</g>
</svg>
