<?xml version="1.0" encoding="utf-8"?>
<!-- Generator: Adobe Illustrator 17.0.0, SVG Export Plug-In . SVG Version: 6.00 Build 0)  -->
<!DOCTYPE svg PUBLIC "-//W3C//DTD SVG 1.1//EN" "http://www.w3.org/Graphics/SVG/1.1/DTD/svg11.dtd">
<svg version="1.1" id="Layer_1" xmlns="http://www.w3.org/2000/svg" xmlns:xlink="http://www.w3.org/1999/xlink" x="0px" y="0px"
	 width="400px" height="237px" viewBox="0 0 400 237" style="enable-background:new 0 0 400 237;" xml:space="preserve">
<style type="text/css">
	.st0{fill:none;stroke:#231F20;stroke-width:2.9881;stroke-linecap:round;stroke-linejoin:round;stroke-miterlimit:10;}
	.st1{fill:none;stroke:#231F20;stroke-width:1.9921;stroke-linecap:round;stroke-linejoin:round;stroke-miterlimit:10;}
	.st2{fill:#231F20;}
</style>
<g>
	<g>
		<g>
			<polyline class="st0" points="234.9,94.3 263.2,115.6 262.8,96.5 221.7,67.2 225.4,104.3 274.5,143.3 323.6,104.3 329.2,48.7 
				274.5,19.3 219.9,48.7 			"/>
			<g>
				<line class="st1" x1="274.5" y1="85.6" x2="229" y2="54.9"/>
				<line class="st1" x1="274.5" y1="85.6" x2="320" y2="54.9"/>
				<line class="st1" x1="247.5" y1="44.8" x2="283.6" y2="67.6"/>
				<line class="st1" x1="256.3" y1="73.3" x2="301.5" y2="44.8"/>
				<line class="st1" x1="247.8" y1="55.3" x2="292.7" y2="29.1"/>
				<line class="st1" x1="280.7" y1="43.3" x2="310.9" y2="61"/>
				<line class="st1" x1="256.3" y1="29.1" x2="274.5" y2="39.7"/>
				<line class="st1" x1="274.5" y1="85.6" x2="274.5" y2="143.3"/>
			</g>
		</g>
	</g>
	<g>
		<g>
			<g>
				<g>
					<path class="st2" d="M53.2,195.5c-3.2,0-5.7-0.9-7.6-2.7c-1.9-1.8-2.8-4.3-2.8-7.5v-31.6c0-3.2,0.9-5.7,2.8-7.5
						c1.9-1.8,4.4-2.7,7.6-2.7h14.4c3.2,0,5.7,0.9,7.6,2.7c1.9,1.8,2.8,4.3,2.8,7.5v5.5h-5.2v-5.6c0-1.7-0.4-2.9-1.4-3.9
						c-0.9-1-2.2-1.5-3.7-1.5H53.4c-1.6,0-2.8,0.5-3.7,1.5c-0.9,1-1.4,2.3-1.4,3.9v31.9c0,1.7,0.5,2.9,1.4,3.9
						c0.9,1,2.2,1.5,3.8,1.5h14.4c1.6,0,2.9-0.5,3.8-1.5c0.9-1,1.4-2.3,1.4-3.9v-5.6h5.2v5.5c0,3.2-0.9,5.7-2.8,7.5
						c-1.9,1.8-4.4,2.7-7.6,2.7H53.2z"/>
					<path class="st2" d="M124.2,185.3c0,3.2-0.9,5.7-2.8,7.5c-1.9,1.8-4.4,2.7-7.6,2.7H99.3c-3.2,0-5.7-0.9-7.6-2.7
						c-1.9-1.8-2.8-4.3-2.8-7.5v-41.6h5.2v41.8c0,1.7,0.5,2.9,1.4,3.9c0.9,1,2.2,1.5,3.8,1.5h14.5c1.6,0,2.9-0.5,3.8-1.5
						c0.9-1,1.4-2.3,1.4-3.9v-41.8h5.2V185.3z"/>
					<path class="st2" d="M161.2,143.7c3.2,0,5.7,0.9,7.5,2.7c1.8,1.8,2.7,4.3,2.7,7.5v7.2c0,3.5-1.6,6.1-4.7,7.8
						c1.4,0.5,2.7,1.4,3.7,2.9c1.1,1.4,1.6,3.1,1.6,5v8.3c0,3.2-0.9,5.7-2.7,7.5c-1.8,1.8-4.3,2.7-7.5,2.7h-24.6v-51.7L161.2,143.7z
						 M161.5,190.6c1.6,0,2.9-0.5,3.8-1.5c0.9-1,1.4-2.3,1.4-3.9v-8.6c0-1.7-0.4-3-1.4-3.9c-0.9-0.9-2.5-1.4-4.7-1.4h-18.4v19.4
						H161.5z M160.6,166.6c2.2,0,3.7-0.4,4.5-1.2c0.8-0.8,1.1-2.2,1.1-4.1v-7.4c0-1.7-0.4-2.9-1.4-3.9c-0.9-1-2.2-1.5-3.7-1.5h-18.8
						v18.2H160.6z"/>
					<path class="st2" d="M216.1,143.6v4.7h-26.6v18.2h22.5v4.7h-22.5v19.3h26.6v4.7h-31.8v-51.7H216.1z"/>
				</g>
			</g>
			<g>
				<path class="st2" d="M245.8,185.2c0,1.4-0.4,2.4-1.2,3.3c-0.8,0.9-1.8,1.3-3.1,1.3h-9h-2v5.5h1.2h10.4c3,0,5.5-0.9,7.3-2.7
					c1.9-1.9,2.8-4.3,2.8-7.3v-2.4h-6.5V185.2z"/>
				<path class="st2" d="M250.5,158.7c-1.9-1.9-4.3-2.8-7.3-2.8h-10.4h-1.2v5.6h2h9c1.3,0,2.3,0.4,3.1,1.3c0.8,0.9,1.2,1.9,1.2,3.3
					v6.2h-15.2v5.1h21.7V166C253.3,163,252.4,160.6,250.5,158.7z"/>
			</g>
			<g>
				<path class="st2" d="M278.2,195.4h-7.9l-13-39.4h7.2l9.9,33.9l9.9-33.9h6.9L278.2,195.4z"/>
				<path class="st2" d="M316.6,156c3,0,5.5,0.9,7.3,2.8c1.9,1.9,2.8,4.3,2.8,7.3v19.2c0,3-0.9,5.5-2.8,7.3
					c-1.9,1.9-4.3,2.7-7.3,2.7h-10.8c-3,0-5.5-0.9-7.3-2.7c-1.9-1.9-2.8-4.3-2.8-7.3v-19.2c0-3,0.9-5.5,2.8-7.3
					c1.9-1.9,4.3-2.8,7.3-2.8H316.6z M320.1,166.1c0-1.3-0.4-2.4-1.1-3.2c-0.8-0.9-1.8-1.3-3.1-1.3h-9.4c-1.3,0-2.3,0.4-3.1,1.3
					c-0.8,0.9-1.1,1.9-1.1,3.2v19.1c0,1.3,0.4,2.4,1.1,3.2c0.8,0.9,1.8,1.3,3.1,1.3h9.4c1.3,0,2.3-0.4,3.1-1.3
					c0.8-0.9,1.1-1.9,1.1-3.2V166.1z"/>
			</g>
		</g>
		<g>
			<path class="st2" d="M48,207.5v0.5h-2.4v7.5H45v-7.5h-2.4v-0.5H48z"/>
			<path class="st2" d="M51.9,212.1v3.5h-0.6v-8h2.7c1.3,0,2.4,0.7,2.4,2.3c0,1.3-0.8,2-1.8,2.2l2.1,3.6h-0.6l-2-3.5H51.9z
				 M53.9,208.1h-2v3.5h2c1.1,0,2-0.6,2-1.7C55.9,208.6,55.1,208.1,53.9,208.1z"/>
			<path class="st2" d="M62.7,207.5l2.8,8h-0.6l-0.7-2.1h-3.5l-0.7,2.1h-0.6l2.8-8H62.7z M60.9,212.9H64l-1.6-4.6L60.9,212.9z"/>
			<path class="st2" d="M69.3,207.5l4.4,7v-7h0.6v8h-0.6l-4.4-7v7h-0.6v-8H69.3z"/>
			<path class="st2" d="M80.9,215.7c-1.5,0-2.5-0.9-2.9-2.2l0.6-0.1c0.3,1.1,1.1,1.8,2.3,1.8c1.3,0,2-0.7,2-1.6c0-1-0.6-1.5-1.8-1.7
				l-0.7-0.1c-1.5-0.3-2.2-1-2.2-2.2c0-1.1,0.8-2.1,2.4-2.1c1.4,0,2.3,0.8,2.6,2.1l-0.6,0.1c-0.2-0.9-0.9-1.6-2.1-1.6
				c-1.2,0-1.8,0.7-1.8,1.5c0,0.9,0.5,1.5,1.7,1.7l0.7,0.1c1.6,0.3,2.3,1.1,2.3,2.3C83.4,214.7,82.5,215.7,80.9,215.7z"/>
			<path class="st2" d="M87.2,215.6v-8h4.6v0.5h-4v3.2h3.7v0.5h-3.7v3.8H87.2z"/>
			<path class="st2" d="M95.2,212.6v-2c0-1.9,1.1-3.1,2.7-3.1c1.6,0,2.7,1.3,2.7,3.1v2c0,1.9-1.1,3.1-2.7,3.1
				C96.3,215.7,95.2,214.4,95.2,212.6z M100,212.5v-1.8c0-1.7-0.8-2.7-2.1-2.7c-1.3,0-2.1,1-2.1,2.7v1.8c0,1.7,0.8,2.7,2.1,2.7
				C99.2,215.2,100,214.2,100,212.5z"/>
			<path class="st2" d="M105,212.1v3.5h-0.6v-8h2.7c1.3,0,2.4,0.7,2.4,2.3c0,1.3-0.8,2-1.8,2.2l2.1,3.6h-0.6l-2-3.5H105z M107,208.1
				h-2v3.5h2c1.1,0,2-0.6,2-1.7C109,208.6,108.2,208.1,107,208.1z"/>
			<path class="st2" d="M116.4,213.3l-2.6-4.6v6.9h-0.6v-8h0.5l2.8,5.1l2.8-5.1h0.5v8h-0.6v-6.9l-2.6,4.6H116.4z"/>
			<path class="st2" d="M124.7,215.6h-0.6v-8h0.6V215.6z"/>
			<path class="st2" d="M129.3,207.5l4.4,7v-7h0.6v8h-0.6l-4.4-7v7h-0.6v-8H129.3z"/>
			<path class="st2" d="M143,212.6v-0.5h-2.1v-0.5h2.7v1.1c0,1.9-1.1,3.1-2.7,3.1c-1.6,0-2.7-1.3-2.7-3.1v-2c0-1.9,1.1-3.1,2.7-3.1
				c1.4,0,2.5,0.9,2.7,2.4l-0.6,0.1c-0.2-1.3-1-2-2.1-2c-1.3,0-2.1,1-2.1,2.7v1.8c0,1.7,0.8,2.7,2.2,2.7
				C142.2,215.2,143,214.2,143,212.6z"/>
			<path class="st2" d="M152.7,215.6v-8h2.5c1.2,0,2.4,0.6,2.4,2.1c0,1-0.5,1.5-1.2,1.8c0.8,0.2,1.4,0.9,1.4,2
				c0,1.5-1.1,2.2-2.4,2.2H152.7z M155.1,211.2c1.1,0,1.8-0.5,1.8-1.5c0-1.2-0.8-1.6-2-1.6h-1.8v3.1H155.1z M155.3,211.7h-2v3.4h2
				c1.2,0,1.9-0.6,1.9-1.7C157.2,212.3,156.5,211.7,155.3,211.7z"/>
			<path class="st2" d="M162.1,212.1v3.5h-0.6v-8h2.7c1.3,0,2.4,0.7,2.4,2.3c0,1.3-0.8,2-1.8,2.2l2.1,3.6h-0.6l-2-3.5H162.1z
				 M164.1,208.1h-2v3.5h2c1.1,0,2-0.6,2-1.7C166,208.6,165.2,208.1,164.1,208.1z"/>
			<path class="st2" d="M172.9,207.5l2.8,8H175l-0.7-2.1h-3.5l-0.7,2.1h-0.6l2.8-8H172.9z M171,212.9h3.1l-1.6-4.6L171,212.9z"/>
			<path class="st2" d="M179.5,207.5l4.4,7v-7h0.6v8h-0.6l-4.4-7v7h-0.6v-8H179.5z"/>
			<path class="st2" d="M193.6,212.6c0,1.9-1.1,3-2.7,3h-2.4v-8h2.4c1.6,0,2.7,1.1,2.7,3V212.6z M193,210.6c0-1.7-0.9-2.6-2.2-2.6
				h-1.7v7h1.7c1.3,0,2.2-0.8,2.2-2.6V210.6z"/>
			<path class="st2" d="M200,215.7c-1.5,0-2.5-0.9-2.9-2.2l0.6-0.1c0.3,1.1,1.1,1.8,2.3,1.8c1.3,0,2-0.7,2-1.6c0-1-0.6-1.5-1.8-1.7
				l-0.7-0.1c-1.5-0.3-2.2-1-2.2-2.2c0-1.1,0.8-2.1,2.4-2.1c1.4,0,2.3,0.8,2.6,2.1l-0.6,0.1c-0.2-0.9-0.9-1.6-2.1-1.6
				c-1.2,0-1.8,0.7-1.8,1.5c0,0.9,0.5,1.5,1.7,1.7l0.7,0.1c1.6,0.3,2.3,1.1,2.3,2.3C202.6,214.7,201.7,215.7,200,215.7z"/>
			<path class="st2" d="M212.1,215.6h-0.6v-8h0.6V215.6z"/>
			<path class="st2" d="M216.8,207.5l4.4,7v-7h0.6v8h-0.6l-4.4-7v7h-0.6v-8H216.8z"/>
			<path class="st2" d="M230.5,207.5v0.5h-2.4v7.5h-0.6v-7.5h-2.4v-0.5H230.5z"/>
			<path class="st2" d="M233.3,212.6v-2c0-1.9,1.1-3.1,2.7-3.1c1.6,0,2.7,1.3,2.7,3.1v2c0,1.9-1.1,3.1-2.7,3.1
				C234.4,215.7,233.3,214.4,233.3,212.6z M238.2,212.5v-1.8c0-1.7-0.8-2.7-2.1-2.7c-1.3,0-2.1,1-2.1,2.7v1.8c0,1.7,0.8,2.7,2.1,2.7
				C237.3,215.2,238.2,214.2,238.2,212.5z"/>
			<path class="st2" d="M248.4,212.2v3.4h-0.6v-8h2.7c1.3,0,2.4,0.7,2.4,2.3c0,1.6-1.2,2.3-2.4,2.3H248.4z M250.4,208.1h-2v3.6h2
				c1.1,0,2-0.6,2-1.8C252.4,208.6,251.6,208.1,250.4,208.1z"/>
			<path class="st2" d="M256.7,215.6v-8h4.6v0.5h-4v3.1h3.6v0.5h-3.6v3.4h4v0.5H256.7z"/>
			<path class="st2" d="M265.7,212.1v3.5h-0.6v-8h2.7c1.3,0,2.4,0.7,2.4,2.3c0,1.3-0.8,2-1.8,2.2l2.1,3.6h-0.6l-2-3.5H265.7z
				 M267.7,208.1h-2v3.5h2c1.1,0,2-0.6,2-1.7C269.6,208.6,268.8,208.1,267.7,208.1z"/>
			<path class="st2" d="M273.9,215.6v-8h4.6v0.5h-4v3.2h3.7v0.5h-3.7v3.8H273.9z"/>
			<path class="st2" d="M282.2,215.6v-8h4.6v0.5h-4v3.1h3.6v0.5h-3.6v3.4h4v0.5H282.2z"/>
			<path class="st2" d="M290.4,210.6c0-1.9,1.1-3.1,2.7-3.1c1.4,0,2.5,0.9,2.7,2.4l-0.6,0.1c-0.2-1.3-1-2-2.1-2
				c-1.3,0-2.1,1-2.1,2.7v1.8c0,1.7,0.8,2.7,2.1,2.7c1.1,0,1.9-0.7,2.1-2l0.6,0.1c-0.2,1.5-1.3,2.4-2.7,2.4c-1.6,0-2.7-1.3-2.7-3.1
				V210.6z"/>
			<path class="st2" d="M304.1,207.5v0.5h-2.4v7.5h-0.6v-7.5h-2.4v-0.5H304.1z"/>
			<path class="st2" d="M308,215.6h-0.6v-8h0.6V215.6z"/>
			<path class="st2" d="M311.9,212.6v-2c0-1.9,1.1-3.1,2.7-3.1c1.6,0,2.7,1.3,2.7,3.1v2c0,1.9-1.1,3.1-2.7,3.1
				C312.9,215.7,311.9,214.4,311.9,212.6z M316.7,212.5v-1.8c0-1.7-0.8-2.7-2.1-2.7c-1.3,0-2.1,1-2.1,2.7v1.8c0,1.7,0.8,2.7,2.1,2.7
				C315.9,215.2,316.7,214.2,316.7,212.5z"/>
			<path class="st2" d="M321.7,207.5l4.4,7v-7h0.6v8h-0.6l-4.4-7v7h-0.6v-8H321.7z"/>
		</g>
		<g>
			<g>
				<g>
					<polygon class="st2" points="353.6,181 353.6,180.5 353.6,179.1 351.7,179.1 351.7,180.5 344.8,180.5 344.8,181.6 353.6,181.6 
											"/>
					<path class="st2" d="M357.2,183.2v1.3h-18v1.2h4.9v7.2c0,4.1-1.2,7.7-3.4,10.1l-0.3,0.4h1.7l0.1-0.1c2-2.2,3.9-4.9,3.9-10.3v-2
						h10.3v5.8c0,4.1-1.2,7.7-3.4,10.1l-0.3,0.4h1.8l0.1-0.1c1.9-2.2,3.8-4.8,3.8-10.3v-7.7h-1.9v0.8h-10.3v-4h13.2v-0.6v-0.6v-1.3
						H357.2z"/>
				</g>
				<g>
					<polygon class="st2" points="354.5,157.9 354.5,157.3 354.5,155.9 352.6,155.9 352.6,157.3 345.7,157.3 345.7,158.4 
						354.5,158.4 					"/>
					<polygon class="st2" points="346.7,162.9 345.3,165 347.8,171 349.3,171 					"/>
					<polygon class="st2" points="355.1,164.5 353.6,162.6 350.5,172 350.4,172.3 351.9,172.3 355.1,164.6 					"/>
					<polygon class="st2" points="358.3,173 340.3,173 340.3,174.2 360.3,174.2 360.3,173.6 360.3,173 360.3,171.7 358.3,171.7 
											"/>
					<polygon class="st2" points="358.3,159.9 358.3,161.3 340.3,161.3 340.3,162.4 360.3,162.4 360.3,161.8 360.3,161.3 
						360.3,159.9 					"/>
				</g>
				<g>
					<path class="st2" d="M352.2,138l2.4-0.4l0.1,0c2.1-1.2,4.5-3,5.9-7.6l0.1-0.2l-1.7-0.5l-0.1,0.2c-1.1,3.6-3.2,6.4-5.7,7.9
						L352.2,138z"/>
					<path class="st2" d="M359.7,137.2c-1.9,3.3-4.5,5.6-7.4,6.4l-1.1,0.3l2.5,0.2l0,0c2.4-0.7,5.1-2,7.4-6.1l0.1-0.2l-1.5-0.9
						L359.7,137.2z"/>
					<path class="st2" d="M359.7,144l-0.1,0.2c-2.2,3.1-5,5.2-7.9,5.8l-1.1,0.2l2.5,0.4l0,0c2.4-0.5,5.2-1.5,7.9-5.4l0.1-0.2
						L359.7,144z"/>
					<path class="st2" d="M353.7,136v-0.6v-0.6v-1.3h-1.9v1.3h-1.6v-5.1h3.5v-0.6v-0.6v-1.3h-1.9v1.3h-12.1v1.2h3v5.1h-3v1.2h3v5.2
						c0,3.8-1.1,7.1-3.1,9.2l-0.3,0.4h1.7l0.1-0.1c1.7-1.9,3.5-4.4,3.5-9.5V136h4v14.8h1.8V136H353.7z M348.4,129.8v5.1h-4v-5.1
						H348.4z"/>
				</g>
			</g>
		</g>
	</g>
</g>
</svg>
