<?xml version="1.0" encoding="UTF-8" standalone="no"?>
<!-- Generator: Adobe Illustrator 17.0.0, SVG Export Plug-In . SVG Version: 6.00 Build 0)  -->
<!DOCTYPE svg  PUBLIC '-//W3C//DTD SVG 1.1//EN'  'http://www.w3.org/Graphics/SVG/1.1/DTD/svg11.dtd'>
<svg id="Layer_1" style="enable-background:new 0 0 30 62" xmlns="http://www.w3.org/2000/svg" xml:space="preserve" height="62px" viewBox="0 0 30 62" width="30px" version="1.1" y="0px" x="0px" xmlns:xlink="http://www.w3.org/1999/xlink">
<style type="text/css">
	.st0{fill:#F58220;}
	.st1{fill:none;stroke:#F58220;stroke-width:0.7731;stroke-linecap:round;stroke-linejoin:round;stroke-miterlimit:10;}
	.st2{fill:#FFFFFF;}
	.st3{fill:none;stroke:#FFFFFF;stroke-width:0.7731;stroke-linecap:round;stroke-linejoin:round;stroke-miterlimit:10;}
</style>
		<path class="st0" d="m13.6 36.8h-1.2l-0.8 3-0.8-3h-1.2c0.2 0.7 0.5 1.4 0.7 2.1 0.4 1.1 0.6 1.9 0.7 2.4v3.1h1.2v-3.1l1.4-4.5zm3.1 5.8v-2c0-0.6-0.1-1.1-0.3-1.3-0.3-0.4-0.7-0.6-1.2-0.6s-0.9 0.2-1.2 0.6c-0.2 0.3-0.3 0.7-0.3 1.3v2c0 0.6 0.1 1.1 0.3 1.3 0.3 0.4 0.7 0.6 1.2 0.6s0.9-0.2 1.2-0.6c0.2-0.2 0.3-0.7 0.3-1.3zm-1.1 0.2c0 0.5-0.2 0.8-0.5 0.8s-0.5-0.3-0.5-0.8v-2.4c0-0.5 0.2-0.8 0.5-0.8s0.5 0.3 0.5 0.8v2.4zm4.9 1.7v-5.7h-1v4.4c-0.2 0.3-0.4 0.5-0.7 0.5-0.1 0-0.2-0.1-0.2-0.2v-0.4-4.2h-1v4.5c0 0.4 0 0.7 0.1 0.9 0.1 0.3 0.3 0.4 0.7 0.4s0.8-0.2 1.2-0.7v0.6h0.9z"/>
			<path class="st0" d="m17 50.3c-0.2 0-0.3 0.1-0.5 0.2v3.5c0.2 0.2 0.3 0.3 0.5 0.3 0.3 0 0.4-0.3 0.4-0.8v-2.5c0-0.5-0.1-0.7-0.4-0.7z"/>
			<path class="st0" d="m20.8 50.3c-0.3 0-0.5 0.3-0.5 0.8v0.5h1v-0.5c0-0.6-0.2-0.8-0.5-0.8z"/>
			<path class="st0" d="m23.3 47.4c-0.2-0.9-0.9-1.6-1.8-1.7-2.1-0.2-4.2-0.2-6.4-0.2-2.1 0-4.2 0-6.4 0.2-0.9 0.1-1.6 0.8-1.8 1.7-0.3 1.3-0.3 2.7-0.3 4s0 2.7 0.3 4c0.2 0.9 0.9 1.6 1.8 1.7 2.1 0.2 4.2 0.2 6.4 0.2 2.1 0 4.2 0 6.4-0.2 0.9-0.1 1.6-0.8 1.8-1.7 0.3-1.3 0.3-2.7 0.3-4s0-2.7-0.3-4zm-11.9 1.1h-1.2v6.5h-1.1v-6.5h-1.2v-1.1h3.6v1.1zm3.1 6.6h-1v-0.6c-0.4 0.5-0.8 0.7-1.2 0.7-0.3 0-0.6-0.1-0.7-0.4-0.1-0.2-0.1-0.4-0.1-0.8v-4.5h1v4.2 0.4c0 0.2 0.1 0.2 0.2 0.2 0.2 0 0.4-0.2 0.7-0.5v-4.3h1v5.6zm3.9-1.7c0 0.5 0 0.9-0.1 1.1-0.1 0.4-0.4 0.6-0.8 0.6s-0.7-0.2-1.1-0.6v0.5h-1v-7.6h1v2.6c0.3-0.4 0.7-0.6 1.1-0.6s0.7 0.2 0.8 0.6c0.1 0.2 0.1 0.6 0.1 1.1v2.3zm3.9-1h-2.1v1c0 0.5 0.2 0.8 0.5 0.8s0.4-0.1 0.5-0.4v-0.7h1v0.2 0.7c0 0.2-0.1 0.4-0.2 0.6-0.3 0.4-0.7 0.6-1.2 0.6s-0.9-0.2-1.2-0.6c-0.2-0.3-0.3-0.7-0.3-1.3v-2c0-0.6 0.1-1 0.3-1.3 0.3-0.4 0.7-0.6 1.2-0.6s0.9 0.2 1.2 0.6c0.2 0.3 0.3 0.7 0.3 1.3v1.1z"/>
		<polyline points="26 41.9 28.3 41.9 28.3 33.5 1.7 33.5 1.7 60.2 28.3 60.2 28.3 51.8" class="st1"/>
		<path class="st2" d="m13.6 5.5h-1.2l-0.8 3-0.8-3h-1.2c0.2 0.7 0.5 1.4 0.7 2.1 0.4 1.1 0.6 1.9 0.7 2.4v3.1h1.2v-3.1l1.4-4.5zm3.1 5.9v-2c0-0.6-0.1-1.1-0.3-1.3-0.3-0.4-0.7-0.6-1.2-0.6s-0.9 0.2-1.2 0.6c-0.2 0.3-0.3 0.7-0.3 1.3v2c0 0.6 0.1 1.1 0.3 1.3 0.3 0.4 0.7 0.6 1.2 0.6s0.9-0.2 1.2-0.6c0.2-0.3 0.3-0.7 0.3-1.3zm-1.1 0.2c0 0.5-0.2 0.8-0.5 0.8s-0.5-0.3-0.5-0.8v-2.5c0-0.5 0.2-0.8 0.5-0.8s0.5 0.3 0.5 0.8v2.5zm4.9 1.6v-5.7h-1v4.4c-0.2 0.3-0.4 0.5-0.7 0.5-0.1 0-0.2-0.1-0.2-0.2v-0.4-4.3h-1v4.5c0 0.4 0 0.7 0.1 0.9 0.1 0.3 0.3 0.4 0.7 0.4s0.8-0.2 1.2-0.7v0.6h0.9z"/>
			<path class="st2" d="m17 19c-0.2 0-0.3 0.1-0.5 0.2v3.4c0.2 0.2 0.3 0.3 0.5 0.3 0.3 0 0.4-0.3 0.4-0.8v-2.4c0-0.4-0.1-0.7-0.4-0.7z"/>
			<path class="st2" d="m20.8 19c-0.3 0-0.5 0.3-0.5 0.8v0.5h1v-0.5c0-0.5-0.2-0.8-0.5-0.8z"/>
			<path class="st2" d="m23.3 16.1c-0.2-0.9-0.9-1.6-1.8-1.7-2.1-0.2-4.2-0.2-6.4-0.2-2.1 0-4.2 0-6.4 0.2-0.9 0.1-1.6 0.8-1.8 1.7-0.3 1.3-0.3 2.7-0.3 4s0 2.7 0.3 4c0.2 0.9 0.9 1.6 1.8 1.7 2.1 0.2 4.2 0.2 6.4 0.2 2.1 0 4.2 0 6.4-0.2 0.9-0.1 1.6-0.8 1.8-1.7 0.3-1.3 0.3-2.7 0.3-4s0-2.7-0.3-4zm-11.9 1.2h-1.2v6.5h-1.1v-6.5h-1.2v-1.1h3.6v1.1zm3.1 6.5h-1v-0.6c-0.4 0.5-0.8 0.7-1.2 0.7-0.3 0-0.6-0.1-0.7-0.4-0.1-0.2-0.1-0.4-0.1-0.8v-4.5h1v4.2 0.4c0 0.2 0.1 0.2 0.2 0.2 0.2 0 0.4-0.2 0.7-0.5v-4.3h1v5.6zm3.9-1.7c0 0.5 0 0.9-0.1 1.1-0.1 0.4-0.4 0.6-0.8 0.6s-0.7-0.2-1.1-0.6v0.5h-1v-7.6h1v2.5c0.3-0.4 0.7-0.6 1.1-0.6s0.7 0.2 0.8 0.6c0.1 0.2 0.1 0.6 0.1 1.1v2.4zm3.9-0.9h-2.1v1c0 0.5 0.2 0.8 0.5 0.8s0.4-0.1 0.5-0.4v-0.7h1v0.1 0.7c0 0.2-0.1 0.4-0.2 0.6-0.3 0.4-0.7 0.6-1.2 0.6s-0.9-0.2-1.2-0.6c-0.2-0.3-0.3-0.7-0.3-1.3v-2c0-0.6 0.1-1 0.3-1.3 0.3-0.4 0.7-0.6 1.2-0.6s0.9 0.2 1.2 0.6c0.2 0.3 0.3 0.7 0.3 1.3v1.2z"/>
		<polyline points="26 10.6 28.3 10.6 28.3 2.3 1.7 2.3 1.7 28.9 28.3 28.9 28.3 20.6" class="st3"/>
</svg>
