<?xml version="1.0" encoding="utf-8"?>
<!-- Generator: Adobe Illustrator 17.0.0, SVG Export Plug-In . SVG Version: 6.00 Build 0)  -->
<!DOCTYPE svg PUBLIC "-//W3C//DTD SVG 1.1//EN" "http://www.w3.org/Graphics/SVG/1.1/DTD/svg11.dtd">
<svg version="1.1" id="Layer_1" xmlns="http://www.w3.org/2000/svg" xmlns:xlink="http://www.w3.org/1999/xlink" x="0px" y="0px"
	 width="30px" height="62px" viewBox="0 0 30 62" style="enable-background:new 0 0 30 62;" xml:space="preserve">
<style type="text/css">
	.st0{fill:#F58220;}
	.st1{fill:none;stroke:#F58220;stroke-width:0.7731;stroke-linecap:round;stroke-linejoin:round;stroke-miterlimit:10;}
	.st2{fill:#FFFFFF;}
	.st3{fill:none;stroke:#FFFFFF;stroke-width:0.7731;stroke-linecap:round;stroke-linejoin:round;stroke-miterlimit:10;}
</style>
<g>
	<g>
		<path class="st0" d="M22.1,48.9l0.4-3.3h-3.3v-2.1c0-1,0.3-1.6,1.7-1.6l1.8,0v-3c-0.3,0-1.4-0.1-2.6-0.1c-2.5,0-4.3,1.6-4.3,4.4
			v2.5h-2.9v3.3h2.9v8.6h3.4v-8.6H22.1z"/>
	</g>
	<g>
		<polyline class="st1" points="26,41.9 28.3,41.9 28.3,33.5 1.7,33.5 1.7,60.2 28.3,60.2 28.3,51.8 		"/>
	</g>
</g>
<g>
	<g>
		<path class="st2" d="M22.1,17.6l0.4-3.3h-3.3v-2.1c0-1,0.3-1.6,1.7-1.6l1.8,0v-3c-0.3,0-1.4-0.1-2.6-0.1c-2.5,0-4.3,1.6-4.3,4.4
			v2.5h-2.9v3.3h2.9v8.6h3.4v-8.6H22.1z"/>
	</g>
	<g>
		<polyline class="st3" points="26,10.6 28.3,10.6 28.3,2.3 1.7,2.3 1.7,28.9 28.3,28.9 28.3,20.6 		"/>
	</g>
</g>
</svg>
