<?xml version="1.0" encoding="utf-8"?>
<!-- Generator: Adobe Illustrator 17.0.0, SVG Export Plug-In . SVG Version: 6.00 Build 0)  -->
<!DOCTYPE svg PUBLIC "-//W3C//DTD SVG 1.1//EN" "http://www.w3.org/Graphics/SVG/1.1/DTD/svg11.dtd">
<svg version="1.1" id="Layer_1" xmlns="http://www.w3.org/2000/svg" xmlns:xlink="http://www.w3.org/1999/xlink" x="0px" y="0px"
	 width="241px" height="237px" viewBox="0 0 241 237" style="enable-background:new 0 0 241 237;" xml:space="preserve">
<style type="text/css">
	.st0{fill:none;stroke:#818181;stroke-width:0.15;stroke-linecap:round;stroke-linejoin:round;stroke-miterlimit:10;}
	.st1{fill:none;stroke:#000000;stroke-width:4;stroke-linecap:round;stroke-linejoin:round;stroke-miterlimit:10;}
	.st2{fill:none;stroke:#000000;stroke-width:2.5;stroke-linecap:round;stroke-linejoin:round;stroke-miterlimit:10;}
</style>
<g>
	<g>
		<g>
			<g>
				<line class="st0" x1="219.3" y1="59.5" x2="120.5" y2="126.3"/>
				<line class="st0" x1="218.2" y1="70.7" x2="120.5" y2="137.8"/>
				<line class="st0" x1="217.1" y1="81.9" x2="120.5" y2="149.4"/>
				<line class="st0" x1="215.9" y1="93" x2="120.5" y2="161"/>
				<line class="st0" x1="214.8" y1="104.2" x2="120.5" y2="172.6"/>
				<line class="st0" x1="213.7" y1="115.4" x2="120.5" y2="184.2"/>
				<line class="st0" x1="212.6" y1="126.6" x2="120.5" y2="195.8"/>
				<line class="st0" x1="211.5" y1="137.7" x2="120.5" y2="207.4"/>
				<line class="st0" x1="210.4" y1="148.9" x2="120.5" y2="219"/>
				<line class="st0" x1="209.2" y1="160.1" x2="120.5" y2="230.6"/>
			</g>
			<g>
				<g>
					<line class="st0" x1="120.5" y1="126.3" x2="120.5" y2="230.6"/>
					<line class="st0" x1="131.5" y1="118.8" x2="130.4" y2="222.8"/>
					<line class="st0" x1="142.5" y1="111.4" x2="140.2" y2="215"/>
					<line class="st0" x1="153.4" y1="104" x2="150.1" y2="207.1"/>
					<line class="st0" x1="164.4" y1="96.6" x2="159.9" y2="199.3"/>
					<line class="st0" x1="175.4" y1="89.2" x2="169.8" y2="191.4"/>
					<line class="st0" x1="186.4" y1="81.8" x2="179.7" y2="183.6"/>
					<line class="st0" x1="197.3" y1="74.4" x2="189.5" y2="175.7"/>
					<line class="st0" x1="208.3" y1="66.9" x2="199.4" y2="167.9"/>
					<line class="st0" x1="219.3" y1="59.5" x2="209.2" y2="160.1"/>
				</g>
				<g>
					<line class="st0" x1="21.7" y1="59.5" x2="31.8" y2="160.1"/>
					<line class="st0" x1="32.7" y1="66.9" x2="41.6" y2="167.9"/>
					<line class="st0" x1="43.8" y1="74.4" x2="51.5" y2="175.7"/>
					<line class="st0" x1="54.6" y1="81.9" x2="61.3" y2="183.6"/>
					<line class="st0" x1="65.7" y1="89.2" x2="71.2" y2="191.4"/>
					<line class="st0" x1="76.7" y1="96.6" x2="81.1" y2="199.3"/>
					<line class="st0" x1="87.6" y1="104" x2="90.9" y2="207.1"/>
					<line class="st0" x1="98.6" y1="111.4" x2="100.8" y2="215"/>
					<line class="st0" x1="109.5" y1="118.8" x2="110.6" y2="222.8"/>
					<line class="st0" x1="120.5" y1="126.3" x2="120.5" y2="230.6"/>
				</g>
			</g>
			<g>
				<line class="st0" x1="120.5" y1="126.3" x2="21.7" y2="59.5"/>
				<line class="st0" x1="120.5" y1="137.8" x2="22.8" y2="70.7"/>
				<line class="st0" x1="120.5" y1="149.4" x2="23.9" y2="81.9"/>
				<line class="st0" x1="120.5" y1="161" x2="25.1" y2="93"/>
				<line class="st0" x1="120.5" y1="172.6" x2="26.2" y2="104.2"/>
				<line class="st0" x1="120.5" y1="184.2" x2="27.3" y2="115.4"/>
				<line class="st0" x1="120.5" y1="195.8" x2="28.4" y2="126.6"/>
				<line class="st0" x1="120.5" y1="207.4" x2="29.5" y2="137.7"/>
				<line class="st0" x1="120.5" y1="219" x2="30.6" y2="148.9"/>
				<line class="st0" x1="120.5" y1="230.6" x2="31.8" y2="160.1"/>
			</g>
			<g>
				<line class="st0" x1="87.6" y1="24.1" x2="186.4" y2="81.8"/>
				<line class="st0" x1="54.7" y1="41.8" x2="153.4" y2="104"/>
				<line class="st0" x1="21.7" y1="59.5" x2="120.5" y2="126.3"/>
				<line class="st0" x1="32.7" y1="53.6" x2="131.5" y2="118.8"/>
				<line class="st0" x1="43.7" y1="47.7" x2="142.5" y2="111.4"/>
				<line class="st0" x1="65.6" y1="35.9" x2="164.4" y2="96.6"/>
				<line class="st0" x1="76.6" y1="30" x2="175.4" y2="89.2"/>
				<line class="st0" x1="98.5" y1="18.2" x2="197.3" y2="74.4"/>
				<line class="st0" x1="109.5" y1="12.3" x2="208.3" y2="66.9"/>
				<line class="st0" x1="120.5" y1="6.4" x2="219.3" y2="59.5"/>
			</g>
			<g>
				<line class="st0" x1="120.5" y1="126.3" x2="219.3" y2="59.5"/>
				<line class="st0" x1="109.5" y1="118.8" x2="208.3" y2="53.6"/>
				<line class="st0" x1="98.5" y1="111.4" x2="197.3" y2="47.7"/>
				<line class="st0" x1="87.6" y1="104" x2="186.4" y2="41.8"/>
				<line class="st0" x1="76.6" y1="96.6" x2="175.4" y2="35.9"/>
				<line class="st0" x1="65.7" y1="89.2" x2="164.4" y2="30"/>
				<line class="st0" x1="54.6" y1="81.8" x2="153.4" y2="24.1"/>
				<line class="st0" x1="43.8" y1="74.4" x2="142.5" y2="18.2"/>
				<line class="st0" x1="32.7" y1="66.9" x2="131.5" y2="12.3"/>
				<line class="st0" x1="21.7" y1="59.5" x2="120.5" y2="6.4"/>
			</g>
		</g>
		<polyline class="st1" points="48.9,142 100,180.5 99.3,146 25.1,93 31.8,160.1 120.5,230.6 209.2,160.1 219.3,59.5 120.5,6.4 
			21.7,59.5 		"/>
		<g>
			<line class="st2" x1="120.5" y1="126.3" x2="38.3" y2="70.7"/>
			<line class="st2" x1="120.5" y1="126.3" x2="202.7" y2="70.7"/>
			<line class="st2" x1="87.6" y1="104" x2="169.3" y2="52.5"/>
			<line class="st2" x1="72.2" y1="71.5" x2="153.4" y2="24.1"/>
			<line class="st2" x1="131.6" y1="49.8" x2="186.4" y2="81.8"/>
			<line class="st2" x1="87.6" y1="24.1" x2="120.5" y2="43.3"/>
			<line class="st2" x1="120.5" y1="126.3" x2="120.5" y2="230.6"/>
		</g>
	</g>
	<line class="st2" x1="71.7" y1="52.5" x2="137" y2="93.6"/>
</g>
</svg>
