<?xml version="1.0" encoding="utf-8"?>
<!-- Generator: Adobe Illustrator 20.0.0, SVG Export Plug-In . SVG Version: 6.00 Build 0)  -->
<svg version="1.1" id="Layer_1" xmlns="http://www.w3.org/2000/svg" xmlns:xlink="http://www.w3.org/1999/xlink" x="0px" y="0px"
	 viewBox="0 0 30 62.1" style="enable-background:new 0 0 30 62.1;" xml:space="preserve">
<style type="text/css">
	.st0{fill:none;stroke:#000000;stroke-width:1.0387;stroke-miterlimit:10;}
	.st1{fill:none;stroke:#000000;stroke-miterlimit:10;}
	.st2{fill:#F58220;}
	.st3{fill:none;stroke:#F58220;stroke-miterlimit:10;}
	.st4{fill:none;stroke:#000000;stroke-width:0.3639;stroke-miterlimit:10;}
	.st5{fill:#FFFFFF;}
	.st6{fill:#ECF8FE;}
	.st7{fill:#27BDBE;}
	.st8{fill:#FFE06A;}
	.st9{fill:#D9D9D9;}
	.st10{fill:#999999;}
	.st11{fill:#BFBFBF;}
	.st12{fill:#FFFFFF;stroke:#000000;stroke-width:1.5873;stroke-miterlimit:10;}
	.st13{fill:none;stroke:#000000;stroke-width:1.5873;stroke-linecap:round;stroke-linejoin:round;stroke-miterlimit:10;}
	.st14{fill:none;stroke:#000000;stroke-width:0.8323;stroke-linecap:round;stroke-linejoin:round;stroke-miterlimit:10;}
	.st15{fill:#CFCDCD;}
	.st16{fill:#C9E9E6;}
	.st17{fill:none;stroke:#000000;stroke-width:0.8889;stroke-miterlimit:10;}
	.st18{fill:none;stroke:#FFFFFF;stroke-miterlimit:10;}
	.st19{fill:none;stroke:#000000;stroke-width:1.5873;stroke-miterlimit:10;}
	.st20{fill:none;stroke:#000000;stroke-width:1.9415;stroke-linecap:round;stroke-linejoin:round;stroke-miterlimit:10;}
	.st21{fill:#EEE809;}
	.st22{fill:#94D9F8;}
	.st23{fill:#211E1F;}
	.st24{fill:#231F20;}
	.st25{fill:#F7941F;}
	.st26{fill:#47B77B;}
	.st27{fill:#221F1F;}
	.st28{fill:#F5EB0E;}
	.st29{fill:#EBE70E;}
	.st30{fill:#4BC3C9;}
	.st31{fill:#DD1D4F;}
	.st32{fill:none;stroke:#231F20;stroke-width:0.9625;stroke-linecap:round;stroke-linejoin:round;stroke-miterlimit:10;}
	.st33{fill:none;stroke:#000000;stroke-width:2;stroke-miterlimit:10;}
	.st34{fill:#E5EFF5;}
</style>
<path class="st2" d="M22.1,48.7l0.4-3.3h-3.3v-2.1c0-1,0.3-1.6,1.7-1.6h1.8v-3c-0.3,0-1.4-0.1-2.6-0.1c-2.5,0-4.3,1.6-4.3,4.4v2.5
	h-2.9v3.3h2.9v8.6h3.4v-8.6L22.1,48.7C22.1,48.8,22.1,48.7,22.1,48.7z"/>
<path class="st5" d="M22.1,17.4l0.4-3.3h-3.3V12c0-1,0.3-1.6,1.7-1.6h1.8v-3c-0.3,0-1.4-0.1-2.6-0.1c-2.5,0-4.3,1.6-4.3,4.4v2.5
	h-2.9v3.3h2.9v8.6h3.4v-8.6h2.9C22.1,17.5,22.1,17.4,22.1,17.4z"/>
</svg>
