<?xml version="1.0" encoding="utf-8"?>
<!-- Generator: Adobe Illustrator 17.0.0, SVG Export Plug-In . SVG Version: 6.00 Build 0)  -->
<!DOCTYPE svg PUBLIC "-//W3C//DTD SVG 1.1//EN" "http://www.w3.org/Graphics/SVG/1.1/DTD/svg11.dtd">
<svg version="1.1" id="Layer_1" xmlns="http://www.w3.org/2000/svg" xmlns:xlink="http://www.w3.org/1999/xlink" x="0px" y="0px"
	 width="30px" height="62px" viewBox="0 0 30 62" style="enable-background:new 0 0 30 62;" xml:space="preserve">
<style type="text/css">
	.st0{fill:#F58220;}
	.st1{fill:none;stroke:#F58220;stroke-width:0.7731;stroke-linecap:round;stroke-linejoin:round;stroke-miterlimit:10;}
	.st2{fill:#FFFFFF;}
	.st3{fill:none;stroke:#FFFFFF;stroke-width:0.7731;stroke-linecap:round;stroke-linejoin:round;stroke-miterlimit:10;}
</style>
<g>
	<g>
		<path class="st0" d="M13.6,36.8h-1.2l-0.8,3l-0.8-3H9.6c0.2,0.7,0.5,1.4,0.7,2.1c0.4,1.1,0.6,1.9,0.7,2.4v3.1h1.2v-3.1L13.6,36.8z
			 M16.7,42.6v-2c0-0.6-0.1-1.1-0.3-1.3c-0.3-0.4-0.7-0.6-1.2-0.6c-0.5,0-0.9,0.2-1.2,0.6c-0.2,0.3-0.3,0.7-0.3,1.3v2
			c0,0.6,0.1,1.1,0.3,1.3c0.3,0.4,0.7,0.6,1.2,0.6c0.5,0,0.9-0.2,1.2-0.6C16.6,43.7,16.7,43.2,16.7,42.6z M15.6,42.8
			c0,0.5-0.2,0.8-0.5,0.8c-0.3,0-0.5-0.3-0.5-0.8v-2.4c0-0.5,0.2-0.8,0.5-0.8c0.3,0,0.5,0.3,0.5,0.8V42.8z M20.5,44.5v-5.7h-1v4.4
			c-0.2,0.3-0.4,0.5-0.7,0.5c-0.1,0-0.2-0.1-0.2-0.2c0,0,0-0.2,0-0.4v-4.2h-1v4.5c0,0.4,0,0.7,0.1,0.9c0.1,0.3,0.3,0.4,0.7,0.4
			c0.4,0,0.8-0.2,1.2-0.7v0.6H20.5z"/>
		<g>
			<path class="st0" d="M17,50.3c-0.2,0-0.3,0.1-0.5,0.2V54c0.2,0.2,0.3,0.3,0.5,0.3c0.3,0,0.4-0.3,0.4-0.8V51
				C17.4,50.5,17.3,50.3,17,50.3z"/>
			<path class="st0" d="M20.8,50.3c-0.3,0-0.5,0.3-0.5,0.8v0.5h1v-0.5C21.3,50.5,21.1,50.3,20.8,50.3z"/>
			<path class="st0" d="M23.3,47.4c-0.2-0.9-0.9-1.6-1.8-1.7c-2.1-0.2-4.2-0.2-6.4-0.2c-2.1,0-4.2,0-6.4,0.2
				c-0.9,0.1-1.6,0.8-1.8,1.7c-0.3,1.3-0.3,2.7-0.3,4c0,1.3,0,2.7,0.3,4c0.2,0.9,0.9,1.6,1.8,1.7c2.1,0.2,4.2,0.2,6.4,0.2
				c2.1,0,4.2,0,6.4-0.2c0.9-0.1,1.6-0.8,1.8-1.7c0.3-1.3,0.3-2.7,0.3-4C23.6,50.1,23.6,48.7,23.3,47.4z M11.4,48.5h-1.2v6.5H9.1
				v-6.5H7.9v-1.1h3.6V48.5z M14.5,55.1h-1v-0.6c-0.4,0.5-0.8,0.7-1.2,0.7c-0.3,0-0.6-0.1-0.7-0.4c-0.1-0.2-0.1-0.4-0.1-0.8v-4.5h1
				v4.2c0,0.2,0,0.4,0,0.4c0,0.2,0.1,0.2,0.2,0.2c0.2,0,0.4-0.2,0.7-0.5v-4.3h1V55.1z M18.4,53.4c0,0.5,0,0.9-0.1,1.1
				c-0.1,0.4-0.4,0.6-0.8,0.6c-0.4,0-0.7-0.2-1.1-0.6v0.5h-1v-7.6h1V50c0.3-0.4,0.7-0.6,1.1-0.6c0.4,0,0.7,0.2,0.8,0.6
				c0.1,0.2,0.1,0.6,0.1,1.1V53.4z M22.3,52.4h-2.1v1c0,0.5,0.2,0.8,0.5,0.8c0.3,0,0.4-0.1,0.5-0.4c0-0.1,0-0.3,0-0.7h1v0.2
				c0,0.3,0,0.6,0,0.7c0,0.2-0.1,0.4-0.2,0.6c-0.3,0.4-0.7,0.6-1.2,0.6c-0.5,0-0.9-0.2-1.2-0.6c-0.2-0.3-0.3-0.7-0.3-1.3v-2
				c0-0.6,0.1-1,0.3-1.3c0.3-0.4,0.7-0.6,1.2-0.6c0.5,0,0.9,0.2,1.2,0.6c0.2,0.3,0.3,0.7,0.3,1.3V52.4z"/>
		</g>
	</g>
	<g>
		<polyline class="st1" points="26,41.9 28.3,41.9 28.3,33.5 1.7,33.5 1.7,60.2 28.3,60.2 28.3,51.8 		"/>
	</g>
</g>
<g>
	<g>
		<path class="st2" d="M13.6,5.5h-1.2l-0.8,3l-0.8-3H9.6c0.2,0.7,0.5,1.4,0.7,2.1c0.4,1.1,0.6,1.9,0.7,2.4v3.1h1.2v-3.1L13.6,5.5z
			 M16.7,11.4v-2c0-0.6-0.1-1.1-0.3-1.3c-0.3-0.4-0.7-0.6-1.2-0.6c-0.5,0-0.9,0.2-1.2,0.6c-0.2,0.3-0.3,0.7-0.3,1.3v2
			c0,0.6,0.1,1.1,0.3,1.3c0.3,0.4,0.7,0.6,1.2,0.6c0.5,0,0.9-0.2,1.2-0.6C16.6,12.4,16.7,12,16.7,11.4z M15.6,11.6
			c0,0.5-0.2,0.8-0.5,0.8c-0.3,0-0.5-0.3-0.5-0.8V9.1c0-0.5,0.2-0.8,0.5-0.8c0.3,0,0.5,0.3,0.5,0.8V11.6z M20.5,13.2V7.5h-1v4.4
			c-0.2,0.3-0.4,0.5-0.7,0.5c-0.1,0-0.2-0.1-0.2-0.2c0,0,0-0.2,0-0.4V7.5h-1V12c0,0.4,0,0.7,0.1,0.9c0.1,0.3,0.3,0.4,0.7,0.4
			c0.4,0,0.8-0.2,1.2-0.7v0.6H20.5z"/>
		<g>
			<path class="st2" d="M17,19c-0.2,0-0.3,0.1-0.5,0.2v3.4c0.2,0.2,0.3,0.3,0.5,0.3c0.3,0,0.4-0.3,0.4-0.8v-2.4
				C17.4,19.3,17.3,19,17,19z"/>
			<path class="st2" d="M20.8,19c-0.3,0-0.5,0.3-0.5,0.8v0.5h1v-0.5C21.3,19.3,21.1,19,20.8,19z"/>
			<path class="st2" d="M23.3,16.1c-0.2-0.9-0.9-1.6-1.8-1.7c-2.1-0.2-4.2-0.2-6.4-0.2c-2.1,0-4.2,0-6.4,0.2
				c-0.9,0.1-1.6,0.8-1.8,1.7c-0.3,1.3-0.3,2.7-0.3,4c0,1.3,0,2.7,0.3,4c0.2,0.9,0.9,1.6,1.8,1.7c2.1,0.2,4.2,0.2,6.4,0.2
				c2.1,0,4.2,0,6.4-0.2c0.9-0.1,1.6-0.8,1.8-1.7c0.3-1.3,0.3-2.7,0.3-4C23.6,18.8,23.6,17.4,23.3,16.1z M11.4,17.3h-1.2v6.5H9.1
				v-6.5H7.9v-1.1h3.6V17.3z M14.5,23.8h-1v-0.6c-0.4,0.5-0.8,0.7-1.2,0.7c-0.3,0-0.6-0.1-0.7-0.4c-0.1-0.2-0.1-0.4-0.1-0.8v-4.5h1
				v4.2c0,0.2,0,0.4,0,0.4c0,0.2,0.1,0.2,0.2,0.2c0.2,0,0.4-0.2,0.7-0.5v-4.3h1V23.8z M18.4,22.1c0,0.5,0,0.9-0.1,1.1
				c-0.1,0.4-0.4,0.6-0.8,0.6c-0.4,0-0.7-0.2-1.1-0.6v0.5h-1v-7.6h1v2.5c0.3-0.4,0.7-0.6,1.1-0.6c0.4,0,0.7,0.2,0.8,0.6
				c0.1,0.2,0.1,0.6,0.1,1.1V22.1z M22.3,21.2h-2.1v1c0,0.5,0.2,0.8,0.5,0.8c0.3,0,0.4-0.1,0.5-0.4c0-0.1,0-0.3,0-0.7h1V22
				c0,0.3,0,0.6,0,0.7c0,0.2-0.1,0.4-0.2,0.6c-0.3,0.4-0.7,0.6-1.2,0.6c-0.5,0-0.9-0.2-1.2-0.6c-0.2-0.3-0.3-0.7-0.3-1.3v-2
				c0-0.6,0.1-1,0.3-1.3c0.3-0.4,0.7-0.6,1.2-0.6c0.5,0,0.9,0.2,1.2,0.6c0.2,0.3,0.3,0.7,0.3,1.3V21.2z"/>
		</g>
	</g>
	<g>
		<polyline class="st3" points="26,10.6 28.3,10.6 28.3,2.3 1.7,2.3 1.7,28.9 28.3,28.9 28.3,20.6 		"/>
	</g>
</g>
</svg>
