<?xml version="1.0" encoding="utf-8"?>
<!-- Generator: Adobe Illustrator 20.0.0, SVG Export Plug-In . SVG Version: 6.00 Build 0)  -->
<svg version="1.1" id="Layer_1" xmlns="http://www.w3.org/2000/svg" xmlns:xlink="http://www.w3.org/1999/xlink" x="0px" y="0px"
	 viewBox="0 0 30 62" style="enable-background:new 0 0 30 62;" xml:space="preserve">
<style type="text/css">
	.st0{fill:#F58220;}
	.st1{fill:none;stroke:#F58220;stroke-width:0.7731;stroke-linecap:round;stroke-linejoin:round;stroke-miterlimit:10;}
	.st2{fill:#FFFFFF;}
	.st3{fill:none;stroke:#FFFFFF;stroke-width:0.7731;stroke-linecap:round;stroke-linejoin:round;stroke-miterlimit:10;}
</style>
<g>
	<g>
		<path class="st0" d="M9.2,39.3h11.6c1.1,0,2,0.9,2,2v11.6c0,1.1-0.9,2-2,2H9.2c-1.1,0-2-0.9-2-2V41.3C7.2,40.2,8.1,39.3,9.2,39.3z
			 M18.6,41c-0.4,0-0.7,0.3-0.7,0.7v1.7c0,0.4,0.3,0.7,0.7,0.7h1.8c0.4,0,0.7-0.3,0.7-0.7v-1.7c0-0.4-0.3-0.7-0.7-0.7H18.6z
			 M21,45.9h-1.4c0.1,0.4,0.2,0.9,0.2,1.3c0,2.6-2.2,4.7-4.8,4.7c-2.7,0-4.8-2.1-4.8-4.7c0-0.5,0.1-0.9,0.2-1.3H8.9v6.6
			c0,0.3,0.3,0.6,0.6,0.6h10.9c0.3,0,0.6-0.3,0.6-0.6V45.9z M15,44c-1.7,0-3.1,1.4-3.1,3c0,1.7,1.4,3,3.1,3s3.1-1.4,3.1-3
			S16.7,44,15,44z"/>
	</g>
	<g>
		<polyline class="st1" points="26,41.9 28.3,41.9 28.3,33.5 1.7,33.5 1.7,60.2 28.3,60.2 28.3,51.8 		"/>
	</g>
</g>
<g>
	<g>
		<path class="st2" d="M9.2,8.1h11.6c1.1,0,2,0.9,2,2v11.6c0,1.1-0.9,2-2,2H9.2c-1.1,0-2-0.9-2-2V10.1C7.2,9,8.1,8.1,9.2,8.1z
			 M18.6,9.8c-0.4,0-0.7,0.3-0.7,0.7v1.7c0,0.4,0.3,0.7,0.7,0.7h1.8c0.4,0,0.7-0.3,0.7-0.7v-1.7c0-0.4-0.3-0.7-0.7-0.7H18.6z
			 M21,14.7h-1.4c0.1,0.4,0.2,0.9,0.2,1.3c0,2.6-2.2,4.7-4.8,4.7c-2.7,0-4.8-2.1-4.8-4.7c0-0.5,0.1-0.9,0.2-1.3H8.9v6.6
			c0,0.3,0.3,0.6,0.6,0.6h10.9c0.3,0,0.6-0.3,0.6-0.6V14.7z M15,12.8c-1.7,0-3.1,1.4-3.1,3c0,1.7,1.4,3,3.1,3s3.1-1.4,3.1-3
			C18.1,14.1,16.7,12.8,15,12.8z"/>
	</g>
	<g>
		<polyline class="st3" points="26,10.6 28.3,10.6 28.3,2.3 1.7,2.3 1.7,28.9 28.3,28.9 28.3,20.6 		"/>
	</g>
</g>
</svg>
