<?xml version="1.0" encoding="utf-8"?>
<!-- Generator: Adobe Illustrator 20.0.0, SVG Export Plug-In . SVG Version: 6.00 Build 0)  -->
<svg version="1.1" id="Layer_1" xmlns="http://www.w3.org/2000/svg" xmlns:xlink="http://www.w3.org/1999/xlink" x="0px" y="0px"
	 viewBox="0 0 30 62.1" style="enable-background:new 0 0 30 62.1;" xml:space="preserve">
<style type="text/css">
	.st0{fill:none;stroke:#000000;stroke-width:1.0387;stroke-miterlimit:10;}
	.st1{fill:none;stroke:#000000;stroke-miterlimit:10;}
	.st2{fill:#F58220;}
	.st3{fill:none;stroke:#F58220;stroke-miterlimit:10;}
	.st4{fill:none;stroke:#000000;stroke-width:0.3639;stroke-miterlimit:10;}
	.st5{fill:#FFFFFF;}
	.st6{fill:#ECF8FE;}
	.st7{fill:#27BDBE;}
	.st8{fill:#FFE06A;}
	.st9{fill:#D9D9D9;}
	.st10{fill:#999999;}
	.st11{fill:#BFBFBF;}
	.st12{fill:#FFFFFF;stroke:#000000;stroke-width:1.5873;stroke-miterlimit:10;}
	.st13{fill:none;stroke:#000000;stroke-width:1.5873;stroke-linecap:round;stroke-linejoin:round;stroke-miterlimit:10;}
	.st14{fill:none;stroke:#000000;stroke-width:0.8323;stroke-linecap:round;stroke-linejoin:round;stroke-miterlimit:10;}
	.st15{fill:#CFCDCD;}
	.st16{fill:#C9E9E6;}
	.st17{fill:none;stroke:#000000;stroke-width:0.8889;stroke-miterlimit:10;}
	.st18{fill:none;stroke:#FFFFFF;stroke-miterlimit:10;}
	.st19{fill:none;stroke:#000000;stroke-width:1.5873;stroke-miterlimit:10;}
	.st20{fill:none;stroke:#000000;stroke-width:1.9415;stroke-linecap:round;stroke-linejoin:round;stroke-miterlimit:10;}
	.st21{fill:#EEE809;}
	.st22{fill:#94D9F8;}
	.st23{fill:#211E1F;}
	.st24{fill:#231F20;}
	.st25{fill:#F7941F;}
	.st26{fill:#47B77B;}
	.st27{fill:#221F1F;}
	.st28{fill:#F5EB0E;}
	.st29{fill:#EBE70E;}
	.st30{fill:#4BC3C9;}
	.st31{fill:#DD1D4F;}
	.st32{fill:none;stroke:#231F20;stroke-width:0.9625;stroke-linecap:round;stroke-linejoin:round;stroke-miterlimit:10;}
	.st33{fill:none;stroke:#000000;stroke-width:2;stroke-miterlimit:10;}
	.st34{fill:#E5EFF5;}
</style>
<g>
	<path class="st2" d="M13.6,36.6h-1.2l-0.8,3l-0.8-3H9.6c0.2,0.7,0.5,1.4,0.7,2.1c0.4,1.1,0.6,1.9,0.7,2.4v3.1h1.2v-3.1L13.6,36.6z
		 M16.7,42.4v-2c0-0.6-0.1-1.1-0.3-1.3c-0.3-0.4-0.7-0.6-1.2-0.6s-0.9,0.2-1.2,0.6c-0.2,0.3-0.3,0.7-0.3,1.3v2
		c0,0.6,0.1,1.1,0.3,1.3c0.3,0.4,0.7,0.6,1.2,0.6s0.9-0.2,1.2-0.6C16.6,43.5,16.7,43,16.7,42.4z M15.6,42.6c0,0.5-0.2,0.8-0.5,0.8
		s-0.5-0.3-0.5-0.8v-2.4c0-0.5,0.2-0.8,0.5-0.8s0.5,0.3,0.5,0.8V42.6z M20.5,44.3v-5.7h-1V43c-0.2,0.3-0.4,0.5-0.7,0.5
		c-0.1,0-0.2-0.1-0.2-0.2c0,0,0-0.2,0-0.4v-4.2h-1v4.5c0,0.4,0,0.7,0.1,0.9c0.1,0.3,0.3,0.4,0.7,0.4c0.4,0,0.8-0.2,1.2-0.7v0.6
		L20.5,44.3L20.5,44.3z"/>
	<g>
		<path class="st2" d="M17,50.1c-0.2,0-0.3,0.1-0.5,0.2v3.5c0.2,0.2,0.3,0.3,0.5,0.3c0.3,0,0.4-0.3,0.4-0.8v-2.5
			C17.4,50.3,17.3,50.1,17,50.1z"/>
		<path class="st2" d="M20.8,50.1c-0.3,0-0.5,0.3-0.5,0.8v0.5h1v-0.5C21.3,50.3,21.1,50.1,20.8,50.1z"/>
		<path class="st2" d="M23.3,47.2c-0.2-0.9-0.9-1.6-1.8-1.7c-2.1-0.2-4.2-0.2-6.4-0.2c-2.1,0-4.2,0-6.4,0.2
			c-0.9,0.1-1.6,0.8-1.8,1.7c-0.3,1.3-0.3,2.7-0.3,4s0,2.7,0.3,4c0.2,0.9,0.9,1.6,1.8,1.7c2.1,0.2,4.2,0.2,6.4,0.2
			c2.1,0,4.2,0,6.4-0.2c0.9-0.1,1.6-0.8,1.8-1.7c0.3-1.3,0.3-2.7,0.3-4C23.6,49.9,23.6,48.5,23.3,47.2z M11.4,48.3h-1.2v6.5H9.1
			v-6.5H7.9v-1.1h3.6v1.1H11.4z M14.5,54.9h-1v-0.6c-0.4,0.5-0.8,0.7-1.2,0.7c-0.3,0-0.6-0.1-0.7-0.4c-0.1-0.2-0.1-0.4-0.1-0.8v-4.5
			h1v4.2c0,0.2,0,0.4,0,0.4c0,0.2,0.1,0.2,0.2,0.2c0.2,0,0.4-0.2,0.7-0.5v-4.3h1v5.6C14.4,54.9,14.5,54.9,14.5,54.9z M18.4,53.2
			c0,0.5,0,0.9-0.1,1.1c-0.1,0.4-0.4,0.6-0.8,0.6s-0.7-0.2-1.1-0.6v0.5h-1v-7.6h1v2.6c0.3-0.4,0.7-0.6,1.1-0.6s0.7,0.2,0.8,0.6
			c0.1,0.2,0.1,0.6,0.1,1.1V53.2z M22.3,52.2h-2.1v1c0,0.5,0.2,0.8,0.5,0.8s0.4-0.1,0.5-0.4c0-0.1,0-0.3,0-0.7h1v0.2
			c0,0.3,0,0.6,0,0.7c0,0.2-0.1,0.4-0.2,0.6c-0.3,0.4-0.7,0.6-1.2,0.6s-0.9-0.2-1.2-0.6c-0.2-0.3-0.3-0.7-0.3-1.3v-2
			c0-0.6,0.1-1,0.3-1.3c0.3-0.4,0.7-0.6,1.2-0.6s0.9,0.2,1.2,0.6c0.2,0.3,0.3,0.7,0.3,1.3C22.3,51.1,22.3,52.2,22.3,52.2z"/>
	</g>
</g>
<g>
	<path class="st5" d="M13.6,5.3h-1.2l-0.8,3l-0.8-3H9.6c0.2,0.7,0.5,1.4,0.7,2.1c0.4,1.1,0.6,1.9,0.7,2.4v3.1h1.2V9.8L13.6,5.3z
		 M16.7,11.2v-2c0-0.6-0.1-1.1-0.3-1.3c-0.3-0.4-0.7-0.6-1.2-0.6S14.3,7.5,14,7.9c-0.2,0.3-0.3,0.7-0.3,1.3v2c0,0.6,0.1,1.1,0.3,1.3
		c0.3,0.4,0.7,0.6,1.2,0.6s0.9-0.2,1.2-0.6C16.6,12.2,16.7,11.8,16.7,11.2z M15.6,11.4c0,0.5-0.2,0.8-0.5,0.8s-0.5-0.3-0.5-0.8V8.9
		c0-0.5,0.2-0.8,0.5-0.8s0.5,0.3,0.5,0.8V11.4z M20.5,13V7.3h-1v4.4c-0.2,0.3-0.4,0.5-0.7,0.5c-0.1,0-0.2-0.1-0.2-0.2
		c0,0,0-0.2,0-0.4V7.3h-1v4.5c0,0.4,0,0.7,0.1,0.9c0.1,0.3,0.3,0.4,0.7,0.4c0.4,0,0.8-0.2,1.2-0.7V13H20.5z"/>
	<g>
		<path class="st5" d="M17,18.8c-0.2,0-0.3,0.1-0.5,0.2v3.4c0.2,0.2,0.3,0.3,0.5,0.3c0.3,0,0.4-0.3,0.4-0.8v-2.4
			C17.4,19.1,17.3,18.8,17,18.8z"/>
		<path class="st5" d="M20.8,18.8c-0.3,0-0.5,0.3-0.5,0.8v0.5h1v-0.5C21.3,19.1,21.1,18.8,20.8,18.8z"/>
		<path class="st5" d="M23.3,15.9c-0.2-0.9-0.9-1.6-1.8-1.7C19.4,14,17.3,14,15.1,14c-2.1,0-4.2,0-6.4,0.2c-0.9,0.1-1.6,0.8-1.8,1.7
			c-0.3,1.3-0.3,2.7-0.3,4s0,2.7,0.3,4c0.2,0.9,0.9,1.6,1.8,1.7c2.1,0.2,4.2,0.2,6.4,0.2c2.1,0,4.2,0,6.4-0.2
			c0.9-0.1,1.6-0.8,1.8-1.7c0.3-1.3,0.3-2.7,0.3-4C23.6,18.6,23.6,17.2,23.3,15.9z M11.4,17.1h-1.2v6.5H9.1v-6.5H7.9V16h3.6v1.1
			H11.4z M14.5,23.6h-1V23c-0.4,0.5-0.8,0.7-1.2,0.7c-0.3,0-0.6-0.1-0.7-0.4c-0.1-0.2-0.1-0.4-0.1-0.8V18h1v4.2c0,0.2,0,0.4,0,0.4
			c0,0.2,0.1,0.2,0.2,0.2c0.2,0,0.4-0.2,0.7-0.5V18h1v5.6C14.4,23.6,14.5,23.6,14.5,23.6z M18.4,21.9c0,0.5,0,0.9-0.1,1.1
			c-0.1,0.4-0.4,0.6-0.8,0.6s-0.7-0.2-1.1-0.6v0.5h-1v-7.6h1v2.5c0.3-0.4,0.7-0.6,1.1-0.6s0.7,0.2,0.8,0.6c0.1,0.2,0.1,0.6,0.1,1.1
			V21.9z M22.3,21h-2.1v1c0,0.5,0.2,0.8,0.5,0.8s0.4-0.1,0.5-0.4c0-0.1,0-0.3,0-0.7h1v0.1c0,0.3,0,0.6,0,0.7c0,0.2-0.1,0.4-0.2,0.6
			c-0.3,0.4-0.7,0.6-1.2,0.6s-0.9-0.2-1.2-0.6c-0.2-0.3-0.3-0.7-0.3-1.3v-2c0-0.6,0.1-1,0.3-1.3c0.3-0.4,0.7-0.6,1.2-0.6
			s0.9,0.2,1.2,0.6c0.2,0.3,0.3,0.7,0.3,1.3C22.3,19.8,22.3,21,22.3,21z"/>
	</g>
</g>
</svg>
