<?xml version="1.0" encoding="utf-8"?>
<!-- Generator: Adobe Illustrator 17.0.0, SVG Export Plug-In . SVG Version: 6.00 Build 0)  -->
<!DOCTYPE svg PUBLIC "-//W3C//DTD SVG 1.1//EN" "http://www.w3.org/Graphics/SVG/1.1/DTD/svg11.dtd">
<svg version="1.1" id="Layer_1" xmlns="http://www.w3.org/2000/svg" xmlns:xlink="http://www.w3.org/1999/xlink" x="0px" y="0px"
	 width="174.5px" height="191.3px" viewBox="0 0 174.5 191.3" style="enable-background:new 0 0 174.5 191.3;" xml:space="preserve"
	>
<style type="text/css">
	.st0{opacity:0.8;fill:#F7941E;enable-background:new    ;}
	.st1{fill:none;stroke:#FFFFFF;stroke-width:1.7808;stroke-linecap:round;stroke-linejoin:round;stroke-miterlimit:10;}
	.st2{fill:none;stroke:#FFFFFF;stroke-width:1.1872;stroke-linecap:round;stroke-linejoin:round;stroke-miterlimit:10;}
	.st3{fill:none;stroke:#FFFFFF;stroke-width:0.5;stroke-linecap:round;stroke-linejoin:round;stroke-miterlimit:10;}
	.st4{enable-background:new    ;}
	.st5{fill:#FFFFFF;}
</style>
<g>
	<polygon class="st0" points="174.5,0 0,0 0,174.5 77.5,174.5 87.2,191.3 96.9,174.5 174.5,174.5 	"/>
	<g>
		<g>
			<polyline class="st1" points="59.9,64.4 79.4,79.1 79.1,65.9 50.8,45.7 53.3,71.3 87.2,98.3 121.1,71.3 125,32.9 87.2,12.6 
				49.5,32.9 			"/>
			<g>
				<line class="st2" x1="87.2" y1="58.4" x2="55.8" y2="37.2"/>
				<line class="st2" x1="87.2" y1="58.4" x2="118.7" y2="37.2"/>
				<line class="st2" x1="68.6" y1="30.2" x2="93.5" y2="45.9"/>
				<line class="st2" x1="74.6" y1="49.9" x2="105.9" y2="30.2"/>
				<line class="st2" x1="68.8" y1="37.5" x2="99.8" y2="19.3"/>
				<line class="st2" x1="91.5" y1="29.2" x2="112.4" y2="41.4"/>
				<line class="st2" x1="74.6" y1="19.3" x2="87.2" y2="26.7"/>
				<line class="st2" x1="87.2" y1="58.4" x2="87.2" y2="98.3"/>
			</g>
		</g>
	</g>
	<line class="st3" x1="9.8" y1="108.5" x2="164.7" y2="108.5"/>
	<g class="st4">
		<path class="st5" d="M58.6,136.2c-1.2,0-2.2-0.4-3-1.2c-1.1-1.1-1.1-2.3-1.1-4.8c0-2.5,0-3.7,1.1-4.8c0.8-0.8,1.9-1.2,3-1.2
			c2.1,0,3.7,1.3,4.1,3.5h-1.3c-0.3-1.4-1.3-2.4-2.8-2.4c-0.8,0-1.5,0.3-2,0.8c-0.7,0.8-0.8,1.6-0.8,4.1c0,2.5,0.1,3.3,0.8,4.1
			c0.5,0.5,1.3,0.8,2,0.8c1.5,0,2.5-0.9,2.8-2.4h1.3C62.3,134.9,60.7,136.2,58.6,136.2z"/>
		<path class="st5" d="M69.5,136.2c-2.4,0-4.1-1.6-4.1-4v-7.9h1.3v7.8c0,1.8,1.1,3,2.9,3c1.7,0,2.9-1.2,2.9-3v-7.8h1.3v7.9
			C73.6,134.5,71.8,136.2,69.5,136.2z"/>
		<path class="st5" d="M81.5,136.1h-4.6v-11.8h4.5c2.1,0,3.5,1.2,3.5,3.2c0,1.2-0.7,2.2-1.7,2.6c1.1,0.4,1.9,1.4,1.9,2.8
			C85,134.9,83.5,136.1,81.5,136.1z M81.2,125.4h-3.1v4.1h3.1c1.3,0,2.3-0.6,2.3-2.1S82.5,125.4,81.2,125.4z M81.3,130.6h-3.2v4.3
			h3.2c1.5,0,2.4-0.8,2.4-2.2S82.8,130.6,81.3,130.6z"/>
		<path class="st5" d="M88,136.1v-11.8h7.3v1.1h-6.1v4.2h5.2v1.1h-5.2v4.3h6.1v1.1H88z"/>
		<path class="st5" d="M98.5,132.3c0,1.8,0.8,2.8,2.4,2.8c0.9,0,1.5-0.3,2.1-0.9l0.8,0.7c-0.8,0.8-1.6,1.3-3,1.3
			c-2.2,0-3.6-1.3-3.6-4.2c0-2.6,1.3-4.2,3.4-4.2c2.1,0,3.4,1.5,3.4,4v0.5H98.5z M102.5,130c-0.3-0.7-1-1.2-1.9-1.2
			s-1.6,0.5-1.9,1.2c-0.2,0.4-0.2,0.7-0.2,1.4h4.3C102.7,130.7,102.7,130.5,102.5,130z"/>
		<path class="st5" d="M109.1,136.1H108l-3-8.2h1.3l2.2,6.6l2.2-6.6h1.3L109.1,136.1z"/>
		<path class="st5" d="M118.9,135.2c-0.6,0.6-1.3,0.9-2.3,0.9s-1.8-0.4-2.3-0.9c-0.8-0.8-1-2-1-3.3s0.2-2.4,1-3.3
			c0.6-0.6,1.3-0.9,2.3-0.9s1.8,0.4,2.3,0.9c0.8,0.8,1,2,1,3.3S119.7,134.4,118.9,135.2z M118,129.5c-0.4-0.4-0.9-0.6-1.5-0.6
			c-0.6,0-1.1,0.2-1.5,0.6c-0.6,0.6-0.7,1.6-0.7,2.5s0.1,1.9,0.7,2.5c0.4,0.4,0.9,0.6,1.5,0.6c0.6,0,1.1-0.2,1.5-0.6
			c0.6-0.6,0.6-1.6,0.6-2.5S118.6,130.1,118,129.5z"/>
	</g>
	<g class="st4">
		<path class="st5" d="M64.3,148H66v-3.6h-1.4v-0.9h7v0.9H70v3.6h2v0.9h-2v6.1h-1v-6.1h-2.1c0,2.8-0.7,4.9-2.2,6.2
			c-0.2-0.3-0.4-0.6-0.7-0.8c1.3-1.1,1.9-2.9,1.9-5.3h-1.7V148z M66.9,148H69v-3.6h-2.1V148z M76.7,150.6c-1.3,1.6-3.1,3.1-5.2,4.4
			c-0.1-0.2-0.4-0.5-0.7-0.8c2.1-1.1,3.8-2.5,5.2-4.3L76.7,150.6z M76.2,143.3c-1.1,1.3-2.5,2.4-4.2,3.4c-0.2-0.2-0.4-0.5-0.6-0.8
			c1.6-0.9,2.9-2,4.1-3.2L76.2,143.3z M76.4,146.9c-1.2,1.4-2.6,2.6-4.3,3.7c-0.2-0.2-0.4-0.5-0.7-0.8c1.6-1,3-2.2,4.2-3.6
			L76.4,146.9z"/>
		<path class="st5" d="M81.1,153.3h6.6c1-1.9,1.9-4.2,2.8-6.8l1.2,0.4c-0.9,2.4-1.8,4.5-2.7,6.4h4.4v1H81.1V153.3z M81.4,145h11.7v1
			H81.4V145z M82.9,147l1-0.4c0.8,1.8,1.5,3.6,2.2,5.4l-1.1,0.5C84.4,150.5,83.7,148.7,82.9,147z M85.9,142.9l0.9-0.5
			c0.4,0.6,0.8,1.2,1.3,1.9l-1,0.6C86.7,144.3,86.3,143.6,85.9,142.9z"/>
		<path class="st5" d="M98,144.8h6.1c-0.4-0.8-0.8-1.4-1-1.8l1-0.5c0.2,0.4,0.6,1,1.1,1.8l-0.9,0.5h6v1h-7.7c0,0.8-0.1,1.4-0.1,2
			h6.1c-0.1,1.8-0.2,3.4-0.3,4.8c-0.1,1.5-0.8,2.3-2.2,2.3c-0.6,0-1.5,0-2.6-0.1c0-0.3-0.1-0.7-0.2-1.2c1.1,0.1,1.9,0.2,2.6,0.2
			c0.8,0,1.2-0.5,1.3-1.4c0.1-1,0.2-2.2,0.3-3.7h-5.1c-0.2,2.8-1.5,5-3.9,6.5c-0.2-0.3-0.5-0.6-0.8-0.9c2.2-1.5,3.4-3.4,3.6-5.9
			c0.1-0.7,0.1-1.5,0.1-2.6H98V144.8z"/>
	</g>
</g>
</svg>
