<?xml version="1.0" encoding="utf-8"?>
<!-- Generator: Adobe Illustrator 20.0.0, SVG Export Plug-In . SVG Version: 6.00 Build 0)  -->
<svg version="1.1" id="Layer_1" xmlns="http://www.w3.org/2000/svg" xmlns:xlink="http://www.w3.org/1999/xlink" x="0px" y="0px"
	 viewBox="0 0 256 182" style="enable-background:new 0 0 256 182;" xml:space="preserve">
<style type="text/css">
	.st0{fill:#676464;}
	.st1{fill:#CFCDCD;}
</style>
<g>
	<g>
		<path class="st0" d="M157.1,123.4c-16.1,0-31.3-6.3-42.7-17.7c-23.5-23.6-23.5-61.9,0-85.4C125.8,8.9,141,2.6,157.1,2.6
			c16.1,0,31.3,6.3,42.7,17.7c23.6,23.6,23.6,61.9,0,85.4C188.4,117.1,173.3,123.4,157.1,123.4z M157.1,4.8
			c-15.6,0-30.2,6.1-41.2,17.1c-22.7,22.7-22.7,59.6,0,82.3c11,11,25.6,17.1,41.2,17.1c15.5,0,30.2-6.1,41.2-17.1
			c22.7-22.7,22.7-59.6,0-82.3C187.3,10.9,172.7,4.8,157.1,4.8z"/>
	</g>
	<g>
		
			<rect x="103.9" y="108.5" transform="matrix(0.7061 -0.7082 0.7082 0.7061 -45.1371 110.4903)" class="st0" width="13.2" height="2.2"/>
	</g>
	<g>
		<g>
			
				<rect x="31.8" y="139.2" transform="matrix(0.7072 -0.707 0.707 0.7072 -80.4646 95.6017)" class="st0" width="86.8" height="11.5"/>
		</g>
	</g>
	<g>
		<path class="st0" d="M192.2,89.9c4.9-6.3,7.8-13.6,8.8-21.2h6.9V57.3H201c-1-7.5-3.9-14.9-8.8-21.2l4.8-4.8l-8.1-8.1l-4.8,4.8
			c-6.3-4.9-13.6-7.8-21.2-8.8v-6.9h-11.5v6.9c-7.5,1-14.9,3.9-21.2,8.8l-4.8-4.8l-8.1,8.1l4.8,4.8c-4.9,6.3-7.8,13.6-8.8,21.2h-6.9
			v11.5h6.9c1,7.5,3.9,14.9,8.8,21.2l-4.8,4.8l8.1,8.1l4.8-4.8c6.3,4.9,13.6,7.8,21.2,8.8v6.9h11.5v-6.9c7.5-1,14.9-3.9,21.2-8.8
			l4.8,4.8l8.1-8.1L192.2,89.9z M135.3,84.9c-12.1-12.1-12.1-31.6,0-43.7c12.1-12.1,31.6-12.1,43.7,0c12.1,12.1,12.1,31.6,0,43.7
			C166.9,97,147.3,97,135.3,84.9z"/>
	</g>
	<g>
		<polygon class="st1" points="103.9,124.4 95.8,116.2 97.3,114.7 105.5,122.8 		"/>
	</g>
	<g>
		
			<rect x="95.9" y="117.3" transform="matrix(0.7071 -0.7071 0.7071 0.7071 -58.6106 104.6772)" class="st1" width="2.2" height="11.5"/>
	</g>
	<g>
		<polygon class="st1" points="58.5,169.8 50.4,161.6 51.9,160.1 60.1,168.2 		"/>
	</g>
	<g>
		
			<rect x="50.5" y="162.7" transform="matrix(0.7071 -0.7071 0.7071 0.7071 -104.0143 85.8771)" class="st1" width="2.2" height="11.5"/>
	</g>
	<g>
		<g>
			<rect x="111.6" y="142.1" class="st0" width="49.6" height="2.2"/>
		</g>
		<g>
			<rect x="111.6" y="146.4" class="st0" width="27.9" height="2.2"/>
		</g>
		<g>
			<rect x="111.6" y="138" class="st0" width="49.6" height="2.2"/>
		</g>
		<g>
			<rect x="111.6" y="156.6" class="st0" width="49.6" height="2.2"/>
		</g>
		<g>
			<rect x="111.6" y="161" class="st0" width="8.4" height="2.2"/>
		</g>
		<g>
			<rect x="111.6" y="152.6" class="st0" width="49.6" height="2.2"/>
		</g>
		<g>
			<rect x="111.6" y="171" class="st0" width="49.6" height="2.2"/>
		</g>
		<g>
			<rect x="111.6" y="175.3" class="st0" width="26.7" height="2.2"/>
		</g>
		<g>
			<rect x="111.6" y="166.9" class="st0" width="49.6" height="2.2"/>
		</g>
		<g>
			<rect x="169.8" y="138.3" class="st0" width="17.7" height="8.4"/>
		</g>
		<g>
			<rect x="169.8" y="152.9" class="st0" width="17.7" height="8.4"/>
		</g>
		<g>
			<rect x="169.8" y="167.5" class="st0" width="17.7" height="8.4"/>
		</g>
	</g>
	<g>
		<path class="st0" d="M66.1,108.7c-11.3,0-20.4-9.2-20.4-20.4c0-11.3,9.2-20.4,20.4-20.4c11.3,0,20.4,9.2,20.4,20.4
			C86.5,99.6,77.4,108.7,66.1,108.7z M66.1,70.1c-10,0-18.2,8.2-18.2,18.2c0,10,8.2,18.2,18.2,18.2c10.1,0,18.2-8.2,18.2-18.2
			C84.3,78.2,76.1,70.1,66.1,70.1z"/>
	</g>
	<g>
		<path class="st0" d="M62.6,50.6c-13.3,0-24.2-10.8-24.2-24.2c0-13.3,10.8-24.2,24.2-24.2c13.3,0,24.2,10.8,24.2,24.2
			C86.8,39.8,76,50.6,62.6,50.6z M62.6,4.5c-12.1,0-21.9,9.8-21.9,22c0,12.1,9.8,22,21.9,22c12.1,0,22-9.8,22-22
			C84.6,14.4,74.7,4.5,62.6,4.5z"/>
	</g>
	<g>
		<g>
			<path class="st0" d="M67.2,94H65v-4.1h1.1c2.7,0,5-2.2,5-5c0-2.7-2.2-5-5-5c-2.7,0-5,2.2-5,5h-2.2c0-4,3.2-7.2,7.2-7.2
				c4,0,7.2,3.2,7.2,7.2c0,3.6-2.6,6.6-6.1,7.1V94z"/>
		</g>
		<g>
			<rect x="65" y="95.8" class="st0" width="2.2" height="1.9"/>
		</g>
	</g>
	<g>
		<polygon class="st0" points="84.9,83.8 84.3,81.6 99.5,77.3 100.1,79.5 		"/>
	</g>
	<g>
		<g>
			<polygon class="st0" points="59.2,37.3 53.9,26.8 48.7,37.3 46.7,36.3 53.9,21.9 61.2,36.3 			"/>
		</g>
		<g>
			<g>
				<g>
					<rect x="49.6" y="32" class="st0" width="8.8" height="2.2"/>
				</g>
			</g>
		</g>
		<g>
			<path class="st0" d="M60.2,28.1h-1.1V9.5h1.1c2.9,0,5.2,2.3,5.2,5.2c0,1.7-0.8,3.1-2,4.1c1.2,1,2,2.4,2,4.1
				C65.4,25.8,63,28.1,60.2,28.1z M61.3,20.1v5.5c1.1-0.4,1.9-1.5,1.9-2.8C63.2,21.6,62.4,20.6,61.3,20.1z M61.3,11.9v5.5
				c1.1-0.4,1.9-1.5,1.9-2.8C63.2,13.5,62.4,12.4,61.3,11.9z"/>
		</g>
		<g>
			<path class="st0" d="M70,41.2c-4.5,0-8.1-3.6-8.1-8.1c0-4.5,3.6-8.1,8.1-8.1c3.2,0,6.2,1.9,7.4,4.9l-2,0.9
				c-0.9-2.2-3.1-3.6-5.4-3.6c-3.3,0-5.9,2.7-5.9,5.9c0,3.3,2.7,5.9,5.9,5.9c2.1,0,4-1.1,5.1-2.9l1.9,1.1
				C75.5,39.7,72.9,41.2,70,41.2z"/>
		</g>
	</g>
	<g>
		<polygon class="st0" points="101.4,42.4 84,35.1 84.8,33 102.3,40.4 		"/>
	</g>
</g>
</svg>
