<?xml version="1.0" encoding="utf-8"?>
<!-- Generator: Adobe Illustrator 20.0.0, SVG Export Plug-In . SVG Version: 6.00 Build 0)  -->
<svg version="1.1" id="Livello_1" xmlns="http://www.w3.org/2000/svg" xmlns:xlink="http://www.w3.org/1999/xlink" x="0px" y="0px"
	 viewBox="0 0 84.1 60.4" style="enable-background:new 0 0 84.1 60.4;" xml:space="preserve">
<style type="text/css">
	.st0{fill:#676464;}
	.st1{fill:#FFFFFF;}
	.st2{fill:#CFCDCD;}
</style>
<g>
	<g>
		<g>
			<polygon class="st0" points="37.4,33.2 10.8,33.2 10.8,59.8 31.5,59.8 31.5,59.8 31.5,53.9 37.4,53.9 37.4,53.9 			"/>
		</g>
	</g>
	<g>
		<polygon class="st1" points="31.5,59.8 37.4,53.9 31.5,53.9 		"/>
	</g>
	<g>
		<g>
			<g>
				<polygon class="st0" points="43.4,0.6 16.7,0.6 16.7,27.3 37.4,27.3 37.4,27.2 37.4,21.3 43.4,21.3 43.4,21.3 				"/>
			</g>
		</g>
		<g>
			<polygon class="st1" points="37.4,27.2 43.4,21.3 37.4,21.3 			"/>
		</g>
	</g>
	<g>
		<g>
			<polygon class="st0" points="70,27.3 43.4,27.3 43.4,53.9 64.1,53.9 64.1,53.9 64.1,48 70,48 70,48 			"/>
		</g>
		<g>
			<polygon class="st1" points="64.1,53.9 70,48 64.1,48 			"/>
		</g>
	</g>
	<g>
		<path class="st1" d="M22.6,39.4h-5.9c-0.2,0-0.4-0.2-0.4-0.4c0-0.2,0.2-0.4,0.4-0.4h5.9c0.2,0,0.4,0.2,0.4,0.4
			C23,39.3,22.8,39.4,22.6,39.4z"/>
	</g>
	<g>
		<path class="st1" d="M31.4,45.4H16.7c-0.2,0-0.4-0.2-0.4-0.4c0-0.2,0.2-0.4,0.4-0.4h14.7c0.2,0,0.4,0.2,0.4,0.4
			C31.7,45.2,31.6,45.4,31.4,45.4z"/>
	</g>
	<g>
		<path class="st1" d="M31.5,48.4H16.7c-0.2,0-0.4-0.2-0.4-0.4c0-0.2,0.2-0.4,0.4-0.4h14.8c0.2,0,0.4,0.2,0.4,0.4
			C31.8,48.2,31.7,48.4,31.5,48.4z"/>
	</g>
	<g>
		<path class="st1" d="M31.5,51.3H16.7c-0.2,0-0.4-0.2-0.4-0.4c0-0.2,0.2-0.4,0.4-0.4h14.7c0.2,0,0.4,0.2,0.4,0.4
			C31.8,51.1,31.7,51.3,31.5,51.3z"/>
	</g>
	<g>
		<circle class="st2" cx="30" cy="39.1" r="1.5"/>
	</g>
	<g>
		<path class="st1" d="M56.7,39.5c-0.2,0-0.4-0.2-0.4-0.4v-5.9c0-0.2,0.2-0.4,0.4-0.4c0.2,0,0.4,0.2,0.4,0.4v5.9
			C57,39.3,56.9,39.5,56.7,39.5z"/>
	</g>
	<g>
		<path class="st1" d="M56.7,48.3c-0.2,0-0.4-0.2-0.4-0.4v-5.9c0-0.2,0.2-0.4,0.4-0.4c0.2,0,0.4,0.2,0.4,0.4V48
			C57,48.2,56.9,48.3,56.7,48.3z"/>
	</g>
	<g>
		<path class="st1" d="M64.1,40.9h-5.9c-0.2,0-0.4-0.2-0.4-0.4c0-0.2,0.2-0.4,0.4-0.4h5.9c0.2,0,0.4,0.2,0.4,0.4
			C64.4,40.8,64.3,40.9,64.1,40.9z"/>
	</g>
	<g>
		<path class="st1" d="M55.2,40.9h-5.7c-0.2,0-0.4-0.2-0.4-0.4c0-0.2,0.2-0.4,0.4-0.4h5.7c0.2,0,0.4,0.2,0.4,0.4
			C55.6,40.8,55.4,40.9,55.2,40.9z"/>
	</g>
	<g>
		<path class="st1" d="M65.6,39.5c-0.2,0-0.4-0.2-0.4-0.4v-3c0-0.2,0.2-0.4,0.4-0.4c0.2,0,0.4,0.2,0.4,0.4v3
			C65.9,39.3,65.8,39.5,65.6,39.5z"/>
	</g>
	<g>
		<path class="st1" d="M52.2,43.9c-0.2,0-0.4-0.2-0.4-0.4v-3c0-0.2,0.2-0.4,0.4-0.4c0.2,0,0.4,0.2,0.4,0.4v3
			C52.6,43.7,52.4,43.9,52.2,43.9z"/>
	</g>
	<g>
		<circle class="st2" cx="56.7" cy="31.7" r="1.5"/>
	</g>
	<g>
		<circle class="st2" cx="47.8" cy="40.6" r="1.5"/>
	</g>
	<g>
		<circle class="st2" cx="52.2" cy="45" r="1.5"/>
	</g>
	<g>
		<circle class="st2" cx="65.6" cy="40.6" r="1.5"/>
	</g>
	<g>
		<circle class="st2" cx="56.7" cy="40.6" r="1.5"/>
	</g>
	<g>
		<circle class="st2" cx="56.7" cy="49.4" r="1.5"/>
	</g>
	<g>
		<circle class="st2" cx="65.6" cy="34.7" r="1.5"/>
	</g>
	<g>
		<path class="st2" d="M40.4,45.4h-3c-0.2,0-0.4-0.2-0.4-0.4c0-0.2,0.2-0.4,0.4-0.4h3c0.2,0,0.4,0.2,0.4,0.4
			C40.8,45.2,40.6,45.4,40.4,45.4z"/>
	</g>
	<g>
		<path class="st2" d="M40.4,48.3h-3c-0.2,0-0.4-0.2-0.4-0.4c0-0.2,0.2-0.4,0.4-0.4h3c0.2,0,0.4,0.2,0.4,0.4
			C40.8,48.2,40.6,48.3,40.4,48.3z"/>
	</g>
	<g>
		<path class="st2" d="M40.4,51.3h-3c-0.2,0-0.4-0.2-0.4-0.4c0-0.2,0.2-0.4,0.4-0.4h3c0.2,0,0.4,0.2,0.4,0.4
			C40.8,51.1,40.6,51.3,40.4,51.3z"/>
	</g>
	<g>
		<path class="st2" d="M73,39.4h-3c-0.2,0-0.4-0.2-0.4-0.4c0-0.2,0.2-0.4,0.4-0.4h3c0.2,0,0.4,0.2,0.4,0.4
			C73.3,39.3,73.2,39.4,73,39.4z"/>
	</g>
	<g>
		<path class="st2" d="M73,42.4h-3c-0.2,0-0.4-0.2-0.4-0.4c0-0.2,0.2-0.4,0.4-0.4h3c0.2,0,0.4,0.2,0.4,0.4
			C73.3,42.2,73.2,42.4,73,42.4z"/>
	</g>
	<g>
		<path class="st2" d="M73,45.4h-3c-0.2,0-0.4-0.2-0.4-0.4c0-0.2,0.2-0.4,0.4-0.4h3c0.2,0,0.4,0.2,0.4,0.4
			C73.3,45.2,73.2,45.4,73,45.4z"/>
	</g>
	<g>
		<path class="st2" d="M46.3,12.8h-3c-0.2,0-0.4-0.2-0.4-0.4c0-0.2,0.2-0.4,0.4-0.4h3c0.2,0,0.4,0.2,0.4,0.4
			C46.7,12.7,46.5,12.8,46.3,12.8z"/>
	</g>
	<g>
		<path class="st2" d="M46.3,15.8h-3c-0.2,0-0.4-0.2-0.4-0.4c0-0.2,0.2-0.4,0.4-0.4h3c0.2,0,0.4,0.2,0.4,0.4
			C46.7,15.6,46.5,15.8,46.3,15.8z"/>
	</g>
	<g>
		<path class="st2" d="M46.3,18.7h-3c-0.2,0-0.4-0.2-0.4-0.4c0-0.2,0.2-0.4,0.4-0.4h3c0.2,0,0.4,0.2,0.4,0.4
			C46.7,18.6,46.5,18.7,46.3,18.7z"/>
	</g>
	<g>
		<path class="st1" d="M31.5,6.9H19.6c-0.2,0-0.4-0.2-0.4-0.4c0-0.2,0.2-0.4,0.4-0.4h11.9c0.2,0,0.4,0.2,0.4,0.4
			C31.9,6.7,31.7,6.9,31.5,6.9z"/>
	</g>
	<g>
		<path class="st1" d="M31.5,9.8H19.7c-0.2,0-0.4-0.2-0.4-0.4c0-0.2,0.2-0.4,0.4-0.4h11.9c0.2,0,0.4,0.2,0.4,0.4
			C31.9,9.7,31.7,9.8,31.5,9.8z"/>
	</g>
	<g>
		<path class="st1" d="M31.5,12.8H19.7c-0.2,0-0.4-0.2-0.4-0.4c0-0.2,0.2-0.4,0.4-0.4h11.8c0.2,0,0.4,0.2,0.4,0.4
			C31.9,12.6,31.7,12.8,31.5,12.8z"/>
	</g>
	<g>
		<path class="st1" d="M31.5,15.8H20.2c-0.2,0-0.4-0.2-0.4-0.4c0-0.2,0.2-0.4,0.4-0.4h11.3c0.2,0,0.4,0.2,0.4,0.4
			C31.9,15.6,31.7,15.8,31.5,15.8z"/>
	</g>
	<g>
		<path class="st1" d="M31.5,18.7H19.7c-0.2,0-0.4-0.2-0.4-0.4c0-0.2,0.2-0.4,0.4-0.4h11.8c0.2,0,0.4,0.2,0.4,0.4
			C31.9,18.6,31.7,18.7,31.5,18.7z"/>
	</g>
	<g>
		<path class="st1" d="M38.6,18.3c-0.1,0-0.2,0-0.3-0.1l-0.8-0.9c-0.1-0.2-0.1-0.4,0-0.5c0.2-0.1,0.4-0.1,0.5,0l0.5,0.6l1.5-2.2
			c0.1-0.2,0.3-0.2,0.5-0.1c0.2,0.1,0.2,0.3,0.1,0.5l-1.8,2.5C38.8,18.3,38.7,18.3,38.6,18.3C38.6,18.3,38.6,18.3,38.6,18.3z"/>
	</g>
	<g>
		<path class="st1" d="M38.6,12.9c-0.1,0-0.2,0-0.3-0.1l-0.8-0.9c-0.1-0.2-0.1-0.4,0-0.5c0.2-0.1,0.4-0.1,0.5,0l0.5,0.6l1.5-2.2
			c0.1-0.2,0.3-0.2,0.5-0.1c0.2,0.1,0.2,0.3,0.1,0.5l-1.8,2.5C38.8,12.9,38.7,12.9,38.6,12.9C38.6,12.9,38.6,12.9,38.6,12.9z"/>
	</g>
	<g>
		<path class="st1" d="M38.6,6.9c-0.1,0-0.2,0-0.3-0.1l-0.8-0.9c-0.1-0.2-0.1-0.4,0-0.5c0.2-0.1,0.4-0.1,0.5,0l0.5,0.6l1.5-2.2
			c0.1-0.2,0.3-0.2,0.5-0.1c0.2,0.1,0.2,0.3,0.1,0.5l-1.8,2.5C38.8,6.8,38.7,6.9,38.6,6.9C38.6,6.9,38.6,6.9,38.6,6.9z"/>
	</g>
</g>
</svg>
