<?xml version="1.0" encoding="utf-8"?>
<!-- Generator: Adobe Illustrator 20.0.0, SVG Export Plug-In . SVG Version: 6.00 Build 0)  -->
<svg version="1.1" id="Livello_1" xmlns="http://www.w3.org/2000/svg" xmlns:xlink="http://www.w3.org/1999/xlink" x="0px" y="0px"
	 viewBox="0 0 84.1 60.4" style="enable-background:new 0 0 84.1 60.4;" xml:space="preserve">
<style type="text/css">
	.st0{fill:#FFFFFF;}
	.st1{fill:#231F20;}
</style>
<g>
	<g>
		<g>
			<g>
				<rect x="25.6" y="45.3" class="st1" width="17.6" height="1.2"/>
			</g>
			<g>
				<path class="st1" d="M16.3,46.7H7.3c-1,0-1.8-0.8-1.8-1.8V12.8h56.1v8.9H60v-7.4H7v30.5c0,0.1,0.1,0.3,0.3,0.3h9.1V46.7z"/>
			</g>
			<g>
				<rect x="18.4" y="45.2" class="st1" width="3.2" height="1.5"/>
			</g>
		</g>
		<g>
			<path class="st1" d="M61.5,14.4H5.5V8c0-1,0.8-1.9,1.9-1.9H12v1.5H7.3C7.2,7.6,7,7.8,7,8v4.9h53V8c0-0.2-0.1-0.3-0.3-0.3h-4.3
				V6.1h4.3c1,0,1.9,0.8,1.9,1.9V14.4z"/>
		</g>
		<g>
			<rect x="45.2" y="6" class="st1" width="6.5" height="1.7"/>
		</g>
		<g>
			<rect x="35.3" y="6" class="st1" width="6.2" height="1.7"/>
		</g>
		<g>
			<rect x="25.5" y="6" class="st1" width="6.2" height="1.7"/>
		</g>
		<g>
			<rect x="15.6" y="6" class="st1" width="6.2" height="1.7"/>
		</g>
		<g>
			<g>
				<path class="st1" d="M13.8,11.5c-1.3,0-2.4-1-2.4-2.3V4.3C11.4,3,12.5,2,13.8,2c1.3,0,2.4,1,2.4,2.3v4.9
					C16.2,10.4,15.1,11.5,13.8,11.5z M13.8,3.2c-0.7,0-1.2,0.5-1.2,1.1v4.9c0,0.6,0.6,1.1,1.2,1.1c0.7,0,1.2-0.5,1.2-1.1V4.3
					C15,3.7,14.5,3.2,13.8,3.2L13.8,3.2z"/>
			</g>
		</g>
		<g>
			<g>
				<path class="st1" d="M23.6,11.5c-1.3,0-2.4-1-2.4-2.3V4.3C21.2,3,22.3,2,23.6,2c1.3,0,2.4,1,2.4,2.3v4.9
					C26.1,10.4,25,11.5,23.6,11.5z M23.6,3.2c-0.7,0-1.2,0.5-1.2,1.1v4.9c0,0.6,0.6,1.1,1.2,1.1c0.7,0,1.2-0.5,1.2-1.1V4.3
					C24.9,3.7,24.3,3.2,23.6,3.2L23.6,3.2z"/>
			</g>
		</g>
		<g>
			<g>
				<path class="st1" d="M33.5,11.5c-1.3,0-2.4-1-2.4-2.3V4.3C31.1,3,32.1,2,33.5,2c1.3,0,2.4,1,2.4,2.3v4.9
					C35.9,10.4,34.8,11.5,33.5,11.5z M33.5,3.2c-0.7,0-1.2,0.5-1.2,1.1v4.9c0,0.6,0.6,1.1,1.2,1.1c0.7,0,1.2-0.5,1.2-1.1V4.3
					C34.7,3.7,34.2,3.2,33.5,3.2L33.5,3.2z"/>
			</g>
		</g>
		<g>
			<g>
				<path class="st1" d="M43.3,11.5c-1.3,0-2.4-1-2.4-2.3V4.3C40.9,3,42,2,43.3,2s2.4,1,2.4,2.3v4.9C45.8,10.4,44.7,11.5,43.3,11.5z
					 M43.3,3.2c-0.7,0-1.2,0.5-1.2,1.1v4.9c0,0.6,0.6,1.1,1.2,1.1s1.2-0.5,1.2-1.1V4.3C44.6,3.7,44,3.2,43.3,3.2z"/>
			</g>
		</g>
		<g>
			<g>
				<path class="st1" d="M53.5,11.5c-1.3,0-2.4-1-2.4-2.3V4.3C51.1,3,52.2,2,53.5,2C54.9,2,56,3,56,4.3v4.9
					C56,10.4,54.9,11.5,53.5,11.5z M53.5,3.2c-0.7,0-1.2,0.5-1.2,1.1v4.9c0,0.6,0.6,1.1,1.2,1.1c0.7,0,1.2-0.5,1.2-1.1V4.3
					C54.8,3.7,54.2,3.2,53.5,3.2L53.5,3.2z"/>
			</g>
		</g>
		<g>
			<g>
				<g>
					<path class="st1" d="M32.9,21.4h-6.4v-6.1h6.4V21.4z M27.3,20.6h4.7v-4.4h-4.7V20.6z"/>
				</g>
			</g>
			<g>
				<g>
					<path class="st1" d="M40.7,21.4h-6.4v-6.1h6.4V21.4z M35.1,20.6h4.7v-4.4h-4.7V20.6z"/>
				</g>
			</g>
			<g>
				<g>
					<path class="st1" d="M48.4,21.4H42v-6.1h6.4V21.4z M42.8,20.6h4.7v-4.4h-4.7V20.6z"/>
				</g>
			</g>
			<g>
				<g>
					<polygon class="st1" points="45.6,28.9 42,28.9 42,22.8 48.4,22.8 48.4,26 47.6,26 47.6,23.6 42.8,23.6 42.8,28.1 45.6,28.1 
											"/>
				</g>
			</g>
			<g>
				<g>
					<path class="st1" d="M56.1,21.4h-6.4v-6.1h6.4V21.4z M50.6,20.6h4.7v-4.4h-4.7V20.6z"/>
				</g>
			</g>
			<g>
				<g>
					<path class="st1" d="M17.4,28.9h-6.4v-6.1h6.4V28.9z M11.8,28.1h4.7v-4.4h-4.7V28.1z"/>
				</g>
			</g>
			<g>
				<g>
					<path class="st1" d="M25.1,28.9h-6.4v-6.1h6.4V28.9z M19.5,28.1h4.7v-4.4h-4.7V28.1z"/>
				</g>
			</g>
			<g>
				<g>
					<path class="st1" d="M32.9,28.9h-6.4v-6.1h6.4V28.9z M27.3,28.1h4.7v-4.4h-4.7V28.1z"/>
				</g>
			</g>
			<g>
				<g>
					<path class="st1" d="M40.7,28.9h-6.4v-6.1h6.4V28.9z M35.1,28.1h4.7v-4.4h-4.7V28.1z"/>
				</g>
			</g>
			<g>
				<g>
					<path class="st1" d="M17.4,36.4h-6.4v-6.1h6.4V36.4z M11.8,35.6h4.7v-4.4h-4.7V35.6z"/>
				</g>
			</g>
			<g>
				<g>
					<path class="st1" d="M25.1,36.4h-6.4v-6.1h6.4V36.4z M19.5,35.6h4.7v-4.4h-4.7V35.6z"/>
				</g>
			</g>
			<g>
				<g>
					<path class="st1" d="M32.9,36.4h-6.4v-6.1h6.4V36.4z M27.3,35.6h4.7v-4.4h-4.7V35.6z"/>
				</g>
			</g>
			<g>
				<g>
					<path class="st1" d="M17.4,43.9h-6.4v-6.1h6.4V43.9z M11.8,43h4.7v-4.4h-4.7V43z"/>
				</g>
			</g>
			<g>
				<g>
					<path class="st1" d="M25.1,43.9h-6.4v-6.1h6.4V43.9z M19.5,43h4.7v-4.4h-4.7V43z"/>
				</g>
			</g>
			<g>
				<g>
					<path class="st1" d="M32.9,43.9h-6.4v-6.1h6.4V43.9z M27.3,43h4.7v-4.4h-4.7V43z"/>
				</g>
			</g>
			<g>
				<g>
					<path class="st1" d="M40.7,36.4h-6.4v-6.1h6.4V36.4z M35.1,35.6h4.7v-4.4h-4.7V35.6z"/>
				</g>
			</g>
			<g>
				<g>
					<path class="st1" d="M40.7,43.9h-6.4v-6.1h6.4V43.9z M35.1,43h4.7v-4.4h-4.7V43z"/>
				</g>
			</g>
		</g>
	</g>
	<g>
		<g>
			<path class="st1" d="M59.9,58.4c-10.3,0-18.8-8.4-18.8-18.8c0-10.3,8.4-18.8,18.8-18.8c10.3,0,18.8,8.4,18.8,18.8
				C78.6,50,70.2,58.4,59.9,58.4z M59.9,22.6c-9.4,0-17,7.6-17,17c0,9.4,7.6,17,17,17c9.4,0,17-7.6,17-17
				C76.9,30.2,69.3,22.6,59.9,22.6z"/>
		</g>
		<g>
			<path class="st1" d="M59.9,55.7c-8.8,0-16-7.2-16-16c0-8.8,7.2-16,16-16c8.8,0,16,7.2,16,16C75.9,48.5,68.7,55.7,59.9,55.7z
				 M59.9,24.5c-8.4,0-15.2,6.8-15.2,15.2c0,8.4,6.8,15.2,15.2,15.2C68.2,54.8,75,48,75,39.6C75,31.3,68.2,24.5,59.9,24.5z"/>
		</g>
		<g>
			<circle class="st1" cx="73" cy="39.6" r="1"/>
		</g>
		<g>
			<circle class="st1" cx="59.9" cy="52.7" r="1"/>
		</g>
		<g>
			<path class="st1" d="M59.2,39.1l1.2,1.2l9-9c0.3-0.3,0.3-0.9,0-1.2v0c-0.3-0.3-0.9-0.3-1.3,0L59.2,39.1z"/>
		</g>
		<g>
			<circle class="st1" cx="59.9" cy="39.6" r="1.8"/>
		</g>
		<g>
			<circle class="st1" cx="46.8" cy="39.6" r="1"/>
		</g>
		<g>
			<circle class="st1" cx="59.9" cy="26.5" r="1"/>
		</g>
		<g>
			<path class="st1" d="M60.6,39.1l-1.2,1.2l-5.5-5.5c-0.3-0.3-0.3-0.9,0-1.2v0c0.3-0.3,0.9-0.3,1.2,0L60.6,39.1z"/>
		</g>
	</g>
</g>
</svg>
