<?xml version="1.0" encoding="utf-8"?>
<!-- Generator: Adobe Illustrator 20.0.0, SVG Export Plug-In . SVG Version: 6.00 Build 0)  -->
<svg version="1.1" id="Layer_1" xmlns="http://www.w3.org/2000/svg" xmlns:xlink="http://www.w3.org/1999/xlink" x="0px" y="0px"
	 viewBox="0 0 256 182" style="enable-background:new 0 0 256 182;" xml:space="preserve">
<style type="text/css">
	.st0{fill:#231F20;}
</style>
<g>
	<g>
		<g>
			<g>
				<g>
					<path class="st0" d="M93.1,74.8l-46.2-6.1l0.2-1.8C48.4,57,52,47.6,57.4,39.4c5.6-8.6,13.3-15.8,22.3-20.9l1.6-0.9l23.1,40.6
						l-3.2,1.8L79.9,22.6c-7.8,4.7-14.5,11.2-19.4,18.8c-4.8,7.2-8,15.5-9.4,24.1l42.6,5.7L93.1,74.8z"/>
				</g>
			</g>
			<g>
				<g>
					<path class="st0" d="M28.2,123.2l-0.7-1.7c-3.5-8.8-5.3-18.2-5.3-28c0-3,0.2-6.2,0.7-10.1l0.2-1.8l67,8.9l-0.5,3.6l-63.3-8.4
						c-0.3,2.9-0.4,5.4-0.4,7.8c0,8.7,1.5,17.1,4.4,25l59.5-23.3l1.3,3.4L28.2,123.2z"/>
				</g>
			</g>
		</g>
		<g>
			<g>
				<g>
					<path class="st0" d="M175.7,80.7l-1.4-5l27.9-7.8c-9.5-29.7-37.5-50.2-68.9-50.2c-11.8,0-23.1,2.8-33.5,8.2l14.6,25.6l-4.5,2.6
						L92.6,23.8l2.3-1.3c11.9-6.7,24.8-10.1,38.4-10.1c17.3,0,33.6,5.5,47.3,16c13.2,10.2,22.9,24.5,27.4,40.5l0.7,2.5L175.7,80.7z"
						/>
				</g>
			</g>
			<g>
				<g>
					<path class="st0" d="M133.2,167.5c-15.9,0-31.2-4.8-44.2-13.8c-12.7-8.8-22.4-21.1-28-35.5l-1-2.4l31.9-12.5l1.9,4.9l-27,10.6
						c11.5,26.5,37.2,43.6,66.4,43.6c39.9,0,72.4-32.5,72.4-72.4c0-5.9-0.7-11.6-2-17.1l-27.9,7.8l-1.4-5l32.9-9.3l0.7,2.5
						c1.9,6.7,2.9,13.8,2.9,21C210.8,132.7,176,167.5,133.2,167.5z"/>
				</g>
			</g>
			<g>
				<g>
					<path class="st0" d="M110.9,52.8L97.5,29.2c-2.6,1.6-5.2,3.4-7.6,5.3l-2.3-2.9c3-2.4,6.3-4.6,9.6-6.5l1.6-0.9L114.1,51
						L110.9,52.8z"/>
				</g>
				<g>
					<path class="st0" d="M64,80.3l-3.6-0.2l1.8-0.1l-1.8-0.2c0.5-4.1,1.4-8.1,2.6-12.1l3.5,1.1C65.3,72.5,64.5,76.4,64,80.3z"/>
				</g>
			</g>
			<g>
				<g>
					<path class="st0" d="M63.4,88.2l-3.7-0.1c0.1-2.5,0.3-5.1,0.6-8.3l0-0.1l1.8,0.4l1.8,0.2C63.6,83.3,63.4,85.8,63.4,88.2z"/>
				</g>
				<g>
					<path class="st0" d="M65.2,118.4l-0.7-1.7c-1.2-2.9-2.1-5.9-2.9-8.9l3.5-0.9c0.6,2.3,1.3,4.5,2.1,6.7l24.9-9.8l1.3,3.4
						L65.2,118.4z"/>
				</g>
			</g>
		</g>
		<g>
			<g>
				<path class="st0" d="M133.2,135c-24.9,0-45.1-20.3-45.1-45.1s20.3-45.1,45.1-45.1s45.1,20.3,45.1,45.1S158.1,135,133.2,135z
					 M133.2,48.4c-22.9,0-41.5,18.6-41.5,41.5c0,22.9,18.6,41.5,41.5,41.5c22.9,0,41.5-18.6,41.5-41.5
					C174.7,67,156.1,48.4,133.2,48.4z"/>
			</g>
		</g>
	</g>
	<g>
		<rect x="34.8" y="175.4" class="st0" width="11.9" height="3.7"/>
	</g>
	<g>
		<polygon class="st0" points="100.7,179.1 53.3,179.1 53.3,175.4 99.3,175.4 125.4,150.2 127.9,152.9 		"/>
	</g>
	<g>
		<rect x="34.8" y="162" class="st0" width="51.8" height="3.7"/>
	</g>
	<g>
		<rect x="34.8" y="148.1" class="st0" width="35.2" height="3.7"/>
	</g>
	<g>
		<rect x="221.8" y="2.9" class="st0" width="11.9" height="3.7"/>
	</g>
	<g>
		<polygon class="st0" points="143.1,31.8 140.6,29.1 167.8,2.9 215.2,2.9 215.2,6.6 169.3,6.6 		"/>
	</g>
	<g>
		<rect x="181.9" y="16.3" class="st0" width="51.8" height="3.7"/>
	</g>
	<g>
		<rect x="198.5" y="30.3" class="st0" width="35.2" height="3.7"/>
	</g>
</g>
</svg>
