<?xml version="1.0" encoding="utf-8"?>
<!-- Generator: Adobe Illustrator 20.0.0, SVG Export Plug-In . SVG Version: 6.00 Build 0)  -->
<svg version="1.1" id="Layer_1" xmlns="http://www.w3.org/2000/svg" xmlns:xlink="http://www.w3.org/1999/xlink" x="0px" y="0px"
	 viewBox="0 0 256 182" style="enable-background:new 0 0 256 182;" xml:space="preserve">
<style type="text/css">
	.st0{fill:#CFCDCD;}
	.st1{fill:#FFFFFF;}
	.st2{fill:#676464;}
	.st3{fill:#E3E0DF;}
</style>
<g>
	<g>
		<g>
			<rect x="97.6" y="152.5" class="st0" width="65.6" height="9"/>
		</g>
		<g>
			<polygon class="st1" points="88.7,157.1 88.7,157.1 97.6,161.5 97.6,152.5 			"/>
		</g>
		<g>
			<rect x="163.2" y="152.5" class="st1" width="3.6" height="9"/>
		</g>
	</g>
	<g>
		<g>
			<circle class="st0" cx="158.9" cy="176.2" r="4.5"/>
		</g>
		<g>
			<g>
				<path class="st0" d="M217.1,140.3c0,2.5-2,4.5-4.5,4.5c-2.5,0-4.5-2-4.5-4.5c0-2.5,2-4.5,4.5-4.5
					C215.1,135.9,217.1,137.9,217.1,140.3z"/>
			</g>
		</g>
		<g>
			<path class="st0" d="M185.8,163.9c-3.1,0-5.6-2.5-5.6-5.6c0-3.1,2.5-5.6,5.6-5.6c3.1,0,5.6,2.5,5.6,5.6
				C191.4,161.4,188.8,163.9,185.8,163.9z M185.8,154.9c-1.9,0-3.4,1.5-3.4,3.4c0,1.9,1.5,3.4,3.4,3.4c1.9,0,3.4-1.5,3.4-3.4
				C189.1,156.4,187.6,154.9,185.8,154.9z"/>
		</g>
	</g>
	<g>
		<g>
			<rect x="37.8" y="1.4" class="st2" width="89.7" height="111.9"/>
		</g>
	</g>
	<g>
		<path class="st0" d="M137.6,172.8H45.7V44h91.9V172.8z M47.9,170.5h87.4V46.2H47.9V170.5z"/>
	</g>
	<g>
		<rect x="64.7" y="72" class="st0" width="23.1" height="2.2"/>
	</g>
	<g>
		<rect x="64.7" y="80.9" class="st0" width="53.8" height="2.2"/>
	</g>
	<g>
		<rect x="64.7" y="89.9" class="st0" width="53.8" height="2.2"/>
	</g>
	<g>
		<rect x="64.7" y="98.9" class="st0" width="53.8" height="2.2"/>
	</g>
	<g>
		<rect x="64.7" y="107.8" class="st0" width="53.8" height="2.2"/>
	</g>
	<g>
		<rect x="64.7" y="116.8" class="st0" width="53.8" height="2.2"/>
	</g>
	<g>
		<rect x="100.6" y="143.7" class="st0" width="17.9" height="2.2"/>
	</g>
	<g>
		<path class="st0" d="M73.7,144.8c0,2.5-2,4.5-4.5,4.5c-2.5,0-4.5-2-4.5-4.5c0-2.5,2-4.5,4.5-4.5C71.7,140.3,73.7,142.4,73.7,144.8
			z"/>
	</g>
	<g>
		<rect x="154.4" y="1.3" class="st2" width="53.8" height="26.9"/>
	</g>
	<g>
		<path class="st0" d="M218.2,38.3h-56V9.2h56V38.3z M164.5,36.1H216V11.4h-51.5V36.1z"/>
	</g>
	<g>
		<path class="st0" d="M190.2,29.3c-3.1,0-5.6-2.5-5.6-5.6c0-3.1,2.5-5.6,5.6-5.6c3.1,0,5.6,2.5,5.6,5.6
			C195.8,26.8,193.3,29.3,190.2,29.3z M190.2,20.4c-1.9,0-3.4,1.5-3.4,3.4c0,1.9,1.5,3.4,3.4,3.4c1.9,0,3.4-1.5,3.4-3.4
			C193.6,21.9,192.1,20.4,190.2,20.4z"/>
	</g>
	<g>
		<rect x="172.3" y="22.6" class="st0" width="9" height="2.2"/>
	</g>
	<g>
		<rect x="199.2" y="22.6" class="st0" width="9" height="2.2"/>
	</g>
	<g>
		<g>
			<rect x="145.4" y="46.4" class="st1" width="9.3" height="86.4"/>
		</g>
		<g>
			<g>
				<path class="st2" d="M206.5,114.3V46.4h-51.9v86.4H188C188,122.6,196.3,114.3,206.5,114.3z"/>
			</g>
			<g>
				<path class="st0" d="M206.5,114.3c-10.2,0-18.5,8.3-18.5,18.5h18.5V114.3z"/>
			</g>
		</g>
		<g>
			<rect x="170.2" y="63.9" class="st3" width="20.1" height="2.2"/>
		</g>
	</g>
	<g>
		<g>
			<rect x="64.4" y="10.3" class="st0" width="72" height="27"/>
		</g>
		<g>
			<g>
				<rect x="66.7" y="6.4" class="st1" width="2.2" height="8.3"/>
			</g>
			<g>
				<rect x="72.6" y="6.4" class="st1" width="2.2" height="8.3"/>
			</g>
			<g>
				<rect x="78.5" y="6.4" class="st1" width="2.2" height="8.3"/>
			</g>
			<g>
				<rect x="84.4" y="6.4" class="st1" width="2.2" height="8.3"/>
			</g>
		</g>
		<g>
			<g>
				<rect x="90.5" y="6.4" class="st1" width="2.2" height="8.3"/>
			</g>
			<g>
				<rect x="96.3" y="6.4" class="st1" width="2.2" height="8.3"/>
			</g>
			<g>
				<rect x="102.3" y="6.4" class="st1" width="2.2" height="8.3"/>
			</g>
			<g>
				<rect x="108.2" y="6.4" class="st1" width="2.2" height="8.3"/>
			</g>
		</g>
		<g>
			<g>
				<rect x="114.1" y="6.4" class="st1" width="2.2" height="8.3"/>
			</g>
			<g>
				<rect x="119.9" y="6.4" class="st1" width="2.2" height="8.3"/>
			</g>
			<g>
				<rect x="125.9" y="6.4" class="st1" width="2.2" height="8.3"/>
			</g>
			<g>
				<rect x="131.8" y="6.4" class="st1" width="2.2" height="8.3"/>
			</g>
		</g>
		<g>
			<rect x="70.9" y="26.6" class="st2" width="29.6" height="4.8"/>
		</g>
		<g>
			<rect x="111.4" y="22.6" class="st2" width="15.7" height="2.2"/>
		</g>
		<g>
			<rect x="111.4" y="27.1" class="st2" width="15.7" height="2.2"/>
		</g>
	</g>
</g>
</svg>
