<?xml version="1.0" encoding="utf-8"?>
<!-- Generator: Adobe Illustrator 20.0.0, SVG Export Plug-In . SVG Version: 6.00 Build 0)  -->
<svg version="1.1" id="Layer_1" xmlns="http://www.w3.org/2000/svg" xmlns:xlink="http://www.w3.org/1999/xlink" x="0px" y="0px"
	 viewBox="0 0 256 182" style="enable-background:new 0 0 256 182;" xml:space="preserve">
<style type="text/css">
	.st0{fill:#676464;}
	.st1{fill:#FFFFFF;}
	.st2{fill:#CFCDCD;}
</style>
<g>
	<g>
		<g>
			<rect x="15.5" y="1.9" class="st0" width="102.9" height="178.3"/>
		</g>
	</g>
	<g>
		<rect x="118.5" y="1.9" class="st0" width="102.9" height="178.3"/>
	</g>
	<g>
		<path class="st1" d="M118,22"/>
	</g>
	<g>
		<path class="st1" d="M118.3,22.1c0-5.6-4.6-10.2-10.2-10.2H25.8v159.8H118V24.2C118.2,23.5,118.3,22.8,118.3,22.1z"/>
	</g>
	<g>
		<path class="st1" d="M118,22.1c0-5.6,4.6-10.2,10.2-10.2h82.3v159.8h-92.2V24.2C118.1,23.5,118,22.8,118,22.1z"/>
	</g>
	<g>
		<rect x="41.2" y="21.2" class="st0" width="32.5" height="2.6"/>
	</g>
	<g>
		<rect x="41.2" y="41.8" class="st0" width="60.8" height="2.6"/>
	</g>
	<g>
		<rect x="41.2" y="52.1" class="st0" width="60.8" height="2.6"/>
	</g>
	<g>
		<rect x="41.2" y="62.4" class="st0" width="60.8" height="2.6"/>
	</g>
	<g>
		<rect x="41.2" y="72.7" class="st0" width="25.7" height="2.6"/>
	</g>
	<g>
		<rect x="41.2" y="92.7" class="st0" width="60.8" height="2.6"/>
	</g>
	<g>
		<rect x="41.2" y="103" class="st0" width="60.8" height="2.6"/>
	</g>
	<g>
		<rect x="41.2" y="113.3" class="st0" width="60.8" height="2.6"/>
	</g>
	<g>
		<rect x="41.2" y="144.7" class="st0" width="60.8" height="2.6"/>
	</g>
	<g>
		<rect x="41.2" y="155" class="st0" width="18" height="2.6"/>
	</g>
	<g>
		<rect x="41.2" y="123.6" class="st0" width="36" height="2.6"/>
	</g>
	<g>
		<rect x="145.9" y="41.8" class="st2" width="51.5" height="2.6"/>
	</g>
	<g>
		<rect x="145.9" y="52.1" class="st2" width="51.5" height="2.6"/>
	</g>
	<g>
		<rect x="145.9" y="62.4" class="st2" width="51.5" height="2.6"/>
	</g>
	<g>
		<rect x="145.9" y="92.7" class="st2" width="51.5" height="2.6"/>
	</g>
	<g>
		<rect x="145.9" y="82.9" class="st2" width="51.5" height="2.6"/>
	</g>
	<g>
		<rect x="145.9" y="103" class="st2" width="51.5" height="2.6"/>
	</g>
	<g>
		<rect x="145.9" y="113.3" class="st2" width="51.5" height="2.6"/>
	</g>
	<g>
		<rect x="145.9" y="144.7" class="st2" width="51.5" height="2.6"/>
	</g>
	<g>
		<rect x="145.9" y="155" class="st2" width="15.3" height="2.6"/>
	</g>
	<g>
		<rect x="145.9" y="123.6" class="st2" width="30.5" height="2.6"/>
	</g>
	<g>
		<rect x="132.5" y="41.8" class="st0" width="6.6" height="2.6"/>
	</g>
	<g>
		<rect x="145.9" y="21.2" class="st2" width="51.5" height="2.6"/>
	</g>
	<g>
		<rect x="132.5" y="21.2" class="st0" width="6.6" height="2.6"/>
	</g>
	<g>
		<rect x="145.9" y="31.5" class="st2" width="13.7" height="2.6"/>
	</g>
	<g>
		<rect x="132.5" y="31.5" class="st0" width="6.6" height="2.6"/>
	</g>
	<g>
		<rect x="132.5" y="52.1" class="st0" width="6.6" height="2.6"/>
	</g>
	<g>
		<rect x="132.5" y="62.4" class="st0" width="6.6" height="2.6"/>
	</g>
	<g>
		<rect x="132.5" y="82.9" class="st0" width="6.6" height="2.6"/>
	</g>
	<g>
		<rect x="132.5" y="92.7" class="st0" width="6.6" height="2.6"/>
	</g>
	<g>
		<rect x="132.5" y="103" class="st0" width="6.6" height="2.6"/>
	</g>
	<g>
		<rect x="132.5" y="113.3" class="st0" width="6.6" height="2.6"/>
	</g>
	<g>
		<rect x="132.5" y="123.5" class="st0" width="6.6" height="2.6"/>
	</g>
	<g>
		<rect x="132.5" y="144.7" class="st0" width="6.6" height="2.6"/>
	</g>
	<g>
		<rect x="132.5" y="155" class="st0" width="6.6" height="2.6"/>
	</g>
	<g>
		<rect x="117.2" y="19.2" class="st0" width="2.6" height="152.6"/>
	</g>
	<g>
		<g>
			<rect x="229.6" y="59.8" class="st0" width="10.9" height="120.4"/>
		</g>
		<g>
			<polygon class="st1" points="235.1,47.5 240.5,59.8 229.6,59.8 			"/>
		</g>
		<g>
			<polygon class="st0" points="235.1,47.5 238,54.1 232.1,54.1 			"/>
		</g>
	</g>
</g>
</svg>
