<?xml version="1.0" encoding="utf-8"?>
<!-- Generator: Adobe Illustrator 20.0.0, SVG Export Plug-In . SVG Version: 6.00 Build 0)  -->
<svg version="1.1" id="Layer_1" xmlns="http://www.w3.org/2000/svg" xmlns:xlink="http://www.w3.org/1999/xlink" x="0px" y="0px"
	 viewBox="0 0 256 182" style="enable-background:new 0 0 256 182;" xml:space="preserve">
<style type="text/css">
	.st0{fill:#231F20;}
</style>
<g>
	<g>
		<g>
			<g>
				<g>
					<path class="st0" d="M114.1,165.6H14.3V5.3h99.8V165.6z M18.9,161h90.5V9.9H18.9V161z"/>
				</g>
			</g>
		</g>
		<g>
			<g>
				<polygon class="st0" points="209.4,141.2 209.4,148 209.4,165.6 109.6,165.6 109.6,5.3 209.4,5.3 209.4,105.4 209.4,107.4 
					206.8,107.4 204.7,103.6 204.7,96.8 204.7,9.9 114.2,9.9 114.2,160.9 204.7,160.9 204.7,139.5 204.7,137.9 207.6,137.9 				"/>
			</g>
		</g>
		<g>
			<g>
				<path class="st0" d="M113.3,153.3H24.7v-140h77.7c6.1,0,11.1,5,11.1,11.1c0,0.7-0.1,1.4-0.3,2.2V153.3z M28,150.1h82V26.1
					l0.1-0.2c0.1-0.5,0.2-1,0.2-1.5c0-4.3-3.5-7.8-7.8-7.8H28V150.1z"/>
			</g>
		</g>
		<g>
			<g>
				<path class="st0" d="M198.9,153.3h-88.5V26.6c-0.2-0.7-0.3-1.4-0.3-2.2c0-6.1,5-11.1,11.1-11.1h77.7v73.3h-3.3V16.6h-74.5
					c-4.3,0-7.8,3.5-7.8,7.8c0,0.5,0.1,1,0.2,1.5l0.1,0.2v123.9h82v-27.7h3.3V153.3z"/>
			</g>
		</g>
		<g>
			<g>
				<rect x="40.6" y="39.7" class="st0" width="30.1" height="3.3"/>
			</g>
		</g>
		<g>
			<g>
				<rect x="40.6" y="58.7" class="st0" width="40.8" height="3.3"/>
			</g>
			<g>
				<rect x="87.6" y="58.7" class="st0" width="9.2" height="3.3"/>
			</g>
		</g>
		<g>
			<g>
				<rect x="40.6" y="71" class="st0" width="15" height="3.3"/>
			</g>
			<g>
				<rect x="61.9" y="71" class="st0" width="34.9" height="3.3"/>
			</g>
		</g>
		<g>
			<g>
				<rect x="40.6" y="83.3" class="st0" width="56.2" height="3.3"/>
			</g>
		</g>
		<g>
			<g>
				<rect x="40.6" y="95.6" class="st0" width="23.8" height="3.3"/>
			</g>
		</g>
		<g>
			<g>
				<rect x="137.4" y="64.2" class="st0" width="29.1" height="3.3"/>
			</g>
		</g>
		<g>
			<g>
				<rect x="137.4" y="76.5" class="st0" width="35.3" height="3.3"/>
			</g>
		</g>
		<g>
			<g>
				<rect x="137.4" y="88.8" class="st0" width="41.8" height="3.3"/>
			</g>
		</g>
		<g>
			<g>
				<rect x="125" y="64.2" class="st0" width="6.1" height="3.3"/>
			</g>
		</g>
		<g>
			<g>
				<rect x="137.4" y="39.5" class="st0" width="47.6" height="3.3"/>
			</g>
		</g>
		<g>
			<g>
				<rect x="125" y="39.5" class="st0" width="6.1" height="3.3"/>
			</g>
		</g>
		<g>
			<g>
				<rect x="137.4" y="51.9" class="st0" width="12.7" height="3.3"/>
			</g>
		</g>
		<g>
			<g>
				<rect x="125" y="51.9" class="st0" width="6.1" height="3.3"/>
			</g>
		</g>
		<g>
			<g>
				<rect x="125" y="76.5" class="st0" width="6.1" height="3.3"/>
			</g>
		</g>
		<g>
			<g>
				<rect x="125" y="88.8" class="st0" width="6.1" height="3.3"/>
			</g>
		</g>
	</g>
	<g>
		<g>
			<g>
				<g>
					<path class="st0" d="M240.7,162.7l-31.3-57.4l-4.7-8.5l-21.3-38.9c-0.3-0.6-0.8-1-1.4-1.2c-0.6-0.2-1.3-0.1-1.9,0.2l-13.6,7.5
						c-0.6,0.3-1,0.8-1.2,1.5c-0.2,0.6-0.1,1.3,0.2,1.9l39.2,71.8l4.7,8.5l13.4,24.6c1.5,2.7,4.2,4.2,7,4.2c1.3,0,2.6-0.3,3.8-1
						l3.9-2.1C241.4,171.5,242.8,166.6,240.7,162.7z M238.3,167.9c-0.4,1.2-1.2,2.2-2.3,2.8l-3.9,2.1c-1.1,0.6-2.4,0.8-3.6,0.4
						c-1.2-0.4-2.2-1.2-2.8-2.3l-16.3-29.8l-1.8-3.3l-38.8-71l12.2-6.7l23.7,43.4l2.1,3.8l31,56.8
						C238.5,165.4,238.6,166.7,238.3,167.9z"/>
				</g>
			</g>
			<g>
				<g>
					<path class="st0" d="M167.8,66.6c-0.4,0-0.8-0.1-1.2-0.3c-0.7-0.4-1.2-1.1-1.3-2l-1.7-21.7l17.2,13.3c0.7,0.5,1,1.3,1,2.2
						s-0.5,1.6-1.3,2L169,66.3C168.6,66.5,168.2,66.6,167.8,66.6z M166.3,47.6l1.3,16.5c0,0,0,0.1,0.1,0.1c0.1,0,0.1,0,0.2,0
						l11.5-6.3c0,0,0.1,0,0.1-0.1c0-0.1,0-0.1-0.1-0.1L166.3,47.6z"/>
				</g>
			</g>
			<g>
				<g>
					<path class="st0" d="M165.1,59.1L164,43.4l12.5,9.6L165.1,59.1z M166.7,48.4l0.5,7l5-2.7L166.7,48.4z"/>
				</g>
			</g>
		</g>
	</g>
</g>
</svg>
