<?xml version="1.0" encoding="utf-8"?>
<!-- Generator: Adobe Illustrator 20.0.0, SVG Export Plug-In . SVG Version: 6.00 Build 0)  -->
<svg version="1.1" id="Layer_1" xmlns="http://www.w3.org/2000/svg" xmlns:xlink="http://www.w3.org/1999/xlink" x="0px" y="0px"
	 viewBox="0 0 256 182" style="enable-background:new 0 0 256 182;" xml:space="preserve">
<style type="text/css">
	.st0{fill:#676464;}
	.st1{fill:#CFCDCD;}
	.st2{fill:#E3E0DF;}
	.st3{fill:#FFFFFF;}
</style>
<g>
	<g>
		<g>
			<path class="st0" d="M204.8,60C195.4,26.5,164.6,1.9,128,1.9c-14.4,0-27.8,3.8-39.5,10.4L128,81.6L204.8,60z"/>
		</g>
		<g>
			<path class="st1" d="M204.8,60L128,81.6l-74.3,29.1c11.6,29.7,40.5,50.7,74.3,50.7c44,0,79.8-35.7,79.8-79.8
				C207.8,74.1,206.8,66.9,204.8,60z"/>
		</g>
		<g>
			<path class="st1" d="M88.6,12.3c-10.9,6.2-20.2,14.9-27.1,25.4C55,47.5,50.6,58.9,49,71.1L128,81.6L88.6,12.3z"/>
		</g>
		<g>
			<path class="st0" d="M49,71.1c-0.4,3.4-0.7,6.9-0.7,10.5c0,10.3,1.9,20.1,5.5,29.1L128,81.6L49,71.1z"/>
		</g>
	</g>
	<g>
		<rect x="181.9" y="18.2" class="st2" width="35" height="2.2"/>
	</g>
	<g>
		<rect x="181.9" y="27.1" class="st2" width="35" height="2.2"/>
	</g>
	<g>
		<rect x="181.9" y="35.9" class="st2" width="20.8" height="2.2"/>
	</g>
	<g>
		<path class="st3" d="M174.1,81.6c0,25.4-20.6,46.1-46.1,46.1c-25.4,0-46.1-20.6-46.1-46.1c0-25.4,20.6-46.1,46.1-46.1
			C153.5,35.5,174.1,56.2,174.1,81.6z"/>
	</g>
	<g>
		<g>
			<path class="st0" d="M170.3,139.2h-9v-9h9V139.2z M163.6,137h4.6v-4.6h-4.6V137z"/>
		</g>
		<g>
			<rect x="176" y="133.2" class="st0" width="40.7" height="2.2"/>
		</g>
	</g>
	<g>
		<g>
			<path class="st0" d="M170.3,152.8h-9v-9h9V152.8z M163.6,150.5h4.6V146h-4.6V150.5z"/>
		</g>
		<g>
			<rect x="176" y="146.7" class="st0" width="40.7" height="2.2"/>
		</g>
	</g>
	<g>
		<g>
			<path class="st0" d="M170.3,166.3h-9v-9h9V166.3z M163.6,164.1h4.6v-4.6h-4.6V164.1z"/>
		</g>
		<g>
			<rect x="176" y="160.3" class="st0" width="40.7" height="2.2"/>
		</g>
	</g>
	<g>
		<g>
			<path class="st0" d="M170.3,180h-9v-9h9V180z M163.6,177.8h4.6v-4.6h-4.6V177.8z"/>
		</g>
		<g>
			<rect x="176" y="174" class="st0" width="40.7" height="2.2"/>
		</g>
	</g>
	<g>
		<polygon class="st2" points="145.3,29.5 143.8,27.9 162.8,8.8 216.7,8.8 216.7,11 163.8,11 		"/>
	</g>
	<g>
		<rect x="39.1" y="169.1" class="st0" width="35" height="2.2"/>
	</g>
	<g>
		<rect x="39.1" y="177.9" class="st0" width="14.7" height="2.2"/>
	</g>
	<g>
		<polygon class="st0" points="93.2,161.9 39.3,161.9 39.3,159.7 92.2,159.7 110.6,140.7 112.2,142.2 		"/>
	</g>
</g>
</svg>
