<?xml version="1.0" encoding="utf-8"?>
<!-- Generator: Adobe Illustrator 20.0.0, SVG Export Plug-In . SVG Version: 6.00 Build 0)  -->
<svg version="1.1" id="Layer_1" xmlns="http://www.w3.org/2000/svg" xmlns:xlink="http://www.w3.org/1999/xlink" x="0px" y="0px"
	 viewBox="0 0 256 182" style="enable-background:new 0 0 256 182;" xml:space="preserve">
<style type="text/css">
	.st0{fill:#231F20;}
</style>
<g>
	<g>
		<g>
			<rect x="181.6" y="127.8" class="st0" width="22.8" height="5.2"/>
		</g>
		<g>
			<path class="st0" d="M144,27.9l-6.7-6.7l-6.7,6.7H27.9c-3.6,0-6.6,3.3-6.6,7.2v109.1c0,4,2.9,7.2,6.6,7.2h0.6
				c-3.9,0-7.1-3.2-7.1-7.1v-16.4h5.1V35.1c0-1.1,0.6-2,1.4-2H131l1.9,1.9c-9.8,18-7.8,40.5,5.3,56.5l2.8-2.3
				c-11.9-14.5-14-35-5.4-51.5l1.7,1.7l6.3-6.3h35.6v-5.2H144z M137.3,34.3l-4-4l4-4l4,4L137.3,34.3z"/>
			<path class="st0" d="M208.7,144.2c0,1.1-0.2,2.1-0.6,3c-1,2.5-3.3,4.2-6,4.2H28.5c-3.9,0-7.1-3.2-7.1-7.1v-16.4h5.1v16.3
				c0,0.1,0,0.3,0,0.4c0,0.1,0,0.2,0.1,0.4c0,0,0,0.1,0.1,0.1c0.2,0.6,0.7,1.1,1.2,1.1c0,0,0,0,0,0h174.2c0.1,0,0.1,0,0.1,0
				c0,0,0,0,0,0c0.3,0,0.6-0.3,0.8-0.6c0,0,0,0,0,0c0.3-0.4,0.4-0.9,0.4-1.4H208.7z"/>
		</g>
		<g>
			<path class="st0" d="M208.8,92.7V57.6h-5.2v35.3l-6.4,6.4l2,2c-16.7,8.6-37.2,6.5-51.8-5.5l-2.3,2.8c9.3,7.7,20.8,11.6,32.4,11.6
				c8.4,0,16.8-2,24.3-6.2l1.8,1.8v38.5h5.1c0,1.1-0.2,2.1-0.6,3c0.4-0.9,0.7-1.9,0.7-2.9v-38.4l6.6-6.6L208.8,92.7z M202.3,99.3
				l4-4l4,4l-4,4L202.3,99.3z"/>
		</g>
		<g>
			<path class="st0" d="M208.7,144.2c0,1.1-0.2,2.1-0.6,3c-1.1,2.5-3.6,4.2-6.5,4.2H28.5c-3.9,0-7.1-3.2-7.1-7.1v-16.4h145.8v5.2
				H26.5v11.2c0,0.1,0,0.2,0,0.3c0,0.1,0,0.3,0.1,0.4c0,0,0,0.1,0.1,0.1c0.2,0.5,0.7,0.9,1.2,1.1c0,0,0,0,0,0
				c0.2,0.1,0.4,0.1,0.6,0.1h173.1c0.2,0,0.4,0,0.6-0.1c0,0,0,0,0,0c0.3-0.1,0.6-0.3,0.8-0.6c0,0,0,0,0,0c0.3-0.3,0.5-0.8,0.5-1.3
				v-0.1H208.7z"/>
		</g>
		<g>
			<path class="st0" d="M145,179.2H85l12.5-33h35L145,179.2z M92.5,174h45l-8.6-22.6h-27.8L92.5,174z"/>
		</g>
		<g>
			<rect x="67.7" y="175.3" class="st0" width="82.3" height="5.2"/>
		</g>
		<g>
			<rect x="155.1" y="175.3" class="st0" width="9.3" height="5.2"/>
		</g>
		<g>
			<path class="st0" d="M113.9,145.9c-3.5,0-6.4-2.9-6.4-6.4s2.9-6.4,6.4-6.4s6.4,2.9,6.4,6.4S117.4,145.9,113.9,145.9z
				 M113.9,135.8c-2.1,0-3.8,1.7-3.8,3.8s1.7,3.8,3.8,3.8c2.1,0,3.8-1.7,3.8-3.8C117.6,137.5,116,135.8,113.9,135.8z"/>
		</g>
		<g>
			<g>
				
					<ellipse transform="matrix(0.7047 -0.7095 0.7095 0.7047 -38.6497 160.7341)" class="st0" cx="173.8" cy="126.8" rx="5.3" ry="5.3"/>
			</g>
			<g>
				
					<ellipse transform="matrix(0.7047 -0.7095 0.7095 0.7047 -13.5555 99.2264)" class="st0" cx="112.4" cy="65.9" rx="5.3" ry="5.3"/>
			</g>
			<g>
				
					<rect x="123.6" y="60.4" transform="matrix(0.7047 -0.7095 0.7095 0.7047 -18.9023 112.2648)" class="st0" width="3.6" height="36.8"/>
			</g>
			<g>
				
					<rect x="157.6" y="92.3" transform="matrix(0.7047 -0.7095 0.7095 0.7047 -32.7994 146.343)" class="st0" width="3.6" height="40.5"/>
			</g>
			<g>
				<path class="st0" d="M142.7,103.3l-9.1-9.1l9.1-9.1l9.1,9.1L142.7,103.3z M138.7,94.2l4,4l4-4l-4-4L138.7,94.2z"/>
			</g>
			<g>
				<g>
					<path class="st0" d="M158.6,81.9l-2.9-2.9l1-1.7c4.1-6.9,8.1-15.1,11.7-23.7c3.8-9.2,6.8-18.1,8.6-25.7l0.4-1.5l21.6-5.9l1.4,5
						l-18.6,5c-1.9,7.5-4.8,16.1-8.5,25c-2.4,5.7-5,11.3-7.6,16.4c6-3.2,12.7-6.4,19.3-9.1c7.8-3.2,15.5-5.9,22.3-7.8l4.9-17.9
						l5,1.4l-5.6,20.8l-1.5,0.4c-7,1.8-14.9,4.6-23.1,7.9c-9.4,3.9-19.3,8.9-26.5,13.3L158.6,81.9z"/>
				</g>
				<g>
					<path class="st0" d="M189.6,55.1c-1.9,0-3.7-0.7-5.1-2.1c-2.8-2.8-2.8-7.4,0-10.3c2.8-2.8,7.4-2.8,10.3,0
						c2.8,2.8,2.8,7.4,0,10.3C193.4,54.4,191.5,55.1,189.6,55.1z M189.6,45.8c-0.5,0-1.1,0.2-1.5,0.6c-0.8,0.8-0.8,2.1,0,2.9
						c0.8,0.8,2.1,0.8,2.9,0c0.8-0.8,0.8-2.1,0-2.9C190.7,46,190.2,45.8,189.6,45.8z"/>
				</g>
				<g>
					<path class="st0" d="M220,47l-30.8-30.8l14.7-14.7l30.8,30.8L220,47z M196.5,16.3L220,39.7l7.4-7.4L203.9,8.9L196.5,16.3z"/>
				</g>
				<g>
					
						<rect x="155.6" y="61.5" transform="matrix(0.7071 -0.7071 0.7071 0.7071 5.4868 141.4398)" class="st0" width="35.7" height="5.2"/>
				</g>
			</g>
		</g>
	</g>
	<g>
		<path class="st0" d="M77.6,95.5H36V44.6h41.5L77.6,95.5L77.6,95.5z M38.6,92.9H75V47.2H38.6V92.9z"/>
	</g>
	<g>
		<path class="st0" d="M77.6,119.8H36V99.9h41.5L77.6,119.8L77.6,119.8z M38.6,117.2H75v-14.7H38.6V117.2z"/>
	</g>
	<g>
		<rect x="121.6" y="116.8" class="st0" width="8.6" height="2.6"/>
	</g>
	<g>
		<rect x="87.4" y="116.8" class="st0" width="29.4" height="2.6"/>
	</g>
	<g>
		<rect x="106.9" y="108.6" class="st0" width="23.3" height="2.6"/>
	</g>
	<g>
		<rect x="87.3" y="108.6" class="st0" width="12.3" height="2.6"/>
	</g>
	<g>
		<rect x="87.4" y="100.3" class="st0" width="35.7" height="2.6"/>
	</g>
</g>
</svg>
