<?xml version="1.0" encoding="utf-8"?>
<!-- Generator: Adobe Illustrator 20.0.0, SVG Export Plug-In . SVG Version: 6.00 Build 0)  -->
<svg version="1.1" id="Layer_1" xmlns="http://www.w3.org/2000/svg" xmlns:xlink="http://www.w3.org/1999/xlink" x="0px" y="0px"
	 viewBox="0 0 256 182" style="enable-background:new 0 0 256 182;" xml:space="preserve">
<style type="text/css">
	.st0{fill:#231F20;}
</style>
<g>
	<g>
		<g>
			<g>
				<g>
					<path class="st0" d="M55.4,176.6l-13-13l55.3-55.2l13,13L55.4,176.6z M49.2,163.7l6.1,6.1l48.4-48.4l-6.1-6.1L49.2,163.7z"/>
				</g>
			</g>
		</g>
	</g>
	<g>
		<g>
			<g>
				<path class="st0" d="M160.7,129.4h-18.3v-8.4c-8.1-1.4-15.7-4.5-22.2-9.2l-5.9,5.9l-12.9-12.9l5.9-5.9
					c-4.7-6.5-7.8-14.2-9.2-22.2h-8.4V58.2H98c1.4-8.1,4.5-15.7,9.2-22.2l-5.9-5.9l12.9-12.9l5.9,5.9c6.5-4.7,14.2-7.8,22.2-9.2V5.4
					h18.3v8.4c8.1,1.4,15.7,4.5,22.2,9.2l5.9-5.9l12.9,12.9l-5.9,5.9c4.7,6.5,7.8,14.2,9.2,22.2h8.4v18.2h-8.4
					c-1.4,8.1-4.5,15.7-9.2,22.3l5.9,6l-12.9,12.9l-5.9-5.9c-6.5,4.7-14.2,7.8-22.2,9.2V129.4z M147.2,124.6h8.7v-7.8l2.1-0.3
					c8.7-1.2,16.9-4.6,23.7-9.8l1.7-1.3l5.4,5.4l6.1-6.1l-5.4-5.6l1.3-1.7c5.3-6.8,8.7-15,9.8-23.7l0.3-2.1h7.8V63H201l-0.3-2.1
					c-1.2-8.7-4.6-16.9-9.8-23.7l-1.3-1.7l5.4-5.4l-6.1-6.1l-5.4,5.4l-1.7-1.3c-6.8-5.3-15-8.7-23.7-9.8l-2.1-0.3v-7.8h-8.7V18
					l-2.1,0.3c-8.7,1.2-16.9,4.6-23.7,9.8l-1.7,1.3l-5.4-5.4l-6.1,6.1l5.4,5.4l-1.3,1.7c-5.3,6.8-8.7,15-9.8,23.7l-0.3,2.1h-7.8v8.7
					h7.8l0.3,2.1c1.2,8.7,4.6,16.9,9.8,23.7l1.3,1.7l-5.4,5.4l6.1,6.1l5.4-5.4l1.7,1.3c6.8,5.3,15,8.7,23.7,9.8l2.1,0.3V124.6z
					 M151.5,106.1C151.5,106.1,151.5,106.1,151.5,106.1c-10.4,0-20.1-4.1-27.3-11.4c-7.3-7.3-11.4-17-11.4-27.4
					c0-10.3,4-20,11.4-27.4s17-11.4,27.4-11.4s20,4,27.4,11.4c7.3,7.3,11.4,17,11.4,27.4s-4,20-11.4,27.4
					C171.6,102.1,161.9,106.1,151.5,106.1z M151.6,33.5c-9,0-17.5,3.5-23.9,9.9c-6.4,6.4-9.9,14.9-9.9,23.9s3.5,17.5,9.9,23.9l0,0
					c6.3,6.4,14.8,9.9,23.8,9.9c0,0,0,0,0.1,0c9.1,0,17.6-3.5,24-9.9c6.4-6.4,9.9-14.9,9.9-23.9s-3.5-17.5-9.9-23.9
					C169.1,37,160.6,33.5,151.6,33.5z"/>
			</g>
		</g>
		<g>
			<g>
				<path class="st0" d="M164.3,84.2c-2.5,2-5.6,3.4-8.9,4.1l0,0.1l0.4,2.5c3.8-0.7,7.2-2.4,10.2-4.7L164.3,84.2z M151.1,43.4
					c-13.1,0-23.9,10.7-23.9,24c0,13.1,10.7,23.9,23.9,23.9c0.4,0,0.8,0,1.3,0l-0.3-2.6c-0.3,0-0.6,0-0.9,0
					c-11.7,0-21.4-9.6-21.4-21.4S139.4,46,151.1,46c11.7,0,21.4,9.5,21.4,21.4c0,4.6-1.4,8.8-3.9,12.3l2.1,1.5
					c2.7-3.9,4.3-8.7,4.3-13.8C175.1,54.2,164.4,43.4,151.1,43.4z"/>
			</g>
		</g>
		<g>
			<g>
				<g>
					<path class="st0" d="M152.4,74.1h-2.6v-4.8h1.3c3.2,0,5.9-2.6,5.9-5.9c0-3.2-2.6-5.9-5.9-5.9c-3.2,0-5.9,2.6-5.9,5.9h-2.6
						c0-4.7,3.8-8.5,8.5-8.5c4.7,0,8.5,3.8,8.5,8.5c0,4.2-3.1,7.7-7.2,8.3V74.1z"/>
				</g>
			</g>
			<g>
				<g>
					<rect x="149.8" y="76.2" class="st0" width="2.6" height="2.2"/>
				</g>
			</g>
		</g>
	</g>
	<g>
		
			<rect x="90.9" y="119.1" transform="matrix(0.6834 -0.73 0.73 0.6834 -62.6498 108.0908)" class="st0" width="4.8" height="14.3"/>
	</g>
	<g>
		<rect x="57.1" y="153" transform="matrix(0.6834 -0.73 0.73 0.6834 -98.0696 94.101)" class="st0" width="4.8" height="14.3"/>
	</g>
</g>
</svg>
