<?xml version="1.0" encoding="utf-8"?>
<!-- Generator: Adobe Illustrator 19.2.1, SVG Export Plug-In . SVG Version: 6.00 Build 0)  -->
<svg version="1.1" id="Layer_1" xmlns="http://www.w3.org/2000/svg" xmlns:xlink="http://www.w3.org/1999/xlink" x="0px" y="0px"
	 viewBox="0 0 110 95" style="enable-background:new 0 0 110 95;" xml:space="preserve">
<style type="text/css">
	.st0{fill:#231F20;}
	.st1{fill:none;stroke:#231F20;stroke-miterlimit:10;}
	.st2{fill:none;stroke:#010101;stroke-miterlimit:10;}
	.st3{fill:#F7941D;}
	.st4{fill:#45B97C;}
</style>
<g>
	<circle class="st0" cx="57.4" cy="85.8" r="4.2"/>
	<circle class="st0" cx="15.4" cy="44.1" r="4.2"/>
	<line class="st1" x1="34.4" y1="63" x2="17.9" y2="46.6"/>
	<line class="st2" x1="56.7" y1="85.2" x2="38.5" y2="67.1"/>
	<polygon class="st2" points="33.6,28.3 29.5,24.2 33.6,20 37.7,24.2 	"/>
	<polygon class="st2" points="77.2,71.9 73,67.8 77.2,63.6 81.3,67.8 	"/>
	<polygon class="st2" points="37,68.7 32.9,64.5 37,60.4 41.1,64.5 	"/>
	<path class="st2" d="M39.3,66.4c10.1,8.4,24.2,9.3,35.2,2.9"/>
	<path class="st2" d="M32.3,27c-6.4,11-5.4,25.2,2.9,35.3"/>
	<g>
		<path class="st3" d="M88.2,28.7L75.4,15c-0.4-0.5-1.1-0.5-1.6-0.1c-2.4,2-15.3,12.4-28,15.8h-0.1c-0.3,0.1-0.6,0.3-0.8,0.6
			c-0.1,0.3-0.2,0.7,0,1l0.1,0.1l0,0c0,0.1,1.7,3.9,1.8,9.3c0,3.3-0.6,6.5-1.7,9.4c-0.4,0-0.8,0.2-1.1,0.5c-0.7,0.6-0.7,1.7-0.1,2.4
			c0.6,0.7,1.7,0.7,2.4,0.1c0.4-0.4,0.6-0.9,0.5-1.4L59.4,41c0.3-0.3,0.4-0.7,0.3-1.2c-0.4-1.4,0.1-3,1.1-4c0.8-0.7,1.8-1.1,2.9-1.1
			s2.1,0.5,2.8,1.3s1.1,1.8,1.1,2.9c0,1.1-0.5,2.1-1.3,2.8s-1.8,1.1-2.9,1.1c-0.4,0-0.8-0.1-1.2-0.2c-0.4-0.1-0.9,0-1.2,0.3
			L48.6,54.7c-0.5-0.1-1,0.1-1.4,0.4c-0.7,0.6-0.7,1.7-0.1,2.4c0.6,0.7,1.7,0.7,2.4,0.1c0.3-0.3,0.5-0.7,0.5-1.1
			c2.7-0.9,5.5-1.3,8.4-1.2c0.4,0,0.7,0,1.1,0.1c5.3,0.4,9.2,2.4,9.2,2.4l0.1,0.1C69,58,69.1,58,69.3,58c0.2,0,0.3,0,0.5-0.1
			c0.3-0.1,0.6-0.4,0.7-0.7v-0.1C74.7,44.7,86,32.6,88.2,30.3C88.6,29.8,88.6,29.1,88.2,28.7L88.2,28.7z"/>
		<path class="st4" d="M98.5,19.4l-13.1-14C85.2,5.2,84.9,5,84.6,5S84,5.1,83.8,5.3l-6,5.6c-0.5,0.4-0.5,1.2-0.1,1.6l13.1,14
			c0.2,0.2,0.5,0.4,0.8,0.4s0.6-0.1,0.8-0.3l6-5.6C98.9,20.6,98.9,19.8,98.5,19.4L98.5,19.4z"/>
	</g>
</g>
</svg>
