<?xml version="1.0" encoding="utf-8"?>
<!-- Generator: Adobe Illustrator 20.0.0, SVG Export Plug-In . SVG Version: 6.00 Build 0)  -->
<svg version="1.1" id="Layer_1" xmlns="http://www.w3.org/2000/svg" xmlns:xlink="http://www.w3.org/1999/xlink" x="0px" y="0px"
	 viewBox="0 0 142 100" style="enable-background:new 0 0 142 100;" xml:space="preserve">
<style type="text/css">
	.st0{fill:#F15B4A;}
	.st1{clip-path:url(#SVGID_2_);}
	.st2{fill:#FCF7E9;}
	.st3{fill:#C7C4BC;}
	.st4{clip-path:url(#SVGID_4_);}
	.st5{fill:#FFFFFF;}
	.st6{fill:#EDC393;}
	.st7{fill:#B1B3B6;}
	.st8{fill:#333132;}
	.st9{fill:#4F341A;}
	.st10{fill:#2A160C;}
	.st11{fill:#452B13;}
	.st12{fill:#4D4E4A;}
	.st13{fill:#3E3B3A;}
	.st14{opacity:0.5;fill:#8F8C86;}
	.st15{opacity:0.5;clip-path:url(#SVGID_6_);fill:#8F8C86;}
	.st16{fill:#F37223;}
	.st17{fill:#BF5A28;}
	.st18{fill:#DAB17C;}
	.st19{fill:#F89420;}
	.st20{fill:url(#SVGID_7_);}
	.st21{fill:#FDBE14;}
	.st22{fill:#F2F2F2;}
	.st23{clip-path:url(#SVGID_9_);}
	.st24{fill:#06BDCD;}
	.st25{opacity:0.5;clip-path:url(#SVGID_9_);}
	.st26{fill:#8F8C86;}
	.st27{fill:#79BEC0;}
	.st28{opacity:0.5;fill:#FFFFFF;}
	.st29{clip-path:url(#SVGID_11_);}
	.st30{fill:#C5DA4E;}
	.st31{fill:#A3BD3D;}
	.st32{fill:#6AB352;}
	.st33{fill:#5A462C;}
	.st34{fill:#D4E172;}
	.st35{fill:#ECEC83;}
	.st36{fill:#C2E1F1;}
	.st37{fill:#8BA3B0;}
	.st38{fill:#8FC640;}
	.st39{fill:#72A441;}
	.st40{fill:#976339;}
	.st41{fill:#7A4F2A;}
	
		.st42{fill:none;stroke:#FFFFFF;stroke-width:0.771;stroke-linecap:round;stroke-linejoin:round;stroke-miterlimit:10;stroke-dasharray:4.6259;}
	
		.st43{fill:none;stroke:#FFFFFF;stroke-width:0.6936;stroke-linecap:round;stroke-linejoin:round;stroke-miterlimit:10;stroke-dasharray:4.1616;}
	.st44{fill:#D46528;}
	.st45{fill:#F3F1E6;}
	.st46{fill:#D4D2C3;}
	.st47{clip-path:url(#SVGID_25_);}
	.st48{fill:#EEE809;}
	.st49{fill:#94D9F8;}
	.st50{fill:#211E1F;}
	.st51{fill:#231F20;}
	.st52{fill:#F7941F;}
	.st53{fill:#47B77B;}
	.st54{fill:#221F1F;}
	.st55{fill:#F5EB0E;}
	.st56{fill:#EBE70E;}
	.st57{fill:url(#);}
	.st58{fill:none;stroke:url(#);stroke-miterlimit:10;}
	.st59{fill:#F7941D;}
	.st60{fill:#45B97C;}
	.st61{fill:none;stroke:#010101;stroke-miterlimit:10;}
	.st62{fill:#010101;}
	.st63{fill:#4BC3C9;}
	.st64{fill:#DD1D4F;}
	.st65{fill:none;stroke:#231F20;stroke-width:0.9625;stroke-linecap:round;stroke-linejoin:round;stroke-miterlimit:10;}
	.st66{fill:none;stroke:url(#);stroke-width:0.6902;stroke-miterlimit:10;}
	.st67{fill:#FBAA19;}
	.st68{fill:none;stroke:#221F1F;stroke-width:0.8692;stroke-miterlimit:10;}
	.st69{fill:none;stroke:#221F1F;stroke-width:0.8566;stroke-miterlimit:10;}
	.st70{fill:none;stroke:url(#);stroke-width:0.7698;stroke-miterlimit:10;}
	.st71{fill:none;stroke:#221F1F;stroke-width:0.8028;stroke-miterlimit:10;}
	.st72{fill:#FFFFFF;stroke:url(#);stroke-width:0.6902;stroke-miterlimit:10;}
	.st73{fill:none;stroke:url(#);stroke-width:0.4601;stroke-miterlimit:10;}
	.st74{fill:none;stroke:#79BEC0;stroke-width:2.3005;stroke-miterlimit:10;}
	.st75{fill:#C9E9E6;}
	.st76{fill:#E5EFF5;}
	.st77{fill:#0A3655;}
	.st78{fill:none;stroke:#79BEC0;stroke-width:1.2825;stroke-miterlimit:10;}
	.st79{fill:none;stroke:#F15B4A;stroke-miterlimit:10;}
	.st80{fill:none;stroke:#F15B4A;stroke-width:2;stroke-linecap:round;stroke-linejoin:round;stroke-miterlimit:10;}
	.st81{fill:#FFFFFF;stroke:#F15B4A;stroke-miterlimit:10;}
</style>
<g>
	<g>
		<polygon class="st56" points="26.2,32.8 50.8,32.8 50.8,23.2 49.7,20.5 48.2,18.5 43,17 39.2,18.1 35.4,19.9 33.9,27.2 31.4,30.7 
					"/>
		<path class="st63" d="M20.6,1.9V5h37.6v1H20.6v14.5h12.3v1H20.6v3.3c0,0,0,6.1,5.4,7.4c0.7,0.2,1.4,0.2,2.2,0.2c0,0,7.6,0,7.6-7.6
			c0-7.6,7.6-7.6,7.6-7.6h15.2c0-7.3,0-15.2,0-15.2H20.6z"/>
		<g>
			<path class="st63" d="M51,59.5c0,2.1,0,3.3,0,3.3l38.1,0v-3.3H51z"/>
			<path class="st63" d="M89.1,44.2H51c0,5.5,0,10.8,0,14.3h38.1V44.2z"/>
			<path class="st63" d="M51,28.1h38.1v-3.3c0,0,0-7.6-7.6-7.6c-6,0-28.9,0-38.1,0c0,0,7.6,0,7.6,7.6C51,25.6,51,26.7,51,28.1z"/>
			<path class="st63" d="M51,29c0,3.8,0,9,0,14.2h38.1V29H51z"/>
		</g>
		<g>
			<path class="st51" d="M28.2,32.8h-3.8c-8,0-8.1-8-8.1-8.1V1.4h4.8v23.3c0,0.3,0.1,7.1,7.1,7.1V32.8z M17.3,2.4v22.4
				c0,0.3,0.1,6.9,6.8,7.1c-3.9-2.1-3.9-7.1-3.9-7.1V2.4H17.3z"/>
		</g>
		<g>
			<rect x="41.5" y="16.7" class="st51" width="40" height="1"/>
		</g>
		<g>
			<path class="st51" d="M51.5,63.3h-4.8V24.7c0-7.1-6.8-7.1-7.1-7.1v-1h3.8c0.1,0,8.1,0.1,8.1,8.1V63.3z M47.7,62.3h2.9V24.7
				c0-6.7-6.2-7.1-7.1-7.1c2.1,1,4.2,3,4.2,7.1V62.3z"/>
		</g>
		<g>
			<path class="st51" d="M93.4,62.8h-4.8l0-38.1c0-0.3-0.1-7.1-7.1-7.1v-1h3.8c8,0,8.1,8,8.1,8.1V62.8z M89.6,62.3h2.9V24.7
				c0-0.3-0.1-6.9-6.8-7.1c3.9,2.1,3.9,7.1,3.9,7.1V62.3z"/>
		</g>
		<g>
			<path class="st51" d="M28.2,32.8v-0.9c-1.9,0.9-3.8,0.9-3.8,0.9v-1c0.3,0,7.1-0.1,7.1-7.1c0-8,8-8.1,8.1-8.1h3.8v1
				c-0.3,0-7.1,0.1-7.1,7.1C36.3,32.7,28.3,32.8,28.2,32.8z M39.5,17.6c-0.8,0-7.1,0.4-7.1,7.1c0,4.1-2.1,6.1-4.2,7.1
				c0.8,0,7.1-0.4,7.1-7.1C35.3,20.6,37.5,18.6,39.5,17.6z"/>
		</g>
		<g>
			<path class="st51" d="M58.2,17V1.4h4.8V17l-1,0V2.4h-2.9V17L58.2,17z"/>
		</g>
	</g>
	<g>
		<g>
			<g>
				<path class="st51" d="M125.7,98.6H70V62h55.7V98.6z M71.1,97.5h53.5V63.1H71.1V97.5z"/>
			</g>
		</g>
		<path class="st64" d="M73.4,65.7v29.1h49.4V65.7H73.4z M95.1,83.7v-6.8l6,3.3L95.1,83.7z"/>
		<g>
			<g>
				<rect x="70.6" y="56.8" class="st64" width="54.6" height="5.5"/>
			</g>
			<g>
				<g>
					<polygon class="st5" points="76.3,62.5 75.8,62.1 81.2,56.6 81.7,57.1 					"/>
				</g>
				<g>
					<polygon class="st5" points="81.7,62.5 81.2,62.1 86.6,56.6 87.1,57.1 					"/>
				</g>
				<g>
					
						<rect x="85.8" y="59.2" transform="matrix(0.7072 -0.7071 0.7071 0.7072 -15.8711 80.8555)" class="st5" width="7.7" height="0.7"/>
				</g>
				<g>
					<polygon class="st5" points="92.6,62.5 92.2,62.1 97.6,56.6 98.1,57.1 					"/>
				</g>
				<g>
					<polygon class="st5" points="98.1,62.5 97.6,62.1 103.1,56.6 103.5,57.1 					"/>
				</g>
				<g>
					
						<rect x="102.2" y="59.2" transform="matrix(0.7071 -0.7071 0.7071 0.7071 -11.0793 92.4278)" class="st5" width="7.7" height="0.7"/>
				</g>
				<g>
					
						<rect x="107.7" y="59.2" transform="matrix(0.707 -0.7072 0.7072 0.707 -9.4692 96.3195)" class="st5" width="7.7" height="0.7"/>
				</g>
				<g>
					
						<rect x="113.1" y="59.2" transform="matrix(0.7053 -0.7089 0.7089 0.7053 -7.7787 100.4632)" class="st5" width="7.7" height="0.7"/>
				</g>
				<g>
					<polygon class="st5" points="120,62.5 119.5,62.1 124.9,56.6 125.4,57.1 					"/>
				</g>
				<g>
					
						<rect x="69.5" y="59.3" transform="matrix(0.7071 -0.7072 0.7072 0.7071 -20.6771 69.2782)" class="st5" width="7.6" height="0.7"/>
				</g>
			</g>
		</g>
		<g>
			<g>
				
					<rect x="69.8" y="47.3" transform="matrix(0.9887 -0.1502 0.1502 0.9887 -6.4144 15.1575)" class="st64" width="54.6" height="5.5"/>
			</g>
			<g>
				<g>
					
						<rect x="74.4" y="52.6" transform="matrix(0.5929 -0.8053 0.8053 0.5929 -10.7819 84.5489)" class="st5" width="7.7" height="0.7"/>
				</g>
				<g>
					
						<rect x="79.8" y="51.8" transform="matrix(0.5933 -0.805 0.805 0.5933 -7.9556 88.4973)" class="st5" width="7.7" height="0.7"/>
				</g>
				<g>
					
						<rect x="85.2" y="51" transform="matrix(0.5925 -0.8056 0.8056 0.5925 -5.0294 92.645)" class="st5" width="7.7" height="0.7"/>
				</g>
				<g>
					
						<rect x="90.6" y="50.1" transform="matrix(0.5907 -0.8069 0.8069 0.5907 -2.0785 96.8555)" class="st5" width="7.7" height="0.7"/>
				</g>
				<g>
					
						<rect x="96" y="49.3" transform="matrix(0.5934 -0.8049 0.8049 0.5934 0.6338 100.5596)" class="st5" width="7.7" height="0.7"/>
				</g>
				<g>
					<polygon class="st5" points="103.2,52.1 102.7,51.7 107.2,45.5 107.8,46 					"/>
				</g>
				<g>
					
						<rect x="106.8" y="47.7" transform="matrix(0.5933 -0.805 0.805 0.5933 6.3514 108.5962)" class="st5" width="7.7" height="0.7"/>
				</g>
				<g>
					
						<rect x="112.2" y="46.9" transform="matrix(0.5928 -0.8054 0.8054 0.5928 9.2362 112.6577)" class="st5" width="7.7" height="0.7"/>
				</g>
				<g>
					
						<rect x="117.6" y="46" transform="matrix(0.5936 -0.8047 0.8047 0.5936 12.0303 116.5682)" class="st5" width="7.7" height="0.7"/>
				</g>
				<g>
					
						<rect x="69.1" y="53.4" transform="matrix(0.5904 -0.8071 0.8071 0.5904 -13.5568 80.8195)" class="st5" width="7.6" height="0.7"/>
				</g>
			</g>
		</g>
		<path class="st51" d="M70.3,57.2c-0.1,0-0.2,0-0.3-0.1c-0.1-0.1-0.2-0.2-0.2-0.4l-0.6-5.2c0-0.3,0.2-0.6,0.5-0.6l53.7-8.4
			c0.3,0,0.6,0.1,0.6,0.4l1.1,5.6c0,0.1,0,0.3-0.1,0.4c-0.1,0.1-0.2,0.2-0.4,0.2L70.3,57.2C70.4,57.2,70.4,57.2,70.3,57.2z
			 M70.3,51.9l0.5,4.1l53.1-7.8l-0.9-4.5L70.3,51.9z"/>
		<path class="st51" d="M125.1,63.1H70.6c-0.3,0-0.5-0.2-0.5-0.5l-0.2-5.9c0-0.1,0-0.3,0.2-0.4c0.1-0.1,0.2-0.2,0.4-0.2h0l54.8,0.2
			c0.3,0,0.5,0.2,0.5,0.5v5.7C125.7,62.8,125.4,63.1,125.1,63.1z M71.1,62h53.5v-4.6l-53.7-0.2L71.1,62z"/>
	</g>
</g>
</svg>
