<?xml version="1.0" encoding="utf-8"?>
<!-- Generator: Adobe Illustrator 20.0.0, SVG Export Plug-In . SVG Version: 6.00 Build 0)  -->
<svg version="1.1" id="Layer_1" xmlns="http://www.w3.org/2000/svg" xmlns:xlink="http://www.w3.org/1999/xlink" x="0px" y="0px"
	 viewBox="0 0 90 80" style="enable-background:new 0 0 90 80;" xml:space="preserve">
<style type="text/css">
	.st0{fill:none;}
	.st1{fill:#010101;}
	.st2{fill:#F15B4A;}
	.st3{clip-path:url(#SVGID_2_);}
	.st4{fill:#FCF7E9;}
	.st5{fill:#C7C4BC;}
	.st6{clip-path:url(#SVGID_4_);}
	.st7{fill:#FFFFFF;}
	.st8{fill:#EDC393;}
	.st9{fill:#B1B3B6;}
	.st10{fill:#333132;}
	.st11{fill:#4F341A;}
	.st12{fill:#2A160C;}
	.st13{fill:#452B13;}
	.st14{fill:#4D4E4A;}
	.st15{fill:#3E3B3A;}
	.st16{opacity:0.5;fill:#8F8C86;}
	.st17{opacity:0.5;clip-path:url(#SVGID_6_);fill:#8F8C86;}
	.st18{fill:#F37223;}
	.st19{fill:#BF5A28;}
	.st20{fill:#DAB17C;}
	.st21{fill:#F89420;}
	.st22{fill:url(#SVGID_7_);}
	.st23{fill:#FDBE14;}
	.st24{fill:#F2F2F2;}
	.st25{clip-path:url(#SVGID_9_);}
	.st26{fill:#06BDCD;}
	.st27{opacity:0.5;clip-path:url(#SVGID_9_);}
	.st28{fill:#8F8C86;}
	.st29{fill:#79BEC0;}
	.st30{opacity:0.5;fill:#FFFFFF;}
	.st31{clip-path:url(#SVGID_11_);}
	.st32{fill:#C5DA4E;}
	.st33{fill:#A3BD3D;}
	.st34{fill:#6AB352;}
	.st35{fill:#5A462C;}
	.st36{fill:#D4E172;}
	.st37{fill:#ECEC83;}
	.st38{fill:#C2E1F1;}
	.st39{fill:#8BA3B0;}
	.st40{fill:#8FC640;}
	.st41{fill:#72A441;}
	.st42{fill:#976339;}
	.st43{fill:#7A4F2A;}
	
		.st44{fill:none;stroke:#FFFFFF;stroke-width:0.771;stroke-linecap:round;stroke-linejoin:round;stroke-miterlimit:10;stroke-dasharray:4.6259;}
	
		.st45{fill:none;stroke:#FFFFFF;stroke-width:0.6936;stroke-linecap:round;stroke-linejoin:round;stroke-miterlimit:10;stroke-dasharray:4.1616;}
	.st46{fill:#D46528;}
	.st47{fill:#F3F1E6;}
	.st48{fill:#D4D2C3;}
	.st49{clip-path:url(#SVGID_25_);}
	.st50{fill:#EEE809;}
	.st51{fill:#94D9F8;}
	.st52{fill:#211E1F;}
	.st53{fill:#231F20;}
	.st54{fill:#F7941F;}
	.st55{fill:#47B77B;}
	.st56{fill:#221F1F;}
	.st57{fill:#F5EB0E;}
	.st58{fill:#EBE70E;}
	.st59{fill:url(#SVGID_44_);}
	.st60{fill:url(#SVGID_45_);}
	.st61{fill:none;stroke:url(#SVGID_46_);stroke-miterlimit:10;}
	.st62{fill:none;stroke:url(#SVGID_47_);stroke-miterlimit:10;}
	.st63{fill:none;stroke:url(#SVGID_48_);stroke-miterlimit:10;}
	.st64{fill:none;stroke:url(#SVGID_49_);stroke-miterlimit:10;}
	.st65{fill:none;stroke:url(#SVGID_50_);stroke-miterlimit:10;}
	.st66{fill:none;stroke:url(#SVGID_51_);stroke-miterlimit:10;}
	.st67{fill:none;stroke:url(#SVGID_52_);stroke-miterlimit:10;}
	.st68{fill:#F7941D;}
	.st69{fill:#45B97C;}
	.st70{fill:none;stroke:url(#SVGID_53_);stroke-miterlimit:10;}
	.st71{fill:none;stroke:url(#SVGID_54_);stroke-miterlimit:10;}
	.st72{fill:none;stroke:url(#SVGID_55_);stroke-miterlimit:10;}
	.st73{fill:none;stroke:url(#SVGID_56_);stroke-miterlimit:10;}
	.st74{fill:none;stroke:url(#SVGID_57_);stroke-miterlimit:10;}
	.st75{fill:none;stroke:url(#SVGID_58_);stroke-miterlimit:10;}
	.st76{fill:none;stroke:url(#SVGID_59_);stroke-miterlimit:10;}
	.st77{fill:none;stroke:url(#SVGID_60_);stroke-miterlimit:10;}
	.st78{fill:none;stroke:url(#SVGID_61_);stroke-miterlimit:10;}
	.st79{fill:none;stroke:url(#SVGID_62_);stroke-miterlimit:10;}
	.st80{fill:none;stroke:url(#SVGID_63_);stroke-miterlimit:10;}
	.st81{fill:url(#SVGID_64_);}
	.st82{fill:none;stroke:url(#SVGID_65_);stroke-miterlimit:10;}
	.st83{fill:none;stroke:url(#SVGID_66_);stroke-miterlimit:10;}
	.st84{fill:none;stroke:url(#SVGID_67_);stroke-miterlimit:10;}
	.st85{fill:none;stroke:url(#SVGID_68_);stroke-miterlimit:10;}
	.st86{fill:none;stroke:url(#SVGID_69_);stroke-miterlimit:10;}
	.st87{fill:none;stroke:url(#SVGID_70_);stroke-miterlimit:10;}
	.st88{fill:none;stroke:url(#SVGID_71_);stroke-miterlimit:10;}
	.st89{fill:none;stroke:url(#SVGID_72_);stroke-miterlimit:10;}
	.st90{fill:none;stroke:url(#SVGID_73_);stroke-miterlimit:10;}
	.st91{fill:none;stroke:url(#SVGID_74_);stroke-miterlimit:10;}
	.st92{fill:none;stroke:url(#SVGID_75_);stroke-miterlimit:10;}
	.st93{fill:none;stroke:url(#SVGID_76_);stroke-miterlimit:10;}
	.st94{fill:none;stroke:url(#SVGID_77_);stroke-miterlimit:10;}
	.st95{fill:none;stroke:url(#SVGID_78_);stroke-miterlimit:10;}
	.st96{fill:none;stroke:url(#SVGID_79_);stroke-miterlimit:10;}
	.st97{fill:none;stroke:url(#SVGID_80_);stroke-miterlimit:10;}
	.st98{fill:none;stroke:url(#SVGID_81_);stroke-miterlimit:10;}
	.st99{fill:none;stroke:url(#SVGID_82_);stroke-miterlimit:10;}
	.st100{fill:none;stroke:#010101;stroke-miterlimit:10;}
	.st101{fill:#4BC3C9;}
	.st102{fill:#DD1D4F;}
	.st103{fill:none;stroke:#231F20;stroke-width:0.9625;stroke-linecap:round;stroke-linejoin:round;stroke-miterlimit:10;}
	.st104{fill:none;stroke:url(#SVGID_83_);stroke-width:0.6902;stroke-miterlimit:10;}
	.st105{fill:none;stroke:url(#SVGID_84_);stroke-width:0.6902;stroke-miterlimit:10;}
	.st106{fill:none;stroke:url(#SVGID_85_);stroke-width:0.6902;stroke-miterlimit:10;}
	.st107{fill:none;stroke:url(#SVGID_86_);stroke-width:0.6902;stroke-miterlimit:10;}
	.st108{fill:none;stroke:url(#SVGID_87_);stroke-width:0.6902;stroke-miterlimit:10;}
	.st109{fill:none;stroke:url(#SVGID_88_);stroke-width:0.6902;stroke-miterlimit:10;}
	.st110{fill:none;stroke:url(#SVGID_89_);stroke-width:0.6902;stroke-miterlimit:10;}
	.st111{fill:none;stroke:url(#SVGID_90_);stroke-width:0.6902;stroke-miterlimit:10;}
	.st112{fill:#FBAA19;}
	.st113{fill:none;stroke:url(#SVGID_91_);stroke-width:0.6902;stroke-miterlimit:10;}
	.st114{fill:none;stroke:url(#SVGID_92_);stroke-width:0.6902;stroke-miterlimit:10;}
	.st115{fill:none;stroke:url(#SVGID_93_);stroke-width:0.6902;stroke-miterlimit:10;}
	.st116{fill:none;stroke:url(#SVGID_94_);stroke-width:0.6902;stroke-miterlimit:10;}
	.st117{fill:none;stroke:#221F1F;stroke-width:0.8692;stroke-miterlimit:10;}
	.st118{fill:none;stroke:#221F1F;stroke-width:0.8566;stroke-miterlimit:10;}
	.st119{fill:none;stroke:url(#SVGID_95_);stroke-width:0.7698;stroke-miterlimit:10;}
	.st120{fill:none;stroke:url(#SVGID_96_);stroke-width:0.7698;stroke-miterlimit:10;}
	.st121{fill:none;stroke:url(#SVGID_97_);stroke-width:0.7698;stroke-miterlimit:10;}
	.st122{fill:none;stroke:url(#SVGID_98_);stroke-width:0.7698;stroke-miterlimit:10;}
	.st123{fill:none;stroke:url(#SVGID_99_);stroke-width:0.7698;stroke-miterlimit:10;}
	.st124{fill:none;stroke:url(#SVGID_100_);stroke-width:0.7698;stroke-miterlimit:10;}
	.st125{fill:none;stroke:url(#SVGID_101_);stroke-width:0.7698;stroke-miterlimit:10;}
	.st126{fill:none;stroke:url(#SVGID_102_);stroke-width:0.7698;stroke-miterlimit:10;}
	.st127{fill:none;stroke:url(#SVGID_103_);stroke-width:0.7698;stroke-miterlimit:10;}
	.st128{fill:none;stroke:url(#SVGID_104_);stroke-width:0.7698;stroke-miterlimit:10;}
	.st129{fill:none;stroke:url(#SVGID_105_);stroke-width:0.7698;stroke-miterlimit:10;}
	.st130{fill:none;stroke:url(#SVGID_106_);stroke-width:0.7698;stroke-miterlimit:10;}
	.st131{fill:none;stroke:url(#SVGID_107_);stroke-width:0.7698;stroke-miterlimit:10;}
	.st132{fill:none;stroke:url(#SVGID_108_);stroke-width:0.7698;stroke-miterlimit:10;}
	.st133{fill:none;stroke:url(#SVGID_109_);stroke-width:0.7698;stroke-miterlimit:10;}
	.st134{fill:none;stroke:url(#SVGID_110_);stroke-width:0.7698;stroke-miterlimit:10;}
	.st135{fill:none;stroke:url(#SVGID_111_);stroke-width:0.7698;stroke-miterlimit:10;}
	.st136{fill:none;stroke:url(#SVGID_112_);stroke-width:0.7698;stroke-miterlimit:10;}
	.st137{fill:none;stroke:url(#SVGID_113_);stroke-width:0.7698;stroke-miterlimit:10;}
	.st138{fill:none;stroke:url(#SVGID_114_);stroke-width:0.7698;stroke-miterlimit:10;}
	.st139{fill:none;stroke:url(#SVGID_115_);stroke-width:0.7698;stroke-miterlimit:10;}
	.st140{fill:none;stroke:url(#SVGID_116_);stroke-width:0.7698;stroke-miterlimit:10;}
	.st141{fill:none;stroke:url(#SVGID_117_);stroke-width:0.7698;stroke-miterlimit:10;}
	.st142{fill:none;stroke:url(#SVGID_118_);stroke-width:0.7698;stroke-miterlimit:10;}
	.st143{fill:none;stroke:url(#SVGID_119_);stroke-width:0.7698;stroke-miterlimit:10;}
	.st144{fill:none;stroke:url(#SVGID_120_);stroke-width:0.7698;stroke-miterlimit:10;}
	.st145{fill:none;stroke:url(#SVGID_121_);stroke-width:0.7698;stroke-miterlimit:10;}
	.st146{fill:none;stroke:url(#SVGID_122_);stroke-width:0.7698;stroke-miterlimit:10;}
	.st147{fill:none;stroke:url(#SVGID_123_);stroke-width:0.7698;stroke-miterlimit:10;}
	.st148{fill:none;stroke:#221F1F;stroke-width:0.8028;stroke-miterlimit:10;}
	.st149{fill:none;stroke:url(#SVGID_124_);stroke-width:0.6902;stroke-miterlimit:10;}
	.st150{fill:none;stroke:url(#SVGID_125_);stroke-width:0.6902;stroke-miterlimit:10;}
	.st151{fill:none;stroke:url(#SVGID_126_);stroke-width:0.6902;stroke-miterlimit:10;}
	.st152{fill:none;stroke:url(#SVGID_127_);stroke-width:0.6902;stroke-miterlimit:10;}
	.st153{fill:#FFFFFF;stroke:url(#SVGID_128_);stroke-width:0.6902;stroke-miterlimit:10;}
	.st154{fill:#FFFFFF;stroke:url(#SVGID_129_);stroke-width:0.6902;stroke-miterlimit:10;}
	.st155{fill:#FFFFFF;stroke:url(#SVGID_130_);stroke-width:0.6902;stroke-miterlimit:10;}
	.st156{fill:#FFFFFF;stroke:url(#SVGID_131_);stroke-width:0.6902;stroke-miterlimit:10;}
	.st157{fill:none;stroke:url(#SVGID_132_);stroke-width:0.4601;stroke-miterlimit:10;}
	.st158{fill:none;stroke:url(#SVGID_133_);stroke-width:0.4601;stroke-miterlimit:10;}
	.st159{fill:none;stroke:url(#SVGID_134_);stroke-width:0.4601;stroke-miterlimit:10;}
	.st160{fill:none;stroke:url(#SVGID_135_);stroke-width:0.4601;stroke-miterlimit:10;}
	.st161{fill:none;stroke:url(#SVGID_136_);stroke-width:0.4601;stroke-miterlimit:10;}
	.st162{fill:none;stroke:url(#SVGID_137_);stroke-width:0.4601;stroke-miterlimit:10;}
	.st163{fill:none;stroke:url(#SVGID_138_);stroke-width:0.4601;stroke-miterlimit:10;}
	.st164{fill:none;stroke:url(#SVGID_139_);stroke-width:0.4601;stroke-miterlimit:10;}
	.st165{fill:none;stroke:url(#SVGID_140_);stroke-width:0.4601;stroke-miterlimit:10;}
	.st166{fill:none;stroke:url(#SVGID_141_);stroke-width:0.4601;stroke-miterlimit:10;}
	.st167{fill:none;stroke:url(#SVGID_142_);stroke-width:0.4601;stroke-miterlimit:10;}
	.st168{fill:none;stroke:url(#SVGID_143_);stroke-width:0.4601;stroke-miterlimit:10;}
	.st169{fill:none;stroke:url(#SVGID_144_);stroke-width:0.4601;stroke-miterlimit:10;}
	.st170{fill:none;stroke:url(#SVGID_145_);stroke-width:0.4601;stroke-miterlimit:10;}
	.st171{fill:none;stroke:url(#SVGID_146_);stroke-width:0.4601;stroke-miterlimit:10;}
	.st172{fill:none;stroke:url(#SVGID_147_);stroke-width:0.4601;stroke-miterlimit:10;}
	.st173{fill:none;stroke:url(#SVGID_148_);stroke-width:0.4601;stroke-miterlimit:10;}
	.st174{fill:none;stroke:url(#SVGID_149_);stroke-width:0.4601;stroke-miterlimit:10;}
	.st175{fill:none;stroke:url(#SVGID_150_);stroke-width:0.4601;stroke-miterlimit:10;}
	.st176{fill:none;stroke:url(#SVGID_151_);stroke-width:0.4601;stroke-miterlimit:10;}
	.st177{fill:none;stroke:url(#SVGID_152_);stroke-width:0.4601;stroke-miterlimit:10;}
	.st178{fill:none;stroke:url(#SVGID_153_);stroke-width:0.4601;stroke-miterlimit:10;}
	.st179{fill:none;stroke:url(#SVGID_154_);stroke-width:0.4601;stroke-miterlimit:10;}
	.st180{fill:none;stroke:url(#SVGID_155_);stroke-width:0.4601;stroke-miterlimit:10;}
	.st181{fill:none;stroke:url(#SVGID_156_);stroke-width:0.4601;stroke-miterlimit:10;}
	.st182{fill:none;stroke:url(#SVGID_157_);stroke-width:0.6902;stroke-miterlimit:10;}
	.st183{fill:none;stroke:url(#SVGID_158_);stroke-width:0.6902;stroke-miterlimit:10;}
	.st184{fill:none;stroke:url(#SVGID_159_);stroke-width:0.6902;stroke-miterlimit:10;}
	.st185{fill:none;stroke:url(#SVGID_160_);stroke-width:0.4601;stroke-miterlimit:10;}
	.st186{fill:none;stroke:url(#SVGID_161_);stroke-width:0.4601;stroke-miterlimit:10;}
	.st187{fill:none;stroke:url(#SVGID_162_);stroke-width:0.4601;stroke-miterlimit:10;}
	.st188{fill:none;stroke:url(#SVGID_163_);stroke-width:0.4601;stroke-miterlimit:10;}
	.st189{fill:none;stroke:url(#SVGID_164_);stroke-width:0.4601;stroke-miterlimit:10;}
	.st190{fill:none;stroke:url(#SVGID_165_);stroke-width:0.4601;stroke-miterlimit:10;}
	.st191{fill:none;stroke:url(#SVGID_166_);stroke-width:0.4601;stroke-miterlimit:10;}
	.st192{fill:url(#SVGID_167_);}
	.st193{fill:url(#SVGID_168_);}
	.st194{fill:url(#SVGID_169_);}
	.st195{fill:url(#SVGID_170_);}
	.st196{fill:url(#SVGID_171_);}
	.st197{fill:url(#SVGID_172_);}
	.st198{fill:url(#SVGID_173_);}
	.st199{fill:url(#SVGID_174_);}
	.st200{fill:none;stroke:url(#SVGID_175_);stroke-width:0.6902;stroke-miterlimit:10;}
	.st201{fill:none;stroke:url(#SVGID_176_);stroke-width:0.6902;stroke-miterlimit:10;}
	.st202{fill:none;stroke:url(#SVGID_177_);stroke-width:0.6902;stroke-miterlimit:10;}
	.st203{fill:none;stroke:url(#SVGID_178_);stroke-width:0.6902;stroke-miterlimit:10;}
	.st204{fill:none;stroke:url(#SVGID_179_);stroke-width:0.6902;stroke-miterlimit:10;}
	.st205{fill:none;stroke:url(#SVGID_180_);stroke-width:0.6902;stroke-miterlimit:10;}
	.st206{fill:none;stroke:url(#SVGID_181_);stroke-width:0.6902;stroke-miterlimit:10;}
	.st207{fill:none;stroke:url(#SVGID_182_);stroke-width:0.6902;stroke-miterlimit:10;}
	.st208{fill:none;stroke:url(#SVGID_183_);stroke-width:0.6902;stroke-miterlimit:10;}
	.st209{fill:none;stroke:url(#SVGID_184_);stroke-width:0.6902;stroke-miterlimit:10;}
	.st210{fill:none;stroke:url(#SVGID_185_);stroke-width:0.6902;stroke-miterlimit:10;}
	.st211{fill:none;stroke:url(#SVGID_186_);stroke-width:0.6902;stroke-miterlimit:10;}
	.st212{fill:none;stroke:url(#SVGID_187_);stroke-width:0.6902;stroke-miterlimit:10;}
	.st213{fill:none;stroke:url(#SVGID_188_);stroke-width:0.6902;stroke-miterlimit:10;}
	.st214{fill:none;stroke:url(#SVGID_189_);stroke-width:0.6902;stroke-miterlimit:10;}
	.st215{fill:none;stroke:url(#SVGID_190_);stroke-width:0.6902;stroke-miterlimit:10;}
	.st216{fill:none;stroke:url(#SVGID_191_);stroke-width:0.6902;stroke-miterlimit:10;}
	.st217{fill:none;stroke:url(#SVGID_192_);stroke-width:0.6902;stroke-miterlimit:10;}
	.st218{fill:none;stroke:url(#SVGID_193_);stroke-width:0.6902;stroke-miterlimit:10;}
	.st219{fill:none;stroke:url(#SVGID_194_);stroke-width:0.6902;stroke-miterlimit:10;}
	.st220{fill:none;stroke:url(#SVGID_195_);stroke-width:0.6902;stroke-miterlimit:10;}
	.st221{fill:none;stroke:url(#SVGID_196_);stroke-width:0.6902;stroke-miterlimit:10;}
	.st222{fill:none;stroke:url(#SVGID_197_);stroke-width:0.6902;stroke-miterlimit:10;}
	.st223{fill:none;stroke:#79BEC0;stroke-width:2.3005;stroke-miterlimit:10;}
	.st224{fill:#C9E9E6;}
	.st225{fill:#E5EFF5;}
	.st226{fill:#0A3655;}
	.st227{fill:none;stroke:#79BEC0;stroke-width:1.2825;stroke-miterlimit:10;}
	.st228{fill:none;stroke:#F15B4A;stroke-miterlimit:10;}
	.st229{fill:none;stroke:#F15B4A;stroke-width:2;stroke-linecap:round;stroke-linejoin:round;stroke-miterlimit:10;}
	.st230{fill:#FFFFFF;stroke:#F15B4A;stroke-miterlimit:10;}
</style>
<pattern  x="490.6" y="-533.1" width="61.4" height="61.4" patternUnits="userSpaceOnUse" id="New_Pattern_Swatch_2" viewBox="0 -61.4 61.4 61.4" style="overflow:visible;">
	<g>
		<rect y="-61.4" class="st0" width="61.4" height="61.4"/>
		<rect y="-61.4" class="st1" width="61.4" height="61.4"/>
	</g>
</pattern>
<g>
	<path class="st101" d="M72.3,56.5c-0.1-0.6-0.3-0.8-0.3-1.7c0-0.7,0.4-1.5,0-2.4c-0.1-0.3-0.3-0.5-0.5-0.5h-5.7c0,0-5.7-6.6-5-7.3
		c2.4-2.8,3.7-4.7,4.3-5.9c0.4-0.8-0.1-1.8-1-2l-8.4-1.2c-1.3-0.2-2.7,0.2-3.7,1.1c-7.3,7.2-14.5,4-17.7,1.7
		c-1.1-0.7-2.4-0.8-3.6-0.4c-6.7,2.2-9.1,7.8-9.1,7.8c-4.5,1-5-4.8-5-4.8s-4,8.4,2.5,9.8c-2,12,2.8,13.5,5.2,17.3
		c1.5,2.5,1.5,6.1,1.3,8.4c-0.1,1.2,0.9,2.3,2.1,2.3h3.1c1,0,1.8-0.7,2-1.6c0.4-1.8,1.1-4.4,2-4.1c6.9,2.9,14.9,0,14.9,0l0.6,4
		c0.1,1,1,1.7,1.9,1.7h4.8c1,0,1.9-0.8,2-1.8l0.5-6.8l10.2-7.6c0.7-0.6,1.2-0.8,1.7-2.1C71.8,58.8,72.6,57.9,72.3,56.5z M56.6,53.5
		c-1.5,0-2.8-1.2-2.8-2.8c0-1.5,1.2-2.8,2.8-2.8c1.5,0,2.8,1.2,2.8,2.8C59.4,52.3,58.1,53.5,56.6,53.5z"/>
	<pattern  id="SVGID_2_" xlink:href="#New_Pattern_Swatch_2" patternTransform="matrix(0.2574 0 0 0.2574 -6228.2749 -5280.8638)">
	</pattern>
	<path style="fill:none;stroke:url(#SVGID_2_);stroke-width:0.7698;stroke-miterlimit:10;" d="M36.6,38.4c3.3,2.2,10.4,5.5,17.7-1.7
		c1-1,2.4-1.3,3.7-1.1l8.4,1.2c0.9,0.1,1.5,1.1,1,2c-0.7,1.2-1.9,3.1-4.3,5.9c-0.6,0.7,5,7.3,5,7.3h5.7c0.3,0,0.4,0.2,0.5,0.5
		c0.3,0.9,0,1.7,0,2.4c0,0.9,0.2,1.1,0.3,1.7c0.3,1.4-0.5,2.3-1.1,4.1c-0.5,1.3-1,1.6-1.7,2.1l-10.2,7.6L61.2,77
		c-0.1,1-0.9,1.8-2,1.8h-4.8c-1,0-1.8-0.7-1.9-1.7l-0.6-4c0,0-8,2.9-14.9,0c-0.9-0.4-1.6,2.3-2,4.1c-0.2,0.9-1.1,1.6-2,1.6H30
		c-1.3,0-2.2-1.1-2.1-2.3c0.2-2.3,0.2-6-1.3-8.4c-2.4-3.9-7.2-5.4-5.2-17.3c-6.5-1.4-2.5-9.8-2.5-9.8s0.5,5.8,5,4.8
		c0,0,2.5-5.6,9.1-7.8C34.2,37.6,35.6,37.7,36.6,38.4z"/>
	<g>
		<path class="st102" d="M45.6,23.2c0.4,0,0.7,0.1,1.1,0.1c0.4,0,0.7-0.4,0.7-0.7c0-0.4-0.3-0.7-0.7-0.7c-0.4,0-0.8,0-1.1,0
			c-0.2,0-0.3,0-0.3-0.3c0-0.4,0-0.8,0-1.2c0-0.5-0.3-0.8-0.7-0.8c-0.5,0-0.7,0.3-0.7,0.8c0,0.4,0,0.8,0,1.2c0,0.2,0,0.3-0.2,0.3
			c-0.3,0.1-0.5,0.2-0.8,0.3c-0.5,0.2-1,0.6-1.3,1.1c0.2,0,0.3,0,0.5,0C43.2,23.4,44.4,23.2,45.6,23.2z"/>
		<path class="st102" d="M44.5,17.3C38.7,17.3,34,22,34,27.8c0,5.8,4.7,10.5,10.5,10.5S55,33.6,55,27.8C55,22,50.3,17.3,44.5,17.3z
			 M47.9,32.1c-0.4,0.9-1.2,1.4-2.2,1.7c-0.3,0.1-0.3,0.2-0.3,0.4c0,0.3,0,0.6,0,1c-0.1,0.6-0.5,1-1,1c-0.5,0-1-0.4-1-1
			c0-0.2,0-0.4,0-0.6c0.1-0.5-0.2-0.6-0.5-0.6c-0.3,0-0.5,0-0.8-0.1c-0.5-0.1-0.8-0.6-0.8-1.1c0-0.5,0.5-0.9,1-1c0.2,0,0.4,0,0.7,0
			c0.2,0,0.4,0,0.7,0c0.4,0,1,0.1,1.5-0.1c0.5-0.1,0.8-0.4,0.9-0.9c0.1-0.5,0.1-1-0.3-1.4c-0.4-0.4-1-0.6-1.6-0.8
			c-0.5-0.2-1-0.3-1.5-0.6c-1.4-0.7-2-1.8-2-3.4c0.1-1.3,0.9-2.5,2.3-2.9c0.5-0.1,0.6-0.4,0.5-0.8c0-0.3,0-0.5,0-0.8
			c0.1-0.6,0.5-1,1.1-0.9c0.5,0,0.9,0.5,0.9,1c0,0.3,0,0.6,0,1c0,0.2,0.1,0.3,0.3,0.3c0.2,0,0.5,0,0.7,0c0.4,0,0.8,0.2,1,0.5
			c0.2,0.4,0.1,0.8-0.1,1.1c-0.3,0.4-0.6,0.5-1.1,0.4c-0.8-0.1-1.6-0.2-2.4,0c-0.7,0.2-1.1,0.7-1.1,1.4c0,0.4,0.2,0.7,0.5,0.9
			c0.5,0.3,1,0.5,1.5,0.7c0.6,0.2,1.2,0.5,1.7,0.8C48.2,28.5,48.7,30.4,47.9,32.1z"/>
	</g>
	<g>
		<g>
			
				<pattern  id="SVGID_4_" xlink:href="#New_Pattern_Swatch_2" patternTransform="matrix(0.1727 0 0 0.1727 -6947.7822 -5921.1846)">
			</pattern>
			
				<line style="fill:none;stroke:url(#SVGID_4_);stroke-width:0.7698;stroke-miterlimit:10;" x1="38.3" y1="10.6" x2="37.6" y2="11.4"/>
			
				<pattern  id="SVGID_6_" xlink:href="#New_Pattern_Swatch_2" patternTransform="matrix(0.1727 0 0 0.1727 -6947.7822 -5921.1846)">
			</pattern>
			
				<line style="fill:none;stroke:url(#SVGID_6_);stroke-width:0.7698;stroke-miterlimit:10;" x1="37" y1="11.9" x2="36.3" y2="12.7"/>
		</g>
		<g>
			
				<pattern  id="SVGID_7_" xlink:href="#New_Pattern_Swatch_2" patternTransform="matrix(0.1727 0 0 0.1727 -6947.7822 -5921.1846)">
			</pattern>
			
				<line style="fill:none;stroke:url(#SVGID_7_);stroke-width:0.7698;stroke-miterlimit:10;" x1="36.3" y1="10.6" x2="37" y2="11.4"/>
			
				<pattern  id="SVGID_9_" xlink:href="#New_Pattern_Swatch_2" patternTransform="matrix(0.1727 0 0 0.1727 -6947.7822 -5921.1846)">
			</pattern>
			
				<line style="fill:none;stroke:url(#SVGID_9_);stroke-width:0.7698;stroke-miterlimit:10;" x1="37.6" y1="11.9" x2="38.3" y2="12.7"/>
		</g>
	</g>
	<g>
		
			<pattern  id="SVGID_11_" xlink:href="#New_Pattern_Swatch_2" patternTransform="matrix(0.1727 0 0 0.1727 -6950.2612 -5925.6758)">
		</pattern>
		
			<line style="fill:none;stroke:url(#SVGID_11_);stroke-width:0.7698;stroke-miterlimit:10;" x1="40.7" y1="11.8" x2="40.7" y2="7.1"/>
		
			<pattern  id="SVGID_13_" xlink:href="#New_Pattern_Swatch_2" patternTransform="matrix(0.1727 0 0 0.1727 -6950.2612 -5925.6758)">
		</pattern>
		
			<line style="fill:none;stroke:url(#SVGID_13_);stroke-width:0.7698;stroke-miterlimit:10;" x1="40.7" y1="6.5" x2="40.7" y2="2.9"/>
	</g>
	<pattern  id="SVGID_15_" xlink:href="#New_Pattern_Swatch_2" patternTransform="matrix(0.1727 0 0 0.1727 -6950.2612 -5925.6758)">
	</pattern>
	
		<line style="fill:none;stroke:url(#SVGID_15_);stroke-width:0.7698;stroke-miterlimit:10;" x1="44.5" y1="1.1" x2="44.5" y2="15.7"/>
	<g>
		
			<pattern  id="SVGID_17_" xlink:href="#New_Pattern_Swatch_2" patternTransform="matrix(0.1727 0 0 0.1727 -6950.2612 -5925.6758)">
		</pattern>
		
			<line style="fill:none;stroke:url(#SVGID_17_);stroke-width:0.7698;stroke-miterlimit:10;" x1="48.3" y1="2.9" x2="48.3" y2="5.1"/>
		
			<pattern  id="SVGID_19_" xlink:href="#New_Pattern_Swatch_2" patternTransform="matrix(0.1727 0 0 0.1727 -6950.2612 -5925.6758)">
		</pattern>
		
			<line style="fill:none;stroke:url(#SVGID_19_);stroke-width:0.7698;stroke-miterlimit:10;" x1="48.3" y1="5.9" x2="48.3" y2="11.8"/>
		
			<pattern  id="SVGID_21_" xlink:href="#New_Pattern_Swatch_2" patternTransform="matrix(0.1727 0 0 0.1727 -6950.2612 -5925.6758)">
		</pattern>
		
			<line style="fill:none;stroke:url(#SVGID_21_);stroke-width:0.7698;stroke-miterlimit:10;" x1="48.3" y1="12.5" x2="48.3" y2="14"/>
	</g>
	<g>
		
			<pattern  id="SVGID_23_" xlink:href="#New_Pattern_Swatch_2" patternTransform="matrix(-0.1727 0 0 -0.1727 -9867.5625 -8404.9453)">
		</pattern>
		
			<line style="fill:none;stroke:url(#SVGID_23_);stroke-width:0.7698;stroke-miterlimit:10;" x1="58.1" y1="25.1" x2="58.1" y2="14.2"/>
		
			<pattern  id="SVGID_25_" xlink:href="#New_Pattern_Swatch_2" patternTransform="matrix(-0.1727 0 0 -0.1727 -9867.5625 -8404.9453)">
		</pattern>
		
			<line style="fill:none;stroke:url(#SVGID_25_);stroke-width:0.7698;stroke-miterlimit:10;" x1="58.1" y1="13.6" x2="58.1" y2="13"/>
	</g>
	<g>
		
			<pattern  id="SVGID_27_" xlink:href="#New_Pattern_Swatch_2" patternTransform="matrix(-0.1727 0 0 -0.1727 -9866.499 -8402.9434)">
		</pattern>
		
			<line style="fill:none;stroke:url(#SVGID_27_);stroke-width:0.7698;stroke-miterlimit:10;" x1="57" y1="31.1" x2="58.8" y2="29.3"/>
		
			<pattern  id="SVGID_29_" xlink:href="#New_Pattern_Swatch_2" patternTransform="matrix(-0.1727 0 0 -0.1727 -9866.499 -8402.9434)">
		</pattern>
		
			<line style="fill:none;stroke:url(#SVGID_29_);stroke-width:0.7698;stroke-miterlimit:10;" x1="57" y1="29.3" x2="58.8" y2="31.1"/>
	</g>
	
		<pattern  id="SVGID_31_" xlink:href="#New_Pattern_Swatch_2" patternTransform="matrix(-0.1727 0 0 -0.1727 -9866.499 -8402.9434)">
	</pattern>
	<line style="fill:none;stroke:url(#SVGID_31_);stroke-width:0.7698;stroke-miterlimit:10;" x1="61" y1="30.4" x2="61" y2="24.2"/>
	
		<pattern  id="SVGID_33_" xlink:href="#New_Pattern_Swatch_2" patternTransform="matrix(-0.1727 0 0 -0.1727 -9872.3398 -8414.9521)">
	</pattern>
	
		<line style="fill:none;stroke:url(#SVGID_33_);stroke-width:0.7698;stroke-miterlimit:10;" x1="31.5" y1="28.9" x2="31.5" y2="18"/>
	
		<pattern  id="SVGID_35_" xlink:href="#New_Pattern_Swatch_2" patternTransform="matrix(-0.1727 0 0 -0.1727 -9866.7539 -8417.0723)">
	</pattern>
	<line style="fill:none;stroke:url(#SVGID_35_);stroke-width:0.7698;stroke-miterlimit:10;" x1="34" y1="18.5" x2="34" y2="7.5"/>
	
		<pattern  id="SVGID_37_" xlink:href="#New_Pattern_Swatch_2" patternTransform="matrix(-0.1727 0 0 -0.1727 -9872.3398 -8414.9521)">
	</pattern>
	
		<line style="fill:none;stroke:url(#SVGID_37_);stroke-width:0.7698;stroke-miterlimit:10;" x1="31.5" y1="16.8" x2="31.5" y2="16"/>
	
		<pattern  id="SVGID_39_" xlink:href="#New_Pattern_Swatch_2" patternTransform="matrix(-0.1727 0 0 -0.1727 -9872.5127 -8414.9521)">
	</pattern>
	
		<line style="fill:none;stroke:url(#SVGID_39_);stroke-width:0.7698;stroke-miterlimit:10;" x1="29.1" y1="32.6" x2="29.1" y2="27.8"/>
	<g>
		<g>
			
				<pattern  id="SVGID_41_" xlink:href="#New_Pattern_Swatch_2" patternTransform="matrix(-0.1727 0 0 -0.1727 -9869.7568 -8399.7324)">
			</pattern>
			
				<line style="fill:none;stroke:url(#SVGID_41_);stroke-width:0.7698;stroke-miterlimit:10;" x1="52.2" y1="16.2" x2="53" y2="15.4"/>
			
				<pattern  id="SVGID_43_" xlink:href="#New_Pattern_Swatch_2" patternTransform="matrix(-0.1727 0 0 -0.1727 -9869.7568 -8399.7324)">
			</pattern>
			
				<line style="fill:none;stroke:url(#SVGID_43_);stroke-width:0.7698;stroke-miterlimit:10;" x1="53.6" y1="14.8" x2="54.4" y2="14"/>
		</g>
		<g>
			
				<pattern  id="SVGID_44_" xlink:href="#New_Pattern_Swatch_2" patternTransform="matrix(-0.1727 0 0 -0.1727 -9869.7568 -8399.7324)">
			</pattern>
			
				<line style="fill:none;stroke:url(#SVGID_44_);stroke-width:0.7698;stroke-miterlimit:10;" x1="54.4" y1="16.2" x2="53.6" y2="15.4"/>
			
				<pattern  id="SVGID_45_" xlink:href="#New_Pattern_Swatch_2" patternTransform="matrix(-0.1727 0 0 -0.1727 -9869.7568 -8399.7324)">
			</pattern>
			
				<line style="fill:none;stroke:url(#SVGID_45_);stroke-width:0.7698;stroke-miterlimit:10;" x1="53" y1="14.8" x2="52.2" y2="14"/>
		</g>
	</g>
	<g>
		<g>
			
				<pattern  id="SVGID_46_" xlink:href="#New_Pattern_Swatch_2" patternTransform="matrix(-0.1727 0 0 -0.1727 -9870.4941 -8414.9521)">
			</pattern>
			
				<line style="fill:none;stroke:url(#SVGID_46_);stroke-width:0.7698;stroke-miterlimit:10;" x1="28.4" y1="24.7" x2="28.9" y2="24.2"/>
			
				<pattern  id="SVGID_47_" xlink:href="#New_Pattern_Swatch_2" patternTransform="matrix(-0.1727 0 0 -0.1727 -9870.4941 -8414.9521)">
			</pattern>
			
				<line style="fill:none;stroke:url(#SVGID_47_);stroke-width:0.7698;stroke-miterlimit:10;" x1="29.3" y1="23.8" x2="29.9" y2="23.2"/>
		</g>
		<g>
			
				<pattern  id="SVGID_48_" xlink:href="#New_Pattern_Swatch_2" patternTransform="matrix(-0.1727 0 0 -0.1727 -9870.4941 -8414.9521)">
			</pattern>
			
				<line style="fill:none;stroke:url(#SVGID_48_);stroke-width:0.7698;stroke-miterlimit:10;" x1="29.9" y1="24.7" x2="29.3" y2="24.2"/>
			
				<pattern  id="SVGID_49_" xlink:href="#New_Pattern_Swatch_2" patternTransform="matrix(-0.1727 0 0 -0.1727 -9870.4941 -8414.9521)">
			</pattern>
			
				<line style="fill:none;stroke:url(#SVGID_49_);stroke-width:0.7698;stroke-miterlimit:10;" x1="28.9" y1="23.8" x2="28.4" y2="23.2"/>
		</g>
	</g>
	
		<pattern  id="SVGID_50_" xlink:href="#New_Pattern_Swatch_2" patternTransform="matrix(-0.1727 0 0 -0.1727 -9866.499 -8402.9434)">
	</pattern>
	<line style="fill:none;stroke:url(#SVGID_50_);stroke-width:0.7698;stroke-miterlimit:10;" x1="61" y1="23.3" x2="61" y2="21.5"/>
</g>
</svg>
