<?xml version="1.0" encoding="utf-8"?>
<!-- Generator: Adobe Illustrator 20.0.0, SVG Export Plug-In . SVG Version: 6.00 Build 0)  -->
<svg version="1.1" id="Layer_1" xmlns="http://www.w3.org/2000/svg" xmlns:xlink="http://www.w3.org/1999/xlink" x="0px" y="0px"
	 viewBox="0 0 227.2 275.9" style="enable-background:new 0 0 227.2 275.9;" xml:space="preserve">
<style type="text/css">
	.st0{fill:none;stroke:#000000;stroke-width:1.0387;stroke-miterlimit:10;}
	.st1{fill:none;stroke:#000000;stroke-miterlimit:10;}
	.st2{fill:none;stroke:#000000;stroke-width:0.3639;stroke-miterlimit:10;}
	.st3{fill:#FFFFFF;}
	.st4{fill:#ECF8FE;}
	.st5{fill:#27BDBE;}
	.st6{fill:#FFE06A;}
	.st7{fill:#D9D9D9;}
	.st8{fill:#999999;}
	.st9{fill:#BFBFBF;}
	.st10{fill:#FFFFFF;stroke:#000000;stroke-width:1.5873;stroke-miterlimit:10;}
	.st11{fill:none;stroke:#000000;stroke-width:1.5873;stroke-linecap:round;stroke-linejoin:round;stroke-miterlimit:10;}
	.st12{fill:none;stroke:#000000;stroke-width:0.8323;stroke-linecap:round;stroke-linejoin:round;stroke-miterlimit:10;}
	.st13{fill:#CFCDCD;}
	.st14{fill:#C9E9E6;}
	.st15{fill:none;stroke:#000000;stroke-width:0.8889;stroke-miterlimit:10;}
	.st16{fill:none;stroke:#FFFFFF;stroke-miterlimit:10;}
</style>
<g>
	<g>
		<g>
			<path d="M48.6,220.6c-0.2-0.6-0.3-1.3-0.3-3.2c0-1.9,0.1-2.6,0.3-3.2c0.5-1.6,1.7-2.4,3.5-2.4c1.8,0,3,0.8,3.5,2.4
				c0.2,0.6,0.3,1.3,0.3,3.2c0,1.9-0.1,2.6-0.3,3.2c-0.5,1.6-1.7,2.4-3.5,2.4C50.3,223,49.1,222.2,48.6,220.6z M54.7,214.5
				c-0.4-1.2-1.3-1.8-2.6-1.8c-1.4,0-2.2,0.6-2.6,1.8c-0.1,0.4-0.3,1.1-0.3,2.9c0,1.8,0.1,2.5,0.3,2.9c0.4,1.2,1.3,1.8,2.6,1.8
				c1.3,0,2.2-0.6,2.6-1.8c0.1-0.4,0.3-1.1,0.3-2.9C55,215.7,54.9,214.9,54.7,214.5z"/>
			<path d="M59.8,212.1c0-0.1,0.1-0.2,0.2-0.2h0.6c0.1,0,0.2,0,0.3,0.2l5.4,8.9h0v-8.9c0-0.1,0.1-0.2,0.2-0.2H67
				c0.1,0,0.2,0.1,0.2,0.2v10.6c0,0.1-0.1,0.2-0.2,0.2h-0.6c-0.1,0-0.2,0-0.3-0.2l-5.4-9h-0.1v9c0,0.1-0.1,0.2-0.2,0.2h-0.6
				c-0.1,0-0.2-0.1-0.2-0.2V212.1z"/>
			<path d="M71.4,212.1c0-0.1,0.1-0.2,0.2-0.2h0.6c0.1,0,0.2,0.1,0.2,0.2v9.8c0,0.1,0,0.1,0.1,0.1h5.4c0.1,0,0.2,0.1,0.2,0.2v0.5
				c0,0.1-0.1,0.2-0.2,0.2h-6.2c-0.1,0-0.2-0.1-0.2-0.2V212.1z"/>
			<path d="M81.2,212.1c0-0.1,0.1-0.2,0.2-0.2H82c0.1,0,0.2,0.1,0.2,0.2v10.6c0,0.1-0.1,0.2-0.2,0.2h-0.6c-0.1,0-0.2-0.1-0.2-0.2
				V212.1z"/>
			<path d="M86.4,212.1c0-0.1,0.1-0.2,0.2-0.2h0.6c0.1,0,0.2,0,0.3,0.2l5.4,8.9h0v-8.9c0-0.1,0.1-0.2,0.2-0.2h0.6
				c0.1,0,0.2,0.1,0.2,0.2v10.6c0,0.1-0.1,0.2-0.2,0.2H93c-0.1,0-0.2,0-0.3-0.2l-5.4-9h-0.1v9c0,0.1-0.1,0.2-0.2,0.2h-0.6
				c-0.1,0-0.2-0.1-0.2-0.2V212.1z"/>
			<path d="M98.1,212.1c0-0.1,0.1-0.2,0.2-0.2h6.2c0.1,0,0.2,0.1,0.2,0.2v0.5c0,0.1-0.1,0.2-0.2,0.2h-5.4c-0.1,0-0.1,0-0.1,0.1v3.9
				c0,0.1,0,0.1,0.1,0.1h4.6c0.1,0,0.2,0.1,0.2,0.2v0.5c0,0.1-0.1,0.2-0.2,0.2h-4.6c-0.1,0-0.1,0-0.1,0.1v4c0,0.1,0,0.1,0.1,0.1h5.4
				c0.1,0,0.2,0.1,0.2,0.2v0.5c0,0.1-0.1,0.2-0.2,0.2h-6.2c-0.1,0-0.2-0.1-0.2-0.2V212.1z"/>
			<path d="M113.5,212.1c0-0.1,0.1-0.2,0.2-0.2h3.4c1.8,0,3,0.7,3.5,2.2c0.2,0.6,0.3,1.2,0.3,3.2c0,2-0.1,2.6-0.3,3.2
				c-0.5,1.5-1.7,2.2-3.5,2.2h-3.4c-0.1,0-0.2-0.1-0.2-0.2V212.1z M114.5,222h2.4c1.4,0,2.3-0.5,2.7-1.6c0.2-0.5,0.3-1.1,0.3-2.9
				c0-1.8-0.1-2.4-0.3-2.9c-0.4-1.2-1.3-1.6-2.7-1.6h-2.4c-0.1,0-0.1,0-0.1,0.1L114.5,222C114.4,222,114.4,222,114.5,222z"/>
			<path d="M124.7,212.1c0-0.1,0.1-0.2,0.2-0.2h0.6c0.1,0,0.2,0.1,0.2,0.2v10.6c0,0.1-0.1,0.2-0.2,0.2h-0.6c-0.1,0-0.2-0.1-0.2-0.2
				V212.1z"/>
			<path d="M129.4,217.4c0-1.9,0.1-2.6,0.3-3.2c0.5-1.6,1.8-2.4,3.6-2.4c1.8,0,2.9,0.9,3.4,2c0,0.1,0,0.2-0.1,0.2l-0.5,0.3
				c-0.1,0-0.2,0-0.2-0.1c-0.5-1-1.3-1.6-2.6-1.6c-1.3,0-2.3,0.6-2.7,1.8c-0.1,0.4-0.3,1.1-0.3,2.9s0.1,2.5,0.3,2.9
				c0.4,1.2,1.3,1.8,2.7,1.8c1.3,0,2.3-0.6,2.7-1.8c0.1-0.4,0.3-1,0.3-2.1c0-0.1,0-0.1-0.1-0.1h-2.5c-0.1,0-0.2-0.1-0.2-0.2v-0.5
				c0-0.1,0.1-0.2,0.2-0.2h3.3c0.1,0,0.2,0.1,0.2,0.2v0.7c0,1.1-0.1,1.9-0.3,2.4c-0.5,1.6-1.8,2.5-3.5,2.5c-1.8,0-3-0.8-3.6-2.4
				C129.6,220,129.4,219.3,129.4,217.4z"/>
			<path d="M140.9,212.1c0-0.1,0.1-0.2,0.2-0.2h0.6c0.1,0,0.2,0.1,0.2,0.2v10.6c0,0.1-0.1,0.2-0.2,0.2h-0.6c-0.1,0-0.2-0.1-0.2-0.2
				V212.1z"/>
			<path d="M148.5,222.9c-0.1,0-0.2-0.1-0.2-0.2v-9.8c0-0.1,0-0.1-0.1-0.1h-3.1c-0.1,0-0.2-0.1-0.2-0.2v-0.5c0-0.1,0.1-0.2,0.2-0.2
				h7.4c0.1,0,0.2,0.1,0.2,0.2v0.5c0,0.1-0.1,0.2-0.2,0.2h-3.1c-0.1,0-0.1,0-0.1,0.1v9.8c0,0.1-0.1,0.2-0.2,0.2H148.5z"/>
			<path d="M157.4,212.1c0-0.1,0.1-0.2,0.2-0.2h0.6c0.1,0,0.2,0.1,0.2,0.2l3.8,10.6c0,0.1,0,0.2-0.1,0.2h-0.6c-0.1,0-0.2,0-0.2-0.2
				l-1-2.7h-4.7l-1,2.7c0,0.1-0.1,0.2-0.2,0.2h-0.6c-0.1,0-0.1-0.1-0.1-0.2L157.4,212.1z M159.9,219.1l-2-5.7h0l-2,5.7H159.9z"/>
			<path d="M165.4,212.1c0-0.1,0.1-0.2,0.2-0.2h0.6c0.1,0,0.2,0.1,0.2,0.2v9.8c0,0.1,0,0.1,0.1,0.1h5.4c0.1,0,0.2,0.1,0.2,0.2v0.5
				c0,0.1-0.1,0.2-0.2,0.2h-6.2c-0.1,0-0.2-0.1-0.2-0.2V212.1z"/>
			<path d="M72.1,244.6c-0.1,0-0.2-0.1-0.2-0.2v-10.6c0-0.1,0.1-0.2,0.2-0.2h3.6c2.1,0,3.3,1.2,3.3,3.1c0,1.9-1.3,3.1-3.3,3.1h-2.8
				c-0.1,0-0.1,0-0.1,0.1v4.5c0,0.1-0.1,0.2-0.2,0.2H72.1z M78.1,236.8c0-1.4-0.9-2.2-2.5-2.2h-2.8c-0.1,0-0.1,0-0.1,0.1v4.2
				c0,0.1,0,0.1,0.1,0.1h2.8C77.3,239,78.1,238.2,78.1,236.8z"/>
			<path d="M82.6,233.9c0-0.1,0.1-0.2,0.2-0.2h0.6c0.1,0,0.2,0.1,0.2,0.2v9.8c0,0.1,0,0.1,0.1,0.1h5.4c0.1,0,0.2,0.1,0.2,0.2v0.5
				c0,0.1-0.1,0.2-0.2,0.2h-6.2c-0.1,0-0.2-0.1-0.2-0.2V233.9z"/>
			<path d="M95.1,233.9c0-0.1,0.1-0.2,0.2-0.2h0.6c0.1,0,0.2,0.1,0.2,0.2l3.8,10.6c0,0.1,0,0.2-0.1,0.2h-0.6c-0.1,0-0.2,0-0.2-0.2
				l-1-2.7h-4.7l-1,2.7c0,0.1-0.1,0.2-0.2,0.2h-0.6c-0.1,0-0.1-0.1-0.1-0.2L95.1,233.9z M97.6,240.9l-2-5.7h0l-2,5.7H97.6z"/>
			<path d="M104.3,244.6c-0.1,0-0.2-0.1-0.2-0.2v-9.8c0-0.1,0-0.1-0.1-0.1H101c-0.1,0-0.2-0.1-0.2-0.2v-0.5c0-0.1,0.1-0.2,0.2-0.2
				h7.4c0.1,0,0.2,0.1,0.2,0.2v0.5c0,0.1-0.1,0.2-0.2,0.2h-3.1c-0.1,0-0.1,0-0.1,0.1v9.8c0,0.1-0.1,0.2-0.2,0.2H104.3z"/>
			<path d="M111.6,233.9c0-0.1,0.1-0.2,0.2-0.2h6.2c0.1,0,0.2,0.1,0.2,0.2v0.5c0,0.1-0.1,0.2-0.2,0.2h-5.4c-0.1,0-0.1,0-0.1,0.1v4
				c0,0.1,0,0.1,0.1,0.1h4.6c0.1,0,0.2,0.1,0.2,0.2v0.5c0,0.1-0.1,0.2-0.2,0.2h-4.6c-0.1,0-0.1,0-0.1,0.1v4.7c0,0.1-0.1,0.2-0.2,0.2
				h-0.6c-0.1,0-0.2-0.1-0.2-0.2V233.9z"/>
			<path d="M121.6,242.3c-0.2-0.6-0.3-1.3-0.3-3.2c0-1.9,0.1-2.6,0.3-3.2c0.5-1.6,1.7-2.4,3.5-2.4c1.8,0,3,0.8,3.5,2.4
				c0.2,0.6,0.3,1.3,0.3,3.2c0,1.9-0.1,2.6-0.3,3.2c-0.5,1.6-1.7,2.4-3.5,2.4C123.3,244.8,122.1,243.9,121.6,242.3z M127.7,236.3
				c-0.4-1.2-1.3-1.8-2.6-1.8c-1.4,0-2.2,0.6-2.6,1.8c-0.1,0.4-0.3,1.1-0.3,2.9c0,1.8,0.1,2.5,0.3,2.9c0.4,1.2,1.3,1.8,2.6,1.8
				c1.3,0,2.2-0.6,2.6-1.8c0.1-0.4,0.3-1.1,0.3-2.9C128,237.4,127.9,236.7,127.7,236.3z"/>
			<path d="M139.2,244.6c-0.1,0-0.1,0-0.2-0.1l-2.3-4.7h-0.2h-2.8c-0.1,0-0.1,0-0.1,0.1v4.6c0,0.1-0.1,0.2-0.2,0.2h-0.6
				c-0.1,0-0.2-0.1-0.2-0.2v-10.6c0-0.1,0.1-0.2,0.2-0.2h3.6c2,0,3.3,1.2,3.3,3c0,1.5-0.8,2.5-2.2,2.9l2.4,4.8
				c0.1,0.1,0,0.2-0.1,0.2H139.2z M139,236.7c0-1.4-0.9-2.1-2.4-2.1h-2.8c-0.1,0-0.1,0-0.1,0.1v4.1c0,0.1,0,0.1,0.1,0.1h2.8
				C138.1,238.9,139,238.1,139,236.7z"/>
			<path d="M143.9,233.9c0-0.1,0.1-0.2,0.2-0.2h0.6c0.1,0,0.2,0,0.2,0.2l3.5,7.8h0.1l3.5-7.8c0-0.1,0.1-0.2,0.2-0.2h0.6
				c0.1,0,0.2,0.1,0.2,0.2v10.6c0,0.1-0.1,0.2-0.2,0.2h-0.6c-0.1,0-0.2-0.1-0.2-0.2v-8.5h0l-3.1,6.9c-0.1,0.1-0.1,0.2-0.3,0.2h-0.3
				c-0.1,0-0.2,0-0.3-0.2l-3.1-6.9h0v8.5c0,0.1-0.1,0.2-0.2,0.2H144c-0.1,0-0.2-0.1-0.2-0.2V233.9z"/>
		</g>
	</g>
	<g>
		<polygon class="st7" points="149,50.6 28.4,135.3 149,135.3 		"/>
		<rect x="32.3" y="35.3" class="st8" width="113" height="12.2"/>
		<rect x="17.6" y="134.2" width="142.5" height="2.1"/>
		<polygon points="150.1,135.3 148,135.3 148,33.2 29.4,33.2 29.4,135.3 27.3,135.3 27.3,31.1 150.1,31.1 		"/>
		<rect x="28.4" y="49.6" width="120.6" height="2"/>
		<rect x="63" y="32.2" width="2" height="18.5"/>
		<rect x="71.2" y="39.8" width="70.9" height="2.1"/>
		<rect x="39.7" y="93.5" width="67" height="2.1"/>
		<rect x="39.7" y="102.7" width="67" height="2.1"/>
		<rect x="39.7" y="111.7" width="67" height="2.1"/>
		<rect x="39.7" y="120.5" width="67" height="2.1"/>
		<rect x="71.2" y="60.9" class="st9" width="66.8" height="26.3"/>
		<rect x="41.7" y="63.6" class="st8" width="22.9" height="22.4"/>
		<rect x="111" y="92.4" class="st8" width="27" height="31.5"/>
		<rect x="34.8" y="39.8" width="4.9" height="2.1"/>
		<rect x="43.9" y="39.8" width="4.9" height="2.1"/>
		<rect x="52.5" y="39.8" width="4.9" height="2.1"/>
		<rect x="94.4" y="73.7" width="4.9" height="2.1"/>
		<rect x="103.5" y="73.7" width="4.9" height="2.1"/>
		<rect x="112.1" y="73.7" width="4.9" height="2.1"/>
		<g>
			<g>
				<g>
					<path class="st3" d="M205.7,153.6h-57.1c-1.6,0-2.8-1.3-2.8-2.8V66.9c0-1.6,1.3-2.8,2.8-2.8h57.1c1.6,0,2.8,1.3,2.8,2.8v83.9
						C208.5,152.4,207.3,153.6,205.7,153.6z"/>
					<path d="M205.7,154.7h-57.1c-2.1,0-3.9-1.7-3.9-3.9V66.9c0-2.1,1.7-3.9,3.9-3.9h57.1c2.1,0,3.9,1.7,3.9,3.9v83.9
						C209.6,152.9,207.8,154.7,205.7,154.7z M148.6,65.2c-1,0-1.8,0.8-1.8,1.8v83.9c0,1,0.8,1.8,1.8,1.8h57.1c1,0,1.8-0.8,1.8-1.8
						V66.9c0-1-0.8-1.8-1.8-1.8H148.6z"/>
				</g>
				<rect x="172.1" y="68.7" width="10.2" height="1.1"/>
				<path d="M177.1,151.3c-2.2,0-4-1.8-4-4c0-2.2,1.8-4,4-4c2.2,0,4,1.8,4,4C181.2,149.5,179.4,151.3,177.1,151.3z M177.1,144.2
					c-1.6,0-3,1.3-3,3c0,1.6,1.3,3,3,3c1.6,0,3-1.3,3-3C180.1,145.6,178.8,144.2,177.1,144.2z"/>
				<polyline class="st4" points="203.9,141.3 203.9,76 150.4,141.3 				"/>
				<path d="M204.4,141.9h-54.5V72.2h54.5V141.9z M150.9,140.8h52.4V73.2h-52.4V140.8z"/>
				<rect x="154.5" y="76" class="st8" width="45.3" height="62.1"/>
			</g>
			<rect id="XMLID_19_" x="163.6" y="92.4" class="st3" width="27.2" height="3.9"/>
			<rect id="XMLID_18_" x="169.7" y="110.8" class="st9" width="14.9" height="3.9"/>
			<rect x="166.4" y="99.7" width="21.6" height="2.1"/>
			<rect x="166.4" y="104.8" width="21.6" height="2.1"/>
		</g>
		<g>
			<g>
				<g>
					<path class="st3" d="M155,158.8h-27.6c-1.6,0-2.8-1.3-2.8-2.8v-54.1c0-1.6,1.3-2.8,2.8-2.8H155c1.6,0,2.8,1.3,2.8,2.8V156
						C157.8,157.5,156.5,158.8,155,158.8z"/>
					<path d="M155,159.8h-27.6c-2.1,0-3.9-1.7-3.9-3.9v-54.1c0-2.1,1.7-3.9,3.9-3.9H155c2.1,0,3.9,1.7,3.9,3.9V156
						C158.8,158.1,157.1,159.8,155,159.8z M127.3,100.1c-1,0-1.8,0.8-1.8,1.8V156c0,1,0.8,1.8,1.8,1.8H155c1,0,1.8-0.8,1.8-1.8
						v-54.1c0-1-0.8-1.8-1.8-1.8H127.3z"/>
				</g>
				<rect x="137.4" y="104" width="7.5" height="1.1"/>
				<rect x="139.3" y="102.1" width="3.7" height="1.1"/>
				<path d="M141.1,156.5c-1.5,0-2.7-1.2-2.7-2.7c0-1.5,1.2-2.7,2.7-2.7c1.5,0,2.7,1.2,2.7,2.7C143.9,155.3,142.6,156.5,141.1,156.5
					z M141.1,152.1c-0.9,0-1.7,0.8-1.7,1.7c0,0.9,0.8,1.7,1.7,1.7c0.9,0,1.7-0.8,1.7-1.7C142.8,152.9,142.1,152.1,141.1,152.1z"/>
				<polyline class="st4" points="155.3,150.6 155.3,107 127,150.6 				"/>
				<path d="M155.1,150h-27.9v-42.4h27.9V150z M128.2,148.9h25.8v-40.3h-25.8V148.9z"/>
				<rect x="130.2" y="110.8" class="st9" width="22" height="36"/>
			</g>
			<rect id="XMLID_17_" x="134.1" y="122" class="st3" width="14.7" height="2.1"/>
			<rect id="XMLID_15_" x="137.4" y="132" class="st8" width="8.1" height="2.1"/>
			<rect x="135.6" y="126" width="11.7" height="1.1"/>
			<rect x="135.6" y="128.8" width="11.7" height="1.1"/>
		</g>
	</g>
</g>
</svg>
