<?xml version="1.0" encoding="utf-8"?>
<!-- Generator: Adobe Illustrator 20.0.0, SVG Export Plug-In . SVG Version: 6.00 Build 0)  -->
<svg version="1.1" id="Layer_1" xmlns="http://www.w3.org/2000/svg" xmlns:xlink="http://www.w3.org/1999/xlink" x="0px" y="0px"
	 viewBox="0 0 228 180" style="enable-background:new 0 0 228 180;" xml:space="preserve">
<style type="text/css">
	.st0{fill:none;stroke:#000000;stroke-width:1.0387;stroke-miterlimit:10;}
	.st1{fill:none;stroke:#000000;stroke-miterlimit:10;}
	.st2{fill:#F58220;}
	.st3{fill:none;stroke:#F58220;stroke-miterlimit:10;}
	.st4{fill:none;stroke:#000000;stroke-width:0.3639;stroke-miterlimit:10;}
	.st5{fill:#FFFFFF;}
	.st6{fill:#ECF8FE;}
	.st7{fill:#27BDBE;}
	.st8{fill:#FFE06A;}
	.st9{fill:#D9D9D9;}
	.st10{fill:#999999;}
	.st11{fill:#BFBFBF;}
	.st12{fill:#FFFFFF;stroke:#000000;stroke-width:1.5873;stroke-miterlimit:10;}
	.st13{fill:none;stroke:#000000;stroke-width:1.5873;stroke-linecap:round;stroke-linejoin:round;stroke-miterlimit:10;}
	.st14{fill:none;stroke:#000000;stroke-width:0.8323;stroke-linecap:round;stroke-linejoin:round;stroke-miterlimit:10;}
	.st15{fill:#CFCDCD;}
	.st16{fill:#C9E9E6;}
	.st17{fill:none;stroke:#000000;stroke-width:0.8889;stroke-miterlimit:10;}
	.st18{fill:none;stroke:#FFFFFF;stroke-miterlimit:10;}
	.st19{fill:none;stroke:#000000;stroke-width:1.5873;stroke-miterlimit:10;}
	.st20{fill:none;stroke:#000000;stroke-width:1.9415;stroke-linecap:round;stroke-linejoin:round;stroke-miterlimit:10;}
	.st21{fill:#EEE809;}
	.st22{fill:#94D9F8;}
	.st23{fill:#211E1F;}
	.st24{fill:#231F20;}
	.st25{fill:#F7941F;}
	.st26{fill:#47B77B;}
	.st27{fill:#221F1F;}
	.st28{fill:#F5EB0E;}
	.st29{fill:#EBE70E;}
	.st30{fill:#4BC3C9;}
	.st31{fill:#DD1D4F;}
	.st32{fill:none;stroke:#231F20;stroke-width:0.9625;stroke-linecap:round;stroke-linejoin:round;stroke-miterlimit:10;}
	.st33{fill:none;stroke:#000000;stroke-width:2;stroke-miterlimit:10;}
	.st34{fill:#E5EFF5;}
</style>
<circle cx="47.2" cy="148" r="2.5"/>
<g>
	<circle cx="28.1" cy="157.6" r="9.6"/>
</g>
<g>
	<circle cx="40.7" cy="20.9" r="3.8"/>
</g>
<g>
	<path d="M211,25.4c0,4.8-3.9,8.7-8.7,8.7c-4.8,0-8.7-3.9-8.7-8.7c0-4.8,3.9-8.7,8.7-8.7C207.2,16.7,211,20.6,211,25.4z"/>
</g>
<path d="M114.4,122.1c-31,0-58-30.1-59.3-31.5c-0.4-0.4-0.4-1.1,0-1.5c0.3-0.4,31-37.9,65.6-30.6c34.8,7.3,48.4,29.8,49,30.7
	c0.2,0.4,0.2,0.9,0,1.2c-0.2,0.2-16.9,24.5-45.8,30.7C120.7,121.8,117.5,122.1,114.4,122.1z M57.6,89.7c4.9,5.2,35.1,35.6,65.9,29.1
	c25.4-5.4,41.1-25.3,43.9-29.1c-2.5-3.7-16.5-22.6-47.1-29C89.7,54.3,62.1,84.5,57.6,89.7z"/>
<path d="M112.3,68.4v2.3c10.5,0,19,8.5,19,19s-8.5,19-19,19s-19-8.5-19-19H91c0,11.8,9.6,21.4,21.4,21.4s21.4-9.6,21.4-21.4
	S124.1,68.4,112.3,68.4z"/>
<path d="M96.7,86.7h-4.3c0,0,1.7-14.1,16.8-16.9v4.3c0.4-0.1,0.8-0.1,1.2-0.2v-5.5l-1.4,0.3c-15.7,2.9-17.7,17.7-17.8,17.9l-0.2,1.3
	h5.5C96.6,87.5,96.6,87.1,96.7,86.7z"/>
<path d="M109.2,86.7H96.7c-0.1,0.4-0.1,0.8-0.2,1.2h13.8V74c-0.4,0-0.8,0.1-1.2,0.2V86.7z"/>
<path d="M93.8,85.5c0.8-3.3,3.9-11.7,14.2-14.2v3.2c0.4-0.1,0.8-0.2,1.2-0.3v-4.3c-15.1,2.8-16.8,16.9-16.8,16.9h4.3
	c0.1-0.4,0.2-0.8,0.3-1.2H93.8z"/>
<path d="M109.2,74.1c-0.4,0.1-0.8,0.2-1.2,0.3v11.1H97c-0.1,0.4-0.2,0.8-0.3,1.2h12.5V74.1z"/>
<g>
	<path d="M113.9,29.7c-0.6,0-1.2-0.5-1.2-1.2V9.4c0-0.6,0.5-1.2,1.2-1.2s1.2,0.5,1.2,1.2v19.2C115.1,29.2,114.6,29.7,113.9,29.7z"/>
	<path d="M144.8,39c-0.2,0-0.4-0.1-0.6-0.2c-0.6-0.3-0.7-1-0.4-1.6l9.7-16.5c0.3-0.6,1-0.7,1.6-0.4c0.6,0.3,0.7,1,0.4,1.6l-9.7,16.5
		C145.6,38.8,145.2,39,144.8,39z"/>
	<path d="M166.7,62.7c-0.4,0-0.8-0.2-1-0.6c-0.3-0.6-0.1-1.3,0.5-1.6l16.8-9.3c0.6-0.3,1.3-0.1,1.6,0.5c0.3,0.6,0.1,1.3-0.5,1.6
		l-16.8,9.3C167.1,62.7,166.9,62.7,166.7,62.7z"/>
	<path d="M185.5,130.3c-0.2,0-0.3,0-0.5-0.1l-17.3-8.3c-0.6-0.3-0.8-1-0.5-1.6c0.3-0.6,1-0.8,1.6-0.5l17.3,8.3
		c0.6,0.3,0.8,1,0.5,1.6C186.4,130.1,186,130.3,185.5,130.3z"/>
	<path d="M157.2,161.8c-0.4,0-0.7-0.2-1-0.5l-10.7-15.9c-0.4-0.5-0.2-1.3,0.3-1.6c0.5-0.4,1.3-0.2,1.6,0.3l10.7,15.9
		c0.4,0.5,0.2,1.3-0.3,1.6C157.7,161.7,157.4,161.8,157.2,161.8z"/>
	<path d="M58.2,63.6c-0.2,0-0.4,0-0.5-0.1l-17-8.9c-0.6-0.3-0.8-1-0.5-1.6c0.3-0.6,1-0.8,1.6-0.5l17,8.9c0.6,0.3,0.8,1,0.5,1.6
		C59,63.4,58.6,63.6,58.2,63.6z"/>
	<path d="M80.7,40.6c-0.4,0-0.8-0.2-1-0.6L69.6,23.8c-0.3-0.5-0.2-1.3,0.4-1.6c0.5-0.3,1.3-0.2,1.6,0.4l10.1,16.3
		c0.3,0.5,0.2,1.3-0.4,1.6C81.1,40.6,80.9,40.6,80.7,40.6z"/>
	<path d="M73.7,159.4c-0.2,0-0.4-0.1-0.6-0.2c-0.6-0.3-0.7-1-0.4-1.6l9.7-16.5c0.3-0.6,1-0.7,1.6-0.4c0.6,0.3,0.7,1,0.4,1.6
		l-9.7,16.5C74.5,159.2,74.1,159.4,73.7,159.4z"/>
	<path d="M44.8,128.5c-0.4,0-0.8-0.2-1-0.6c-0.3-0.6-0.1-1.3,0.5-1.6L61,117c0.6-0.3,1.3-0.1,1.6,0.5c0.3,0.6,0.1,1.3-0.5,1.6
		l-16.8,9.3C45.2,128.5,45,128.5,44.8,128.5z"/>
	<path d="M113.9,171.8c-0.6,0-1.2-0.5-1.2-1.2v-19.2c0-0.6,0.5-1.2,1.2-1.2s1.2,0.5,1.2,1.2v19.2
		C115.1,171.3,114.6,171.8,113.9,171.8z"/>
	<path d="M202.4,91h-19.2c-0.6,0-1.2-0.5-1.2-1.2c0-0.6,0.5-1.2,1.2-1.2h19.2c0.6,0,1.2,0.5,1.2,1.2C203.5,90.4,203,91,202.4,91z"/>
	<path d="M40.7,91H21.5c-0.6,0-1.2-0.5-1.2-1.2c0-0.6,0.5-1.2,1.2-1.2h19.2c0.6,0,1.2,0.5,1.2,1.2C41.8,90.4,41.3,91,40.7,91z"/>
</g>
<path d="M112.3,122.1c-17.8,0-32.3-14.5-32.3-32.3s14.5-32.3,32.3-32.3s32.3,14.5,32.3,32.3S130.1,122.1,112.3,122.1z M112.3,59.9
	c-16.5,0-29.9,13.4-29.9,29.9c0,16.5,13.4,29.9,29.9,29.9c16.5,0,29.9-13.4,29.9-29.9C142.3,73.3,128.8,59.9,112.3,59.9z"/>
</svg>
