<?xml version="1.0" encoding="utf-8"?>
<!-- Generator: Adobe Illustrator 20.0.0, SVG Export Plug-In . SVG Version: 6.00 Build 0)  -->
<svg version="1.1" id="Layer_1" xmlns="http://www.w3.org/2000/svg" xmlns:xlink="http://www.w3.org/1999/xlink" x="0px" y="0px"
	 viewBox="0 0 228 180" style="enable-background:new 0 0 228 180;" xml:space="preserve">
<style type="text/css">
	.st0{fill:none;stroke:#000000;stroke-width:1.0387;stroke-miterlimit:10;}
	.st1{fill:none;stroke:#000000;stroke-miterlimit:10;}
	.st2{fill:#F58220;}
	.st3{fill:none;stroke:#F58220;stroke-miterlimit:10;}
	.st4{fill:none;stroke:#000000;stroke-width:0.3639;stroke-miterlimit:10;}
	.st5{fill:#FFFFFF;}
	.st6{fill:#ECF8FE;}
	.st7{fill:#27BDBE;}
	.st8{fill:#FFE06A;}
	.st9{fill:#D9D9D9;}
	.st10{fill:#999999;}
	.st11{fill:#BFBFBF;}
	.st12{fill:#FFFFFF;stroke:#000000;stroke-width:1.5873;stroke-miterlimit:10;}
	.st13{fill:none;stroke:#000000;stroke-width:1.5873;stroke-linecap:round;stroke-linejoin:round;stroke-miterlimit:10;}
	.st14{fill:none;stroke:#000000;stroke-width:0.8323;stroke-linecap:round;stroke-linejoin:round;stroke-miterlimit:10;}
	.st15{fill:#CFCDCD;}
	.st16{fill:#C9E9E6;}
	.st17{fill:none;stroke:#000000;stroke-width:0.8889;stroke-miterlimit:10;}
	.st18{fill:none;stroke:#FFFFFF;stroke-miterlimit:10;}
	.st19{fill:none;stroke:#000000;stroke-width:1.5873;stroke-miterlimit:10;}
	.st20{fill:none;stroke:#000000;stroke-width:1.9415;stroke-linecap:round;stroke-linejoin:round;stroke-miterlimit:10;}
	.st21{fill:#EEE809;}
	.st22{fill:#94D9F8;}
	.st23{fill:#211E1F;}
	.st24{fill:#231F20;}
	.st25{fill:#F7941F;}
	.st26{fill:#47B77B;}
	.st27{fill:#221F1F;}
	.st28{fill:#F5EB0E;}
	.st29{fill:#EBE70E;}
	.st30{fill:#4BC3C9;}
	.st31{fill:#DD1D4F;}
	.st32{fill:none;stroke:#231F20;stroke-width:0.9625;stroke-linecap:round;stroke-linejoin:round;stroke-miterlimit:10;}
	.st33{fill:none;stroke:#000000;stroke-width:2;stroke-miterlimit:10;}
	.st34{fill:#E5EFF5;}
</style>
<g>
	<rect x="131" y="35.2" width="4.7" height="69"/>
	<rect x="41.7" y="106.6" width="7.8" height="31.2"/>
	<path d="M50.9,138v-31.5h6.7c0.1-3.6,1.8-9.1,7.6-10.3l1.4-0.3v6.5l23,0c0.7-0.1,6.6-0.4,7.6,4c0,0,0.5,2.1-0.7,3.9
		c-0.2,0.3-0.4,0.5-0.6,0.7c1.7,0.5,3.2,1.6,3.4,3.6c0.2,1.7-0.2,3.1-1.2,4.2c-0.4,0.4-0.8,0.7-1.3,1c1.1,0.7,1.9,1.7,2,3.2
		c0.1,1.4-0.4,2.6-1.3,3.5c-0.5,0.5-1.1,0.9-1.7,1.1c1.2,0.9,2.1,2.3,2.1,4.2c0,1.5-0.6,2.8-1.6,3.7c-1.9,1.8-5.6,2.5-11.2,2.1
		L50.9,138z M53.3,108.9v26.8l31.8-0.2c6.1,0.4,8.6-0.6,9.6-1.5c0.6-0.5,0.8-1.2,0.9-2.1c0.1-2.8-3.8-3.4-4-3.4l0.2-2.3
		c1.1,0.1,3.1-0.2,4.1-1.2c0.5-0.5,0.7-1,0.6-1.7c-0.1-2.1-4.4-2.2-5-2.2c0,0-0.1,0-0.1,0l0-2.3c0.1,0,0.2,0,0.4,0
		c2.3-0.1,3.9-0.5,4.7-1.4c0.5-0.6,0.7-1.3,0.6-2.4c-0.2-1.9-4.5-2.1-5.7-2l-0.2-2.3c1.7-0.2,2.8-0.7,3.4-1.5c0.6-0.9,0.4-2,0.4-2
		c-0.6-2.7-5.1-2.2-5.1-2.2l-0.1,0l-25.4,0V99c-4.6,2-4.3,8.4-4.3,8.7l0.1,1.2L53.3,108.9z"/>
	<path d="M56.4,86.8h-19V55h19V86.8z M39.7,84.5H54V57.4H39.7V84.5z"/>
	<path d="M39.7,82.5H29.4V59.3h10.3V82.5z M31.7,80.2h5.6V61.7h-5.6V80.2z"/>
	<path d="M143.3,108.9L88.4,86.7V53.9L143.3,29V108.9z M90.8,85.1l50.2,20.4V32.6L90.8,55.4V85.1z"/>
	<path d="M160.1,41.8c-0.4,0-0.8-0.2-1-0.6c-0.3-0.6-0.2-1.3,0.4-1.6l31.3-18.9c0.6-0.3,1.3-0.2,1.6,0.4c0.3,0.6,0.2,1.3-0.4,1.6
		l-31.3,18.9C160.5,41.8,160.3,41.8,160.1,41.8z"/>
	<path d="M197.7,66.9C197.7,66.9,197.7,66.9,197.7,66.9l-36.6-0.2c-0.6,0-1.2-0.5-1.2-1.2c0-0.6,0.5-1.2,1.2-1.2c0,0,0,0,0,0
		l36.5,0.2c0.6,0,1.2,0.5,1.2,1.2C198.9,66.4,198.4,66.9,197.7,66.9z"/>
	<path d="M194.3,110.7c-0.2,0-0.4-0.1-0.6-0.2l-31.3-18.9c-0.6-0.3-0.7-1.1-0.4-1.6c0.3-0.6,1.1-0.7,1.6-0.4l31.3,18.9
		c0.6,0.3,0.7,1.1,0.4,1.6C195.1,110.5,194.7,110.7,194.3,110.7z"/>
	<g>
		<path d="M33.4,66.8v-1.2c0-0.2,0.2-0.4,0.4-0.4H35c0.2,0,0.4,0.2,0.4,0.4v1.2c0,0.2-0.2,0.4-0.4,0.4h-1.2
			C33.6,67.2,33.4,67,33.4,66.8z"/>
		<path d="M33.4,71.8v-1.2c0-0.2,0.2-0.4,0.4-0.4H35c0.2,0,0.4,0.2,0.4,0.4v1.2c0,0.2-0.2,0.4-0.4,0.4h-1.2
			C33.6,72.2,33.4,72,33.4,71.8z"/>
		<path d="M33.4,76.8v-1.2c0-0.2,0.2-0.4,0.4-0.4H35c0.2,0,0.4,0.2,0.4,0.4v1.2c0,0.2-0.2,0.4-0.4,0.4h-1.2
			C33.6,77.2,33.4,77,33.4,76.8z"/>
	</g>
	<path d="M90.8,89.8H54V52.1h36.7V89.8z M56.4,87.4h32v-33h-32V87.4z"/>
	<g>
		<rect x="104.7" y="136.6" width="2.3" height="6.4"/>
		<rect x="111.2" y="134.2" width="2.3" height="8.8"/>
		<rect x="117.7" y="131.7" width="2.3" height="11.2"/>
		<rect x="124.2" y="128.9" width="2.3" height="14.1"/>
		<rect x="130.7" y="131.7" width="2.3" height="11.2"/>
		<rect x="137.2" y="134.8" width="2.3" height="8.2"/>
		<rect x="143.7" y="128.1" width="2.3" height="14.8"/>
		<rect x="150.2" y="122.8" width="2.3" height="20.1"/>
		<rect x="156.6" y="117.4" width="2.3" height="25.6"/>
		<rect x="163.1" y="111" width="2.3" height="31.9"/>
		<rect x="169.6" y="117.4" width="2.3" height="25.6"/>
		<rect x="176.1" y="124.5" width="2.3" height="18.5"/>
	</g>
	<path d="M65.2,96.2l1.4-0.3v6.5l0.8,0V89.8H79v12.7l2.3,0v-15H65v8.9C65.1,96.3,65.1,96.2,65.2,96.2z"/>
	<polygon points="79,137.8 79,141.6 67.4,141.6 67.4,137.9 65,137.9 65,143.9 81.4,143.9 81.4,137.8 	"/>
</g>
</svg>
