<?xml version="1.0" encoding="utf-8"?>
<!-- Generator: Adobe Illustrator 19.2.1, SVG Export Plug-In . SVG Version: 6.00 Build 0)  -->
<svg version="1.1" id="Layer_1" xmlns="http://www.w3.org/2000/svg" xmlns:xlink="http://www.w3.org/1999/xlink" x="0px" y="0px"
	 viewBox="0 0 79.4 79.4" style="enable-background:new 0 0 79.4 79.4;" xml:space="preserve">
<style type="text/css">
	.st0{fill:none;}
	.st1{fill:#010101;}
	.st2{fill:none;stroke:#231F20;stroke-width:0.4601;stroke-miterlimit:10;}
	.st3{fill:#FBAA19;}
	.st4{fill:none;stroke:#231F20;stroke-width:0.6902;stroke-miterlimit:10;}
	.st5{fill:none;stroke:url(#SVGID_1_);stroke-width:0.6902;stroke-miterlimit:10;}
	.st6{fill:#79BEC0;}
</style>
<pattern  y="79.4" width="61.4" height="61.4" patternUnits="userSpaceOnUse" id="SVGID_48_" viewBox="0 -61.4 61.4 61.4" style="overflow:visible;">
	<g>
		<rect y="-61.4" class="st0" width="61.4" height="61.4"/>
		<g>
			<rect y="-61.4" class="st0" width="61.4" height="61.4"/>
			<rect y="-61.4" class="st1" width="61.4" height="61.4"/>
		</g>
	</g>
</pattern>
<g>
	<g>
		<line class="st2" x1="23.1" y1="40" x2="23.1" y2="54.6"/>
		<line class="st2" x1="23.1" y1="55.4" x2="23.1" y2="56.1"/>
	</g>
	<g>
		<line class="st2" x1="26" y1="34.6" x2="23.6" y2="37"/>
		<line class="st2" x1="26" y1="37" x2="23.6" y2="34.6"/>
	</g>
	<line class="st2" x1="20.6" y1="35.6" x2="20.6" y2="43.8"/>
	<line class="st2" x1="52.1" y1="21.6" x2="52.1" y2="36.2"/>
	<line class="st2" x1="56.3" y1="32.7" x2="56.3" y2="47.2"/>
	<line class="st2" x1="52.1" y1="37.7" x2="52.1" y2="38.7"/>
	<line class="st2" x1="56.3" y1="48.2" x2="56.3" y2="51.2"/>
	<line class="st2" x1="55.1" y1="16.7" x2="55.1" y2="23"/>
	<g>
		<g>
			<line class="st2" x1="26.9" y1="71.4" x2="25.9" y2="72.3"/>
			<line class="st2" x1="25.2" y1="73.1" x2="24.2" y2="74.1"/>
		</g>
		<g>
			<line class="st2" x1="24.2" y1="71.4" x2="25.2" y2="72.3"/>
			<line class="st2" x1="25.9" y1="73.1" x2="26.9" y2="74.1"/>
		</g>
	</g>
	<g>
		<g>
			<line class="st2" x1="56.3" y1="58.8" x2="55.2" y2="59.8"/>
			<line class="st2" x1="54.4" y1="60.6" x2="53.4" y2="61.7"/>
		</g>
		<g>
			<line class="st2" x1="53.4" y1="58.8" x2="54.4" y2="59.8"/>
			<line class="st2" x1="55.2" y1="60.6" x2="56.3" y2="61.7"/>
		</g>
	</g>
	<line class="st2" x1="50.6" y1="73.1" x2="48.4" y2="75.4"/>
	<line class="st2" x1="50.6" y1="75.4" x2="48.4" y2="73.1"/>
	<g>
		<g>
			<line class="st2" x1="58.7" y1="27.2" x2="58" y2="27.9"/>
			<line class="st2" x1="57.5" y1="28.5" x2="56.8" y2="29.2"/>
		</g>
		<g>
			<line class="st2" x1="56.8" y1="27.2" x2="57.5" y2="27.9"/>
			<line class="st2" x1="58" y1="28.5" x2="58.7" y2="29.2"/>
		</g>
	</g>
	<line class="st2" x1="20.6" y1="45" x2="20.6" y2="47.4"/>
	<g>
		<polygon class="st3" points="37.4,35.8 25.9,44.4 25.9,67.5 37.4,58.9 		"/>
		<polygon class="st3" points="37.4,35.8 49,44.4 49,67.5 37.4,58.9 		"/>
	</g>
	<polygon class="st4" points="38.6,36.6 27.1,45.3 27.1,68.4 38.6,59.7 50.2,68.4 50.2,45.3 	"/>
	<pattern  id="SVGID_1_" xlink:href="#SVGID_48_" patternTransform="matrix(0.2301 0 0 -0.2301 -12355.2295 -3206.7117)">
	</pattern>
	<line class="st5" x1="38.4" y1="57.4" x2="38.4" y2="52.5"/>
	<path class="st6" d="M40.4,1.5c-1-1.1-2.8-1.1-3.8,0c-17.9,20.3-5.5,42.4-0.2,50c1,1.5,3.2,1.5,4.2,0C45.9,43.9,58.3,21.8,40.4,1.5
		z M38.4,27.8c-2.3,0-4.2-1.9-4.2-4.2s1.9-4.2,4.2-4.2s4.2,1.9,4.2,4.2S40.8,27.8,38.4,27.8z"/>
	<circle class="st4" cx="38.4" cy="23.4" r="4.2"/>
	<path class="st3" d="M46.9,11.5c-2.3,1.2-5,1.9-7.9,1.9c-3.2,0-6.2-0.8-8.7-2.3c1.5-3.2,3.5-6.4,6.3-9.6c1-1.1,2.8-1.1,3.8,0
		C43.3,4.8,45.4,8.2,46.9,11.5z"/>
	<line class="st2" x1="55.1" y1="16" x2="55.1" y2="15.3"/>
	<g>
		<line class="st2" x1="33.4" y1="73.7" x2="33.4" y2="72.5"/>
		<line class="st2" x1="33.4" y1="71.7" x2="33.4" y2="66.9"/>
	</g>
	<line class="st2" x1="38.4" y1="64.6" x2="38.4" y2="78.9"/>
	<g>
		<line class="st2" x1="43.5" y1="66.9" x2="43.5" y2="69.8"/>
		<line class="st2" x1="43.5" y1="70.9" x2="43.5" y2="73.7"/>
		<line class="st2" x1="43.5" y1="74.7" x2="43.5" y2="76.6"/>
	</g>
</g>
</svg>
