<?xml version="1.0" encoding="utf-8"?>
<!-- Generator: Adobe Illustrator 20.0.0, SVG Export Plug-In . SVG Version: 6.00 Build 0)  -->
<svg version="1.1" id="Layer_1" xmlns="http://www.w3.org/2000/svg" xmlns:xlink="http://www.w3.org/1999/xlink" x="0px" y="0px"
	 viewBox="0 0 30 62.1" style="enable-background:new 0 0 30 62.1;" xml:space="preserve">
<style type="text/css">
	.st0{fill:none;stroke:#000000;stroke-width:1.0387;stroke-miterlimit:10;}
	.st1{fill:none;stroke:#000000;stroke-miterlimit:10;}
	.st2{fill:#F58220;}
	.st3{fill:none;stroke:#F58220;stroke-miterlimit:10;}
	.st4{fill:none;stroke:#000000;stroke-width:0.3639;stroke-miterlimit:10;}
	.st5{fill:#FFFFFF;}
	.st6{fill:#ECF8FE;}
	.st7{fill:#27BDBE;}
	.st8{fill:#FFE06A;}
	.st9{fill:#D9D9D9;}
	.st10{fill:#999999;}
	.st11{fill:#BFBFBF;}
	.st12{fill:#FFFFFF;stroke:#000000;stroke-width:1.5873;stroke-miterlimit:10;}
	.st13{fill:none;stroke:#000000;stroke-width:1.5873;stroke-linecap:round;stroke-linejoin:round;stroke-miterlimit:10;}
	.st14{fill:none;stroke:#000000;stroke-width:0.8323;stroke-linecap:round;stroke-linejoin:round;stroke-miterlimit:10;}
	.st15{fill:#CFCDCD;}
	.st16{fill:#C9E9E6;}
	.st17{fill:none;stroke:#000000;stroke-width:0.8889;stroke-miterlimit:10;}
	.st18{fill:none;stroke:#FFFFFF;stroke-miterlimit:10;}
	.st19{fill:none;stroke:#000000;stroke-width:1.5873;stroke-miterlimit:10;}
	.st20{fill:none;stroke:#000000;stroke-width:1.9415;stroke-linecap:round;stroke-linejoin:round;stroke-miterlimit:10;}
	.st21{fill:#EEE809;}
	.st22{fill:#94D9F8;}
	.st23{fill:#211E1F;}
	.st24{fill:#231F20;}
	.st25{fill:#F7941F;}
	.st26{fill:#47B77B;}
	.st27{fill:#221F1F;}
	.st28{fill:#F5EB0E;}
	.st29{fill:#EBE70E;}
	.st30{fill:#4BC3C9;}
	.st31{fill:#DD1D4F;}
	.st32{fill:none;stroke:#231F20;stroke-width:0.9625;stroke-linecap:round;stroke-linejoin:round;stroke-miterlimit:10;}
	.st33{fill:none;stroke:#000000;stroke-width:2;stroke-miterlimit:10;}
	.st34{fill:#E5EFF5;}
</style>
<g>
	<g>
		<g>
			<g>
				<path class="st2" d="M14.6,39.2c0.2,0.1,0.3,0.2,0.5,0.4s0.4,0.4,0.5,0.7c0.2,0.3,0.3,0.6,0.5,0.9c0.1,0.4,0.2,0.8,0.2,1.3
					c0,0.9-0.2,1.6-0.6,2.1c-0.2,0.3-0.4,0.5-0.6,0.7c-0.2,0.2-0.5,0.4-0.7,0.7c-0.1,0.2-0.3,0.3-0.4,0.5c-0.1,0.2-0.2,0.4-0.2,0.7
					s0.1,0.5,0.2,0.6c0.1,0.2,0.3,0.3,0.4,0.4l0.8,0.7c0.5,0.4,1,0.9,1.4,1.4s0.6,1.2,0.6,2c0,1.2-0.5,2.3-1.6,3.2
					c-1.1,1-2.7,1.4-4.7,1.5c-1.7,0-3-0.4-3.9-1.1c-0.9-0.7-1.3-1.5-1.3-2.4c0-0.5,0.1-1,0.4-1.5c0.3-0.6,0.8-1.1,1.5-1.5
					c0.8-0.5,1.6-0.8,2.5-0.9c0.9-0.1,1.6-0.2,2.2-0.2c-0.2-0.2-0.3-0.5-0.5-0.7c-0.2-0.3-0.2-0.6-0.2-0.9c0-0.2,0-0.4,0.1-0.5
					c0.1-0.2,0.1-0.3,0.2-0.4c-0.3,0-0.5,0-0.8,0c-1.3,0-2.3-0.4-3-1.2S7,44.1,7,43.1c0-1.2,0.5-2.3,1.5-3.3c0.7-0.6,1.4-1,2.2-1.1
					c0.7-0.2,1.4-0.2,2.1-0.2h4.9l-1.5,0.9h-1.6C14.6,39.4,14.6,39.2,14.6,39.2z M15.6,53.4c0-0.6-0.2-1.2-0.6-1.6
					c-0.4-0.4-1.1-1-2-1.6c-0.2,0-0.3,0-0.6,0c-0.1,0-0.4,0-1,0c-0.5,0.1-1,0.2-1.6,0.3c-0.1,0-0.3,0.1-0.5,0.2
					c-0.2,0.1-0.5,0.3-0.7,0.4c-0.2,0.2-0.4,0.4-0.6,0.7c-0.2,0.3-0.3,0.7-0.3,1.1c0,0.9,0.4,1.6,1.2,2.1c0.8,0.7,1.8,1,3.1,1
					c1.2,0,2-0.3,2.7-0.8C15.3,54.8,15.6,54.1,15.6,53.4z M12.1,46.1c0.6,0,1.2-0.3,1.6-0.7c0.2-0.3,0.3-0.6,0.4-1
					c0-0.3,0.1-0.6,0.1-0.8c0-1-0.2-2-0.7-2.9c-0.2-0.5-0.5-0.9-0.9-1.2s-0.8-0.4-1.3-0.4c-0.7,0-1.2,0.3-1.7,0.8
					C9.2,40.5,9,41.1,9,41.7c0,0.9,0.3,1.8,0.8,2.8c0.3,0.4,0.6,0.8,1,1.1C11.2,46,11.6,46.1,12.1,46.1z"/>
			</g>
		</g>
		<g>
			<polygon class="st2" points="24.3,41 21.7,41 21.7,38.4 20.5,38.4 20.5,41 17.9,41 17.9,42.2 20.5,42.2 20.5,44.8 21.7,44.8 
				21.7,42.2 24.3,42.2 			"/>
		</g>
	</g>
</g>
<g>
	<g>
		<g>
			<g>
				<path class="st5" d="M14.6,8c0.2,0.1,0.3,0.2,0.5,0.4s0.4,0.4,0.5,0.7c0.2,0.3,0.3,0.6,0.5,0.9c0.1,0.4,0.2,0.8,0.2,1.3
					c0,0.9-0.2,1.6-0.6,2.1c-0.2,0.3-0.4,0.5-0.6,0.7c-0.2,0.2-0.5,0.4-0.7,0.7c-0.1,0.2-0.3,0.3-0.4,0.5c-0.1,0.2-0.2,0.4-0.2,0.7
					c0,0.3,0.1,0.5,0.2,0.6c0.1,0.2,0.3,0.3,0.4,0.4l0.8,0.7c0.5,0.4,1,0.9,1.4,1.4s0.6,1.2,0.6,2c0,1.2-0.5,2.3-1.6,3.2
					c-1.1,1-2.7,1.4-4.7,1.5c-1.7,0-3-0.4-3.9-1.1s-1.3-1.5-1.3-2.4c0-0.5,0.1-1,0.4-1.5c0.3-0.6,0.8-1.1,1.5-1.5
					c0.8-0.5,1.6-0.8,2.5-0.9s1.6-0.2,2.2-0.2c-0.2-0.2-0.3-0.5-0.5-0.7c-0.2-0.3-0.2-0.6-0.2-0.9c0-0.2,0-0.4,0.1-0.5
					c0.1-0.2,0.1-0.3,0.2-0.4c-0.3,0-0.5,0-0.8,0c-1.3,0-2.3-0.4-3-1.2S7,12.9,7,11.9c0-1.2,0.5-2.3,1.5-3.3c0.7-0.6,1.4-1,2.2-1.1
					c0.7-0.2,1.4-0.2,2.1-0.2h4.9L16.1,8H14.6z M15.6,22.2c0-0.6-0.2-1.2-0.6-1.6c-0.4-0.4-1.1-1-2-1.6c-0.2,0-0.3,0-0.6,0
					c-0.1,0-0.4,0-1,0c-0.5,0.1-1,0.2-1.6,0.3c-0.1,0-0.3,0.1-0.5,0.2s-0.5,0.3-0.7,0.4c-0.2,0.2-0.4,0.4-0.6,0.7
					c-0.2,0.3-0.3,0.7-0.3,1.1c0,0.9,0.4,1.6,1.2,2.1c0.7,0.6,1.8,0.8,3.1,0.9c1.2,0,2-0.3,2.7-0.8C15.3,23.6,15.6,22.9,15.6,22.2z
					 M12.1,14.9c0.6,0,1.2-0.3,1.6-0.7c0.2-0.3,0.3-0.6,0.4-1c0-0.3,0.1-0.6,0.1-0.8c0-1-0.2-2-0.7-2.9C13.3,9,13,8.6,12.6,8.3
					c-0.4-0.3-0.8-0.4-1.3-0.4c-0.7,0-1.2,0.3-1.7,0.8C9.2,9.3,9,9.9,9,10.5c0,0.9,0.3,1.8,0.8,2.8c0.3,0.4,0.6,0.8,1,1.1
					C11.2,14.8,11.6,14.9,12.1,14.9z"/>
			</g>
		</g>
		<g>
			<polygon class="st5" points="24.3,9.8 21.7,9.8 21.7,7.2 20.5,7.2 20.5,9.8 17.9,9.8 17.9,11 20.5,11 20.5,13.6 21.7,13.6 
				21.7,11 24.3,11 			"/>
		</g>
	</g>
</g>
</svg>
