<?xml version="1.0" encoding="utf-8"?>
<!-- Generator: Adobe Illustrator 20.0.0, SVG Export Plug-In . SVG Version: 6.00 Build 0)  -->
<svg version="1.1" id="Layer_1" xmlns="http://www.w3.org/2000/svg" xmlns:xlink="http://www.w3.org/1999/xlink" x="0px" y="0px"
	 viewBox="0 0 142 100" style="enable-background:new 0 0 142 100;" xml:space="preserve">
<style type="text/css">
	.st0{fill:#F15B4A;}
	.st1{clip-path:url(#SVGID_2_);}
	.st2{fill:#FCF7E9;}
	.st3{fill:#C7C4BC;}
	.st4{clip-path:url(#SVGID_4_);}
	.st5{fill:#FFFFFF;}
	.st6{fill:#EDC393;}
	.st7{fill:#B1B3B6;}
	.st8{fill:#333132;}
	.st9{fill:#4F341A;}
	.st10{fill:#2A160C;}
	.st11{fill:#452B13;}
	.st12{fill:#4D4E4A;}
	.st13{fill:#3E3B3A;}
	.st14{opacity:0.5;fill:#8F8C86;}
	.st15{opacity:0.5;clip-path:url(#SVGID_6_);fill:#8F8C86;}
	.st16{fill:#F37223;}
	.st17{fill:#BF5A28;}
	.st18{fill:#DAB17C;}
	.st19{fill:#F89420;}
	.st20{fill:url(#SVGID_7_);}
	.st21{fill:#FDBE14;}
	.st22{fill:#F2F2F2;}
	.st23{clip-path:url(#SVGID_9_);}
	.st24{fill:#06BDCD;}
	.st25{opacity:0.5;clip-path:url(#SVGID_9_);}
	.st26{fill:#8F8C86;}
	.st27{fill:#79BEC0;}
	.st28{opacity:0.5;fill:#FFFFFF;}
	.st29{clip-path:url(#SVGID_11_);}
	.st30{fill:#C5DA4E;}
	.st31{fill:#A3BD3D;}
	.st32{fill:#6AB352;}
	.st33{fill:#5A462C;}
	.st34{fill:#D4E172;}
	.st35{fill:#ECEC83;}
	.st36{fill:#C2E1F1;}
	.st37{fill:#8BA3B0;}
	.st38{fill:#8FC640;}
	.st39{fill:#72A441;}
	.st40{fill:#976339;}
	.st41{fill:#7A4F2A;}
	
		.st42{fill:none;stroke:#FFFFFF;stroke-width:0.771;stroke-linecap:round;stroke-linejoin:round;stroke-miterlimit:10;stroke-dasharray:4.6259;}
	
		.st43{fill:none;stroke:#FFFFFF;stroke-width:0.6936;stroke-linecap:round;stroke-linejoin:round;stroke-miterlimit:10;stroke-dasharray:4.1616;}
	.st44{fill:#D46528;}
	.st45{fill:#F3F1E6;}
	.st46{fill:#D4D2C3;}
	.st47{fill:none;stroke:#79BEC0;stroke-width:1.2825;stroke-miterlimit:10;}
	.st48{fill:none;stroke:#F15B4A;stroke-miterlimit:10;}
	.st49{fill:none;stroke:#F15B4A;stroke-width:2;stroke-linecap:round;stroke-linejoin:round;stroke-miterlimit:10;}
	.st50{fill:#FFFFFF;stroke:#F15B4A;stroke-miterlimit:10;}
	.st51{fill:#F15B4A;stroke:#F15B4A;stroke-miterlimit:10;}
	.st52{fill:#FBAA19;}
	.st53{fill:none;stroke:url(#);stroke-width:0.6902;stroke-miterlimit:10;}
	.st54{fill:#FFFFFF;stroke:url(#);stroke-width:0.6902;stroke-miterlimit:10;}
	.st55{fill:url(#);}
	.st56{fill:#FFFFFF;stroke:#FFFFFF;stroke-width:0.6902;stroke-miterlimit:10;}
	.st57{fill:none;stroke:#79BEC0;stroke-width:2.3005;stroke-miterlimit:10;}
	.st58{fill:none;stroke:url(#);stroke-width:0.4601;stroke-miterlimit:10;}
	.st59{fill:#E5EFF5;}
	.st60{fill:#221F1F;}
	.st61{fill:#0A3655;}
	.st62{clip-path:url(#SVGID_25_);}
	.st63{fill:#4BC3C9;}
	.st64{fill:#231F20;}
	.st65{fill:#EBE70E;}
	.st66{fill:#DD1D4F;}
	.st67{fill:none;stroke:#231F20;stroke-width:0.9625;stroke-linecap:round;stroke-linejoin:round;stroke-miterlimit:10;}
	.st68{fill:none;stroke:#221F1F;stroke-width:0.8028;stroke-miterlimit:10;}
	.st69{fill:#F6E830;}
	.st70{fill:none;stroke:#221F1F;stroke-width:0.8692;stroke-miterlimit:10;}
	.st71{fill:#FFFFFF;stroke:#221F1F;stroke-width:0.8566;stroke-miterlimit:10;}
	.st72{fill:none;stroke:#221F1F;stroke-width:0.8566;stroke-miterlimit:10;}
	.st73{fill:none;stroke:url(#);stroke-width:0.7698;stroke-miterlimit:10;}
	.st74{fill:#EEE809;}
	.st75{fill:#94D9F8;}
	.st76{fill:#211E1F;}
	.st77{fill:#F7941F;}
	.st78{fill:#47B77B;}
	.st79{fill:#F5EB0E;}
	.st80{fill:none;stroke:url(#);stroke-miterlimit:10;}
	.st81{fill:#F7941D;}
	.st82{fill:#45B97C;}
	.st83{fill:none;stroke:#010101;stroke-miterlimit:10;}
	.st84{fill:#010101;}
</style>
<g>
	<rect x="11.8" y="30.2" class="st74" width="9.9" height="22.4"/>
	<rect x="5.6" y="33" class="st75" width="6.2" height="16.3"/>
	<g>
		<path class="st5" d="M50.9,53.5l42.9,17.4V8.3L50.9,27.9V53.5z M52.7,29L92,11.2v57L52.7,52.2V29z"/>
	</g>
	<rect x="84.2" y="13.2" class="st74" width="3.7" height="54"/>
	<rect x="14.3" y="69.1" class="st75" width="6.1" height="24.4"/>
	<rect x="24.9" y="27.3" class="st75" width="26.9" height="27.7"/>
	<g>
		<path class="st76" d="M45.3,98.3H32.5V54.1h12.8V98.3z M34.4,96.5h9.1V55.9h-9.1V96.5z"/>
	</g>
	<g>
		<path class="st76" d="M33.9,93.6l-11.8,0.1V69h5.2c0.1-2.8,1.4-7.2,5.9-8.1l1.1-0.2v5.1v1.8h-1.7v-4.5c-3.7,1.6-3.4,6.7-3.4,6.8
			l0.1,1h-5.3v21h10L33.9,93.6z M44,91.7l4.7,0c4.8,0.3,6.7-0.5,7.5-1.2c0.4-0.4,0.7-0.9,0.7-1.6c0-2.2-2.9-2.7-3-2.7v-1.8
			c0.8,0.1,2.4-0.2,3.2-1c0.4-0.4,0.5-0.8,0.5-1.3c-0.1-1.6-3.5-1.7-3.9-1.7c0,0,0,0-0.1,0l0-1.8c0.1,0,0.2,0,0.3,0
			c1.8,0,3-0.4,3.6-1.1c0.4-0.4,0.5-1.1,0.5-1.9c-0.1-1.3-3.2-1.6-4.6-1.6v-1.8c1.3-0.1,2.2-0.5,2.7-1.2c0.5-0.7,0.3-1.6,0.3-1.6
			c-0.4-1.9-4-1.8-4-1.8l-0.1,0l-7.9,0l0.1-1.8l7.7,0c0.6-0.1,5.2-0.3,5.9,3.1c0,0,0.4,1.6-0.6,3.1c-0.1,0.2-0.3,0.4-0.5,0.6
			c1.3,0.4,2.5,1.2,2.7,2.8c0.1,1.3-0.2,2.5-0.9,3.3c-0.3,0.3-0.6,0.6-1,0.8c0.9,0.5,1.5,1.3,1.6,2.5c0.1,1.1-0.3,2-1,2.7
			c-0.4,0.4-0.9,0.7-1.3,0.9c0.9,0.7,1.7,1.8,1.6,3.3c0,1.2-0.4,2.2-1.3,2.9c-1.5,1.4-4.4,1.9-8.8,1.7l-4.7,0L44,91.7z"/>
	</g>
	<path class="st76" d="M25.8,53.6H10.9V28.7h14.9V53.6z M12.7,51.8h11.2V30.5H12.7V51.8z"/>
	<path class="st76" d="M12.7,50.2H4.6V32.1h8.1V50.2z M6.5,48.4h4.4V33.9H6.5V48.4z"/>
	<path class="st76" d="M93.8,70.9L50.9,53.5V27.9L93.8,8.3V70.9z M52.7,52.2L92,68.2v-57L52.7,29V52.2z"/>
	<path class="st76" d="M107,18.4c-0.3,0-0.6-0.2-0.8-0.4c-0.3-0.4-0.1-1,0.3-1.3L131,1.8c0.4-0.3,1-0.1,1.3,0.3
		c0.3,0.4,0.1,1-0.3,1.3l-24.5,14.8C107.3,18.3,107.2,18.4,107,18.4z"/>
	<path class="st76" d="M136.4,38L136.4,38l-28.6-0.1c-0.5,0-0.9-0.4-0.9-0.9c0-0.5,0.4-0.9,0.9-0.9h0l28.6,0.1
		c0.5,0,0.9,0.4,0.9,0.9C137.4,37.6,136.9,38,136.4,38z"/>
	<path class="st76" d="M133.7,72.3c-0.2,0-0.3,0-0.5-0.1l-24.5-14.8c-0.4-0.3-0.6-0.8-0.3-1.3c0.3-0.4,0.8-0.6,1.3-0.3l24.5,14.8
		c0.4,0.3,0.6,0.8,0.3,1.3C134.4,72.2,134.1,72.3,133.7,72.3z"/>
	<g>
		<path class="st64" d="M7.8,37.4L7.8,37.4c0-0.4,0.4-0.8,0.8-0.8l0,0c0.4,0,0.8,0.4,0.8,0.8l0,0c0,0.4-0.4,0.8-0.8,0.8l0,0
			C8.2,38.2,7.8,37.9,7.8,37.4z"/>
		<path class="st64" d="M7.8,41.4L7.8,41.4c0-0.4,0.4-0.8,0.8-0.8l0,0c0.4,0,0.8,0.4,0.8,0.8v0c0,0.4-0.4,0.8-0.8,0.8l0,0
			C8.2,42.2,7.8,41.8,7.8,41.4z"/>
		<path class="st64" d="M7.8,45.3L7.8,45.3c0-0.4,0.4-0.8,0.8-0.8l0,0c0.4,0,0.8,0.4,0.8,0.8l0,0c0,0.4-0.4,0.8-0.8,0.8l0,0
			C8.2,46.1,7.8,45.7,7.8,45.3z"/>
	</g>
	<path class="st76" d="M52.7,55.9H23.9V26.4h28.7V55.9z M25.8,54.1h25.1V28.2H25.8V54.1z"/>
	<g>
		<rect x="63.6" y="92.6" class="st76" width="1.8" height="5"/>
		<rect x="68.7" y="90.7" class="st76" width="1.8" height="6.9"/>
		<rect x="73.8" y="88.8" class="st76" width="1.8" height="8.8"/>
		<rect x="78.9" y="86.5" class="st76" width="1.8" height="11"/>
		<rect x="84" y="88.8" class="st76" width="1.8" height="8.8"/>
		<rect x="89" y="91.1" class="st76" width="1.8" height="6.4"/>
		<rect x="94.1" y="85.9" class="st76" width="1.8" height="11.6"/>
		<rect x="99.2" y="81.8" class="st76" width="1.8" height="15.8"/>
		<rect x="104.3" y="77.5" class="st76" width="1.8" height="20"/>
		<rect x="109.4" y="72.5" class="st76" width="1.8" height="25"/>
		<rect x="114.4" y="77.5" class="st76" width="1.8" height="20"/>
		<rect x="119.5" y="83.1" class="st76" width="1.8" height="14.5"/>
	</g>
</g>
</svg>
