<?xml version="1.0" encoding="utf-8"?>
<!-- Generator: Adobe Illustrator 19.2.1, SVG Export Plug-In . SVG Version: 6.00 Build 0)  -->
<svg version="1.1" id="Layer_1" xmlns="http://www.w3.org/2000/svg" xmlns:xlink="http://www.w3.org/1999/xlink" x="0px" y="0px"
	 viewBox="0 0 251 124.4" style="enable-background:new 0 0 251 124.4;" xml:space="preserve">
<style type="text/css">
	.st0{fill:none;stroke:#000000;stroke-width:1.0387;stroke-miterlimit:10;}
	.st1{fill:none;stroke:#000000;stroke-miterlimit:10;}
	.st2{fill:#F58220;}
	.st3{fill:none;stroke:#F58220;stroke-miterlimit:10;}
</style>
<g>
	<g>
		<g>
			<path d="M16.7,23c0-1.4,0.1-2,0.2-2.4c0.4-1.2,1.3-1.8,2.6-1.8c1.1,0,2,0.5,2.5,1.5c0,0.1,0,0.1,0,0.2l-0.4,0.2
				c-0.1,0-0.1,0-0.2,0c-0.4-0.7-0.9-1.2-1.9-1.2s-1.6,0.5-1.9,1.4c-0.1,0.3-0.2,0.8-0.2,2.2c0,1.4,0.1,1.9,0.2,2.2
				c0.3,0.9,0.9,1.4,1.9,1.4c0.9,0,1.5-0.5,1.9-1.2c0-0.1,0.1-0.1,0.2,0l0.4,0.2c0.1,0,0.1,0.1,0,0.2c-0.5,1-1.3,1.5-2.5,1.5
				c-1.3,0-2.2-0.6-2.6-1.8C16.8,24.9,16.7,24.4,16.7,23z"/>
			<path d="M23.7,19c0-0.1,0-0.1,0.1-0.1h0.4c0.1,0,0.1,0,0.1,0.1v7.3c0,0,0,0.1,0.1,0.1h4c0.1,0,0.1,0,0.1,0.1v0.4
				c0,0.1,0,0.1-0.1,0.1h-4.7c-0.1,0-0.1,0-0.1-0.1V19H23.7z"/>
			<path d="M30.1,19c0-0.1,0-0.1,0.1-0.1h0.4c0.1,0,0.1,0,0.1,0.1v7.9c0,0.1,0,0.1-0.1,0.1h-0.4c-0.1,0-0.1,0-0.1-0.1V19z"/>
			<path d="M32.7,23c0-1.4,0.1-2,0.2-2.4c0.4-1.2,1.3-1.8,2.6-1.8c1.1,0,2,0.5,2.5,1.5c0,0.1,0,0.1,0,0.2l-0.4,0.2
				c-0.1,0-0.1,0-0.2,0c-0.4-0.7-0.9-1.2-1.9-1.2s-1.6,0.5-1.9,1.4c-0.1,0.3-0.2,0.8-0.2,2.2c0,1.4,0.1,1.9,0.2,2.2
				c0.3,0.9,0.9,1.4,1.9,1.4c0.9,0,1.5-0.5,1.9-1.2c0-0.1,0.1-0.1,0.2,0l0.4,0.2c0.1,0,0.1,0.1,0,0.2c-0.5,1-1.3,1.5-2.5,1.5
				c-1.3,0-2.2-0.6-2.6-1.8C32.8,24.9,32.7,24.4,32.7,23z"/>
			<path d="M39.7,19c0-0.1,0-0.1,0.1-0.1h0.4c0.1,0,0.1,0,0.1,0.1v4.7l3.9-4.7c0.1-0.1,0.1-0.1,0.2-0.1H45c0.1,0,0.1,0.1,0,0.1
				l-2.6,3.1l2.8,4.8c0,0.1,0,0.1-0.1,0.1h-0.5c-0.1,0-0.1,0-0.2-0.1L42,22.6l-1.7,2v2.3c0,0.1,0,0.1-0.1,0.1h-0.4
				c-0.1,0-0.1,0-0.1-0.1V19z"/>
			<path d="M49.8,19c0-0.1,0-0.1,0.1-0.1h0.4c0.1,0,0.1,0,0.1,0.1v3.5c0,0,0,0.1,0.1,0.1h4c0,0,0.1,0,0.1-0.1V19
				c0-0.1,0-0.1,0.1-0.1h0.4c0.1,0,0.1,0,0.1,0.1v7.9c0,0.1,0,0.1-0.1,0.1h-0.4c-0.1,0-0.1,0-0.1-0.1v-3.6c0,0,0-0.1-0.1-0.1h-4
				c0,0-0.1,0-0.1,0.1v3.6c0,0.1,0,0.1-0.1,0.1h-0.4c-0.1,0-0.1,0-0.1-0.1V19z"/>
			<path d="M57.6,19c0-0.1,0-0.1,0.1-0.1h4.7c0.1,0,0.1,0,0.1,0.1v0.4c0,0.1,0,0.1-0.1,0.1h-4c0,0-0.1,0-0.1,0.1v2.9
				c0,0,0,0.1,0.1,0.1h3.5c0.1,0,0.1,0,0.1,0.1v0.4c0,0.1,0,0.1-0.1,0.1h-3.5c0,0-0.1,0-0.1,0.1v3c0,0,0,0.1,0.1,0.1h4
				c0.1,0,0.1,0,0.1,0.1v0.4c0,0.1,0,0.1-0.1,0.1h-4.7c-0.1,0-0.1,0-0.1-0.1V19z"/>
			<path d="M69.1,27C69,27,69,27,69,26.9l-1.7-3.5h-0.1H65c0,0-0.1,0-0.1,0.1v3.4c0,0.1,0,0.1-0.1,0.1h-0.4c-0.1,0-0.1,0-0.1-0.1V19
				c0-0.1,0-0.1,0.1-0.1h2.7c1.5,0,2.5,0.9,2.5,2.3c0,1.1-0.6,1.9-1.7,2.2l1.8,3.6c0,0.1,0,0.1-0.1,0.1h-0.5V27z M68.9,21.1
				c0-1-0.6-1.6-1.8-1.6H65c0,0-0.1,0-0.1,0.1v3.1c0,0,0,0.1,0.1,0.1h2.1C68.3,22.7,68.9,22.2,68.9,21.1z"/>
			<path d="M71.7,19c0-0.1,0-0.1,0.1-0.1h4.7c0.1,0,0.1,0,0.1,0.1v0.4c0,0.1,0,0.1-0.1,0.1h-4c0,0-0.1,0-0.1,0.1v2.9
				c0,0,0,0.1,0.1,0.1H76c0.1,0,0.1,0,0.1,0.1v0.4c0,0.1,0,0.1-0.1,0.1h-3.5c0,0-0.1,0-0.1,0.1v3c0,0,0,0.1,0.1,0.1h4
				c0.1,0,0.1,0,0.1,0.1v0.4c0,0.1,0,0.1-0.1,0.1h-4.7c-0.1,0-0.1,0-0.1-0.1V19z"/>
			<path d="M83,27c-0.1,0-0.1,0-0.1-0.1v-7.3c0,0,0-0.1-0.1-0.1h-2.4c-0.1,0-0.1,0-0.1-0.1V19c0-0.1,0-0.1,0.1-0.1H86
				c0.1,0,0.1,0,0.1,0.1v0.4c0,0.1,0,0.1-0.1,0.1h-2.4c0,0-0.1,0-0.1,0.1v7.3c0,0.1,0,0.1-0.1,0.1H83z"/>
			<path d="M87.1,25.3c-0.1-0.4-0.2-1-0.2-2.4s0.1-1.9,0.2-2.4c0.4-1.2,1.3-1.8,2.6-1.8c1.3,0,2.2,0.6,2.6,1.8
				c0.1,0.4,0.2,1,0.2,2.4s-0.1,1.9-0.2,2.4c-0.4,1.2-1.3,1.8-2.6,1.8C88.4,27.2,87.5,26.5,87.1,25.3z M91.7,20.8
				c-0.3-0.9-1-1.4-2-1.4s-1.7,0.5-2,1.4c-0.1,0.3-0.2,0.9-0.2,2.2c0,1.3,0.1,1.8,0.2,2.2c0.3,0.9,1,1.4,2,1.4s1.7-0.5,2-1.4
				c0.1-0.3,0.2-0.9,0.2-2.2C91.9,21.6,91.8,21.1,91.7,20.8z"/>
			<path d="M97.1,26.2c0,0-0.1-0.1,0-0.2l0.3-0.4c0-0.1,0.1-0.1,0.2,0c0.5,0.4,1.4,0.8,2.3,0.8c1.3,0,2.1-0.7,2.1-1.7
				c0-0.8-0.5-1.4-2-1.6h-0.4c-1.6-0.2-2.4-1-2.4-2.2c0-1.4,1-2.3,2.6-2.3c0.9,0,1.8,0.3,2.3,0.7c0.1,0,0.1,0.1,0,0.2l-0.2,0.4
				c0,0.1-0.1,0.1-0.2,0c-0.6-0.4-1.3-0.6-2-0.6c-1.2,0-1.8,0.6-1.8,1.6c0,0.8,0.5,1.4,1.9,1.5h0.4c1.7,0.2,2.4,1,2.4,2.2
				c0,1.4-1,2.4-2.9,2.4C98.7,27.2,97.7,26.7,97.1,26.2z"/>
			<path d="M104.6,19c0-0.1,0-0.1,0.1-0.1h4.7c0.1,0,0.1,0,0.1,0.1v0.4c0,0.1,0,0.1-0.1,0.1h-4c0,0-0.1,0-0.1,0.1v2.9
				c0,0,0,0.1,0.1,0.1h3.5c0.1,0,0.1,0,0.1,0.1v0.4c0,0.1,0,0.1-0.1,0.1h-3.5c0,0-0.1,0-0.1,0.1v3c0,0,0,0.1,0.1,0.1h4
				c0.1,0,0.1,0,0.1,0.1v0.4c0,0.1,0,0.1-0.1,0.1h-4.7c-0.1,0-0.1,0-0.1-0.1V19z"/>
			<path d="M111.3,19c0-0.1,0-0.1,0.1-0.1h4.7c0.1,0,0.1,0,0.1,0.1v0.4c0,0.1,0,0.1-0.1,0.1h-4c0,0-0.1,0-0.1,0.1v2.9
				c0,0,0,0.1,0.1,0.1h3.5c0.1,0,0.1,0,0.1,0.1v0.4c0,0.1,0,0.1-0.1,0.1H112c0,0-0.1,0-0.1,0.1v3c0,0,0,0.1,0.1,0.1h4
				c0.1,0,0.1,0,0.1,0.1v0.4c0,0.1,0,0.1-0.1,0.1h-4.7c-0.1,0-0.1,0-0.1-0.1L111.3,19L111.3,19z"/>
			<path d="M120.9,19c0-0.1,0-0.1,0.1-0.1h0.5c0.1,0,0.1,0,0.2,0.1l2.7,5.8l0,0L127,19c0-0.1,0.1-0.1,0.2-0.1h0.5
				c0.1,0,0.1,0,0.1,0.1v7.9c0,0.1,0,0.1-0.1,0.1h-0.4c-0.1,0-0.1,0-0.1-0.1v-6.4l0,0l-2.4,5.2c0,0.1-0.1,0.1-0.2,0.1h-0.2
				c-0.1,0-0.2,0-0.2-0.1l-2.4-5.2l0,0v6.4c0,0.1,0,0.1-0.1,0.1H121c-0.1,0-0.1,0-0.1-0.1V19z"/>
			<path d="M129.8,25.3c-0.1-0.4-0.2-1-0.2-2.4s0.1-1.9,0.2-2.4c0.4-1.2,1.3-1.8,2.6-1.8s2.2,0.6,2.6,1.8c0.1,0.4,0.2,1,0.2,2.4
				s-0.1,1.9-0.2,2.4c-0.4,1.2-1.3,1.8-2.6,1.8C131.1,27.2,130.2,26.5,129.8,25.3z M134.4,20.8c-0.3-0.9-1-1.4-2-1.4s-1.7,0.5-2,1.4
				c-0.1,0.3-0.2,0.9-0.2,2.2c0,1.3,0.1,1.8,0.2,2.2c0.3,0.9,1,1.4,2,1.4s1.7-0.5,2-1.4c0.1-0.3,0.2-0.9,0.2-2.2
				C134.6,21.6,134.6,21.1,134.4,20.8z"/>
			<path d="M142.1,27c-0.1,0-0.1,0-0.1-0.1l-1.7-3.5h-0.1H138c0,0-0.1,0-0.1,0.1v3.4c0,0.1,0,0.1-0.1,0.1h-0.4c-0.1,0-0.1,0-0.1-0.1
				V19c0-0.1,0-0.1,0.1-0.1h2.7c1.5,0,2.5,0.9,2.5,2.3c0,1.1-0.6,1.9-1.7,2.2l1.8,3.6c0,0.1,0,0.1-0.1,0.1h-0.5V27z M141.9,21.1
				c0-1-0.6-1.6-1.8-1.6H138c0,0-0.1,0-0.1,0.1v3.1c0,0,0,0.1,0.1,0.1h2.1C141.3,22.7,141.9,22.2,141.9,21.1z"/>
			<path d="M144.6,19c0-0.1,0-0.1,0.1-0.1h4.7c0.1,0,0.1,0,0.1,0.1v0.4c0,0.1,0,0.1-0.1,0.1h-4c0,0-0.1,0-0.1,0.1v2.9
				c0,0,0,0.1,0.1,0.1h3.5c0.1,0,0.1,0,0.1,0.1v0.4c0,0.1,0,0.1-0.1,0.1h-3.5c0,0-0.1,0-0.1,0.1v3c0,0,0,0.1,0.1,0.1h4
				c0.1,0,0.1,0,0.1,0.1v0.4c0,0.1,0,0.1-0.1,0.1h-4.7c-0.1,0-0.1,0-0.1-0.1V19z"/>
		</g>
		<g>
			<path d="M37.2,34.1c0-0.1,0.1-0.2,0.2-0.2h1.2c0.1,0,0.2,0.1,0.2,0.2L43,46c0,0.1,0,0.2-0.1,0.2h-1.3c-0.1,0-0.2-0.1-0.2-0.2
				l-0.9-2.7h-5L34.6,46c-0.1,0.1-0.1,0.2-0.2,0.2h-1.3c-0.1,0-0.2-0.1-0.1-0.2L37.2,34.1z M40,41.9l-1.9-5.6l0,0l-2,5.6H40z"/>
			<path d="M53.2,46.2c-0.1,0-0.2-0.1-0.2-0.2l-2.6-9.1l0,0L47.8,46c0,0.1-0.1,0.2-0.2,0.2h-1c-0.1,0-0.2-0.1-0.2-0.2l-3-11.9
				c0-0.1,0-0.2,0.1-0.2h1.2c0.1,0,0.2,0.1,0.2,0.2l2.2,9.1l0,0l2.5-9.1c0-0.1,0.1-0.2,0.2-0.2h0.9c0.1,0,0.2,0.1,0.2,0.2l2.6,9.1
				l0,0l2.1-9.1c0-0.1,0.1-0.2,0.2-0.2H57c0.1,0,0.2,0.1,0.1,0.2l-3,11.9c0,0.1-0.1,0.2-0.2,0.2H53.2z"/>
			<path d="M59.3,34.1c0-0.1,0.1-0.2,0.2-0.2h7.4c0.1,0,0.2,0.1,0.2,0.2v1.1c0,0.1-0.1,0.2-0.2,0.2H61c-0.1,0-0.1,0-0.1,0.1v3.6
				c0,0.1,0,0.1,0.1,0.1h5c0.1,0,0.2,0.1,0.2,0.2v1.1c0,0.1-0.1,0.2-0.2,0.2h-5c-0.1,0-0.1,0-0.1,0.1v3.7c0,0.1,0,0.1,0.1,0.1h5.8
				c0.1,0,0.2,0.1,0.2,0.2v1.1c0,0.1-0.1,0.2-0.2,0.2h-7.4c-0.1,0-0.2-0.1-0.2-0.2L59.3,34.1L59.3,34.1z"/>
			<path d="M68.9,44.8c-0.1-0.1-0.1-0.2,0-0.3l0.8-0.9c0.1-0.1,0.2-0.1,0.3,0c0.8,0.6,2,1.3,3.4,1.3c1.7,0,2.7-0.8,2.7-2.1
				c0-1-0.6-1.7-2.6-2l-0.6-0.1c-2.4-0.3-3.6-1.5-3.6-3.4c0-2.2,1.6-3.6,4-3.6c1.4,0,2.8,0.5,3.7,1.1c0.1,0.1,0.1,0.2,0,0.3l-0.6,1
				c-0.1,0.1-0.2,0.1-0.3,0c-1-0.6-1.9-0.9-3-0.9c-1.5,0-2.3,0.8-2.3,2c0,1,0.7,1.7,2.6,2l0.6,0.1c2.4,0.3,3.6,1.4,3.6,3.4
				c0,2.1-1.5,3.7-4.5,3.7C71.4,46.4,69.8,45.7,68.9,44.8z"/>
			<path d="M80,43.5c-0.2-0.7-0.3-1.4-0.3-3.5s0.1-2.8,0.3-3.5c0.6-1.9,2.1-2.9,4.2-2.9s3.5,1,4.2,2.9c0.2,0.7,0.3,1.4,0.3,3.5
				s-0.1,2.8-0.3,3.5c-0.6,1.9-2.1,2.9-4.2,2.9S80.6,45.4,80,43.5z M86.8,43.1c0.1-0.5,0.3-1.2,0.3-3s-0.1-2.6-0.3-3
				c-0.4-1.2-1.2-1.8-2.6-1.8s-2.2,0.6-2.6,1.8c-0.1,0.5-0.3,1.2-0.3,3s0.1,2.6,0.3,3c0.4,1.2,1.2,1.8,2.6,1.8
				C85.5,44.9,86.4,44.2,86.8,43.1z"/>
			<path d="M91.2,34.1c0-0.1,0.1-0.2,0.2-0.2h1.2c0.1,0,0.2,0.1,0.3,0.2l3.7,8.2h0.1l3.6-8.2c0.1-0.1,0.1-0.2,0.3-0.2h1.2
				c0.1,0,0.2,0.1,0.2,0.2V46c0,0.1-0.1,0.2-0.2,0.2h-1.1c-0.1,0-0.2-0.1-0.2-0.2v-8.5h-0.1l-3,6.7c-0.1,0.2-0.2,0.2-0.3,0.2h-0.7
				c-0.2,0-0.3-0.1-0.3-0.2l-3-6.7H93V46c0,0.1-0.1,0.2-0.2,0.2h-1.1c-0.1,0-0.2-0.1-0.2-0.2V34.1H91.2z"/>
			<path d="M104.8,34.1c0-0.1,0.1-0.2,0.2-0.2h7.4c0.1,0,0.2,0.1,0.2,0.2v1.1c0,0.1-0.1,0.2-0.2,0.2h-5.8c-0.1,0-0.1,0-0.1,0.1v3.6
				c0,0.1,0,0.1,0.1,0.1h5c0.1,0,0.2,0.1,0.2,0.2v1.1c0,0.1-0.1,0.2-0.2,0.2h-5c-0.1,0-0.1,0-0.1,0.1v3.7c0,0.1,0,0.1,0.1,0.1h5.8
				c0.1,0,0.2,0.1,0.2,0.2v1.1c0,0.1-0.1,0.2-0.2,0.2H105c-0.1,0-0.2-0.1-0.2-0.2V34.1z"/>
			<path d="M127.7,46.2c-0.1,0-0.2-0.1-0.2-0.2l-2.6-9.1l0,0l-2.6,9.1c0,0.1-0.1,0.2-0.2,0.2h-1c-0.1,0-0.2-0.1-0.2-0.2l-3-11.9
				c0-0.1,0-0.2,0.1-0.2h1.2c0.1,0,0.2,0.1,0.2,0.2l2.2,9.1l0,0l2.5-9.1c0-0.1,0.1-0.2,0.2-0.2h0.9c0.1,0,0.2,0.1,0.2,0.2l2.6,9.1
				l0,0l2.1-9.1c0-0.1,0.1-0.2,0.2-0.2h1.2c0.1,0,0.2,0.1,0.1,0.2l-3,11.9c0,0.1-0.1,0.2-0.2,0.2H127.7z"/>
			<path d="M133.5,43.5c-0.2-0.7-0.3-1.4-0.3-3.5s0.1-2.8,0.3-3.5c0.6-1.9,2.1-2.9,4.2-2.9c2.1,0,3.5,1,4.2,2.9
				c0.2,0.7,0.3,1.4,0.3,3.5s-0.1,2.8-0.3,3.5c-0.6,1.9-2.1,2.9-4.2,2.9S134.2,45.4,133.5,43.5z M140.3,43.1c0.1-0.5,0.3-1.2,0.3-3
				s-0.1-2.6-0.3-3c-0.4-1.2-1.2-1.8-2.6-1.8c-1.4,0-2.2,0.6-2.6,1.8c-0.1,0.5-0.3,1.2-0.3,3s0.1,2.6,0.3,3c0.4,1.2,1.2,1.8,2.6,1.8
				S139.9,44.2,140.3,43.1z"/>
			<path d="M151.9,46.2c-0.1,0-0.2-0.1-0.2-0.2l-2.4-5h-2.7c-0.1,0-0.1,0-0.1,0.1V46c0,0.1-0.1,0.2-0.2,0.2H145
				c-0.1,0-0.2-0.1-0.2-0.2V34.1c0-0.1,0.1-0.2,0.2-0.2h4.4c2.3,0,3.8,1.4,3.8,3.5c0,1.7-0.9,2.9-2.4,3.3l2.6,5.2
				c0.1,0.1,0,0.2-0.1,0.2L151.9,46.2L151.9,46.2z M151.6,37.5c0-1.3-0.8-2-2.3-2h-2.9c-0.1,0-0.1,0-0.1,0.1v3.9
				c0,0.1,0,0.1,0.1,0.1h2.9C150.8,39.5,151.6,38.7,151.6,37.5z"/>
			<path d="M155.9,34.1c0-0.1,0.1-0.2,0.2-0.2h1.2c0.1,0,0.2,0.1,0.2,0.2v6.4l5.2-6.4c0.1-0.1,0.2-0.2,0.3-0.2h1.5
				c0.1,0,0.2,0.1,0.1,0.2l-3.8,4.6l4.2,7.2c0.1,0.1,0,0.2-0.1,0.2h-1.4c-0.1,0-0.2,0-0.3-0.2l-3.4-6l-2.2,2.6v3.4
				c0,0.1-0.1,0.2-0.2,0.2h-1.2c-0.1,0-0.2-0.1-0.2-0.2V34.1H155.9z"/>
			<path d="M166.3,44.8c-0.1-0.1-0.1-0.2,0-0.3l0.8-0.9c0.1-0.1,0.2-0.1,0.3,0c0.8,0.6,2,1.3,3.4,1.3c1.7,0,2.7-0.8,2.7-2.1
				c0-1-0.6-1.7-2.6-2l-0.6-0.1c-2.4-0.3-3.6-1.5-3.6-3.4c0-2.2,1.6-3.6,4-3.6c1.4,0,2.8,0.5,3.7,1.1c0.1,0.1,0.1,0.2,0,0.3l-0.6,1
				c-0.1,0.1-0.2,0.1-0.3,0c-1-0.6-1.9-0.9-3-0.9c-1.5,0-2.3,0.8-2.3,2c0,1,0.7,1.7,2.6,2l0.6,0.1c2.4,0.3,3.6,1.4,3.6,3.4
				c0,2.1-1.5,3.7-4.5,3.7C168.8,46.4,167.2,45.7,166.3,44.8z"/>
		</g>
	</g>
	<rect x="5.7" y="5.8" class="st0" width="239.6" height="53.5"/>
	<line class="st1" x1="195.1" y1="5.8" x2="195.1" y2="59.2"/>
	<g>
		<polygon points="213.6,40.3 213.2,40.1 226.1,18.3 226.6,18.6 		"/>
		<polygon points="215.8,41.4 215.4,41.1 228.3,19.3 228.7,19.6 		"/>
		<path d="M217.9,43.4c0.1,0,0.1-0.1,0.2-0.2l12.7-22c0.1-0.1,0.1-0.3,0-0.4c0-0.1-0.1-0.2-0.2-0.3l-6.4-3.7
			c-0.2-0.1-0.5-0.1-0.7,0.2l-12.7,22c0,0.1-0.1,0.1-0.1,0.2l0,0l-0.4,8c0,0.2,0.1,0.4,0.2,0.5c0.1,0,0.2,0.1,0.3,0.1h19.5v-1h-17.8
			L217.9,43.4L217.9,43.4z M224.2,17.9l5.5,3.2l-12.2,21.2l-2.8-1.6l-2.8-1.6L224.2,17.9z M211.4,46.4l0.3-6.3l5,2.9L211.4,46.4z"/>
	</g>
</g>
<g>
	<g>
		<g>
			<path class="st2" d="M16.7,82.3c0-1.4,0.1-2,0.2-2.4c0.4-1.2,1.3-1.8,2.6-1.8c1.1,0,2,0.5,2.5,1.5c0,0.1,0,0.1,0,0.2L21.6,80
				c-0.1,0-0.1,0-0.2,0c-0.4-0.7-0.9-1.2-1.9-1.2s-1.6,0.5-1.9,1.4c-0.1,0.3-0.2,0.8-0.2,2.2c0,1.4,0.1,1.9,0.2,2.2
				c0.3,0.9,0.9,1.4,1.9,1.4c0.9,0,1.5-0.5,1.9-1.2c0-0.1,0.1-0.1,0.2,0L22,85c0.1,0,0.1,0.1,0,0.2c-0.5,1-1.3,1.5-2.5,1.5
				c-1.3,0-2.2-0.6-2.6-1.8C16.8,84.3,16.7,83.7,16.7,82.3z"/>
			<path class="st2" d="M23.7,78.4c0-0.1,0-0.1,0.1-0.1h0.4c0.1,0,0.1,0,0.1,0.1v7.3c0,0,0,0.1,0.1,0.1h4c0.1,0,0.1,0,0.1,0.1v0.4
				c0,0.1,0,0.1-0.1,0.1h-4.7c-0.1,0-0.1,0-0.1-0.1v-7.9H23.7z"/>
			<path class="st2" d="M30.1,78.4c0-0.1,0-0.1,0.1-0.1h0.4c0.1,0,0.1,0,0.1,0.1v7.9c0,0.1,0,0.1-0.1,0.1h-0.4c-0.1,0-0.1,0-0.1-0.1
				V78.4z"/>
			<path class="st2" d="M32.7,82.3c0-1.4,0.1-2,0.2-2.4c0.4-1.2,1.3-1.8,2.6-1.8c1.1,0,2,0.5,2.5,1.5c0,0.1,0,0.1,0,0.2L37.6,80
				c-0.1,0-0.1,0-0.2,0c-0.4-0.7-0.9-1.2-1.9-1.2s-1.6,0.5-1.9,1.4c-0.1,0.3-0.2,0.8-0.2,2.2c0,1.4,0.1,1.9,0.2,2.2
				c0.3,0.9,0.9,1.4,1.9,1.4c0.9,0,1.5-0.5,1.9-1.2c0-0.1,0.1-0.1,0.2,0L38,85c0.1,0,0.1,0.1,0,0.2c-0.5,1-1.3,1.5-2.5,1.5
				c-1.3,0-2.2-0.6-2.6-1.8C32.8,84.3,32.7,83.7,32.7,82.3z"/>
			<path class="st2" d="M39.7,78.4C39.7,78.3,39.7,78.3,39.7,78.4l0.5-0.1c0.1,0,0.1,0,0.1,0.1v4.7l3.9-4.7c0.1-0.1,0.1-0.1,0.2-0.1
				H45c0.1,0,0.1,0.1,0,0.1l-2.6,3.1l2.8,4.8c0,0.1,0,0.1-0.1,0.1h-0.5c-0.1,0-0.1,0-0.2-0.1L42,82l-1.7,2v2.3c0,0.1,0,0.1-0.1,0.1
				h-0.4c-0.1,0-0.1,0-0.1-0.1V78.4z"/>
			<path class="st2" d="M49.8,78.4C49.8,78.3,49.8,78.3,49.8,78.4l0.5-0.1c0.1,0,0.1,0,0.1,0.1v3.5c0,0,0,0.1,0.1,0.1h4
				c0,0,0.1,0,0.1-0.1v-3.5c0-0.1,0-0.1,0.1-0.1h0.4c0.1,0,0.1,0,0.1,0.1v7.9c0,0.1,0,0.1-0.1,0.1h-0.4c-0.1,0-0.1,0-0.1-0.1v-3.6
				c0,0,0-0.1-0.1-0.1h-4c0,0-0.1,0-0.1,0.1v3.6c0,0.1,0,0.1-0.1,0.1h-0.4c-0.1,0-0.1,0-0.1-0.1V78.4z"/>
			<path class="st2" d="M57.6,78.4C57.6,78.3,57.6,78.3,57.6,78.4l4.8-0.1c0.1,0,0.1,0,0.1,0.1v0.4c0,0.1,0,0.1-0.1,0.1h-4
				c0,0-0.1,0-0.1,0.1v2.9c0,0,0,0.1,0.1,0.1h3.5c0.1,0,0.1,0,0.1,0.1v0.4c0,0.1,0,0.1-0.1,0.1h-3.5c0,0-0.1,0-0.1,0.1v3
				c0,0,0,0.1,0.1,0.1h4c0.1,0,0.1,0,0.1,0.1v0.4c0,0.1,0,0.1-0.1,0.1h-4.7c-0.1,0-0.1,0-0.1-0.1V78.4z"/>
			<path class="st2" d="M69.1,86.4C69,86.4,69,86.4,69.1,86.4l-1.8-3.6h-0.1H65c0,0-0.1,0-0.1,0.1v3.5c0,0.1,0,0.1-0.1,0.1h-0.4
				c-0.1,0-0.1,0-0.1-0.1v-7.9c0-0.1,0-0.1,0.1-0.1h2.7c1.5,0,2.5,0.9,2.5,2.3c0,1.1-0.6,1.9-1.7,2.2l1.8,3.6c0,0.1,0,0.1-0.1,0.1
				h-0.5V86.4z M68.9,80.5c0-1-0.6-1.6-1.8-1.6H65c0,0-0.1,0-0.1,0.1v3.1c0,0,0,0.1,0.1,0.1h2.1C68.3,82.1,68.9,81.5,68.9,80.5z"/>
			<path class="st2" d="M71.7,78.4C71.7,78.3,71.7,78.3,71.7,78.4l4.8-0.1c0.1,0,0.1,0,0.1,0.1v0.4c0,0.1,0,0.1-0.1,0.1h-4
				c0,0-0.1,0-0.1,0.1v2.9c0,0,0,0.1,0.1,0.1H76c0.1,0,0.1,0,0.1,0.1v0.4c0,0.1,0,0.1-0.1,0.1h-3.5c0,0-0.1,0-0.1,0.1v3
				c0,0,0,0.1,0.1,0.1h4c0.1,0,0.1,0,0.1,0.1v0.4c0,0.1,0,0.1-0.1,0.1h-4.7c-0.1,0-0.1,0-0.1-0.1V78.4z"/>
			<path class="st2" d="M83,86.4C82.9,86.4,82.9,86.4,83,86.4L82.9,79c0,0,0-0.1-0.1-0.1h-2.4c-0.1,0-0.1,0-0.1-0.1v-0.4
				c0-0.1,0-0.1,0.1-0.1H86c0.1,0,0.1,0,0.1,0.1v0.4c0,0.1,0,0.1-0.1,0.1h-2.4c0,0-0.1,0-0.1,0.1v7.3c0,0.1,0,0.1-0.1,0.1H83z"/>
			<path class="st2" d="M87.1,84.7c-0.1-0.4-0.2-1-0.2-2.4s0.1-1.9,0.2-2.4c0.4-1.2,1.3-1.8,2.6-1.8c1.3,0,2.2,0.6,2.6,1.8
				c0.1,0.4,0.2,1,0.2,2.4s-0.1,1.9-0.2,2.4c-0.4,1.2-1.3,1.8-2.6,1.8S87.5,85.9,87.1,84.7z M91.7,80.1c-0.3-0.9-1-1.4-2-1.4
				s-1.7,0.5-2,1.4c-0.1,0.3-0.2,0.9-0.2,2.2c0,1.3,0.1,1.8,0.2,2.2c0.3,0.9,1,1.4,2,1.4s1.7-0.5,2-1.4c0.1-0.3,0.2-0.9,0.2-2.2
				C91.9,81,91.8,80.5,91.7,80.1z"/>
			<path class="st2" d="M97.1,85.6c0,0-0.1-0.1,0-0.2l0.3-0.4c0-0.1,0.1-0.1,0.2,0c0.5,0.4,1.4,0.8,2.3,0.8c1.3,0,2.1-0.7,2.1-1.7
				c0-0.8-0.5-1.4-2-1.6h-0.4c-1.6-0.2-2.4-1-2.4-2.2c0-1.4,1-2.3,2.6-2.3c0.9,0,1.8,0.3,2.3,0.7c0.1,0,0.1,0.1,0,0.2l-0.2,0.4
				c0,0.1-0.1,0.1-0.2,0c-0.6-0.4-1.3-0.6-2-0.6c-1.2,0-1.8,0.6-1.8,1.6c0,0.8,0.5,1.4,1.9,1.5h0.4c1.7,0.2,2.4,1,2.4,2.2
				c0,1.4-1,2.4-2.9,2.4C98.7,86.5,97.7,86.1,97.1,85.6z"/>
			<path class="st2" d="M104.6,78.4C104.6,78.3,104.6,78.3,104.6,78.4l4.8-0.1c0.1,0,0.1,0,0.1,0.1v0.4c0,0.1,0,0.1-0.1,0.1h-4
				c0,0-0.1,0-0.1,0.1v2.9c0,0,0,0.1,0.1,0.1h3.5c0.1,0,0.1,0,0.1,0.1v0.4c0,0.1,0,0.1-0.1,0.1h-3.5c0,0-0.1,0-0.1,0.1v3
				c0,0,0,0.1,0.1,0.1h4c0.1,0,0.1,0,0.1,0.1v0.4c0,0.1,0,0.1-0.1,0.1h-4.7c-0.1,0-0.1,0-0.1-0.1V78.4z"/>
			<path class="st2" d="M111.3,78.4C111.3,78.3,111.3,78.3,111.3,78.4l4.8-0.1c0.1,0,0.1,0,0.1,0.1v0.4c0,0.1,0,0.1-0.1,0.1h-4
				c0,0-0.1,0-0.1,0.1v2.9c0,0,0,0.1,0.1,0.1h3.5c0.1,0,0.1,0,0.1,0.1v0.4c0,0.1,0,0.1-0.1,0.1H112c0,0-0.1,0-0.1,0.1v3
				c0,0,0,0.1,0.1,0.1h4c0.1,0,0.1,0,0.1,0.1v0.4c0,0.1,0,0.1-0.1,0.1h-4.7c-0.1,0-0.1,0-0.1-0.1L111.3,78.4L111.3,78.4z"/>
			<path class="st2" d="M120.9,78.4C120.9,78.3,120.9,78.3,120.9,78.4l0.6-0.1c0.1,0,0.1,0,0.2,0.1l2.7,5.8l0,0l2.6-5.8
				c0-0.1,0.1-0.1,0.2-0.1h0.5c0.1,0,0.1,0,0.1,0.1v7.9c0,0.1,0,0.1-0.1,0.1h-0.4c-0.1,0-0.1,0-0.1-0.1v-6.4l0,0l-2.4,5.2
				c0,0.1-0.1,0.1-0.2,0.1h-0.2c-0.1,0-0.2,0-0.2-0.1l-2.4-5.2l0,0v6.4c0,0.1,0,0.1-0.1,0.1H121c-0.1,0-0.1,0-0.1-0.1V78.4z"/>
			<path class="st2" d="M129.8,84.7c-0.1-0.4-0.2-1-0.2-2.4s0.1-1.9,0.2-2.4c0.4-1.2,1.3-1.8,2.6-1.8s2.2,0.6,2.6,1.8
				c0.1,0.4,0.2,1,0.2,2.4s-0.1,1.9-0.2,2.4c-0.4,1.2-1.3,1.8-2.6,1.8S130.2,85.9,129.8,84.7z M134.4,80.1c-0.3-0.9-1-1.4-2-1.4
				s-1.7,0.5-2,1.4c-0.1,0.3-0.2,0.9-0.2,2.2c0,1.3,0.1,1.8,0.2,2.2c0.3,0.9,1,1.4,2,1.4s1.7-0.5,2-1.4c0.1-0.3,0.2-0.9,0.2-2.2
				C134.6,81,134.6,80.5,134.4,80.1z"/>
			<path class="st2" d="M142.1,86.4c-0.1,0-0.1,0-0.1-0.1l-1.7-3.5h-0.1H138c0,0-0.1,0-0.1,0.1v3.5c0,0.1,0,0.1-0.1,0.1h-0.4
				c-0.1,0-0.1,0-0.1-0.1v-7.9c0-0.1,0-0.1,0.1-0.1h2.7c1.5,0,2.5,0.9,2.5,2.3c0,1.1-0.6,1.9-1.7,2.2l1.8,3.6c0,0.1,0,0.1-0.1,0.1
				h-0.5V86.4z M141.9,80.5c0-1-0.6-1.6-1.8-1.6H138c0,0-0.1,0-0.1,0.1v3.1c0,0,0,0.1,0.1,0.1h2.1C141.3,82.1,141.9,81.5,141.9,80.5
				z"/>
			<path class="st2" d="M144.6,78.4c0-0.1,0-0.1,0.1-0.1h4.7c0.1,0,0.1,0,0.1,0.1v0.4c0,0.1,0,0.1-0.1,0.1h-4c0,0-0.1,0-0.1,0.1v2.9
				c0,0,0,0.1,0.1,0.1h3.5c0.1,0,0.1,0,0.1,0.1v0.4c0,0.1,0,0.1-0.1,0.1h-3.5c0,0-0.1,0-0.1,0.1v3c0,0,0,0.1,0.1,0.1h4
				c0.1,0,0.1,0,0.1,0.1v0.4c0,0.1,0,0.1-0.1,0.1h-4.7c-0.1,0-0.1,0-0.1-0.1V78.4z"/>
		</g>
		<g>
			<path class="st2" d="M37.2,93.5c0-0.1,0.1-0.2,0.2-0.2h1.2c0.1,0,0.2,0.1,0.2,0.2l4.2,11.9c0,0.1,0,0.2-0.1,0.2h-1.3
				c-0.1,0-0.2-0.1-0.2-0.2l-0.9-2.7h-5l-0.9,2.7c-0.1,0.1-0.1,0.2-0.2,0.2h-1.3c-0.1,0-0.2-0.1-0.1-0.2L37.2,93.5z M40,101.2
				l-1.9-5.6l0,0l-1.9,5.6H40z"/>
			<path class="st2" d="M53.2,105.5c-0.1,0-0.2-0.1-0.2-0.2l-2.6-9.1l0,0l-2.6,9.1c0,0.1-0.1,0.2-0.2,0.2h-1c-0.1,0-0.2-0.1-0.2-0.2
				l-3-11.9c0-0.1,0-0.2,0.1-0.2h1.2c0.1,0,0.2,0.1,0.2,0.2l2.2,9.1l0,0l2.5-9.1c0-0.1,0.1-0.2,0.2-0.2h0.9c0.1,0,0.2,0.1,0.2,0.2
				l2.6,9.1l0,0l2.1-9.1c0-0.1,0.1-0.2,0.2-0.2H57c0.1,0,0.2,0.1,0.1,0.2l-3,11.9c0,0.1-0.1,0.2-0.2,0.2H53.2z"/>
			<path class="st2" d="M59.3,93.5c0-0.1,0.1-0.2,0.2-0.2h7.4c0.1,0,0.2,0.1,0.2,0.2v1.1c0,0.1-0.1,0.2-0.2,0.2H61
				c-0.1,0-0.1,0-0.1,0.1v3.6c0,0.1,0,0.1,0.1,0.1h5c0.1,0,0.2,0.1,0.2,0.2v1.1c0,0.1-0.1,0.2-0.2,0.2h-5c-0.1,0-0.1,0-0.1,0.1v3.7
				c0,0.1,0,0.1,0.1,0.1h5.8c0.1,0,0.2,0.1,0.2,0.2v1.1c0,0.1-0.1,0.2-0.2,0.2h-7.4c-0.1,0-0.2-0.1-0.2-0.2L59.3,93.5L59.3,93.5z"/>
			<path class="st2" d="M68.9,104.2c-0.1-0.1-0.1-0.2,0-0.3l0.8-0.9c0.1-0.1,0.2-0.1,0.3,0c0.8,0.6,2,1.3,3.4,1.3
				c1.7,0,2.7-0.8,2.7-2.1c0-1-0.6-1.7-2.6-2l-0.6-0.1c-2.4-0.3-3.6-1.5-3.6-3.4c0-2.2,1.6-3.6,4-3.6c1.4,0,2.8,0.5,3.7,1.1
				c0.1,0.1,0.1,0.2,0,0.3l-0.6,1c-0.1,0.1-0.2,0.1-0.3,0c-1-0.6-1.9-0.9-3-0.9c-1.5,0-2.3,0.8-2.3,2c0,1,0.7,1.7,2.6,2l0.6,0.1
				c2.4,0.3,3.6,1.4,3.6,3.4c0,2.1-1.5,3.7-4.5,3.7C71.4,105.7,69.8,105,68.9,104.2z"/>
			<path class="st2" d="M80,102.9c-0.2-0.7-0.3-1.4-0.3-3.5s0.1-2.8,0.3-3.5c0.6-1.9,2.1-2.9,4.2-2.9s3.5,1,4.2,2.9
				c0.2,0.7,0.3,1.4,0.3,3.5s-0.1,2.8-0.3,3.5c-0.6,1.9-2.1,2.9-4.2,2.9C82.1,105.7,80.6,104.8,80,102.9z M86.8,102.4
				c0.1-0.5,0.3-1.2,0.3-3s-0.1-2.6-0.3-3c-0.4-1.2-1.2-1.8-2.6-1.8s-2.2,0.6-2.6,1.8c-0.1,0.5-0.3,1.2-0.3,3s0.1,2.6,0.3,3
				c0.4,1.2,1.2,1.8,2.6,1.8C85.5,104.3,86.4,103.6,86.8,102.4z"/>
			<path class="st2" d="M91.2,93.5c0-0.1,0.1-0.2,0.2-0.2h1.2c0.1,0,0.2,0.1,0.3,0.2l3.7,8.2h0.1l3.6-8.2c0.1-0.1,0.1-0.2,0.3-0.2
				h1.2c0.1,0,0.2,0.1,0.2,0.2v11.9c0,0.1-0.1,0.2-0.2,0.2h-1.1c-0.1,0-0.2-0.1-0.2-0.2v-8.5h-0.1l-3,6.7c-0.1,0.2-0.2,0.2-0.3,0.2
				h-0.7c-0.2,0-0.3-0.1-0.3-0.2l-3-6.7H93v8.5c0,0.1-0.1,0.2-0.2,0.2h-1.1c-0.1,0-0.2-0.1-0.2-0.2V93.5H91.2z"/>
			<path class="st2" d="M104.8,93.5c0-0.1,0.1-0.2,0.2-0.2h7.4c0.1,0,0.2,0.1,0.2,0.2v1.1c0,0.1-0.1,0.2-0.2,0.2h-5.8
				c-0.1,0-0.1,0-0.1,0.1v3.6c0,0.1,0,0.1,0.1,0.1h5c0.1,0,0.2,0.1,0.2,0.2v1.1c0,0.1-0.1,0.2-0.2,0.2h-5c-0.1,0-0.1,0-0.1,0.1v3.7
				c0,0.1,0,0.1,0.1,0.1h5.8c0.1,0,0.2,0.1,0.2,0.2v1.1c0,0.1-0.1,0.2-0.2,0.2H105c-0.1,0-0.2-0.1-0.2-0.2V93.5z"/>
			<path class="st2" d="M127.7,105.5c-0.1,0-0.2-0.1-0.2-0.2l-2.6-9.1l0,0l-2.6,9.1c0,0.1-0.1,0.2-0.2,0.2h-1
				c-0.1,0-0.2-0.1-0.2-0.2l-3-11.9c0-0.1,0-0.2,0.1-0.2h1.2c0.1,0,0.2,0.1,0.2,0.2l2.2,9.1l0,0l2.5-9.1c0-0.1,0.1-0.2,0.2-0.2h0.9
				c0.1,0,0.2,0.1,0.2,0.2l2.6,9.1l0,0l2.1-9.1c0-0.1,0.1-0.2,0.2-0.2h1.2c0.1,0,0.2,0.1,0.1,0.2l-3,11.9c0,0.1-0.1,0.2-0.2,0.2
				H127.7z"/>
			<path class="st2" d="M133.5,102.9c-0.2-0.7-0.3-1.4-0.3-3.5s0.1-2.8,0.3-3.5c0.6-1.9,2.1-2.9,4.2-2.9c2.1,0,3.5,1,4.2,2.9
				c0.2,0.7,0.3,1.4,0.3,3.5s-0.1,2.8-0.3,3.5c-0.6,1.9-2.1,2.9-4.2,2.9C135.6,105.7,134.2,104.8,133.5,102.9z M140.3,102.4
				c0.1-0.5,0.3-1.2,0.3-3s-0.1-2.6-0.3-3c-0.4-1.2-1.2-1.8-2.6-1.8c-1.4,0-2.2,0.6-2.6,1.8c-0.1,0.5-0.3,1.2-0.3,3s0.1,2.6,0.3,3
				c0.4,1.2,1.2,1.8,2.6,1.8C139.1,104.3,139.9,103.6,140.3,102.4z"/>
			<path class="st2" d="M151.9,105.5c-0.1,0-0.2-0.1-0.2-0.2l-2.4-5h-2.7c-0.1,0-0.1,0-0.1,0.1v4.9c0,0.1-0.1,0.2-0.2,0.2H145
				c-0.1,0-0.2-0.1-0.2-0.2V93.5c0-0.1,0.1-0.2,0.2-0.2h4.4c2.3,0,3.8,1.4,3.8,3.5c0,1.7-0.9,2.9-2.4,3.3l2.6,5.2
				c0.1,0.1,0,0.2-0.1,0.2H151.9z M151.6,96.8c0-1.3-0.8-2-2.3-2h-2.9c-0.1,0-0.1,0-0.1,0.1v3.9c0,0.1,0,0.1,0.1,0.1h2.9
				C150.8,98.9,151.6,98.1,151.6,96.8z"/>
			<path class="st2" d="M155.9,93.5c0-0.1,0.1-0.2,0.2-0.2h1.2c0.1,0,0.2,0.1,0.2,0.2v6.4l5.2-6.4c0.1-0.1,0.2-0.2,0.3-0.2h1.5
				c0.1,0,0.2,0.1,0.1,0.2l-3.8,4.6l4.2,7.2c0.1,0.1,0,0.2-0.1,0.2h-1.4c-0.1,0-0.2,0-0.3-0.2l-3.4-6l-2.2,2.6v3.4
				c0,0.1-0.1,0.2-0.2,0.2h-1.2c-0.1,0-0.2-0.1-0.2-0.2V93.5H155.9z"/>
			<path class="st2" d="M166.3,104.2c-0.1-0.1-0.1-0.2,0-0.3l0.8-0.9c0.1-0.1,0.2-0.1,0.3,0c0.8,0.6,2,1.3,3.4,1.3
				c1.7,0,2.7-0.8,2.7-2.1c0-1-0.6-1.7-2.6-2l-0.6-0.1c-2.4-0.3-3.6-1.5-3.6-3.4c0-2.2,1.6-3.6,4-3.6c1.4,0,2.8,0.5,3.7,1.1
				c0.1,0.1,0.1,0.2,0,0.3l-0.6,1c-0.1,0.1-0.2,0.1-0.3,0c-1-0.6-1.9-0.9-3-0.9c-1.5,0-2.3,0.8-2.3,2c0,1,0.7,1.7,2.6,2l0.6,0.1
				c2.4,0.3,3.6,1.4,3.6,3.4c0,2.1-1.5,3.7-4.5,3.7C168.8,105.7,167.2,105,166.3,104.2z"/>
		</g>
	</g>
	<rect x="5.7" y="65.1" class="st3" width="239.6" height="53.5"/>
	<line class="st3" x1="195.1" y1="65.1" x2="195.1" y2="118.6"/>
	<g>
		<polygon class="st2" points="213.6,99.7 213.2,99.4 226.1,77.7 226.6,77.9 		"/>
		<polygon class="st2" points="215.8,100.7 215.4,100.5 228.3,78.7 228.7,79 		"/>
		<path class="st2" d="M217.9,102.7c0.1,0,0.1-0.1,0.2-0.2l12.7-22c0.1-0.1,0.1-0.3,0-0.4c0-0.1-0.1-0.2-0.2-0.3l-6.4-3.7
			c-0.2-0.1-0.5-0.1-0.7,0.2l-12.7,22c0,0.1-0.1,0.1-0.1,0.2l0,0l-0.4,8c0,0.2,0.1,0.4,0.2,0.5c0.1,0,0.2,0.1,0.3,0.1h19.5v-1h-17.8
			L217.9,102.7L217.9,102.7z M224.2,77.3l5.5,3.2l-12.2,21.2l-2.8-1.6l-2.8-1.6L224.2,77.3z M211.4,105.7l0.3-6.3l5,2.9L211.4,105.7
			z"/>
	</g>
</g>
</svg>
