<?xml version="1.0" encoding="utf-8"?>
<!-- Generator: Adobe Illustrator 19.2.1, SVG Export Plug-In . SVG Version: 6.00 Build 0)  -->
<svg version="1.1" id="Layer_1" xmlns="http://www.w3.org/2000/svg" xmlns:xlink="http://www.w3.org/1999/xlink" x="0px" y="0px"
	 viewBox="0 0 110 95" style="enable-background:new 0 0 110 95;" xml:space="preserve">
<style type="text/css">
	.st0{fill:none;stroke:#231F20;stroke-miterlimit:10;}
	.st1{fill:#45B97C;}
	.st2{fill:#F7941D;}
	.st3{fill:#231F20;}
</style>
<g>
	<path class="st0" d="M55.6,21.1c-0.5-7.3-6.6-12.9-14-12.9s-13.4,5.7-14,12.9"/>
	<g>
		<circle class="st1" cx="56" cy="26.7" r="2"/>
		<circle class="st1" cx="27.3" cy="26.7" r="2"/>
	</g>
	<path class="st1" d="M26,57.1h43.4l-2.4-35H17.2L13,82.4h13V57.1z M56,24c1.5,0,2.7,1.2,2.7,2.7s-1.2,2.7-2.7,2.7s-2.7-1.2-2.7-2.7
		S54.5,24,56,24z M27.3,24c1.5,0,2.7,1.2,2.7,2.7s-1.2,2.7-2.7,2.7s-2.7-1.2-2.7-2.7C24.6,25.2,25.8,24,27.3,24z"/>
	<rect x="27.4" y="58.5" class="st2" width="48.8" height="24.9"/>
	<rect x="48.8" y="58.5" class="st1" width="13.5" height="24.9"/>
	<polyline class="st0" points="79.2,84.8 31.2,84.8 31.2,59.9 77.4,59.9 	"/>
	<line class="st0" x1="57.5" y1="67.3" x2="79.9" y2="67.3"/>
	<line class="st0" x1="31.2" y1="67.3" x2="53.6" y2="67.3"/>
	<rect x="53.6" y="65.4" class="st0" width="4" height="5.6"/>
	<path class="st0" d="M77.4,57.3v26.1c4.3,4.5,14.9,4.7,19.6,0V57.3l-6-22.4V16.7h-3.7h-3.7v18.2L77.4,57.3z"/>
	<path class="st1" d="M75.2,60.4c0,0,8.8,5,19.6,0v17.7c0,0-9.2,5.3-19.6,0C75.2,78.3,75.2,60.4,75.2,60.4z"/>
	<g>
		<ellipse class="st3" cx="87.2" cy="16.3" rx="4.6" ry="1.4"/>
	</g>
	<path class="st0" d="M77.4,61.5c0,0,8.8,5,19.6,0v17.7c0,0-9.2,5.3-19.6,0C77.4,79.3,77.4,61.5,77.4,61.5z"/>
	<path class="st0" d="M83.5,21.1c0,0,4,1.9,7.5,0"/>
</g>
</svg>
