<?xml version="1.0" encoding="utf-8"?>
<!-- Generator: Adobe Illustrator 20.0.0, SVG Export Plug-In . SVG Version: 6.00 Build 0)  -->
<svg version="1.1" id="Layer_1" xmlns="http://www.w3.org/2000/svg" xmlns:xlink="http://www.w3.org/1999/xlink" x="0px" y="0px"
	 viewBox="0 0 228 180" style="enable-background:new 0 0 228 180;" xml:space="preserve">
<style type="text/css">
	.st0{fill:none;stroke:#000000;stroke-width:1.0387;stroke-miterlimit:10;}
	.st1{fill:none;stroke:#000000;stroke-miterlimit:10;}
	.st2{fill:#F58220;}
	.st3{fill:none;stroke:#F58220;stroke-miterlimit:10;}
	.st4{fill:none;stroke:#000000;stroke-width:0.3639;stroke-miterlimit:10;}
	.st5{fill:#FFFFFF;}
	.st6{fill:#ECF8FE;}
	.st7{fill:#27BDBE;}
	.st8{fill:#FFE06A;}
	.st9{fill:#D9D9D9;}
	.st10{fill:#999999;}
	.st11{fill:#BFBFBF;}
	.st12{fill:#FFFFFF;stroke:#000000;stroke-width:1.5873;stroke-miterlimit:10;}
	.st13{fill:none;stroke:#000000;stroke-width:1.5873;stroke-linecap:round;stroke-linejoin:round;stroke-miterlimit:10;}
	.st14{fill:none;stroke:#000000;stroke-width:0.8323;stroke-linecap:round;stroke-linejoin:round;stroke-miterlimit:10;}
	.st15{fill:#CFCDCD;}
	.st16{fill:#C9E9E6;}
	.st17{fill:none;stroke:#000000;stroke-width:0.8889;stroke-miterlimit:10;}
	.st18{fill:none;stroke:#FFFFFF;stroke-miterlimit:10;}
	.st19{fill:none;stroke:#000000;stroke-width:1.5873;stroke-miterlimit:10;}
	.st20{fill:none;stroke:#000000;stroke-width:1.9415;stroke-linecap:round;stroke-linejoin:round;stroke-miterlimit:10;}
	.st21{fill:#EEE809;}
	.st22{fill:#94D9F8;}
	.st23{fill:#211E1F;}
	.st24{fill:#231F20;}
	.st25{fill:#F7941F;}
	.st26{fill:#47B77B;}
	.st27{fill:#221F1F;}
	.st28{fill:#F5EB0E;}
	.st29{fill:#EBE70E;}
	.st30{fill:#4BC3C9;}
	.st31{fill:#DD1D4F;}
	.st32{fill:none;stroke:#231F20;stroke-width:0.9625;stroke-linecap:round;stroke-linejoin:round;stroke-miterlimit:10;}
	.st33{fill:none;stroke:#000000;stroke-width:2;stroke-miterlimit:10;}
	.st34{fill:#E5EFF5;}
</style>
<g>
	<path d="M96.1,42.2V20.5h4.2v21.6c0.5,0,0.9,0,1.4,0v-23h-7v23C95.2,42.2,95.7,42.2,96.1,42.2z"/>
	<g>
		<rect x="39.6" y="24.4" width="55.2" height="1.4"/>
	</g>
	<g>
		<rect x="84.1" y="58.2" width="56.2" height="1.4"/>
	</g>
	<g>
		<rect x="84.1" y="80.5" width="56.2" height="1.4"/>
	</g>
	<g>
		<rect x="39.6" y="47.1" width="18" height="1.4"/>
	</g>
	<g>
		<path d="M50.8,65.2h-5.6c-11.7,0-11.9-11.8-11.9-11.9V19.1h7v34.2c0,0.4,0.1,10.5,10.5,10.5V65.2z M34.7,20.5v32.8
			c0,0.4,0.1,10.1,10,10.5c-5.7-3.1-5.8-10.4-5.8-10.5V20.5H34.7z"/>
	</g>
	<g>
		<rect x="70.3" y="41.5" width="58.7" height="1.4"/>
	</g>
	<g>
		<path d="M85,109.9h-7V53.3c0-10.4-10-10.5-10.5-10.5v-1.4h5.6c0.1,0,11.9,0.1,11.9,11.9V109.9z M79.4,108.5h4.2V53.3
			c0-9.9-9.1-10.4-10.4-10.5c3,1.5,6.2,4.4,6.2,10.5V108.5z"/>
	</g>
	<g>
		<path d="M50.8,65.2v-1.3c-2.8,1.3-5.5,1.3-5.6,1.3v-1.4c0.4,0,10.5-0.1,10.5-10.5c0-11.7,11.8-11.9,11.9-11.9h5.6v1.4
			c-0.4,0-10.5,0.1-10.5,10.5C62.6,65.1,50.9,65.2,50.8,65.2z M67.4,42.9c-1.2,0-10.4,0.6-10.4,10.5c0,6-3.1,9-6.2,10.5
			c1.2,0,10.4-0.6,10.4-10.5C61.2,47.3,64.4,44.3,67.4,42.9z"/>
	</g>
	<g>
		<rect x="112.9" y="108.8" class="st19" width="80.1" height="52.1"/>
	</g>
	<polygon class="st19" points="148.9,139.8 148.9,129.9 157.7,134.7 	"/>
	<path d="M139.4,53.3l0,35l1.4-0.2V53.3c0-0.1-0.1-7.3-5.8-10.5c9.8,0.3,10,10,10,10.5v34.1l1.4-0.2V53.3c0-0.1-0.1-11.9-11.9-11.9
		H129v1.4C139.3,42.9,139.4,52.9,139.4,53.3z"/>
	<g>
		<g>
			<rect x="118.5" y="94.2" transform="matrix(0.5929 -0.8053 0.8053 0.5929 -25.7161 138.549)" width="11.2" height="1"/>
		</g>
		<g>
			<rect x="126.4" y="93" transform="matrix(0.5933 -0.805 0.805 0.5933 -21.5672 144.3333)" width="11.2" height="1"/>
		</g>
		<g>
			<rect x="134.4" y="91.8" transform="matrix(0.5925 -0.8056 0.8056 0.5925 -17.2754 150.4404)" width="11.2" height="1"/>
		</g>
		<g>
			<rect x="142.3" y="90.6" transform="matrix(0.5907 -0.8069 0.8069 0.5907 -12.9505 156.6618)" width="11.2" height="1"/>
		</g>
		<g>
			<rect x="150.3" y="89.4" transform="matrix(0.5934 -0.8049 0.8049 0.5934 -8.9616 162.0337)" width="11.2" height="1"/>
		</g>
		<g>
			<polygon points="160.9,93.5 160,92.9 166.7,83.9 167.5,84.5 			"/>
		</g>
		<g>
			<rect x="166.1" y="87" transform="matrix(0.5933 -0.805 0.805 0.5933 -0.5712 173.8304)" width="11.2" height="1"/>
		</g>
		<g>
			<rect x="174" y="85.8" transform="matrix(0.5928 -0.8054 0.8054 0.5928 3.6607 179.8028)" width="11.2" height="1"/>
		</g>
		<g>
			<rect x="182" y="84.6" transform="matrix(0.5936 -0.8047 0.8047 0.5936 7.7641 185.5208)" width="11.2" height="1"/>
		</g>
		<g>
			<rect x="110.7" y="95.4" transform="matrix(0.5904 -0.8071 0.8071 0.5904 -29.7962 133.1359)" width="11.1" height="1"/>
		</g>
	</g>
	<polygon class="st13" points="111.7,92.5 112.6,100.1 192.1,88.4 190.5,80.2 	"/>
	<polygon points="146.4,95.3 145,95.6 145,100.2 146.4,100.2 	"/>
	<polygon points="140.8,96.2 139.4,96.4 139.4,100.2 140.8,100.2 	"/>
	<polyline class="st13" points="139.4,108.8 112.9,108.8 112.6,100.1 146.4,100.2 	"/>
	<g>
		<g>
			<polygon points="121.3,108.8 120.6,108.1 128.5,100.1 129.2,100.8 			"/>
		</g>
		<g>
			<polygon points="129.3,108.8 128.5,108.1 136.5,100.1 137.2,100.8 			"/>
		</g>
		<g>
			<rect x="135.3" y="104" transform="matrix(0.7072 -0.7071 0.7071 0.7072 -32.583 130.2642)" width="11.2" height="1"/>
		</g>
		<g>
			<polygon points="145.3,108.8 144.6,108.1 152.6,100.1 153.3,100.8 			"/>
		</g>
		<g>
			<polygon points="153.4,108.8 152.7,108.1 160.6,100.1 161.3,100.8 			"/>
		</g>
		<g>
			<rect x="159.3" y="104" transform="matrix(0.7071 -0.7071 0.7071 0.7071 -25.5512 147.2483)" width="11.2" height="1"/>
		</g>
		<g>
			<rect x="167.4" y="104" transform="matrix(0.707 -0.7072 0.7072 0.707 -23.1891 152.9621)" width="11.2" height="1"/>
		</g>
		<g>
			<rect x="175.4" y="104" transform="matrix(0.7053 -0.7089 0.7089 0.7053 -20.7211 159.0879)" width="11.2" height="1"/>
		</g>
		<g>
			<polygon points="185.4,108.8 184.7,108.1 192.7,100.1 193.4,100.8 			"/>
		</g>
		<g>
			<rect x="111.4" y="104" transform="matrix(0.7071 -0.7072 0.7072 0.7071 -39.6368 113.2767)" width="11.1" height="1"/>
		</g>
	</g>
	<rect x="84.1" y="102.9" width="28.6" height="1.4"/>
	<rect x="112.7" y="100.2" class="st20" width="80.3" height="8.6"/>
</g>
</svg>
