<?xml version="1.0" encoding="utf-8"?>
<!-- Generator: Adobe Illustrator 19.2.0, SVG Export Plug-In . SVG Version: 6.00 Build 0)  -->
<svg version="1.1" id="Layer_1" xmlns="http://www.w3.org/2000/svg" xmlns:xlink="http://www.w3.org/1999/xlink" x="0px" y="0px"
	 viewBox="0 0 109 60.4" style="enable-background:new 0 0 109 60.4;" xml:space="preserve">
<style type="text/css">
	.st0{fill:#F7941E;}
	.st1{fill:#EEE80A;}
	.st2{opacity:0.15;clip-path:url(#SVGID_2_);fill:#FFFFFF;}
	.st3{fill:#CFCDCD;}
	.st4{fill:#C9E9E6;}
	.st5{fill:#FFFFFF;}
	.st6{fill:none;stroke:#FFFFFF;stroke-width:2.1359;stroke-miterlimit:10;}
	.st7{fill:#FFE06A;}
	.st8{fill:none;stroke:#FFFFFF;stroke-width:2.1363;stroke-miterlimit:10;}
	.st9{fill:none;stroke:#FFFFFF;stroke-width:1.8723;stroke-miterlimit:10;}
	.st10{fill:none;stroke:#FFFFFF;stroke-width:2.8084;stroke-linecap:round;stroke-linejoin:round;stroke-miterlimit:10;}
	.st11{opacity:0.6;}
	.st12{fill:none;stroke:#27BDBE;stroke-width:0.5;stroke-miterlimit:10;stroke-dasharray:3.4394,2.2929;}
	.st13{fill:none;stroke:#27BDBE;stroke-width:0.5;stroke-miterlimit:10;stroke-dasharray:3,2;}
	.st14{fill:#27BDBE;}
	.st15{fill:none;stroke:#27BDBE;stroke-width:0.5;stroke-miterlimit:10;}
	.st16{fill:#676464;}
	.st17{fill:none;stroke:#676464;stroke-width:0.5;stroke-miterlimit:10;}
	.st18{fill:none;stroke:#676464;stroke-width:0.5;stroke-miterlimit:10;stroke-dasharray:2.9859,1.9906;}
	.st19{fill:none;stroke:#676464;stroke-width:0.5;stroke-miterlimit:10;stroke-dasharray:3.0956,2.0638;}
	.st20{fill:none;stroke:#676464;stroke-width:0.5;stroke-miterlimit:10;stroke-dasharray:2.9416,1.9611;}
	.st21{fill:none;stroke:#676464;stroke-width:0.5;stroke-miterlimit:10;stroke-dasharray:2.9858,1.9905;}
	.st22{fill:none;stroke:#676464;stroke-width:0.5;stroke-miterlimit:10;stroke-dasharray:3.0959,2.0639;}
	.st23{fill:none;stroke:#676464;stroke-width:0.5;stroke-miterlimit:10;stroke-dasharray:2.9417,1.9611;}
	.st24{fill:#848383;}
	.st25{fill:#231F20;}
	.st26{fill:none;stroke:#231F20;stroke-width:0.4903;stroke-miterlimit:10;}
	.st27{fill:none;stroke:#231F20;stroke-width:0.2888;stroke-miterlimit:10;}
	.st28{fill:none;stroke:#231F20;stroke-width:0.5777;stroke-miterlimit:10;}
	.st29{fill:#2A2626;}
	.st30{fill:none;stroke:#231F20;stroke-width:0.75;stroke-miterlimit:10;}
	.st31{fill:none;stroke:#231F20;stroke-width:0.25;stroke-miterlimit:10;}
	.st32{fill:none;stroke:#231F20;stroke-width:8.000000e-02;stroke-miterlimit:10;}
	.st33{fill:#939598;}
	.st34{fill:none;stroke:#C7C8CA;stroke-width:0.1;stroke-miterlimit:10;}
	.st35{fill:none;stroke:#C7C8CA;stroke-width:0.25;stroke-miterlimit:10;}
	.st36{fill:none;stroke:#231F20;stroke-width:1.5;stroke-miterlimit:10;}
	.st37{clip-path:url(#SVGID_4_);}
	.st38{fill:#BCBEC0;}
	.st39{fill:#E6E7E8;}
	.st40{fill:#6D6E71;}
	.st41{fill:none;stroke:#E9E9EA;stroke-width:0.7908;stroke-miterlimit:10;}
	.st42{fill:none;stroke:#000000;stroke-width:0.25;stroke-linecap:round;stroke-linejoin:round;stroke-miterlimit:10;}
	.st43{fill:none;stroke:#BCBEC0;stroke-width:0.25;stroke-linecap:round;stroke-linejoin:round;stroke-miterlimit:10;}
	.st44{fill:none;stroke:#BCBEC0;stroke-width:0.15;stroke-miterlimit:10;}
	.st45{opacity:0.8;fill:#F7941E;}
	.st46{fill:none;stroke:#FFFFFF;stroke-width:1.7808;stroke-linecap:round;stroke-linejoin:round;stroke-miterlimit:10;}
	.st47{fill:none;stroke:#FFFFFF;stroke-width:1.1872;stroke-linecap:round;stroke-linejoin:round;stroke-miterlimit:10;}
	.st48{fill:none;stroke:#FFFFFF;stroke-width:0.5;stroke-linecap:round;stroke-linejoin:round;stroke-miterlimit:10;}
	.st49{fill:none;stroke:#A9A6A6;stroke-width:0.15;stroke-miterlimit:10;}
	.st50{fill:none;stroke:#A9A6A6;stroke-width:0.15;stroke-miterlimit:10;stroke-dasharray:2,0.9952;}
	.st51{fill:none;stroke:#848383;stroke-width:0.5;stroke-miterlimit:10;}
	.st52{fill:none;stroke:#848383;stroke-width:0.15;stroke-miterlimit:10;}
	.st53{fill:none;stroke:#000000;stroke-width:3;stroke-linecap:round;stroke-linejoin:round;stroke-miterlimit:10;}
	.st54{fill:none;stroke:#000000;stroke-width:2;stroke-linecap:round;stroke-linejoin:round;stroke-miterlimit:10;}
	.st55{fill:none;stroke:#A9A6A6;stroke-width:0.5;stroke-miterlimit:10;}
	.st56{fill:#45B97C;}
	.st57{fill:#F15D5E;}
	.st58{opacity:0.5;}
	.st59{fill:none;stroke:#E6E7E8;stroke-width:0.15;stroke-miterlimit:10;}
	.st60{fill:#686565;}
	.st61{fill:#F89521;}
	.st62{fill:none;}
	.st63{fill:#25BDBD;}
	.st64{fill:#F69321;}
	.st65{fill:none;stroke:#25BDBD;stroke-miterlimit:10;}
	.st66{fill:none;stroke:#F89521;stroke-miterlimit:10;}
	.st67{fill:none;stroke:#000000;stroke-miterlimit:10;}
	.st68{opacity:0.15;clip-path:url(#SVGID_14_);fill:#FFFFFF;}
	.st69{opacity:0.15;clip-path:url(#SVGID_16_);fill:#FFFFFF;}
	.st70{opacity:0.15;clip-path:url(#SVGID_18_);fill:#FFFFFF;}
	.st71{fill:none;stroke:#FFFFFF;stroke-miterlimit:10;}
	.st72{fill-rule:evenodd;clip-rule:evenodd;}
	.st73{fill-rule:evenodd;clip-rule:evenodd;fill:#F7941E;}
	.st74{fill:none;stroke:#FFFFFF;stroke-width:2.5235;stroke-linecap:round;stroke-linejoin:round;stroke-miterlimit:10;}
	.st75{fill:none;stroke:#FFFFFF;stroke-width:1.442;stroke-linecap:round;stroke-linejoin:round;stroke-miterlimit:10;}
	.st76{fill:none;stroke:#F7941E;stroke-miterlimit:10;}
	.st77{fill:none;stroke:#FFFFFF;stroke-width:0.5;stroke-miterlimit:10;}
	.st78{fill:none;stroke:#F7941E;stroke-width:0.5;stroke-miterlimit:10;}
	.st79{opacity:0.9;fill:#0072BC;}
	.st80{opacity:0.7;fill:#00ACDC;}
	.st81{fill:#F58220;}
	.st82{fill:none;stroke:#F58220;stroke-width:0.7731;stroke-linecap:round;stroke-linejoin:round;stroke-miterlimit:10;}
	.st83{fill:none;stroke:#FFFFFF;stroke-width:0.7731;stroke-linecap:round;stroke-linejoin:round;stroke-miterlimit:10;}
</style>
<g>
	<path class="st79" d="M3.6,9.3V51H29V37.7h-4.7v-5.5H29v-4c0-4.7,2.9-7.2,7-7.2c2,0,3.7,0.1,4.2,0.2V26l-2.9,0
		c-2.3,0-2.7,1.1-2.7,2.7v3.5h5.4l-0.7,5.5h-4.7V51h10.6V9.3H3.6z"/>
	<path class="st80" d="M63.7,9.3V51h41.7V9.3H63.7z M95.1,24.9c0,0.2,0,0.5,0,0.7c-0.1,7.1-5.6,15.3-15.5,15.3
		c-3.1,0-5.9-0.9-8.3-2.5c0.4,0.1,0.9,0.1,1.3,0.1c2.5,0,4.9-0.8,6.7-2.3c-2.4-0.1-4.3-1.6-5-3.8c0.3,0.1,0.7,0.1,1,0.1
		c0.5,0,1-0.1,1.4-0.2c-2.5-0.5-4.3-2.7-4.3-5.3l0-0.1c0.7,0.4,1.6,0.7,2.4,0.7c-1.4-1-2.4-2.6-2.4-4.5c0-1,0.3-1.9,0.8-2.7
		c2.6,3.3,6.6,5.5,11.1,5.7c-0.1-0.4-0.1-0.8-0.1-1.2c0-3,2.5-5.4,5.4-5.4c1.6,0,3,0.7,3.9,1.7c1.2-0.2,2.4-0.7,3.4-1.3
		c-0.4,1.3-1.3,2.3-2.4,3c1.1-0.1,2.1-0.4,3.1-0.8C97.1,23.2,96.2,24.2,95.1,24.9z"/>
</g>
</svg>
