<?xml version="1.0" encoding="utf-8"?>
<!-- Generator: Adobe Illustrator 20.0.0, SVG Export Plug-In . SVG Version: 6.00 Build 0)  -->
<svg version="1.1" id="Layer_1" xmlns="http://www.w3.org/2000/svg" xmlns:xlink="http://www.w3.org/1999/xlink" x="0px" y="0px"
	 viewBox="0 0 228 180" style="enable-background:new 0 0 228 180;" xml:space="preserve">
<style type="text/css">
	.st0{fill:none;stroke:#000000;stroke-width:1.0387;stroke-miterlimit:10;}
	.st1{fill:none;stroke:#000000;stroke-miterlimit:10;}
	.st2{fill:#F58220;}
	.st3{fill:none;stroke:#F58220;stroke-miterlimit:10;}
	.st4{fill:none;stroke:#000000;stroke-width:0.3639;stroke-miterlimit:10;}
	.st5{fill:#FFFFFF;}
	.st6{fill:#ECF8FE;}
	.st7{fill:#27BDBE;}
	.st8{fill:#FFE06A;}
	.st9{fill:#D9D9D9;}
	.st10{fill:#999999;}
	.st11{fill:#BFBFBF;}
	.st12{fill:#FFFFFF;stroke:#000000;stroke-width:1.5873;stroke-miterlimit:10;}
	.st13{fill:none;stroke:#000000;stroke-width:1.5873;stroke-linecap:round;stroke-linejoin:round;stroke-miterlimit:10;}
	.st14{fill:none;stroke:#000000;stroke-width:0.8323;stroke-linecap:round;stroke-linejoin:round;stroke-miterlimit:10;}
	.st15{fill:#CFCDCD;}
	.st16{fill:#C9E9E6;}
	.st17{fill:none;stroke:#000000;stroke-width:0.8889;stroke-miterlimit:10;}
	.st18{fill:none;stroke:#FFFFFF;stroke-miterlimit:10;}
	.st19{fill:none;stroke:#000000;stroke-width:1.5873;stroke-miterlimit:10;}
	.st20{fill:none;stroke:#000000;stroke-width:1.9415;stroke-linecap:round;stroke-linejoin:round;stroke-miterlimit:10;}
	.st21{fill:#EEE809;}
	.st22{fill:#94D9F8;}
	.st23{fill:#211E1F;}
	.st24{fill:#231F20;}
	.st25{fill:#F7941F;}
	.st26{fill:#47B77B;}
	.st27{fill:#221F1F;}
	.st28{fill:#F5EB0E;}
	.st29{fill:#EBE70E;}
	.st30{fill:#4BC3C9;}
	.st31{fill:#DD1D4F;}
	.st32{fill:none;stroke:#231F20;stroke-width:0.9625;stroke-linecap:round;stroke-linejoin:round;stroke-miterlimit:10;}
	.st33{fill:none;stroke:#000000;stroke-width:2;stroke-miterlimit:10;}
	.st34{fill:#E5EFF5;}
</style>
<rect x="28.8" y="44.2" class="st27" width="120.6" height="2"/>
<rect x="63.4" y="26.7" class="st27" width="2" height="18.5"/>
<rect x="71.6" y="34.4" class="st27" width="70.9" height="2.1"/>
<rect x="40.1" y="88.1" class="st27" width="67" height="2.1"/>
<rect x="40.1" y="97.3" class="st27" width="67" height="2.1"/>
<rect x="40.1" y="106.2" class="st27" width="67" height="2.1"/>
<rect x="40.1" y="115" class="st27" width="67" height="2.1"/>
<rect x="71.6" y="55.4" class="st33" width="66.8" height="26.3"/>
<rect x="40" y="55.4" class="st33" width="25" height="26.3"/>
<rect x="35.2" y="34.4" class="st27" width="4.9" height="2.1"/>
<rect x="44.3" y="34.4" class="st27" width="4.9" height="2.1"/>
<rect x="52.9" y="34.4" class="st27" width="4.9" height="2.1"/>
<rect x="94.8" y="68.2" class="st27" width="4.9" height="2.1"/>
<rect x="103.9" y="68.2" class="st27" width="4.9" height="2.1"/>
<rect x="112.5" y="68.2" class="st27" width="4.9" height="2.1"/>
<path class="st27" d="M148.4,59c0.5-0.2,1-0.4,1.6-0.4h0.5v-33H27.7v104.2h2.1V27.7h118.5V59z"/>
<rect x="172.5" y="63.3" width="10.2" height="1.1"/>
<path class="st27" d="M177.6,145.8c-2.2,0-4-1.8-4-4c0-2.2,1.8-4,4-4c2.2,0,4,1.8,4,4C181.6,144,179.8,145.8,177.6,145.8z
	 M177.6,138.8c-1.6,0-3,1.3-3,3c0,1.6,1.3,3,3,3c1.6,0,3-1.3,3-3C180.5,140.1,179.2,138.8,177.6,138.8z"/>
<rect id="XMLID_13_" x="164" y="86.9" width="27.2" height="3.9"/>
<rect id="XMLID_12_" x="170.1" y="105.3" width="14.9" height="3.9"/>
<rect x="166.8" y="94.3" width="21.6" height="2.1"/>
<rect x="166.8" y="99.4" width="21.6" height="2.1"/>
<path class="st27" d="M155.4,154.4h-27.6c-2.1,0-3.9-1.7-3.9-3.9V96.4c0-2.1,1.7-3.9,3.9-3.9h27.6c2.1,0,3.9,1.7,3.9,3.9v54.1
	C159.2,152.6,157.5,154.4,155.4,154.4z M127.7,94.6c-1,0-1.8,0.8-1.8,1.8v54.1c0,1,0.8,1.8,1.8,1.8h27.6c1,0,1.8-0.8,1.8-1.8V96.4
	c0-1-0.8-1.8-1.8-1.8H127.7z"/>
<rect x="137.8" y="98.6" class="st27" width="7.5" height="1.1"/>
<rect x="139.7" y="96.7" class="st27" width="3.7" height="1.1"/>
<path class="st27" d="M141.6,151.1c-1.5,0-2.7-1.2-2.7-2.7c0-1.5,1.2-2.7,2.7-2.7c1.5,0,2.7,1.2,2.7,2.7
	C144.3,149.9,143.1,151.1,141.6,151.1z M141.6,146.7c-0.9,0-1.7,0.8-1.7,1.7c0,0.9,0.8,1.7,1.7,1.7c0.9,0,1.7-0.8,1.7-1.7
	C143.2,147.4,142.5,146.7,141.6,146.7z"/>
<path class="st27" d="M155.5,144.5h-27.9v-42.4h27.9V144.5z M128.6,143.4h25.8v-40.3h-25.8L128.6,143.4z"/>
<rect id="XMLID_10_" x="134.5" y="116.5" width="14.7" height="2.1"/>
<rect id="XMLID_9_" x="137.8" y="126.5" width="8.1" height="2.1"/>
<rect x="136" y="120.5" class="st27" width="11.7" height="1.1"/>
<rect x="136" y="123.3" class="st27" width="11.7" height="1.1"/>
<polygon points="150.3,66.7 150.3,92.5 151.3,92.5 151.3,67.7 203.8,67.7 203.8,135.3 159.2,135.3 159.2,136.4 204.8,136.4 
	204.8,66.7 "/>
<path d="M206.1,57.6H149c-2.1,0-3.9,1.7-3.9,3.9v31.1h2.1V61.5c0-1,0.8-1.8,1.8-1.8h57.1c1,0,1.8,0.8,1.8,1.8v83.9
	c0,1-0.8,1.8-1.8,1.8h-46.9v2.1h46.9c2.1,0,3.9-1.7,3.9-3.9V61.5C210,59.3,208.3,57.6,206.1,57.6z"/>
<polyline class="st33" points="138.5,92.5 138.5,86.9 111.5,86.9 111.5,118.4 123.9,118.4 "/>
<g>
	<rect x="18" y="128.8" class="st27" width="105.8" height="2.1"/>
</g>
</svg>
