<?xml version="1.0" encoding="utf-8"?>
<!-- Generator: Adobe Illustrator 20.0.0, SVG Export Plug-In . SVG Version: 6.00 Build 0)  -->
<svg version="1.1" id="Layer_1" xmlns="http://www.w3.org/2000/svg" xmlns:xlink="http://www.w3.org/1999/xlink" x="0px" y="0px"
	 viewBox="0 0 30 62" style="enable-background:new 0 0 30 62;" xml:space="preserve">
<style type="text/css">
	.st0{fill:#F58220;}
	.st1{fill:none;stroke:#F58220;stroke-width:0.7731;stroke-linecap:round;stroke-linejoin:round;stroke-miterlimit:10;}
	.st2{fill:#FFFFFF;}
	.st3{fill:none;stroke:#FFFFFF;stroke-width:0.7731;stroke-linecap:round;stroke-linejoin:round;stroke-miterlimit:10;}
</style>
<g>
	<g>
		<g>
			<g>
				<g>
					<g>
						<g>
							<path class="st0" d="M14.6,39.2c0.2,0.1,0.3,0.2,0.5,0.4s0.4,0.4,0.5,0.7c0.2,0.3,0.3,0.6,0.5,0.9c0.1,0.4,0.2,0.8,0.2,1.3
								c0,0.9-0.2,1.6-0.6,2.1c-0.2,0.3-0.4,0.5-0.6,0.7c-0.2,0.2-0.5,0.4-0.7,0.7c-0.1,0.2-0.3,0.3-0.4,0.5
								c-0.1,0.2-0.2,0.4-0.2,0.7s0.1,0.5,0.2,0.6c0.1,0.2,0.3,0.3,0.4,0.4l0.8,0.7c0.5,0.4,1,0.9,1.4,1.4s0.6,1.2,0.6,2
								c0,1.2-0.5,2.3-1.6,3.2c-1.1,1-2.7,1.4-4.7,1.5c-1.7,0-3-0.4-3.9-1.1c-0.9-0.7-1.3-1.5-1.3-2.4c0-0.5,0.1-1,0.4-1.5
								c0.3-0.6,0.8-1.1,1.5-1.5c0.8-0.5,1.6-0.8,2.5-0.9c0.9-0.1,1.6-0.2,2.2-0.2c-0.2-0.2-0.3-0.5-0.5-0.7
								c-0.2-0.3-0.2-0.6-0.2-0.9c0-0.2,0-0.4,0.1-0.5c0.1-0.2,0.1-0.3,0.2-0.4c-0.3,0-0.5,0-0.8,0c-1.3,0-2.3-0.4-3-1.2
								S7,44.1,7,43.1c0-1.2,0.5-2.3,1.5-3.3c0.7-0.6,1.4-1,2.2-1.1c0.7-0.2,1.4-0.2,2.1-0.2h4.9l-1.5,0.9h-1.6V39.2z M15.6,53.4
								c0-0.6-0.2-1.2-0.6-1.6c-0.4-0.4-1.1-1-2-1.6c-0.2,0-0.3,0-0.6,0c-0.1,0-0.4,0-1,0c-0.5,0.1-1,0.2-1.6,0.3
								c-0.1,0-0.3,0.1-0.5,0.2c-0.2,0.1-0.5,0.3-0.7,0.4c-0.2,0.2-0.4,0.4-0.6,0.7c-0.2,0.3-0.3,0.7-0.3,1.1c0,0.9,0.4,1.6,1.2,2.1
								c0.8,0.7,1.8,1,3.1,1c1.2,0,2-0.3,2.7-0.8C15.3,54.8,15.6,54.1,15.6,53.4z M12.1,46.1c0.6,0,1.2-0.3,1.6-0.7
								c0.2-0.3,0.3-0.6,0.4-1c0-0.3,0.1-0.6,0.1-0.8c0-1-0.2-2-0.7-2.9c-0.2-0.5-0.5-0.9-0.9-1.2s-0.8-0.4-1.3-0.4
								c-0.7,0-1.2,0.3-1.7,0.8C9.2,40.5,9,41.1,9,41.7c0,0.9,0.3,1.8,0.8,2.8c0.3,0.4,0.6,0.8,1,1.1C11.2,46,11.6,46.1,12.1,46.1z"
								/>
						</g>
					</g>
					<g>
						<polygon class="st0" points="24.3,41 21.7,41 21.7,38.4 20.5,38.4 20.5,41 17.9,41 17.9,42.2 20.5,42.2 20.5,44.8 21.7,44.8 
							21.7,42.2 24.3,42.2 						"/>
					</g>
				</g>
			</g>
			<polyline class="st1" points="26,41.7 28.3,41.7 28.3,33.2 1.7,33.2 1.7,60 28.3,60 28.3,51.5 			"/>
		</g>
	</g>
	<g>
		<g>
			<g>
				<g>
					<g>
						<g>
							<path class="st2" d="M14.6,8c0.2,0.1,0.3,0.2,0.5,0.4s0.4,0.4,0.5,0.7c0.2,0.3,0.3,0.6,0.5,0.9c0.1,0.4,0.2,0.8,0.2,1.3
								c0,0.9-0.2,1.6-0.6,2.1c-0.2,0.3-0.4,0.5-0.6,0.7c-0.2,0.2-0.5,0.4-0.7,0.7c-0.1,0.2-0.3,0.3-0.4,0.5
								c-0.1,0.2-0.2,0.4-0.2,0.7c0,0.3,0.1,0.5,0.2,0.6c0.1,0.2,0.3,0.3,0.4,0.4l0.8,0.7c0.5,0.4,1,0.9,1.4,1.4s0.6,1.2,0.6,2
								c0,1.2-0.5,2.3-1.6,3.2c-1.1,1-2.7,1.4-4.7,1.5c-1.7,0-3-0.4-3.9-1.1s-1.3-1.5-1.3-2.4c0-0.5,0.1-1,0.4-1.5
								c0.3-0.6,0.8-1.1,1.5-1.5c0.8-0.5,1.6-0.8,2.5-0.9s1.6-0.2,2.2-0.2c-0.2-0.2-0.3-0.5-0.5-0.7c-0.2-0.3-0.2-0.6-0.2-0.9
								c0-0.2,0-0.4,0.1-0.5c0.1-0.2,0.1-0.3,0.2-0.4c-0.3,0-0.5,0-0.8,0c-1.3,0-2.3-0.4-3-1.2S7,12.9,7,11.9c0-1.2,0.5-2.3,1.5-3.3
								c0.7-0.6,1.4-1,2.2-1.1c0.7-0.2,1.4-0.2,2.1-0.2h4.9L16.1,8H14.6z M15.6,22.2c0-0.6-0.2-1.2-0.6-1.6c-0.4-0.4-1.1-1-2-1.6
								c-0.2,0-0.3,0-0.6,0c-0.1,0-0.4,0-1,0c-0.5,0.1-1,0.2-1.6,0.3c-0.1,0-0.3,0.1-0.5,0.2s-0.5,0.3-0.7,0.4
								c-0.2,0.2-0.4,0.4-0.6,0.7c-0.2,0.3-0.3,0.7-0.3,1.1c0,0.9,0.4,1.6,1.2,2.1c0.7,0.6,1.8,0.8,3.1,0.9c1.2,0,2-0.3,2.7-0.8
								C15.3,23.6,15.6,22.9,15.6,22.2z M12.1,14.9c0.6,0,1.2-0.3,1.6-0.7c0.2-0.3,0.3-0.6,0.4-1c0-0.3,0.1-0.6,0.1-0.8
								c0-1-0.2-2-0.7-2.9C13.3,9,13,8.6,12.6,8.3c-0.4-0.3-0.8-0.4-1.3-0.4c-0.7,0-1.2,0.3-1.7,0.8C9.2,9.3,9,9.9,9,10.5
								c0,0.9,0.3,1.8,0.8,2.8c0.3,0.4,0.6,0.8,1,1.1C11.2,14.8,11.6,14.9,12.1,14.9z"/>
						</g>
					</g>
					<g>
						<polygon class="st2" points="24.3,9.8 21.7,9.8 21.7,7.2 20.5,7.2 20.5,9.8 17.9,9.8 17.9,11 20.5,11 20.5,13.6 21.7,13.6 
							21.7,11 24.3,11 						"/>
					</g>
				</g>
			</g>
			<polyline class="st3" points="26,10.5 28.3,10.5 28.3,2 1.7,2 1.7,28.8 28.3,28.8 28.3,20.3 			"/>
		</g>
	</g>
</g>
</svg>
