<?xml version="1.0" encoding="utf-8"?>
<!-- Generator: Adobe Illustrator 20.0.0, SVG Export Plug-In . SVG Version: 6.00 Build 0)  -->
<svg version="1.1" id="Layer_1" xmlns="http://www.w3.org/2000/svg" xmlns:xlink="http://www.w3.org/1999/xlink" x="0px" y="0px"
	 viewBox="0 0 634.1 670.5" style="enable-background:new 0 0 634.1 670.5;" xml:space="preserve">
<style type="text/css">
	.st0{fill:none;stroke:#000000;stroke-width:1.0387;stroke-miterlimit:10;}
	.st1{fill:none;stroke:#000000;stroke-miterlimit:10;}
	.st2{fill:none;stroke:#000000;stroke-width:0.3639;stroke-miterlimit:10;}
	.st3{fill:#FFFFFF;}
	.st4{fill:#CFCDCD;}
	.st5{fill:#C9E9E6;}
	.st6{fill:#FFFFFF;stroke:#000000;stroke-width:2.3369;stroke-miterlimit:10;}
	.st7{fill:#FFE06A;}
	.st8{fill:none;stroke:#000000;stroke-width:2.3369;stroke-linecap:round;stroke-linejoin:round;stroke-miterlimit:10;}
	.st9{fill:#27BDBE;}
	.st10{fill:none;stroke:#27BDBE;stroke-width:4.6884;stroke-miterlimit:10;}
	.st11{fill:none;stroke:#000000;stroke-width:2.3369;stroke-miterlimit:10;}
	.st12{fill:#ECF8FE;}
	.st13{fill:none;stroke:#000000;stroke-width:2.1058;stroke-miterlimit:10;}
	.st14{fill:none;stroke:#000000;stroke-width:1.9613;stroke-miterlimit:10;}
	.st15{fill:#FFFFFF;stroke:#000000;stroke-width:2.1058;stroke-miterlimit:10;}
	.st16{fill:none;stroke:#000000;stroke-width:1.0529;stroke-miterlimit:10;}
	.st17{fill:#FFFFFF;stroke:#000000;stroke-width:1.5873;stroke-miterlimit:10;}
	.st18{fill:none;stroke:#000000;stroke-width:1.5873;stroke-linecap:round;stroke-linejoin:round;stroke-miterlimit:10;}
	.st19{fill:none;stroke:#000000;stroke-width:0.8323;stroke-linecap:round;stroke-linejoin:round;stroke-miterlimit:10;}
	.st20{fill:#D9D9D9;}
	.st21{fill:#BFBFBF;}
	.st22{fill:#999999;}
	.st23{fill:none;stroke:#000000;stroke-width:0.8889;stroke-miterlimit:10;}
	.st24{fill:none;stroke:#FFFFFF;stroke-miterlimit:10;}
</style>
<g>
	<g>
		<g>
			<path d="M114.2,241.1c-0.1,0-0.1-0.1-0.2-0.2l-3.6-10.5c-0.1-0.1,0-0.2,0.1-0.2h0.6c0.1,0,0.2,0,0.2,0.2l3.2,9.2h0l3.1-9.2
				c0-0.1,0.1-0.2,0.2-0.2h0.6c0.1,0,0.2,0.1,0.1,0.2l-3.6,10.5c0,0.1-0.1,0.2-0.2,0.2H114.2z"/>
			<path d="M121.8,230.4c0-0.1,0.1-0.2,0.2-0.2h0.6c0.1,0,0.2,0.1,0.2,0.2v10.6c0,0.1-0.1,0.2-0.2,0.2h-0.6c-0.1,0-0.2-0.1-0.2-0.2
				V230.4z"/>
			<path d="M126.5,240c-0.1-0.1-0.1-0.2,0-0.2l0.4-0.5c0.1-0.1,0.2-0.1,0.2,0c0.7,0.6,1.9,1.1,3.1,1.1c1.7,0,2.8-0.9,2.8-2.2
				c0-1.1-0.6-1.9-2.6-2.1l-0.5-0.1c-2.1-0.3-3.1-1.3-3.1-2.9c0-1.9,1.3-3.1,3.4-3.1c1.2,0,2.4,0.4,3.1,0.9c0.1,0,0.1,0.1,0,0.2
				l-0.3,0.5c-0.1,0.1-0.1,0.1-0.2,0c-0.9-0.5-1.7-0.8-2.6-0.8c-1.6,0-2.5,0.9-2.5,2.1c0,1.1,0.7,1.8,2.6,2.1l0.5,0.1
				c2.2,0.3,3.2,1.3,3.2,2.9c0,1.8-1.3,3.2-3.8,3.2C128.7,241.3,127.3,240.7,126.5,240z"/>
			<path d="M138.6,237.4c0,2,1,3,2.8,3c1.7,0,2.8-1,2.8-3v-7c0-0.1,0.1-0.2,0.2-0.2h0.6c0.1,0,0.2,0.1,0.2,0.2v7
				c0,2.7-1.4,3.9-3.7,3.9c-2.2,0-3.7-1.3-3.7-3.9v-7c0-0.1,0.1-0.2,0.2-0.2h0.6c0.1,0,0.2,0.1,0.2,0.2V237.4z"/>
			<path d="M151.9,230.4c0-0.1,0.1-0.2,0.2-0.2h0.6c0.1,0,0.2,0.1,0.2,0.2l3.8,10.6c0,0.1,0,0.2-0.1,0.2h-0.6c-0.1,0-0.2,0-0.2-0.2
				l-1-2.7H150l-1,2.7c0,0.1-0.1,0.2-0.2,0.2h-0.6c-0.1,0-0.1-0.1-0.1-0.2L151.9,230.4z M154.4,237.4l-2-5.7h0l-2,5.7H154.4z"/>
			<path d="M159.9,230.4c0-0.1,0.1-0.2,0.2-0.2h0.6c0.1,0,0.2,0.1,0.2,0.2v9.8c0,0.1,0,0.1,0.1,0.1h5.4c0.1,0,0.2,0.1,0.2,0.2v0.5
				c0,0.1-0.1,0.2-0.2,0.2H160c-0.1,0-0.2-0.1-0.2-0.2V230.4z"/>
			<path d="M98.8,252.1c0-0.1,0.1-0.2,0.2-0.2h3.6c2.1,0,3.2,1.1,3.2,2.8c0,1.3-0.7,2.1-1.7,2.4v0c0.8,0.2,1.9,1,1.9,2.6
				c0,1.9-1.2,3-3.3,3h-3.6c-0.1,0-0.2-0.1-0.2-0.2V252.1z M102.5,256.9c1.5,0,2.3-0.8,2.3-2c0-1.2-0.8-2-2.3-2h-2.8
				c-0.1,0-0.1,0-0.1,0.1v3.9c0,0.1,0,0.1,0.1,0.1H102.5z M99.8,262h2.9c1.6,0,2.4-0.8,2.4-2.1c0-1.3-0.8-2.1-2.4-2.1h-2.9
				c-0.1,0-0.1,0-0.1,0.1L99.8,262C99.7,262,99.7,262,99.8,262z"/>
			<path d="M116.1,262.8c-0.1,0-0.1,0-0.2-0.1l-2.3-4.7h-0.2h-2.8c-0.1,0-0.1,0-0.1,0.1v4.6c0,0.1-0.1,0.2-0.2,0.2h-0.6
				c-0.1,0-0.2-0.1-0.2-0.2v-10.6c0-0.1,0.1-0.2,0.2-0.2h3.6c2,0,3.3,1.2,3.3,3c0,1.5-0.8,2.5-2.2,2.9l2.4,4.8
				c0.1,0.1,0,0.2-0.1,0.2H116.1z M115.9,255c0-1.4-0.9-2.1-2.4-2.1h-2.8c-0.1,0-0.1,0-0.1,0.1v4.1c0,0.1,0,0.1,0.1,0.1h2.8
				C115,257.1,115.9,256.3,115.9,255z"/>
			<path d="M123.6,252.1c0-0.1,0.1-0.2,0.2-0.2h0.6c0.1,0,0.2,0.1,0.2,0.2l3.8,10.6c0,0.1,0,0.2-0.1,0.2h-0.6c-0.1,0-0.2,0-0.2-0.2
				l-1-2.7h-4.7l-1,2.7c0,0.1-0.1,0.2-0.2,0.2h-0.6c-0.1,0-0.1-0.1-0.1-0.2L123.6,252.1z M126.1,259.1l-2-5.7h0l-2,5.7H126.1z"/>
			<path d="M131.6,252.1c0-0.1,0.1-0.2,0.2-0.2h0.6c0.1,0,0.2,0,0.3,0.2l5.4,8.9h0v-8.9c0-0.1,0.1-0.2,0.2-0.2h0.6
				c0.1,0,0.2,0.1,0.2,0.2v10.6c0,0.1-0.1,0.2-0.2,0.2h-0.6c-0.1,0-0.2,0-0.3-0.2l-5.4-9h-0.1v9c0,0.1-0.1,0.2-0.2,0.2h-0.6
				c-0.1,0-0.2-0.1-0.2-0.2V252.1z"/>
			<path d="M143.3,252.1c0-0.1,0.1-0.2,0.2-0.2h3.4c1.8,0,3,0.7,3.5,2.2c0.2,0.6,0.3,1.2,0.3,3.2c0,2-0.1,2.6-0.3,3.2
				c-0.5,1.5-1.7,2.2-3.5,2.2h-3.4c-0.1,0-0.2-0.1-0.2-0.2V252.1z M144.3,262h2.4c1.4,0,2.3-0.5,2.7-1.6c0.2-0.5,0.3-1.1,0.3-2.9
				c0-1.8-0.1-2.4-0.3-2.9c-0.4-1.2-1.3-1.6-2.7-1.6h-2.4c-0.1,0-0.1,0-0.1,0.1L144.3,262C144.2,262,144.2,262,144.3,262z"/>
			<path d="M154.5,252.1c0-0.1,0.1-0.2,0.2-0.2h0.6c0.1,0,0.2,0.1,0.2,0.2v10.6c0,0.1-0.1,0.2-0.2,0.2h-0.6c-0.1,0-0.2-0.1-0.2-0.2
				V252.1z"/>
			<path d="M159.7,252.1c0-0.1,0.1-0.2,0.2-0.2h0.6c0.1,0,0.2,0,0.3,0.2l5.4,8.9h0v-8.9c0-0.1,0.1-0.2,0.2-0.2h0.6
				c0.1,0,0.2,0.1,0.2,0.2v10.6c0,0.1-0.1,0.2-0.2,0.2h-0.6c-0.1,0-0.2,0-0.3-0.2l-5.4-9h-0.1v9c0,0.1-0.1,0.2-0.2,0.2h-0.6
				c-0.1,0-0.2-0.1-0.2-0.2V252.1z"/>
			<path d="M170.9,257.4c0-1.9,0.1-2.6,0.3-3.2c0.5-1.6,1.8-2.4,3.6-2.4c1.8,0,2.9,0.9,3.4,2c0,0.1,0,0.2-0.1,0.2l-0.5,0.3
				c-0.1,0-0.2,0-0.2-0.1c-0.5-1-1.3-1.6-2.6-1.6c-1.3,0-2.3,0.6-2.7,1.8c-0.1,0.4-0.3,1.1-0.3,2.9c0,1.8,0.1,2.5,0.3,2.9
				c0.4,1.2,1.3,1.8,2.7,1.8c1.3,0,2.3-0.6,2.7-1.8c0.1-0.4,0.3-1,0.3-2.1c0-0.1,0-0.1-0.1-0.1h-2.5c-0.1,0-0.2-0.1-0.2-0.2v-0.5
				c0-0.1,0.1-0.2,0.2-0.2h3.3c0.1,0,0.2,0.1,0.2,0.2v0.7c0,1.1-0.1,1.9-0.3,2.4c-0.5,1.6-1.8,2.5-3.5,2.5c-1.8,0-3-0.8-3.6-2.4
				C171,260,170.9,259.3,170.9,257.4z"/>
		</g>
	</g>
	<g>
		<path d="M467.7,241.1c-0.1,0-0.2-0.1-0.2-0.2v-9.8c0-0.1,0-0.1-0.1-0.1h-3.1c-0.1,0-0.2-0.1-0.2-0.2v-0.5c0-0.1,0.1-0.2,0.2-0.2
			h7.4c0.1,0,0.2,0.1,0.2,0.2v0.5c0,0.1-0.1,0.2-0.2,0.2h-3.1c-0.1,0-0.1,0-0.1,0.1v9.8c0,0.1-0.1,0.2-0.2,0.2H467.7z"/>
		<path d="M475.3,230.4c0-0.1,0.1-0.2,0.2-0.2h0.6c0.1,0,0.2,0.1,0.2,0.2v4.7c0,0.1,0,0.1,0.1,0.1h5.4c0.1,0,0.1,0,0.1-0.1v-4.7
			c0-0.1,0.1-0.2,0.2-0.2h0.6c0.1,0,0.2,0.1,0.2,0.2v10.6c0,0.1-0.1,0.2-0.2,0.2h-0.6c-0.1,0-0.2-0.1-0.2-0.2v-4.8
			c0-0.1,0-0.1-0.1-0.1h-5.4c-0.1,0-0.1,0-0.1,0.1v4.8c0,0.1-0.1,0.2-0.2,0.2h-0.6c-0.1,0-0.2-0.1-0.2-0.2V230.4z"/>
		<path d="M487.3,230.4c0-0.1,0.1-0.2,0.2-0.2h6.2c0.1,0,0.2,0.1,0.2,0.2v0.5c0,0.1-0.1,0.2-0.2,0.2h-5.4c-0.1,0-0.1,0-0.1,0.1v3.9
			c0,0.1,0,0.1,0.1,0.1h4.6c0.1,0,0.2,0.1,0.2,0.2v0.5c0,0.1-0.1,0.2-0.2,0.2h-4.6c-0.1,0-0.1,0-0.1,0.1v4c0,0.1,0,0.1,0.1,0.1h5.4
			c0.1,0,0.2,0.1,0.2,0.2v0.5c0,0.1-0.1,0.2-0.2,0.2h-6.2c-0.1,0-0.2-0.1-0.2-0.2V230.4z"/>
		<path d="M497.8,230.4c0-0.1,0.1-0.2,0.2-0.2h0.6c0.1,0,0.2,0,0.2,0.2l3.5,7.8h0.1l3.5-7.8c0-0.1,0.1-0.2,0.2-0.2h0.6
			c0.1,0,0.2,0.1,0.2,0.2v10.6c0,0.1-0.1,0.2-0.2,0.2h-0.6c-0.1,0-0.2-0.1-0.2-0.2v-8.5h0l-3.1,6.9c-0.1,0.1-0.1,0.2-0.3,0.2h-0.3
			c-0.1,0-0.2,0-0.3-0.2l-3.1-6.9h0v8.5c0,0.1-0.1,0.2-0.2,0.2H498c-0.1,0-0.2-0.1-0.2-0.2V230.4z"/>
		<path d="M514.3,230.4c0-0.1,0.1-0.2,0.2-0.2h0.6c0.1,0,0.2,0.1,0.2,0.2l3.8,10.6c0,0.1,0,0.2-0.1,0.2h-0.6c-0.1,0-0.2,0-0.2-0.2
			l-1-2.7h-4.7l-1,2.7c0,0.1-0.1,0.2-0.2,0.2h-0.6c-0.1,0-0.1-0.1-0.1-0.2L514.3,230.4z M516.8,237.4l-2-5.7h0l-2,5.7H516.8z"/>
		<path d="M523.8,241.1c-0.1,0-0.2-0.1-0.2-0.2v-9.8c0-0.1,0-0.1-0.1-0.1h-3.1c-0.1,0-0.2-0.1-0.2-0.2v-0.5c0-0.1,0.1-0.2,0.2-0.2
			h7.4c0.1,0,0.2,0.1,0.2,0.2v0.5c0,0.1-0.1,0.2-0.2,0.2h-3.1c-0.1,0-0.1,0-0.1,0.1v9.8c0,0.1-0.1,0.2-0.2,0.2H523.8z"/>
		<path d="M531.4,230.4c0-0.1,0.1-0.2,0.2-0.2h0.6c0.1,0,0.2,0.1,0.2,0.2v10.6c0,0.1-0.1,0.2-0.2,0.2h-0.6c-0.1,0-0.2-0.1-0.2-0.2
			V230.4z"/>
		<path d="M536.5,235.7c0-1.9,0.1-2.6,0.3-3.2c0.5-1.6,1.7-2.4,3.4-2.4c1.5,0,2.7,0.7,3.3,2c0,0.1,0,0.2,0,0.2l-0.5,0.3
			c-0.1,0-0.2,0-0.2-0.1c-0.5-0.9-1.3-1.6-2.5-1.6c-1.3,0-2.1,0.6-2.6,1.8c-0.1,0.4-0.2,1.1-0.2,2.9c0,1.8,0.1,2.5,0.2,2.9
			c0.4,1.2,1.2,1.8,2.6,1.8c1.2,0,2-0.6,2.5-1.6c0-0.1,0.1-0.1,0.2-0.1l0.5,0.3c0.1,0,0.1,0.1,0,0.2c-0.6,1.3-1.8,2-3.3,2
			c-1.7,0-2.9-0.8-3.4-2.4C536.6,238.3,536.5,237.6,536.5,235.7z"/>
		<path d="M432.3,257.4c0-1.9,0.1-2.6,0.3-3.2c0.5-1.6,1.7-2.4,3.4-2.4c1.5,0,2.7,0.7,3.3,2c0,0.1,0,0.2,0,0.2l-0.5,0.3
			c-0.1,0-0.2,0-0.2-0.1c-0.5-0.9-1.3-1.6-2.5-1.6c-1.3,0-2.1,0.6-2.6,1.8c-0.1,0.4-0.2,1.1-0.2,2.9c0,1.8,0.1,2.5,0.2,2.9
			c0.4,1.2,1.2,1.8,2.6,1.8c1.2,0,2-0.6,2.5-1.6c0-0.1,0.1-0.1,0.2-0.1l0.5,0.3c0.1,0,0.1,0.1,0,0.2c-0.6,1.3-1.8,2-3.3,2
			c-1.7,0-2.9-0.8-3.4-2.4C432.4,260,432.3,259.3,432.3,257.4z"/>
		<path d="M446,252.1c0-0.1,0.1-0.2,0.2-0.2h0.6c0.1,0,0.2,0.1,0.2,0.2l3.8,10.6c0,0.1,0,0.2-0.1,0.2H450c-0.1,0-0.2,0-0.2-0.2
			l-1-2.7h-4.7l-1,2.7c0,0.1-0.1,0.2-0.2,0.2h-0.6c-0.1,0-0.1-0.1-0.1-0.2L446,252.1z M448.6,259.1l-2-5.7h0l-2,5.7H448.6z"/>
		<path d="M454.4,252.1c0-0.1,0.1-0.2,0.2-0.2h0.6c0.1,0,0.2,0,0.2,0.2l3.5,7.8h0.1l3.5-7.8c0-0.1,0.1-0.2,0.2-0.2h0.6
			c0.1,0,0.2,0.1,0.2,0.2v10.6c0,0.1-0.1,0.2-0.2,0.2h-0.6c-0.1,0-0.2-0.1-0.2-0.2v-8.5h0l-3.1,6.9c-0.1,0.1-0.1,0.2-0.3,0.2h-0.3
			c-0.1,0-0.2,0-0.3-0.2l-3.1-6.9h0v8.5c0,0.1-0.1,0.2-0.2,0.2h-0.6c-0.1,0-0.2-0.1-0.2-0.2V252.1z"/>
		<path d="M468.2,262.8c-0.1,0-0.2-0.1-0.2-0.2v-10.6c0-0.1,0.1-0.2,0.2-0.2h3.6c2.1,0,3.3,1.2,3.3,3.1c0,1.9-1.3,3.1-3.3,3.1h-2.8
			c-0.1,0-0.1,0-0.1,0.1v4.5c0,0.1-0.1,0.2-0.2,0.2H468.2z M474.3,255.1c0-1.4-0.9-2.2-2.5-2.2h-2.8c-0.1,0-0.1,0-0.1,0.1v4.2
			c0,0.1,0,0.1,0.1,0.1h2.8C473.4,257.3,474.3,256.4,474.3,255.1z"/>
		<path d="M480.8,252.1c0-0.1,0.1-0.2,0.2-0.2h0.6c0.1,0,0.2,0.1,0.2,0.2l3.8,10.6c0,0.1,0,0.2-0.1,0.2h-0.6c-0.1,0-0.2,0-0.2-0.2
			l-1-2.7h-4.7l-1,2.7c0,0.1-0.1,0.2-0.2,0.2h-0.6c-0.1,0-0.1-0.1-0.1-0.2L480.8,252.1z M483.3,259.1l-2-5.7h0l-2,5.7H483.3z"/>
		<path d="M489.1,252.1c0-0.1,0.1-0.2,0.2-0.2h0.6c0.1,0,0.2,0.1,0.2,0.2v10.6c0,0.1-0.1,0.2-0.2,0.2h-0.6c-0.1,0-0.2-0.1-0.2-0.2
			V252.1z"/>
		<path d="M494.2,257.4c0-1.9,0.1-2.6,0.3-3.2c0.5-1.6,1.8-2.4,3.6-2.4c1.8,0,2.9,0.9,3.4,2c0,0.1,0,0.2-0.1,0.2l-0.5,0.3
			c-0.1,0-0.2,0-0.2-0.1c-0.5-1-1.3-1.6-2.6-1.6c-1.3,0-2.3,0.6-2.7,1.8c-0.1,0.4-0.3,1.1-0.3,2.9s0.1,2.5,0.3,2.9
			c0.4,1.2,1.3,1.8,2.7,1.8c1.3,0,2.3-0.6,2.7-1.8c0.1-0.4,0.3-1,0.3-2.1c0-0.1,0-0.1-0.1-0.1h-2.5c-0.1,0-0.2-0.1-0.2-0.2v-0.5
			c0-0.1,0.1-0.2,0.2-0.2h3.3c0.1,0,0.2,0.1,0.2,0.2v0.7c0,1.1-0.1,1.9-0.3,2.4c-0.5,1.6-1.8,2.5-3.5,2.5c-1.8,0-3-0.8-3.6-2.4
			C494.3,260,494.2,259.3,494.2,257.4z"/>
		<path d="M506,252.1c0-0.1,0.1-0.2,0.2-0.2h0.6c0.1,0,0.2,0,0.3,0.2l5.4,8.9h0v-8.9c0-0.1,0.1-0.2,0.2-0.2h0.6
			c0.1,0,0.2,0.1,0.2,0.2v10.6c0,0.1-0.1,0.2-0.2,0.2h-0.6c-0.1,0-0.2,0-0.3-0.2l-5.4-9h-0.1v9c0,0.1-0.1,0.2-0.2,0.2h-0.6
			c-0.1,0-0.2-0.1-0.2-0.2V252.1z"/>
		<path d="M523.5,252.1c0-0.1,0.1-0.2,0.2-0.2h3.4c1.8,0,3,0.7,3.5,2.2c0.2,0.6,0.3,1.2,0.3,3.2c0,2-0.1,2.6-0.3,3.2
			c-0.5,1.5-1.7,2.2-3.5,2.2h-3.4c-0.1,0-0.2-0.1-0.2-0.2V252.1z M524.5,262h2.4c1.4,0,2.3-0.5,2.7-1.6c0.2-0.5,0.3-1.1,0.3-2.9
			c0-1.8-0.1-2.4-0.3-2.9c-0.4-1.2-1.3-1.6-2.7-1.6h-2.4c-0.1,0-0.1,0-0.1,0.1L524.5,262C524.4,262,524.5,262,524.5,262z"/>
		<path d="M535,252.1c0-0.1,0.1-0.2,0.2-0.2h6.2c0.1,0,0.2,0.1,0.2,0.2v0.5c0,0.1-0.1,0.2-0.2,0.2H536c-0.1,0-0.1,0-0.1,0.1v3.9
			c0,0.1,0,0.1,0.1,0.1h4.6c0.1,0,0.2,0.1,0.2,0.2v0.5c0,0.1-0.1,0.2-0.2,0.2H536c-0.1,0-0.1,0-0.1,0.1v4c0,0.1,0,0.1,0.1,0.1h5.4
			c0.1,0,0.2,0.1,0.2,0.2v0.5c0,0.1-0.1,0.2-0.2,0.2h-6.2c-0.1,0-0.2-0.1-0.2-0.2V252.1z"/>
		<path d="M545.1,261.7c-0.1-0.1-0.1-0.2,0-0.2l0.4-0.5c0.1-0.1,0.2-0.1,0.2,0c0.7,0.6,1.9,1.1,3.1,1.1c1.7,0,2.8-0.9,2.8-2.2
			c0-1.1-0.6-1.9-2.6-2.1l-0.5-0.1c-2.1-0.3-3.1-1.3-3.1-2.9c0-1.9,1.3-3.1,3.4-3.1c1.2,0,2.4,0.4,3.1,0.9c0.1,0,0.1,0.1,0,0.2
			l-0.3,0.5c-0.1,0.1-0.1,0.1-0.2,0c-0.9-0.5-1.7-0.8-2.6-0.8c-1.6,0-2.5,0.9-2.5,2.1c0,1.1,0.7,1.8,2.6,2.1l0.5,0.1
			c2.2,0.3,3.2,1.3,3.2,2.9c0,1.8-1.3,3.2-3.8,3.2C547.2,263,545.8,262.4,545.1,261.7z"/>
		<path d="M556.7,252.1c0-0.1,0.1-0.2,0.2-0.2h0.6c0.1,0,0.2,0.1,0.2,0.2v10.6c0,0.1-0.1,0.2-0.2,0.2h-0.6c-0.1,0-0.2-0.1-0.2-0.2
			V252.1z"/>
		<path d="M561.7,257.4c0-1.9,0.1-2.6,0.3-3.2c0.5-1.6,1.8-2.4,3.6-2.4c1.8,0,2.9,0.9,3.4,2c0,0.1,0,0.2-0.1,0.2l-0.5,0.3
			c-0.1,0-0.2,0-0.2-0.1c-0.5-1-1.3-1.6-2.6-1.6c-1.3,0-2.3,0.6-2.7,1.8c-0.1,0.4-0.3,1.1-0.3,2.9s0.1,2.5,0.3,2.9
			c0.4,1.2,1.3,1.8,2.7,1.8c1.3,0,2.3-0.6,2.7-1.8c0.1-0.4,0.3-1,0.3-2.1c0-0.1,0-0.1-0.1-0.1h-2.5c-0.1,0-0.2-0.1-0.2-0.2v-0.5
			c0-0.1,0.1-0.2,0.2-0.2h3.3c0.1,0,0.2,0.1,0.2,0.2v0.7c0,1.1-0.1,1.9-0.3,2.4c-0.5,1.6-1.8,2.5-3.5,2.5c-1.8,0-3-0.8-3.6-2.4
			C561.9,260,561.7,259.3,561.7,257.4z"/>
		<path d="M573.5,252.1c0-0.1,0.1-0.2,0.2-0.2h0.6c0.1,0,0.2,0,0.3,0.2l5.4,8.9h0v-8.9c0-0.1,0.1-0.2,0.2-0.2h0.6
			c0.1,0,0.2,0.1,0.2,0.2v10.6c0,0.1-0.1,0.2-0.2,0.2h-0.6c-0.1,0-0.2,0-0.3-0.2l-5.4-9h-0.1v9c0,0.1-0.1,0.2-0.2,0.2h-0.6
			c-0.1,0-0.2-0.1-0.2-0.2V252.1z"/>
	</g>
	<g>
		<g>
			<path d="M74.6,617.7c-0.2-0.6-0.3-1.3-0.3-3.2c0-1.9,0.1-2.6,0.3-3.2c0.5-1.6,1.7-2.4,3.5-2.4c1.8,0,3,0.8,3.5,2.4
				c0.2,0.6,0.3,1.3,0.3,3.2c0,1.9-0.1,2.6-0.3,3.2c-0.5,1.6-1.7,2.4-3.5,2.4C76.3,620.2,75.1,619.3,74.6,617.7z M80.7,611.7
				c-0.4-1.2-1.3-1.8-2.6-1.8c-1.4,0-2.2,0.6-2.6,1.8c-0.1,0.4-0.3,1.1-0.3,2.9c0,1.8,0.1,2.5,0.3,2.9c0.4,1.2,1.3,1.8,2.6,1.8
				c1.3,0,2.2-0.6,2.6-1.8c0.1-0.4,0.3-1.1,0.3-2.9C81,612.8,80.9,612.1,80.7,611.7z"/>
			<path d="M85.8,609.3c0-0.1,0.1-0.2,0.2-0.2h0.6c0.1,0,0.2,0,0.3,0.2l5.4,8.9h0v-8.9c0-0.1,0.1-0.2,0.2-0.2H93
				c0.1,0,0.2,0.1,0.2,0.2v10.6c0,0.1-0.1,0.2-0.2,0.2h-0.6c-0.1,0-0.2,0-0.3-0.2l-5.4-9h-0.1v9c0,0.1-0.1,0.2-0.2,0.2h-0.6
				c-0.1,0-0.2-0.1-0.2-0.2V609.3z"/>
			<path d="M97.5,609.3c0-0.1,0.1-0.2,0.2-0.2h0.6c0.1,0,0.2,0.1,0.2,0.2v9.8c0,0.1,0,0.1,0.1,0.1h5.4c0.1,0,0.2,0.1,0.2,0.2v0.5
				c0,0.1-0.1,0.2-0.2,0.2h-6.2c-0.1,0-0.2-0.1-0.2-0.2V609.3z"/>
			<path d="M107.2,609.3c0-0.1,0.1-0.2,0.2-0.2h0.6c0.1,0,0.2,0.1,0.2,0.2v10.6c0,0.1-0.1,0.2-0.2,0.2h-0.6c-0.1,0-0.2-0.1-0.2-0.2
				V609.3z"/>
			<path d="M112.4,609.3c0-0.1,0.1-0.2,0.2-0.2h0.6c0.1,0,0.2,0,0.3,0.2l5.4,8.9h0v-8.9c0-0.1,0.1-0.2,0.2-0.2h0.6
				c0.1,0,0.2,0.1,0.2,0.2v10.6c0,0.1-0.1,0.2-0.2,0.2H119c-0.1,0-0.2,0-0.3-0.2l-5.4-9h-0.1v9c0,0.1-0.1,0.2-0.2,0.2h-0.6
				c-0.1,0-0.2-0.1-0.2-0.2V609.3z"/>
			<path d="M124.1,609.3c0-0.1,0.1-0.2,0.2-0.2h6.2c0.1,0,0.2,0.1,0.2,0.2v0.5c0,0.1-0.1,0.2-0.2,0.2h-5.4c-0.1,0-0.1,0-0.1,0.1v3.9
				c0,0.1,0,0.1,0.1,0.1h4.6c0.1,0,0.2,0.1,0.2,0.2v0.5c0,0.1-0.1,0.2-0.2,0.2h-4.6c-0.1,0-0.1,0-0.1,0.1v4c0,0.1,0,0.1,0.1,0.1h5.4
				c0.1,0,0.2,0.1,0.2,0.2v0.5c0,0.1-0.1,0.2-0.2,0.2h-6.2c-0.1,0-0.2-0.1-0.2-0.2V609.3z"/>
			<path d="M139.5,609.3c0-0.1,0.1-0.2,0.2-0.2h3.4c1.8,0,3,0.7,3.5,2.2c0.2,0.6,0.3,1.2,0.3,3.2c0,2-0.1,2.6-0.3,3.2
				c-0.5,1.5-1.7,2.2-3.5,2.2h-3.4c-0.1,0-0.2-0.1-0.2-0.2V609.3z M140.5,619.2h2.4c1.4,0,2.3-0.5,2.7-1.6c0.2-0.5,0.3-1.1,0.3-2.9
				c0-1.8-0.1-2.4-0.3-2.9c-0.4-1.2-1.3-1.6-2.7-1.6h-2.4c-0.1,0-0.1,0-0.1,0.1L140.5,619.2C140.4,619.1,140.4,619.2,140.5,619.2z"
				/>
			<path d="M150.7,609.3c0-0.1,0.1-0.2,0.2-0.2h0.6c0.1,0,0.2,0.1,0.2,0.2v10.6c0,0.1-0.1,0.2-0.2,0.2h-0.6c-0.1,0-0.2-0.1-0.2-0.2
				V609.3z"/>
			<path d="M155.4,614.6c0-1.9,0.1-2.6,0.3-3.2c0.5-1.6,1.8-2.4,3.6-2.4c1.8,0,2.9,0.9,3.4,2c0,0.1,0,0.2-0.1,0.2l-0.5,0.3
				c-0.1,0-0.2,0-0.2-0.1c-0.5-1-1.3-1.6-2.6-1.6c-1.3,0-2.3,0.6-2.7,1.8c-0.1,0.4-0.3,1.1-0.3,2.9s0.1,2.5,0.3,2.9
				c0.4,1.2,1.3,1.8,2.7,1.8c1.3,0,2.3-0.6,2.7-1.8c0.1-0.4,0.3-1,0.3-2.1c0-0.1,0-0.1-0.1-0.1h-2.5c-0.1,0-0.2-0.1-0.2-0.2v-0.5
				c0-0.1,0.1-0.2,0.2-0.2h3.3c0.1,0,0.2,0.1,0.2,0.2v0.7c0,1.1-0.1,1.9-0.3,2.4c-0.5,1.6-1.8,2.5-3.5,2.5c-1.8,0-3-0.8-3.6-2.4
				C155.6,617.2,155.4,616.5,155.4,614.6z"/>
			<path d="M166.9,609.3c0-0.1,0.1-0.2,0.2-0.2h0.6c0.1,0,0.2,0.1,0.2,0.2v10.6c0,0.1-0.1,0.2-0.2,0.2h-0.6c-0.1,0-0.2-0.1-0.2-0.2
				V609.3z"/>
			<path d="M174.5,620c-0.1,0-0.2-0.1-0.2-0.2v-9.8c0-0.1,0-0.1-0.1-0.1h-3.1c-0.1,0-0.2-0.1-0.2-0.2v-0.5c0-0.1,0.1-0.2,0.2-0.2
				h7.4c0.1,0,0.2,0.1,0.2,0.2v0.5c0,0.1-0.1,0.2-0.2,0.2h-3.1c-0.1,0-0.1,0-0.1,0.1v9.8c0,0.1-0.1,0.2-0.2,0.2H174.5z"/>
			<path d="M183.4,609.3c0-0.1,0.1-0.2,0.2-0.2h0.6c0.1,0,0.2,0.1,0.2,0.2l3.8,10.6c0,0.1,0,0.2-0.1,0.2h-0.6c-0.1,0-0.2,0-0.2-0.2
				l-1-2.7h-4.7l-1,2.7c0,0.1-0.1,0.2-0.2,0.2h-0.6c-0.1,0-0.1-0.1-0.1-0.2L183.4,609.3z M186,616.3l-2-5.7h0l-2,5.7H186z"/>
			<path d="M191.4,609.3c0-0.1,0.1-0.2,0.2-0.2h0.6c0.1,0,0.2,0.1,0.2,0.2v9.8c0,0.1,0,0.1,0.1,0.1h5.4c0.1,0,0.2,0.1,0.2,0.2v0.5
				c0,0.1-0.1,0.2-0.2,0.2h-6.2c-0.1,0-0.2-0.1-0.2-0.2V609.3z"/>
			<path d="M98.1,641.8c-0.1,0-0.2-0.1-0.2-0.2V631c0-0.1,0.1-0.2,0.2-0.2h3.6c2.1,0,3.3,1.2,3.3,3.1c0,1.9-1.3,3.1-3.3,3.1h-2.8
				c-0.1,0-0.1,0-0.1,0.1v4.5c0,0.1-0.1,0.2-0.2,0.2H98.1z M104.1,634c0-1.4-0.9-2.2-2.5-2.2h-2.8c-0.1,0-0.1,0-0.1,0.1v4.2
				c0,0.1,0,0.1,0.1,0.1h2.8C103.3,636.2,104.1,635.4,104.1,634z"/>
			<path d="M108.6,631c0-0.1,0.1-0.2,0.2-0.2h0.6c0.1,0,0.2,0.1,0.2,0.2v9.8c0,0.1,0,0.1,0.1,0.1h5.4c0.1,0,0.2,0.1,0.2,0.2v0.5
				c0,0.1-0.1,0.2-0.2,0.2h-6.2c-0.1,0-0.2-0.1-0.2-0.2V631z"/>
			<path d="M121.1,631c0-0.1,0.1-0.2,0.2-0.2h0.6c0.1,0,0.2,0.1,0.2,0.2l3.8,10.6c0,0.1,0,0.2-0.1,0.2h-0.6c-0.1,0-0.2,0-0.2-0.2
				l-1-2.7h-4.7l-1,2.7c0,0.1-0.1,0.2-0.2,0.2h-0.6c-0.1,0-0.1-0.1-0.1-0.2L121.1,631z M123.7,638.1l-2-5.7h0l-2,5.7H123.7z"/>
			<path d="M130.4,641.8c-0.1,0-0.2-0.1-0.2-0.2v-9.8c0-0.1,0-0.1-0.1-0.1H127c-0.1,0-0.2-0.1-0.2-0.2V631c0-0.1,0.1-0.2,0.2-0.2
				h7.4c0.1,0,0.2,0.1,0.2,0.2v0.5c0,0.1-0.1,0.2-0.2,0.2h-3.1c-0.1,0-0.1,0-0.1,0.1v9.8c0,0.1-0.1,0.2-0.2,0.2H130.4z"/>
			<path d="M137.6,631c0-0.1,0.1-0.2,0.2-0.2h6.2c0.1,0,0.2,0.1,0.2,0.2v0.5c0,0.1-0.1,0.2-0.2,0.2h-5.4c-0.1,0-0.1,0-0.1,0.1v4
				c0,0.1,0,0.1,0.1,0.1h4.6c0.1,0,0.2,0.1,0.2,0.2v0.5c0,0.1-0.1,0.2-0.2,0.2h-4.6c-0.1,0-0.1,0-0.1,0.1v4.7c0,0.1-0.1,0.2-0.2,0.2
				h-0.6c-0.1,0-0.2-0.1-0.2-0.2V631z"/>
			<path d="M147.6,639.5c-0.2-0.6-0.3-1.3-0.3-3.2c0-1.9,0.1-2.6,0.3-3.2c0.5-1.6,1.7-2.4,3.5-2.4c1.8,0,3,0.8,3.5,2.4
				c0.2,0.6,0.3,1.3,0.3,3.2c0,1.9-0.1,2.6-0.3,3.2c-0.5,1.6-1.7,2.4-3.5,2.4C149.3,641.9,148.1,641.1,147.6,639.5z M153.7,633.4
				c-0.4-1.2-1.3-1.8-2.6-1.8c-1.4,0-2.2,0.6-2.6,1.8c-0.1,0.4-0.3,1.1-0.3,2.9c0,1.8,0.1,2.5,0.3,2.9c0.4,1.2,1.3,1.8,2.6,1.8
				c1.3,0,2.2-0.6,2.6-1.8c0.1-0.4,0.3-1.1,0.3-2.9C154,634.6,153.9,633.9,153.7,633.4z"/>
			<path d="M165.2,641.8c-0.1,0-0.1,0-0.2-0.1l-2.3-4.7h-0.2h-2.8c-0.1,0-0.1,0-0.1,0.1v4.6c0,0.1-0.1,0.2-0.2,0.2h-0.6
				c-0.1,0-0.2-0.1-0.2-0.2V631c0-0.1,0.1-0.2,0.2-0.2h3.6c2,0,3.3,1.2,3.3,3c0,1.5-0.8,2.5-2.2,2.9l2.4,4.8c0.1,0.1,0,0.2-0.1,0.2
				H165.2z M165,633.9c0-1.4-0.9-2.1-2.4-2.1h-2.8c-0.1,0-0.1,0-0.1,0.1v4.1c0,0.1,0,0.1,0.1,0.1h2.8C164.1,636,165,635.3,165,633.9
				z"/>
			<path d="M169.9,631c0-0.1,0.1-0.2,0.2-0.2h0.6c0.1,0,0.2,0,0.2,0.2l3.5,7.8h0.1l3.5-7.8c0-0.1,0.1-0.2,0.2-0.2h0.6
				c0.1,0,0.2,0.1,0.2,0.2v10.6c0,0.1-0.1,0.2-0.2,0.2h-0.6c-0.1,0-0.2-0.1-0.2-0.2v-8.5h0l-3.1,6.9c-0.1,0.1-0.1,0.2-0.3,0.2h-0.3
				c-0.1,0-0.2,0-0.3-0.2l-3.1-6.9h0v8.5c0,0.1-0.1,0.2-0.2,0.2H170c-0.1,0-0.2-0.1-0.2-0.2V631z"/>
		</g>
	</g>
	<g>
		<g>
			<path d="M435.4,609.3c0-0.1,0.1-0.2,0.2-0.2h6.2c0.1,0,0.2,0.1,0.2,0.2v0.5c0,0.1-0.1,0.2-0.2,0.2h-5.4c-0.1,0-0.1,0-0.1,0.1v3.9
				c0,0.1,0,0.1,0.1,0.1h4.6c0.1,0,0.2,0.1,0.2,0.2v0.5c0,0.1-0.1,0.2-0.2,0.2h-4.6c-0.1,0-0.1,0-0.1,0.1v4c0,0.1,0,0.1,0.1,0.1h5.4
				c0.1,0,0.2,0.1,0.2,0.2v0.5c0,0.1-0.1,0.2-0.2,0.2h-6.2c-0.1,0-0.2-0.1-0.2-0.2V609.3z"/>
			<path d="M451.5,620c-0.1,0-0.2,0-0.2-0.1l-2.8-4.7h0l-2.8,4.7c0,0.1-0.1,0.1-0.2,0.1h-0.7c-0.1,0-0.1-0.1-0.1-0.2l3.3-5.5l-3-5
				c-0.1-0.1,0-0.2,0.1-0.2h0.7c0.1,0,0.2,0,0.2,0.1l2.5,4.1h0l2.5-4.1c0.1-0.1,0.1-0.1,0.2-0.1h0.7c0.1,0,0.1,0.1,0.1,0.2l-3,5
				l3.3,5.5c0,0.1,0,0.2-0.1,0.2H451.5z"/>
			<path d="M455.8,620c-0.1,0-0.2-0.1-0.2-0.2v-10.6c0-0.1,0.1-0.2,0.2-0.2h3.6c2.1,0,3.3,1.2,3.3,3.1c0,1.9-1.3,3.1-3.3,3.1h-2.8
				c-0.1,0-0.1,0-0.1,0.1v4.5c0,0.1-0.1,0.2-0.2,0.2H455.8z M461.8,612.2c0-1.4-0.9-2.2-2.5-2.2h-2.8c-0.1,0-0.1,0-0.1,0.1v4.2
				c0,0.1,0,0.1,0.1,0.1h2.8C461,614.4,461.8,613.6,461.8,612.2z"/>
			<path d="M466.2,609.3c0-0.1,0.1-0.2,0.2-0.2h0.6c0.1,0,0.2,0.1,0.2,0.2v9.8c0,0.1,0,0.1,0.1,0.1h5.4c0.1,0,0.2,0.1,0.2,0.2v0.5
				c0,0.1-0.1,0.2-0.2,0.2h-6.2c-0.1,0-0.2-0.1-0.2-0.2V609.3z"/>
			<path d="M478.8,609.3c0-0.1,0.1-0.2,0.2-0.2h0.6c0.1,0,0.2,0.1,0.2,0.2l3.8,10.6c0,0.1,0,0.2-0.1,0.2h-0.6c-0.1,0-0.2,0-0.2-0.2
				l-1-2.7h-4.7l-1,2.7c0,0.1-0.1,0.2-0.2,0.2h-0.6c-0.1,0-0.1-0.1-0.1-0.2L478.8,609.3z M481.3,616.3l-2-5.7h0l-2,5.7H481.3z"/>
			<path d="M486.8,609.3c0-0.1,0.1-0.2,0.2-0.2h0.6c0.1,0,0.2,0.1,0.2,0.2v10.6c0,0.1-0.1,0.2-0.2,0.2H487c-0.1,0-0.2-0.1-0.2-0.2
				V609.3z"/>
			<path d="M492,609.3c0-0.1,0.1-0.2,0.2-0.2h0.6c0.1,0,0.2,0,0.3,0.2l5.4,8.9h0v-8.9c0-0.1,0.1-0.2,0.2-0.2h0.6
				c0.1,0,0.2,0.1,0.2,0.2v10.6c0,0.1-0.1,0.2-0.2,0.2h-0.6c-0.1,0-0.2,0-0.3-0.2l-5.4-9h-0.1v9c0,0.1-0.1,0.2-0.2,0.2h-0.6
				c-0.1,0-0.2-0.1-0.2-0.2V609.3z"/>
			<path d="M503.7,609.3c0-0.1,0.1-0.2,0.2-0.2h6.2c0.1,0,0.2,0.1,0.2,0.2v0.5c0,0.1-0.1,0.2-0.2,0.2h-5.4c-0.1,0-0.1,0-0.1,0.1v3.9
				c0,0.1,0,0.1,0.1,0.1h4.6c0.1,0,0.2,0.1,0.2,0.2v0.5c0,0.1-0.1,0.2-0.2,0.2h-4.6c-0.1,0-0.1,0-0.1,0.1v4c0,0.1,0,0.1,0.1,0.1h5.4
				c0.1,0,0.2,0.1,0.2,0.2v0.5c0,0.1-0.1,0.2-0.2,0.2h-6.2c-0.1,0-0.2-0.1-0.2-0.2V609.3z"/>
			<path d="M520.3,620c-0.1,0-0.1,0-0.2-0.1l-2.3-4.7h-0.2h-2.8c-0.1,0-0.1,0-0.1,0.1v4.6c0,0.1-0.1,0.2-0.2,0.2h-0.6
				c-0.1,0-0.2-0.1-0.2-0.2v-10.6c0-0.1,0.1-0.2,0.2-0.2h3.6c2,0,3.3,1.2,3.3,3c0,1.5-0.8,2.5-2.2,2.9l2.4,4.8
				c0.1,0.1,0,0.2-0.1,0.2H520.3z M520.1,612.2c0-1.4-0.9-2.1-2.4-2.1h-2.8c-0.1,0-0.1,0-0.1,0.1v4.1c0,0.1,0,0.1,0.1,0.1h2.8
				C519.2,614.3,520.1,613.5,520.1,612.2z"/>
			<path d="M532.5,620c-0.1,0-0.1-0.1-0.2-0.2l-3.6-10.5c-0.1-0.1,0-0.2,0.1-0.2h0.6c0.1,0,0.2,0,0.2,0.2l3.2,9.2h0l3.1-9.2
				c0-0.1,0.1-0.2,0.2-0.2h0.6c0.1,0,0.2,0.1,0.1,0.2l-3.6,10.5c0,0.1-0.1,0.2-0.2,0.2H532.5z"/>
			<path d="M540,609.3c0-0.1,0.1-0.2,0.2-0.2h0.6c0.1,0,0.2,0.1,0.2,0.2v10.6c0,0.1-0.1,0.2-0.2,0.2h-0.6c-0.1,0-0.2-0.1-0.2-0.2
				V609.3z"/>
			<path d="M545.2,609.3c0-0.1,0.1-0.2,0.2-0.2h3.4c1.8,0,3,0.7,3.5,2.2c0.2,0.6,0.3,1.2,0.3,3.2c0,2-0.1,2.6-0.3,3.2
				c-0.5,1.5-1.7,2.2-3.5,2.2h-3.4c-0.1,0-0.2-0.1-0.2-0.2V609.3z M546.2,619.2h2.4c1.4,0,2.3-0.5,2.7-1.6c0.2-0.5,0.3-1.1,0.3-2.9
				c0-1.8-0.1-2.4-0.3-2.9c-0.4-1.2-1.3-1.6-2.7-1.6h-2.4c-0.1,0-0.1,0-0.1,0.1L546.2,619.2C546.1,619.1,546.2,619.2,546.2,619.2z"
				/>
			<path d="M556.4,609.3c0-0.1,0.1-0.2,0.2-0.2h6.2c0.1,0,0.2,0.1,0.2,0.2v0.5c0,0.1-0.1,0.2-0.2,0.2h-5.4c-0.1,0-0.1,0-0.1,0.1v3.9
				c0,0.1,0,0.1,0.1,0.1h4.6c0.1,0,0.2,0.1,0.2,0.2v0.5c0,0.1-0.1,0.2-0.2,0.2h-4.6c-0.1,0-0.1,0-0.1,0.1v4c0,0.1,0,0.1,0.1,0.1h5.4
				c0.1,0,0.2,0.1,0.2,0.2v0.5c0,0.1-0.1,0.2-0.2,0.2h-6.2c-0.1,0-0.2-0.1-0.2-0.2V609.3z"/>
			<path d="M566.5,617.7c-0.2-0.6-0.3-1.3-0.3-3.2c0-1.9,0.1-2.6,0.3-3.2c0.5-1.6,1.7-2.4,3.5-2.4c1.8,0,3,0.8,3.5,2.4
				c0.2,0.6,0.3,1.3,0.3,3.2c0,1.9-0.1,2.6-0.3,3.2c-0.5,1.6-1.7,2.4-3.5,2.4C568.2,620.2,567,619.3,566.5,617.7z M572.6,611.7
				c-0.4-1.2-1.3-1.8-2.6-1.8c-1.4,0-2.2,0.6-2.6,1.8c-0.1,0.4-0.3,1.1-0.3,2.9c0,1.8,0.1,2.5,0.3,2.9c0.4,1.2,1.3,1.8,2.6,1.8
				c1.3,0,2.2-0.6,2.6-1.8c0.1-0.4,0.3-1.1,0.3-2.9C572.9,612.8,572.8,612.1,572.6,611.7z"/>
			<path d="M457.9,641.8c-0.1,0-0.2-0.1-0.2-0.2V631c0-0.1,0.1-0.2,0.2-0.2h3.6c2.1,0,3.3,1.2,3.3,3.1c0,1.9-1.3,3.1-3.3,3.1h-2.8
				c-0.1,0-0.1,0-0.1,0.1v4.5c0,0.1-0.1,0.2-0.2,0.2H457.9z M463.9,634c0-1.4-0.9-2.2-2.5-2.2h-2.8c-0.1,0-0.1,0-0.1,0.1v4.2
				c0,0.1,0,0.1,0.1,0.1h2.8C463.1,636.2,463.9,635.4,463.9,634z"/>
			<path d="M474.8,641.8c-0.1,0-0.1,0-0.2-0.1l-2.3-4.7h-0.2h-2.8c-0.1,0-0.1,0-0.1,0.1v4.6c0,0.1-0.1,0.2-0.2,0.2h-0.6
				c-0.1,0-0.2-0.1-0.2-0.2V631c0-0.1,0.1-0.2,0.2-0.2h3.6c2,0,3.3,1.2,3.3,3c0,1.5-0.8,2.5-2.2,2.9l2.4,4.8c0.1,0.1,0,0.2-0.1,0.2
				H474.8z M474.5,633.9c0-1.4-0.9-2.1-2.4-2.1h-2.8c-0.1,0-0.1,0-0.1,0.1v4.1c0,0.1,0,0.1,0.1,0.1h2.8
				C473.7,636,474.5,635.3,474.5,633.9z"/>
			<path d="M479.3,639.5c-0.2-0.6-0.3-1.3-0.3-3.2s0.1-2.6,0.3-3.2c0.5-1.6,1.7-2.4,3.5-2.4c1.8,0,3,0.8,3.5,2.4
				c0.2,0.6,0.3,1.3,0.3,3.2s-0.1,2.6-0.3,3.2c-0.5,1.6-1.7,2.4-3.5,2.4C481,641.9,479.8,641.1,479.3,639.5z M485.4,633.4
				c-0.4-1.2-1.3-1.8-2.6-1.8c-1.4,0-2.2,0.6-2.6,1.8c-0.1,0.4-0.3,1.1-0.3,2.9s0.1,2.5,0.3,2.9c0.4,1.2,1.3,1.8,2.6,1.8
				c1.3,0,2.2-0.6,2.6-1.8c0.1-0.4,0.3-1.1,0.3-2.9S485.6,633.9,485.4,633.4z"/>
			<path d="M490.5,631c0-0.1,0.1-0.2,0.2-0.2h3.4c1.8,0,3,0.7,3.5,2.2c0.2,0.6,0.3,1.2,0.3,3.2c0,2-0.1,2.6-0.3,3.2
				c-0.5,1.5-1.7,2.2-3.5,2.2h-3.4c-0.1,0-0.2-0.1-0.2-0.2V631z M491.5,640.9h2.4c1.4,0,2.3-0.5,2.7-1.6c0.2-0.5,0.3-1.1,0.3-2.9
				s-0.1-2.4-0.3-2.9c-0.4-1.2-1.3-1.6-2.7-1.6h-2.4c-0.1,0-0.1,0-0.1,0.1L491.5,640.9C491.4,640.9,491.4,640.9,491.5,640.9z"/>
			<path d="M502.5,638c0,2,1,3,2.8,3c1.7,0,2.8-1,2.8-3v-7c0-0.1,0.1-0.2,0.2-0.2h0.6c0.1,0,0.2,0.1,0.2,0.2v7
				c0,2.7-1.4,3.9-3.7,3.9c-2.2,0-3.7-1.3-3.7-3.9v-7c0-0.1,0.1-0.2,0.2-0.2h0.6c0.1,0,0.2,0.1,0.2,0.2V638z"/>
			<path d="M512.6,636.3c0-1.9,0.1-2.6,0.3-3.2c0.5-1.6,1.7-2.4,3.4-2.4c1.5,0,2.7,0.7,3.3,2c0,0.1,0,0.2,0,0.2l-0.5,0.3
				c-0.1,0-0.2,0-0.2-0.1c-0.5-0.9-1.3-1.6-2.5-1.6c-1.3,0-2.1,0.6-2.6,1.8c-0.1,0.4-0.2,1.1-0.2,2.9c0,1.8,0.1,2.5,0.2,2.9
				c0.4,1.2,1.2,1.8,2.6,1.8c1.2,0,2-0.6,2.5-1.6c0-0.1,0.1-0.1,0.2-0.1l0.5,0.3c0.1,0,0.1,0.1,0,0.2c-0.6,1.3-1.8,2-3.3,2
				c-1.7,0-2.9-0.8-3.4-2.4C512.7,639,512.6,638.2,512.6,636.3z"/>
			<path d="M525.4,641.8c-0.1,0-0.2-0.1-0.2-0.2v-9.8c0-0.1,0-0.1-0.1-0.1H522c-0.1,0-0.2-0.1-0.2-0.2V631c0-0.1,0.1-0.2,0.2-0.2
				h7.4c0.1,0,0.2,0.1,0.2,0.2v0.5c0,0.1-0.1,0.2-0.2,0.2h-3.1c-0.1,0-0.1,0-0.1,0.1v9.8c0,0.1-0.1,0.2-0.2,0.2H525.4z"/>
			<path d="M532.7,631c0-0.1,0.1-0.2,0.2-0.2h0.6c0.1,0,0.2,0.1,0.2,0.2v10.6c0,0.1-0.1,0.2-0.2,0.2h-0.6c-0.1,0-0.2-0.1-0.2-0.2
				V631z"/>
			<path d="M537.7,639.5c-0.2-0.6-0.3-1.3-0.3-3.2s0.1-2.6,0.3-3.2c0.5-1.6,1.7-2.4,3.5-2.4c1.8,0,3,0.8,3.5,2.4
				c0.2,0.6,0.3,1.3,0.3,3.2s-0.1,2.6-0.3,3.2c-0.5,1.6-1.7,2.4-3.5,2.4C539.5,641.9,538.3,641.1,537.7,639.5z M543.9,633.4
				c-0.4-1.2-1.3-1.8-2.6-1.8c-1.4,0-2.2,0.6-2.6,1.8c-0.1,0.4-0.3,1.1-0.3,2.9s0.1,2.5,0.3,2.9c0.4,1.2,1.3,1.8,2.6,1.8
				c1.3,0,2.2-0.6,2.6-1.8c0.1-0.4,0.3-1.1,0.3-2.9S544,633.9,543.9,633.4z"/>
			<path d="M548.9,631c0-0.1,0.1-0.2,0.2-0.2h0.6c0.1,0,0.2,0,0.3,0.2l5.4,8.9h0V631c0-0.1,0.1-0.2,0.2-0.2h0.6
				c0.1,0,0.2,0.1,0.2,0.2v10.6c0,0.1-0.1,0.2-0.2,0.2h-0.6c-0.1,0-0.2,0-0.3-0.2l-5.4-9h-0.1v9c0,0.1-0.1,0.2-0.2,0.2h-0.6
				c-0.1,0-0.2-0.1-0.2-0.2V631z"/>
		</g>
	</g>
	<g>
		<g>
			<circle class="st4" cx="71.4" cy="167.2" r="2.5"/>
			<g>
				<g>
					<circle class="st5" cx="52.4" cy="176.8" r="9.6"/>
				</g>
			</g>
			<g>
				<circle class="st4" cx="64.9" cy="40.1" r="3.8"/>
			</g>
			<g>
				<circle class="st4" cx="226.6" cy="132.6" r="3.4"/>
			</g>
			<g>
				<path class="st4" d="M235.3,44.5c0,4.8-3.9,8.7-8.7,8.7c-4.8,0-8.7-3.9-8.7-8.7c0-4.8,3.9-8.7,8.7-8.7
					C231.4,35.9,235.3,39.7,235.3,44.5z"/>
			</g>
			<circle class="st6" cx="136.6" cy="108.9" r="31.1"/>
			<circle class="st7" cx="138.2" cy="105.9" r="27.5"/>
			<path class="st8" d="M80.3,108.9c0,0,30.1-37.4,64.5-30.2c34.7,7.3,48.2,30.2,48.2,30.2s-16.3,24.1-45,30.2
				C113.4,146.4,80.3,108.9,80.3,108.9z"/>
			<path class="st6" d="M116.4,108.9c0,11.2,9,20.2,20.2,20.2c11.2,0,20.2-9,20.2-20.2c0-11.2-9-20.2-20.2-20.2"/>
			<circle class="st9" cx="136.6" cy="108.9" r="16"/>
			<path class="st6" d="M133.5,89v16.9h-16.8C116.7,105.9,118.4,91.7,133.5,89z"/>
			<g>
				<line class="st8" x1="138.2" y1="28.5" x2="138.2" y2="47.7"/>
				<line class="st8" x1="178.8" y1="40.5" x2="169.1" y2="57"/>
				<line class="st8" x1="207.7" y1="71.4" x2="190.9" y2="80.7"/>
				<line class="st8" x1="209.8" y1="148.3" x2="192.5" y2="140"/>
				<line class="st8" x1="181.5" y1="179.8" x2="170.8" y2="163.9"/>
				<line class="st8" x1="65.4" y1="72.7" x2="82.4" y2="81.6"/>
				<line class="st8" x1="94.8" y1="42.3" x2="105" y2="58.6"/>
				<line class="st8" x1="98" y1="177.4" x2="107.7" y2="160.9"/>
				<line class="st8" x1="69.1" y1="146.5" x2="85.9" y2="137.2"/>
				<line class="st8" x1="138.2" y1="170.6" x2="138.2" y2="189.8"/>
				<line class="st8" x1="226.6" y1="108.9" x2="207.4" y2="108.9"/>
				<line class="st8" x1="64.9" y1="108.9" x2="45.7" y2="108.9"/>
			</g>
		</g>
		<g>
			<rect x="432" y="83.8" class="st4" width="12.6" height="28.7"/>
			<rect x="424" y="87.3" class="st7" width="8" height="20.8"/>
			<line class="st10" x1="526.8" y1="62" x2="526.8" y2="131"/>
			<rect x="435.2" y="133.4" class="st9" width="7.8" height="31.2"/>
			<rect x="448.7" y="80.1" class="st7" width="34.4" height="35.3"/>
			<rect x="459.7" y="115.4" class="st6" width="14" height="54.1"/>
			<path class="st6" d="M466.3,130.4h16.8c0,0,5.6-0.6,6.4,3.1c0,0,1.1,4.4-4.8,5c0,0,6.5-0.3,6.9,3.1c0.3,3.4-1.8,5-6.7,5.1
				c0,0,6.1-0.2,6.3,3.3c0.2,3.5-4,4.3-6,4.2c0,0,5.1,0.7,5,4.6c-0.1,2.5-1.6,5.4-11.6,4.7l-32.9,0.2v-29.1h6.7
				c0,0-0.6-8.9,6.6-10.3v6.2L466.3,130.4z"/>
			<rect x="432" y="83" class="st11" width="16.7" height="29.4"/>
			<rect x="424" y="87.3" class="st11" width="8" height="20.8"/>
			<polygon class="st11" points="535.6,57.7 535.6,134 483.1,112.7 483.1,81.5 			"/>
			<line class="st8" x1="553.6" y1="67.5" x2="584.9" y2="48.5"/>
			<line class="st8" x1="554.7" y1="92.4" x2="591.2" y2="92.5"/>
			<line class="st8" x1="556.5" y1="117.5" x2="587.8" y2="136.4"/>
			<g>
				<path class="st9" d="M426.9,93.6v-1.2c0-0.2,0.2-0.4,0.4-0.4h1.2c0.2,0,0.4,0.2,0.4,0.4v1.2c0,0.2-0.2,0.4-0.4,0.4h-1.2
					C427.1,94,426.9,93.8,426.9,93.6z"/>
				<path class="st9" d="M426.9,98.6v-1.2c0-0.2,0.2-0.4,0.4-0.4h1.2c0.2,0,0.4,0.2,0.4,0.4v1.2c0,0.2-0.2,0.4-0.4,0.4h-1.2
					C427.1,99,426.9,98.8,426.9,98.6z"/>
				<path class="st9" d="M426.9,103.6v-1.2c0-0.2,0.2-0.4,0.4-0.4h1.2c0.2,0,0.4,0.2,0.4,0.4v1.2c0,0.2-0.2,0.4-0.4,0.4h-1.2
					C427.1,104.1,426.9,103.9,426.9,103.6z"/>
			</g>
			<rect x="448.7" y="80.1" class="st11" width="34.4" height="35.3"/>
			<g>
				<line class="st11" x1="499.4" y1="163.4" x2="499.4" y2="169.8"/>
				<line class="st11" x1="505.9" y1="161" x2="505.9" y2="169.8"/>
				<line class="st11" x1="512.4" y1="158.6" x2="512.4" y2="169.8"/>
				<line class="st11" x1="518.9" y1="155.7" x2="518.9" y2="169.8"/>
				<line class="st11" x1="525.3" y1="158.6" x2="525.3" y2="169.8"/>
				<line class="st11" x1="531.8" y1="161.6" x2="531.8" y2="169.8"/>
				<line class="st11" x1="538.3" y1="154.9" x2="538.3" y2="169.8"/>
				<line class="st11" x1="544.8" y1="149.6" x2="544.8" y2="169.8"/>
				<line class="st11" x1="551.3" y1="144.2" x2="551.3" y2="169.8"/>
				<line class="st11" x1="557.8" y1="137.8" x2="557.8" y2="169.8"/>
				<line class="st11" x1="564.3" y1="144.2" x2="564.3" y2="169.8"/>
				<line class="st11" x1="570.8" y1="151.3" x2="570.8" y2="169.8"/>
			</g>
		</g>
		<g>
			<polygon class="st12" points="175,447.8 54.4,532.5 175,532.5 			"/>
			<rect x="58.3" y="432.5" class="st9" width="113" height="12.2"/>
			<line class="st13" x1="43.6" y1="532.5" x2="186.1" y2="532.5"/>
			<polyline class="st13" points="175,532.5 175,429.3 54.4,429.3 54.4,447.8 54.4,532.5 			"/>
			<line class="st14" x1="54.4" y1="447.8" x2="175" y2="447.8"/>
			<line class="st14" x1="90" y1="429.3" x2="90" y2="447.8"/>
			<line class="st13" x1="97.2" y1="438.1" x2="168.2" y2="438.1"/>
			<line class="st13" x1="65.7" y1="491.8" x2="132.7" y2="491.8"/>
			<line class="st13" x1="65.7" y1="501" x2="132.7" y2="501"/>
			<line class="st13" x1="65.7" y1="509.9" x2="132.7" y2="509.9"/>
			<line class="st13" x1="65.7" y1="518.7" x2="132.7" y2="518.7"/>
			<rect x="97.2" y="458.1" class="st7" width="66.8" height="26.3"/>
			<rect x="67.7" y="460.7" class="st9" width="22.9" height="22.4"/>
			<rect x="137.1" y="489.5" class="st9" width="27" height="31.5"/>
			<line class="st13" x1="60.8" y1="438.1" x2="65.7" y2="438.1"/>
			<line class="st13" x1="69.9" y1="438.1" x2="74.8" y2="438.1"/>
			<line class="st13" x1="78.5" y1="438.1" x2="83.4" y2="438.1"/>
			<line class="st13" x1="120.4" y1="471.9" x2="125.3" y2="471.9"/>
			<line class="st13" x1="129.5" y1="471.9" x2="134.4" y2="471.9"/>
			<line class="st13" x1="138.1" y1="471.9" x2="143" y2="471.9"/>
			<g>
				<g>
					<path class="st15" d="M231.7,550.8h-57.1c-1.6,0-2.8-1.3-2.8-2.8v-83.9c0-1.6,1.3-2.8,2.8-2.8h57.1c1.6,0,2.8,1.3,2.8,2.8V548
						C234.5,549.5,233.3,550.8,231.7,550.8z"/>
					<line class="st16" x1="198.1" y1="466.4" x2="208.3" y2="466.4"/>
					<circle class="st16" cx="203.2" cy="544.4" r="3.5"/>
					<polyline class="st12" points="229.9,538.5 229.9,473.2 176.4,538.5 					"/>
					<rect x="176.4" y="469.9" class="st16" width="53.5" height="68.7"/>
					<rect x="180.5" y="473.2" class="st9" width="45.3" height="62.1"/>
				</g>
				<rect id="XMLID_14_" x="189.6" y="489.5" class="st3" width="27.2" height="3.9"/>
				<rect id="XMLID_13_" x="195.7" y="508" class="st7" width="14.9" height="3.9"/>
				<line class="st13" x1="192.4" y1="498" x2="213.9" y2="498"/>
				<line class="st13" x1="192.4" y1="503" x2="213.9" y2="503"/>
			</g>
			<g>
				<g>
					<path class="st15" d="M181,556h-27.6c-1.6,0-2.8-1.3-2.8-2.8V499c0-1.6,1.3-2.8,2.8-2.8H181c1.6,0,2.8,1.3,2.8,2.8v54.1
						C183.8,554.7,182.5,556,181,556z"/>
					<line class="st16" x1="163.4" y1="501.7" x2="170.9" y2="501.7"/>
					<line class="st16" x1="165.3" y1="499.8" x2="169" y2="499.8"/>
					<circle class="st16" cx="167.2" cy="551" r="2.2"/>
					<polyline class="st12" points="181.3,547.8 181.3,504.2 153,547.8 					"/>
					<rect x="153.7" y="505.3" class="st16" width="26.9" height="41.3"/>
					<rect x="156.2" y="508" class="st7" width="22" height="36"/>
				</g>
				<rect id="XMLID_12_" x="160.1" y="519.2" class="st3" width="14.7" height="2.1"/>
				<rect id="XMLID_2_" x="163.4" y="529.1" class="st9" width="8.1" height="2.1"/>
				<line class="st16" x1="161.6" y1="523.7" x2="173.3" y2="523.7"/>
				<line class="st16" x1="161.6" y1="526.5" x2="173.3" y2="526.5"/>
			</g>
		</g>
		<g>
			<g>
				<g>
					<g>
						<path class="st9" d="M489.7,451.3c0-11.2,0-33.5,0-33.5h-55.9v33.5c0,0,0,11.2,11.2,11.2c17,0,55.9,0,55.9,0
							S489.7,462.4,489.7,451.3z"/>
					</g>
				</g>
				<g>
					<path d="M506.5,463.1h-5.6c-0.1,0-11.9-0.1-11.9-11.9v-34.2h7v34.2c0,10.3,10,10.5,10.5,10.5V463.1z M490.4,418.5v32.8
						c0,9.9,9.1,10.4,10.4,10.5c-3-1.5-6.2-4.4-6.2-10.5v-32.8H490.4z"/>
				</g>
				<g>
					<path class="st7" d="M512.1,451.3c0-11.2,11.2-11.2,11.2-11.2h-55.9c0,0-11.2,0-11.2,11.2c0,11.2-11.2,11.2-11.2,11.2l56,0.1
						C502.4,462.4,512.1,461.7,512.1,451.3z"/>
				</g>
				<g>
					<g>
						<path class="st9" d="M523.3,440.1c-8.9,0-42.4,0-55.9,0c0,0,11.2,0,11.2,11.2c0,11.2,0,55.9,0,55.9l55.9,0v-55.9
							C534.4,451.3,534.4,440.1,523.3,440.1z"/>
					</g>
				</g>
				<g>
					<rect x="433.9" y="422.3" class="st3" width="55.2" height="1.4"/>
				</g>
				<g>
					<rect x="478.4" y="456.2" class="st3" width="56.2" height="1.4"/>
				</g>
				<g>
					<rect x="478.4" y="478.4" class="st3" width="56.2" height="1.4"/>
				</g>
				<g>
					<rect x="478.4" y="500.8" class="st3" width="56.2" height="1.4"/>
				</g>
				<g>
					<rect x="433.9" y="445" class="st3" width="18" height="1.4"/>
				</g>
				<g>
					<path d="M445.1,463.1h-5.6c-11.7,0-11.9-11.8-11.9-11.9v-34.2h7v34.2c0,0.4,0.1,10.5,10.5,10.5V463.1z M429,418.5v32.8
						c0,0.4,0.1,10.1,10,10.5c-5.7-3.1-5.8-10.4-5.8-10.5v-32.8H429z"/>
				</g>
				<g>
					<rect x="464.6" y="439.4" width="58.7" height="1.4"/>
				</g>
				<g>
					<path d="M479.3,507.8h-7v-56.6c0-10.4-10-10.5-10.5-10.5v-1.4h5.6c0.1,0,11.9,0.1,11.9,11.9V507.8z M473.7,506.4h4.2v-55.2
						c0-9.9-9.1-10.4-10.4-10.5c3,1.5,6.2,4.4,6.2,10.5V506.4z"/>
				</g>
				<g>
					<path d="M540.7,507.8h-7l0-56.6c0-0.4-0.1-10.5-10.5-10.5v-1.4h5.6c11.7,0,11.9,11.8,11.9,11.9V507.8z M535.1,506.4h4.2v-55.2
						c0-0.4-0.1-10.1-10-10.5c5.7,3.1,5.8,10.4,5.8,10.5V506.4z"/>
				</g>
				<g>
					<path d="M445.1,463.1v-1.3c-2.8,1.3-5.5,1.3-5.6,1.3v-1.4c0.4,0,10.5-0.1,10.5-10.5c0-11.7,11.8-11.9,11.9-11.9h5.6v1.4
						c-0.4,0-10.5,0.1-10.5,10.5C456.9,463,445.2,463.1,445.1,463.1z M461.7,440.8c-1.2,0-10.4,0.6-10.4,10.5c0,6-3.1,9-6.2,10.5
						c1.2,0,10.4-0.6,10.4-10.5C455.5,445.2,458.7,442.3,461.7,440.8z"/>
				</g>
			</g>
			<g>
				<g>
					<rect x="507.2" y="506.7" class="st17" width="80.1" height="52.1"/>
				</g>
				<path class="st7" d="M511.3,511.4v42.7h72.5v-42.7H511.3z"/>
				<polygon class="st3" points="543.2,537.8 543.2,527.8 552,532.7 				"/>
				<g>
					<g>
						<rect x="507.2" y="498.4" class="st7" width="80.1" height="8"/>
					</g>
					<g>
						<g>
							<polygon class="st3" points="515.6,506.7 514.9,506 522.8,498.1 523.5,498.8 							"/>
						</g>
						<g>
							<polygon class="st3" points="523.6,506.7 522.8,506 530.8,498.1 531.5,498.8 							"/>
						</g>
						<g>
							
								<rect x="529.6" y="501.9" transform="matrix(0.7072 -0.7071 0.7071 0.7072 -198.4734 525.5891)" class="st3" width="11.2" height="1"/>
						</g>
						<g>
							<polygon class="st3" points="539.6,506.7 538.9,506 546.9,498.1 547.6,498.8 							"/>
						</g>
						<g>
							<polygon class="st3" points="547.7,506.7 547,506 554.9,498.1 555.6,498.8 							"/>
						</g>
						<g>
							
								<rect x="553.6" y="501.9" transform="matrix(0.7071 -0.7071 0.7071 0.7071 -191.4418 542.6127)" class="st3" width="11.2" height="1"/>
						</g>
						<g>
							
								<rect x="561.7" y="501.9" transform="matrix(0.707 -0.7072 0.7072 0.707 -189.0801 548.4056)" class="st3" width="11.2" height="1"/>
						</g>
						<g>
							
								<rect x="569.7" y="501.9" transform="matrix(0.7053 -0.7089 0.7089 0.7053 -186.6165 555.8727)" class="st3" width="11.2" height="1"/>
						</g>
						<g>
							<polygon class="st3" points="579.7,506.7 579,506 587,498.1 587.7,498.8 							"/>
						</g>
						<g>
							
								<rect x="505.7" y="501.9" transform="matrix(0.7071 -0.7072 0.7072 0.7071 -205.5276 508.6808)" class="st3" width="11.1" height="1"/>
						</g>
					</g>
				</g>
				<g>
					<g>
						
							<rect x="506.2" y="484.4" transform="matrix(0.9887 -0.1502 0.1502 0.9887 -67.1588 87.5814)" class="st7" width="80.1" height="8"/>
					</g>
					<g>
						<g>
							
								<rect x="512.8" y="492.1" transform="matrix(0.5929 -0.8053 0.8053 0.5929 -185.6388 618.0715)" class="st3" width="11.2" height="1"/>
						</g>
						<g>
							
								<rect x="520.7" y="490.9" transform="matrix(0.5933 -0.805 0.805 0.5933 -181.5323 623.5667)" class="st3" width="11.2" height="1"/>
						</g>
						<g>
							
								<rect x="528.7" y="489.7" transform="matrix(0.5925 -0.8056 0.8056 0.5925 -177.1554 630.2524)" class="st3" width="11.2" height="1"/>
						</g>
						<g>
							
								<rect x="536.6" y="488.5" transform="matrix(0.5907 -0.8069 0.8069 0.5907 -172.6489 637.6935)" class="st3" width="11.2" height="1"/>
						</g>
						<g>
							
								<rect x="544.6" y="487.3" transform="matrix(0.5934 -0.8049 0.8049 0.5934 -168.9333 641.2227)" class="st3" width="11.2" height="1"/>
						</g>
						<g>
							<polygon class="st3" points="555.2,491.4 554.4,490.8 561,481.8 561.8,482.4 							"/>
						</g>
						<g>
							
								<rect x="560.4" y="484.9" transform="matrix(0.5933 -0.805 0.805 0.5933 -160.5315 653.0967)" class="st3" width="11.2" height="1"/>
						</g>
						<g>
							
								<rect x="568.3" y="483.7" transform="matrix(0.5928 -0.8054 0.8054 0.5928 -156.2487 659.4151)" class="st3" width="11.2" height="1"/>
						</g>
						<g>
							
								<rect x="576.3" y="482.5" transform="matrix(0.5936 -0.8047 0.8047 0.5936 -152.2336 664.5322)" class="st3" width="11.2" height="1"/>
						</g>
						<g>
							
								<rect x="505" y="493.4" transform="matrix(0.5904 -0.8071 0.8071 0.5904 -189.4623 614.3825)" class="st3" width="11.1" height="1"/>
						</g>
					</g>
				</g>
				<polygon class="st18" points="506,490.4 506.9,498 586.4,486.3 584.8,478.2 				"/>
				<polygon class="st18" points="506.9,498 507.2,506.7 587.3,506.7 587.3,498.4 				"/>
			</g>
		</g>
	</g>
</g>
</svg>
