<?xml version="1.0" encoding="utf-8"?>
<!-- Generator: Adobe Illustrator 20.0.0, SVG Export Plug-In . SVG Version: 6.00 Build 0)  -->
<svg version="1.1" id="Layer_1" xmlns="http://www.w3.org/2000/svg" xmlns:xlink="http://www.w3.org/1999/xlink" x="0px" y="0px"
	 viewBox="0 0 463.5 275.9" style="enable-background:new 0 0 463.5 275.9;" xml:space="preserve">
<style type="text/css">
	.st0{fill:none;stroke:#000000;stroke-width:1.0387;stroke-miterlimit:10;}
	.st1{fill:none;stroke:#000000;stroke-miterlimit:10;}
	.st2{fill:none;stroke:#000000;stroke-width:0.3639;stroke-miterlimit:10;}
	.st3{fill:#FFFFFF;}
	.st4{fill:#ECF8FE;}
	.st5{fill:#27BDBE;}
	.st6{fill:#FFE06A;}
	.st7{fill:#D9D9D9;}
	.st8{fill:#999999;}
	.st9{fill:#BFBFBF;}
	.st10{fill:#FFFFFF;stroke:#000000;stroke-width:1.5873;stroke-miterlimit:10;}
	.st11{fill:none;stroke:#000000;stroke-width:1.5873;stroke-linecap:round;stroke-linejoin:round;stroke-miterlimit:10;}
	.st12{fill:none;stroke:#000000;stroke-width:0.8323;stroke-linecap:round;stroke-linejoin:round;stroke-miterlimit:10;}
	.st13{fill:#CFCDCD;}
	.st14{fill:#C9E9E6;}
	.st15{fill:none;stroke:#000000;stroke-width:0.8889;stroke-miterlimit:10;}
	.st16{fill:none;stroke:#FFFFFF;stroke-miterlimit:10;}
</style>
<g>
	<g>
		<g>
			<path d="M282.6,220.6c-0.2-0.6-0.3-1.3-0.3-3.2c0-1.9,0.1-2.6,0.3-3.2c0.5-1.6,1.7-2.4,3.5-2.4c1.8,0,3,0.8,3.5,2.4
				c0.2,0.6,0.3,1.3,0.3,3.2c0,1.9-0.1,2.6-0.3,3.2c-0.5,1.6-1.7,2.4-3.5,2.4C284.3,223,283.1,222.2,282.6,220.6z M288.7,214.5
				c-0.4-1.2-1.3-1.8-2.6-1.8c-1.4,0-2.2,0.6-2.6,1.8c-0.1,0.4-0.3,1.1-0.3,2.9c0,1.8,0.1,2.5,0.3,2.9c0.4,1.2,1.3,1.8,2.6,1.8
				c1.3,0,2.2-0.6,2.6-1.8c0.1-0.4,0.3-1.1,0.3-2.9C289,215.7,288.8,214.9,288.7,214.5z"/>
			<path d="M293.7,212.1c0-0.1,0.1-0.2,0.2-0.2h0.6c0.1,0,0.2,0,0.3,0.2l5.4,8.9h0v-8.9c0-0.1,0.1-0.2,0.2-0.2h0.6
				c0.1,0,0.2,0.1,0.2,0.2v10.6c0,0.1-0.1,0.2-0.2,0.2h-0.6c-0.1,0-0.2,0-0.3-0.2l-5.4-9h-0.1v9c0,0.1-0.1,0.2-0.2,0.2h-0.6
				c-0.1,0-0.2-0.1-0.2-0.2V212.1z"/>
			<path d="M305.4,212.1c0-0.1,0.1-0.2,0.2-0.2h0.6c0.1,0,0.2,0.1,0.2,0.2v9.8c0,0.1,0,0.1,0.1,0.1h5.4c0.1,0,0.2,0.1,0.2,0.2v0.5
				c0,0.1-0.1,0.2-0.2,0.2h-6.2c-0.1,0-0.2-0.1-0.2-0.2V212.1z"/>
			<path d="M315.2,212.1c0-0.1,0.1-0.2,0.2-0.2h0.6c0.1,0,0.2,0.1,0.2,0.2v10.6c0,0.1-0.1,0.2-0.2,0.2h-0.6c-0.1,0-0.2-0.1-0.2-0.2
				V212.1z"/>
			<path d="M320.4,212.1c0-0.1,0.1-0.2,0.2-0.2h0.6c0.1,0,0.2,0,0.3,0.2l5.4,8.9h0v-8.9c0-0.1,0.1-0.2,0.2-0.2h0.6
				c0.1,0,0.2,0.1,0.2,0.2v10.6c0,0.1-0.1,0.2-0.2,0.2H327c-0.1,0-0.2,0-0.3-0.2l-5.4-9h-0.1v9c0,0.1-0.1,0.2-0.2,0.2h-0.6
				c-0.1,0-0.2-0.1-0.2-0.2V212.1z"/>
			<path d="M332.1,212.1c0-0.1,0.1-0.2,0.2-0.2h6.2c0.1,0,0.2,0.1,0.2,0.2v0.5c0,0.1-0.1,0.2-0.2,0.2h-5.4c-0.1,0-0.1,0-0.1,0.1v3.9
				c0,0.1,0,0.1,0.1,0.1h4.6c0.1,0,0.2,0.1,0.2,0.2v0.5c0,0.1-0.1,0.2-0.2,0.2h-4.6c-0.1,0-0.1,0-0.1,0.1v4c0,0.1,0,0.1,0.1,0.1h5.4
				c0.1,0,0.2,0.1,0.2,0.2v0.5c0,0.1-0.1,0.2-0.2,0.2h-6.2c-0.1,0-0.2-0.1-0.2-0.2V212.1z"/>
			<path d="M347.5,212.1c0-0.1,0.1-0.2,0.2-0.2h3.4c1.8,0,3,0.7,3.5,2.2c0.2,0.6,0.3,1.2,0.3,3.2c0,2-0.1,2.6-0.3,3.2
				c-0.5,1.5-1.7,2.2-3.5,2.2h-3.4c-0.1,0-0.2-0.1-0.2-0.2V212.1z M348.5,222h2.4c1.4,0,2.3-0.5,2.7-1.6c0.2-0.5,0.3-1.1,0.3-2.9
				c0-1.8-0.1-2.4-0.3-2.9c-0.4-1.2-1.3-1.6-2.7-1.6h-2.4c-0.1,0-0.1,0-0.1,0.1L348.5,222C348.4,222,348.4,222,348.5,222z"/>
			<path d="M358.7,212.1c0-0.1,0.1-0.2,0.2-0.2h0.6c0.1,0,0.2,0.1,0.2,0.2v10.6c0,0.1-0.1,0.2-0.2,0.2h-0.6c-0.1,0-0.2-0.1-0.2-0.2
				V212.1z"/>
			<path d="M363.4,217.4c0-1.9,0.1-2.6,0.3-3.2c0.5-1.6,1.8-2.4,3.6-2.4c1.8,0,2.9,0.9,3.4,2c0,0.1,0,0.2-0.1,0.2l-0.5,0.3
				c-0.1,0-0.2,0-0.2-0.1c-0.5-1-1.3-1.6-2.6-1.6c-1.3,0-2.3,0.6-2.7,1.8c-0.1,0.4-0.3,1.1-0.3,2.9c0,1.8,0.1,2.5,0.3,2.9
				c0.4,1.2,1.3,1.8,2.7,1.8c1.3,0,2.3-0.6,2.7-1.8c0.1-0.4,0.3-1,0.3-2.1c0-0.1,0-0.1-0.1-0.1h-2.5c-0.1,0-0.2-0.1-0.2-0.2v-0.5
				c0-0.1,0.1-0.2,0.2-0.2h3.3c0.1,0,0.2,0.1,0.2,0.2v0.7c0,1.1-0.1,1.9-0.3,2.4c-0.5,1.6-1.8,2.5-3.5,2.5c-1.8,0-3-0.8-3.6-2.4
				C363.5,220,363.4,219.3,363.4,217.4z"/>
			<path d="M374.9,212.1c0-0.1,0.1-0.2,0.2-0.2h0.6c0.1,0,0.2,0.1,0.2,0.2v10.6c0,0.1-0.1,0.2-0.2,0.2H375c-0.1,0-0.2-0.1-0.2-0.2
				V212.1z"/>
			<path d="M382.5,222.9c-0.1,0-0.2-0.1-0.2-0.2v-9.8c0-0.1,0-0.1-0.1-0.1h-3.1c-0.1,0-0.2-0.1-0.2-0.2v-0.5c0-0.1,0.1-0.2,0.2-0.2
				h7.4c0.1,0,0.2,0.1,0.2,0.2v0.5c0,0.1-0.1,0.2-0.2,0.2h-3.1c-0.1,0-0.1,0-0.1,0.1v9.8c0,0.1-0.1,0.2-0.2,0.2H382.5z"/>
			<path d="M391.4,212.1c0-0.1,0.1-0.2,0.2-0.2h0.6c0.1,0,0.2,0.1,0.2,0.2l3.8,10.6c0,0.1,0,0.2-0.1,0.2h-0.6c-0.1,0-0.2,0-0.2-0.2
				l-1-2.7h-4.7l-1,2.7c0,0.1-0.1,0.2-0.2,0.2h-0.6c-0.1,0-0.1-0.1-0.1-0.2L391.4,212.1z M393.9,219.1l-2-5.7h0l-2,5.7H393.9z"/>
			<path d="M399.4,212.1c0-0.1,0.1-0.2,0.2-0.2h0.6c0.1,0,0.2,0.1,0.2,0.2v9.8c0,0.1,0,0.1,0.1,0.1h5.4c0.1,0,0.2,0.1,0.2,0.2v0.5
				c0,0.1-0.1,0.2-0.2,0.2h-6.2c-0.1,0-0.2-0.1-0.2-0.2V212.1z"/>
			<path d="M306,244.6c-0.1,0-0.2-0.1-0.2-0.2v-10.6c0-0.1,0.1-0.2,0.2-0.2h3.6c2.1,0,3.3,1.2,3.3,3.1c0,1.9-1.3,3.1-3.3,3.1h-2.8
				c-0.1,0-0.1,0-0.1,0.1v4.5c0,0.1-0.1,0.2-0.2,0.2H306z M312.1,236.8c0-1.4-0.9-2.2-2.5-2.2h-2.8c-0.1,0-0.1,0-0.1,0.1v4.2
				c0,0.1,0,0.1,0.1,0.1h2.8C311.2,239,312.1,238.2,312.1,236.8z"/>
			<path d="M316.5,233.9c0-0.1,0.1-0.2,0.2-0.2h0.6c0.1,0,0.2,0.1,0.2,0.2v9.8c0,0.1,0,0.1,0.1,0.1h5.4c0.1,0,0.2,0.1,0.2,0.2v0.5
				c0,0.1-0.1,0.2-0.2,0.2h-6.2c-0.1,0-0.2-0.1-0.2-0.2V233.9z"/>
			<path d="M329.1,233.9c0-0.1,0.1-0.2,0.2-0.2h0.6c0.1,0,0.2,0.1,0.2,0.2l3.8,10.6c0,0.1,0,0.2-0.1,0.2h-0.6c-0.1,0-0.2,0-0.2-0.2
				l-1-2.7h-4.7l-1,2.7c0,0.1-0.1,0.2-0.2,0.2h-0.6c-0.1,0-0.1-0.1-0.1-0.2L329.1,233.9z M331.6,240.9l-2-5.7h0l-2,5.7H331.6z"/>
			<path d="M338.3,244.6c-0.1,0-0.2-0.1-0.2-0.2v-9.8c0-0.1,0-0.1-0.1-0.1h-3.1c-0.1,0-0.2-0.1-0.2-0.2v-0.5c0-0.1,0.1-0.2,0.2-0.2
				h7.4c0.1,0,0.2,0.1,0.2,0.2v0.5c0,0.1-0.1,0.2-0.2,0.2h-3.1c-0.1,0-0.1,0-0.1,0.1v9.8c0,0.1-0.1,0.2-0.2,0.2H338.3z"/>
			<path d="M345.6,233.9c0-0.1,0.1-0.2,0.2-0.2h6.2c0.1,0,0.2,0.1,0.2,0.2v0.5c0,0.1-0.1,0.2-0.2,0.2h-5.4c-0.1,0-0.1,0-0.1,0.1v4
				c0,0.1,0,0.1,0.1,0.1h4.6c0.1,0,0.2,0.1,0.2,0.2v0.5c0,0.1-0.1,0.2-0.2,0.2h-4.6c-0.1,0-0.1,0-0.1,0.1v4.7c0,0.1-0.1,0.2-0.2,0.2
				h-0.6c-0.1,0-0.2-0.1-0.2-0.2V233.9z"/>
			<path d="M355.5,242.3c-0.2-0.6-0.3-1.3-0.3-3.2c0-1.9,0.1-2.6,0.3-3.2c0.5-1.6,1.7-2.4,3.5-2.4c1.8,0,3,0.8,3.5,2.4
				c0.2,0.6,0.3,1.3,0.3,3.2c0,1.9-0.1,2.6-0.3,3.2c-0.5,1.6-1.7,2.4-3.5,2.4C357.3,244.8,356.1,243.9,355.5,242.3z M361.7,236.3
				c-0.4-1.2-1.3-1.8-2.6-1.8c-1.4,0-2.2,0.6-2.6,1.8c-0.1,0.4-0.3,1.1-0.3,2.9c0,1.8,0.1,2.5,0.3,2.9c0.4,1.2,1.3,1.8,2.6,1.8
				c1.3,0,2.2-0.6,2.6-1.8c0.1-0.4,0.3-1.1,0.3-2.9C362,237.4,361.8,236.7,361.7,236.3z"/>
			<path d="M373.2,244.6c-0.1,0-0.1,0-0.2-0.1l-2.3-4.7h-0.2h-2.8c-0.1,0-0.1,0-0.1,0.1v4.6c0,0.1-0.1,0.2-0.2,0.2h-0.6
				c-0.1,0-0.2-0.1-0.2-0.2v-10.6c0-0.1,0.1-0.2,0.2-0.2h3.6c2,0,3.3,1.2,3.3,3c0,1.5-0.8,2.5-2.2,2.9l2.4,4.8
				c0.1,0.1,0,0.2-0.1,0.2H373.2z M372.9,236.7c0-1.4-0.9-2.1-2.4-2.1h-2.8c-0.1,0-0.1,0-0.1,0.1v4.1c0,0.1,0,0.1,0.1,0.1h2.8
				C372.1,238.9,372.9,238.1,372.9,236.7z"/>
			<path d="M377.8,233.9c0-0.1,0.1-0.2,0.2-0.2h0.6c0.1,0,0.2,0,0.2,0.2l3.5,7.8h0.1l3.5-7.8c0-0.1,0.1-0.2,0.2-0.2h0.6
				c0.1,0,0.2,0.1,0.2,0.2v10.6c0,0.1-0.1,0.2-0.2,0.2h-0.6c-0.1,0-0.2-0.1-0.2-0.2v-8.5h0l-3.1,6.9c-0.1,0.1-0.1,0.2-0.3,0.2h-0.3
				c-0.1,0-0.2,0-0.3-0.2l-3.1-6.9h0v8.5c0,0.1-0.1,0.2-0.2,0.2H378c-0.1,0-0.2-0.1-0.2-0.2V233.9z"/>
		</g>
	</g>
	<g>
		<polygon class="st4" points="383,50.6 262.4,135.3 383,135.3 		"/>
		<rect x="266.3" y="35.3" class="st5" width="113" height="12.2"/>
		<rect x="251.6" y="134.2" width="142.5" height="2.1"/>
		<polygon points="384,135.3 381.9,135.3 381.9,33.2 263.4,33.2 263.4,135.3 261.3,135.3 261.3,31.1 384,31.1 		"/>
		<rect x="262.4" y="49.6" width="120.6" height="2"/>
		<rect x="297" y="32.2" width="2" height="18.5"/>
		<rect x="305.2" y="39.8" width="70.9" height="2.1"/>
		<rect x="273.6" y="93.5" width="67" height="2.1"/>
		<rect x="273.6" y="102.7" width="67" height="2.1"/>
		<rect x="273.6" y="111.7" width="67" height="2.1"/>
		<rect x="273.6" y="120.5" width="67" height="2.1"/>
		<rect x="305.2" y="60.9" class="st6" width="66.8" height="26.3"/>
		<rect x="275.6" y="63.6" class="st5" width="22.9" height="22.4"/>
		<rect x="345" y="92.4" class="st5" width="27" height="31.5"/>
		<rect x="268.7" y="39.8" width="4.9" height="2.1"/>
		<rect x="277.8" y="39.8" width="4.9" height="2.1"/>
		<rect x="286.5" y="39.8" width="4.9" height="2.1"/>
		<rect x="328.3" y="73.7" width="4.9" height="2.1"/>
		<rect x="337.4" y="73.7" width="4.9" height="2.1"/>
		<rect x="346.1" y="73.7" width="4.9" height="2.1"/>
		<g>
			<g>
				<g>
					<path class="st3" d="M439.7,153.6h-57.1c-1.6,0-2.8-1.3-2.8-2.8V66.9c0-1.6,1.3-2.8,2.8-2.8h57.1c1.6,0,2.8,1.3,2.8,2.8v83.9
						C442.5,152.4,441.2,153.6,439.7,153.6z"/>
					<path d="M439.7,154.7h-57.1c-2.1,0-3.9-1.7-3.9-3.9V66.9c0-2.1,1.7-3.9,3.9-3.9h57.1c2.1,0,3.9,1.7,3.9,3.9v83.9
						C443.5,152.9,441.8,154.7,439.7,154.7z M382.6,65.2c-1,0-1.8,0.8-1.8,1.8v83.9c0,1,0.8,1.8,1.8,1.8h57.1c1,0,1.8-0.8,1.8-1.8
						V66.9c0-1-0.8-1.8-1.8-1.8H382.6z"/>
				</g>
				<rect x="406" y="68.7" width="10.2" height="1.1"/>
				<path d="M411.1,151.3c-2.2,0-4-1.8-4-4c0-2.2,1.8-4,4-4c2.2,0,4,1.8,4,4C415.2,149.5,413.3,151.3,411.1,151.3z M411.1,144.2
					c-1.6,0-3,1.3-3,3c0,1.6,1.3,3,3,3c1.6,0,3-1.3,3-3C414.1,145.6,412.8,144.2,411.1,144.2z"/>
				<polyline class="st4" points="437.9,141.3 437.9,76 384.4,141.3 				"/>
				<path d="M438.4,141.9h-54.5V72.2h54.5V141.9z M384.9,140.8h52.4V73.2h-52.4V140.8z"/>
				<rect x="388.5" y="76" class="st5" width="45.3" height="62.1"/>
			</g>
			<rect id="XMLID_11_" x="397.5" y="92.4" class="st3" width="27.2" height="3.9"/>
			<rect id="XMLID_7_" x="403.6" y="110.8" class="st6" width="14.9" height="3.9"/>
			<rect x="400.3" y="99.7" width="21.6" height="2.1"/>
			<rect x="400.3" y="104.8" width="21.6" height="2.1"/>
		</g>
		<g>
			<g>
				<g>
					<path class="st3" d="M388.9,158.8h-27.6c-1.6,0-2.8-1.3-2.8-2.8v-54.1c0-1.6,1.3-2.8,2.8-2.8h27.6c1.6,0,2.8,1.3,2.8,2.8V156
						C391.7,157.5,390.5,158.8,388.9,158.8z"/>
					<path d="M388.9,159.8h-27.6c-2.1,0-3.9-1.7-3.9-3.9v-54.1c0-2.1,1.7-3.9,3.9-3.9h27.6c2.1,0,3.9,1.7,3.9,3.9V156
						C392.8,158.1,391.1,159.8,388.9,159.8z M361.3,100.1c-1,0-1.8,0.8-1.8,1.8V156c0,1,0.8,1.8,1.8,1.8h27.6c1,0,1.8-0.8,1.8-1.8
						v-54.1c0-1-0.8-1.8-1.8-1.8H361.3z"/>
				</g>
				<rect x="371.4" y="104" width="7.5" height="1.1"/>
				<rect x="373.2" y="102.1" width="3.7" height="1.1"/>
				<path d="M375.1,156.5c-1.5,0-2.7-1.2-2.7-2.7c0-1.5,1.2-2.7,2.7-2.7c1.5,0,2.7,1.2,2.7,2.7C377.8,155.3,376.6,156.5,375.1,156.5
					z M375.1,152.1c-0.9,0-1.7,0.8-1.7,1.7c0,0.9,0.8,1.7,1.7,1.7c0.9,0,1.7-0.8,1.7-1.7C376.8,152.9,376,152.1,375.1,152.1z"/>
				<polyline class="st4" points="389.3,150.6 389.3,107 360.9,150.6 				"/>
				<path d="M389.1,150h-27.9v-42.4h27.9V150z M362.2,148.9H388v-40.3h-25.8V148.9z"/>
				<rect x="364.1" y="110.8" class="st6" width="22" height="36"/>
			</g>
			<rect id="XMLID_6_" x="368" y="122" class="st3" width="14.7" height="2.1"/>
			<rect id="XMLID_1_" x="371.3" y="132" class="st5" width="8.1" height="2.1"/>
			<rect x="369.5" y="126" width="11.7" height="1.1"/>
			<rect x="369.5" y="128.8" width="11.7" height="1.1"/>
		</g>
	</g>
</g>
<g>
	<g>
		<g>
			<path d="M50.5,220.6c-0.2-0.6-0.3-1.3-0.3-3.2c0-1.9,0.1-2.6,0.3-3.2c0.5-1.6,1.7-2.4,3.5-2.4c1.8,0,3,0.8,3.5,2.4
				c0.2,0.6,0.3,1.3,0.3,3.2c0,1.9-0.1,2.6-0.3,3.2c-0.5,1.6-1.7,2.4-3.5,2.4C52.2,223,51,222.2,50.5,220.6z M56.6,214.5
				c-0.4-1.2-1.3-1.8-2.6-1.8c-1.4,0-2.2,0.6-2.6,1.8c-0.1,0.4-0.3,1.1-0.3,2.9c0,1.8,0.1,2.5,0.3,2.9c0.4,1.2,1.3,1.8,2.6,1.8
				c1.3,0,2.2-0.6,2.6-1.8c0.1-0.4,0.3-1.1,0.3-2.9C56.9,215.7,56.8,214.9,56.6,214.5z"/>
			<path d="M61.7,212.1c0-0.1,0.1-0.2,0.2-0.2h0.6c0.1,0,0.2,0,0.3,0.2l5.4,8.9h0v-8.9c0-0.1,0.1-0.2,0.2-0.2h0.6
				c0.1,0,0.2,0.1,0.2,0.2v10.6c0,0.1-0.1,0.2-0.2,0.2h-0.6c-0.1,0-0.2,0-0.3-0.2l-5.4-9h-0.1v9c0,0.1-0.1,0.2-0.2,0.2h-0.6
				c-0.1,0-0.2-0.1-0.2-0.2V212.1z"/>
			<path d="M73.4,212.1c0-0.1,0.1-0.2,0.2-0.2h0.6c0.1,0,0.2,0.1,0.2,0.2v9.8c0,0.1,0,0.1,0.1,0.1h5.4c0.1,0,0.2,0.1,0.2,0.2v0.5
				c0,0.1-0.1,0.2-0.2,0.2h-6.2c-0.1,0-0.2-0.1-0.2-0.2V212.1z"/>
			<path d="M83.1,212.1c0-0.1,0.1-0.2,0.2-0.2h0.6c0.1,0,0.2,0.1,0.2,0.2v10.6c0,0.1-0.1,0.2-0.2,0.2h-0.6c-0.1,0-0.2-0.1-0.2-0.2
				V212.1z"/>
			<path d="M88.3,212.1c0-0.1,0.1-0.2,0.2-0.2h0.6c0.1,0,0.2,0,0.3,0.2l5.4,8.9h0v-8.9c0-0.1,0.1-0.2,0.2-0.2h0.6
				c0.1,0,0.2,0.1,0.2,0.2v10.6c0,0.1-0.1,0.2-0.2,0.2h-0.6c-0.1,0-0.2,0-0.3-0.2l-5.4-9h-0.1v9c0,0.1-0.1,0.2-0.2,0.2h-0.6
				c-0.1,0-0.2-0.1-0.2-0.2V212.1z"/>
			<path d="M100,212.1c0-0.1,0.1-0.2,0.2-0.2h6.2c0.1,0,0.2,0.1,0.2,0.2v0.5c0,0.1-0.1,0.2-0.2,0.2H101c-0.1,0-0.1,0-0.1,0.1v3.9
				c0,0.1,0,0.1,0.1,0.1h4.6c0.1,0,0.2,0.1,0.2,0.2v0.5c0,0.1-0.1,0.2-0.2,0.2H101c-0.1,0-0.1,0-0.1,0.1v4c0,0.1,0,0.1,0.1,0.1h5.4
				c0.1,0,0.2,0.1,0.2,0.2v0.5c0,0.1-0.1,0.2-0.2,0.2h-6.2c-0.1,0-0.2-0.1-0.2-0.2V212.1z"/>
			<path d="M115.4,212.1c0-0.1,0.1-0.2,0.2-0.2h3.4c1.8,0,3,0.7,3.5,2.2c0.2,0.6,0.3,1.2,0.3,3.2c0,2-0.1,2.6-0.3,3.2
				c-0.5,1.5-1.7,2.2-3.5,2.2h-3.4c-0.1,0-0.2-0.1-0.2-0.2V212.1z M116.4,222h2.4c1.4,0,2.3-0.5,2.7-1.6c0.2-0.5,0.3-1.1,0.3-2.9
				c0-1.8-0.1-2.4-0.3-2.9c-0.4-1.2-1.3-1.6-2.7-1.6h-2.4c-0.1,0-0.1,0-0.1,0.1L116.4,222C116.3,222,116.3,222,116.4,222z"/>
			<path d="M126.6,212.1c0-0.1,0.1-0.2,0.2-0.2h0.6c0.1,0,0.2,0.1,0.2,0.2v10.6c0,0.1-0.1,0.2-0.2,0.2h-0.6c-0.1,0-0.2-0.1-0.2-0.2
				V212.1z"/>
			<path d="M131.3,217.4c0-1.9,0.1-2.6,0.3-3.2c0.5-1.6,1.8-2.4,3.6-2.4c1.8,0,2.9,0.9,3.4,2c0,0.1,0,0.2-0.1,0.2l-0.5,0.3
				c-0.1,0-0.2,0-0.2-0.1c-0.5-1-1.3-1.6-2.6-1.6c-1.3,0-2.3,0.6-2.7,1.8c-0.1,0.4-0.3,1.1-0.3,2.9c0,1.8,0.1,2.5,0.3,2.9
				c0.4,1.2,1.3,1.8,2.7,1.8c1.3,0,2.3-0.6,2.7-1.8c0.1-0.4,0.3-1,0.3-2.1c0-0.1,0-0.1-0.1-0.1h-2.5c-0.1,0-0.2-0.1-0.2-0.2v-0.5
				c0-0.1,0.1-0.2,0.2-0.2h3.3c0.1,0,0.2,0.1,0.2,0.2v0.7c0,1.1-0.1,1.9-0.3,2.4c-0.5,1.6-1.8,2.5-3.5,2.5c-1.8,0-3-0.8-3.6-2.4
				C131.5,220,131.3,219.3,131.3,217.4z"/>
			<path d="M142.8,212.1c0-0.1,0.1-0.2,0.2-0.2h0.6c0.1,0,0.2,0.1,0.2,0.2v10.6c0,0.1-0.1,0.2-0.2,0.2H143c-0.1,0-0.2-0.1-0.2-0.2
				V212.1z"/>
			<path d="M150.4,222.9c-0.1,0-0.2-0.1-0.2-0.2v-9.8c0-0.1,0-0.1-0.1-0.1H147c-0.1,0-0.2-0.1-0.2-0.2v-0.5c0-0.1,0.1-0.2,0.2-0.2
				h7.4c0.1,0,0.2,0.1,0.2,0.2v0.5c0,0.1-0.1,0.2-0.2,0.2h-3.1c-0.1,0-0.1,0-0.1,0.1v9.8c0,0.1-0.1,0.2-0.2,0.2H150.4z"/>
			<path d="M159.3,212.1c0-0.1,0.1-0.2,0.2-0.2h0.6c0.1,0,0.2,0.1,0.2,0.2l3.8,10.6c0,0.1,0,0.2-0.1,0.2h-0.6c-0.1,0-0.2,0-0.2-0.2
				l-1-2.7h-4.7l-1,2.7c0,0.1-0.1,0.2-0.2,0.2h-0.6c-0.1,0-0.1-0.1-0.1-0.2L159.3,212.1z M161.9,219.1l-2-5.7h0l-2,5.7H161.9z"/>
			<path d="M167.3,212.1c0-0.1,0.1-0.2,0.2-0.2h0.6c0.1,0,0.2,0.1,0.2,0.2v9.8c0,0.1,0,0.1,0.1,0.1h5.4c0.1,0,0.2,0.1,0.2,0.2v0.5
				c0,0.1-0.1,0.2-0.2,0.2h-6.2c-0.1,0-0.2-0.1-0.2-0.2V212.1z"/>
			<path d="M74,244.6c-0.1,0-0.2-0.1-0.2-0.2v-10.6c0-0.1,0.1-0.2,0.2-0.2h3.6c2.1,0,3.3,1.2,3.3,3.1c0,1.9-1.3,3.1-3.3,3.1h-2.8
				c-0.1,0-0.1,0-0.1,0.1v4.5c0,0.1-0.1,0.2-0.2,0.2H74z M80,236.8c0-1.4-0.9-2.2-2.5-2.2h-2.8c-0.1,0-0.1,0-0.1,0.1v4.2
				c0,0.1,0,0.1,0.1,0.1h2.8C79.2,239,80,238.2,80,236.8z"/>
			<path d="M84.5,233.9c0-0.1,0.1-0.2,0.2-0.2h0.6c0.1,0,0.2,0.1,0.2,0.2v9.8c0,0.1,0,0.1,0.1,0.1h5.4c0.1,0,0.2,0.1,0.2,0.2v0.5
				c0,0.1-0.1,0.2-0.2,0.2h-6.2c-0.1,0-0.2-0.1-0.2-0.2V233.9z"/>
			<path d="M97,233.9c0-0.1,0.1-0.2,0.2-0.2h0.6c0.1,0,0.2,0.1,0.2,0.2l3.8,10.6c0,0.1,0,0.2-0.1,0.2H101c-0.1,0-0.2,0-0.2-0.2
				l-1-2.7h-4.7l-1,2.7c0,0.1-0.1,0.2-0.2,0.2h-0.6c-0.1,0-0.1-0.1-0.1-0.2L97,233.9z M99.5,240.9l-2-5.7h0l-2,5.7H99.5z"/>
			<path d="M106.3,244.6c-0.1,0-0.2-0.1-0.2-0.2v-9.8c0-0.1,0-0.1-0.1-0.1h-3.1c-0.1,0-0.2-0.1-0.2-0.2v-0.5c0-0.1,0.1-0.2,0.2-0.2
				h7.4c0.1,0,0.2,0.1,0.2,0.2v0.5c0,0.1-0.1,0.2-0.2,0.2h-3.1c-0.1,0-0.1,0-0.1,0.1v9.8c0,0.1-0.1,0.2-0.2,0.2H106.3z"/>
			<path d="M113.5,233.9c0-0.1,0.1-0.2,0.2-0.2h6.2c0.1,0,0.2,0.1,0.2,0.2v0.5c0,0.1-0.1,0.2-0.2,0.2h-5.4c-0.1,0-0.1,0-0.1,0.1v4
				c0,0.1,0,0.1,0.1,0.1h4.6c0.1,0,0.2,0.1,0.2,0.2v0.5c0,0.1-0.1,0.2-0.2,0.2h-4.6c-0.1,0-0.1,0-0.1,0.1v4.7c0,0.1-0.1,0.2-0.2,0.2
				h-0.6c-0.1,0-0.2-0.1-0.2-0.2V233.9z"/>
			<path d="M123.5,242.3c-0.2-0.6-0.3-1.3-0.3-3.2c0-1.9,0.1-2.6,0.3-3.2c0.5-1.6,1.7-2.4,3.5-2.4c1.8,0,3,0.8,3.5,2.4
				c0.2,0.6,0.3,1.3,0.3,3.2c0,1.9-0.1,2.6-0.3,3.2c-0.5,1.6-1.7,2.4-3.5,2.4C125.2,244.8,124,243.9,123.5,242.3z M129.6,236.3
				c-0.4-1.2-1.3-1.8-2.6-1.8c-1.4,0-2.2,0.6-2.6,1.8c-0.1,0.4-0.3,1.1-0.3,2.9c0,1.8,0.1,2.5,0.3,2.9c0.4,1.2,1.3,1.8,2.6,1.8
				c1.3,0,2.2-0.6,2.6-1.8c0.1-0.4,0.3-1.1,0.3-2.9C129.9,237.4,129.8,236.7,129.6,236.3z"/>
			<path d="M141.1,244.6c-0.1,0-0.1,0-0.2-0.1l-2.3-4.7h-0.2h-2.8c-0.1,0-0.1,0-0.1,0.1v4.6c0,0.1-0.1,0.2-0.2,0.2h-0.6
				c-0.1,0-0.2-0.1-0.2-0.2v-10.6c0-0.1,0.1-0.2,0.2-0.2h3.6c2,0,3.3,1.2,3.3,3c0,1.5-0.8,2.5-2.2,2.9l2.4,4.8
				c0.1,0.1,0,0.2-0.1,0.2H141.1z M140.9,236.7c0-1.4-0.9-2.1-2.4-2.1h-2.8c-0.1,0-0.1,0-0.1,0.1v4.1c0,0.1,0,0.1,0.1,0.1h2.8
				C140,238.9,140.9,238.1,140.9,236.7z"/>
			<path d="M145.8,233.9c0-0.1,0.1-0.2,0.2-0.2h0.6c0.1,0,0.2,0,0.2,0.2l3.5,7.8h0.1l3.5-7.8c0-0.1,0.1-0.2,0.2-0.2h0.6
				c0.1,0,0.2,0.1,0.2,0.2v10.6c0,0.1-0.1,0.2-0.2,0.2h-0.6c-0.1,0-0.2-0.1-0.2-0.2v-8.5h0l-3.1,6.9c-0.1,0.1-0.1,0.2-0.3,0.2h-0.3
				c-0.1,0-0.2,0-0.3-0.2l-3.1-6.9h0v8.5c0,0.1-0.1,0.2-0.2,0.2h-0.6c-0.1,0-0.2-0.1-0.2-0.2V233.9z"/>
		</g>
	</g>
	<g>
		<polygon class="st7" points="150.9,50.6 30.3,135.3 150.9,135.3 		"/>
		<rect x="34.2" y="35.3" class="st8" width="113" height="12.2"/>
		<rect x="19.5" y="134.2" width="142.5" height="2.1"/>
		<polygon points="152,135.3 149.9,135.3 149.9,33.2 31.3,33.2 31.3,135.3 29.2,135.3 29.2,31.1 152,31.1 		"/>
		<rect x="30.3" y="49.6" width="120.6" height="2"/>
		<rect x="64.9" y="32.2" width="2" height="18.5"/>
		<rect x="73.1" y="39.8" width="70.9" height="2.1"/>
		<rect x="41.6" y="93.5" width="67" height="2.1"/>
		<rect x="41.6" y="102.7" width="67" height="2.1"/>
		<rect x="41.6" y="111.7" width="67" height="2.1"/>
		<rect x="41.6" y="120.5" width="67" height="2.1"/>
		<rect x="73.1" y="60.9" class="st9" width="66.8" height="26.3"/>
		<rect x="43.6" y="63.6" class="st8" width="22.9" height="22.4"/>
		<rect x="113" y="92.4" class="st8" width="27" height="31.5"/>
		<rect x="36.7" y="39.8" width="4.9" height="2.1"/>
		<rect x="45.8" y="39.8" width="4.9" height="2.1"/>
		<rect x="54.4" y="39.8" width="4.9" height="2.1"/>
		<rect x="96.3" y="73.7" width="4.9" height="2.1"/>
		<rect x="105.4" y="73.7" width="4.9" height="2.1"/>
		<rect x="114" y="73.7" width="4.9" height="2.1"/>
		<g>
			<g>
				<g>
					<path class="st3" d="M207.6,153.6h-57.1c-1.6,0-2.8-1.3-2.8-2.8V66.9c0-1.6,1.3-2.8,2.8-2.8h57.1c1.6,0,2.8,1.3,2.8,2.8v83.9
						C210.4,152.4,209.2,153.6,207.6,153.6z"/>
					<path d="M207.6,154.7h-57.1c-2.1,0-3.9-1.7-3.9-3.9V66.9c0-2.1,1.7-3.9,3.9-3.9h57.1c2.1,0,3.9,1.7,3.9,3.9v83.9
						C211.5,152.9,209.7,154.7,207.6,154.7z M150.5,65.2c-1,0-1.8,0.8-1.8,1.8v83.9c0,1,0.8,1.8,1.8,1.8h57.1c1,0,1.8-0.8,1.8-1.8
						V66.9c0-1-0.8-1.8-1.8-1.8H150.5z"/>
				</g>
				<rect x="174" y="68.7" width="10.2" height="1.1"/>
				<path d="M179.1,151.3c-2.2,0-4-1.8-4-4c0-2.2,1.8-4,4-4c2.2,0,4,1.8,4,4C183.1,149.5,181.3,151.3,179.1,151.3z M179.1,144.2
					c-1.6,0-3,1.3-3,3c0,1.6,1.3,3,3,3c1.6,0,3-1.3,3-3C182,145.6,180.7,144.2,179.1,144.2z"/>
				<polyline class="st4" points="205.8,141.3 205.8,76 152.3,141.3 				"/>
				<path d="M206.3,141.9h-54.5V72.2h54.5V141.9z M152.8,140.8h52.4V73.2h-52.4V140.8z"/>
				<rect x="156.4" y="76" class="st8" width="45.3" height="62.1"/>
			</g>
			<rect id="XMLID_19_" x="165.5" y="92.4" class="st3" width="27.2" height="3.9"/>
			<rect id="XMLID_18_" x="171.6" y="110.8" class="st9" width="14.9" height="3.9"/>
			<rect x="168.3" y="99.7" width="21.6" height="2.1"/>
			<rect x="168.3" y="104.8" width="21.6" height="2.1"/>
		</g>
		<g>
			<g>
				<g>
					<path class="st3" d="M156.9,158.8h-27.6c-1.6,0-2.8-1.3-2.8-2.8v-54.1c0-1.6,1.3-2.8,2.8-2.8h27.6c1.6,0,2.8,1.3,2.8,2.8V156
						C159.7,157.5,158.4,158.8,156.9,158.8z"/>
					<path d="M156.9,159.8h-27.6c-2.1,0-3.9-1.7-3.9-3.9v-54.1c0-2.1,1.7-3.9,3.9-3.9h27.6c2.1,0,3.9,1.7,3.9,3.9V156
						C160.7,158.1,159,159.8,156.9,159.8z M129.2,100.1c-1,0-1.8,0.8-1.8,1.8V156c0,1,0.8,1.8,1.8,1.8h27.6c1,0,1.8-0.8,1.8-1.8
						v-54.1c0-1-0.8-1.8-1.8-1.8H129.2z"/>
				</g>
				<rect x="139.3" y="104" width="7.5" height="1.1"/>
				<rect x="141.2" y="102.1" width="3.7" height="1.1"/>
				<path d="M143,156.5c-1.5,0-2.7-1.2-2.7-2.7c0-1.5,1.2-2.7,2.7-2.7c1.5,0,2.7,1.2,2.7,2.7C145.8,155.3,144.6,156.5,143,156.5z
					 M143,152.1c-0.9,0-1.7,0.8-1.7,1.7c0,0.9,0.8,1.7,1.7,1.7c0.9,0,1.7-0.8,1.7-1.7C144.7,152.9,144,152.1,143,152.1z"/>
				<polyline class="st4" points="157.2,150.6 157.2,107 128.9,150.6 				"/>
				<path d="M157,150h-27.9v-42.4H157V150z M130.1,148.9H156v-40.3h-25.8V148.9z"/>
				<rect x="132.1" y="110.8" class="st9" width="22" height="36"/>
			</g>
			<rect id="XMLID_17_" x="136" y="122" class="st3" width="14.7" height="2.1"/>
			<rect id="XMLID_15_" x="139.3" y="132" class="st8" width="8.1" height="2.1"/>
			<rect x="137.5" y="126" width="11.7" height="1.1"/>
			<rect x="137.5" y="128.8" width="11.7" height="1.1"/>
		</g>
	</g>
</g>
</svg>
