<?xml version="1.0" encoding="utf-8"?>
<!-- Generator: Adobe Illustrator 20.0.0, SVG Export Plug-In . SVG Version: 6.00 Build 0)  -->
<svg version="1.1" id="Layer_1" xmlns="http://www.w3.org/2000/svg" xmlns:xlink="http://www.w3.org/1999/xlink" x="0px" y="0px"
	 viewBox="0 0 125 125" style="enable-background:new 0 0 125 125;" xml:space="preserve">
<style type="text/css">
	.st0{fill:#FFFFFF;}
	.st1{fill:#FFF450;}
	.st2{fill:#231F20;}
	.st3{fill:#6D68AF;}
	.st4{fill:#F26657;}
	.st5{clip-path:url(#SVGID_10_);}
</style>
<g>
	<g>
		<g>
			<g>
				<polyline class="st0" points="59.8,78 1.4,78 1.4,18.7 104.4,18.7 104.4,39.8 				"/>
			</g>
			<g>
				<polyline class="st1" points="59.3,67.2 5.7,67.2 5.7,23.6 100.1,23.6 100.1,39.1 				"/>
			</g>
			<g>
				<polygon class="st2" points="59.8,78.8 0.6,78.8 0.6,17.9 105.2,17.9 105.2,39.8 103.6,39.8 103.6,19.5 2.2,19.5 2.2,77.2 
					59.8,77.2 				"/>
			</g>
			<g>
				<polygon class="st2" points="59.8,78.8 0.6,78.8 0.6,66.8 59.8,66.8 59.8,68.4 2.2,68.4 2.2,77.2 59.8,77.2 				"/>
			</g>
			<g>
				<polyline class="st0" points="59.8,93.7 38,93.7 44,78 59.8,78 				"/>
				<polygon class="st2" points="59.8,94.5 36.9,94.5 43.4,77.2 59.8,77.2 59.8,78.8 44.6,78.8 39.2,92.9 59.8,92.9 				"/>
			</g>
			<g>
				<rect x="26.1" y="92.9" class="st2" width="33.7" height="1.6"/>
			</g>
			<g>
				<path class="st2" d="M52.2,76.5c-2,0-3.7-1.6-3.7-3.7c0-2,1.6-3.7,3.7-3.7c2,0,3.7,1.6,3.7,3.7C55.9,74.8,54.2,76.5,52.2,76.5z
					 M52.2,70.8c-1.1,0-2.1,0.9-2.1,2.1c0,1.1,0.9,2.1,2.1,2.1c1.1,0,2.1-0.9,2.1-2.1C54.3,71.7,53.4,70.8,52.2,70.8z"/>
			</g>
		</g>
		<g>
			<path class="st3" d="M38.8,29.4c-0.2,0-0.4,0-0.5,0.1L40.2,44l-13.9-5c-0.9,2.1-1.2,4.5-1,6.9c0.8,8,8,13.7,16.3,12.6
				c8.2-1,14.2-8.4,13.5-16.4C54.3,34,47,28.4,38.8,29.4z"/>
			<path class="st2" d="M24.5,36.5l13.9,5L36.5,27C31,27.9,26.5,31.7,24.5,36.5z"/>
		</g>
		<g>
			<rect x="10.6" y="56.6" class="st2" width="11.7" height="1.6"/>
		</g>
		<g>
			<rect x="10.6" y="52.5" class="st2" width="11.7" height="1.6"/>
		</g>
		<g>
			<rect x="16.9" y="92.9" class="st2" width="5.5" height="1.6"/>
		</g>
	</g>
	<g>
		<g>
			<path class="st2" d="M100.3,107.1H69.1c-2.7,0-5.3-1.1-7.2-3c-1.9-1.9-2.9-4.4-2.9-7.1c0-0.3,0-0.4,0-0.4l1.6,0.1l-0.8-0.1
				l0.8,0.1c0,0,0,0.1,0,0.3c0,2.2,0.9,4.3,2.4,5.9c1.6,1.6,3.8,2.5,6,2.5h29.6v-7.6h1.6V107.1z"/>
		</g>
		<g>
			<path class="st2" d="M73.4,104.3V53H75v48.4c4.5-2.8,9.7-4.3,15.1-4.3h32.8V46.3h-2v-1.6h3.6v54H90c-5.4,0-10.6,1.6-15,4.5
				L73.4,104.3z"/>
		</g>
		<g>
			<path class="st2" d="M74.6,100.7l-0.9-1.3l0.2-0.1c4.8-3.2,10.4-4.9,16.1-4.9h30V43.5h-2.1v-1.6h3.7v54H90
				c-5.4,0-10.7,1.6-15.2,4.7L74.6,100.7z"/>
		</g>
		<g>
			<path class="st0" d="M117.9,92.1H90c-5.7,0-11.2,1.7-15.9,4.9l0,0V47.2c0-4.1,3.3-7.5,7.5-7.5h36.3V92.1z"/>
			<path class="st2" d="M73.4,98.6V47.2c0-4.6,3.7-8.3,8.3-8.3h37.1v54H90c-5.5,0-10.9,1.7-15.4,4.8L73.4,98.6z M81.6,40.6
				c-3.7,0-6.6,3-6.6,6.6v48.3c4.5-2.8,9.7-4.3,15.1-4.3h27.1V40.6H81.6z"/>
		</g>
		<g>
			<path class="st0" d="M66.2,39.8c-3.5,0-6.4,2.9-6.4,6.4v50.4c0,0.1,0,0.1,0,0.1c0.3-3.3,3-5.8,6.3-5.8c3.8,0,6.9,2.6,7.8,6.1
				c0.1-0.1,0.2-0.3,0.2-0.4V47.8C74.1,43.4,70.6,39.8,66.2,39.8z"/>
			<path class="st2" d="M60.2,101L59,96.9c0-0.1-0.1-0.2-0.1-0.4V46.2c0-4,3.2-7.2,7.2-7.2c4.9,0,8.8,3.9,8.8,8.8v48.8
				c0,0.4-0.2,0.8-0.6,1.1l-1,0.7l-0.3-1.1c-0.8-3.2-3.7-5.5-7-5.5c-2.9,0-5.3,2.2-5.5,5.1L60.2,101z M66.2,90.1
				c2.9,0,5.6,1.4,7.2,3.7v-46c0-4-3.2-7.2-7.2-7.2c-3.1,0-5.6,2.5-5.6,5.6v46.5C61.9,91.1,63.9,90.1,66.2,90.1z"/>
		</g>
		<g>
			<g>
				<g>
					<g>
						
							<rect x="80.3" y="56.3" transform="matrix(0.5602 -0.8284 0.8284 0.5602 -10.14 93.9794)" class="st2" width="6.3" height="0.5"/>
					</g>
				</g>
				<g>
					<g>
						
							<rect x="87.2" y="53.6" transform="matrix(0.8311 -0.5561 0.5561 0.8311 -16.0408 57.9966)" class="st2" width="0.5" height="3.6"/>
					</g>
				</g>
				<g>
					<g>
						
							<rect x="89.5" y="55.6" transform="matrix(0.7501 -0.6613 0.6613 0.7501 -14.1351 74.3385)" class="st2" width="3.7" height="0.5"/>
					</g>
				</g>
				<g>
					<g>
						
							<rect x="97.4" y="53.3" transform="matrix(0.5924 -0.8056 0.8056 0.5924 -5.5387 101.6592)" class="st2" width="0.5" height="6"/>
					</g>
				</g>
				<g>
					<g>
						
							<rect x="103.2" y="56.3" transform="matrix(0.8247 -0.5656 0.5656 0.8247 -13.4506 69.7941)" class="st2" width="5.4" height="0.5"/>
					</g>
				</g>
				<g>
					<path class="st2" d="M107.7,54c0.1-1,0.9-1.7,1.9-1.7c1,0.1,1.7,0.9,1.6,1.9c-0.1,1-0.9,1.7-1.9,1.7
						C108.4,55.8,107.6,55,107.7,54z"/>
					<path class="st2" d="M109.4,56.2c0,0-0.1,0-0.1,0c-0.5,0-1-0.3-1.4-0.7c-0.4-0.4-0.5-1-0.5-1.5c0.1-1.1,1.1-2,2.2-1.9
						c0.5,0,1,0.3,1.4,0.7c0.4,0.4,0.5,1,0.5,1.5C111.4,55.4,110.5,56.2,109.4,56.2z M109.5,52.6c-0.8,0-1.4,0.6-1.5,1.4
						c0,0.4,0.1,0.8,0.4,1.1c0.3,0.3,0.6,0.5,1,0.5c0.8,0.1,1.5-0.6,1.6-1.4c0-0.4-0.1-0.8-0.4-1.1c-0.3-0.3-0.6-0.5-1-0.5
						C109.6,52.6,109.5,52.6,109.5,52.6z"/>
				</g>
				<g>
					<path class="st2" d="M99.7,59.2c0.1-1.2,1.1-2.1,2.3-2c1.2,0.1,2.1,1.1,2,2.3c-0.1,1.2-1.1,2.1-2.3,2S99.6,60.4,99.7,59.2z"/>
					<path class="st2" d="M101.8,61.8c-0.1,0-0.1,0-0.2,0c-0.6,0-1.2-0.3-1.6-0.8c-0.4-0.5-0.6-1.1-0.6-1.8c0.1-1.4,1.3-2.4,2.6-2.3
						c0.6,0,1.2,0.3,1.6,0.8c0.4,0.5,0.6,1.1,0.6,1.8C104.1,60.8,103.1,61.8,101.8,61.8z M101.9,57.4c-1,0-1.8,0.8-1.9,1.8v0
						c0,0.5,0.1,1,0.5,1.4c0.3,0.4,0.8,0.6,1.3,0.6c1,0.1,1.9-0.7,2-1.8c0-0.5-0.1-1-0.5-1.4c-0.3-0.4-0.8-0.6-1.3-0.6
						C102,57.4,101.9,57.4,101.9,57.4z"/>
				</g>
				<g>
					<path class="st2" d="M92.3,53.4c0.1-0.9,0.9-1.6,1.8-1.6c0.9,0.1,1.6,0.9,1.5,1.8c-0.1,0.9-0.9,1.6-1.8,1.6
						C92.9,55.2,92.2,54.4,92.3,53.4z"/>
					<path class="st2" d="M93.9,55.5c0,0-0.1,0-0.1,0c-0.5,0-1-0.3-1.3-0.7c-0.3-0.4-0.5-0.9-0.5-1.4c0.1-1.1,1-1.9,2.1-1.8
						c0.5,0,1,0.3,1.3,0.7c0.3,0.4,0.5,0.9,0.5,1.4C95.8,54.7,94.9,55.5,93.9,55.5z M94,52.1c-0.7,0-1.3,0.6-1.4,1.3
						c0,0.4,0.1,0.8,0.3,1c0.2,0.3,0.6,0.4,0.9,0.5c0.8,0.1,1.4-0.5,1.5-1.3c0-0.4-0.1-0.8-0.3-1C94.7,52.3,94.4,52.2,94,52.1
						C94,52.1,94,52.1,94,52.1z"/>
				</g>
				<g>
					<path class="st2" d="M88,57.8c0.1-0.6,0.6-1.1,1.2-1.1c0.6,0,1.1,0.6,1,1.2C90.1,58.5,89.6,59,89,59
						C88.4,58.9,87.9,58.4,88,57.8z"/>
					<path class="st2" d="M89.1,59.2C89,59.2,89,59.2,89.1,59.2c-0.5,0-0.8-0.2-1-0.5c-0.2-0.3-0.4-0.6-0.3-1
						c0.1-0.8,0.7-1.4,1.5-1.3c0.4,0,0.7,0.2,0.9,0.5c0.2,0.3,0.4,0.6,0.3,1C90.4,58.7,89.8,59.2,89.1,59.2z M89.1,57
						c-0.4,0-0.8,0.4-0.8,0.8v0c0,0.2,0.1,0.5,0.2,0.6c0.1,0.2,0.3,0.3,0.6,0.3c0.5,0,0.9-0.3,0.9-0.8c0-0.2-0.1-0.5-0.2-0.6
						C89.6,57.1,89.4,57,89.1,57C89.1,57,89.1,57,89.1,57z"/>
				</g>
				<g>
					<path class="st2" d="M84.7,52.9c0.1-0.6,0.6-1.1,1.2-1.1c0.6,0,1.1,0.6,1,1.2c-0.1,0.6-0.6,1.1-1.2,1.1
						C85.1,54.1,84.7,53.5,84.7,52.9z"/>
					<path class="st2" d="M85.8,54.4C85.8,54.4,85.8,54.4,85.8,54.4c-0.5,0-0.8-0.2-1-0.5c-0.2-0.3-0.4-0.6-0.3-1
						c0.1-0.8,0.7-1.3,1.5-1.3c0.4,0,0.7,0.2,0.9,0.5c0.2,0.3,0.4,0.6,0.3,1C87.1,53.8,86.5,54.4,85.8,54.4z M85.9,52.1
						c-0.4,0-0.8,0.4-0.8,0.8l0,0c0,0.2,0.1,0.5,0.2,0.6c0.1,0.2,0.3,0.3,0.6,0.3c0.5,0,0.9-0.3,0.9-0.8c0-0.2-0.1-0.5-0.2-0.6
						C86.3,52.2,86.1,52.1,85.9,52.1C85.9,52.1,85.9,52.1,85.9,52.1z"/>
				</g>
				<g>
					<path class="st2" d="M79.9,60c0.1-0.6,0.6-1.1,1.2-1.1c0.6,0,1.1,0.6,1,1.2c-0.1,0.6-0.6,1.1-1.2,1.1
						C80.3,61.2,79.9,60.6,79.9,60z"/>
					<path class="st2" d="M81,61.5C81,61.5,80.9,61.5,81,61.5c-0.5,0-0.8-0.2-1-0.5c-0.2-0.3-0.4-0.6-0.3-1c0.1-0.8,0.7-1.4,1.5-1.3
						c0.4,0,0.7,0.2,0.9,0.5c0.2,0.3,0.4,0.6,0.3,1C82.3,60.9,81.7,61.5,81,61.5z M81,59.2c-0.4,0-0.8,0.4-0.8,0.8v0
						c0,0.2,0.1,0.5,0.2,0.6c0.1,0.2,0.3,0.3,0.6,0.3c0.5,0,0.9-0.3,0.9-0.8c0-0.2-0.1-0.5-0.2-0.6C81.5,59.4,81.3,59.3,81,59.2
						C81.1,59.2,81.1,59.2,81,59.2z"/>
				</g>
			</g>
			<g>
				<g>
					
						<rect x="104.1" y="66.7" transform="matrix(-1 -1.224647e-16 1.224647e-16 -1 213.1498 150.2618)" class="st3" width="5" height="17"/>
					
						<rect x="99" y="72.4" transform="matrix(-1 -1.224647e-16 1.224647e-16 -1 203.077 156.0001)" class="st1" width="5" height="11.2"/>
					
						<rect x="94" y="69.5" transform="matrix(-1 -1.224647e-16 1.224647e-16 -1 193.0043 153.1525)" class="st3" width="5" height="14.1"/>
					
						<rect x="83.9" y="77.1" transform="matrix(-1 -1.224647e-16 1.224647e-16 -1 172.8586 160.6597)" class="st3" width="5" height="6.6"/>
					
						<rect x="88.9" y="74.5" transform="matrix(-1 -1.224647e-16 1.224647e-16 -1 182.9315 158.1141)" class="st1" width="5" height="9.1"/>
				</g>
				<g>
					<polygon class="st2" points="111.6,86.8 80,86.8 80,65.1 81,65.1 81,85.7 111.6,85.7 					"/>
				</g>
			</g>
		</g>
	</g>
</g>
</svg>
