<?xml version="1.0" encoding="utf-8"?>
<!-- Generator: Adobe Illustrator 20.0.0, SVG Export Plug-In . SVG Version: 6.00 Build 0)  -->
<svg version="1.1" id="Layer_1" xmlns="http://www.w3.org/2000/svg" xmlns:xlink="http://www.w3.org/1999/xlink" x="0px" y="0px"
	 viewBox="0 0 90 80" style="enable-background:new 0 0 90 80;" xml:space="preserve">
<style type="text/css">
	.st0{fill:#F15B4A;}
	.st1{clip-path:url(#SVGID_2_);}
	.st2{fill:#FCF7E9;}
	.st3{fill:#C7C4BC;}
	.st4{clip-path:url(#SVGID_4_);}
	.st5{fill:#FFFFFF;}
	.st6{fill:#EDC393;}
	.st7{fill:#B1B3B6;}
	.st8{fill:#333132;}
	.st9{fill:#4F341A;}
	.st10{fill:#2A160C;}
	.st11{fill:#452B13;}
	.st12{fill:#4D4E4A;}
	.st13{fill:#3E3B3A;}
	.st14{opacity:0.5;fill:#8F8C86;}
	.st15{opacity:0.5;clip-path:url(#SVGID_6_);fill:#8F8C86;}
	.st16{fill:#F37223;}
	.st17{fill:#BF5A28;}
	.st18{fill:#DAB17C;}
	.st19{fill:#F89420;}
	.st20{fill:url(#SVGID_7_);}
	.st21{fill:#FDBE14;}
	.st22{fill:#F2F2F2;}
	.st23{clip-path:url(#SVGID_9_);}
	.st24{fill:#06BDCD;}
	.st25{opacity:0.5;clip-path:url(#SVGID_9_);}
	.st26{fill:#8F8C86;}
	.st27{fill:#79BEC0;}
	.st28{opacity:0.5;fill:#FFFFFF;}
	.st29{clip-path:url(#SVGID_11_);}
	.st30{fill:#C5DA4E;}
	.st31{fill:#A3BD3D;}
	.st32{fill:#6AB352;}
	.st33{fill:#5A462C;}
	.st34{fill:#D4E172;}
	.st35{fill:#ECEC83;}
	.st36{fill:#C2E1F1;}
	.st37{fill:#8BA3B0;}
	.st38{fill:#8FC640;}
	.st39{fill:#72A441;}
	.st40{fill:#976339;}
	.st41{fill:#7A4F2A;}
	
		.st42{fill:none;stroke:#FFFFFF;stroke-width:0.771;stroke-linecap:round;stroke-linejoin:round;stroke-miterlimit:10;stroke-dasharray:4.6259;}
	
		.st43{fill:none;stroke:#FFFFFF;stroke-width:0.6936;stroke-linecap:round;stroke-linejoin:round;stroke-miterlimit:10;stroke-dasharray:4.1616;}
	.st44{fill:#D46528;}
	.st45{fill:#F3F1E6;}
	.st46{fill:#D4D2C3;}
	.st47{clip-path:url(#SVGID_25_);}
	.st48{fill:#EEE809;}
	.st49{fill:#94D9F8;}
	.st50{fill:#211E1F;}
	.st51{fill:#231F20;}
	.st52{fill:#F7941F;}
	.st53{fill:#47B77B;}
	.st54{fill:#221F1F;}
	.st55{fill:#F5EB0E;}
	.st56{fill:#EBE70E;}
	.st57{fill:url(#);}
	.st58{fill:none;stroke:url(#);stroke-miterlimit:10;}
	.st59{fill:#F7941D;}
	.st60{fill:#45B97C;}
	.st61{fill:none;stroke:#010101;stroke-miterlimit:10;}
	.st62{fill:#010101;}
	.st63{fill:#4BC3C9;}
	.st64{fill:#DD1D4F;}
	.st65{fill:none;stroke:#231F20;stroke-width:0.9625;stroke-linecap:round;stroke-linejoin:round;stroke-miterlimit:10;}
	.st66{fill:none;stroke:url(#);stroke-width:0.6902;stroke-miterlimit:10;}
	.st67{fill:#FBAA19;}
	.st68{fill:none;stroke:#221F1F;stroke-width:0.8692;stroke-miterlimit:10;}
	.st69{fill:none;stroke:#221F1F;stroke-width:0.8566;stroke-miterlimit:10;}
	.st70{fill:none;stroke:url(#);stroke-width:0.7698;stroke-miterlimit:10;}
	.st71{fill:none;stroke:#221F1F;stroke-width:0.8028;stroke-miterlimit:10;}
	.st72{fill:#FFFFFF;stroke:url(#);stroke-width:0.6902;stroke-miterlimit:10;}
	.st73{fill:none;stroke:url(#);stroke-width:0.4601;stroke-miterlimit:10;}
	.st74{fill:none;stroke:#79BEC0;stroke-width:2.3005;stroke-miterlimit:10;}
	.st75{fill:#C9E9E6;}
	.st76{fill:#E5EFF5;}
	.st77{fill:#0A3655;}
	.st78{fill:none;stroke:#79BEC0;stroke-width:1.2825;stroke-miterlimit:10;}
	.st79{fill:none;stroke:#F15B4A;stroke-miterlimit:10;}
	.st80{fill:none;stroke:#F15B4A;stroke-width:2;stroke-linecap:round;stroke-linejoin:round;stroke-miterlimit:10;}
	.st81{fill:#FFFFFF;stroke:#F15B4A;stroke-miterlimit:10;}
</style>
<g>
	<g>
		<path class="st68" d="M27,13.4V6c0-1.6,1.3-2.9,3-2.9h36c1.7,0,3,1.3,3,2.9v7.4"/>
		<path class="st68" d="M27,64.6V74c0,1.6,1.3,2.9,3,2.9h36c1.7,0,3-1.3,3-2.9v-9.4"/>
	</g>
	<g>
		<path class="st64" d="M74.6,30.8c0-0.8-0.1-1.5-0.3-2.3c-1.5-5.3-7.7-9.3-15-9.3c-8.5,0-15.4,5.3-15.4,11.9c0,2.9,1.3,5.5,3.5,7.5
			l-1.1,5.7l5.6-2.9c2.2,0.9,4.7,1.5,7.4,1.5c0.3,0,0.5,0,0.8,0c1,0,2-0.2,3-0.4c6.6-1.3,11.6-6,11.6-11.5
			C74.6,31,74.6,30.9,74.6,30.8L74.6,30.8z M51.9,33.1c-1.2,0-2.2-1-2.2-2.2c0-1.2,1-2.2,2.2-2.2c1.2,0,2.2,1,2.2,2.2
			C54.2,32.1,53.2,33.1,51.9,33.1L51.9,33.1z M59.2,33.1c-1.2,0-2.2-1-2.2-2.2c0-1.2,1-2.2,2.2-2.2c1.2,0,2.2,1,2.2,2.2
			C61.4,32.1,60.4,33.1,59.2,33.1L59.2,33.1z M66.5,33.1c-1.2,0-2.2-1-2.2-2.2c0-1.2,1-2.2,2.2-2.2c1.2,0,2.2,1,2.2,2.2
			C68.7,32.1,67.7,33.1,66.5,33.1L66.5,33.1z M66.5,33.1"/>
	</g>
	<g>
		<path class="st68" d="M76.2,30.8c0-0.8-0.1-1.5-0.3-2.3c-1.5-5.3-7.7-9.3-15-9.3c-8.5,0-15.4,5.3-15.4,11.9c0,2.9,1.3,5.5,3.5,7.5
			l-1.1,5.7l5.6-2.9c2.2,0.9,4.7,1.5,7.4,1.5c0.3,0,0.5,0,0.8,0c1,0,2-0.2,3-0.4c6.6-1.3,11.6-6,11.6-11.5
			C76.2,31,76.2,30.9,76.2,30.8L76.2,30.8z M53.6,33.1c-1.2,0-2.2-1-2.2-2.2c0-1.2,1-2.2,2.2-2.2c1.2,0,2.2,1,2.2,2.2
			C55.8,32.1,54.8,33.1,53.6,33.1L53.6,33.1z M60.8,33.1c-1.2,0-2.2-1-2.2-2.2c0-1.2,1-2.2,2.2-2.2c1.2,0,2.2,1,2.2,2.2
			C63.1,32.1,62.1,33.1,60.8,33.1L60.8,33.1z M68.1,33.1c-1.2,0-2.2-1-2.2-2.2c0-1.2,1-2.2,2.2-2.2c1.2,0,2.2,1,2.2,2.2
			C70.3,32.1,69.3,33.1,68.1,33.1L68.1,33.1z M68.1,33.1"/>
	</g>
	<g>
		<path class="st63" d="M64.5,4.9h-33c-1.5,0-2.7,1.2-2.7,2.7V27c0.7,0,1.4,0.1,2.1,0.2V13.4h34.3v4.5c0.7,0.2,1.4,0.4,2.1,0.7v-11
			C67.3,6.1,66,4.9,64.5,4.9z"/>
		<path class="st63" d="M65.2,64.6H30.9V51.4c-0.7,0.1-1.4,0.1-2.1,0.2v20.9c0,1.5,1.2,2.7,2.7,2.7h33c1.5,0,2.7-1.2,2.7-2.7v-29
			c-0.7,0.3-1.4,0.5-2.1,0.7V64.6z M48,71.9c-1.5,0-2.7-1.2-2.7-2.7c0-1.5,1.2-2.7,2.7-2.7c1.5,0,2.7,1.2,2.7,2.7
			C50.7,70.7,49.5,71.9,48,71.9z"/>
	</g>
	<g>
		<path class="st63" d="M14.8,39.1c0,0.1,0,0.2,0,0.2c0,4.9,4.3,9,10.2,10.2c0.9,0.2,1.8,0.3,2.7,0.3c0.2,0,0.5,0,0.7,0
			c2.4,0,4.6-0.5,6.5-1.3l4.9,2.5l-1-5c1.9-1.8,3.1-4.1,3.1-6.7c0-5.8-6.1-10.5-13.6-10.5c-6.5,0-11.9,3.5-13.3,8.2
			C14.9,37.8,14.8,38.5,14.8,39.1L14.8,39.1z M34.8,41.1c-1.1,0-2-0.9-2-2c0-1.1,0.9-2,2-2c1.1,0,2,0.9,2,2
			C36.7,40.2,35.9,41.1,34.8,41.1L34.8,41.1z M28.4,41.1c-1.1,0-2-0.9-2-2c0-1.1,0.9-2,2-2c1.1,0,2,0.9,2,2
			C30.3,40.2,29.4,41.1,28.4,41.1L28.4,41.1z M21.9,41.1c-1.1,0-2-0.9-2-2c0-1.1,0.9-2,2-2c1.1,0,2,0.9,2,2
			C23.9,40.2,23,41.1,21.9,41.1L21.9,41.1z M21.9,41.1"/>
	</g>
	<g>
		<path class="st68" d="M13.8,40.1c0,0.1,0,0.2,0,0.2c0,4.9,4.3,9,10.2,10.2c0.9,0.2,1.8,0.3,2.7,0.3c0.2,0,0.5,0,0.7,0
			c2.4,0,4.6-0.5,6.5-1.3l4.9,2.5l-1-5c1.9-1.8,3.1-4.1,3.1-6.7c0-5.8-6.1-10.5-13.6-10.5c-6.5,0-11.9,3.5-13.3,8.2
			C13.9,38.8,13.8,39.4,13.8,40.1L13.8,40.1z M33.8,42.1c-1.1,0-2-0.9-2-2c0-1.1,0.9-2,2-2c1.1,0,2,0.9,2,2
			C35.8,41.2,34.9,42.1,33.8,42.1L33.8,42.1z M27.4,42.1c-1.1,0-2-0.9-2-2c0-1.1,0.9-2,2-2c1.1,0,2,0.9,2,2
			C29.4,41.2,28.5,42.1,27.4,42.1L27.4,42.1z M21,42.1c-1.1,0-2-0.9-2-2c0-1.1,0.9-2,2-2c1.1,0,2,0.9,2,2
			C22.9,41.2,22.1,42.1,21,42.1L21,42.1z M21,42.1"/>
	</g>
</g>
</svg>
