<?xml version="1.0" encoding="utf-8"?>
<!-- Generator: Adobe Illustrator 20.0.0, SVG Export Plug-In . SVG Version: 6.00 Build 0)  -->
<svg version="1.1" id="Layer_1" xmlns="http://www.w3.org/2000/svg" xmlns:xlink="http://www.w3.org/1999/xlink" x="0px" y="0px"
	 viewBox="0 0 87.5 32.4" style="enable-background:new 0 0 87.5 32.4;" xml:space="preserve">
<style type="text/css">
	.st0{fill:none;stroke:#000000;stroke-width:1.0387;stroke-miterlimit:10;}
	.st1{fill:none;stroke:#000000;stroke-miterlimit:10;}
	.st2{fill:none;stroke:#000000;stroke-width:0.3639;stroke-miterlimit:10;}
	.st3{fill:#FFFFFF;}
	.st4{fill:#CFCDCD;}
	.st5{fill:#C9E9E6;}
	.st6{fill:#FFFFFF;stroke:#000000;stroke-width:2.3369;stroke-miterlimit:10;}
	.st7{fill:#FFE06A;}
	.st8{fill:none;stroke:#000000;stroke-width:2.3369;stroke-linecap:round;stroke-linejoin:round;stroke-miterlimit:10;}
	.st9{fill:#27BDBE;}
	.st10{fill:none;stroke:#27BDBE;stroke-width:4.6884;stroke-miterlimit:10;}
	.st11{fill:none;stroke:#000000;stroke-width:2.3369;stroke-miterlimit:10;}
	.st12{fill:#ECF8FE;}
	.st13{fill:none;stroke:#000000;stroke-width:2.1058;stroke-miterlimit:10;}
	.st14{fill:none;stroke:#000000;stroke-width:1.9613;stroke-miterlimit:10;}
	.st15{fill:#FFFFFF;stroke:#000000;stroke-width:2.1058;stroke-miterlimit:10;}
	.st16{fill:none;stroke:#000000;stroke-width:1.0529;stroke-miterlimit:10;}
	.st17{fill:#FFFFFF;stroke:#000000;stroke-width:1.5873;stroke-miterlimit:10;}
	.st18{fill:none;stroke:#000000;stroke-width:1.5873;stroke-linecap:round;stroke-linejoin:round;stroke-miterlimit:10;}
	.st19{fill:none;stroke:#000000;stroke-width:0.8323;stroke-linecap:round;stroke-linejoin:round;stroke-miterlimit:10;}
	.st20{fill:#D9D9D9;}
	.st21{fill:#BFBFBF;}
	.st22{fill:#999999;}
	.st23{fill:none;stroke:#000000;stroke-width:0.8889;stroke-miterlimit:10;}
	.st24{fill:none;stroke:#FFFFFF;stroke-miterlimit:10;}
</style>
<g>
	<path d="M17.9,16.2c0-1.4,0.1-2,0.2-2.4c0.4-1.2,1.3-1.8,2.7-1.8s2.2,0.7,2.6,1.5c0,0.1,0,0.1,0,0.2l-0.4,0.2c-0.1,0-0.1,0-0.2,0
		c-0.4-0.7-1-1.2-2-1.2c-1,0-1.7,0.5-2,1.4c-0.1,0.3-0.2,0.8-0.2,2.2c0,1.4,0.1,1.9,0.2,2.2c0.3,0.9,1,1.4,2,1.4c1,0,1.7-0.5,2-1.4
		c0.1-0.3,0.2-0.8,0.2-1.6c0,0,0-0.1-0.1-0.1H21c-0.1,0-0.1,0-0.1-0.1v-0.4c0-0.1,0-0.1,0.1-0.1h2.5c0.1,0,0.1,0,0.1,0.1v0.5
		c0,0.8-0.1,1.4-0.2,1.8c-0.4,1.2-1.3,1.8-2.6,1.8c-1.3,0-2.3-0.6-2.7-1.8C18,18.2,17.9,17.6,17.9,16.2z"/>
	<path d="M25.6,12.3c0-0.1,0-0.1,0.1-0.1h4.7c0.1,0,0.1,0,0.1,0.1v0.4c0,0.1,0,0.1-0.1,0.1h-4c0,0-0.1,0-0.1,0.1v2.9
		c0,0,0,0.1,0.1,0.1h3.5c0.1,0,0.1,0,0.1,0.1v0.4c0,0.1,0,0.1-0.1,0.1h-3.5c0,0-0.1,0-0.1,0.1v3c0,0,0,0.1,0.1,0.1h4
		c0.1,0,0.1,0,0.1,0.1v0.4c0,0.1,0,0.1-0.1,0.1h-4.7c-0.1,0-0.1,0-0.1-0.1V12.3z"/>
	<path d="M34,20.3c-0.1,0-0.1,0-0.1-0.1v-7.3c0,0,0-0.1-0.1-0.1h-2.4c-0.1,0-0.1,0-0.1-0.1v-0.4c0-0.1,0-0.1,0.1-0.1H37
		c0.1,0,0.1,0,0.1,0.1v0.4c0,0.1,0,0.1-0.1,0.1h-2.4c0,0-0.1,0-0.1,0.1v7.3c0,0.1,0,0.1-0.1,0.1H34z"/>
	<path d="M43.5,12.3c0-0.1,0.1-0.1,0.1-0.1H44c0.1,0,0.1,0,0.1,0.1l2.8,7.9c0,0.1,0,0.1-0.1,0.1h-0.5c-0.1,0-0.1,0-0.2-0.1l-0.7-2
		H42l-0.7,2c0,0.1-0.1,0.1-0.2,0.1h-0.5c-0.1,0-0.1,0-0.1-0.1L43.5,12.3z M45.4,17.5l-1.5-4.3h0l-1.5,4.3H45.4z"/>
	<path d="M49.4,20.3c-0.1,0-0.1,0-0.1-0.1v-7.3c0,0,0-0.1-0.1-0.1h-2.4c-0.1,0-0.1,0-0.1-0.1v-0.4c0-0.1,0-0.1,0.1-0.1h5.5
		c0.1,0,0.1,0,0.1,0.1v0.4c0,0.1,0,0.1-0.1,0.1h-2.4c0,0-0.1,0-0.1,0.1v7.3c0,0.1,0,0.1-0.1,0.1H49.4z"/>
	<path d="M57.4,17.5c0,1.5,0.8,2.3,2.1,2.3c1.3,0,2.1-0.7,2.1-2.3v-5.2c0-0.1,0-0.1,0.1-0.1h0.4c0.1,0,0.1,0,0.1,0.1v5.2
		c0,2-1.1,2.9-2.8,2.9c-1.7,0-2.8-0.9-2.8-2.9v-5.2c0-0.1,0-0.1,0.1-0.1h0.4c0.1,0,0.1,0,0.1,0.1V17.5z"/>
	<path d="M64,19.5c0,0-0.1-0.1,0-0.2l0.3-0.4c0-0.1,0.1-0.1,0.2,0c0.5,0.4,1.4,0.8,2.3,0.8c1.3,0,2.1-0.7,2.1-1.7
		c0-0.8-0.5-1.4-2-1.6l-0.4,0c-1.6-0.2-2.4-1-2.4-2.2c0-1.4,1-2.3,2.6-2.3c0.9,0,1.8,0.3,2.3,0.7c0.1,0,0.1,0.1,0,0.2l-0.2,0.4
		c0,0.1-0.1,0.1-0.2,0c-0.6-0.4-1.3-0.6-2-0.6c-1.2,0-1.8,0.6-1.8,1.6c0,0.8,0.5,1.4,1.9,1.5l0.4,0c1.7,0.2,2.4,1,2.4,2.2
		c0,1.4-1,2.4-2.9,2.4C65.7,20.4,64.6,20,64,19.5z"/>
</g>
<g>
	<g>
		<g>
			<g>
				<g>
					<g>
						<g>
							<polyline class="st2" points="80,11.5 82.2,11.5 82.2,3.7 5.3,3.7 5.3,28.8 82.2,28.8 82.2,20.7 							"/>
						</g>
					</g>
				</g>
			</g>
		</g>
	</g>
</g>
</svg>
