<?xml version="1.0" encoding="utf-8"?>
<!-- Generator: Adobe Illustrator 20.0.0, SVG Export Plug-In . SVG Version: 6.00 Build 0)  -->
<svg version="1.1" id="Layer_1" xmlns="http://www.w3.org/2000/svg" xmlns:xlink="http://www.w3.org/1999/xlink" x="0px" y="0px"
	 viewBox="0 0 227.2 275.9" style="enable-background:new 0 0 227.2 275.9;" xml:space="preserve">
<style type="text/css">
	.st0{fill:none;stroke:#000000;stroke-width:1.0387;stroke-miterlimit:10;}
	.st1{fill:none;stroke:#000000;stroke-miterlimit:10;}
	.st2{fill:none;stroke:#000000;stroke-width:0.3639;stroke-miterlimit:10;}
	.st3{fill:#FFFFFF;}
	.st4{fill:#ECF8FE;}
	.st5{fill:#27BDBE;}
	.st6{fill:#FFE06A;}
	.st7{fill:#D9D9D9;}
	.st8{fill:#999999;}
	.st9{fill:#BFBFBF;}
	.st10{fill:#FFFFFF;stroke:#000000;stroke-width:1.5873;stroke-miterlimit:10;}
	.st11{fill:none;stroke:#000000;stroke-width:1.5873;stroke-linecap:round;stroke-linejoin:round;stroke-miterlimit:10;}
	.st12{fill:none;stroke:#000000;stroke-width:0.8323;stroke-linecap:round;stroke-linejoin:round;stroke-miterlimit:10;}
	.st13{fill:#CFCDCD;}
	.st14{fill:#C9E9E6;}
	.st15{fill:none;stroke:#000000;stroke-width:0.8889;stroke-miterlimit:10;}
	.st16{fill:none;stroke:#FFFFFF;stroke-miterlimit:10;}
</style>
<g>
	<g>
		<g>
			<path d="M41.4,217.7c0-0.1,0.1-0.2,0.2-0.2h6.2c0.1,0,0.2,0.1,0.2,0.2v0.5c0,0.1-0.1,0.2-0.2,0.2h-5.4c-0.1,0-0.1,0-0.1,0.1v3.9
				c0,0.1,0,0.1,0.1,0.1H47c0.1,0,0.2,0.1,0.2,0.2v0.5c0,0.1-0.1,0.2-0.2,0.2h-4.6c-0.1,0-0.1,0-0.1,0.1v4c0,0.1,0,0.1,0.1,0.1h5.4
				c0.1,0,0.2,0.1,0.2,0.2v0.5c0,0.1-0.1,0.2-0.2,0.2h-6.2c-0.1,0-0.2-0.1-0.2-0.2V217.7z"/>
			<path d="M57.4,228.5c-0.1,0-0.2,0-0.2-0.1l-2.8-4.7h0l-2.8,4.7c0,0.1-0.1,0.1-0.2,0.1h-0.7c-0.1,0-0.1-0.1-0.1-0.2l3.3-5.5l-3-5
				c-0.1-0.1,0-0.2,0.1-0.2h0.7c0.1,0,0.2,0,0.2,0.1l2.5,4.1h0l2.5-4.1c0.1-0.1,0.1-0.1,0.2-0.1h0.7c0.1,0,0.1,0.1,0.1,0.2l-3,5
				l3.3,5.5c0,0.1,0,0.2-0.1,0.2H57.4z"/>
			<path d="M61.7,228.5c-0.1,0-0.2-0.1-0.2-0.2v-10.6c0-0.1,0.1-0.2,0.2-0.2h3.6c2.1,0,3.3,1.2,3.3,3.1c0,1.9-1.3,3.1-3.3,3.1h-2.8
				c-0.1,0-0.1,0-0.1,0.1v4.5c0,0.1-0.1,0.2-0.2,0.2H61.7z M67.8,220.7c0-1.4-0.9-2.2-2.5-2.2h-2.8c-0.1,0-0.1,0-0.1,0.1v4.2
				c0,0.1,0,0.1,0.1,0.1h2.8C66.9,222.9,67.8,222.1,67.8,220.7z"/>
			<path d="M72.2,217.7c0-0.1,0.1-0.2,0.2-0.2H73c0.1,0,0.2,0.1,0.2,0.2v9.8c0,0.1,0,0.1,0.1,0.1h5.4c0.1,0,0.2,0.1,0.2,0.2v0.5
				c0,0.1-0.1,0.2-0.2,0.2h-6.2c-0.1,0-0.2-0.1-0.2-0.2V217.7z"/>
			<path d="M84.8,217.7c0-0.1,0.1-0.2,0.2-0.2h0.6c0.1,0,0.2,0.1,0.2,0.2l3.8,10.6c0,0.1,0,0.2-0.1,0.2h-0.6c-0.1,0-0.2,0-0.2-0.2
				l-1-2.7h-4.7l-1,2.7c0,0.1-0.1,0.2-0.2,0.2h-0.6c-0.1,0-0.1-0.1-0.1-0.2L84.8,217.7z M87.3,224.7l-2-5.7h0l-2,5.7H87.3z"/>
			<path d="M92.8,217.7c0-0.1,0.1-0.2,0.2-0.2h0.6c0.1,0,0.2,0.1,0.2,0.2v10.6c0,0.1-0.1,0.2-0.2,0.2h-0.6c-0.1,0-0.2-0.1-0.2-0.2
				V217.7z"/>
			<path d="M98,217.7c0-0.1,0.1-0.2,0.2-0.2h0.6c0.1,0,0.2,0,0.3,0.2l5.4,8.9h0v-8.9c0-0.1,0.1-0.2,0.2-0.2h0.6
				c0.1,0,0.2,0.1,0.2,0.2v10.6c0,0.1-0.1,0.2-0.2,0.2h-0.6c-0.1,0-0.2,0-0.3-0.2l-5.4-9h-0.1v9c0,0.1-0.1,0.2-0.2,0.2h-0.6
				c-0.1,0-0.2-0.1-0.2-0.2V217.7z"/>
			<path d="M109.7,217.7c0-0.1,0.1-0.2,0.2-0.2h6.2c0.1,0,0.2,0.1,0.2,0.2v0.5c0,0.1-0.1,0.2-0.2,0.2h-5.4c-0.1,0-0.1,0-0.1,0.1v3.9
				c0,0.1,0,0.1,0.1,0.1h4.6c0.1,0,0.2,0.1,0.2,0.2v0.5c0,0.1-0.1,0.2-0.2,0.2h-4.6c-0.1,0-0.1,0-0.1,0.1v4c0,0.1,0,0.1,0.1,0.1h5.4
				c0.1,0,0.2,0.1,0.2,0.2v0.5c0,0.1-0.1,0.2-0.2,0.2h-6.2c-0.1,0-0.2-0.1-0.2-0.2V217.7z"/>
			<path d="M126.3,228.5c-0.1,0-0.1,0-0.2-0.1l-2.3-4.7h-0.2h-2.8c-0.1,0-0.1,0-0.1,0.1v4.6c0,0.1-0.1,0.2-0.2,0.2H120
				c-0.1,0-0.2-0.1-0.2-0.2v-10.6c0-0.1,0.1-0.2,0.2-0.2h3.6c2,0,3.3,1.2,3.3,3c0,1.5-0.8,2.5-2.2,2.9l2.4,4.8
				c0.1,0.1,0,0.2-0.1,0.2H126.3z M126.1,220.6c0-1.4-0.9-2.1-2.4-2.1h-2.8c-0.1,0-0.1,0-0.1,0.1v4.1c0,0.1,0,0.1,0.1,0.1h2.8
				C125.2,222.7,126.1,222,126.1,220.6z"/>
			<path d="M138.5,228.5c-0.1,0-0.1-0.1-0.2-0.2l-3.6-10.5c-0.1-0.1,0-0.2,0.1-0.2h0.6c0.1,0,0.2,0,0.2,0.2l3.2,9.2h0l3.1-9.2
				c0-0.1,0.1-0.2,0.2-0.2h0.6c0.1,0,0.2,0.1,0.1,0.2l-3.6,10.5c0,0.1-0.1,0.2-0.2,0.2H138.5z"/>
			<path d="M146,217.7c0-0.1,0.1-0.2,0.2-0.2h0.6c0.1,0,0.2,0.1,0.2,0.2v10.6c0,0.1-0.1,0.2-0.2,0.2h-0.6c-0.1,0-0.2-0.1-0.2-0.2
				V217.7z"/>
			<path d="M151.2,217.7c0-0.1,0.1-0.2,0.2-0.2h3.4c1.8,0,3,0.7,3.5,2.2c0.2,0.6,0.3,1.2,0.3,3.2c0,2-0.1,2.6-0.3,3.2
				c-0.5,1.5-1.7,2.2-3.5,2.2h-3.4c-0.1,0-0.2-0.1-0.2-0.2V217.7z M152.2,227.6h2.4c1.4,0,2.3-0.5,2.7-1.6c0.2-0.5,0.3-1.1,0.3-2.9
				c0-1.8-0.1-2.4-0.3-2.9c-0.4-1.2-1.3-1.6-2.7-1.6h-2.4c-0.1,0-0.1,0-0.1,0.1L152.2,227.6C152.1,227.6,152.1,227.6,152.2,227.6z"
				/>
			<path d="M162.4,217.7c0-0.1,0.1-0.2,0.2-0.2h6.2c0.1,0,0.2,0.1,0.2,0.2v0.5c0,0.1-0.1,0.2-0.2,0.2h-5.4c-0.1,0-0.1,0-0.1,0.1v3.9
				c0,0.1,0,0.1,0.1,0.1h4.6c0.1,0,0.2,0.1,0.2,0.2v0.5c0,0.1-0.1,0.2-0.2,0.2h-4.6c-0.1,0-0.1,0-0.1,0.1v4c0,0.1,0,0.1,0.1,0.1h5.4
				c0.1,0,0.2,0.1,0.2,0.2v0.5c0,0.1-0.1,0.2-0.2,0.2h-6.2c-0.1,0-0.2-0.1-0.2-0.2V217.7z"/>
			<path d="M172.4,226.2c-0.2-0.6-0.3-1.3-0.3-3.2c0-1.9,0.1-2.6,0.3-3.2c0.5-1.6,1.7-2.4,3.5-2.4c1.8,0,3,0.8,3.5,2.4
				c0.2,0.6,0.3,1.3,0.3,3.2c0,1.9-0.1,2.6-0.3,3.2c-0.5,1.6-1.7,2.4-3.5,2.4C174.2,228.6,172.9,227.8,172.4,226.2z M178.6,220.1
				c-0.4-1.2-1.3-1.8-2.6-1.8c-1.4,0-2.2,0.6-2.6,1.8c-0.1,0.4-0.3,1.1-0.3,2.9c0,1.8,0.1,2.5,0.3,2.9c0.4,1.2,1.3,1.8,2.6,1.8
				c1.3,0,2.2-0.6,2.6-1.8c0.1-0.4,0.3-1.1,0.3-2.9C178.8,221.3,178.7,220.6,178.6,220.1z"/>
			<path d="M63.8,250.2c-0.1,0-0.2-0.1-0.2-0.2v-10.6c0-0.1,0.1-0.2,0.2-0.2h3.6c2.1,0,3.3,1.2,3.3,3.1c0,1.9-1.3,3.1-3.3,3.1h-2.8
				c-0.1,0-0.1,0-0.1,0.1v4.5c0,0.1-0.1,0.2-0.2,0.2H63.8z M69.9,242.4c0-1.4-0.9-2.2-2.5-2.2h-2.8c-0.1,0-0.1,0-0.1,0.1v4.2
				c0,0.1,0,0.1,0.1,0.1h2.8C69,244.6,69.9,243.8,69.9,242.4z"/>
			<path d="M80.7,250.2c-0.1,0-0.1,0-0.2-0.1l-2.3-4.7h-0.2h-2.8c-0.1,0-0.1,0-0.1,0.1v4.6c0,0.1-0.1,0.2-0.2,0.2h-0.6
				c-0.1,0-0.2-0.1-0.2-0.2v-10.6c0-0.1,0.1-0.2,0.2-0.2h3.6c2,0,3.3,1.2,3.3,3c0,1.5-0.8,2.5-2.2,2.9l2.4,4.8
				c0.1,0.1,0,0.2-0.1,0.2H80.7z M80.5,242.3c0-1.4-0.9-2.1-2.4-2.1h-2.8c-0.1,0-0.1,0-0.1,0.1v4.1c0,0.1,0,0.1,0.1,0.1h2.8
				C79.6,244.5,80.5,243.7,80.5,242.3z"/>
			<path d="M85.2,247.9c-0.2-0.6-0.3-1.3-0.3-3.2s0.1-2.6,0.3-3.2c0.5-1.6,1.7-2.4,3.5-2.4c1.8,0,3,0.8,3.5,2.4
				c0.2,0.6,0.3,1.3,0.3,3.2s-0.1,2.6-0.3,3.2c-0.5,1.6-1.7,2.4-3.5,2.4C87,250.4,85.8,249.5,85.2,247.9z M91.4,241.9
				c-0.4-1.2-1.3-1.8-2.6-1.8c-1.4,0-2.2,0.6-2.6,1.8c-0.1,0.4-0.3,1.1-0.3,2.9s0.1,2.5,0.3,2.9c0.4,1.2,1.3,1.8,2.6,1.8
				c1.3,0,2.2-0.6,2.6-1.8c0.1-0.4,0.3-1.1,0.3-2.9S91.5,242.3,91.4,241.9z"/>
			<path d="M96.4,239.5c0-0.1,0.1-0.2,0.2-0.2h3.4c1.8,0,3,0.7,3.5,2.2c0.2,0.6,0.3,1.2,0.3,3.2c0,2-0.1,2.6-0.3,3.2
				c-0.5,1.5-1.7,2.2-3.5,2.2h-3.4c-0.1,0-0.2-0.1-0.2-0.2V239.5z M97.4,249.3h2.4c1.4,0,2.3-0.5,2.7-1.6c0.2-0.5,0.3-1.1,0.3-2.9
				s-0.1-2.4-0.3-2.9c-0.4-1.2-1.3-1.6-2.7-1.6h-2.4c-0.1,0-0.1,0-0.1,0.1L97.4,249.3C97.3,249.3,97.4,249.3,97.4,249.3z"/>
			<path d="M108.4,246.5c0,2,1,3,2.8,3c1.7,0,2.8-1,2.8-3v-7c0-0.1,0.1-0.2,0.2-0.2h0.6c0.1,0,0.2,0.1,0.2,0.2v7
				c0,2.7-1.4,3.9-3.7,3.9c-2.2,0-3.7-1.3-3.7-3.9v-7c0-0.1,0.1-0.2,0.2-0.2h0.6c0.1,0,0.2,0.1,0.2,0.2V246.5z"/>
			<path d="M118.6,244.8c0-1.9,0.1-2.6,0.3-3.2c0.5-1.6,1.7-2.4,3.4-2.4c1.5,0,2.7,0.7,3.3,2c0,0.1,0,0.2,0,0.2l-0.5,0.3
				c-0.1,0-0.2,0-0.2-0.1c-0.5-0.9-1.3-1.6-2.5-1.6c-1.3,0-2.1,0.6-2.6,1.8c-0.1,0.4-0.2,1.1-0.2,2.9c0,1.8,0.1,2.5,0.2,2.9
				c0.4,1.2,1.2,1.8,2.6,1.8c1.2,0,2-0.6,2.5-1.6c0-0.1,0.1-0.1,0.2-0.1l0.5,0.3c0.1,0,0.1,0.1,0,0.2c-0.6,1.3-1.8,2-3.3,2
				c-1.7,0-2.9-0.8-3.4-2.4C118.7,247.4,118.6,246.7,118.6,244.8z"/>
			<path d="M131.3,250.2c-0.1,0-0.2-0.1-0.2-0.2v-9.8c0-0.1,0-0.1-0.1-0.1h-3.1c-0.1,0-0.2-0.1-0.2-0.2v-0.5c0-0.1,0.1-0.2,0.2-0.2
				h7.4c0.1,0,0.2,0.1,0.2,0.2v0.5c0,0.1-0.1,0.2-0.2,0.2h-3.1c-0.1,0-0.1,0-0.1,0.1v9.8c0,0.1-0.1,0.2-0.2,0.2H131.3z"/>
			<path d="M138.6,239.5c0-0.1,0.1-0.2,0.2-0.2h0.6c0.1,0,0.2,0.1,0.2,0.2V250c0,0.1-0.1,0.2-0.2,0.2h-0.6c-0.1,0-0.2-0.1-0.2-0.2
				V239.5z"/>
			<path d="M143.7,247.9c-0.2-0.6-0.3-1.3-0.3-3.2s0.1-2.6,0.3-3.2c0.5-1.6,1.7-2.4,3.5-2.4c1.8,0,3,0.8,3.5,2.4
				c0.2,0.6,0.3,1.3,0.3,3.2s-0.1,2.6-0.3,3.2c-0.5,1.6-1.7,2.4-3.5,2.4C145.4,250.4,144.2,249.5,143.7,247.9z M149.8,241.9
				c-0.4-1.2-1.3-1.8-2.6-1.8c-1.4,0-2.2,0.6-2.6,1.8c-0.1,0.4-0.3,1.1-0.3,2.9s0.1,2.5,0.3,2.9c0.4,1.2,1.3,1.8,2.6,1.8
				c1.3,0,2.2-0.6,2.6-1.8c0.1-0.4,0.3-1.1,0.3-2.9S150,242.3,149.8,241.9z"/>
			<path d="M154.8,239.5c0-0.1,0.1-0.2,0.2-0.2h0.6c0.1,0,0.2,0,0.3,0.2l5.4,8.9h0v-8.9c0-0.1,0.1-0.2,0.2-0.2h0.6
				c0.1,0,0.2,0.1,0.2,0.2V250c0,0.1-0.1,0.2-0.2,0.2h-0.6c-0.1,0-0.2,0-0.3-0.2l-5.4-9h-0.1v9c0,0.1-0.1,0.2-0.2,0.2H155
				c-0.1,0-0.2-0.1-0.2-0.2V239.5z"/>
		</g>
	</g>
	<g>
		<g>
			<g>
				<path class="st8" d="M95.7,59.7c0-11.2,0-33.5,0-33.5H39.8v33.5c0,0,0,11.2,11.2,11.2c17,0,55.9,0,55.9,0S95.7,70.9,95.7,59.7z"
					/>
			</g>
			<g>
				<path d="M112.5,71.6h-5.6c-0.1,0-11.9-0.1-11.9-11.9V25.5h7v34.2c0,10.3,10,10.5,10.5,10.5V71.6z M96.4,26.9v32.8
					c0,9.9,9.1,10.4,10.4,10.5c-3-1.5-6.2-4.4-6.2-10.5V26.9H96.4z"/>
			</g>
			<g>
				<path class="st9" d="M118.1,59.7c0-11.2,11.2-11.2,11.2-11.2H73.4c0,0-11.2,0-11.2,11.2C62.2,70.9,51,70.9,51,70.9l56,0.1
					C108.4,70.9,118.1,70.1,118.1,59.7z"/>
			</g>
			<g>
				<path class="st8" d="M129.2,48.5c-8.9,0-42.4,0-55.9,0c0,0,11.2,0,11.2,11.2c0,11.2,0,55.9,0,55.9l55.9,0V59.7
					C140.4,59.7,140.4,48.5,129.2,48.5z"/>
			</g>
			<g>
				<rect x="39.8" y="30.7" class="st3" width="55.2" height="1.4"/>
			</g>
			<g>
				<rect x="84.4" y="64.6" class="st3" width="56.2" height="1.4"/>
			</g>
			<g>
				<rect x="84.4" y="86.8" class="st3" width="56.2" height="1.4"/>
			</g>
			<g>
				<rect x="84.4" y="109.3" class="st3" width="56.2" height="1.4"/>
			</g>
			<g>
				<rect x="39.8" y="53.4" class="st3" width="18" height="1.4"/>
			</g>
			<g>
				<path d="M51,71.6h-5.6c-11.7,0-11.9-11.8-11.9-11.9V25.5h7v34.2c0,0.4,0.1,10.5,10.5,10.5V71.6z M35,26.9v32.8
					c0,0.4,0.1,10.1,10,10.5c-5.7-3.1-5.8-10.4-5.8-10.5V26.9H35z"/>
			</g>
			<g>
				<rect x="70.6" y="47.8" width="58.7" height="1.4"/>
			</g>
			<g>
				<path d="M85.2,116.3h-7V59.7c0-10.4-10-10.5-10.5-10.5v-1.4h5.6c0.1,0,11.9,0.1,11.9,11.9V116.3z M79.6,114.9h4.2V59.7
					c0-9.9-9.1-10.4-10.4-10.5c3,1.5,6.2,4.4,6.2,10.5V114.9z"/>
			</g>
			<g>
				<path d="M146.7,116.3h-7l0-56.6c0-0.4-0.1-10.5-10.5-10.5v-1.4h5.6c11.7,0,11.9,11.8,11.9,11.9V116.3z M141.1,114.9h4.2V59.7
					c0-0.4-0.1-10.1-10-10.5c5.7,3.1,5.8,10.4,5.8,10.5V114.9z"/>
			</g>
			<g>
				<path d="M51,71.6v-1.3c-2.8,1.3-5.5,1.3-5.6,1.3v-1.4c0.4,0,10.5-0.1,10.5-10.5c0-11.7,11.8-11.9,11.9-11.9h5.6v1.4
					c-0.4,0-10.5,0.1-10.5,10.5C62.9,71.4,51.1,71.6,51,71.6z M67.7,49.2c-1.2,0-10.4,0.6-10.4,10.5c0,6-3.1,9-6.2,10.5
					c1.2,0,10.4-0.6,10.4-10.5C61.5,53.7,64.6,50.7,67.7,49.2z"/>
			</g>
		</g>
		<g>
			<g>
				<rect x="113.2" y="115.2" class="st10" width="80.1" height="52.1"/>
			</g>
			<path class="st9" d="M117.3,119.9v42.7h72.5v-42.7H117.3z"/>
			<polygon class="st3" points="149.2,146.2 149.2,136.3 157.9,141.1 			"/>
			<g>
				<g>
					<rect x="113.2" y="106.8" class="st9" width="80.1" height="8"/>
				</g>
				<g>
					<g>
						<polygon class="st3" points="121.5,115.2 120.8,114.5 128.8,106.5 129.5,107.2 						"/>
					</g>
					<g>
						<polygon class="st3" points="129.5,115.2 128.8,114.5 136.8,106.5 137.5,107.2 						"/>
					</g>
					<g>
						
							<rect x="135.6" y="110.3" transform="matrix(0.7072 -0.7071 0.7071 0.7072 -37.0078 132.3079)" class="st3" width="11.2" height="1"/>
					</g>
					<g>
						<polygon class="st3" points="145.6,115.2 144.9,114.5 152.8,106.5 153.5,107.2 						"/>
					</g>
					<g>
						<polygon class="st3" points="153.6,115.2 152.9,114.5 160.9,106.5 161.6,107.2 						"/>
					</g>
					<g>
						
							<rect x="159.6" y="110.3" transform="matrix(0.7071 -0.7071 0.7071 0.7071 -29.9764 149.2923)" class="st3" width="11.2" height="1"/>
					</g>
					<g>
						
							<rect x="167.6" y="110.3" transform="matrix(0.707 -0.7072 0.7072 0.707 -27.6149 155.0068)" class="st3" width="11.2" height="1"/>
					</g>
					<g>
						
							<rect x="175.6" y="110.3" transform="matrix(0.7053 -0.7089 0.7089 0.7053 -25.1572 161.1438)" class="st3" width="11.2" height="1"/>
					</g>
					<g>
						<polygon class="st3" points="185.7,115.2 185,114.5 192.9,106.5 193.6,107.2 						"/>
					</g>
					<g>
						
							<rect x="111.6" y="110.3" transform="matrix(0.7071 -0.7072 0.7072 0.7071 -44.0623 115.3211)" class="st3" width="11.1" height="1"/>
					</g>
				</g>
			</g>
			<g>
				<g>
					
						<rect x="112.1" y="92.8" transform="matrix(0.9887 -0.1502 0.1502 0.9887 -12.8164 23.9544)" class="st9" width="80.1" height="8"/>
				</g>
				<g>
					<g>
						
							<rect x="118.8" y="100.6" transform="matrix(0.5929 -0.8053 0.8053 0.5929 -30.7369 141.3448)" class="st3" width="11.2" height="1"/>
					</g>
					<g>
						
							<rect x="126.7" y="99.4" transform="matrix(0.5933 -0.805 0.805 0.5933 -26.5861 147.1263)" class="st3" width="11.2" height="1"/>
					</g>
					<g>
						
							<rect x="134.7" y="98.2" transform="matrix(0.5925 -0.8056 0.8056 0.5925 -22.2981 153.2389)" class="st3" width="11.2" height="1"/>
					</g>
					<g>
						
							<rect x="142.6" y="97" transform="matrix(0.5907 -0.8069 0.8069 0.5907 -17.981 159.472)" class="st3" width="11.2" height="1"/>
					</g>
					<g>
						
							<rect x="150.5" y="95.7" transform="matrix(0.5934 -0.8049 0.8049 0.5934 -13.9802 164.8264)" class="st3" width="11.2" height="1"/>
					</g>
					<g>
						<polygon class="st3" points="161.1,99.9 160.3,99.3 167,90.2 167.8,90.8 						"/>
					</g>
					<g>
						
							<rect x="166.4" y="93.3" transform="matrix(0.5933 -0.805 0.805 0.5933 -5.5904 176.6238)" class="st3" width="11.2" height="1"/>
					</g>
					<g>
						
							<rect x="174.3" y="92.1" transform="matrix(0.5928 -0.8054 0.8054 0.5928 -1.3607 182.5995)" class="st3" width="11.2" height="1"/>
					</g>
					<g>
						
							<rect x="182.2" y="90.9" transform="matrix(0.5936 -0.8047 0.8047 0.5936 2.7465 188.3118)" class="st3" width="11.2" height="1"/>
					</g>
					<g>
						
							<rect x="111" y="101.8" transform="matrix(0.5904 -0.8071 0.8071 0.5904 -34.8281 135.9482)" class="st3" width="11.1" height="1"/>
					</g>
				</g>
			</g>
			<polygon class="st11" points="112,98.9 112.8,106.5 192.4,94.8 190.8,86.6 			"/>
			<polygon class="st11" points="112.8,106.5 113.2,115.2 193.3,115.2 193.3,106.8 			"/>
		</g>
	</g>
</g>
</svg>
