<?xml version="1.0" encoding="utf-8"?>
<!-- Generator: Adobe Illustrator 20.0.0, SVG Export Plug-In . SVG Version: 6.00 Build 0)  -->
<svg version="1.1" id="Layer_1" xmlns="http://www.w3.org/2000/svg" xmlns:xlink="http://www.w3.org/1999/xlink" x="0px" y="0px"
	 viewBox="0 0 463.5 275.9" style="enable-background:new 0 0 463.5 275.9;" xml:space="preserve">
<style type="text/css">
	.st0{fill:none;stroke:#000000;stroke-width:1.0387;stroke-miterlimit:10;}
	.st1{fill:none;stroke:#000000;stroke-miterlimit:10;}
	.st2{fill:none;stroke:#000000;stroke-width:0.3639;stroke-miterlimit:10;}
	.st3{fill:#FFFFFF;}
	.st4{fill:#ECF8FE;}
	.st5{fill:#27BDBE;}
	.st6{fill:#FFE06A;}
	.st7{fill:#D9D9D9;}
	.st8{fill:#999999;}
	.st9{fill:#BFBFBF;}
	.st10{fill:#FFFFFF;stroke:#000000;stroke-width:1.5873;stroke-miterlimit:10;}
	.st11{fill:none;stroke:#000000;stroke-width:1.5873;stroke-linecap:round;stroke-linejoin:round;stroke-miterlimit:10;}
	.st12{fill:none;stroke:#000000;stroke-width:0.8323;stroke-linecap:round;stroke-linejoin:round;stroke-miterlimit:10;}
	.st13{fill:#CFCDCD;}
	.st14{fill:#C9E9E6;}
	.st15{fill:none;stroke:#000000;stroke-width:0.8889;stroke-miterlimit:10;}
	.st16{fill:none;stroke:#FFFFFF;stroke-miterlimit:10;}
</style>
<g>
	<g>
		<path d="M307.6,223.8c-0.1,0-0.2-0.1-0.2-0.2v-9.8c0-0.1,0-0.1-0.1-0.1h-3.1c-0.1,0-0.2-0.1-0.2-0.2v-0.5c0-0.1,0.1-0.2,0.2-0.2
			h7.4c0.1,0,0.2,0.1,0.2,0.2v0.5c0,0.1-0.1,0.2-0.2,0.2h-3.1c-0.1,0-0.1,0-0.1,0.1v9.8c0,0.1-0.1,0.2-0.2,0.2H307.6z"/>
		<path d="M315.2,213.1c0-0.1,0.1-0.2,0.2-0.2h0.6c0.1,0,0.2,0.1,0.2,0.2v4.7c0,0.1,0,0.1,0.1,0.1h5.4c0.1,0,0.1,0,0.1-0.1v-4.7
			c0-0.1,0.1-0.2,0.2-0.2h0.6c0.1,0,0.2,0.1,0.2,0.2v10.6c0,0.1-0.1,0.2-0.2,0.2h-0.6c-0.1,0-0.2-0.1-0.2-0.2v-4.8
			c0-0.1,0-0.1-0.1-0.1h-5.4c-0.1,0-0.1,0-0.1,0.1v4.8c0,0.1-0.1,0.2-0.2,0.2h-0.6c-0.1,0-0.2-0.1-0.2-0.2V213.1z"/>
		<path d="M327.2,213.1c0-0.1,0.1-0.2,0.2-0.2h6.2c0.1,0,0.2,0.1,0.2,0.2v0.5c0,0.1-0.1,0.2-0.2,0.2h-5.4c-0.1,0-0.1,0-0.1,0.1v3.9
			c0,0.1,0,0.1,0.1,0.1h4.6c0.1,0,0.2,0.1,0.2,0.2v0.5c0,0.1-0.1,0.2-0.2,0.2h-4.6c-0.1,0-0.1,0-0.1,0.1v4c0,0.1,0,0.1,0.1,0.1h5.4
			c0.1,0,0.2,0.1,0.2,0.2v0.5c0,0.1-0.1,0.2-0.2,0.2h-6.2c-0.1,0-0.2-0.1-0.2-0.2V213.1z"/>
		<path d="M337.7,213.1c0-0.1,0.1-0.2,0.2-0.2h0.6c0.1,0,0.2,0,0.2,0.2l3.5,7.8h0.1l3.5-7.8c0-0.1,0.1-0.2,0.2-0.2h0.6
			c0.1,0,0.2,0.1,0.2,0.2v10.6c0,0.1-0.1,0.2-0.2,0.2H346c-0.1,0-0.2-0.1-0.2-0.2v-8.5h0l-3.1,6.9c-0.1,0.1-0.1,0.2-0.3,0.2h-0.3
			c-0.1,0-0.2,0-0.3-0.2l-3.1-6.9h0v8.5c0,0.1-0.1,0.2-0.2,0.2h-0.6c-0.1,0-0.2-0.1-0.2-0.2V213.1z"/>
		<path d="M354.2,213.1c0-0.1,0.1-0.2,0.2-0.2h0.6c0.1,0,0.2,0.1,0.2,0.2l3.8,10.6c0,0.1,0,0.2-0.1,0.2h-0.6c-0.1,0-0.2,0-0.2-0.2
			l-1-2.7h-4.7l-1,2.7c0,0.1-0.1,0.2-0.2,0.2h-0.6c-0.1,0-0.1-0.1-0.1-0.2L354.2,213.1z M356.7,220.1l-2-5.7h0l-2,5.7H356.7z"/>
		<path d="M363.8,223.8c-0.1,0-0.2-0.1-0.2-0.2v-9.8c0-0.1,0-0.1-0.1-0.1h-3.1c-0.1,0-0.2-0.1-0.2-0.2v-0.5c0-0.1,0.1-0.2,0.2-0.2
			h7.4c0.1,0,0.2,0.1,0.2,0.2v0.5c0,0.1-0.1,0.2-0.2,0.2h-3.1c-0.1,0-0.1,0-0.1,0.1v9.8c0,0.1-0.1,0.2-0.2,0.2H363.8z"/>
		<path d="M371.3,213.1c0-0.1,0.1-0.2,0.2-0.2h0.6c0.1,0,0.2,0.1,0.2,0.2v10.6c0,0.1-0.1,0.2-0.2,0.2h-0.6c-0.1,0-0.2-0.1-0.2-0.2
			V213.1z"/>
		<path d="M376.4,218.4c0-1.9,0.1-2.6,0.3-3.2c0.5-1.6,1.7-2.4,3.4-2.4c1.5,0,2.7,0.7,3.3,2c0,0.1,0,0.2,0,0.2l-0.5,0.3
			c-0.1,0-0.2,0-0.2-0.1c-0.5-0.9-1.3-1.6-2.5-1.6c-1.3,0-2.1,0.6-2.6,1.8c-0.1,0.4-0.2,1.1-0.2,2.9c0,1.8,0.1,2.5,0.2,2.9
			c0.4,1.2,1.2,1.8,2.6,1.8c1.2,0,2-0.6,2.5-1.6c0-0.1,0.1-0.1,0.2-0.1l0.5,0.3c0.1,0,0.1,0.1,0,0.2c-0.6,1.3-1.8,2-3.3,2
			c-1.7,0-2.9-0.8-3.4-2.4C376.5,221,376.4,220.3,376.4,218.4z"/>
		<path d="M272.2,240.1c0-1.9,0.1-2.6,0.3-3.2c0.5-1.6,1.7-2.4,3.4-2.4c1.5,0,2.7,0.7,3.3,2c0,0.1,0,0.2,0,0.2l-0.5,0.3
			c-0.1,0-0.2,0-0.2-0.1c-0.5-0.9-1.3-1.6-2.5-1.6c-1.3,0-2.1,0.6-2.6,1.8c-0.1,0.4-0.2,1.1-0.2,2.9c0,1.8,0.1,2.5,0.2,2.9
			c0.4,1.2,1.2,1.8,2.6,1.8c1.2,0,2-0.6,2.5-1.6c0-0.1,0.1-0.1,0.2-0.1l0.5,0.3c0.1,0,0.1,0.1,0,0.2c-0.6,1.3-1.8,2-3.3,2
			c-1.7,0-2.9-0.8-3.4-2.4C272.3,242.8,272.2,242,272.2,240.1z"/>
		<path d="M286,234.9c0-0.1,0.1-0.2,0.2-0.2h0.6c0.1,0,0.2,0.1,0.2,0.2l3.8,10.6c0,0.1,0,0.2-0.1,0.2H290c-0.1,0-0.2,0-0.2-0.2
			l-1-2.7H284l-1,2.7c0,0.1-0.1,0.2-0.2,0.2h-0.6c-0.1,0-0.1-0.1-0.1-0.2L286,234.9z M288.5,241.9l-2-5.7h0l-2,5.7H288.5z"/>
		<path d="M294.3,234.9c0-0.1,0.1-0.2,0.2-0.2h0.6c0.1,0,0.2,0,0.2,0.2l3.5,7.8h0.1l3.5-7.8c0-0.1,0.1-0.2,0.2-0.2h0.6
			c0.1,0,0.2,0.1,0.2,0.2v10.6c0,0.1-0.1,0.2-0.2,0.2h-0.6c-0.1,0-0.2-0.1-0.2-0.2v-8.5h0l-3.1,6.9c-0.1,0.1-0.1,0.2-0.3,0.2h-0.3
			c-0.1,0-0.2,0-0.3-0.2l-3.1-6.9h0v8.5c0,0.1-0.1,0.2-0.2,0.2h-0.6c-0.1,0-0.2-0.1-0.2-0.2V234.9z"/>
		<path d="M308.1,245.6c-0.1,0-0.2-0.1-0.2-0.2v-10.6c0-0.1,0.1-0.2,0.2-0.2h3.6c2.1,0,3.3,1.2,3.3,3.1c0,1.9-1.3,3.1-3.3,3.1H309
			c-0.1,0-0.1,0-0.1,0.1v4.5c0,0.1-0.1,0.2-0.2,0.2H308.1z M314.2,237.8c0-1.4-0.9-2.2-2.5-2.2H309c-0.1,0-0.1,0-0.1,0.1v4.2
			c0,0.1,0,0.1,0.1,0.1h2.8C313.3,240,314.2,239.2,314.2,237.8z"/>
		<path d="M320.7,234.9c0-0.1,0.1-0.2,0.2-0.2h0.6c0.1,0,0.2,0.1,0.2,0.2l3.8,10.6c0,0.1,0,0.2-0.1,0.2h-0.6c-0.1,0-0.2,0-0.2-0.2
			l-1-2.7h-4.7l-1,2.7c0,0.1-0.1,0.2-0.2,0.2H317c-0.1,0-0.1-0.1-0.1-0.2L320.7,234.9z M323.2,241.9l-2-5.7h0l-2,5.7H323.2z"/>
		<path d="M329,234.9c0-0.1,0.1-0.2,0.2-0.2h0.6c0.1,0,0.2,0.1,0.2,0.2v10.6c0,0.1-0.1,0.2-0.2,0.2h-0.6c-0.1,0-0.2-0.1-0.2-0.2
			V234.9z"/>
		<path d="M334.1,240.1c0-1.9,0.1-2.6,0.3-3.2c0.5-1.6,1.8-2.4,3.6-2.4c1.8,0,2.9,0.9,3.4,2c0,0.1,0,0.2-0.1,0.2l-0.5,0.3
			c-0.1,0-0.2,0-0.2-0.1c-0.5-1-1.3-1.6-2.6-1.6c-1.3,0-2.3,0.6-2.7,1.8c-0.1,0.4-0.3,1.1-0.3,2.9c0,1.8,0.1,2.5,0.3,2.9
			c0.4,1.2,1.3,1.8,2.7,1.8c1.3,0,2.3-0.6,2.7-1.8c0.1-0.4,0.3-1,0.3-2.1c0-0.1,0-0.1-0.1-0.1h-2.5c-0.1,0-0.2-0.1-0.2-0.2v-0.5
			c0-0.1,0.1-0.2,0.2-0.2h3.3c0.1,0,0.2,0.1,0.2,0.2v0.7c0,1.1-0.1,1.9-0.3,2.4c-0.5,1.6-1.8,2.5-3.5,2.5c-1.8,0-3-0.8-3.6-2.4
			C334.2,242.8,334.1,242,334.1,240.1z"/>
		<path d="M345.9,234.9c0-0.1,0.1-0.2,0.2-0.2h0.6c0.1,0,0.2,0,0.3,0.2l5.4,8.9h0v-8.9c0-0.1,0.1-0.2,0.2-0.2h0.6
			c0.1,0,0.2,0.1,0.2,0.2v10.6c0,0.1-0.1,0.2-0.2,0.2h-0.6c-0.1,0-0.2,0-0.3-0.2l-5.4-9h-0.1v9c0,0.1-0.1,0.2-0.2,0.2H346
			c-0.1,0-0.2-0.1-0.2-0.2V234.9z"/>
		<path d="M363.4,234.9c0-0.1,0.1-0.2,0.2-0.2h3.4c1.8,0,3,0.7,3.5,2.2c0.2,0.6,0.3,1.2,0.3,3.2c0,2-0.1,2.6-0.3,3.2
			c-0.5,1.5-1.7,2.2-3.5,2.2h-3.4c-0.1,0-0.2-0.1-0.2-0.2V234.9z M364.4,244.7h2.4c1.4,0,2.3-0.5,2.7-1.6c0.2-0.5,0.3-1.1,0.3-2.9
			c0-1.8-0.1-2.4-0.3-2.9c-0.4-1.2-1.3-1.6-2.7-1.6h-2.4c-0.1,0-0.1,0-0.1,0.1L364.4,244.7C364.3,244.7,364.4,244.7,364.4,244.7z"/>
		<path d="M375,234.9c0-0.1,0.1-0.2,0.2-0.2h6.2c0.1,0,0.2,0.1,0.2,0.2v0.5c0,0.1-0.1,0.2-0.2,0.2H376c-0.1,0-0.1,0-0.1,0.1v3.9
			c0,0.1,0,0.1,0.1,0.1h4.6c0.1,0,0.2,0.1,0.2,0.2v0.5c0,0.1-0.1,0.2-0.2,0.2H376c-0.1,0-0.1,0-0.1,0.1v4c0,0.1,0,0.1,0.1,0.1h5.4
			c0.1,0,0.2,0.1,0.2,0.2v0.5c0,0.1-0.1,0.2-0.2,0.2h-6.2c-0.1,0-0.2-0.1-0.2-0.2V234.9z"/>
		<path d="M385,244.5c-0.1-0.1-0.1-0.2,0-0.2l0.4-0.5c0.1-0.1,0.2-0.1,0.2,0c0.7,0.6,1.9,1.1,3.1,1.1c1.7,0,2.8-0.9,2.8-2.2
			c0-1.1-0.6-1.9-2.6-2.1l-0.5-0.1c-2.1-0.3-3.1-1.3-3.1-2.9c0-1.9,1.3-3.1,3.4-3.1c1.2,0,2.4,0.4,3.1,0.9c0.1,0,0.1,0.1,0,0.2
			l-0.3,0.5c-0.1,0.1-0.1,0.1-0.2,0c-0.9-0.5-1.7-0.8-2.6-0.8c-1.6,0-2.5,0.9-2.5,2.1c0,1.1,0.7,1.8,2.6,2.1l0.5,0.1
			c2.2,0.3,3.2,1.3,3.2,2.9c0,1.8-1.3,3.2-3.8,3.2C387.2,245.7,385.7,245.1,385,244.5z"/>
		<path d="M396.6,234.9c0-0.1,0.1-0.2,0.2-0.2h0.6c0.1,0,0.2,0.1,0.2,0.2v10.6c0,0.1-0.1,0.2-0.2,0.2h-0.6c-0.1,0-0.2-0.1-0.2-0.2
			V234.9z"/>
		<path d="M401.6,240.1c0-1.9,0.1-2.6,0.3-3.2c0.5-1.6,1.8-2.4,3.6-2.4c1.8,0,2.9,0.9,3.4,2c0,0.1,0,0.2-0.1,0.2l-0.5,0.3
			c-0.1,0-0.2,0-0.2-0.1c-0.5-1-1.3-1.6-2.6-1.6c-1.3,0-2.3,0.6-2.7,1.8c-0.1,0.4-0.3,1.1-0.3,2.9c0,1.8,0.1,2.5,0.3,2.9
			c0.4,1.2,1.3,1.8,2.7,1.8c1.3,0,2.3-0.6,2.7-1.8c0.1-0.4,0.3-1,0.3-2.1c0-0.1,0-0.1-0.1-0.1h-2.5c-0.1,0-0.2-0.1-0.2-0.2v-0.5
			c0-0.1,0.1-0.2,0.2-0.2h3.3c0.1,0,0.2,0.1,0.2,0.2v0.7c0,1.1-0.1,1.9-0.3,2.4c-0.5,1.6-1.8,2.5-3.5,2.5c-1.8,0-3-0.8-3.6-2.4
			C401.8,242.8,401.6,242,401.6,240.1z"/>
		<path d="M413.5,234.9c0-0.1,0.1-0.2,0.2-0.2h0.6c0.1,0,0.2,0,0.3,0.2l5.4,8.9h0v-8.9c0-0.1,0.1-0.2,0.2-0.2h0.6
			c0.1,0,0.2,0.1,0.2,0.2v10.6c0,0.1-0.1,0.2-0.2,0.2h-0.6c-0.1,0-0.2,0-0.3-0.2l-5.4-9h-0.1v9c0,0.1-0.1,0.2-0.2,0.2h-0.6
			c-0.1,0-0.2-0.1-0.2-0.2V234.9z"/>
	</g>
	<g>
		<rect x="271.9" y="66.6" class="st13" width="12.6" height="28.7"/>
		<rect x="264" y="70.1" class="st6" width="8" height="20.8"/>
		<rect x="364.4" y="44.7" class="st5" width="4.7" height="69"/>
		<rect x="275.1" y="116.1" class="st5" width="7.8" height="31.2"/>
		<rect x="288.6" y="62.8" class="st6" width="34.4" height="35.3"/>
		<g>
			<rect x="299.6" y="98.2" class="st3" width="14" height="54.1"/>
			<path d="M314.8,153.5h-16.3V97h16.3V153.5z M300.8,151.1h11.7V99.3h-11.7V151.1z"/>
		</g>
		<g>
			<path class="st3" d="M306.2,113.2H323c0,0,5.6-0.6,6.4,3.1c0,0,1.1,4.4-4.8,5c0,0,6.5-0.3,6.9,3.1c0.3,3.4-1.8,5-6.7,5.1
				c0,0,6.1-0.2,6.3,3.3c0.2,3.5-4,4.3-6,4.2c0,0,5.1,0.7,5,4.6c-0.1,2.5-1.6,5.4-11.6,4.7l-32.9,0.2v-29.1h6.7
				c0,0-0.6-8.9,6.6-10.3v6.2L306.2,113.2z"/>
			<path d="M284.3,147.6v-31.5h6.7c0.1-3.6,1.8-9.1,7.6-10.3l1.4-0.3v6.5l23,0c0.7-0.1,6.6-0.4,7.6,4c0,0,0.5,2.1-0.7,3.9
				c-0.2,0.3-0.4,0.5-0.6,0.7c1.7,0.5,3.2,1.6,3.4,3.6c0.2,1.7-0.2,3.1-1.2,4.2c-0.4,0.4-0.8,0.7-1.3,1c1.1,0.7,1.9,1.7,2,3.2
				c0.1,1.4-0.4,2.6-1.3,3.5c-0.5,0.5-1.1,0.9-1.7,1.1c1.2,0.9,2.1,2.3,2.1,4.2c0,1.5-0.6,2.8-1.6,3.7c-1.9,1.8-5.6,2.5-11.2,2.1
				L284.3,147.6z M286.7,118.4v26.8l31.8-0.2c6.1,0.4,8.6-0.6,9.6-1.5c0.6-0.5,0.8-1.2,0.9-2.1c0.1-2.8-3.8-3.4-4-3.4l0.2-2.3
				c1.1,0.1,3.1-0.2,4.1-1.2c0.5-0.5,0.7-1,0.6-1.7c-0.1-2.1-4.4-2.2-5-2.2c0,0-0.1,0-0.1,0l0-2.3c0.1,0,0.2,0,0.4,0
				c2.3-0.1,3.9-0.5,4.7-1.4c0.5-0.6,0.7-1.3,0.6-2.4c-0.2-1.7-3.9-2.1-5.7-2l-0.2-2.3c1.7-0.2,2.8-0.7,3.4-1.5c0.6-0.9,0.4-2,0.4-2
				c-0.6-2.6-5.1-2.2-5.1-2.2l-0.1,0l-25.4,0v-5.8c-4.6,2-4.3,8.6-4.3,8.7l0.1,1.2H286.7z"/>
		</g>
		<path d="M289.8,96.4h-19V64.6h19V96.4z M273.1,94h14.4V66.9h-14.4V94z"/>
		<path d="M273.1,92.1h-10.3V68.9h10.3V92.1z M265.1,89.8h5.6V71.2h-5.6V89.8z"/>
		<path d="M376.7,118.5l-54.8-22.3V63.5l54.8-24.9V118.5z M324.2,94.7l50.2,20.4V42.2L324.2,65V94.7z"/>
		<path d="M393.5,51.4c-0.4,0-0.8-0.2-1-0.6c-0.3-0.6-0.2-1.3,0.4-1.6l31.3-18.9c0.6-0.3,1.3-0.2,1.6,0.4c0.3,0.6,0.2,1.3-0.4,1.6
			l-31.3,18.9C394,51.3,393.7,51.4,393.5,51.4z"/>
		<path d="M431.1,76.4C431.1,76.4,431.1,76.4,431.1,76.4l-36.6-0.2c-0.6,0-1.2-0.5-1.2-1.2c0-0.6,0.5-1.2,1.2-1.2c0,0,0,0,0,0
			l36.5,0.2c0.6,0,1.2,0.5,1.2,1.2C432.3,75.9,431.8,76.4,431.1,76.4z"/>
		<path d="M427.7,120.3c-0.2,0-0.4-0.1-0.6-0.2l-31.3-18.9c-0.6-0.3-0.7-1.1-0.4-1.6c0.3-0.6,1.1-0.7,1.6-0.4l31.3,18.9
			c0.6,0.3,0.7,1.1,0.4,1.6C428.5,120.1,428.1,120.3,427.7,120.3z"/>
		<g>
			<path class="st5" d="M266.8,76.3v-1.2c0-0.2,0.2-0.4,0.4-0.4h1.2c0.2,0,0.4,0.2,0.4,0.4v1.2c0,0.2-0.2,0.4-0.4,0.4h-1.2
				C267,76.8,266.8,76.6,266.8,76.3z"/>
			<path class="st5" d="M266.8,81.3v-1.2c0-0.2,0.2-0.4,0.4-0.4h1.2c0.2,0,0.4,0.2,0.4,0.4v1.2c0,0.2-0.2,0.4-0.4,0.4h-1.2
				C267,81.8,266.8,81.6,266.8,81.3z"/>
			<path class="st5" d="M266.8,86.4v-1.2c0-0.2,0.2-0.4,0.4-0.4h1.2c0.2,0,0.4,0.2,0.4,0.4v1.2c0,0.2-0.2,0.4-0.4,0.4h-1.2
				C267,86.8,266.8,86.6,266.8,86.4z"/>
		</g>
		<path d="M324.2,99.3h-36.7V61.7h36.7V99.3z M289.8,97h32V64h-32V97z"/>
		<g>
			<rect x="338.1" y="146.1" width="2.3" height="6.4"/>
			<rect x="344.6" y="143.7" width="2.3" height="8.8"/>
			<rect x="351.1" y="141.3" width="2.3" height="11.2"/>
			<rect x="357.6" y="138.4" width="2.3" height="14.1"/>
			<rect x="364.1" y="141.3" width="2.3" height="11.2"/>
			<rect x="370.6" y="144.3" width="2.3" height="8.2"/>
			<rect x="377.1" y="137.7" width="2.3" height="14.8"/>
			<rect x="383.6" y="132.4" width="2.3" height="20.1"/>
			<rect x="390.1" y="126.9" width="2.3" height="25.6"/>
			<rect x="396.5" y="120.6" width="2.3" height="31.9"/>
			<rect x="403" y="126.9" width="2.3" height="25.6"/>
			<rect x="409.5" y="134" width="2.3" height="18.5"/>
		</g>
	</g>
</g>
<g>
	<g>
		<path d="M75.6,223.8c-0.1,0-0.2-0.1-0.2-0.2v-9.8c0-0.1,0-0.1-0.1-0.1h-3.1c-0.1,0-0.2-0.1-0.2-0.2v-0.5c0-0.1,0.1-0.2,0.2-0.2
			h7.4c0.1,0,0.2,0.1,0.2,0.2v0.5c0,0.1-0.1,0.2-0.2,0.2h-3.1c-0.1,0-0.1,0-0.1,0.1v9.8c0,0.1-0.1,0.2-0.2,0.2H75.6z"/>
		<path d="M83.2,213.1c0-0.1,0.1-0.2,0.2-0.2h0.6c0.1,0,0.2,0.1,0.2,0.2v4.7c0,0.1,0,0.1,0.1,0.1h5.4c0.1,0,0.1,0,0.1-0.1v-4.7
			c0-0.1,0.1-0.2,0.2-0.2h0.6c0.1,0,0.2,0.1,0.2,0.2v10.6c0,0.1-0.1,0.2-0.2,0.2h-0.6c-0.1,0-0.2-0.1-0.2-0.2v-4.8
			c0-0.1,0-0.1-0.1-0.1h-5.4c-0.1,0-0.1,0-0.1,0.1v4.8c0,0.1-0.1,0.2-0.2,0.2h-0.6c-0.1,0-0.2-0.1-0.2-0.2V213.1z"/>
		<path d="M95.2,213.1c0-0.1,0.1-0.2,0.2-0.2h6.2c0.1,0,0.2,0.1,0.2,0.2v0.5c0,0.1-0.1,0.2-0.2,0.2h-5.4c-0.1,0-0.1,0-0.1,0.1v3.9
			c0,0.1,0,0.1,0.1,0.1h4.6c0.1,0,0.2,0.1,0.2,0.2v0.5c0,0.1-0.1,0.2-0.2,0.2h-4.6c-0.1,0-0.1,0-0.1,0.1v4c0,0.1,0,0.1,0.1,0.1h5.4
			c0.1,0,0.2,0.1,0.2,0.2v0.5c0,0.1-0.1,0.2-0.2,0.2h-6.2c-0.1,0-0.2-0.1-0.2-0.2V213.1z"/>
		<path d="M105.7,213.1c0-0.1,0.1-0.2,0.2-0.2h0.6c0.1,0,0.2,0,0.2,0.2l3.5,7.8h0.1l3.5-7.8c0-0.1,0.1-0.2,0.2-0.2h0.6
			c0.1,0,0.2,0.1,0.2,0.2v10.6c0,0.1-0.1,0.2-0.2,0.2H114c-0.1,0-0.2-0.1-0.2-0.2v-8.5h0l-3.1,6.9c-0.1,0.1-0.1,0.2-0.3,0.2H110
			c-0.1,0-0.2,0-0.3-0.2l-3.1-6.9h0v8.5c0,0.1-0.1,0.2-0.2,0.2h-0.6c-0.1,0-0.2-0.1-0.2-0.2V213.1z"/>
		<path d="M122.1,213.1c0-0.1,0.1-0.2,0.2-0.2h0.6c0.1,0,0.2,0.1,0.2,0.2l3.8,10.6c0,0.1,0,0.2-0.1,0.2h-0.6c-0.1,0-0.2,0-0.2-0.2
			l-1-2.7h-4.7l-1,2.7c0,0.1-0.1,0.2-0.2,0.2h-0.6c-0.1,0-0.1-0.1-0.1-0.2L122.1,213.1z M124.7,220.1l-2-5.7h0l-2,5.7H124.7z"/>
		<path d="M131.7,223.8c-0.1,0-0.2-0.1-0.2-0.2v-9.8c0-0.1,0-0.1-0.1-0.1h-3.1c-0.1,0-0.2-0.1-0.2-0.2v-0.5c0-0.1,0.1-0.2,0.2-0.2
			h7.4c0.1,0,0.2,0.1,0.2,0.2v0.5c0,0.1-0.1,0.2-0.2,0.2h-3.1c-0.1,0-0.1,0-0.1,0.1v9.8c0,0.1-0.1,0.2-0.2,0.2H131.7z"/>
		<path d="M139.3,213.1c0-0.1,0.1-0.2,0.2-0.2h0.6c0.1,0,0.2,0.1,0.2,0.2v10.6c0,0.1-0.1,0.2-0.2,0.2h-0.6c-0.1,0-0.2-0.1-0.2-0.2
			V213.1z"/>
		<path d="M144.3,218.4c0-1.9,0.1-2.6,0.3-3.2c0.5-1.6,1.7-2.4,3.4-2.4c1.5,0,2.7,0.7,3.3,2c0,0.1,0,0.2,0,0.2l-0.5,0.3
			c-0.1,0-0.2,0-0.2-0.1c-0.5-0.9-1.3-1.6-2.5-1.6c-1.3,0-2.1,0.6-2.6,1.8c-0.1,0.4-0.2,1.1-0.2,2.9c0,1.8,0.1,2.5,0.2,2.9
			c0.4,1.2,1.2,1.8,2.6,1.8c1.2,0,2-0.6,2.5-1.6c0-0.1,0.1-0.1,0.2-0.1l0.5,0.3c0.1,0,0.1,0.1,0,0.2c-0.6,1.3-1.8,2-3.3,2
			c-1.7,0-2.9-0.8-3.4-2.4C144.5,221,144.3,220.3,144.3,218.4z"/>
		<path d="M40.1,240.1c0-1.9,0.1-2.6,0.3-3.2c0.5-1.6,1.7-2.4,3.4-2.4c1.5,0,2.7,0.7,3.3,2c0,0.1,0,0.2,0,0.2l-0.5,0.3
			c-0.1,0-0.2,0-0.2-0.1c-0.5-0.9-1.3-1.6-2.5-1.6c-1.3,0-2.1,0.6-2.6,1.8c-0.1,0.4-0.2,1.1-0.2,2.9c0,1.8,0.1,2.5,0.2,2.9
			c0.4,1.2,1.2,1.8,2.6,1.8c1.2,0,2-0.6,2.5-1.6c0-0.1,0.1-0.1,0.2-0.1l0.5,0.3c0.1,0,0.1,0.1,0,0.2c-0.6,1.3-1.8,2-3.3,2
			c-1.7,0-2.9-0.8-3.4-2.4C40.2,242.8,40.1,242,40.1,240.1z"/>
		<path d="M53.9,234.9c0-0.1,0.1-0.2,0.2-0.2h0.6c0.1,0,0.2,0.1,0.2,0.2l3.8,10.6c0,0.1,0,0.2-0.1,0.2h-0.6c-0.1,0-0.2,0-0.2-0.2
			l-1-2.7H52l-1,2.7c0,0.1-0.1,0.2-0.2,0.2h-0.6c-0.1,0-0.1-0.1-0.1-0.2L53.9,234.9z M56.4,241.9l-2-5.7h0l-2,5.7H56.4z"/>
		<path d="M62.2,234.9c0-0.1,0.1-0.2,0.2-0.2H63c0.1,0,0.2,0,0.2,0.2l3.5,7.8h0.1l3.5-7.8c0-0.1,0.1-0.2,0.2-0.2h0.6
			c0.1,0,0.2,0.1,0.2,0.2v10.6c0,0.1-0.1,0.2-0.2,0.2h-0.6c-0.1,0-0.2-0.1-0.2-0.2v-8.5h0l-3.1,6.9c-0.1,0.1-0.1,0.2-0.3,0.2h-0.3
			c-0.1,0-0.2,0-0.3-0.2l-3.1-6.9h0v8.5c0,0.1-0.1,0.2-0.2,0.2h-0.6c-0.1,0-0.2-0.1-0.2-0.2V234.9z"/>
		<path d="M76.1,245.6c-0.1,0-0.2-0.1-0.2-0.2v-10.6c0-0.1,0.1-0.2,0.2-0.2h3.6c2.1,0,3.3,1.2,3.3,3.1c0,1.9-1.3,3.1-3.3,3.1h-2.8
			c-0.1,0-0.1,0-0.1,0.1v4.5c0,0.1-0.1,0.2-0.2,0.2H76.1z M82.1,237.8c0-1.4-0.9-2.2-2.5-2.2h-2.8c-0.1,0-0.1,0-0.1,0.1v4.2
			c0,0.1,0,0.1,0.1,0.1h2.8C81.3,240,82.1,239.2,82.1,237.8z"/>
		<path d="M88.6,234.9c0-0.1,0.1-0.2,0.2-0.2h0.6c0.1,0,0.2,0.1,0.2,0.2l3.8,10.6c0,0.1,0,0.2-0.1,0.2h-0.6c-0.1,0-0.2,0-0.2-0.2
			l-1-2.7h-4.7l-1,2.7c0,0.1-0.1,0.2-0.2,0.2h-0.6c-0.1,0-0.1-0.1-0.1-0.2L88.6,234.9z M91.2,241.9l-2-5.7h0l-2,5.7H91.2z"/>
		<path d="M97,234.9c0-0.1,0.1-0.2,0.2-0.2h0.6c0.1,0,0.2,0.1,0.2,0.2v10.6c0,0.1-0.1,0.2-0.2,0.2h-0.6c-0.1,0-0.2-0.1-0.2-0.2
			V234.9z"/>
		<path d="M102,240.1c0-1.9,0.1-2.6,0.3-3.2c0.5-1.6,1.8-2.4,3.6-2.4c1.8,0,2.9,0.9,3.4,2c0,0.1,0,0.2-0.1,0.2l-0.5,0.3
			c-0.1,0-0.2,0-0.2-0.1c-0.5-1-1.3-1.6-2.6-1.6c-1.3,0-2.3,0.6-2.7,1.8c-0.1,0.4-0.3,1.1-0.3,2.9c0,1.8,0.1,2.5,0.3,2.9
			c0.4,1.2,1.3,1.8,2.7,1.8c1.3,0,2.3-0.6,2.7-1.8c0.1-0.4,0.3-1,0.3-2.1c0-0.1,0-0.1-0.1-0.1h-2.5c-0.1,0-0.2-0.1-0.2-0.2v-0.5
			c0-0.1,0.1-0.2,0.2-0.2h3.3c0.1,0,0.2,0.1,0.2,0.2v0.7c0,1.1-0.1,1.9-0.3,2.4c-0.5,1.6-1.8,2.5-3.5,2.5c-1.8,0-3-0.8-3.6-2.4
			C102.1,242.8,102,242,102,240.1z"/>
		<path d="M113.8,234.9c0-0.1,0.1-0.2,0.2-0.2h0.6c0.1,0,0.2,0,0.3,0.2l5.4,8.9h0v-8.9c0-0.1,0.1-0.2,0.2-0.2h0.6
			c0.1,0,0.2,0.1,0.2,0.2v10.6c0,0.1-0.1,0.2-0.2,0.2h-0.6c-0.1,0-0.2,0-0.3-0.2l-5.4-9h-0.1v9c0,0.1-0.1,0.2-0.2,0.2H114
			c-0.1,0-0.2-0.1-0.2-0.2V234.9z"/>
		<path d="M131.4,234.9c0-0.1,0.1-0.2,0.2-0.2h3.4c1.8,0,3,0.7,3.5,2.2c0.2,0.6,0.3,1.2,0.3,3.2c0,2-0.1,2.6-0.3,3.2
			c-0.5,1.5-1.7,2.2-3.5,2.2h-3.4c-0.1,0-0.2-0.1-0.2-0.2V234.9z M132.4,244.7h2.4c1.4,0,2.3-0.5,2.7-1.6c0.2-0.5,0.3-1.1,0.3-2.9
			c0-1.8-0.1-2.4-0.3-2.9c-0.4-1.2-1.3-1.6-2.7-1.6h-2.4c-0.1,0-0.1,0-0.1,0.1L132.4,244.7C132.3,244.7,132.3,244.7,132.4,244.7z"/>
		<path d="M142.9,234.9c0-0.1,0.1-0.2,0.2-0.2h6.2c0.1,0,0.2,0.1,0.2,0.2v0.5c0,0.1-0.1,0.2-0.2,0.2h-5.4c-0.1,0-0.1,0-0.1,0.1v3.9
			c0,0.1,0,0.1,0.1,0.1h4.6c0.1,0,0.2,0.1,0.2,0.2v0.5c0,0.1-0.1,0.2-0.2,0.2h-4.6c-0.1,0-0.1,0-0.1,0.1v4c0,0.1,0,0.1,0.1,0.1h5.4
			c0.1,0,0.2,0.1,0.2,0.2v0.5c0,0.1-0.1,0.2-0.2,0.2h-6.2c-0.1,0-0.2-0.1-0.2-0.2V234.9z"/>
		<path d="M152.9,244.5c-0.1-0.1-0.1-0.2,0-0.2l0.4-0.5c0.1-0.1,0.2-0.1,0.2,0c0.7,0.6,1.9,1.1,3.1,1.1c1.7,0,2.8-0.9,2.8-2.2
			c0-1.1-0.6-1.9-2.6-2.1l-0.5-0.1c-2.1-0.3-3.1-1.3-3.1-2.9c0-1.9,1.3-3.1,3.4-3.1c1.2,0,2.4,0.4,3.1,0.9c0.1,0,0.1,0.1,0,0.2
			l-0.3,0.5c-0.1,0.1-0.1,0.1-0.2,0c-0.9-0.5-1.7-0.8-2.6-0.8c-1.6,0-2.5,0.9-2.5,2.1c0,1.1,0.7,1.8,2.6,2.1l0.5,0.1
			c2.2,0.3,3.2,1.3,3.2,2.9c0,1.8-1.3,3.2-3.8,3.2C155.1,245.7,153.7,245.1,152.9,244.5z"/>
		<path d="M164.5,234.9c0-0.1,0.1-0.2,0.2-0.2h0.6c0.1,0,0.2,0.1,0.2,0.2v10.6c0,0.1-0.1,0.2-0.2,0.2h-0.6c-0.1,0-0.2-0.1-0.2-0.2
			V234.9z"/>
		<path d="M169.6,240.1c0-1.9,0.1-2.6,0.3-3.2c0.5-1.6,1.8-2.4,3.6-2.4c1.8,0,2.9,0.9,3.4,2c0,0.1,0,0.2-0.1,0.2l-0.5,0.3
			c-0.1,0-0.2,0-0.2-0.1c-0.5-1-1.3-1.6-2.6-1.6c-1.3,0-2.3,0.6-2.7,1.8c-0.1,0.4-0.3,1.1-0.3,2.9c0,1.8,0.1,2.5,0.3,2.9
			c0.4,1.2,1.3,1.8,2.7,1.8c1.3,0,2.3-0.6,2.7-1.8c0.1-0.4,0.3-1,0.3-2.1c0-0.1,0-0.1-0.1-0.1h-2.5c-0.1,0-0.2-0.1-0.2-0.2v-0.5
			c0-0.1,0.1-0.2,0.2-0.2h3.3c0.1,0,0.2,0.1,0.2,0.2v0.7c0,1.1-0.1,1.9-0.3,2.4c-0.5,1.6-1.8,2.5-3.5,2.5c-1.8,0-3-0.8-3.6-2.4
			C169.7,242.8,169.6,242,169.6,240.1z"/>
		<path d="M181.4,234.9c0-0.1,0.1-0.2,0.2-0.2h0.6c0.1,0,0.2,0,0.3,0.2l5.4,8.9h0v-8.9c0-0.1,0.1-0.2,0.2-0.2h0.6
			c0.1,0,0.2,0.1,0.2,0.2v10.6c0,0.1-0.1,0.2-0.2,0.2H188c-0.1,0-0.2,0-0.3-0.2l-5.4-9h-0.1v9c0,0.1-0.1,0.2-0.2,0.2h-0.6
			c-0.1,0-0.2-0.1-0.2-0.2V234.9z"/>
	</g>
	<g>
		<rect x="39.9" y="66.6" class="st13" width="12.6" height="28.7"/>
		<rect x="31.9" y="70.1" class="st9" width="8" height="20.8"/>
		<rect x="132.3" y="44.7" class="st8" width="4.7" height="69"/>
		<rect x="43.1" y="116.1" class="st8" width="7.8" height="31.2"/>
		<rect x="56.6" y="62.8" class="st9" width="34.4" height="35.3"/>
		<g>
			<rect x="67.5" y="98.2" class="st3" width="14" height="54.1"/>
			<path d="M82.7,153.5H66.4V97h16.3V153.5z M68.7,151.1h11.7V99.3H68.7V151.1z"/>
		</g>
		<g>
			<path class="st3" d="M74.1,113.2H91c0,0,5.6-0.6,6.4,3.1c0,0,1.1,4.4-4.8,5c0,0,6.5-0.3,6.9,3.1c0.3,3.4-1.8,5-6.7,5.1
				c0,0,6.1-0.2,6.3,3.3c0.2,3.5-4,4.3-6,4.2c0,0,5.1,0.7,5,4.6c-0.1,2.5-1.6,5.4-11.6,4.7l-32.9,0.2v-29.1h6.7
				c0,0-0.6-8.9,6.6-10.3v6.2L74.1,113.2z"/>
			<path d="M52.3,147.6v-31.5H59c0.1-3.6,1.8-9.1,7.6-10.3l1.4-0.3v6.5l23,0c0.7-0.1,6.6-0.4,7.6,4c0,0,0.5,2.1-0.7,3.9
				c-0.2,0.3-0.4,0.5-0.6,0.7c1.7,0.5,3.2,1.6,3.4,3.6c0.2,1.7-0.2,3.1-1.2,4.2c-0.4,0.4-0.8,0.7-1.3,1c1.1,0.7,1.9,1.7,2,3.2
				c0.1,1.4-0.4,2.6-1.3,3.5c-0.5,0.5-1.1,0.9-1.7,1.1c1.2,0.9,2.1,2.3,2.1,4.2c0,1.5-0.6,2.8-1.6,3.7c-1.9,1.8-5.6,2.5-11.2,2.1
				L52.3,147.6z M54.6,118.4v26.8l31.8-0.2c6.1,0.4,8.6-0.6,9.6-1.5c0.6-0.5,0.8-1.2,0.9-2.1c0.1-2.8-3.8-3.4-4-3.4l0.2-2.3
				c1.1,0.1,3.1-0.2,4.1-1.2c0.5-0.5,0.7-1,0.6-1.7c-0.1-2.1-4.4-2.2-5-2.2c0,0-0.1,0-0.1,0l0-2.3c0.1,0,0.2,0,0.4,0
				c2.3-0.1,3.9-0.5,4.7-1.4c0.5-0.6,0.7-1.3,0.6-2.4c-0.2-1.9-4.5-2.1-5.7-2l-0.2-2.3c1.7-0.2,2.8-0.7,3.4-1.5c0.6-0.9,0.4-2,0.4-2
				c-0.6-2.7-5.1-2.2-5.1-2.2l-0.1,0l-25.4,0v-5.8c-4.6,2-4.3,8.4-4.3,8.7l0.1,1.2L54.6,118.4z"/>
		</g>
		<path d="M57.7,96.4h-19V64.6h19V96.4z M41,94h14.4V66.9H41V94z"/>
		<path d="M41,92.1H30.7V68.9H41V92.1z M33.1,89.8h5.6V71.2h-5.6V89.8z"/>
		<path d="M144.6,118.5L89.8,96.2V63.5l54.8-24.9V118.5z M92.1,94.7l50.2,20.4V42.2L92.1,65V94.7z"/>
		<path d="M161.5,51.4c-0.4,0-0.8-0.2-1-0.6c-0.3-0.6-0.2-1.3,0.4-1.6l31.3-18.9c0.6-0.3,1.3-0.2,1.6,0.4c0.3,0.6,0.2,1.3-0.4,1.6
			l-31.3,18.9C161.9,51.3,161.7,51.4,161.5,51.4z"/>
		<path d="M199.1,76.4C199.1,76.4,199.1,76.4,199.1,76.4l-36.6-0.2c-0.6,0-1.2-0.5-1.2-1.2c0-0.6,0.5-1.2,1.2-1.2c0,0,0,0,0,0
			l36.5,0.2c0.6,0,1.2,0.5,1.2,1.2C200.2,75.9,199.7,76.4,199.1,76.4z"/>
		<path d="M195.6,120.3c-0.2,0-0.4-0.1-0.6-0.2l-31.3-18.9c-0.6-0.3-0.7-1.1-0.4-1.6c0.3-0.6,1.1-0.7,1.6-0.4l31.3,18.9
			c0.6,0.3,0.7,1.1,0.4,1.6C196.4,120.1,196,120.3,195.6,120.3z"/>
		<g>
			<path class="st8" d="M34.8,76.3v-1.2c0-0.2,0.2-0.4,0.4-0.4h1.2c0.2,0,0.4,0.2,0.4,0.4v1.2c0,0.2-0.2,0.4-0.4,0.4h-1.2
				C35,76.8,34.8,76.6,34.8,76.3z"/>
			<path class="st8" d="M34.8,81.3v-1.2c0-0.2,0.2-0.4,0.4-0.4h1.2c0.2,0,0.4,0.2,0.4,0.4v1.2c0,0.2-0.2,0.4-0.4,0.4h-1.2
				C35,81.8,34.8,81.6,34.8,81.3z"/>
			<path class="st8" d="M34.8,86.4v-1.2c0-0.2,0.2-0.4,0.4-0.4h1.2c0.2,0,0.4,0.2,0.4,0.4v1.2c0,0.2-0.2,0.4-0.4,0.4h-1.2
				C35,86.8,34.8,86.6,34.8,86.4z"/>
		</g>
		<path d="M92.1,99.3H55.4V61.7h36.7V99.3z M57.7,97h32V64h-32V97z"/>
		<g>
			<rect x="106.1" y="146.1" width="2.3" height="6.4"/>
			<rect x="112.6" y="143.7" width="2.3" height="8.8"/>
			<rect x="119.1" y="141.3" width="2.3" height="11.2"/>
			<rect x="125.5" y="138.4" width="2.3" height="14.1"/>
			<rect x="132" y="141.3" width="2.3" height="11.2"/>
			<rect x="138.5" y="144.3" width="2.3" height="8.2"/>
			<rect x="145" y="137.7" width="2.3" height="14.8"/>
			<rect x="151.5" y="132.4" width="2.3" height="20.1"/>
			<rect x="158" y="126.9" width="2.3" height="25.6"/>
			<rect x="164.5" y="120.6" width="2.3" height="31.9"/>
			<rect x="171" y="126.9" width="2.3" height="25.6"/>
			<rect x="177.5" y="134" width="2.3" height="18.5"/>
		</g>
	</g>
</g>
</svg>
