<?xml version="1.0" encoding="utf-8"?>
<!-- Generator: Adobe Illustrator 20.0.0, SVG Export Plug-In . SVG Version: 6.00 Build 0)  -->
<svg version="1.1" id="Layer_1" xmlns="http://www.w3.org/2000/svg" xmlns:xlink="http://www.w3.org/1999/xlink" x="0px" y="0px"
	 viewBox="0 0 90 80" style="enable-background:new 0 0 90 80;" xml:space="preserve">
<style type="text/css">
	.st0{fill:#F15B4A;}
	.st1{clip-path:url(#SVGID_2_);}
	.st2{fill:#FCF7E9;}
	.st3{fill:#C7C4BC;}
	.st4{clip-path:url(#SVGID_4_);}
	.st5{fill:#FFFFFF;}
	.st6{fill:#EDC393;}
	.st7{fill:#B1B3B6;}
	.st8{fill:#333132;}
	.st9{fill:#4F341A;}
	.st10{fill:#2A160C;}
	.st11{fill:#452B13;}
	.st12{fill:#4D4E4A;}
	.st13{fill:#3E3B3A;}
	.st14{opacity:0.5;fill:#8F8C86;}
	.st15{opacity:0.5;clip-path:url(#SVGID_6_);fill:#8F8C86;}
	.st16{fill:#F37223;}
	.st17{fill:#BF5A28;}
	.st18{fill:#DAB17C;}
	.st19{fill:#F89420;}
	.st20{fill:url(#SVGID_7_);}
	.st21{fill:#FDBE14;}
	.st22{fill:#F2F2F2;}
	.st23{clip-path:url(#SVGID_9_);}
	.st24{fill:#06BDCD;}
	.st25{opacity:0.5;clip-path:url(#SVGID_9_);}
	.st26{fill:#8F8C86;}
	.st27{fill:#79BEC0;}
	.st28{opacity:0.5;fill:#FFFFFF;}
	.st29{clip-path:url(#SVGID_11_);}
	.st30{fill:#C5DA4E;}
	.st31{fill:#A3BD3D;}
	.st32{fill:#6AB352;}
	.st33{fill:#5A462C;}
	.st34{fill:#D4E172;}
	.st35{fill:#ECEC83;}
	.st36{fill:#C2E1F1;}
	.st37{fill:#8BA3B0;}
	.st38{fill:#8FC640;}
	.st39{fill:#72A441;}
	.st40{fill:#976339;}
	.st41{fill:#7A4F2A;}
	
		.st42{fill:none;stroke:#FFFFFF;stroke-width:0.771;stroke-linecap:round;stroke-linejoin:round;stroke-miterlimit:10;stroke-dasharray:4.6259;}
	
		.st43{fill:none;stroke:#FFFFFF;stroke-width:0.6936;stroke-linecap:round;stroke-linejoin:round;stroke-miterlimit:10;stroke-dasharray:4.1616;}
	.st44{fill:#D46528;}
	.st45{fill:#F3F1E6;}
	.st46{fill:#D4D2C3;}
	.st47{clip-path:url(#SVGID_25_);}
	.st48{fill:#EEE809;}
	.st49{fill:#94D9F8;}
	.st50{fill:#211E1F;}
	.st51{fill:#231F20;}
	.st52{fill:#F7941F;}
	.st53{fill:#47B77B;}
	.st54{fill:#221F1F;}
	.st55{fill:#F5EB0E;}
	.st56{fill:#EBE70E;}
	.st57{fill:url(#);}
	.st58{fill:none;stroke:url(#);stroke-miterlimit:10;}
	.st59{fill:#F7941D;}
	.st60{fill:#45B97C;}
	.st61{fill:none;stroke:#010101;stroke-miterlimit:10;}
	.st62{fill:#010101;}
	.st63{fill:#4BC3C9;}
	.st64{fill:#DD1D4F;}
	.st65{fill:none;stroke:#231F20;stroke-width:0.9625;stroke-linecap:round;stroke-linejoin:round;stroke-miterlimit:10;}
	.st66{fill:none;stroke:url(#);stroke-width:0.6902;stroke-miterlimit:10;}
	.st67{fill:#FBAA19;}
	.st68{fill:none;stroke:#221F1F;stroke-width:0.8692;stroke-miterlimit:10;}
	.st69{fill:none;stroke:#221F1F;stroke-width:0.8566;stroke-miterlimit:10;}
	.st70{fill:none;stroke:url(#);stroke-width:0.7698;stroke-miterlimit:10;}
	.st71{fill:none;stroke:#221F1F;stroke-width:0.8028;stroke-miterlimit:10;}
	.st72{fill:#FFFFFF;stroke:url(#);stroke-width:0.6902;stroke-miterlimit:10;}
	.st73{fill:none;stroke:url(#);stroke-width:0.4601;stroke-miterlimit:10;}
	.st74{fill:none;stroke:#79BEC0;stroke-width:2.3005;stroke-miterlimit:10;}
	.st75{fill:#C9E9E6;}
	.st76{fill:#E5EFF5;}
	.st77{fill:#0A3655;}
	.st78{fill:none;stroke:#79BEC0;stroke-width:1.2825;stroke-miterlimit:10;}
	.st79{fill:none;stroke:#F15B4A;stroke-miterlimit:10;}
	.st80{fill:none;stroke:#F15B4A;stroke-width:2;stroke-linecap:round;stroke-linejoin:round;stroke-miterlimit:10;}
	.st81{fill:#FFFFFF;stroke:#F15B4A;stroke-miterlimit:10;}
</style>
<g>
	<path class="st63" d="M82.9,25c-0.4-1.3-1.6-2.3-3-2.3H64.4V16c0-1.5-1.2-2.8-2.8-2.8H25.8c-2,0-3.7,1.6-3.8,3.6l0,0.9h36.6
		c0.9,0,1.7,0.7,1.7,1.7v27.3c0,1.2-1,2.2-2.2,2.2H20.8l-0.2,4.6c-0.1,1.9,1.5,3.6,3.4,3.6h1.6v-0.7c0-3.6,2.9-6.5,6.5-6.5h7
		c3.6,0,6.5,2.9,6.5,6.5v5.7h15.7v-5.7c0-3.6,2.9-6.5,6.5-6.5h7c3.6,0,6.5,2.9,6.5,6.5v5.7h2c1.9,0,3.5-1.6,3.5-3.5V39.9L82.9,25z
		 M69,39.9V27.1h9.7l3.2,12.9H69z"/>
	<path class="st69" d="M84.7,23.5c-0.4-1.3-1.6-2.3-3-2.3H66.3v-6.7c0-1.5-1.2-2.8-2.8-2.8H27.6c-2,0-3.7,1.6-3.8,3.6l0,0.9h36.6
		c0.9,0,1.7,0.7,1.7,1.7v27.3c0,1.2-1,2.2-2.2,2.2H22.7L22.5,52c-0.1,1.9,1.4,3.4,3.3,3.5c0.4-3.2,3.1-5.6,6.4-5.6h7
		c3.6,0,6.5,2.9,6.5,6.5v4.2h15.7v-4.2c0-3.6,2.9-6.5,6.5-6.5h7c3.6,0,6.5,2.9,6.5,6.5v4.2h3.8c1.9,0,3.5-1.6,3.5-3.5V38.4
		L84.7,23.5z"/>
	<path class="st54" d="M38.6,51.6h-5.9c-3,0-5.4,2.4-5.4,5.4v5.9c0,3,2.4,5.4,5.4,5.4h5.9c3,0,5.4-2.4,5.4-5.4V57
		C44,54,41.6,51.6,38.6,51.6z M38.5,60.9c0,1-0.8,1.8-1.8,1.8h-2c-1,0-1.8-0.8-1.8-1.8v-2c0-1,0.8-1.8,1.8-1.8h2
		c1,0,1.8,0.8,1.8,1.8V60.9z"/>
	<path class="st54" d="M74.3,51.6h-5.9c-3,0-5.4,2.4-5.4,5.4v5.9c0,3,2.4,5.4,5.4,5.4h5.9c3,0,5.4-2.4,5.4-5.4V57
		C79.7,54,77.3,51.6,74.3,51.6z M74.2,60.9c0,1-0.8,1.8-1.8,1.8h-2c-1,0-1.8-0.8-1.8-1.8v-2c0-1,0.8-1.8,1.8-1.8h2
		c1,0,1.8,0.8,1.8,1.8V60.9z"/>
	<g>
		<g>
			<rect x="8.9" y="23.7" class="st64" width="25.5" height="1.2"/>
		</g>
		<g>
			<rect x="21" y="26.7" class="st64" width="11.7" height="1.2"/>
		</g>
		<g>
			<rect x="18.6" y="29.7" class="st64" width="11.7" height="1.2"/>
		</g>
		<g>
			<rect x="12.3" y="35.8" class="st64" width="11.7" height="1.2"/>
		</g>
		<g>
			<rect x="10.6" y="38.8" class="st64" width="11.7" height="1.2"/>
		</g>
		<g>
			<rect x="1.3" y="41.8" class="st64" width="22.6" height="1.2"/>
		</g>
		<g>
			<rect x="2.8" y="32.7" class="st64" width="24.9" height="1.2"/>
		</g>
	</g>
	<path class="st64" d="M27,40.4c1.1,0,2-0.9,2-2c0-0.2-0.1-0.4-0.1-0.6c2.6-2.1,7.2-5.8,9.3-7.4c0.3,0.2,0.7,0.4,1.1,0.4
		c0.4,0,0.7-0.1,1-0.3c1.3,1.1,3.6,3.1,5.3,4.5c0,0.1-0.1,0.2-0.1,0.3c0,1.1,0.9,2,2,2c1.1,0,2-0.9,2-2c0-0.2-0.1-0.4-0.1-0.6
		l5.3-4.7c0.3,0.1,0.6,0.2,0.9,0.2c1.1,0,2-0.9,2-2c0-1.1-0.9-2-2-2c-1.1,0-2,0.9-2,2c0,0.3,0.1,0.5,0.1,0.8
		c-1.5,1.3-3.7,3.4-5.1,4.6c-0.3-0.2-0.7-0.4-1.1-0.4c-0.5,0-0.9,0.2-1.2,0.5c-1.3-1.2-3.5-3-5.1-4.3c0.1-0.2,0.1-0.4,0.1-0.7
		c0-1.1-0.9-2-2-2c-1.1,0-2,0.9-2,2c0,0.3,0.1,0.5,0.1,0.7l-9.3,7.3c-0.3-0.2-0.7-0.4-1.1-0.4c-1.1,0-2,0.9-2,2S25.8,40.4,27,40.4
		L27,40.4z M27,40.4"/>
</g>
</svg>
