<?xml version="1.0" encoding="utf-8"?>
<!-- Generator: Adobe Illustrator 19.2.1, SVG Export Plug-In . SVG Version: 6.00 Build 0)  -->
<svg version="1.1" id="Layer_1" xmlns="http://www.w3.org/2000/svg" xmlns:xlink="http://www.w3.org/1999/xlink" x="0px" y="0px"
	 viewBox="0 0 79.4 79.4" style="enable-background:new 0 0 79.4 79.4;" xml:space="preserve">
<style type="text/css">
	.st0{fill:#79BEC0;}
	.st1{fill:#FBAA19;}
	.st2{fill:none;stroke:#231F20;stroke-width:0.6902;stroke-miterlimit:10;}
</style>
<g>
	<path class="st0" d="M25.1,27.1v25h6.6c0.8-5.9,3.9-10.2,7.7-10.2s6.8,4.4,7.7,10.2H54v-25C54,27.1,25.1,27.1,25.1,27.1z
		 M39.2,40.3c-2.6,0-4.7-2.1-4.7-4.7s2.1-4.7,4.7-4.7s4.7,2.1,4.7,4.7S41.8,40.3,39.2,40.3z"/>
	<circle class="st1" cx="40.6" cy="35.6" r="4.7"/>
	<path class="st1" d="M48.9,54.5c-0.2-7-3.7-12.6-7.9-12.6s-7.6,5.6-7.9,12.6H48.9z"/>
	<g>
		<polyline class="st2" points="36.3,54.1 23,54.1 23,41.1 		"/>
		<g>
			<polyline class="st2" points="42.9,54.1 56.2,54.1 56.2,41.1 			"/>
			<polyline class="st2" points="36.3,25 23,25 23,38 			"/>
			<polyline class="st2" points="42.9,25 56.2,25 56.2,38 			"/>
			<line class="st2" x1="39.6" y1="10.1" x2="39.6" y2="20.5"/>
			<line class="st2" x1="39.6" y1="58.9" x2="39.6" y2="69.2"/>
			<line class="st2" x1="71.4" y1="39.5" x2="61" y2="39.5"/>
			<line class="st2" x1="18.4" y1="39.5" x2="8" y2="39.5"/>
		</g>
	</g>
</g>
</svg>
