<?xml version="1.0" encoding="utf-8"?>
<!-- Generator: Adobe Illustrator 20.0.0, SVG Export Plug-In . SVG Version: 6.00 Build 0)  -->
<svg version="1.1" id="Layer_1" xmlns="http://www.w3.org/2000/svg" xmlns:xlink="http://www.w3.org/1999/xlink" x="0px" y="0px"
	 viewBox="0 0 103 103" style="enable-background:new 0 0 103 103;" xml:space="preserve">
<style type="text/css">
	.st0{fill:#FFFFFF;}
	.st1{fill:#FFF450;}
	.st2{fill:#231F20;}
	.st3{fill:#6D68AF;}
	.st4{fill:#F26657;}
	.st5{clip-path:url(#SVGID_10_);}
</style>
<g>
	<rect x="23.2" y="65.5" class="st0" width="55" height="8.8"/>
	<polygon class="st4" points="68.7,65.5 65.8,20.6 6.6,20.6 1.6,92.4 23.2,92.4 23.2,65.3 	"/>
	<g>
		<polygon class="st2" points="23.2,93.2 0.7,93.2 5.8,19.8 66.5,19.8 69.5,65.4 67.8,65.6 65,21.5 7.3,21.5 2.4,91.5 23.2,91.5 		
			"/>
	</g>
	<g>
		<path class="st2" d="M19.8,19.5l-1.6-0.1c0.7-9,8.4-16.1,17.4-16.1c0,0,0,0,0.1,0c9.1,0,16.7,7.1,17.5,16.1l-1.6,0.1
			c-0.7-8.2-7.6-14.6-15.9-14.6c0,0,0,0-0.1,0C27.4,4.9,20.4,11.3,19.8,19.5z"/>
	</g>
	<g>
		<circle class="st0" cx="18.6" cy="26.1" r="2.8"/>
		<path class="st2" d="M18.6,29.7c-2,0-3.6-1.6-3.6-3.6c0-2,1.6-3.6,3.6-3.6c2,0,3.6,1.6,3.6,3.6C22.2,28.1,20.6,29.7,18.6,29.7z
			 M18.6,24.1c-1.1,0-2,0.9-2,2c0,1.1,0.9,2,2,2c1.1,0,2-0.9,2-2C20.6,25,19.7,24.1,18.6,24.1z"/>
	</g>
	<g>
		<circle class="st0" cx="52.7" cy="26.1" r="2.8"/>
		<path class="st2" d="M52.7,29.7c-2,0-3.6-1.6-3.6-3.6c0-2,1.6-3.6,3.6-3.6c2,0,3.6,1.6,3.6,3.6C56.3,28.1,54.7,29.7,52.7,29.7z
			 M52.7,24.1c-1.1,0-2,0.9-2,2c0,1.1,0.9,2,2,2c1.1,0,2-0.9,2-2C54.7,25,53.8,24.1,52.7,24.1z"/>
	</g>
	<polyline class="st1" points="61.2,95.2 43.2,95.2 43.2,65.5 61.2,65.5 	"/>
	<g>
		<polygon class="st2" points="78.2,96 22.4,96 22.4,64.7 78.2,64.7 78.2,66.3 24,66.3 24,94.3 78.2,94.3 		"/>
	</g>
	<g>
		<rect x="23.2" y="73.5" class="st2" width="55" height="1.6"/>
	</g>
	<g>
		<rect x="49.8" y="72.1" class="st2" width="4.7" height="6.7"/>
		<path class="st2" d="M55.3,79.5h-6.1v-8.1h6.1V79.5z M50.5,78h3.3v-5.2h-3.3V78z"/>
	</g>
	<path class="st0" d="M85.4,37.2l-7.2,26.7v31c5.1,5.4,17.7,5.6,23.4,0v-31l-7.2-26.7V15.6h-8.9V37.2z"/>
	<g>
		<path class="st2" d="M89.8,99.8c-0.1,0-0.2,0-0.3,0c-4.9-0.1-9.4-1.7-11.9-4.4l-0.2-0.2V63.7l0-0.1l7.2-26.6V14.8h10.5v22.3
			l7.2,26.7v31.4l-0.2,0.2C99.3,98.2,94.8,99.8,89.8,99.8z M79,94.5c2.3,2.2,6.2,3.6,10.6,3.6c0.1,0,0.2,0,0.3,0
			c4.4,0,8.4-1.4,10.9-3.7V64l-7.2-26.7V16.4h-7.3v20.8l0,0.1L79,64V94.5z"/>
	</g>
	<path class="st2" d="M89.8,13.4c-3.1,0-5.5,0.8-5.5,1.7c0,0.9,2.5,1.7,5.5,1.7s5.5-0.8,5.5-1.7C95.4,14.2,92.9,13.4,89.8,13.4
		L89.8,13.4z"/>
	<path class="st4" d="M78.2,68.9c0,0,10.4,5.9,23.4,0v21c0,0-10.9,6.3-23.4,0C78.2,90.1,78.2,68.9,78.2,68.9z"/>
	<g>
		<path class="st2" d="M89.8,93.5c-3.6,0-7.7-0.7-12-2.9l0.4-0.7h-0.8V67.5l1.2,0.7c0.1,0.1,10.3,5.7,22.6,0l1.1-0.5v22.8l-0.4,0.2
			C101.6,90.7,96.7,93.5,89.8,93.5z M79,89.4c10.4,5,19.7,1,21.7,0V70.1C90.5,74.3,82,71.5,79,70.1V89.4z"/>
	</g>
	<g>
		<path class="st2" d="M90.1,21.2c-2.8,0-4.9-1-5.1-1.1l0.7-1.5c0,0,4.4,2.1,8.2,0l0.8,1.4C93.1,20.9,91.5,21.2,90.1,21.2z"/>
	</g>
	<g>
		<path class="st2" d="M61.1,96H43.4V64.7h17.7V96z M45,94.3h14.5v-28H45V94.3z"/>
	</g>
</g>
</svg>
