<?xml version="1.0" encoding="utf-8"?>
<!-- Generator: Adobe Illustrator 19.2.0, SVG Export Plug-In . SVG Version: 6.00 Build 0)  -->
<svg version="1.1" id="Layer_1" xmlns="http://www.w3.org/2000/svg" xmlns:xlink="http://www.w3.org/1999/xlink" x="0px" y="0px"
	 viewBox="0 0 30 62" style="enable-background:new 0 0 30 62;" xml:space="preserve">
<style type="text/css">
	.st0{fill:#F7941E;}
	.st1{fill:#EEE80A;}
	.st2{opacity:0.15;clip-path:url(#SVGID_2_);fill:#FFFFFF;}
	.st3{fill:#CFCDCD;}
	.st4{fill:#C9E9E6;}
	.st5{fill:#FFFFFF;}
	.st6{fill:none;stroke:#FFFFFF;stroke-width:2.1359;stroke-miterlimit:10;}
	.st7{fill:#FFE06A;}
	.st8{fill:none;stroke:#FFFFFF;stroke-width:2.1363;stroke-miterlimit:10;}
	.st9{fill:none;stroke:#FFFFFF;stroke-width:1.8723;stroke-miterlimit:10;}
	.st10{fill:none;stroke:#FFFFFF;stroke-width:2.8084;stroke-linecap:round;stroke-linejoin:round;stroke-miterlimit:10;}
	.st11{opacity:0.6;}
	.st12{fill:none;stroke:#27BDBE;stroke-width:0.5;stroke-miterlimit:10;stroke-dasharray:3.4394,2.2929;}
	.st13{fill:none;stroke:#27BDBE;stroke-width:0.5;stroke-miterlimit:10;stroke-dasharray:3,2;}
	.st14{fill:#27BDBE;}
	.st15{fill:none;stroke:#27BDBE;stroke-width:0.5;stroke-miterlimit:10;}
	.st16{fill:#676464;}
	.st17{fill:none;stroke:#676464;stroke-width:0.5;stroke-miterlimit:10;}
	.st18{fill:none;stroke:#676464;stroke-width:0.5;stroke-miterlimit:10;stroke-dasharray:2.9859,1.9906;}
	.st19{fill:none;stroke:#676464;stroke-width:0.5;stroke-miterlimit:10;stroke-dasharray:3.0956,2.0638;}
	.st20{fill:none;stroke:#676464;stroke-width:0.5;stroke-miterlimit:10;stroke-dasharray:2.9416,1.9611;}
	.st21{fill:none;stroke:#676464;stroke-width:0.5;stroke-miterlimit:10;stroke-dasharray:2.9858,1.9905;}
	.st22{fill:none;stroke:#676464;stroke-width:0.5;stroke-miterlimit:10;stroke-dasharray:3.0959,2.0639;}
	.st23{fill:none;stroke:#676464;stroke-width:0.5;stroke-miterlimit:10;stroke-dasharray:2.9417,1.9611;}
	.st24{fill:#848383;}
	.st25{fill:#231F20;}
	.st26{fill:none;stroke:#231F20;stroke-width:0.4903;stroke-miterlimit:10;}
	.st27{fill:none;stroke:#231F20;stroke-width:0.2888;stroke-miterlimit:10;}
	.st28{fill:none;stroke:#231F20;stroke-width:0.5777;stroke-miterlimit:10;}
	.st29{fill:#2A2626;}
	.st30{fill:none;stroke:#231F20;stroke-width:0.75;stroke-miterlimit:10;}
	.st31{fill:none;stroke:#231F20;stroke-width:0.25;stroke-miterlimit:10;}
	.st32{fill:none;stroke:#231F20;stroke-width:8.000000e-02;stroke-miterlimit:10;}
	.st33{fill:#939598;}
	.st34{fill:none;stroke:#C7C8CA;stroke-width:0.1;stroke-miterlimit:10;}
	.st35{fill:none;stroke:#C7C8CA;stroke-width:0.25;stroke-miterlimit:10;}
	.st36{fill:none;stroke:#231F20;stroke-width:1.5;stroke-miterlimit:10;}
	.st37{clip-path:url(#SVGID_4_);}
	.st38{fill:#BCBEC0;}
	.st39{fill:#E6E7E8;}
	.st40{fill:#6D6E71;}
	.st41{fill:none;stroke:#E9E9EA;stroke-width:0.7908;stroke-miterlimit:10;}
	.st42{fill:none;stroke:#000000;stroke-width:0.25;stroke-linecap:round;stroke-linejoin:round;stroke-miterlimit:10;}
	.st43{fill:none;stroke:#BCBEC0;stroke-width:0.25;stroke-linecap:round;stroke-linejoin:round;stroke-miterlimit:10;}
	.st44{fill:none;stroke:#BCBEC0;stroke-width:0.15;stroke-miterlimit:10;}
	.st45{opacity:0.8;fill:#F7941E;}
	.st46{fill:none;stroke:#FFFFFF;stroke-width:1.7808;stroke-linecap:round;stroke-linejoin:round;stroke-miterlimit:10;}
	.st47{fill:none;stroke:#FFFFFF;stroke-width:1.1872;stroke-linecap:round;stroke-linejoin:round;stroke-miterlimit:10;}
	.st48{fill:none;stroke:#FFFFFF;stroke-width:0.5;stroke-linecap:round;stroke-linejoin:round;stroke-miterlimit:10;}
	.st49{fill:none;stroke:#A9A6A6;stroke-width:0.15;stroke-miterlimit:10;}
	.st50{fill:none;stroke:#A9A6A6;stroke-width:0.15;stroke-miterlimit:10;stroke-dasharray:2,0.9952;}
	.st51{fill:none;stroke:#848383;stroke-width:0.5;stroke-miterlimit:10;}
	.st52{fill:none;stroke:#848383;stroke-width:0.15;stroke-miterlimit:10;}
	.st53{fill:none;stroke:#000000;stroke-width:3;stroke-linecap:round;stroke-linejoin:round;stroke-miterlimit:10;}
	.st54{fill:none;stroke:#000000;stroke-width:2;stroke-linecap:round;stroke-linejoin:round;stroke-miterlimit:10;}
	.st55{fill:none;stroke:#A9A6A6;stroke-width:0.5;stroke-miterlimit:10;}
	.st56{fill:#45B97C;}
	.st57{fill:#F15D5E;}
	.st58{opacity:0.5;}
	.st59{fill:none;stroke:#E6E7E8;stroke-width:0.15;stroke-miterlimit:10;}
	.st60{fill:#686565;}
	.st61{fill:#F89521;}
	.st62{fill:none;}
	.st63{fill:#25BDBD;}
	.st64{fill:#F69321;}
	.st65{fill:none;stroke:#25BDBD;stroke-miterlimit:10;}
	.st66{fill:none;stroke:#F89521;stroke-miterlimit:10;}
	.st67{fill:none;stroke:#000000;stroke-miterlimit:10;}
	.st68{opacity:0.15;clip-path:url(#SVGID_14_);fill:#FFFFFF;}
	.st69{opacity:0.15;clip-path:url(#SVGID_16_);fill:#FFFFFF;}
	.st70{opacity:0.15;clip-path:url(#SVGID_18_);fill:#FFFFFF;}
	.st71{fill:none;stroke:#FFFFFF;stroke-miterlimit:10;}
	.st72{fill-rule:evenodd;clip-rule:evenodd;}
	.st73{fill-rule:evenodd;clip-rule:evenodd;fill:#F7941E;}
	.st74{fill:none;stroke:#FFFFFF;stroke-width:2.5235;stroke-linecap:round;stroke-linejoin:round;stroke-miterlimit:10;}
	.st75{fill:none;stroke:#FFFFFF;stroke-width:1.442;stroke-linecap:round;stroke-linejoin:round;stroke-miterlimit:10;}
	.st76{fill:none;stroke:#F7941E;stroke-miterlimit:10;}
	.st77{fill:none;stroke:#FFFFFF;stroke-width:0.5;stroke-miterlimit:10;}
	.st78{fill:none;stroke:#F7941E;stroke-width:0.5;stroke-miterlimit:10;}
	.st79{opacity:0.9;fill:#0072BC;}
	.st80{opacity:0.7;fill:#00ACDC;}
	.st81{fill:#F58220;}
	.st82{fill:none;stroke:#F58220;stroke-width:0.7731;stroke-linecap:round;stroke-linejoin:round;stroke-miterlimit:10;}
	.st83{fill:none;stroke:#FFFFFF;stroke-width:0.7731;stroke-linecap:round;stroke-linejoin:round;stroke-miterlimit:10;}
</style>
<g>
	<g>
		<g>
			<path class="st81" d="M24.4,40.8c-0.7,0.3-1.4,0.5-2.2,0.6c0.8-0.5,1.4-1.2,1.7-2.1c-0.7,0.4-1.6,0.8-2.5,0.9
				c-0.7-0.8-1.7-1.2-2.8-1.2c-2.1,0-3.9,1.7-3.9,3.9c0,0.3,0,0.6,0.1,0.9c-3.2-0.2-6.1-1.7-8-4c-0.3,0.6-0.5,1.2-0.5,1.9
				c0,1.3,0.7,2.5,1.7,3.2c-0.6,0-1.2-0.2-1.7-0.5v0c0,1.9,1.3,3.4,3.1,3.8c-0.3,0.1-0.7,0.1-1,0.1c-0.2,0-0.5,0-0.7-0.1
				c0.5,1.5,1.9,2.7,3.6,2.7c-1.3,1-3,1.7-4.8,1.7c-0.3,0-0.6,0-0.9-0.1c1.7,1.1,3.7,1.7,5.9,1.7c7.1,0,11-5.9,11-11
				c0-0.2,0-0.3,0-0.5C23.2,42.2,23.9,41.5,24.4,40.8z"/>
		</g>
		<g>
			<polyline class="st82" points="26,41.7 28.3,41.7 28.3,33.2 1.7,33.2 1.7,60 28.3,60 28.3,51.5 			"/>
		</g>
	</g>
	<g>
		<g>
			<path class="st5" d="M24.4,9.6c-0.7,0.3-1.4,0.5-2.2,0.6C23,9.7,23.6,8.9,23.9,8c-0.7,0.4-1.6,0.8-2.5,0.9
				c-0.7-0.8-1.7-1.2-2.8-1.2c-2.1,0-3.9,1.7-3.9,3.9c0,0.3,0,0.6,0.1,0.9c-3.2-0.2-6.1-1.7-8-4C6.5,9,6.3,9.7,6.3,10.4
				c0,1.3,0.7,2.5,1.7,3.2c-0.6,0-1.2-0.2-1.7-0.5v0c0,1.9,1.3,3.4,3.1,3.8c-0.3,0.1-0.7,0.1-1,0.1c-0.2,0-0.5,0-0.7-0.1
				c0.5,1.5,1.9,2.7,3.6,2.7c-1.3,1-3,1.7-4.8,1.7c-0.3,0-0.6,0-0.9-0.1c1.7,1.1,3.7,1.7,5.9,1.7c7.1,0,11-5.9,11-11
				c0-0.2,0-0.3,0-0.5C23.2,11,23.9,10.3,24.4,9.6z"/>
		</g>
		<g>
			<polyline class="st83" points="26,10.5 28.3,10.5 28.3,2 1.7,2 1.7,28.8 28.3,28.8 28.3,20.3 			"/>
		</g>
	</g>
</g>
</svg>
