<?xml version="1.0" encoding="utf-8"?>
<!-- Generator: Adobe Illustrator 20.0.0, SVG Export Plug-In . SVG Version: 6.00 Build 0)  -->
<svg version="1.1" id="Layer_1" xmlns="http://www.w3.org/2000/svg" xmlns:xlink="http://www.w3.org/1999/xlink" x="0px" y="0px"
	 viewBox="0 0 60 60" style="enable-background:new 0 0 60 60;" xml:space="preserve">
<style type="text/css">
	.st0{fill:none;stroke:#000000;stroke-width:1.0387;stroke-miterlimit:10;}
	.st1{fill:none;stroke:#000000;stroke-miterlimit:10;}
	.st2{fill:none;stroke:#000000;stroke-width:0.3639;stroke-miterlimit:10;}
	.st3{fill:#FFFFFF;}
	.st4{fill:#CFCDCD;}
	.st5{fill:#C9E9E6;}
	.st6{fill:#FFFFFF;stroke:#000000;stroke-width:2.3369;stroke-miterlimit:10;}
	.st7{fill:#FFE06A;}
	.st8{fill:none;stroke:#000000;stroke-width:2.3369;stroke-linecap:round;stroke-linejoin:round;stroke-miterlimit:10;}
	.st9{fill:#27BDBE;}
	.st10{fill:none;stroke:#27BDBE;stroke-width:4.6884;stroke-miterlimit:10;}
	.st11{fill:none;stroke:#000000;stroke-width:2.3369;stroke-miterlimit:10;}
	.st12{fill:#ECF8FE;}
	.st13{fill:none;stroke:#000000;stroke-width:2.1058;stroke-miterlimit:10;}
	.st14{fill:none;stroke:#000000;stroke-width:1.9613;stroke-miterlimit:10;}
	.st15{fill:#FFFFFF;stroke:#000000;stroke-width:2.1058;stroke-miterlimit:10;}
	.st16{fill:none;stroke:#000000;stroke-width:1.0529;stroke-miterlimit:10;}
	.st17{fill:#FFFFFF;stroke:#000000;stroke-width:1.5873;stroke-miterlimit:10;}
	.st18{fill:none;stroke:#000000;stroke-width:1.5873;stroke-linecap:round;stroke-linejoin:round;stroke-miterlimit:10;}
	.st19{fill:none;stroke:#000000;stroke-width:0.8323;stroke-linecap:round;stroke-linejoin:round;stroke-miterlimit:10;}
	.st20{fill:#D9D9D9;}
	.st21{fill:#BFBFBF;}
	.st22{fill:#999999;}
	.st23{fill:none;stroke:#000000;stroke-width:0.8889;stroke-miterlimit:10;}
	.st24{fill:none;stroke:#FFFFFF;stroke-miterlimit:10;}
</style>
<g>
	<g>
		<path class="st3" d="M21.1,41c-0.5,0-1.1-0.2-1.5-0.6c-0.8-0.8-0.8-2.1,0-2.9l17.7-17.7c0.8-0.8,2.1-0.8,3,0
			c0.8,0.8,0.8,2.1,0,2.9L22.6,40.3C22.2,40.8,21.7,41,21.1,41z"/>
		<path class="st3" d="M22.6,19.7c-0.8-0.8-2.1-0.8-3,0c-0.8,0.8-0.8,2.1,0,2.9l6.1,6.1l2.9-2.9L22.6,19.7z"/>
		<path class="st3" d="M37.4,40.3c0.4,0.4,0.9,0.6,1.5,0.6c0.5,0,1.1-0.2,1.5-0.6c0.8-0.8,0.8-2.1,0-2.9l-6.1-6.1l-2.9,2.9
			L37.4,40.3z"/>
	</g>
	<path class="st3" d="M34.9,5.5h-9.8c-10.8,0-19.6,8.8-19.6,19.6v0.8h4.2v-0.8c0-8.5,6.9-15.5,15.5-15.5h9.8
		c8.5,0,15.5,6.9,15.5,15.5v9.8c0,8.5-6.9,15.5-15.5,15.5h-9.8c-8.5,0-15.5-6.9-15.5-15.5v-0.8H5.5v0.8c0,10.8,8.8,19.6,19.6,19.6
		h9.8c10.8,0,19.6-8.8,19.6-19.6v-9.8C54.5,14.3,45.7,5.5,34.9,5.5z"/>
</g>
</svg>
