<?xml version="1.0" encoding="utf-8"?>
<!-- Generator: Adobe Illustrator 20.0.0, SVG Export Plug-In . SVG Version: 6.00 Build 0)  -->
<svg version="1.1" id="Layer_1" xmlns="http://www.w3.org/2000/svg" xmlns:xlink="http://www.w3.org/1999/xlink" x="0px" y="0px"
	 viewBox="0 0 463.5 275.9" style="enable-background:new 0 0 463.5 275.9;" xml:space="preserve">
<style type="text/css">
	.st0{fill:none;stroke:#000000;stroke-width:1.0387;stroke-miterlimit:10;}
	.st1{fill:none;stroke:#000000;stroke-miterlimit:10;}
	.st2{fill:none;stroke:#000000;stroke-width:0.3639;stroke-miterlimit:10;}
	.st3{fill:#FFFFFF;}
	.st4{fill:#ECF8FE;}
	.st5{fill:#27BDBE;}
	.st6{fill:#FFE06A;}
	.st7{fill:#D9D9D9;}
	.st8{fill:#999999;}
	.st9{fill:#BFBFBF;}
	.st10{fill:#FFFFFF;stroke:#000000;stroke-width:1.5873;stroke-miterlimit:10;}
	.st11{fill:none;stroke:#000000;stroke-width:1.5873;stroke-linecap:round;stroke-linejoin:round;stroke-miterlimit:10;}
	.st12{fill:none;stroke:#000000;stroke-width:0.8323;stroke-linecap:round;stroke-linejoin:round;stroke-miterlimit:10;}
	.st13{fill:#CFCDCD;}
	.st14{fill:#C9E9E6;}
	.st15{fill:none;stroke:#000000;stroke-width:0.8889;stroke-miterlimit:10;}
	.st16{fill:none;stroke:#FFFFFF;stroke-miterlimit:10;}
</style>
<g>
	<g>
		<g>
			<path d="M322.7,233.3c-0.1,0-0.1-0.1-0.2-0.2l-3.6-10.5c-0.1-0.1,0-0.2,0.1-0.2h0.6c0.1,0,0.2,0,0.2,0.2l3.2,9.2h0l3.1-9.2
				c0-0.1,0.1-0.2,0.2-0.2h0.6c0.1,0,0.2,0.1,0.1,0.2l-3.6,10.5c0,0.1-0.1,0.2-0.2,0.2H322.7z"/>
			<path d="M330.2,222.5c0-0.1,0.1-0.2,0.2-0.2h0.6c0.1,0,0.2,0.1,0.2,0.2v10.6c0,0.1-0.1,0.2-0.2,0.2h-0.6c-0.1,0-0.2-0.1-0.2-0.2
				V222.5z"/>
			<path d="M335,232.2c-0.1-0.1-0.1-0.2,0-0.2l0.4-0.5c0.1-0.1,0.2-0.1,0.2,0c0.7,0.6,1.9,1.1,3.1,1.1c1.7,0,2.8-0.9,2.8-2.2
				c0-1.1-0.6-1.9-2.6-2.1l-0.5-0.1c-2.1-0.3-3.1-1.3-3.1-2.9c0-1.9,1.3-3.1,3.4-3.1c1.2,0,2.4,0.4,3.1,0.9c0.1,0,0.1,0.1,0,0.2
				l-0.3,0.5c-0.1,0.1-0.1,0.1-0.2,0c-0.9-0.5-1.7-0.8-2.6-0.8c-1.6,0-2.5,0.9-2.5,2.1c0,1.1,0.7,1.8,2.6,2.1l0.5,0.1
				c2.2,0.3,3.2,1.3,3.2,2.9c0,1.8-1.3,3.2-3.8,3.2C337.2,233.4,335.7,232.8,335,232.2z"/>
			<path d="M347.1,229.5c0,2,1,3,2.8,3c1.7,0,2.8-1,2.8-3v-7c0-0.1,0.1-0.2,0.2-0.2h0.6c0.1,0,0.2,0.1,0.2,0.2v7
				c0,2.7-1.4,3.9-3.7,3.9c-2.2,0-3.7-1.3-3.7-3.9v-7c0-0.1,0.1-0.2,0.2-0.2h0.6c0.1,0,0.2,0.1,0.2,0.2V229.5z"/>
			<path d="M360.3,222.5c0-0.1,0.1-0.2,0.2-0.2h0.6c0.1,0,0.2,0.1,0.2,0.2l3.8,10.6c0,0.1,0,0.2-0.1,0.2h-0.6c-0.1,0-0.2,0-0.2-0.2
				l-1-2.7h-4.7l-1,2.7c0,0.1-0.1,0.2-0.2,0.2h-0.6c-0.1,0-0.1-0.1-0.1-0.2L360.3,222.5z M362.9,229.5l-2-5.7h0l-2,5.7H362.9z"/>
			<path d="M368.4,222.5c0-0.1,0.1-0.2,0.2-0.2h0.6c0.1,0,0.2,0.1,0.2,0.2v9.8c0,0.1,0,0.1,0.1,0.1h5.4c0.1,0,0.2,0.1,0.2,0.2v0.5
				c0,0.1-0.1,0.2-0.2,0.2h-6.2c-0.1,0-0.2-0.1-0.2-0.2V222.5z"/>
			<path d="M307.2,244.3c0-0.1,0.1-0.2,0.2-0.2h3.6c2.1,0,3.2,1.1,3.2,2.8c0,1.3-0.7,2.1-1.7,2.4v0c0.8,0.2,1.9,1,1.9,2.6
				c0,1.9-1.2,3-3.3,3h-3.6c-0.1,0-0.2-0.1-0.2-0.2V244.3z M311,249c1.5,0,2.3-0.8,2.3-2c0-1.2-0.8-2-2.3-2h-2.8
				c-0.1,0-0.1,0-0.1,0.1v3.9c0,0.1,0,0.1,0.1,0.1H311z M308.2,254.1h2.9c1.6,0,2.4-0.8,2.4-2.1c0-1.3-0.8-2.1-2.4-2.1h-2.9
				c-0.1,0-0.1,0-0.1,0.1L308.2,254.1C308.2,254.1,308.2,254.1,308.2,254.1z"/>
			<path d="M324.6,255c-0.1,0-0.1,0-0.2-0.1l-2.3-4.7h-0.2h-2.8c-0.1,0-0.1,0-0.1,0.1v4.6c0,0.1-0.1,0.2-0.2,0.2h-0.6
				c-0.1,0-0.2-0.1-0.2-0.2v-10.6c0-0.1,0.1-0.2,0.2-0.2h3.6c2,0,3.3,1.2,3.3,3c0,1.5-0.8,2.5-2.2,2.9l2.4,4.8
				c0.1,0.1,0,0.2-0.1,0.2H324.6z M324.3,247.1c0-1.4-0.9-2.1-2.4-2.1h-2.8c-0.1,0-0.1,0-0.1,0.1v4.1c0,0.1,0,0.1,0.1,0.1h2.8
				C323.5,249.3,324.3,248.5,324.3,247.1z"/>
			<path d="M332.1,244.3c0-0.1,0.1-0.2,0.2-0.2h0.6c0.1,0,0.2,0.1,0.2,0.2l3.8,10.6c0,0.1,0,0.2-0.1,0.2h-0.6c-0.1,0-0.2,0-0.2-0.2
				l-1-2.7h-4.7l-1,2.7c0,0.1-0.1,0.2-0.2,0.2h-0.6c-0.1,0-0.1-0.1-0.1-0.2L332.1,244.3z M334.6,251.3l-2-5.7h0l-2,5.7H334.6z"/>
			<path d="M340.1,244.3c0-0.1,0.1-0.2,0.2-0.2h0.6c0.1,0,0.2,0,0.3,0.2l5.4,8.9h0v-8.9c0-0.1,0.1-0.2,0.2-0.2h0.6
				c0.1,0,0.2,0.1,0.2,0.2v10.6c0,0.1-0.1,0.2-0.2,0.2h-0.6c-0.1,0-0.2,0-0.3-0.2l-5.4-9H341v9c0,0.1-0.1,0.2-0.2,0.2h-0.6
				c-0.1,0-0.2-0.1-0.2-0.2V244.3z"/>
			<path d="M351.8,244.3c0-0.1,0.1-0.2,0.2-0.2h3.4c1.8,0,3,0.7,3.5,2.2c0.2,0.6,0.3,1.2,0.3,3.2c0,2-0.1,2.6-0.3,3.2
				c-0.5,1.5-1.7,2.2-3.5,2.2h-3.4c-0.1,0-0.2-0.1-0.2-0.2V244.3z M352.8,254.1h2.4c1.4,0,2.3-0.5,2.7-1.6c0.2-0.5,0.3-1.1,0.3-2.9
				c0-1.8-0.1-2.4-0.3-2.9c-0.4-1.2-1.3-1.6-2.7-1.6h-2.4c-0.1,0-0.1,0-0.1,0.1L352.8,254.1C352.7,254.1,352.7,254.1,352.8,254.1z"
				/>
			<path d="M363,244.3c0-0.1,0.1-0.2,0.2-0.2h0.6c0.1,0,0.2,0.1,0.2,0.2v10.6c0,0.1-0.1,0.2-0.2,0.2h-0.6c-0.1,0-0.2-0.1-0.2-0.2
				V244.3z"/>
			<path d="M368.2,244.3c0-0.1,0.1-0.2,0.2-0.2h0.6c0.1,0,0.2,0,0.3,0.2l5.4,8.9h0v-8.9c0-0.1,0.1-0.2,0.2-0.2h0.6
				c0.1,0,0.2,0.1,0.2,0.2v10.6c0,0.1-0.1,0.2-0.2,0.2h-0.6c-0.1,0-0.2,0-0.3-0.2l-5.4-9h-0.1v9c0,0.1-0.1,0.2-0.2,0.2h-0.6
				c-0.1,0-0.2-0.1-0.2-0.2V244.3z"/>
			<path d="M379.4,249.6c0-1.9,0.1-2.6,0.3-3.2c0.5-1.6,1.8-2.4,3.6-2.4c1.8,0,2.9,0.9,3.4,2c0,0.1,0,0.2-0.1,0.2l-0.5,0.3
				c-0.1,0-0.2,0-0.2-0.1c-0.5-1-1.3-1.6-2.6-1.6c-1.3,0-2.3,0.6-2.7,1.8c-0.1,0.4-0.3,1.1-0.3,2.9c0,1.8,0.1,2.5,0.3,2.9
				c0.4,1.2,1.3,1.8,2.7,1.8c1.3,0,2.3-0.6,2.7-1.8c0.1-0.4,0.3-1,0.3-2.1c0-0.1,0-0.1-0.1-0.1h-2.5c-0.1,0-0.2-0.1-0.2-0.2v-0.5
				c0-0.1,0.1-0.2,0.2-0.2h3.3c0.1,0,0.2,0.1,0.2,0.2v0.7c0,1.1-0.1,1.9-0.3,2.4c-0.5,1.6-1.8,2.5-3.5,2.5c-1.8,0-3-0.8-3.6-2.4
				C379.5,252.2,379.4,251.5,379.4,249.6z"/>
		</g>
	</g>
	<g>
		<circle class="st13" cx="279.9" cy="159.3" r="2.5"/>
		<g>
			<g>
				<circle class="st14" cx="260.9" cy="168.9" r="9.6"/>
			</g>
		</g>
		<g>
			<circle class="st13" cx="273.4" cy="32.2" r="3.8"/>
		</g>
		<g>
			<circle class="st13" cx="435.1" cy="124.7" r="3.4"/>
		</g>
		<g>
			<path class="st13" d="M443.8,36.7c0,4.8-3.9,8.7-8.7,8.7c-4.8,0-8.7-3.9-8.7-8.7c0-4.8,3.9-8.7,8.7-8.7
				C439.9,28,443.8,31.9,443.8,36.7z"/>
		</g>
		<g>
			<circle class="st3" cx="345.1" cy="101.1" r="31.1"/>
			<path d="M345.1,133.4c-17.8,0-32.3-14.5-32.3-32.3s14.5-32.3,32.3-32.3s32.3,14.5,32.3,32.3S362.9,133.4,345.1,133.4z
				 M345.1,71.2c-16.5,0-29.9,13.4-29.9,29.9s13.4,29.9,29.9,29.9s29.9-13.4,29.9-29.9S361.6,71.2,345.1,71.2z"/>
		</g>
		<circle class="st6" cx="346.7" cy="98" r="27.5"/>
		<path d="M347.1,133.4c-31,0-58-30.1-59.3-31.5c-0.4-0.4-0.4-1.1,0-1.5c0.3-0.4,31-37.9,65.6-30.6c34.8,7.3,48.4,29.8,49,30.7
			c0.2,0.4,0.2,0.9,0,1.2c-0.2,0.2-16.9,24.5-45.8,30.7C353.5,133.1,350.3,133.4,347.1,133.4z M290.3,101.1
			c4.9,5.2,35.1,35.6,65.9,29.1c25.4-5.4,41.1-25.3,43.9-29.1c-2.5-3.7-16.5-22.6-47.1-29C322.4,65.6,294.8,95.8,290.3,101.1z"/>
		<g>
			<path class="st3" d="M324.9,101.1c0,11.2,9,20.2,20.2,20.2c11.2,0,20.2-9,20.2-20.2c0-11.2-9-20.2-20.2-20.2"/>
			<path d="M345.1,122.5c-11.8,0-21.4-9.6-21.4-21.4h2.3c0,10.5,8.5,19,19,19s19-8.5,19-19s-8.5-19-19-19v-2.3
				c11.8,0,21.4,9.6,21.4,21.4S356.9,122.5,345.1,122.5z"/>
		</g>
		<circle class="st5" cx="345.1" cy="101.1" r="16"/>
		<g>
			<path class="st3" d="M341.9,81.2V98h-16.8C325.1,98,326.9,83.9,341.9,81.2z"/>
			<path d="M343.1,99.2h-19.3l0.2-1.3c0-0.1,2-15,17.8-17.9l1.4-0.3V99.2z M326.6,96.8h14.2V82.6C330.4,85.1,327.3,93.6,326.6,96.8z
				"/>
		</g>
		<g>
			<path d="M346.7,41.1c-0.6,0-1.2-0.5-1.2-1.2V20.7c0-0.6,0.5-1.2,1.2-1.2s1.2,0.5,1.2,1.2v19.2C347.9,40.5,347.3,41.1,346.7,41.1z
				"/>
			<path d="M377.6,50.4c-0.2,0-0.4-0.1-0.6-0.2c-0.6-0.3-0.7-1-0.4-1.6l9.7-16.5c0.3-0.6,1-0.7,1.6-0.4c0.6,0.3,0.7,1,0.4,1.6
				l-9.7,16.5C378.3,50.1,378,50.4,377.6,50.4z"/>
			<path d="M399.4,74c-0.4,0-0.8-0.2-1-0.6c-0.3-0.6-0.1-1.3,0.5-1.6l16.8-9.3c0.6-0.3,1.3-0.1,1.6,0.5c0.3,0.6,0.1,1.3-0.5,1.6
				L400,73.9C399.8,74,399.6,74,399.4,74z"/>
			<path d="M418.3,141.7c-0.2,0-0.3,0-0.5-0.1l-17.3-8.3c-0.6-0.3-0.8-1-0.5-1.6c0.3-0.6,1-0.8,1.6-0.5l17.3,8.3
				c0.6,0.3,0.8,1,0.5,1.6C419.1,141.4,418.7,141.7,418.3,141.7z"/>
			<path d="M390,173.1c-0.4,0-0.7-0.2-1-0.5l-10.7-15.9c-0.4-0.5-0.2-1.3,0.3-1.6c0.5-0.4,1.3-0.2,1.6,0.3l10.7,15.9
				c0.4,0.5,0.2,1.3-0.3,1.6C390.4,173.1,390.2,173.1,390,173.1z"/>
			<path d="M290.9,75c-0.2,0-0.4,0-0.5-0.1l-17-8.9c-0.6-0.3-0.8-1-0.5-1.6c0.3-0.6,1-0.8,1.6-0.5l17,8.9c0.6,0.3,0.8,1,0.5,1.6
				C291.7,74.7,291.3,75,290.9,75z"/>
			<path d="M313.4,51.9c-0.4,0-0.8-0.2-1-0.6l-10.1-16.3c-0.3-0.5-0.2-1.3,0.4-1.6c0.5-0.3,1.3-0.2,1.6,0.4l10.1,16.3
				c0.3,0.5,0.2,1.3-0.4,1.6C313.9,51.9,313.7,51.9,313.4,51.9z"/>
			<path d="M306.5,170.8c-0.2,0-0.4-0.1-0.6-0.2c-0.6-0.3-0.7-1-0.4-1.6l9.7-16.5c0.3-0.6,1-0.7,1.6-0.4c0.6,0.3,0.7,1,0.4,1.6
				l-9.7,16.5C307.2,170.6,306.9,170.8,306.5,170.8z"/>
			<path d="M277.5,139.8c-0.4,0-0.8-0.2-1-0.6c-0.3-0.6-0.1-1.3,0.5-1.6l16.8-9.3c0.6-0.3,1.3-0.1,1.6,0.5c0.3,0.6,0.1,1.3-0.5,1.6
				l-16.8,9.3C277.9,139.8,277.7,139.8,277.5,139.8z"/>
			<path d="M346.7,183.1c-0.6,0-1.2-0.5-1.2-1.2v-19.2c0-0.6,0.5-1.2,1.2-1.2s1.2,0.5,1.2,1.2v19.2
				C347.9,182.6,347.3,183.1,346.7,183.1z"/>
			<path d="M435.1,102.3h-19.2c-0.6,0-1.2-0.5-1.2-1.2s0.5-1.2,1.2-1.2h19.2c0.6,0,1.2,0.5,1.2,1.2S435.8,102.3,435.1,102.3z"/>
			<path d="M273.4,102.3h-19.2c-0.6,0-1.2-0.5-1.2-1.2s0.5-1.2,1.2-1.2h19.2c0.6,0,1.2,0.5,1.2,1.2S274.1,102.3,273.4,102.3z"/>
		</g>
	</g>
</g>
<g>
	<g>
		<g>
			<path d="M90.6,233.3c-0.1,0-0.1-0.1-0.2-0.2l-3.6-10.5c-0.1-0.1,0-0.2,0.1-0.2h0.6c0.1,0,0.2,0,0.2,0.2l3.2,9.2h0l3.1-9.2
				c0-0.1,0.1-0.2,0.2-0.2h0.6c0.1,0,0.2,0.1,0.1,0.2l-3.6,10.5c0,0.1-0.1,0.2-0.2,0.2H90.6z"/>
			<path d="M98.2,222.5c0-0.1,0.1-0.2,0.2-0.2h0.6c0.1,0,0.2,0.1,0.2,0.2v10.6c0,0.1-0.1,0.2-0.2,0.2h-0.6c-0.1,0-0.2-0.1-0.2-0.2
				V222.5z"/>
			<path d="M102.9,232.2c-0.1-0.1-0.1-0.2,0-0.2l0.4-0.5c0.1-0.1,0.2-0.1,0.2,0c0.7,0.6,1.9,1.1,3.1,1.1c1.7,0,2.8-0.9,2.8-2.2
				c0-1.1-0.6-1.9-2.6-2.1l-0.5-0.1c-2.1-0.3-3.1-1.3-3.1-2.9c0-1.9,1.3-3.1,3.4-3.1c1.2,0,2.4,0.4,3.1,0.9c0.1,0,0.1,0.1,0,0.2
				l-0.3,0.5c-0.1,0.1-0.1,0.1-0.2,0c-0.9-0.5-1.7-0.8-2.6-0.8c-1.6,0-2.5,0.9-2.5,2.1c0,1.1,0.7,1.8,2.6,2.1l0.5,0.1
				c2.2,0.3,3.2,1.3,3.2,2.9c0,1.8-1.3,3.2-3.8,3.2C105.1,233.4,103.7,232.8,102.9,232.2z"/>
			<path d="M115,229.5c0,2,1,3,2.8,3c1.7,0,2.8-1,2.8-3v-7c0-0.1,0.1-0.2,0.2-0.2h0.6c0.1,0,0.2,0.1,0.2,0.2v7
				c0,2.7-1.4,3.9-3.7,3.9c-2.2,0-3.7-1.3-3.7-3.9v-7c0-0.1,0.1-0.2,0.2-0.2h0.6c0.1,0,0.2,0.1,0.2,0.2V229.5z"/>
			<path d="M128.3,222.5c0-0.1,0.1-0.2,0.2-0.2h0.6c0.1,0,0.2,0.1,0.2,0.2l3.8,10.6c0,0.1,0,0.2-0.1,0.2h-0.6c-0.1,0-0.2,0-0.2-0.2
				l-1-2.7h-4.7l-1,2.7c0,0.1-0.1,0.2-0.2,0.2h-0.6c-0.1,0-0.1-0.1-0.1-0.2L128.3,222.5z M130.8,229.5l-2-5.7h0l-2,5.7H130.8z"/>
			<path d="M136.3,222.5c0-0.1,0.1-0.2,0.2-0.2h0.6c0.1,0,0.2,0.1,0.2,0.2v9.8c0,0.1,0,0.1,0.1,0.1h5.4c0.1,0,0.2,0.1,0.2,0.2v0.5
				c0,0.1-0.1,0.2-0.2,0.2h-6.2c-0.1,0-0.2-0.1-0.2-0.2V222.5z"/>
			<path d="M75.2,244.3c0-0.1,0.1-0.2,0.2-0.2H79c2.1,0,3.2,1.1,3.2,2.8c0,1.3-0.7,2.1-1.7,2.4v0c0.8,0.2,1.9,1,1.9,2.6
				c0,1.9-1.2,3-3.3,3h-3.6c-0.1,0-0.2-0.1-0.2-0.2V244.3z M79,249c1.5,0,2.3-0.8,2.3-2c0-1.2-0.8-2-2.3-2h-2.8
				c-0.1,0-0.1,0-0.1,0.1v3.9c0,0.1,0,0.1,0.1,0.1H79z M76.2,254.1h2.9c1.6,0,2.4-0.8,2.4-2.1c0-1.3-0.8-2.1-2.4-2.1h-2.9
				c-0.1,0-0.1,0-0.1,0.1L76.2,254.1C76.1,254.1,76.1,254.1,76.2,254.1z"/>
			<path d="M92.5,255c-0.1,0-0.1,0-0.2-0.1l-2.3-4.7h-0.2h-2.8c-0.1,0-0.1,0-0.1,0.1v4.6c0,0.1-0.1,0.2-0.2,0.2h-0.6
				c-0.1,0-0.2-0.1-0.2-0.2v-10.6c0-0.1,0.1-0.2,0.2-0.2h3.6c2,0,3.3,1.2,3.3,3c0,1.5-0.8,2.5-2.2,2.9l2.4,4.8
				c0.1,0.1,0,0.2-0.1,0.2H92.5z M92.3,247.1c0-1.4-0.9-2.1-2.4-2.1h-2.8c-0.1,0-0.1,0-0.1,0.1v4.1c0,0.1,0,0.1,0.1,0.1h2.8
				C91.4,249.3,92.3,248.5,92.3,247.1z"/>
			<path d="M100,244.3c0-0.1,0.1-0.2,0.2-0.2h0.6c0.1,0,0.2,0.1,0.2,0.2l3.8,10.6c0,0.1,0,0.2-0.1,0.2H104c-0.1,0-0.2,0-0.2-0.2
				l-1-2.7h-4.7l-1,2.7c0,0.1-0.1,0.2-0.2,0.2h-0.6c-0.1,0-0.1-0.1-0.1-0.2L100,244.3z M102.5,251.3l-2-5.7h0l-2,5.7H102.5z"/>
			<path d="M108,244.3c0-0.1,0.1-0.2,0.2-0.2h0.6c0.1,0,0.2,0,0.3,0.2l5.4,8.9h0v-8.9c0-0.1,0.1-0.2,0.2-0.2h0.6
				c0.1,0,0.2,0.1,0.2,0.2v10.6c0,0.1-0.1,0.2-0.2,0.2h-0.6c-0.1,0-0.2,0-0.3-0.2l-5.4-9h-0.1v9c0,0.1-0.1,0.2-0.2,0.2h-0.6
				c-0.1,0-0.2-0.1-0.2-0.2V244.3z"/>
			<path d="M119.7,244.3c0-0.1,0.1-0.2,0.2-0.2h3.4c1.8,0,3,0.7,3.5,2.2c0.2,0.6,0.3,1.2,0.3,3.2c0,2-0.1,2.6-0.3,3.2
				c-0.5,1.5-1.7,2.2-3.5,2.2h-3.4c-0.1,0-0.2-0.1-0.2-0.2V244.3z M120.7,254.1h2.4c1.4,0,2.3-0.5,2.7-1.6c0.2-0.5,0.3-1.1,0.3-2.9
				c0-1.8-0.1-2.4-0.3-2.9c-0.4-1.2-1.3-1.6-2.7-1.6h-2.4c-0.1,0-0.1,0-0.1,0.1L120.7,254.1C120.6,254.1,120.6,254.1,120.7,254.1z"
				/>
			<path d="M130.9,244.3c0-0.1,0.1-0.2,0.2-0.2h0.6c0.1,0,0.2,0.1,0.2,0.2v10.6c0,0.1-0.1,0.2-0.2,0.2h-0.6c-0.1,0-0.2-0.1-0.2-0.2
				V244.3z"/>
			<path d="M136.1,244.3c0-0.1,0.1-0.2,0.2-0.2h0.6c0.1,0,0.2,0,0.3,0.2l5.4,8.9h0v-8.9c0-0.1,0.1-0.2,0.2-0.2h0.6
				c0.1,0,0.2,0.1,0.2,0.2v10.6c0,0.1-0.1,0.2-0.2,0.2h-0.6c-0.1,0-0.2,0-0.3-0.2l-5.4-9H137v9c0,0.1-0.1,0.2-0.2,0.2h-0.6
				c-0.1,0-0.2-0.1-0.2-0.2V244.3z"/>
			<path d="M147.3,249.6c0-1.9,0.1-2.6,0.3-3.2c0.5-1.6,1.8-2.4,3.6-2.4c1.8,0,2.9,0.9,3.4,2c0,0.1,0,0.2-0.1,0.2l-0.5,0.3
				c-0.1,0-0.2,0-0.2-0.1c-0.5-1-1.3-1.6-2.6-1.6c-1.3,0-2.3,0.6-2.7,1.8c-0.1,0.4-0.3,1.1-0.3,2.9c0,1.8,0.1,2.5,0.3,2.9
				c0.4,1.2,1.3,1.8,2.7,1.8c1.3,0,2.3-0.6,2.7-1.8c0.1-0.4,0.3-1,0.3-2.1c0-0.1,0-0.1-0.1-0.1h-2.5c-0.1,0-0.2-0.1-0.2-0.2v-0.5
				c0-0.1,0.1-0.2,0.2-0.2h3.3c0.1,0,0.2,0.1,0.2,0.2v0.7c0,1.1-0.1,1.9-0.3,2.4c-0.5,1.6-1.8,2.5-3.5,2.5c-1.8,0-3-0.8-3.6-2.4
				C147.5,252.2,147.3,251.5,147.3,249.6z"/>
		</g>
	</g>
	<circle class="st7" cx="47.8" cy="159.3" r="2.5"/>
	<g>
		<g>
			<circle class="st7" cx="28.8" cy="168.9" r="9.6"/>
		</g>
	</g>
	<g>
		<circle class="st7" cx="41.4" cy="32.2" r="3.8"/>
	</g>
	<g>
		<circle class="st7" cx="203.1" cy="124.7" r="3.4"/>
	</g>
	<g>
		<path class="st7" d="M211.7,36.7c0,4.8-3.9,8.7-8.7,8.7c-4.8,0-8.7-3.9-8.7-8.7c0-4.8,3.9-8.7,8.7-8.7
			C207.8,28,211.7,31.9,211.7,36.7z"/>
	</g>
	<g>
		<circle class="st3" cx="113" cy="101.1" r="31.1"/>
		<path d="M113,133.4c-17.8,0-32.3-14.5-32.3-32.3S95.2,68.8,113,68.8s32.3,14.5,32.3,32.3S130.8,133.4,113,133.4z M113,71.2
			c-16.5,0-29.9,13.4-29.9,29.9S96.5,131,113,131s29.9-13.4,29.9-29.9S129.5,71.2,113,71.2z"/>
	</g>
	<circle class="st9" cx="114.6" cy="98" r="27.5"/>
	<path d="M115.1,133.4c-31,0-58-30.1-59.3-31.5c-0.4-0.4-0.4-1.1,0-1.5c0.3-0.4,31-37.9,65.6-30.6c34.8,7.3,48.4,29.8,49,30.7
		c0.2,0.4,0.2,0.9,0,1.2c-0.2,0.2-16.9,24.5-45.8,30.7C121.4,133.1,118.2,133.4,115.1,133.4z M58.3,101.1
		c4.9,5.2,35.1,35.6,65.9,29.1c25.4-5.4,41.1-25.3,43.9-29.1c-2.5-3.7-16.5-22.6-47.1-29C90.4,65.6,62.8,95.8,58.3,101.1z"/>
	<g>
		<path class="st3" d="M92.8,101.1c0,11.2,9,20.2,20.2,20.2c11.2,0,20.2-9,20.2-20.2c0-11.2-9-20.2-20.2-20.2"/>
		<path d="M113,122.5c-11.8,0-21.4-9.6-21.4-21.4H94c0,10.5,8.5,19,19,19s19-8.5,19-19s-8.5-19-19-19v-2.3
			c11.8,0,21.4,9.6,21.4,21.4S124.8,122.5,113,122.5z"/>
	</g>
	<circle class="st8" cx="113" cy="101.1" r="16"/>
	<g>
		<path class="st3" d="M109.9,81.2V98H93.1C93.1,98,94.8,83.9,109.9,81.2z"/>
		<path d="M111.1,99.2H91.8l0.2-1.3c0-0.1,2-15,17.8-17.9l1.4-0.3V99.2z M94.5,96.8h14.2V82.6C98.4,85.1,95.3,93.6,94.5,96.8z"/>
	</g>
	<g>
		<path d="M114.6,41.1c-0.6,0-1.2-0.5-1.2-1.2V20.7c0-0.6,0.5-1.2,1.2-1.2s1.2,0.5,1.2,1.2v19.2C115.8,40.5,115.3,41.1,114.6,41.1z"
			/>
		<path d="M145.5,50.4c-0.2,0-0.4-0.1-0.6-0.2c-0.6-0.3-0.7-1-0.4-1.6l9.7-16.5c0.3-0.6,1-0.7,1.6-0.4c0.6,0.3,0.7,1,0.4,1.6
			l-9.7,16.5C146.3,50.1,145.9,50.4,145.5,50.4z"/>
		<path d="M167.4,74c-0.4,0-0.8-0.2-1-0.6c-0.3-0.6-0.1-1.3,0.5-1.6l16.8-9.3c0.6-0.3,1.3-0.1,1.6,0.5c0.3,0.6,0.1,1.3-0.5,1.6
			l-16.8,9.3C167.7,74,167.6,74,167.4,74z"/>
		<path d="M186.2,141.7c-0.2,0-0.3,0-0.5-0.1l-17.3-8.3c-0.6-0.3-0.8-1-0.5-1.6c0.3-0.6,1-0.8,1.6-0.5l17.3,8.3
			c0.6,0.3,0.8,1,0.5,1.6C187.1,141.4,186.7,141.7,186.2,141.7z"/>
		<path d="M157.9,173.1c-0.4,0-0.7-0.2-1-0.5l-10.7-15.9c-0.4-0.5-0.2-1.3,0.3-1.6c0.5-0.4,1.3-0.2,1.6,0.3l10.7,15.9
			c0.4,0.5,0.2,1.3-0.3,1.6C158.4,173.1,158.1,173.1,157.9,173.1z"/>
		<path d="M58.8,75c-0.2,0-0.4,0-0.5-0.1l-17-8.9c-0.6-0.3-0.8-1-0.5-1.6c0.3-0.6,1-0.8,1.6-0.5l17,8.9c0.6,0.3,0.8,1,0.5,1.6
			C59.7,74.7,59.3,75,58.8,75z"/>
		<path d="M81.4,51.9c-0.4,0-0.8-0.2-1-0.6L70.3,35.1c-0.3-0.5-0.2-1.3,0.4-1.6c0.5-0.3,1.3-0.2,1.6,0.4l10.1,16.3
			c0.3,0.5,0.2,1.3-0.4,1.6C81.8,51.9,81.6,51.9,81.4,51.9z"/>
		<path d="M74.4,170.8c-0.2,0-0.4-0.1-0.6-0.2c-0.6-0.3-0.7-1-0.4-1.6l9.7-16.5c0.3-0.6,1-0.7,1.6-0.4c0.6,0.3,0.7,1,0.4,1.6
			l-9.7,16.5C75.2,170.6,74.8,170.8,74.4,170.8z"/>
		<path d="M45.5,139.8c-0.4,0-0.8-0.2-1-0.6c-0.3-0.6-0.1-1.3,0.5-1.6l16.8-9.3c0.6-0.3,1.3-0.1,1.6,0.5c0.3,0.6,0.1,1.3-0.5,1.6
			L46,139.7C45.9,139.8,45.7,139.8,45.5,139.8z"/>
		<path d="M114.6,183.1c-0.6,0-1.2-0.5-1.2-1.2v-19.2c0-0.6,0.5-1.2,1.2-1.2s1.2,0.5,1.2,1.2v19.2
			C115.8,182.6,115.3,183.1,114.6,183.1z"/>
		<path d="M203.1,102.3h-19.2c-0.6,0-1.2-0.5-1.2-1.2s0.5-1.2,1.2-1.2h19.2c0.6,0,1.2,0.5,1.2,1.2S203.7,102.3,203.1,102.3z"/>
		<path d="M41.4,102.3H22.2c-0.6,0-1.2-0.5-1.2-1.2s0.5-1.2,1.2-1.2h19.2c0.6,0,1.2,0.5,1.2,1.2S42,102.3,41.4,102.3z"/>
	</g>
</g>
</svg>
