<?xml version="1.0" encoding="utf-8"?>
<!-- Generator: Adobe Illustrator 20.0.0, SVG Export Plug-In . SVG Version: 6.00 Build 0)  -->
<svg version="1.1" id="Layer_1" xmlns="http://www.w3.org/2000/svg" xmlns:xlink="http://www.w3.org/1999/xlink" x="0px" y="0px"
	 viewBox="0 0 170.1 170.1" style="enable-background:new 0 0 170.1 170.1;" xml:space="preserve">
<style type="text/css">
	.st0{fill:none;stroke:#676464;stroke-miterlimit:10;}
	.st1{fill:#676464;}
</style>
<g>
	<polyline class="st0" points="159.4,66 159.4,159.4 10.7,159.4 10.7,10.7 159.4,10.7 159.4,43.7 142.5,43.7 	"/>
	<g>
		<g>
			<g>
				<g>
					<g>
						<path class="st1" d="M72.3,48.1c-0.1-3.3-0.8-5.9-2.5-7.8c-1.7-1.9-4.1-2.8-7.3-2.8H47.3c-3.2,0-5.7,0.9-7.3,2.8
							c-1.7,1.9-2.5,4.4-2.5,7.8v22.1l6.7-4.9c3.1-2.3,6.8-3.3,10.9-3.3h8.6c4.9,0,8.6,1.2,11.2,3.8c2.6,2.6,3.8,6.3,3.8,11.2v16.6
							c0,4.9-1.2,8.6-3.8,11.2c-2.6,2.6-6.3,3.7-11.2,3.7H47.3c-4.9,0-8.6-1.1-11.2-3.7c-2.6-2.6-3.8-6.3-3.8-11.2V48.2
							c0-4.9,1.2-8.6,3.8-11.2c2.6-2.6,6.3-3.8,11.2-3.8h15.2c4.9,0,8.6,1.2,11.2,3.8c2.6,2.6,3.8,6.3,3.8,11.2v5.5h-5L72.3,48.1z
							 M37.4,93.7c0,3.3,0.8,5.9,2.5,7.8c1.7,1.9,4.1,2.8,7.3,2.8h16.3c3.2,0,5.7-0.9,7.3-2.8c1.7-1.9,2.5-4.4,2.5-7.8V77.1
							c0-3.3-0.8-5.9-2.5-7.8s-4.1-2.8-7.3-2.8H55c-3.8,0-7.4,1.1-11,3.3l-6.7,4L37.4,93.7z"/>
					</g>
				</g>
			</g>
		</g>
		<g>
			<g>
				<path class="st1" d="M109.4,53.5c-0.9,4.2-2.5,7.8-4.9,10.9c-2.4,3.1-6.2,5.9-11.5,8.5c-0.9-1.4-2.1-2.5-3.8-3.4
					c4.7-1.2,8.6-3.5,11.7-6.6c3.2-3.2,5-8,5.4-14.3c-6.5,0-11.6,0.2-15.3,0.4v-4.3c3.6,0.2,8.7,0.4,15.5,0.4
					c0.1-2.5,0.2-4.6,0.2-6.5c0-1.9-0.1-3.5-0.2-4.9c1.2,0.2,2.3,0.3,3.1,0.3c1.7,0,2.5,0.1,2.5,0.2s-0.1,0.3-0.4,0.5
					c-0.5,0.4-0.7,1.2-0.8,2.5l-0.5,7.9c7.2,0,12.7-0.1,16.4-0.4v4.3c-4-0.3-9.5-0.4-16.6-0.4c1.2,5,3.4,9.3,6.6,12.9
					c3.3,3.6,7.1,5.7,11.6,6.5c-1.6,1.1-2.9,2.7-3.7,4.8c-3.1-1.5-6.1-3.8-8.9-6.7C112.9,62.9,110.8,58.8,109.4,53.5z"/>
				<path class="st1" d="M101.7,86.8c4.3,0,7.1-0.1,8.3-0.2v2.2c-1.2-0.1-4-0.2-8.3-0.2v3.9c4.4,0,7.9-0.1,10.7-0.2v2.3
					c-3.2-0.2-7.1-0.3-11.8-0.3c-4.7,0-8.7,0.1-11.9,0.3v-2.4c1.4,0.2,2.9,0.3,4.6,0.3v-3.9c0-1-0.1-2-0.2-3
					c0.5,0.1,1.5,0.2,2.8,0.2c0.1,0,0.2,0,0.2,0.1c0,0.1-0.1,0.2-0.3,0.3s-0.3,0.4-0.3,0.8v5.6h4v-6.3c0-1.2-0.1-2.2-0.2-3
					c0.9,0.1,1.8,0.2,2.6,0.2c0.2,0,0.4,0,0.4,0.1s-0.1,0.2-0.2,0.2c-0.3,0.1-0.4,0.4-0.4,0.8V86.8z M99.4,104.7v-6.1
					c0-1.4-0.1-2.4-0.2-3.1c0.8,0.1,1.7,0.1,2.7,0.1c0.3,0,0.4,0,0.4,0.2c0,0.1-0.1,0.2-0.3,0.3s-0.3,0.3-0.4,0.4s-0.1,0.3-0.1,0.6
					v6.4c2.5-1.7,4.6-4.1,6.2-7.5c0.4,0.3,0.8,0.6,1.2,0.9c0.4,0.3,0.8,0.5,1.1,0.6s0.4,0.2,0.4,0.3s-0.1,0.2-0.4,0.3
					c-0.2,0.1-1.4,1.4-3.3,3.8c-1.5,1.8-3.6,3.3-6.4,4.4c-2.7,1.1-6,1.9-9.9,2.3c-0.1-0.9-0.4-1.7-1-2.5c1.8,0,3.5-0.1,5.3-0.4
					C96.6,105.5,98.1,105.2,99.4,104.7z M94.1,96.6c0.8,0.5,1.6,0.9,2.4,1c0.2,0.1,0.4,0.1,0.4,0.2c0,0.1-0.1,0.1-0.2,0.2
					c-0.4,0.2-1.9,1.9-4.5,5.2c-0.6-0.6-1.4-1.1-2.2-1.4c0.8-0.5,1.6-1.2,2.4-2.2C93.1,98.6,93.7,97.6,94.1,96.6z"/>
				<path class="st1" d="M121.2,102.1c-2.1,0.5-3.8,1.1-5.2,1.8c0-0.8-0.2-1.7-0.6-2.5c1.6,0,3.5-0.4,5.7-1.1c0,0.2-0.1,0.5-0.1,0.8
					C121.1,101.3,121.1,101.7,121.2,102.1z M122.5,96.3c0.7,0,1.3-0.1,1.8-0.2c-0.3,4.5-0.4,7.2-0.5,8.1c0,0.9-0.1,1.6-0.3,2.2
					c-0.2,0.6-0.6,1-1.1,1.2c-0.5,0.3-1.4,0.4-2.4,0.5c-0.1-0.9-0.4-1.6-1-2.2c0.6,0.1,1.1,0.1,1.5,0.1s0.7-0.1,1-0.2
					s0.4-0.4,0.5-0.8s0.2-1.2,0.3-2.4c0.1-1.2,0.1-2.8,0.2-4.6c-2.4,0-4.2,0.1-5.2,0.2c0.1-1.1,0.2-2.9,0.2-5.3c0-2.4,0-3.9-0.1-4.4
					c0.4,0.1,0.8,0.1,1.3,0.1l0.8,0c0.2,0,0.3,0,0.3,0.1s-0.1,0.2-0.2,0.3c-0.4,0.4-0.5,2.8-0.5,7.4h1.8l0.5-9.4
					c-2.1,0-3.7,0.1-4.9,0.2v-2c1.1,0.1,2.2,0.2,3.3,0.2s2.4-0.1,3.7-0.2c-0.1,0.9-0.2,2-0.3,3.3L122.5,96.3z M125.1,86.3l-0.9,0.1
					v-1.8c0.7,0.1,2.1,0.2,4.1,0.2c2,0,3.3-0.1,3.9-0.2v1.8c-0.4-0.1-0.7-0.1-0.9-0.1v6.8l0.8-0.2c-0.1,0.3-0.1,0.5-0.1,0.8
					c0,0.2,0,0.4,0,0.6l-0.7,0.1c0,0.7,0.1,1.2,0.1,1.6h-1.9l0.1-1.2c-2,0.4-3.7,0.8-5.1,1.2c0-0.6-0.2-1.2-0.5-1.8l1,0V86.3z
					 M130.7,98.1c-1.6,0.2-3,0.3-4.2,0.4c0-0.6-0.1-1.2-0.5-1.7c3.7,0.1,7.2-0.4,10.5-1.6c0.2,0.8,0.6,1.4,1,1.7
					c0.2,0.2,0.3,0.3,0.3,0.4s-0.1,0.2-0.3,0.1c-0.2,0-0.4-0.1-0.7-0.1c-0.7,0-2.1,0.2-4.3,0.5v1.2c0.4,0.7,0.8,1.3,1.3,1.8
					c1.4-1,2.5-1.9,3.3-2.7c0.4,0.6,0.8,1.1,1.3,1.5c0.1,0.1,0.2,0.2,0.2,0.3c0,0.1-0.1,0.2-0.3,0.2c-0.6,0.1-1.7,0.7-3.5,1.8
					c1.9,1.5,3.8,2.5,5.6,2.8c-0.9,0.6-1.6,1.3-2,2.2c-2.7-1.5-4.7-3.5-6.1-6v4.1c0,1.2,0,2.3,0.1,3.1h-2.2c0.1-1.2,0.2-2.3,0.2-3.1
					v-1.8c-0.4,0.1-0.9,0.5-1.6,1.3c-0.8,0.8-1.9,1.8-3.5,2.9c-0.4-0.6-0.9-1.1-1.5-1.5c2.2-1,3.9-2.3,5.2-4
					c0.3,0.5,0.8,0.8,1.4,1.1V98.1z M128.1,98.7c0.2,0.3,0.6,0.7,1.3,1.1c0.2,0.1,0.3,0.2,0.3,0.3s-0.1,0.1-0.4,0.2
					s-0.5,0.2-0.8,0.6c-0.3,0.4-0.7,0.8-1.2,1.2c-0.5,0.4-1,0.8-1.4,1c-0.3-0.5-0.7-1-1.2-1.2C126,101.1,127.2,100.1,128.1,98.7z
					 M129.6,86.3h-3V88h3V86.3z M129.6,90.9v-1.6h-3v1.6H129.6z M129.6,93.6v-1.4h-3v1.9L129.6,93.6z M135.9,92.5
					c-0.7,0.9-1.5,1.8-2.3,2.5c-0.2-0.5-0.6-1-1.2-1.4c0.9-0.6,1.6-1.4,2.2-2.2c-0.7-0.5-1.5-1.1-2.3-1.6l1.1-1.2
					c1.3,0.8,2,1.3,2.1,1.4c0.4-0.7,0.7-1.6,1.1-2.7c-2,0-3.2,0.1-3.8,0.2v-2c0.7,0.1,1.8,0.2,3.1,0.2s2.4-0.1,3.1-0.2
					c-0.7,2.3-1.4,4.1-2.1,5.5l2.8,2.1l-1.3,1.6C137.5,93.9,136.7,93.2,135.9,92.5z"/>
			</g>
		</g>
		<g>
			<g>
				<path class="st1" d="M33.4,135.4c-0.1-0.1-0.2-0.3-0.1-0.4l1.8-2c0.1-0.1,0.3-0.1,0.4,0c1.2,1,3.1,2,5.2,2
					c2.3,0,3.6-1.2,3.6-2.8c0-1.4-0.9-2.3-3.5-2.7l-1-0.1c-3.7-0.5-5.8-2.3-5.8-5.5c0-3.5,2.6-5.8,6.5-5.8c2.4,0,4.7,0.8,6.2,1.9
					c0.1,0.1,0.2,0.2,0.1,0.4l-1.4,2.1c-0.1,0.1-0.3,0.2-0.4,0.1c-1.6-1-3-1.5-4.6-1.5c-2,0-3,1.1-3,2.6c0,1.3,0.9,2.2,3.5,2.6
					l1,0.1c3.7,0.5,5.8,2.3,5.8,5.6c0,3.4-2.5,6-7.3,6C37.7,138,34.9,136.8,33.4,135.4z"/>
				<path class="st1" d="M57.2,137.6c-0.2,0-0.3-0.1-0.3-0.3v-15.8c0-0.1-0.1-0.2-0.2-0.2h-5c-0.2,0-0.3-0.1-0.3-0.3v-2.4
					c0-0.2,0.1-0.3,0.3-0.3h13.8c0.2,0,0.3,0.1,0.3,0.3v2.4c0,0.2-0.1,0.3-0.3,0.3h-5c-0.1,0-0.2,0.1-0.2,0.2v15.8
					c0,0.2-0.1,0.3-0.3,0.3H57.2z"/>
				<path class="st1" d="M73.6,118.6c0.1-0.2,0.2-0.3,0.4-0.3h2.6c0.2,0,0.3,0.1,0.4,0.3l6.5,18.7c0.1,0.2,0,0.3-0.2,0.3h-2.8
					c-0.2,0-0.3-0.1-0.4-0.3l-1.3-3.7h-7.3l-1.3,3.7c-0.1,0.2-0.2,0.3-0.4,0.3h-2.8c-0.2,0-0.3-0.1-0.2-0.3L73.6,118.6z M77.8,130.6
					l-2.6-7.5h-0.1l-2.6,7.5H77.8z"/>
				<path class="st1" d="M86.6,128c0-3,0.1-4.1,0.5-5.3c1-3.1,3.5-4.7,6.9-4.7c3.6,0,5.9,1.9,6.7,4.1c0.1,0.1,0,0.3-0.1,0.4l-2.4,1
					c-0.2,0.1-0.3,0-0.4-0.1c-0.9-1.5-2-2.4-3.9-2.4c-2,0-3.1,1-3.6,2.5c-0.2,0.7-0.3,1.7-0.3,4.4c0,2.7,0.1,3.7,0.3,4.4
					C90.9,134,92,135,94,135c1.7,0,3.1-0.9,3.7-2.4c0.2-0.6,0.3-1.4,0.3-2.5c0-0.1-0.1-0.2-0.2-0.2h-3.2c-0.2,0-0.3-0.1-0.3-0.3
					v-2.3c0-0.2,0.1-0.3,0.3-0.3h6.4c0.2,0,0.3,0.1,0.3,0.3v1.7c0,1.6-0.1,3.3-0.5,4.2c-0.9,3-3.5,4.7-6.8,4.7
					c-3.4,0-5.9-1.6-6.9-4.7C86.7,132.1,86.6,131,86.6,128z"/>
				<path class="st1" d="M106.7,118.6c0-0.2,0.1-0.3,0.3-0.3h12.1c0.2,0,0.3,0.1,0.3,0.3v2.4c0,0.2-0.1,0.3-0.3,0.3h-8.9
					c-0.1,0-0.2,0.1-0.2,0.2v4.7c0,0.1,0.1,0.2,0.2,0.2h7.5c0.2,0,0.3,0.1,0.3,0.3v2.4c0,0.2-0.1,0.3-0.3,0.3h-7.5
					c-0.1,0-0.2,0.1-0.2,0.2v4.9c0,0.1,0.1,0.2,0.2,0.2h8.9c0.2,0,0.3,0.1,0.3,0.3v2.4c0,0.2-0.1,0.3-0.3,0.3H107
					c-0.2,0-0.3-0.1-0.3-0.3V118.6z"/>
				<path class="st1" d="M123.7,135.4c-0.1-0.1-0.2-0.3-0.1-0.4l1.8-2c0.1-0.1,0.3-0.1,0.4,0c1.2,1,3.1,2,5.2,2
					c2.3,0,3.6-1.2,3.6-2.8c0-1.4-0.9-2.3-3.5-2.7l-1-0.1c-3.7-0.5-5.8-2.3-5.8-5.5c0-3.5,2.6-5.8,6.5-5.8c2.4,0,4.7,0.8,6.2,1.9
					c0.1,0.1,0.2,0.2,0.1,0.4l-1.4,2.1c-0.1,0.1-0.3,0.2-0.4,0.1c-1.6-1-3-1.5-4.6-1.5c-2,0-3,1.1-3,2.6c0,1.3,0.9,2.2,3.5,2.6
					l1,0.1c3.7,0.5,5.8,2.3,5.8,5.6c0,3.4-2.5,6-7.3,6C127.9,138,125.2,136.8,123.7,135.4z"/>
			</g>
		</g>
	</g>
</g>
</svg>
