<?xml version="1.0" encoding="utf-8"?>
<!-- Generator: Adobe Illustrator 20.0.0, SVG Export Plug-In . SVG Version: 6.00 Build 0)  -->
<svg version="1.1" id="Layer_1" xmlns="http://www.w3.org/2000/svg" xmlns:xlink="http://www.w3.org/1999/xlink" x="0px" y="0px"
	 viewBox="0 0 440 432" style="enable-background:new 0 0 440 432;" xml:space="preserve">
<style type="text/css">
	.st0{fill:#F15B4A;}
	.st1{clip-path:url(#SVGID_2_);}
	.st2{fill:#FCF7E9;}
	.st3{fill:#C7C4BC;}
	.st4{clip-path:url(#SVGID_4_);}
	.st5{fill:#FFFFFF;}
	.st6{fill:#EDC393;}
	.st7{fill:#B1B3B6;}
	.st8{fill:#333132;}
	.st9{fill:#4F341A;}
	.st10{fill:#2A160C;}
	.st11{fill:#452B13;}
	.st12{fill:#4D4E4A;}
	.st13{fill:#3E3B3A;}
	.st14{opacity:0.5;fill:#8F8C86;}
	.st15{opacity:0.5;clip-path:url(#SVGID_6_);fill:#8F8C86;}
	.st16{fill:#F37223;}
	.st17{fill:#BF5A28;}
	.st18{fill:#DAB17C;}
	.st19{fill:#F89420;}
	.st20{fill:url(#SVGID_7_);}
	.st21{fill:#FDBE14;}
	.st22{fill:#F2F2F2;}
	.st23{clip-path:url(#SVGID_9_);}
	.st24{fill:#06BDCD;}
	.st25{opacity:0.5;clip-path:url(#SVGID_9_);}
	.st26{fill:#8F8C86;}
	.st27{fill:#79BEC0;}
	.st28{opacity:0.5;fill:#FFFFFF;}
	.st29{clip-path:url(#SVGID_11_);}
	.st30{fill:#C5DA4E;}
	.st31{fill:#A3BD3D;}
	.st32{fill:#6AB352;}
	.st33{fill:#5A462C;}
	.st34{fill:#D4E172;}
	.st35{fill:#ECEC83;}
	.st36{fill:#C2E1F1;}
	.st37{fill:#8BA3B0;}
	.st38{fill:#8FC640;}
	.st39{fill:#72A441;}
	.st40{fill:#976339;}
	.st41{fill:#7A4F2A;}
	
		.st42{fill:none;stroke:#FFFFFF;stroke-width:0.771;stroke-linecap:round;stroke-linejoin:round;stroke-miterlimit:10;stroke-dasharray:4.6259;}
	
		.st43{fill:none;stroke:#FFFFFF;stroke-width:0.6936;stroke-linecap:round;stroke-linejoin:round;stroke-miterlimit:10;stroke-dasharray:4.1616;}
	.st44{fill:#D46528;}
	.st45{fill:#F3F1E6;}
	.st46{fill:#D4D2C3;}
	.st47{clip-path:url(#SVGID_25_);}
	.st48{fill:#EEE809;}
	.st49{fill:#94D9F8;}
	.st50{fill:#211E1F;}
	.st51{fill:#231F20;}
	.st52{fill:#F7941F;}
	.st53{fill:#47B77B;}
	.st54{fill:#221F1F;}
	.st55{fill:#F5EB0E;}
	.st56{fill:#EBE70E;}
	.st57{fill:url(#);}
	.st58{fill:none;stroke:url(#);stroke-miterlimit:10;}
	.st59{fill:#F7941D;}
	.st60{fill:#45B97C;}
	.st61{fill:none;stroke:#010101;stroke-miterlimit:10;}
	.st62{fill:#010101;}
	.st63{fill:#4BC3C9;}
	.st64{fill:#DD1D4F;}
	.st65{fill:none;stroke:#231F20;stroke-width:0.9625;stroke-linecap:round;stroke-linejoin:round;stroke-miterlimit:10;}
	.st66{fill:none;stroke:url(#);stroke-width:0.6902;stroke-miterlimit:10;}
	.st67{fill:#FBAA19;}
	.st68{fill:none;stroke:#221F1F;stroke-width:0.8692;stroke-miterlimit:10;}
	.st69{fill:none;stroke:#221F1F;stroke-width:0.8566;stroke-miterlimit:10;}
	.st70{fill:none;stroke:url(#);stroke-width:0.7698;stroke-miterlimit:10;}
	.st71{fill:none;stroke:#221F1F;stroke-width:0.8028;stroke-miterlimit:10;}
	.st72{fill:#FFFFFF;stroke:url(#);stroke-width:0.6902;stroke-miterlimit:10;}
	.st73{fill:none;stroke:url(#);stroke-width:0.4601;stroke-miterlimit:10;}
	.st74{fill:none;stroke:#79BEC0;stroke-width:2.3005;stroke-miterlimit:10;}
	.st75{fill:#C9E9E6;}
	.st76{fill:#E5EFF5;}
	.st77{fill:#0A3655;}
	.st78{fill:none;stroke:#79BEC0;stroke-width:1.2825;stroke-miterlimit:10;}
	.st79{fill:none;stroke:#F15B4A;stroke-miterlimit:10;}
	.st80{fill:none;stroke:#F15B4A;stroke-width:2;stroke-linecap:round;stroke-linejoin:round;stroke-miterlimit:10;}
	.st81{fill:#FFFFFF;stroke:#F15B4A;stroke-miterlimit:10;}
</style>
<g>
	
		<ellipse transform="matrix(0.9951 -9.911136e-02 9.911136e-02 0.9951 -25.8359 6.6114)" class="st78" cx="53.6" cy="263.3" rx="51.8" ry="51.8"/>
	
		<ellipse transform="matrix(0.8912 -0.4537 0.4537 0.8912 -110.5233 57.8176)" class="st79" cx="65.2" cy="259.3" rx="19.7" ry="19.7"/>
	<line class="st79" x1="47.7" y1="268.2" x2="39.4" y2="272.4"/>
	<path class="st0" d="M23.4,281.9l-1.1-2.2c-0.6-1.1-0.1-2.5,1-3l15.7-8c1.1-0.6,2.5-0.1,3,1l1.1,2.2c0.6,1.1,0.1,2.5-1,3l-15.7,8
		C25.3,283.5,24,283,23.4,281.9z"/>
	<g>
		<g>
			
				<ellipse transform="matrix(0.2946 -0.9556 0.9556 0.2946 -201.7398 245.2373)" class="st79" cx="65.2" cy="259.3" rx="15.4" ry="15.4"/>
			<path class="st79" d="M58.4,269c0,0,6.8,4.8,13.5-0.1"/>
		</g>
	</g>
	<g>
		<path class="st27" d="M166.3,270.5c-0.2-0.7-0.4-1.5-0.4-3.7s0.2-3,0.4-3.7c0.6-1.9,2.1-2.9,4.2-2.9c2.1,0,3.5,1,4.1,2.9
			c0.2,0.7,0.4,1.5,0.4,3.7s-0.2,3-0.4,3.7c-0.6,1.9-2.1,2.9-4.1,2.9C168.4,273.4,167,272.4,166.3,270.5z M173.6,263.3
			c-0.5-1.4-1.5-2.2-3.1-2.2c-1.6,0-2.7,0.8-3.1,2.2c-0.2,0.5-0.3,1.3-0.3,3.4s0.2,2.9,0.3,3.4c0.5,1.4,1.5,2.2,3.1,2.2
			c1.6,0,2.6-0.8,3.1-2.2c0.2-0.5,0.3-1.3,0.3-3.4S173.8,263.8,173.6,263.3z"/>
		<path class="st27" d="M184,273.2c-0.1,0-0.2-0.1-0.2-0.2v-5.3c0-1.8-0.8-2.7-2.4-2.7c-1.4,0-2.5,0.9-2.5,2.5v5.5
			c0,0.1-0.1,0.2-0.2,0.2h-0.6c-0.1,0-0.2-0.1-0.2-0.2v-8.7c0-0.1,0.1-0.2,0.2-0.2h0.6c0.1,0,0.2,0.1,0.2,0.2v1.1h0
			c0.5-0.9,1.4-1.5,2.7-1.5c2,0,3.2,1.2,3.2,3.4v5.6c0,0.1-0.1,0.2-0.2,0.2H184z"/>
		<path class="st27" d="M190.1,273.2c-1.4,0-1.9-0.6-1.9-2.1v-10.6c0-0.1,0.1-0.2,0.2-0.2h0.6c0.1,0,0.2,0.1,0.2,0.2v10.6
			c0,0.9,0.3,1.2,1,1.2h0.3c0.1,0,0.2,0.1,0.2,0.2v0.6c0,0.1-0.1,0.2-0.2,0.2H190.1z"/>
		<path class="st27" d="M193.3,261.7c-0.1,0-0.2-0.1-0.2-0.2v-1.1c0-0.1,0.1-0.2,0.2-0.2h0.8c0.1,0,0.2,0.1,0.2,0.2v1.1
			c0,0.1-0.1,0.2-0.2,0.2H193.3z M193.4,273.2c-0.1,0-0.2-0.1-0.2-0.2v-8.7c0-0.1,0.1-0.2,0.2-0.2h0.6c0.1,0,0.2,0.1,0.2,0.2v8.7
			c0,0.1-0.1,0.2-0.2,0.2H193.4z"/>
		<path class="st27" d="M203.8,273.2c-0.1,0-0.2-0.1-0.2-0.2v-5.3c0-1.8-0.8-2.7-2.4-2.7c-1.4,0-2.5,0.9-2.5,2.5v5.5
			c0,0.1-0.1,0.2-0.2,0.2h-0.6c-0.1,0-0.2-0.1-0.2-0.2v-8.7c0-0.1,0.1-0.2,0.2-0.2h0.6c0.1,0,0.2,0.1,0.2,0.2v1.1h0
			c0.5-0.9,1.4-1.5,2.7-1.5c2,0,3.2,1.2,3.2,3.4v5.6c0,0.1-0.1,0.2-0.2,0.2H203.8z"/>
		<path class="st27" d="M207.6,271c-0.2-0.5-0.3-1.2-0.3-2.3c0-1.1,0.1-1.8,0.3-2.3c0.5-1.5,1.7-2.3,3.4-2.3s2.9,0.8,3.4,2.3
			c0.2,0.6,0.3,1.2,0.3,2.4c0,0.1-0.1,0.2-0.2,0.2h-5.9c-0.1,0-0.1,0.1-0.1,0.1c0,0.8,0.1,1.2,0.2,1.6c0.4,1.2,1.3,1.8,2.6,1.8
			c1.2,0,2-0.5,2.5-1.2c0.1-0.1,0.2-0.1,0.3,0l0.4,0.4c0.1,0.1,0.1,0.2,0,0.3c-0.7,0.9-1.8,1.5-3.3,1.5
			C209.3,273.4,208.1,272.5,207.6,271z M213.4,268c0.1,0,0.1,0,0.1-0.1c0-0.5-0.1-0.9-0.2-1.3c-0.4-1.1-1.2-1.7-2.4-1.7
			c-1.2,0-2,0.6-2.4,1.7c-0.1,0.4-0.2,0.8-0.2,1.3c0,0.1,0,0.1,0.1,0.1H213.4z"/>
		<path class="st27" d="M222.2,260.5c0-0.1,0.1-0.2,0.2-0.2h4c2.1,0,3.5,0.9,4.1,2.6c0.2,0.8,0.4,1.5,0.4,3.8c0,2.3-0.1,3.1-0.4,3.8
			c-0.6,1.8-2,2.6-4.1,2.6h-4c-0.1,0-0.2-0.1-0.2-0.2V260.5z M223.4,272.2h2.9c1.7,0,2.8-0.6,3.2-2c0.2-0.6,0.3-1.3,0.3-3.5
			s-0.1-2.8-0.3-3.5c-0.5-1.4-1.6-2-3.2-2h-2.9c-0.1,0-0.1,0-0.1,0.1V272C223.2,272.1,223.3,272.2,223.4,272.2z"/>
		<path class="st27" d="M234,261.7c-0.1,0-0.2-0.1-0.2-0.2v-1.1c0-0.1,0.1-0.2,0.2-0.2h0.8c0.1,0,0.2,0.1,0.2,0.2v1.1
			c0,0.1-0.1,0.2-0.2,0.2H234z M234.1,273.2c-0.1,0-0.2-0.1-0.2-0.2v-8.7c0-0.1,0.1-0.2,0.2-0.2h0.6c0.1,0,0.2,0.1,0.2,0.2v8.7
			c0,0.1-0.1,0.2-0.2,0.2H234.1z"/>
		<path class="st27" d="M238.2,275.5c-0.1-0.1-0.1-0.2,0-0.3l0.5-0.4c0.1-0.1,0.2-0.1,0.3,0c0.5,0.6,1.3,1,2.2,1
			c1.6,0,2.6-0.8,2.6-2.7v-1.3h0c-0.4,0.9-1.2,1.5-2.7,1.5c-1.5,0-2.6-0.8-3-2.2c-0.2-0.6-0.3-1.4-0.3-2.5c0-1.1,0.1-1.8,0.3-2.5
			c0.5-1.4,1.5-2.2,3-2.2c1.5,0,2.3,0.6,2.7,1.5h0v-1.1c0-0.1,0.1-0.2,0.2-0.2h0.6c0.1,0,0.2,0.1,0.2,0.2v8.7c0,2.5-1.4,3.8-3.6,3.8
			C239.8,276.8,238.7,276.2,238.2,275.5z M243.5,270.7c0.2-0.5,0.2-1.1,0.2-2.1c0-0.9-0.1-1.6-0.2-2.1c-0.4-1.1-1.2-1.6-2.3-1.6
			c-1.1,0-1.9,0.5-2.2,1.6c-0.2,0.5-0.3,1.2-0.3,2.1c0,0.9,0.1,1.6,0.3,2.1c0.3,1,1.1,1.6,2.2,1.6
			C242.3,272.3,243.1,271.8,243.5,270.7z"/>
		<path class="st27" d="M248.3,261.7c-0.1,0-0.2-0.1-0.2-0.2v-1.1c0-0.1,0.1-0.2,0.2-0.2h0.8c0.1,0,0.2,0.1,0.2,0.2v1.1
			c0,0.1-0.1,0.2-0.2,0.2H248.3z M248.4,273.2c-0.1,0-0.2-0.1-0.2-0.2v-8.7c0-0.1,0.1-0.2,0.2-0.2h0.6c0.1,0,0.2,0.1,0.2,0.2v8.7
			c0,0.1-0.1,0.2-0.2,0.2H248.4z"/>
		<path class="st27" d="M255.4,273.2c-1.7,0-2.3-0.7-2.3-2.4v-5.6c0-0.1,0-0.1-0.1-0.1h-0.9c-0.1,0-0.2-0.1-0.2-0.2v-0.5
			c0-0.1,0.1-0.2,0.2-0.2h0.9c0.1,0,0.1,0,0.1-0.1v-2.6c0-0.1,0.1-0.2,0.2-0.2h0.6c0.1,0,0.2,0.1,0.2,0.2v2.6c0,0.1,0,0.1,0.1,0.1
			h1.7c0.1,0,0.2,0.1,0.2,0.2v0.5c0,0.1-0.1,0.2-0.2,0.2h-1.7c-0.1,0-0.1,0-0.1,0.1v5.6c0,1.2,0.4,1.5,1.5,1.5h0.4
			c0.1,0,0.2,0.1,0.2,0.2v0.6c0,0.1-0.1,0.2-0.2,0.2H255.4z"/>
		<path class="st27" d="M259.4,265.6c-0.1,0.1-0.2,0.1-0.3,0l-0.3-0.5c-0.1-0.1,0-0.2,0.1-0.3c0.6-0.5,1.6-0.9,2.9-0.9
			c2.3,0,3.3,0.8,3.3,3v6c0,0.1-0.1,0.2-0.2,0.2h-0.6c-0.1,0-0.2-0.1-0.2-0.2V272h0c-0.4,0.8-1.3,1.3-2.8,1.3c-1.8,0-3-0.9-3-2.7
			c0-1.8,1.2-2.7,3.4-2.7h2.3c0.1,0,0.1,0,0.1-0.1V267c0-1.5-0.5-2.1-2.3-2.1C260.5,264.9,259.9,265.2,259.4,265.6z M264,270.4V269
			c0-0.1,0-0.1-0.1-0.1h-2.2c-1.8,0-2.6,0.6-2.6,1.8c0,1.1,0.8,1.7,2.2,1.7C262.9,272.4,264,271.6,264,270.4z"/>
		<path class="st27" d="M270.2,273.2c-1.4,0-1.9-0.6-1.9-2.1v-10.6c0-0.1,0.1-0.2,0.2-0.2h0.6c0.1,0,0.2,0.1,0.2,0.2v10.6
			c0,0.9,0.3,1.2,1,1.2h0.3c0.1,0,0.2,0.1,0.2,0.2v0.6c0,0.1-0.1,0.2-0.2,0.2H270.2z"/>
		<path class="st27" d="M187.1,295.9c-0.1,0-0.2-0.1-0.2-0.2v-12.5c0-0.1,0.1-0.2,0.2-0.2h4.3c2.5,0,4,1.4,4,3.7
			c0,2.3-1.5,3.6-4,3.6h-3.3c-0.1,0-0.1,0-0.1,0.1v5.3c0,0.1-0.1,0.2-0.2,0.2H187.1z M194.3,286.7c0-1.6-1-2.6-2.9-2.6h-3.3
			c-0.1,0-0.1,0-0.1,0.1v5c0,0.1,0,0.1,0.1,0.1h3.3C193.3,289.3,194.3,288.3,194.3,286.7z"/>
		<path class="st27" d="M199.8,296c-1.4,0-1.9-0.6-1.9-2.1v-10.6c0-0.1,0.1-0.2,0.2-0.2h0.6c0.1,0,0.2,0.1,0.2,0.2v10.6
			c0,0.9,0.3,1.2,1,1.2h0.3c0.1,0,0.2,0.1,0.2,0.2v0.6c0,0.1-0.1,0.2-0.2,0.2H199.8z"/>
		<path class="st27" d="M203.7,288.3c-0.1,0.1-0.2,0.1-0.3,0l-0.3-0.5c-0.1-0.1,0-0.2,0.1-0.3c0.6-0.5,1.6-0.9,2.9-0.9
			c2.3,0,3.3,0.8,3.3,3v6c0,0.1-0.1,0.2-0.2,0.2h-0.6c-0.1,0-0.2-0.1-0.2-0.2v-0.9h0c-0.4,0.8-1.3,1.3-2.8,1.3c-1.8,0-3-0.9-3-2.7
			c0-1.8,1.2-2.7,3.4-2.7h2.3c0.1,0,0.1,0,0.1-0.1v-0.9c0-1.5-0.5-2.1-2.3-2.1C204.8,287.6,204.2,287.9,203.7,288.3z M208.3,293.1
			v-1.4c0-0.1,0-0.1-0.1-0.1H206c-1.8,0-2.6,0.6-2.6,1.8c0,1.1,0.8,1.7,2.2,1.7C207.2,295.1,208.3,294.4,208.3,293.1z"/>
		<path class="st27" d="M215.3,296c-1.7,0-2.3-0.7-2.3-2.4v-5.6c0-0.1,0-0.1-0.1-0.1h-0.9c-0.1,0-0.2-0.1-0.2-0.2v-0.5
			c0-0.1,0.1-0.2,0.2-0.2h0.9c0.1,0,0.1,0,0.1-0.1v-2.6c0-0.1,0.1-0.2,0.2-0.2h0.6c0.1,0,0.2,0.1,0.2,0.2v2.6c0,0.1,0,0.1,0.1,0.1
			h1.7c0.1,0,0.2,0.1,0.2,0.2v0.5c0,0.1-0.1,0.2-0.2,0.2H214c-0.1,0-0.1,0-0.1,0.1v5.6c0,1.2,0.4,1.5,1.5,1.5h0.4
			c0.1,0,0.2,0.1,0.2,0.2v0.6c0,0.1-0.1,0.2-0.2,0.2H215.3z"/>
		<path class="st27" d="M219,295.9c-0.1,0-0.2-0.1-0.2-0.2v-7.8c0-0.1,0-0.1-0.1-0.1h-1c-0.1,0-0.2-0.1-0.2-0.2v-0.5
			c0-0.1,0.1-0.2,0.2-0.2h1c0.1,0,0.1,0,0.1-0.1v-1c0-2.2,0.7-2.8,2.5-2.8h0.5c0.1,0,0.2,0.1,0.2,0.2v0.6c0,0.1-0.1,0.2-0.2,0.2
			h-0.4c-1.4,0-1.6,0.3-1.6,1.6v1.1c0,0.1,0,0.1,0.1,0.1h1.9c0.1,0,0.2,0.1,0.2,0.2v0.5c0,0.1-0.1,0.2-0.2,0.2H220
			c-0.1,0-0.1,0-0.1,0.1v7.8c0,0.1-0.1,0.2-0.2,0.2H219z"/>
		<path class="st27" d="M224,293.7c-0.2-0.6-0.3-1.3-0.3-2.4c0-1.1,0.1-1.7,0.3-2.3c0.5-1.5,1.7-2.3,3.4-2.3c1.7,0,2.9,0.9,3.4,2.3
			c0.2,0.6,0.3,1.3,0.3,2.3c0,1.1-0.1,1.8-0.3,2.4c-0.5,1.5-1.7,2.3-3.4,2.3C225.7,296.1,224.5,295.2,224,293.7z M229.8,293.4
			c0.2-0.5,0.2-1.1,0.2-2c0-1-0.1-1.5-0.2-2c-0.4-1.1-1.2-1.7-2.4-1.7c-1.2,0-2,0.6-2.4,1.7c-0.2,0.5-0.2,1.1-0.2,2
			c0,1,0.1,1.5,0.2,2c0.4,1.1,1.2,1.7,2.4,1.7C228.5,295.1,229.4,294.5,229.8,293.4z"/>
		<path class="st27" d="M234.1,295.9c-0.1,0-0.2-0.1-0.2-0.2v-8.7c0-0.1,0.1-0.2,0.2-0.2h0.6c0.1,0,0.2,0.1,0.2,0.2v1.2h0
			c0.3-0.9,1.2-1.5,2.4-1.5c0.7,0,1.4,0.2,1.8,0.6c0.1,0.1,0.1,0.2,0,0.2l-0.4,0.5c-0.1,0.1-0.2,0.1-0.3,0c-0.4-0.3-0.9-0.5-1.4-0.5
			c-1.6,0-2.2,1.4-2.2,3v5c0,0.1-0.1,0.2-0.2,0.2H234.1z"/>
		<path class="st27" d="M253.3,295.9c-0.1,0-0.2-0.1-0.2-0.2v-5.3c0-1.8-0.8-2.7-2.4-2.7c-1.4,0-2.4,0.9-2.4,2.5v5.5
			c0,0.1-0.1,0.2-0.2,0.2h-0.6c-0.1,0-0.2-0.1-0.2-0.2v-5.3c0-1.8-0.8-2.7-2.4-2.7c-1.4,0-2.5,0.9-2.5,2.5v5.5
			c0,0.1-0.1,0.2-0.2,0.2h-0.6c-0.1,0-0.2-0.1-0.2-0.2v-8.7c0-0.1,0.1-0.2,0.2-0.2h0.6c0.1,0,0.2,0.1,0.2,0.2v1.1h0
			c0.5-0.9,1.4-1.5,2.7-1.5c1.4,0,2.3,0.6,2.8,1.7h0c0.5-1,1.5-1.7,3-1.7c2,0,3.2,1.2,3.2,3.4v5.6c0,0.1-0.1,0.2-0.2,0.2H253.3z"/>
	</g>
	<polyline class="st80" points="188.3,208.6 211,225.7 210.7,210.4 177.7,186.8 180.6,216.6 220.1,248 259.5,216.6 264,171.9 
		220.1,148.3 176.2,171.9 	"/>
	<g>
		<line class="st80" x1="220.1" y1="201.6" x2="183.5" y2="176.9"/>
		<line class="st80" x1="220.1" y1="201.6" x2="256.6" y2="176.9"/>
		<line class="st80" x1="205.4" y1="191.7" x2="241.8" y2="168.8"/>
		<line class="st80" x1="198.6" y1="177.3" x2="234.7" y2="156.2"/>
		<line class="st80" x1="225" y1="167.6" x2="249.4" y2="181.8"/>
		<line class="st80" x1="205.4" y1="156.2" x2="220.1" y2="164.7"/>
		<line class="st80" x1="198.4" y1="168.8" x2="227.4" y2="187.1"/>
		<line class="st80" x1="220.1" y1="201.6" x2="220.1" y2="248"/>
	</g>
	<circle class="st78" cx="386.4" cy="263.5" r="51.8"/>
	<g>
		<path class="st79" d="M400.1,237c0,2.9,0,5.7,0,8.5c-0.1,0-0.1,0-0.2,0c-1.3,0-2.6,0-3.8,0c-0.8,0-1.6,0-2.3,0.1
			c-0.7,0.1-1.3,0.3-1.9,0.7c-0.8,0.5-1.1,1.3-1.3,2.2c-0.1,0.5-0.1,1-0.1,1.5c0,2,0,4,0,6c0,0.2,0,0.2,0.2,0.2c2.9,0,5.9,0,8.8,0
			c0.1,0,0.1,0,0.2,0c0.2,0,0.2,0,0.2,0.2c-0.1,0.5-0.1,1.1-0.2,1.6c-0.1,0.6-0.1,1.1-0.2,1.7c-0.1,0.5-0.1,1.1-0.2,1.6
			c-0.1,0.6-0.1,1.1-0.2,1.7c-0.1,0.5-0.1,1.1-0.2,1.6c0,0.3-0.1,0.7-0.1,1c0,0-0.1,0.1-0.1,0.1c-0.1,0-0.1,0-0.2,0
			c-2.5,0-5.1,0-7.6,0c-0.3,0-0.3,0-0.3,0.3c0,7.9,0,15.9,0,23.8c0,0.3,0,0.3-0.3,0.3c-3.1,0-6.2,0-9.4,0c-0.2,0-0.2,0-0.2-0.2
			c0-7.9,0-15.9,0-23.8c0,0,0-0.1,0-0.1c0-0.2,0-0.2-0.2-0.2c-2.6,0-5.1,0-7.7,0c-0.1,0-0.1,0-0.2,0c-0.1,0-0.2,0-0.2-0.2
			c0,0,0-0.1,0-0.1c0-3,0-6,0-9.1c0-0.2,0-0.2,0.3-0.2c2.6,0,5.1,0,7.7,0c0.2,0,0.2,0,0.2-0.3c0-2.3,0-4.7,0-7c0-2,0.3-4,1.2-5.8
			c1.3-2.8,3.4-4.7,6.3-5.7c0.9-0.3,1.9-0.5,2.8-0.6c0.6-0.1,1.2-0.1,1.8-0.1c0.5,0,0.9,0,1.4,0c0.8,0,1.6,0,2.4,0.1
			c0.8,0,1.6,0.1,2.5,0.2C399.3,236.9,399.7,236.9,400.1,237z"/>
	</g>
	<circle class="st78" cx="145.6" cy="378.1" r="51.8"/>
	<g>
		<g>
			<polyline class="st0" points="126.2,358 126.2,378.5 121.8,378.5 121.8,358 			"/>
			<rect x="121.8" y="385.8" class="st0" width="4.4" height="24.9"/>
			<path class="st0" d="M121.8,346.7v3.7h4.4v-3.7C124.1,344.4,121.8,346.7,121.8,346.7z"/>
			<polygon class="st79" points="171.6,354 119.6,354 119.6,358.7 129.7,358.7 129.7,382 119.6,382 119.6,386.4 171.6,386.4 
				165.5,370.2 			"/>
		</g>
	</g>
	<circle class="st78" cx="219.9" cy="53.9" r="51.8"/>
	<polyline class="st79" points="250.9,61.7 250.9,29.3 188.9,29.3 188.9,68.9 250.9,68.9 250.9,61 	"/>
	<line class="st81" x1="188.9" y1="63.2" x2="250.9" y2="63.2"/>
	<polygon class="st0" points="214.4,71.3 212.3,78.5 228.5,78.5 226.3,71.3 	"/>
	<line class="st81" x1="208.4" y1="78.5" x2="232" y2="78.5"/>
	<circle class="st0" cx="220.2" cy="66" r="1"/>
	<rect x="194" y="52.2" class="st79" width="16.5" height="4.9"/>
	<polygon class="st79" points="210.6,49.8 194.1,49.7 194.1,35.3 210.6,35.4 	"/>
	<rect x="213" y="35.3" class="st79" width="32.7" height="21.8"/>
	<circle class="st78" cx="87.5" cy="118.3" r="51.8"/>
	<g>
		<g>
			<g>
				<g>
					<path class="st79" d="M109.6,105H68l7,23.3h31.2L109.6,105L109.6,105z"/>
				</g>
				<g>
					<polygon class="st0" points="105.5,134.1 70.9,134.1 62.8,107.4 51.5,101.2 53,98.5 65.4,105.3 73.3,131 105.5,131 					"/>
				</g>
				<path class="st0" d="M100,139.7c2.2,0,3.9-1.8,3.9-3.9h-7.8C96.1,138,97.8,139.7,100,139.7z"/>
				<path class="st0" d="M77.7,139.7c2.2,0,3.9-1.8,3.9-3.9h-7.8C73.7,138,75.5,139.7,77.7,139.7z"/>
			</g>
		</g>
	</g>
	<circle class="st78" cx="297.5" cy="378.1" r="51.8"/>
	<rect x="271.4" y="360.3" class="st79" width="52.1" height="35.9"/>
	<g>
		<g>
			<polygon class="st0" points="290.9,369 290.9,387.2 308.6,378.1 			"/>
		</g>
	</g>
	<circle class="st78" cx="353.8" cy="118.3" r="51.8"/>
	<g>
		<g>
			<path class="st0" d="M339.8,99.7c0-0.3-0.2-0.3-0.5-0.3c-1.8,0-3.5,0-5.3,0c-0.3,0-0.4,0.1-0.4,0.4c0,0.5,0,1.1,0,1.6
				c0,0.4,0.1,0.6,0.5,0.5c0.9,0,1.7,0,2.6,0c0.4,0,0.5,0.1,0.3,0.5c-0.2,0.6-0.6,1.2-1.2,1.6l0,0l0,0c-2.6,1.3-4.9,0.5-6-2.1
				c-0.3-0.8-0.2-1.7,0-2.5l0,0l0,0c0-0.1,0.1-0.1,0.1-0.2c1.1-2.5,3.6-3.3,5.9-1.8c0.2,0.1,0.3,0.1,0.5-0.1
				c0.4-0.4,0.9-0.9,1.3-1.3c0.3-0.2,0.2-0.4-0.1-0.6c-3-2.6-8.3-1.5-9.9,2.2v0l0,0c-1,1.9-0.9,3.9,0,5.8l0,0l0,0
				c0.1,0.2,0.2,0.4,0.3,0.6c2.1,3.4,7.1,4.2,9.9,1.5C339.7,104,340.1,102,339.8,99.7z"/>
		</g>
		<g>
			<path class="st79" d="M354.8,118.4c-0.6,1.7-1.2,3.4-1.8,5.1c-1.7,5.1-3.4,10.2-5.1,15.4c-0.9,2.7-3.2,4.3-6,4.3
				c-3.8,0-7.6,0-11.5,0c-0.6,0-0.6,0-0.4-0.6c3.6-10.9,7.3-21.8,10.9-32.8c1.8-5.4,3.6-10.7,5.3-16.1c0.1-0.4,0.3-0.5,0.7-0.5
				c5.2,0,10.5,0,15.7,0c0.2,0,0.4-0.1,0.5,0.2c-0.7,2.4-1.5,4.7-2.3,7c-0.6,1.7-1.1,3.4-1.7,5.1c-1.4,4.1-2.7,8.2-4.1,12.2
				C355.1,118.1,355,118.3,354.8,118.4z"/>
			<path class="st79" d="M362.9,94.1c-2.1,6.3-4.2,12.6-6.3,18.9c-0.6,1.8-1.2,3.6-1.7,5.4c0,0.1,0.1,0.3,0.1,0.4
				c2.2,6.7,4.5,13.4,6.7,20.1c0.3,0.9,0.8,1.8,1.5,2.4c1.1,1.2,2.6,1.9,4.3,1.9c3.7,0,7.4,0,11.1,0c1,0,1.1-0.2,0.8-1.2
				c0-0.1-0.1-0.2-0.1-0.3c-4.7-14-9.3-28.1-14-42.1c-0.7-2-1.3-4-2-6"/>
		</g>
	</g>
	<path class="st78" d="M334.6,263.5c0-24.7,17.2-45.3,40.3-50.5l-10.1-44.2c-3.5,0.8-7.2,1.2-11,1.2c-28.6,0-51.8-23.2-51.8-51.8
		c0-8,1.8-15.6,5.1-22.4l-40.6-19.5c-8.4,17.3-26.1,29.3-46.7,29.3c-20.5,0-38.3-12-46.7-29.3l-39.4,19c3.4,6.9,5.4,14.7,5.4,23
		c0,28.6-23.2,51.8-51.8,51.8c-4.3,0-8.4-0.5-12.4-1.5l-10.1,44.3c21.2,4.7,37.9,22.6,40.2,45.4c1.8,17.9-5.8,34.6-18.8,45.2
		l27.1,34c8.8-7,20-11.2,32.1-11.2c28.6,0,51.8,23.2,51.8,51.8h48.3c0-28.6,23.2-51.8,51.8-51.8c11.2,0,21.6,3.6,30,9.6l25.9-32.5
		C341.9,294,334.6,279.6,334.6,263.5z"/>
</g>
</svg>
