<?xml version="1.0" encoding="utf-8"?>
<!-- Generator: Adobe Illustrator 20.0.0, SVG Export Plug-In . SVG Version: 6.00 Build 0)  -->
<svg version="1.1" id="Layer_1" xmlns="http://www.w3.org/2000/svg" xmlns:xlink="http://www.w3.org/1999/xlink" x="0px" y="0px"
	 viewBox="0 0 463.5 275.9" style="enable-background:new 0 0 463.5 275.9;" xml:space="preserve">
<style type="text/css">
	.st0{fill:none;stroke:#000000;stroke-width:1.0387;stroke-miterlimit:10;}
	.st1{fill:none;stroke:#000000;stroke-miterlimit:10;}
	.st2{fill:none;stroke:#000000;stroke-width:0.3639;stroke-miterlimit:10;}
	.st3{fill:#FFFFFF;}
	.st4{fill:#ECF8FE;}
	.st5{fill:#27BDBE;}
	.st6{fill:#FFE06A;}
	.st7{fill:#D9D9D9;}
	.st8{fill:#999999;}
	.st9{fill:#BFBFBF;}
	.st10{fill:#FFFFFF;stroke:#000000;stroke-width:1.5873;stroke-miterlimit:10;}
	.st11{fill:none;stroke:#000000;stroke-width:1.5873;stroke-linecap:round;stroke-linejoin:round;stroke-miterlimit:10;}
	.st12{fill:none;stroke:#000000;stroke-width:0.8323;stroke-linecap:round;stroke-linejoin:round;stroke-miterlimit:10;}
	.st13{fill:#CFCDCD;}
	.st14{fill:#C9E9E6;}
	.st15{fill:none;stroke:#000000;stroke-width:0.8889;stroke-miterlimit:10;}
	.st16{fill:none;stroke:#FFFFFF;stroke-miterlimit:10;}
</style>
<g>
	<g>
		<g>
			<path d="M275.3,217.7c0-0.1,0.1-0.2,0.2-0.2h6.2c0.1,0,0.2,0.1,0.2,0.2v0.5c0,0.1-0.1,0.2-0.2,0.2h-5.4c-0.1,0-0.1,0-0.1,0.1v3.9
				c0,0.1,0,0.1,0.1,0.1h4.6c0.1,0,0.2,0.1,0.2,0.2v0.5c0,0.1-0.1,0.2-0.2,0.2h-4.6c-0.1,0-0.1,0-0.1,0.1v4c0,0.1,0,0.1,0.1,0.1h5.4
				c0.1,0,0.2,0.1,0.2,0.2v0.5c0,0.1-0.1,0.2-0.2,0.2h-6.2c-0.1,0-0.2-0.1-0.2-0.2V217.7z"/>
			<path d="M291.4,228.5c-0.1,0-0.2,0-0.2-0.1l-2.8-4.7h0l-2.8,4.7c0,0.1-0.1,0.1-0.2,0.1h-0.7c-0.1,0-0.1-0.1-0.1-0.2l3.3-5.5l-3-5
				c-0.1-0.1,0-0.2,0.1-0.2h0.7c0.1,0,0.2,0,0.2,0.1l2.5,4.1h0l2.5-4.1c0.1-0.1,0.1-0.1,0.2-0.1h0.7c0.1,0,0.1,0.1,0.1,0.2l-3,5
				l3.3,5.5c0,0.1,0,0.2-0.1,0.2H291.4z"/>
			<path d="M295.7,228.5c-0.1,0-0.2-0.1-0.2-0.2v-10.6c0-0.1,0.1-0.2,0.2-0.2h3.6c2.1,0,3.3,1.2,3.3,3.1c0,1.9-1.3,3.1-3.3,3.1h-2.8
				c-0.1,0-0.1,0-0.1,0.1v4.5c0,0.1-0.1,0.2-0.2,0.2H295.7z M301.8,220.7c0-1.4-0.9-2.2-2.5-2.2h-2.8c-0.1,0-0.1,0-0.1,0.1v4.2
				c0,0.1,0,0.1,0.1,0.1h2.8C300.9,222.9,301.8,222.1,301.8,220.7z"/>
			<path d="M306.2,217.7c0-0.1,0.1-0.2,0.2-0.2h0.6c0.1,0,0.2,0.1,0.2,0.2v9.8c0,0.1,0,0.1,0.1,0.1h5.4c0.1,0,0.2,0.1,0.2,0.2v0.5
				c0,0.1-0.1,0.2-0.2,0.2h-6.2c-0.1,0-0.2-0.1-0.2-0.2V217.7z"/>
			<path d="M318.7,217.7c0-0.1,0.1-0.2,0.2-0.2h0.6c0.1,0,0.2,0.1,0.2,0.2l3.8,10.6c0,0.1,0,0.2-0.1,0.2h-0.6c-0.1,0-0.2,0-0.2-0.2
				l-1-2.7h-4.7l-1,2.7c0,0.1-0.1,0.2-0.2,0.2H315c-0.1,0-0.1-0.1-0.1-0.2L318.7,217.7z M321.3,224.7l-2-5.7h0l-2,5.7H321.3z"/>
			<path d="M326.7,217.7c0-0.1,0.1-0.2,0.2-0.2h0.6c0.1,0,0.2,0.1,0.2,0.2v10.6c0,0.1-0.1,0.2-0.2,0.2h-0.6c-0.1,0-0.2-0.1-0.2-0.2
				V217.7z"/>
			<path d="M331.9,217.7c0-0.1,0.1-0.2,0.2-0.2h0.6c0.1,0,0.2,0,0.3,0.2l5.4,8.9h0v-8.9c0-0.1,0.1-0.2,0.2-0.2h0.6
				c0.1,0,0.2,0.1,0.2,0.2v10.6c0,0.1-0.1,0.2-0.2,0.2h-0.6c-0.1,0-0.2,0-0.3-0.2l-5.4-9h-0.1v9c0,0.1-0.1,0.2-0.2,0.2h-0.6
				c-0.1,0-0.2-0.1-0.2-0.2V217.7z"/>
			<path d="M343.6,217.7c0-0.1,0.1-0.2,0.2-0.2h6.2c0.1,0,0.2,0.1,0.2,0.2v0.5c0,0.1-0.1,0.2-0.2,0.2h-5.4c-0.1,0-0.1,0-0.1,0.1v3.9
				c0,0.1,0,0.1,0.1,0.1h4.6c0.1,0,0.2,0.1,0.2,0.2v0.5c0,0.1-0.1,0.2-0.2,0.2h-4.6c-0.1,0-0.1,0-0.1,0.1v4c0,0.1,0,0.1,0.1,0.1h5.4
				c0.1,0,0.2,0.1,0.2,0.2v0.5c0,0.1-0.1,0.2-0.2,0.2h-6.2c-0.1,0-0.2-0.1-0.2-0.2V217.7z"/>
			<path d="M360.3,228.5c-0.1,0-0.1,0-0.2-0.1l-2.3-4.7h-0.2h-2.8c-0.1,0-0.1,0-0.1,0.1v4.6c0,0.1-0.1,0.2-0.2,0.2H354
				c-0.1,0-0.2-0.1-0.2-0.2v-10.6c0-0.1,0.1-0.2,0.2-0.2h3.6c2,0,3.3,1.2,3.3,3c0,1.5-0.8,2.5-2.2,2.9l2.4,4.8
				c0.1,0.1,0,0.2-0.1,0.2H360.3z M360,220.6c0-1.4-0.9-2.1-2.4-2.1h-2.8c-0.1,0-0.1,0-0.1,0.1v4.1c0,0.1,0,0.1,0.1,0.1h2.8
				C359.2,222.7,360,222,360,220.6z"/>
			<path d="M372.4,228.5c-0.1,0-0.1-0.1-0.2-0.2l-3.6-10.5c-0.1-0.1,0-0.2,0.1-0.2h0.6c0.1,0,0.2,0,0.2,0.2l3.2,9.2h0l3.1-9.2
				c0-0.1,0.1-0.2,0.2-0.2h0.6c0.1,0,0.2,0.1,0.1,0.2l-3.6,10.5c0,0.1-0.1,0.2-0.2,0.2H372.4z"/>
			<path d="M380,217.7c0-0.1,0.1-0.2,0.2-0.2h0.6c0.1,0,0.2,0.1,0.2,0.2v10.6c0,0.1-0.1,0.2-0.2,0.2h-0.6c-0.1,0-0.2-0.1-0.2-0.2
				V217.7z"/>
			<path d="M385.2,217.7c0-0.1,0.1-0.2,0.2-0.2h3.4c1.8,0,3,0.7,3.5,2.2c0.2,0.6,0.3,1.2,0.3,3.2c0,2-0.1,2.6-0.3,3.2
				c-0.5,1.5-1.7,2.2-3.5,2.2h-3.4c-0.1,0-0.2-0.1-0.2-0.2V217.7z M386.2,227.6h2.4c1.4,0,2.3-0.5,2.7-1.6c0.2-0.5,0.3-1.1,0.3-2.9
				c0-1.8-0.1-2.4-0.3-2.9c-0.4-1.2-1.3-1.6-2.7-1.6h-2.4c-0.1,0-0.1,0-0.1,0.1L386.2,227.6C386.1,227.6,386.1,227.6,386.2,227.6z"
				/>
			<path d="M396.4,217.7c0-0.1,0.1-0.2,0.2-0.2h6.2c0.1,0,0.2,0.1,0.2,0.2v0.5c0,0.1-0.1,0.2-0.2,0.2h-5.4c-0.1,0-0.1,0-0.1,0.1v3.9
				c0,0.1,0,0.1,0.1,0.1h4.6c0.1,0,0.2,0.1,0.2,0.2v0.5c0,0.1-0.1,0.2-0.2,0.2h-4.6c-0.1,0-0.1,0-0.1,0.1v4c0,0.1,0,0.1,0.1,0.1h5.4
				c0.1,0,0.2,0.1,0.2,0.2v0.5c0,0.1-0.1,0.2-0.2,0.2h-6.2c-0.1,0-0.2-0.1-0.2-0.2V217.7z"/>
			<path d="M406.4,226.2c-0.2-0.6-0.3-1.3-0.3-3.2c0-1.9,0.1-2.6,0.3-3.2c0.5-1.6,1.7-2.4,3.5-2.4c1.8,0,3,0.8,3.5,2.4
				c0.2,0.6,0.3,1.3,0.3,3.2c0,1.9-0.1,2.6-0.3,3.2c-0.5,1.6-1.7,2.4-3.5,2.4C408.1,228.6,406.9,227.8,406.4,226.2z M412.5,220.1
				c-0.4-1.2-1.3-1.8-2.6-1.8c-1.4,0-2.2,0.6-2.6,1.8c-0.1,0.4-0.3,1.1-0.3,2.9c0,1.8,0.1,2.5,0.3,2.9c0.4,1.2,1.3,1.8,2.6,1.8
				c1.3,0,2.2-0.6,2.6-1.8c0.1-0.4,0.3-1.1,0.3-2.9C412.8,221.3,412.7,220.6,412.5,220.1z"/>
			<path d="M297.8,250.2c-0.1,0-0.2-0.1-0.2-0.2v-10.6c0-0.1,0.1-0.2,0.2-0.2h3.6c2.1,0,3.3,1.2,3.3,3.1c0,1.9-1.3,3.1-3.3,3.1h-2.8
				c-0.1,0-0.1,0-0.1,0.1v4.5c0,0.1-0.1,0.2-0.2,0.2H297.8z M303.8,242.4c0-1.4-0.9-2.2-2.5-2.2h-2.8c-0.1,0-0.1,0-0.1,0.1v4.2
				c0,0.1,0,0.1,0.1,0.1h2.8C303,244.6,303.8,243.8,303.8,242.4z"/>
			<path d="M314.7,250.2c-0.1,0-0.1,0-0.2-0.1l-2.3-4.7h-0.2h-2.8c-0.1,0-0.1,0-0.1,0.1v4.6c0,0.1-0.1,0.2-0.2,0.2h-0.6
				c-0.1,0-0.2-0.1-0.2-0.2v-10.6c0-0.1,0.1-0.2,0.2-0.2h3.6c2,0,3.3,1.2,3.3,3c0,1.5-0.8,2.5-2.2,2.9l2.4,4.8
				c0.1,0.1,0,0.2-0.1,0.2H314.7z M314.5,242.3c0-1.4-0.9-2.1-2.4-2.1h-2.8c-0.1,0-0.1,0-0.1,0.1v4.1c0,0.1,0,0.1,0.1,0.1h2.8
				C313.6,244.5,314.5,243.7,314.5,242.3z"/>
			<path d="M319.2,247.9c-0.2-0.6-0.3-1.3-0.3-3.2s0.1-2.6,0.3-3.2c0.5-1.6,1.7-2.4,3.5-2.4c1.8,0,3,0.8,3.5,2.4
				c0.2,0.6,0.3,1.3,0.3,3.2s-0.1,2.6-0.3,3.2c-0.5,1.6-1.7,2.4-3.5,2.4C321,250.4,319.7,249.5,319.2,247.9z M325.4,241.9
				c-0.4-1.2-1.3-1.8-2.6-1.8c-1.4,0-2.2,0.6-2.6,1.8c-0.1,0.4-0.3,1.1-0.3,2.9s0.1,2.5,0.3,2.9c0.4,1.2,1.3,1.8,2.6,1.8
				c1.3,0,2.2-0.6,2.6-1.8c0.1-0.4,0.3-1.1,0.3-2.9S325.5,242.3,325.4,241.9z"/>
			<path d="M330.4,239.5c0-0.1,0.1-0.2,0.2-0.2h3.4c1.8,0,3,0.7,3.5,2.2c0.2,0.6,0.3,1.2,0.3,3.2c0,2-0.1,2.6-0.3,3.2
				c-0.5,1.5-1.7,2.2-3.5,2.2h-3.4c-0.1,0-0.2-0.1-0.2-0.2V239.5z M331.4,249.3h2.4c1.4,0,2.3-0.5,2.7-1.6c0.2-0.5,0.3-1.1,0.3-2.9
				c0-1.8-0.1-2.4-0.3-2.9c-0.4-1.2-1.3-1.6-2.7-1.6h-2.4c-0.1,0-0.1,0-0.1,0.1L331.4,249.3C331.3,249.3,331.3,249.3,331.4,249.3z"
				/>
			<path d="M342.4,246.5c0,2,1,3,2.8,3c1.7,0,2.8-1,2.8-3v-7c0-0.1,0.1-0.2,0.2-0.2h0.6c0.1,0,0.2,0.1,0.2,0.2v7
				c0,2.7-1.4,3.9-3.7,3.9c-2.2,0-3.7-1.3-3.7-3.9v-7c0-0.1,0.1-0.2,0.2-0.2h0.6c0.1,0,0.2,0.1,0.2,0.2V246.5z"/>
			<path d="M352.6,244.8c0-1.9,0.1-2.6,0.3-3.2c0.5-1.6,1.7-2.4,3.4-2.4c1.5,0,2.7,0.7,3.3,2c0,0.1,0,0.2,0,0.2l-0.5,0.3
				c-0.1,0-0.2,0-0.2-0.1c-0.5-0.9-1.3-1.6-2.5-1.6c-1.3,0-2.1,0.6-2.6,1.8c-0.1,0.4-0.2,1.1-0.2,2.9c0,1.8,0.1,2.5,0.2,2.9
				c0.4,1.2,1.2,1.8,2.6,1.8c1.2,0,2-0.6,2.5-1.6c0-0.1,0.1-0.1,0.2-0.1l0.5,0.3c0.1,0,0.1,0.1,0,0.2c-0.6,1.3-1.8,2-3.3,2
				c-1.7,0-2.9-0.8-3.4-2.4C352.7,247.4,352.6,246.7,352.6,244.8z"/>
			<path d="M365.3,250.2c-0.1,0-0.2-0.1-0.2-0.2v-9.8c0-0.1,0-0.1-0.1-0.1h-3.1c-0.1,0-0.2-0.1-0.2-0.2v-0.5c0-0.1,0.1-0.2,0.2-0.2
				h7.4c0.1,0,0.2,0.1,0.2,0.2v0.5c0,0.1-0.1,0.2-0.2,0.2h-3.1c-0.1,0-0.1,0-0.1,0.1v9.8c0,0.1-0.1,0.2-0.2,0.2H365.3z"/>
			<path d="M372.6,239.5c0-0.1,0.1-0.2,0.2-0.2h0.6c0.1,0,0.2,0.1,0.2,0.2V250c0,0.1-0.1,0.2-0.2,0.2h-0.6c-0.1,0-0.2-0.1-0.2-0.2
				V239.5z"/>
			<path d="M377.6,247.9c-0.2-0.6-0.3-1.3-0.3-3.2s0.1-2.6,0.3-3.2c0.5-1.6,1.7-2.4,3.5-2.4c1.8,0,3,0.8,3.5,2.4
				c0.2,0.6,0.3,1.3,0.3,3.2s-0.1,2.6-0.3,3.2c-0.5,1.6-1.7,2.4-3.5,2.4C379.4,250.4,378.2,249.5,377.6,247.9z M383.8,241.9
				c-0.4-1.2-1.3-1.8-2.6-1.8c-1.4,0-2.2,0.6-2.6,1.8c-0.1,0.4-0.3,1.1-0.3,2.9s0.1,2.5,0.3,2.9c0.4,1.2,1.3,1.8,2.6,1.8
				c1.3,0,2.2-0.6,2.6-1.8c0.1-0.4,0.3-1.1,0.3-2.9S383.9,242.3,383.8,241.9z"/>
			<path d="M388.8,239.5c0-0.1,0.1-0.2,0.2-0.2h0.6c0.1,0,0.2,0,0.3,0.2l5.4,8.9h0v-8.9c0-0.1,0.1-0.2,0.2-0.2h0.6
				c0.1,0,0.2,0.1,0.2,0.2V250c0,0.1-0.1,0.2-0.2,0.2h-0.6c-0.1,0-0.2,0-0.3-0.2l-5.4-9h-0.1v9c0,0.1-0.1,0.2-0.2,0.2H389
				c-0.1,0-0.2-0.1-0.2-0.2V239.5z"/>
		</g>
	</g>
	<g>
		<g>
			<g>
				<g>
					<path class="st5" d="M329.7,59.7c0-11.2,0-33.5,0-33.5h-55.9v33.5c0,0,0,11.2,11.2,11.2c17,0,55.9,0,55.9,0
						S329.7,70.9,329.7,59.7z"/>
				</g>
			</g>
			<g>
				<path d="M346.4,71.6h-5.6c-0.1,0-11.9-0.1-11.9-11.9V25.5h7v34.2c0,10.3,10,10.5,10.5,10.5V71.6z M330.4,26.9v32.8
					c0,9.9,9.1,10.4,10.4,10.5c-3-1.5-6.2-4.4-6.2-10.5V26.9H330.4z"/>
			</g>
			<g>
				<path class="st6" d="M352,59.7c0-11.2,11.2-11.2,11.2-11.2h-55.9c0,0-11.2,0-11.2,11.2c0,11.2-11.2,11.2-11.2,11.2l56,0.1
					C342.3,70.9,352,70.1,352,59.7z"/>
			</g>
			<g>
				<g>
					<path class="st5" d="M363.2,48.5c-8.9,0-42.4,0-55.9,0c0,0,11.2,0,11.2,11.2c0,11.2,0,55.9,0,55.9l55.9,0V59.7
						C374.3,59.7,374.3,48.5,363.2,48.5z"/>
				</g>
			</g>
			<g>
				<rect x="273.8" y="30.7" class="st3" width="55.2" height="1.4"/>
			</g>
			<g>
				<rect x="318.3" y="64.6" class="st3" width="56.2" height="1.4"/>
			</g>
			<g>
				<rect x="318.3" y="86.8" class="st3" width="56.2" height="1.4"/>
			</g>
			<g>
				<rect x="318.3" y="109.3" class="st3" width="56.2" height="1.4"/>
			</g>
			<g>
				<rect x="273.8" y="53.4" class="st3" width="18" height="1.4"/>
			</g>
			<g>
				<path d="M285,71.6h-5.6c-11.7,0-11.9-11.8-11.9-11.9V25.5h7v34.2c0,0.4,0.1,10.5,10.5,10.5V71.6z M268.9,26.9v32.8
					c0,0.4,0.1,10.1,10,10.5c-5.7-3.1-5.8-10.4-5.8-10.5V26.9H268.9z"/>
			</g>
			<g>
				<rect x="304.5" y="47.8" width="58.7" height="1.4"/>
			</g>
			<g>
				<path d="M319.2,116.3h-7V59.7c0-10.4-10-10.5-10.5-10.5v-1.4h5.6c0.1,0,11.9,0.1,11.9,11.9V116.3z M313.6,114.9h4.2V59.7
					c0-9.9-9.1-10.4-10.4-10.5c3,1.5,6.2,4.4,6.2,10.5V114.9z"/>
			</g>
			<g>
				<path d="M380.6,116.3h-7l0-56.6c0-0.4-0.1-10.5-10.5-10.5v-1.4h5.6c11.7,0,11.9,11.8,11.9,11.9V116.3z M375,114.9h4.2V59.7
					c0-0.4-0.1-10.1-10-10.5c5.7,3.1,5.8,10.4,5.8,10.5V114.9z"/>
			</g>
			<g>
				<path d="M285,71.6v-1.3c-2.8,1.3-5.5,1.3-5.6,1.3v-1.4c0.4,0,10.5-0.1,10.5-10.5c0-11.7,11.8-11.9,11.9-11.9h5.6v1.4
					c-0.4,0-10.5,0.1-10.5,10.5C296.9,71.4,285.1,71.6,285,71.6z M301.6,49.2c-1.2,0-10.4,0.6-10.4,10.5c0,6-3.1,9-6.2,10.5
					c1.2,0,10.4-0.6,10.4-10.5C295.5,53.7,298.6,50.7,301.6,49.2z"/>
			</g>
		</g>
		<g>
			<g>
				<rect x="347.1" y="115.2" class="st10" width="80.1" height="52.1"/>
			</g>
			<path class="st6" d="M351.3,119.9v42.7h72.5v-42.7H351.3z"/>
			<polygon class="st3" points="383.1,146.2 383.1,136.3 391.9,141.1 			"/>
			<g>
				<g>
					<rect x="347.1" y="106.8" class="st6" width="80.1" height="8"/>
				</g>
				<g>
					<g>
						<polygon class="st3" points="355.5,115.2 354.8,114.5 362.7,106.5 363.4,107.2 						"/>
					</g>
					<g>
						<polygon class="st3" points="363.5,115.2 362.8,114.5 370.7,106.5 371.4,107.2 						"/>
					</g>
					<g>
						
							<rect x="369.6" y="110.3" transform="matrix(0.7072 -0.7071 0.7071 0.7072 31.5079 297.7361)" class="st3" width="11.2" height="1"/>
					</g>
					<g>
						<polygon class="st3" points="379.5,115.2 378.8,114.5 386.8,106.5 387.5,107.2 						"/>
					</g>
					<g>
						<polygon class="st3" points="387.6,115.2 386.9,114.5 394.8,106.5 395.5,107.2 						"/>
					</g>
					<g>
						
							<rect x="393.6" y="110.3" transform="matrix(0.7071 -0.7071 0.7071 0.7071 38.5511 314.7322)" class="st3" width="11.2" height="1"/>
					</g>
					<g>
						
							<rect x="401.6" y="110.3" transform="matrix(0.707 -0.7072 0.7072 0.707 40.9359 320.47)" class="st3" width="11.2" height="1"/>
					</g>
					<g>
						
							<rect x="409.6" y="110.3" transform="matrix(0.7053 -0.7089 0.7089 0.7053 43.7902 327.0027)" class="st3" width="11.2" height="1"/>
					</g>
					<g>
						<polygon class="st3" points="419.6,115.2 418.9,114.5 426.9,106.5 427.6,107.2 						"/>
					</g>
					<g>
						
							<rect x="345.6" y="110.3" transform="matrix(0.7071 -0.7072 0.7072 0.7071 24.4759 280.7708)" class="st3" width="11.1" height="1"/>
					</g>
				</g>
			</g>
			<g>
				<g>
					
						<rect x="346.1" y="92.8" transform="matrix(0.9887 -0.1502 0.1502 0.9887 -10.1623 59.0958)" class="st6" width="80.1" height="8"/>
				</g>
				<g>
					<g>
						
							<rect x="352.8" y="100.6" transform="matrix(0.5929 -0.8053 0.8053 0.5929 64.5124 329.754)" class="st3" width="11.2" height="1"/>
					</g>
					<g>
						
							<rect x="360.7" y="99.4" transform="matrix(0.5933 -0.805 0.805 0.5933 68.5661 335.4647)" class="st3" width="11.2" height="1"/>
					</g>
					<g>
						
							<rect x="368.7" y="98.2" transform="matrix(0.5925 -0.8056 0.8056 0.5925 73.0496 341.7206)" class="st3" width="11.2" height="1"/>
					</g>
					<g>
						
							<rect x="376.5" y="97" transform="matrix(0.5907 -0.8069 0.8069 0.5907 77.782 348.2583)" class="st3" width="11.2" height="1"/>
					</g>
					<g>
						
							<rect x="384.5" y="95.7" transform="matrix(0.5934 -0.8049 0.8049 0.5934 81.1557 353.152)" class="st3" width="11.2" height="1"/>
					</g>
					<g>
						<polygon class="st3" points="395.1,99.9 394.3,99.3 400.9,90.2 401.7,90.8 						"/>
					</g>
					<g>
						
							<rect x="400.3" y="93.3" transform="matrix(0.5933 -0.805 0.805 0.5933 89.5718 364.9688)" class="st3" width="11.2" height="1"/>
					</g>
					<g>
						
							<rect x="408.2" y="92.1" transform="matrix(0.5928 -0.8054 0.8054 0.5928 93.9207 371.033)" class="st3" width="11.2" height="1"/>
					</g>
					<g>
						
							<rect x="416.2" y="90.9" transform="matrix(0.5936 -0.8047 0.8047 0.5936 97.8222 376.593)" class="st3" width="11.2" height="1"/>
					</g>
					<g>
						
							<rect x="344.9" y="101.8" transform="matrix(0.5904 -0.8071 0.8071 0.5904 61.0081 324.7881)" class="st3" width="11.1" height="1"/>
					</g>
				</g>
			</g>
			<polygon class="st11" points="345.9,98.9 346.8,106.5 426.3,94.8 424.7,86.6 			"/>
			<polygon class="st11" points="346.8,106.5 347.1,115.2 427.2,115.2 427.2,106.8 			"/>
		</g>
	</g>
</g>
<g>
	<g>
		<g>
			<path d="M43.3,217.7c0-0.1,0.1-0.2,0.2-0.2h6.2c0.1,0,0.2,0.1,0.2,0.2v0.5c0,0.1-0.1,0.2-0.2,0.2h-5.4c-0.1,0-0.1,0-0.1,0.1v3.9
				c0,0.1,0,0.1,0.1,0.1h4.6c0.1,0,0.2,0.1,0.2,0.2v0.5c0,0.1-0.1,0.2-0.2,0.2h-4.6c-0.1,0-0.1,0-0.1,0.1v4c0,0.1,0,0.1,0.1,0.1h5.4
				c0.1,0,0.2,0.1,0.2,0.2v0.5c0,0.1-0.1,0.2-0.2,0.2h-6.2c-0.1,0-0.2-0.1-0.2-0.2V217.7z"/>
			<path d="M59.3,228.5c-0.1,0-0.2,0-0.2-0.1l-2.8-4.7h0l-2.8,4.7c0,0.1-0.1,0.1-0.2,0.1h-0.7c-0.1,0-0.1-0.1-0.1-0.2l3.3-5.5l-3-5
				c-0.1-0.1,0-0.2,0.1-0.2h0.7c0.1,0,0.2,0,0.2,0.1l2.5,4.1h0l2.5-4.1c0.1-0.1,0.1-0.1,0.2-0.1h0.7c0.1,0,0.1,0.1,0.1,0.2l-3,5
				l3.3,5.5c0,0.1,0,0.2-0.1,0.2H59.3z"/>
			<path d="M63.6,228.5c-0.1,0-0.2-0.1-0.2-0.2v-10.6c0-0.1,0.1-0.2,0.2-0.2h3.6c2.1,0,3.3,1.2,3.3,3.1c0,1.9-1.3,3.1-3.3,3.1h-2.8
				c-0.1,0-0.1,0-0.1,0.1v4.5c0,0.1-0.1,0.2-0.2,0.2H63.6z M69.7,220.7c0-1.4-0.9-2.2-2.5-2.2h-2.8c-0.1,0-0.1,0-0.1,0.1v4.2
				c0,0.1,0,0.1,0.1,0.1h2.8C68.8,222.9,69.7,222.1,69.7,220.7z"/>
			<path d="M74.1,217.7c0-0.1,0.1-0.2,0.2-0.2h0.6c0.1,0,0.2,0.1,0.2,0.2v9.8c0,0.1,0,0.1,0.1,0.1h5.4c0.1,0,0.2,0.1,0.2,0.2v0.5
				c0,0.1-0.1,0.2-0.2,0.2h-6.2c-0.1,0-0.2-0.1-0.2-0.2V217.7z"/>
			<path d="M86.7,217.7c0-0.1,0.1-0.2,0.2-0.2h0.6c0.1,0,0.2,0.1,0.2,0.2l3.8,10.6c0,0.1,0,0.2-0.1,0.2h-0.6c-0.1,0-0.2,0-0.2-0.2
				l-1-2.7h-4.7l-1,2.7c0,0.1-0.1,0.2-0.2,0.2H83c-0.1,0-0.1-0.1-0.1-0.2L86.7,217.7z M89.2,224.7l-2-5.7h0l-2,5.7H89.2z"/>
			<path d="M94.7,217.7c0-0.1,0.1-0.2,0.2-0.2h0.6c0.1,0,0.2,0.1,0.2,0.2v10.6c0,0.1-0.1,0.2-0.2,0.2h-0.6c-0.1,0-0.2-0.1-0.2-0.2
				V217.7z"/>
			<path d="M99.9,217.7c0-0.1,0.1-0.2,0.2-0.2h0.6c0.1,0,0.2,0,0.3,0.2l5.4,8.9h0v-8.9c0-0.1,0.1-0.2,0.2-0.2h0.6
				c0.1,0,0.2,0.1,0.2,0.2v10.6c0,0.1-0.1,0.2-0.2,0.2h-0.6c-0.1,0-0.2,0-0.3-0.2l-5.4-9h-0.1v9c0,0.1-0.1,0.2-0.2,0.2H100
				c-0.1,0-0.2-0.1-0.2-0.2V217.7z"/>
			<path d="M111.6,217.7c0-0.1,0.1-0.2,0.2-0.2h6.2c0.1,0,0.2,0.1,0.2,0.2v0.5c0,0.1-0.1,0.2-0.2,0.2h-5.4c-0.1,0-0.1,0-0.1,0.1v3.9
				c0,0.1,0,0.1,0.1,0.1h4.6c0.1,0,0.2,0.1,0.2,0.2v0.5c0,0.1-0.1,0.2-0.2,0.2h-4.6c-0.1,0-0.1,0-0.1,0.1v4c0,0.1,0,0.1,0.1,0.1h5.4
				c0.1,0,0.2,0.1,0.2,0.2v0.5c0,0.1-0.1,0.2-0.2,0.2h-6.2c-0.1,0-0.2-0.1-0.2-0.2V217.7z"/>
			<path d="M128.2,228.5c-0.1,0-0.1,0-0.2-0.1l-2.3-4.7h-0.2h-2.8c-0.1,0-0.1,0-0.1,0.1v4.6c0,0.1-0.1,0.2-0.2,0.2h-0.6
				c-0.1,0-0.2-0.1-0.2-0.2v-10.6c0-0.1,0.1-0.2,0.2-0.2h3.6c2,0,3.3,1.2,3.3,3c0,1.5-0.8,2.5-2.2,2.9l2.4,4.8
				c0.1,0.1,0,0.2-0.1,0.2H128.2z M128,220.6c0-1.4-0.9-2.1-2.4-2.1h-2.8c-0.1,0-0.1,0-0.1,0.1v4.1c0,0.1,0,0.1,0.1,0.1h2.8
				C127.1,222.7,128,222,128,220.6z"/>
			<path d="M140.4,228.5c-0.1,0-0.1-0.1-0.2-0.2l-3.6-10.5c-0.1-0.1,0-0.2,0.1-0.2h0.6c0.1,0,0.2,0,0.2,0.2l3.2,9.2h0l3.1-9.2
				c0-0.1,0.1-0.2,0.2-0.2h0.6c0.1,0,0.2,0.1,0.1,0.2l-3.6,10.5c0,0.1-0.1,0.2-0.2,0.2H140.4z"/>
			<path d="M147.9,217.7c0-0.1,0.1-0.2,0.2-0.2h0.6c0.1,0,0.2,0.1,0.2,0.2v10.6c0,0.1-0.1,0.2-0.2,0.2h-0.6c-0.1,0-0.2-0.1-0.2-0.2
				V217.7z"/>
			<path d="M153.1,217.7c0-0.1,0.1-0.2,0.2-0.2h3.4c1.8,0,3,0.7,3.5,2.2c0.2,0.6,0.3,1.2,0.3,3.2c0,2-0.1,2.6-0.3,3.2
				c-0.5,1.5-1.7,2.2-3.5,2.2h-3.4c-0.1,0-0.2-0.1-0.2-0.2V217.7z M154.1,227.6h2.4c1.4,0,2.3-0.5,2.7-1.6c0.2-0.5,0.3-1.1,0.3-2.9
				c0-1.8-0.1-2.4-0.3-2.9c-0.4-1.2-1.3-1.6-2.7-1.6h-2.4c-0.1,0-0.1,0-0.1,0.1L154.1,227.6C154,227.6,154,227.6,154.1,227.6z"/>
			<path d="M164.3,217.7c0-0.1,0.1-0.2,0.2-0.2h6.2c0.1,0,0.2,0.1,0.2,0.2v0.5c0,0.1-0.1,0.2-0.2,0.2h-5.4c-0.1,0-0.1,0-0.1,0.1v3.9
				c0,0.1,0,0.1,0.1,0.1h4.6c0.1,0,0.2,0.1,0.2,0.2v0.5c0,0.1-0.1,0.2-0.2,0.2h-4.6c-0.1,0-0.1,0-0.1,0.1v4c0,0.1,0,0.1,0.1,0.1h5.4
				c0.1,0,0.2,0.1,0.2,0.2v0.5c0,0.1-0.1,0.2-0.2,0.2h-6.2c-0.1,0-0.2-0.1-0.2-0.2V217.7z"/>
			<path d="M174.3,226.2c-0.2-0.6-0.3-1.3-0.3-3.2c0-1.9,0.1-2.6,0.3-3.2c0.5-1.6,1.7-2.4,3.5-2.4c1.8,0,3,0.8,3.5,2.4
				c0.2,0.6,0.3,1.3,0.3,3.2c0,1.9-0.1,2.6-0.3,3.2c-0.5,1.6-1.7,2.4-3.5,2.4C176.1,228.6,174.9,227.8,174.3,226.2z M180.5,220.1
				c-0.4-1.2-1.3-1.8-2.6-1.8c-1.4,0-2.2,0.6-2.6,1.8c-0.1,0.4-0.3,1.1-0.3,2.9c0,1.8,0.1,2.5,0.3,2.9c0.4,1.2,1.3,1.8,2.6,1.8
				c1.3,0,2.2-0.6,2.6-1.8c0.1-0.4,0.3-1.1,0.3-2.9C180.7,221.3,180.6,220.6,180.5,220.1z"/>
			<path d="M65.7,250.2c-0.1,0-0.2-0.1-0.2-0.2v-10.6c0-0.1,0.1-0.2,0.2-0.2h3.6c2.1,0,3.3,1.2,3.3,3.1c0,1.9-1.3,3.1-3.3,3.1h-2.8
				c-0.1,0-0.1,0-0.1,0.1v4.5c0,0.1-0.1,0.2-0.2,0.2H65.7z M71.8,242.4c0-1.4-0.9-2.2-2.5-2.2h-2.8c-0.1,0-0.1,0-0.1,0.1v4.2
				c0,0.1,0,0.1,0.1,0.1h2.8C70.9,244.6,71.8,243.8,71.8,242.4z"/>
			<path d="M82.6,250.2c-0.1,0-0.1,0-0.2-0.1l-2.3-4.7H80h-2.8c-0.1,0-0.1,0-0.1,0.1v4.6c0,0.1-0.1,0.2-0.2,0.2h-0.6
				c-0.1,0-0.2-0.1-0.2-0.2v-10.6c0-0.1,0.1-0.2,0.2-0.2H80c2,0,3.3,1.2,3.3,3c0,1.5-0.8,2.5-2.2,2.9l2.4,4.8c0.1,0.1,0,0.2-0.1,0.2
				H82.6z M82.4,242.3c0-1.4-0.9-2.1-2.4-2.1h-2.8c-0.1,0-0.1,0-0.1,0.1v4.1c0,0.1,0,0.1,0.1,0.1H80
				C81.5,244.5,82.4,243.7,82.4,242.3z"/>
			<path d="M87.2,247.9c-0.2-0.6-0.3-1.3-0.3-3.2s0.1-2.6,0.3-3.2c0.5-1.6,1.7-2.4,3.5-2.4c1.8,0,3,0.8,3.5,2.4
				c0.2,0.6,0.3,1.3,0.3,3.2s-0.1,2.6-0.3,3.2c-0.5,1.6-1.7,2.4-3.5,2.4C88.9,250.4,87.7,249.5,87.2,247.9z M93.3,241.9
				c-0.4-1.2-1.3-1.8-2.6-1.8c-1.4,0-2.2,0.6-2.6,1.8c-0.1,0.4-0.3,1.1-0.3,2.9s0.1,2.5,0.3,2.9c0.4,1.2,1.3,1.8,2.6,1.8
				c1.3,0,2.2-0.6,2.6-1.8c0.1-0.4,0.3-1.1,0.3-2.9S93.4,242.3,93.3,241.9z"/>
			<path d="M98.3,239.5c0-0.1,0.1-0.2,0.2-0.2h3.4c1.8,0,3,0.7,3.5,2.2c0.2,0.6,0.3,1.2,0.3,3.2c0,2-0.1,2.6-0.3,3.2
				c-0.5,1.5-1.7,2.2-3.5,2.2h-3.4c-0.1,0-0.2-0.1-0.2-0.2V239.5z M99.3,249.3h2.4c1.4,0,2.3-0.5,2.7-1.6c0.2-0.5,0.3-1.1,0.3-2.9
				c0-1.8-0.1-2.4-0.3-2.9c-0.4-1.2-1.3-1.6-2.7-1.6h-2.4c-0.1,0-0.1,0-0.1,0.1L99.3,249.3C99.2,249.3,99.3,249.3,99.3,249.3z"/>
			<path d="M110.3,246.5c0,2,1,3,2.8,3c1.7,0,2.8-1,2.8-3v-7c0-0.1,0.1-0.2,0.2-0.2h0.6c0.1,0,0.2,0.1,0.2,0.2v7
				c0,2.7-1.4,3.9-3.7,3.9c-2.2,0-3.7-1.3-3.7-3.9v-7c0-0.1,0.1-0.2,0.2-0.2h0.6c0.1,0,0.2,0.1,0.2,0.2V246.5z"/>
			<path d="M120.5,244.8c0-1.9,0.1-2.6,0.3-3.2c0.5-1.6,1.7-2.4,3.4-2.4c1.5,0,2.7,0.7,3.3,2c0,0.1,0,0.2,0,0.2l-0.5,0.3
				c-0.1,0-0.2,0-0.2-0.1c-0.5-0.9-1.3-1.6-2.5-1.6c-1.3,0-2.1,0.6-2.6,1.8c-0.1,0.4-0.2,1.1-0.2,2.9c0,1.8,0.1,2.5,0.2,2.9
				c0.4,1.2,1.2,1.8,2.6,1.8c1.2,0,2-0.6,2.5-1.6c0-0.1,0.1-0.1,0.2-0.1l0.5,0.3c0.1,0,0.1,0.1,0,0.2c-0.6,1.3-1.8,2-3.3,2
				c-1.7,0-2.9-0.8-3.4-2.4C120.6,247.4,120.5,246.7,120.5,244.8z"/>
			<path d="M133.2,250.2c-0.1,0-0.2-0.1-0.2-0.2v-9.8c0-0.1,0-0.1-0.1-0.1h-3.1c-0.1,0-0.2-0.1-0.2-0.2v-0.5c0-0.1,0.1-0.2,0.2-0.2
				h7.4c0.1,0,0.2,0.1,0.2,0.2v0.5c0,0.1-0.1,0.2-0.2,0.2h-3.1c-0.1,0-0.1,0-0.1,0.1v9.8c0,0.1-0.1,0.2-0.2,0.2H133.2z"/>
			<path d="M140.5,239.5c0-0.1,0.1-0.2,0.2-0.2h0.6c0.1,0,0.2,0.1,0.2,0.2V250c0,0.1-0.1,0.2-0.2,0.2h-0.6c-0.1,0-0.2-0.1-0.2-0.2
				V239.5z"/>
			<path d="M145.6,247.9c-0.2-0.6-0.3-1.3-0.3-3.2s0.1-2.6,0.3-3.2c0.5-1.6,1.7-2.4,3.5-2.4c1.8,0,3,0.8,3.5,2.4
				c0.2,0.6,0.3,1.3,0.3,3.2s-0.1,2.6-0.3,3.2c-0.5,1.6-1.7,2.4-3.5,2.4C147.3,250.4,146.1,249.5,145.6,247.9z M151.7,241.9
				c-0.4-1.2-1.3-1.8-2.6-1.8c-1.4,0-2.2,0.6-2.6,1.8c-0.1,0.4-0.3,1.1-0.3,2.9s0.1,2.5,0.3,2.9c0.4,1.2,1.3,1.8,2.6,1.8
				c1.3,0,2.2-0.6,2.6-1.8c0.1-0.4,0.3-1.1,0.3-2.9S151.9,242.3,151.7,241.9z"/>
			<path d="M156.8,239.5c0-0.1,0.1-0.2,0.2-0.2h0.6c0.1,0,0.2,0,0.3,0.2l5.4,8.9h0v-8.9c0-0.1,0.1-0.2,0.2-0.2h0.6
				c0.1,0,0.2,0.1,0.2,0.2V250c0,0.1-0.1,0.2-0.2,0.2h-0.6c-0.1,0-0.2,0-0.3-0.2l-5.4-9h-0.1v9c0,0.1-0.1,0.2-0.2,0.2h-0.6
				c-0.1,0-0.2-0.1-0.2-0.2V239.5z"/>
		</g>
	</g>
	<g>
		<g>
			<g>
				<path class="st8" d="M97.6,59.7c0-11.2,0-33.5,0-33.5H41.8v33.5c0,0,0,11.2,11.2,11.2c17,0,55.9,0,55.9,0S97.6,70.9,97.6,59.7z"
					/>
			</g>
			<g>
				<path d="M114.4,71.6h-5.6c-0.1,0-11.9-0.1-11.9-11.9V25.5h7v34.2c0,10.3,10,10.5,10.5,10.5V71.6z M98.3,26.9v32.8
					c0,9.9,9.1,10.4,10.4,10.5c-3-1.5-6.2-4.4-6.2-10.5V26.9H98.3z"/>
			</g>
			<g>
				<path class="st9" d="M120,59.7c0-11.2,11.2-11.2,11.2-11.2H75.3c0,0-11.2,0-11.2,11.2c0,11.2-11.2,11.2-11.2,11.2l56,0.1
					C110.3,70.9,120,70.1,120,59.7z"/>
			</g>
			<g>
				<path class="st8" d="M131.1,48.5c-8.9,0-42.4,0-55.9,0c0,0,11.2,0,11.2,11.2c0,11.2,0,55.9,0,55.9l55.9,0V59.7
					C142.3,59.7,142.3,48.5,131.1,48.5z"/>
			</g>
			<g>
				<rect x="41.8" y="30.7" class="st3" width="55.2" height="1.4"/>
			</g>
			<g>
				<rect x="86.3" y="64.6" class="st3" width="56.2" height="1.4"/>
			</g>
			<g>
				<rect x="86.3" y="86.8" class="st3" width="56.2" height="1.4"/>
			</g>
			<g>
				<rect x="86.3" y="109.3" class="st3" width="56.2" height="1.4"/>
			</g>
			<g>
				<rect x="41.8" y="53.4" class="st3" width="18" height="1.4"/>
			</g>
			<g>
				<path d="M52.9,71.6h-5.6c-11.7,0-11.9-11.8-11.9-11.9V25.5h7v34.2c0,0.4,0.1,10.5,10.5,10.5V71.6z M36.9,26.9v32.8
					c0,0.4,0.1,10.1,10,10.5c-5.7-3.1-5.8-10.4-5.8-10.5V26.9H36.9z"/>
			</g>
			<g>
				<rect x="72.5" y="47.8" width="58.7" height="1.4"/>
			</g>
			<g>
				<path d="M87.1,116.3h-7V59.7c0-10.4-10-10.5-10.5-10.5v-1.4h5.6c0.1,0,11.9,0.1,11.9,11.9V116.3z M81.5,114.9h4.2V59.7
					c0-9.9-9.1-10.4-10.4-10.5c3,1.5,6.2,4.4,6.2,10.5V114.9z"/>
			</g>
			<g>
				<path d="M148.6,116.3h-7l0-56.6c0-0.4-0.1-10.5-10.5-10.5v-1.4h5.6c11.7,0,11.9,11.8,11.9,11.9V116.3z M143,114.9h4.2V59.7
					c0-0.4-0.1-10.1-10-10.5c5.7,3.1,5.8,10.4,5.8,10.5V114.9z"/>
			</g>
			<g>
				<path d="M52.9,71.6v-1.3c-2.8,1.3-5.5,1.3-5.6,1.3v-1.4c0.4,0,10.5-0.1,10.5-10.5c0-11.7,11.8-11.9,11.9-11.9h5.6v1.4
					c-0.4,0-10.5,0.1-10.5,10.5C64.8,71.4,53,71.6,52.9,71.6z M69.6,49.2c-1.2,0-10.4,0.6-10.4,10.5c0,6-3.1,9-6.2,10.5
					c1.2,0,10.4-0.6,10.4-10.5C63.4,53.7,66.5,50.7,69.6,49.2z"/>
			</g>
		</g>
		<g>
			<g>
				<rect x="115.1" y="115.2" class="st10" width="80.1" height="52.1"/>
			</g>
			<path class="st9" d="M119.2,119.9v42.7h72.5v-42.7H119.2z"/>
			<polygon class="st3" points="151.1,146.2 151.1,136.3 159.8,141.1 			"/>
			<g>
				<g>
					<rect x="115.1" y="106.8" class="st9" width="80.1" height="8"/>
				</g>
				<g>
					<g>
						<polygon class="st3" points="123.4,115.2 122.7,114.5 130.7,106.5 131.4,107.2 						"/>
					</g>
					<g>
						<polygon class="st3" points="131.4,115.2 130.7,114.5 138.7,106.5 139.4,107.2 						"/>
					</g>
					<g>
						
							<rect x="137.5" y="110.3" transform="matrix(0.7072 -0.7071 0.7071 0.7072 -36.4498 133.6552)" class="st3" width="11.2" height="1"/>
					</g>
					<g>
						<polygon class="st3" points="147.5,115.2 146.8,114.5 154.7,106.5 155.4,107.2 						"/>
					</g>
					<g>
						<polygon class="st3" points="155.5,115.2 154.8,114.5 162.8,106.5 163.5,107.2 						"/>
					</g>
					<g>
						
							<rect x="161.5" y="110.3" transform="matrix(0.7071 -0.7071 0.7071 0.7071 -29.4183 150.6397)" class="st3" width="11.2" height="1"/>
					</g>
					<g>
						
							<rect x="169.5" y="110.3" transform="matrix(0.707 -0.7072 0.7072 0.707 -27.0566 156.3544)" class="st3" width="11.2" height="1"/>
					</g>
					<g>
						
							<rect x="177.5" y="110.3" transform="matrix(0.7053 -0.7089 0.7089 0.7053 -24.5957 162.4946)" class="st3" width="11.2" height="1"/>
					</g>
					<g>
						<polygon class="st3" points="187.6,115.2 186.9,114.5 194.8,106.5 195.5,107.2 						"/>
					</g>
					<g>
						
							<rect x="113.5" y="110.3" transform="matrix(0.7071 -0.7072 0.7072 0.7071 -43.5041 116.6676)" class="st3" width="11.1" height="1"/>
					</g>
				</g>
			</g>
			<g>
				<g>
					
						<rect x="114" y="92.8" transform="matrix(0.9887 -0.1502 0.1502 0.9887 -12.7948 24.2406)" class="st9" width="80.1" height="8"/>
				</g>
				<g>
					<g>
						
							<rect x="120.7" y="100.6" transform="matrix(0.5929 -0.8053 0.8053 0.5929 -29.9612 142.8793)" class="st3" width="11.2" height="1"/>
					</g>
					<g>
						
							<rect x="128.6" y="99.4" transform="matrix(0.5933 -0.805 0.805 0.5933 -25.8109 148.661)" class="st3" width="11.2" height="1"/>
					</g>
					<g>
						
							<rect x="136.6" y="98.2" transform="matrix(0.5925 -0.8056 0.8056 0.5925 -21.5216 154.774)" class="st3" width="11.2" height="1"/>
					</g>
					<g>
						
							<rect x="144.5" y="97" transform="matrix(0.5907 -0.8069 0.8069 0.5907 -17.2011 161.0096)" class="st3" width="11.2" height="1"/>
					</g>
					<g>
						
							<rect x="152.4" y="95.7" transform="matrix(0.5934 -0.8049 0.8049 0.5934 -13.2054 166.3602)" class="st3" width="11.2" height="1"/>
					</g>
					<g>
						<polygon class="st3" points="163,99.9 162.2,99.3 168.9,90.2 169.7,90.8 						"/>
					</g>
					<g>
						
							<rect x="168.3" y="93.3" transform="matrix(0.5933 -0.805 0.805 0.5933 -4.8153 178.1577)" class="st3" width="11.2" height="1"/>
					</g>
					<g>
						
							<rect x="176.2" y="92.1" transform="matrix(0.5928 -0.8054 0.8054 0.5928 -0.5842 184.1352)" class="st3" width="11.2" height="1"/>
					</g>
					<g>
						
							<rect x="184.1" y="90.9" transform="matrix(0.5936 -0.8047 0.8047 0.5936 3.5209 189.8452)" class="st3" width="11.2" height="1"/>
					</g>
					<g>
						
							<rect x="112.9" y="101.8" transform="matrix(0.5904 -0.8071 0.8071 0.5904 -34.0475 137.4861)" class="st3" width="11.1" height="1"/>
					</g>
				</g>
			</g>
			<polygon class="st11" points="113.9,98.9 114.7,106.5 194.3,94.8 192.7,86.6 			"/>
			<polygon class="st11" points="114.7,106.5 115.1,115.2 195.2,115.2 195.2,106.8 			"/>
		</g>
	</g>
</g>
</svg>
