<?xml version="1.0" encoding="utf-8"?>
<!-- Generator: Adobe Illustrator 20.0.0, SVG Export Plug-In . SVG Version: 6.00 Build 0)  -->
<svg version="1.1" id="Layer_1" xmlns="http://www.w3.org/2000/svg" xmlns:xlink="http://www.w3.org/1999/xlink" x="0px" y="0px"
	 viewBox="0 0 110 95" style="enable-background:new 0 0 110 95;" xml:space="preserve">
<style type="text/css">
	.st0{fill:#F15B4A;}
	.st1{clip-path:url(#SVGID_2_);}
	.st2{fill:#FCF7E9;}
	.st3{fill:#C7C4BC;}
	.st4{clip-path:url(#SVGID_4_);}
	.st5{fill:#FFFFFF;}
	.st6{fill:#EDC393;}
	.st7{fill:#B1B3B6;}
	.st8{fill:#333132;}
	.st9{fill:#4F341A;}
	.st10{fill:#2A160C;}
	.st11{fill:#452B13;}
	.st12{fill:#4D4E4A;}
	.st13{fill:#3E3B3A;}
	.st14{opacity:0.5;fill:#8F8C86;}
	.st15{opacity:0.5;clip-path:url(#SVGID_6_);fill:#8F8C86;}
	.st16{fill:#F37223;}
	.st17{fill:#BF5A28;}
	.st18{fill:#DAB17C;}
	.st19{fill:#F89420;}
	.st20{fill:url(#SVGID_7_);}
	.st21{fill:#FDBE14;}
	.st22{fill:#F2F2F2;}
	.st23{clip-path:url(#SVGID_9_);}
	.st24{fill:#06BDCD;}
	.st25{opacity:0.5;clip-path:url(#SVGID_9_);}
	.st26{fill:#8F8C86;}
	.st27{fill:#79BEC0;}
	.st28{opacity:0.5;fill:#FFFFFF;}
	.st29{clip-path:url(#SVGID_11_);}
	.st30{fill:#C5DA4E;}
	.st31{fill:#A3BD3D;}
	.st32{fill:#6AB352;}
	.st33{fill:#5A462C;}
	.st34{fill:#D4E172;}
	.st35{fill:#ECEC83;}
	.st36{fill:#C2E1F1;}
	.st37{fill:#8BA3B0;}
	.st38{fill:#8FC640;}
	.st39{fill:#72A441;}
	.st40{fill:#976339;}
	.st41{fill:#7A4F2A;}
	
		.st42{fill:none;stroke:#FFFFFF;stroke-width:0.771;stroke-linecap:round;stroke-linejoin:round;stroke-miterlimit:10;stroke-dasharray:4.6259;}
	
		.st43{fill:none;stroke:#FFFFFF;stroke-width:0.6936;stroke-linecap:round;stroke-linejoin:round;stroke-miterlimit:10;stroke-dasharray:4.1616;}
	.st44{fill:#D46528;}
	.st45{fill:#F3F1E6;}
	.st46{fill:#D4D2C3;}
	.st47{fill:none;stroke:#79BEC0;stroke-width:1.2825;stroke-miterlimit:10;}
	.st48{fill:none;stroke:#F15B4A;stroke-miterlimit:10;}
	.st49{fill:none;stroke:#F15B4A;stroke-width:2;stroke-linecap:round;stroke-linejoin:round;stroke-miterlimit:10;}
	.st50{fill:#FFFFFF;stroke:#F15B4A;stroke-miterlimit:10;}
	.st51{fill:#F15B4A;stroke:#F15B4A;stroke-miterlimit:10;}
	.st52{fill:#FBAA19;}
	.st53{fill:none;stroke:url(#);stroke-width:0.6902;stroke-miterlimit:10;}
	.st54{fill:#FFFFFF;stroke:url(#);stroke-width:0.6902;stroke-miterlimit:10;}
	.st55{fill:url(#);}
	.st56{fill:#FFFFFF;stroke:#FFFFFF;stroke-width:0.6902;stroke-miterlimit:10;}
	.st57{fill:none;stroke:#79BEC0;stroke-width:2.3005;stroke-miterlimit:10;}
	.st58{fill:none;stroke:url(#);stroke-width:0.4601;stroke-miterlimit:10;}
	.st59{fill:#E5EFF5;}
	.st60{fill:#221F1F;}
	.st61{fill:#0A3655;}
	.st62{clip-path:url(#SVGID_18_);}
	.st63{fill:#4BC3C9;}
	.st64{fill:#231F20;}
	.st65{fill:#EBE70E;}
	.st66{fill:#DD1D4F;}
	.st67{fill:none;stroke:#231F20;stroke-width:0.9625;stroke-linecap:round;stroke-linejoin:round;stroke-miterlimit:10;}
	.st68{fill:none;stroke:#221F1F;stroke-width:0.8028;stroke-miterlimit:10;}
	.st69{fill:#F6E830;}
	.st70{fill:none;stroke:#221F1F;stroke-width:0.8692;stroke-miterlimit:10;}
	.st71{fill:#FFFFFF;stroke:#221F1F;stroke-width:0.8566;stroke-miterlimit:10;}
	.st72{fill:none;stroke:#221F1F;stroke-width:0.8566;stroke-miterlimit:10;}
	.st73{fill:none;stroke:url(#);stroke-width:0.7698;stroke-miterlimit:10;}
	.st74{fill:#EEE809;}
	.st75{fill:#94D9F8;}
	.st76{fill:#211E1F;}
	.st77{fill:#F7941F;}
	.st78{fill:#47B77B;}
	.st79{fill:#F5EB0E;}
	.st80{fill:none;stroke:url(#);stroke-miterlimit:10;}
	.st81{fill:#F7941D;}
	.st82{fill:#45B97C;}
	.st83{fill:none;stroke:#010101;stroke-miterlimit:10;}
	.st84{fill:#010101;}
</style>
<g>
	<polygon class="st81" points="43,76.3 66.8,84.8 66.8,17.5 43,9 	"/>
	<polygon class="st81" points="38.4,76.3 14.7,84.8 14.7,17.5 38.4,9 	"/>
	<polygon class="st82" points="38.4,40 14.7,48.4 14.7,17.5 38.4,9 	"/>
	<g>
		<g>
			<polygon class="st84" points="34.2,22 24.1,25.6 24.1,26.2 34.2,22.7 			"/>
		</g>
		<g>
			<polygon class="st84" points="34.2,26.6 24.1,30.2 24.1,30.8 34.2,27.3 			"/>
		</g>
		<g>
			<polygon class="st84" points="34.2,31.2 24.1,34.8 24.1,35.4 34.2,31.9 			"/>
		</g>
	</g>
	<polygon class="st81" points="92.6,76.3 68.9,84.8 68.9,17.5 92.6,9 	"/>
	<polygon class="st82" points="92.6,76.3 68.9,84.8 68.9,46.9 92.6,55.6 	"/>
	<polygon class="st83" points="17.4,18.7 17.4,49.6 17.4,86 41.1,77.5 41.1,41.2 41.1,10.2 	"/>
	<polygon class="st83" points="71.6,18.7 71.6,48.1 71.6,86 95.3,77.5 95.3,56.8 95.3,10.2 	"/>
	<g>
		<polygon class="st5" points="88.4,23.5 78.3,27.1 78.3,27.7 88.4,24.1 		"/>
		<g>
			<polygon class="st5" points="88.4,28.1 78.3,31.7 78.3,32.3 88.4,28.7 			"/>
		</g>
		<g>
			<polygon class="st5" points="88.4,32.7 78.3,36.3 78.3,36.9 88.4,33.3 			"/>
		</g>
	</g>
	<polygon class="st82" points="33.2,70.7 23.1,74.3 23.1,54.1 33.2,50.5 	"/>
	<polygon class="st5" points="50.1,24.7 60.2,28.3 60.2,28.9 50.1,25.3 	"/>
	<g>
		<polygon class="st5" points="50.1,29.3 60.2,32.9 60.2,33.5 50.1,29.9 		"/>
	</g>
	<g>
		<polygon class="st5" points="50.1,33.9 60.2,37.5 60.2,38.1 50.1,34.5 		"/>
	</g>
	<polygon class="st5" points="50.1,39.2 60.2,42.7 60.2,43.4 50.1,39.8 	"/>
	<polygon class="st82" points="60.6,60.5 50.2,56.8 50.2,47.8 60.6,51.5 	"/>
	<polygon class="st82" points="60.6,72.7 50.2,69 50.2,60 60.6,63.7 	"/>
	<g>
		<polygon class="st84" points="83.5,60.9 87.6,59.5 87.6,63.8 88.5,64.5 88.5,58.2 82.7,60.3 		"/>
		<polygon class="st84" points="82.4,74.5 79.1,75.6 79.1,72.1 78.2,71.5 78.2,76.9 83.2,75.1 		"/>
	</g>
</g>
</svg>
