<?xml version="1.0" encoding="utf-8"?>
<!-- Generator: Adobe Illustrator 20.0.0, SVG Export Plug-In . SVG Version: 6.00 Build 0)  -->
<svg version="1.1" id="Layer_1" xmlns="http://www.w3.org/2000/svg" xmlns:xlink="http://www.w3.org/1999/xlink" x="0px" y="0px"
	 viewBox="0 0 90 80" style="enable-background:new 0 0 90 80;" xml:space="preserve">
<style type="text/css">
	.st0{fill:#F15B4A;}
	.st1{clip-path:url(#SVGID_2_);}
	.st2{fill:#FCF7E9;}
	.st3{fill:#C7C4BC;}
	.st4{clip-path:url(#SVGID_4_);}
	.st5{fill:#FFFFFF;}
	.st6{fill:#EDC393;}
	.st7{fill:#B1B3B6;}
	.st8{fill:#333132;}
	.st9{fill:#4F341A;}
	.st10{fill:#2A160C;}
	.st11{fill:#452B13;}
	.st12{fill:#4D4E4A;}
	.st13{fill:#3E3B3A;}
	.st14{opacity:0.5;fill:#8F8C86;}
	.st15{opacity:0.5;clip-path:url(#SVGID_6_);fill:#8F8C86;}
	.st16{fill:#F37223;}
	.st17{fill:#BF5A28;}
	.st18{fill:#DAB17C;}
	.st19{fill:#F89420;}
	.st20{fill:url(#SVGID_7_);}
	.st21{fill:#FDBE14;}
	.st22{fill:#F2F2F2;}
	.st23{clip-path:url(#SVGID_9_);}
	.st24{fill:#06BDCD;}
	.st25{opacity:0.5;clip-path:url(#SVGID_9_);}
	.st26{fill:#8F8C86;}
	.st27{fill:#79BEC0;}
	.st28{opacity:0.5;fill:#FFFFFF;}
	.st29{clip-path:url(#SVGID_11_);}
	.st30{fill:#C5DA4E;}
	.st31{fill:#A3BD3D;}
	.st32{fill:#6AB352;}
	.st33{fill:#5A462C;}
	.st34{fill:#D4E172;}
	.st35{fill:#ECEC83;}
	.st36{fill:#C2E1F1;}
	.st37{fill:#8BA3B0;}
	.st38{fill:#8FC640;}
	.st39{fill:#72A441;}
	.st40{fill:#976339;}
	.st41{fill:#7A4F2A;}
	
		.st42{fill:none;stroke:#FFFFFF;stroke-width:0.771;stroke-linecap:round;stroke-linejoin:round;stroke-miterlimit:10;stroke-dasharray:4.6259;}
	
		.st43{fill:none;stroke:#FFFFFF;stroke-width:0.6936;stroke-linecap:round;stroke-linejoin:round;stroke-miterlimit:10;stroke-dasharray:4.1616;}
	.st44{fill:#D46528;}
	.st45{fill:#F3F1E6;}
	.st46{fill:#D4D2C3;}
	.st47{clip-path:url(#SVGID_25_);}
	.st48{fill:#EEE809;}
	.st49{fill:#94D9F8;}
	.st50{fill:#211E1F;}
	.st51{fill:#231F20;}
	.st52{fill:#F7941F;}
	.st53{fill:#47B77B;}
	.st54{fill:#221F1F;}
	.st55{fill:#F5EB0E;}
	.st56{fill:#EBE70E;}
	.st57{fill:url(#);}
	.st58{fill:none;stroke:url(#);stroke-miterlimit:10;}
	.st59{fill:#F7941D;}
	.st60{fill:#45B97C;}
	.st61{fill:none;stroke:#010101;stroke-miterlimit:10;}
	.st62{fill:#010101;}
	.st63{fill:#4BC3C9;}
	.st64{fill:#DD1D4F;}
	.st65{fill:none;stroke:#231F20;stroke-width:0.9625;stroke-linecap:round;stroke-linejoin:round;stroke-miterlimit:10;}
	.st66{fill:none;stroke:url(#);stroke-width:0.6902;stroke-miterlimit:10;}
	.st67{fill:#FBAA19;}
	.st68{fill:none;stroke:#221F1F;stroke-width:0.8692;stroke-miterlimit:10;}
	.st69{fill:none;stroke:#221F1F;stroke-width:0.8566;stroke-miterlimit:10;}
	.st70{fill:none;stroke:url(#);stroke-width:0.7698;stroke-miterlimit:10;}
	.st71{fill:none;stroke:#221F1F;stroke-width:0.8028;stroke-miterlimit:10;}
	.st72{fill:#FFFFFF;stroke:url(#);stroke-width:0.6902;stroke-miterlimit:10;}
	.st73{fill:none;stroke:url(#);stroke-width:0.4601;stroke-miterlimit:10;}
	.st74{fill:none;stroke:#79BEC0;stroke-width:2.3005;stroke-miterlimit:10;}
	.st75{fill:#C9E9E6;}
	.st76{fill:#E5EFF5;}
	.st77{fill:#0A3655;}
	.st78{fill:none;stroke:#79BEC0;stroke-width:1.2825;stroke-miterlimit:10;}
	.st79{fill:none;stroke:#F15B4A;stroke-miterlimit:10;}
	.st80{fill:none;stroke:#F15B4A;stroke-width:2;stroke-linecap:round;stroke-linejoin:round;stroke-miterlimit:10;}
	.st81{fill:#FFFFFF;stroke:#F15B4A;stroke-miterlimit:10;}
</style>
<g>
	<path class="st64" d="M59.2,64c0,0.8-0.9,1.4-1.9,1.4H38.2c-1.1,0-1.9-0.6-1.9-1.4c0-0.8,0.9-1.4,1.9-1.4h19.1
		C58.3,62.6,59.2,63.2,59.2,64L59.2,64z"/>
	<path class="st64" d="M59.2,67.9c0,0.8-0.9,1.4-1.9,1.4H38.2c-1.1,0-1.9-0.6-1.9-1.4c0-0.8,0.9-1.4,1.9-1.4h19.1
		C58.3,66.5,59.2,67.1,59.2,67.9L59.2,67.9z"/>
	<path class="st64" d="M59.2,71.7c0,0.8-0.9,1.4-1.9,1.4H38.2c-1.1,0-1.9-0.6-1.9-1.4s0.9-1.4,1.9-1.4h19.1
		C58.3,70.3,59.2,70.9,59.2,71.7L59.2,71.7z"/>
	<g>
		<path class="st63" d="M46.7,3.4c-8.5,0-16,4.5-20.2,11.3c1.7-0.6,3.6-0.9,5.6-0.9c9.5,0,17.2,7.7,17.2,17.2S41.6,48,32.1,48
			c-0.5,0-0.9,0-1.4-0.1c2.3,3.6,4.4,7.4,4.6,12.4h22.9c0.2-5.7,3-9.9,5.6-14.1c3.2-5,6.6-10.2,6.6-19.3C70.4,14,59.8,3.4,46.7,3.4z
			"/>
	</g>
	<path class="st64" d="M52.1,77.1h-8.7c-0.5,0-1-0.4-1-1v-1c0-0.5,0.4-1,1-1h8.7c0.5,0,1,0.4,1,1v1C53,76.7,52.6,77.1,52.1,77.1z"/>
	<g>
		<path class="st71" d="M34,47.9c2.1,3.4,3.9,7,4.1,11.6h22.7c0.2-5.7,3-9.9,5.6-14c3.2-5,6.5-10.1,6.5-19.2
			c0-13-10.6-23.5-23.5-23.5c-8.4,0-15.8,4.4-20,11.1"/>
	</g>
	<path class="st64" d="M32.1,15.8c-8.3,0-15.1,6.8-15.1,15.1S23.8,46,32.1,46s15.1-6.8,15.1-15.1S40.5,15.8,32.1,15.8z M39.3,32.1
		l-9,6.2c-0.2,0.2-0.5,0.3-0.8,0.3c-0.2,0-0.5-0.1-0.7-0.2c-0.5-0.3-0.8-0.8-0.8-1.3V24.7c0-0.5,0.3-1,0.8-1.3
		c0.5-0.3,1.1-0.2,1.5,0.1l9,6.2c0.4,0.3,0.6,0.7,0.6,1.2S39.7,31.8,39.3,32.1z"/>
</g>
</svg>
