<?xml version="1.0" encoding="utf-8"?>
<!-- Generator: Adobe Illustrator 19.2.1, SVG Export Plug-In . SVG Version: 6.00 Build 0)  -->
<svg version="1.1" id="Layer_1" xmlns="http://www.w3.org/2000/svg" xmlns:xlink="http://www.w3.org/1999/xlink" x="0px" y="0px"
	 viewBox="0 0 79.4 79.4" style="enable-background:new 0 0 79.4 79.4;" xml:space="preserve">
<style type="text/css">
	.st0{fill:none;stroke:#231F20;stroke-width:0.6902;stroke-miterlimit:10;}
	.st1{fill:#FBAA19;}
</style>
<g>
	<g>
		<line class="st0" x1="34.7" y1="3.9" x2="34.7" y2="8.5"/>
		<line class="st0" x1="25.5" y1="8.1" x2="28.7" y2="11.3"/>
		<line class="st0" x1="22" y1="17.5" x2="26.5" y2="17.5"/>
		<line class="st0" x1="26.2" y1="26.6" x2="29.4" y2="23.4"/>
		<line class="st0" x1="35.6" y1="30.1" x2="35.6" y2="25.6"/>
		<line class="st0" x1="44.7" y1="26" x2="41.5" y2="22.8"/>
		<line class="st0" x1="48.2" y1="16.6" x2="43.7" y2="16.6"/>
		<line class="st0" x1="44.1" y1="7.5" x2="40.9" y2="10.7"/>
	</g>
	<g>
		<path class="st1" d="M40.7,45.3c0-3.8,0-7.6,0-11.4c0-1.7,1.1-3.1,2.7-3.5c1.8-0.4,3.6,0.3,4.3,1.9c0.2,0.5,0.3,1,0.3,1.5
			c0,3.8,0,7.7,0,11.5c0-3.3,0-6.7,0-10c0-1.9,1.4-3.3,3.5-3.5c1.7-0.2,3.7,0.9,4.1,2.7c0.1,0.3,0.1,0.6,0.1,0.9c0,3.3,0,6.6,0,9.9
			c0-2.3,0-4.5,0-6.7c0-1.7,1.2-3.2,3.2-3.5c1.1-0.1,2,0.1,2.9,0.7c0.8,0.6,1.3,1.5,1.3,2.6c0,6.2,0,12.4,0,18.5
			c0,3.1-1.1,5.8-2.9,8.2c-1.4,1.9-2.4,3.9-2.8,6.3c-0.1,0.8-0.2,1.5-0.2,2.3c0,1.2,0,2.4,0,3.7c-7.4,0-14.6,0-22,0
			c0-0.2,0-0.4,0-0.6c0-1.4,0.1-2.7-0.1-4.1c-0.2-2.1-1.3-3.7-3-4.9c-2.7-2-4.8-4.4-6.1-7.5c-0.9-2.1-1.3-4.2-1.3-6.4
			c0-0.9,0-1.8-0.1-2.6c-0.4-2-1.7-3.2-3.5-3.9c-3.7-2.3-1.2-5.3,0.3-6c5.2-2.2,11.9,3.9,11.9,8.1V49c0-9,0-18,0-27c0-2,1-3.3,3-3.7
			c2.4-0.4,4.5,1.3,4.5,3.6C40.7,29.7,40.8,37.5,40.7,45.3"/>
	</g>
	<g>
		<path class="st0" d="M54.7,43.3c0-2.3,0-4.5,0-6.7c0-1.7,1.2-3.2,3.2-3.5c1.1-0.1,2,0.1,2.9,0.7c0.8,0.6,1.3,1.5,1.3,2.6
			c0,6.2,0,12.4,0,18.5c0,3.1-1.1,5.8-2.9,8.2c-1.4,1.9-2.4,3.9-2.8,6.3c-0.1,0.8-0.2,1.5-0.2,2.3c0,1.2,0,2.4,0,3.7
			c-7.4,0-14.6,0-22,0c0-0.2,0-0.4,0-0.6c0-1.4,0.1-2.7-0.1-4.1c-0.2-2.1-1.3-3.7-3-4.9c-2.7-2-4.8-4.4-6.1-7.5
			c-0.9-2.1-1.3-4.2-1.3-6.4c0-0.9,0-1.8-0.1-2.6c-0.4-2-1.7-3.2-3.5-3.9c-3.7-2.3-1.2-5.3,0.3-6c5.2-2.2,11.9,3.9,11.9,8.1
			c0,1.4,0-1.2,0,0.2s-0.3,2.7-0.8,4"/>
		<path class="st0" d="M47.1,43.3c0-3.3,0-6.7,0-10c0-1.9,1.3-3.3,3.4-3.5c1.7-0.2,3.5,0.9,3.9,2.7c0.1,0.3,0.1,0.6,0.1,0.9
			c0,3.3,0,6.6,0,9.9"/>
		<path class="st0" d="M39.7,43.3c0-3.8,0-7.6,0-11.4c0-1.7,1.1-3.1,2.7-3.5c1.8-0.4,3.6,0.3,4.3,1.9c0.2,0.5,0.3,1,0.3,1.5
			c0,3.8,0,7.7,0,11.5"/>
		<path class="st0" d="M32.3,47c0-9,0-18,0-27c0-2,1-3.3,3-3.7c2.4-0.4,4.5,1.3,4.5,3.6c-0.1,7.8,0,15.6,0,23.4"/>
	</g>
</g>
</svg>
