<?xml version="1.0" encoding="utf-8"?>
<!-- Generator: Adobe Illustrator 19.2.1, SVG Export Plug-In . SVG Version: 6.00 Build 0)  -->
<svg version="1.1" id="Layer_1" xmlns="http://www.w3.org/2000/svg" xmlns:xlink="http://www.w3.org/1999/xlink" x="0px" y="0px"
	 viewBox="0 0 251 124.4" style="enable-background:new 0 0 251 124.4;" xml:space="preserve">
<style type="text/css">
	.st0{fill:none;stroke:#000000;stroke-width:1.0387;stroke-miterlimit:10;}
	.st1{fill:none;stroke:#000000;stroke-miterlimit:10;}
	.st2{fill:none;stroke:#F58220;stroke-miterlimit:10;}
	.st3{fill:#F58220;}
</style>
<g>
	<rect x="5.7" y="5.8" class="st0" width="239.6" height="53.5"/>
	<line class="st1" x1="195.1" y1="5.8" x2="195.1" y2="59.2"/>
	<g>
		<polygon points="213.6,40.3 213.2,40.1 226.1,18.3 226.6,18.6 		"/>
		<polygon points="215.8,41.4 215.4,41.1 228.3,19.3 228.7,19.6 		"/>
		<path d="M217.9,43.4c0.1,0,0.1-0.1,0.2-0.2l12.7-22c0.1-0.1,0.1-0.3,0-0.4c0-0.1-0.1-0.2-0.2-0.3l-6.4-3.7
			c-0.2-0.1-0.5-0.1-0.7,0.2l-12.7,22c0,0.1-0.1,0.1-0.1,0.2l0,0l-0.4,8c0,0.2,0.1,0.4,0.2,0.5c0.1,0,0.2,0.1,0.3,0.1h19.5v-1h-17.8
			L217.9,43.4L217.9,43.4z M224.2,17.9l5.5,3.2l-12.2,21.2l-2.8-1.6l-2.8-1.6L224.2,17.9z M211.4,46.4l0.3-6.3l5,2.9L211.4,46.4z"/>
	</g>
</g>
<g>
	<rect x="5.7" y="65.1" class="st2" width="239.6" height="53.5"/>
	<line class="st2" x1="195.1" y1="65.1" x2="195.1" y2="118.6"/>
	<g>
		<polygon class="st3" points="213.6,99.7 213.2,99.4 226.1,77.7 226.6,77.9 		"/>
		<polygon class="st3" points="215.8,100.7 215.4,100.5 228.3,78.7 228.7,79 		"/>
		<path class="st3" d="M217.9,102.7c0.1,0,0.1-0.1,0.2-0.2l12.7-22c0.1-0.1,0.1-0.3,0-0.4c0-0.1-0.1-0.2-0.2-0.3l-6.4-3.7
			c-0.2-0.1-0.5-0.1-0.7,0.2l-12.7,22c0,0.1-0.1,0.1-0.1,0.2l0,0l-0.4,8c0,0.2,0.1,0.4,0.2,0.5c0.1,0,0.2,0.1,0.3,0.1h19.5v-1h-17.8
			L217.9,102.7L217.9,102.7z M224.2,77.3l5.5,3.2l-12.2,21.2l-2.8-1.6l-2.8-1.6L224.2,77.3z M211.4,105.7l0.3-6.3l5,2.9L211.4,105.7
			z"/>
	</g>
</g>
<g>
	<path d="M20.4,24.3h8.4v-2.1h1.4v2.1h8.5v1.3h-7.3c2.1,1.6,4.7,2.8,7.9,3.6c-0.3,0.5-0.6,1-0.9,1.4c-0.7-0.2-1.4-0.5-2.1-0.8v8.6
		h-1.5v-0.9H24.2v0.9h-1.5V30c-0.7,0.3-1.4,0.6-2.1,0.9c-0.3-0.4-0.6-0.8-0.9-1.3c3.4-1.1,6-2.4,7.8-3.9h-7.1V24.3z M19.9,39.5h19.2
		v1.4H19.9V39.5z M28.8,29.4V26c-1.5,1.5-3.5,2.8-5.9,3.9h13.4c-2.4-1-4.5-2.3-6.1-3.8v3.3H28.8z M34.8,31.2H24.2V33h10.6V31.2z
		 M24.2,36.2h10.6v-1.8H24.2V36.2z"/>
	<path d="M40.2,29h6c0.3-0.5,0.6-1.1,0.9-1.6h-5.6v-1.3h6.2c0.2-0.5,0.4-1,0.6-1.6c-2.3,0.1-4.6,0.1-6.8,0.2
		c-0.1-0.4-0.2-0.9-0.3-1.3c6.3-0.1,11.8-0.3,16.6-0.6l0.2,1.3c-2.8,0.1-5.4,0.2-8.1,0.3c-0.2,0.5-0.4,1.1-0.6,1.6h8.6v1.3h-9.1
		c-0.3,0.5-0.5,1.1-0.8,1.6h11.5v1.3H47.1c-0.3,0.5-0.7,1-1.1,1.5h10.9v9.9h-1.4v-0.8h-9.9v0.8h-1.4v-7.7c-1,1.1-2.2,2.2-3.5,3.2
		c-0.3-0.4-0.6-0.9-0.9-1.3c2.2-1.6,4.1-3.5,5.5-5.5h-5.2V29z M55.5,33h-9.9v1.4h9.9V33z M45.6,37h9.9v-1.4h-9.9V37z M45.6,39.6h9.9
		v-1.4h-9.9V39.6z"/>
	<path d="M60.1,40.4c2.4-0.4,4.3-1,5.8-1.9c-1.1-0.8-2.1-1.8-3.1-3.1l1-0.8h-1.5v-8.3h6.9c0-0.6,0-1.2,0-1.8h-8.5v-1.4h18.1v1.4
		h-8.1c0,0.7,0,1.3,0,1.8h6.5v9.2h-1.5v-1h-5.5c-0.3,1.6-0.9,2.8-1.6,3.6c2.6,1,6.3,1.4,11,1.4c-0.3,0.6-0.6,1.1-0.8,1.6
		c-5.2-0.1-9.1-0.8-11.5-1.9c-1.5,1-3.6,1.8-6.4,2.4C60.7,41.3,60.4,40.8,60.1,40.4z M63.9,29.9h5.4c0-0.6,0-1.3,0-2.1h-5.4V29.9z
		 M69.2,31.2h-5.4v2.1h5.2C69.1,32.7,69.2,32,69.2,31.2z M67.2,37.6c0.7-0.6,1.2-1.6,1.6-2.9H64C64.9,35.9,66,36.9,67.2,37.6z
		 M70.6,33.3h5.3v-2.1h-5.1C70.7,32,70.6,32.7,70.6,33.3z M75.8,27.8h-5c0,0.8,0,1.5,0,2.1h5.1V27.8z"/>
	<path d="M88.7,22.3h2c-0.7,0.7-1.4,1.4-2.1,2h9.3v1.3c-4.5,3.6-10,6.4-16.5,8.1c-0.3-0.5-0.6-1-0.9-1.4c2.7-0.7,5.1-1.5,7.3-2.4
		c-0.5-0.5-1.1-1.2-1.9-1.9l1.1-0.9c0.8,0.7,1.5,1.5,2.1,2.2c2.4-1.1,4.5-2.3,6.3-3.7h-8.5c-1.4,1.2-3,2.3-4.9,3.4
		c-0.3-0.4-0.7-0.8-1.1-1.2C84.1,26.2,86.7,24.4,88.7,22.3z M91.7,30.2h2c-0.6,0.6-1.2,1.1-1.9,1.7h7.2v1.4
		c-4.2,4.6-9.9,7.4-16.9,8.5c-0.2-0.5-0.5-1-0.9-1.5c3.2-0.5,6.1-1.2,8.6-2.3c-0.4-0.5-0.9-1.1-1.6-1.8l1.2-0.9
		c0.7,0.7,1.3,1.4,1.8,2.1c2.2-1.1,4.1-2.5,5.7-4.1H90c-2.3,1.7-4.8,3.2-7.3,4.3c-0.2-0.4-0.6-0.8-0.9-1.3
		C85.4,34.7,88.7,32.7,91.7,30.2z"/>
	<path d="M107.8,22.5l-0.3,0.4c1.7,1.5,3.3,3.1,4.8,4.7l-1.1,1.2c-1.4-1.6-2.9-3.1-4.5-4.6c-1.3,2-2.6,3.7-4,5.1h8.1
		c-0.1,1.8-0.1,3.1-0.2,3.8c-0.1,2-1,2.9-2.7,2.9c-0.7,0-1.6,0-2.6-0.1c-0.1-0.6-0.2-1.1-0.3-1.6c0.9,0.1,1.7,0.2,2.5,0.2
		c0.9,0,1.5-0.6,1.5-1.8c0-0.6,0.1-1.4,0.1-2.2h-5.2v7.9c0,0.7,0.4,1.1,1.2,1.1h3.2c1,0,1.6-0.3,1.8-1c0.2-0.6,0.3-1.4,0.4-2.4
		c0.5,0.2,1,0.4,1.6,0.6c-0.1,0.9-0.3,1.7-0.5,2.4c-0.3,1.2-1.3,1.8-2.8,1.8H105c-1.6,0-2.4-0.8-2.4-2.4v-9.2
		c-0.4,0.4-0.8,0.8-1.2,1.1c-0.4-0.6-0.7-1.1-0.9-1.4c2.2-1.6,4-3.9,5.6-6.7H107.8z M117.2,22.6h1.6V39c0,1.6-0.8,2.4-2.4,2.4
		c-0.6,0-1.6,0-3.1,0c-0.1-0.6-0.2-1.2-0.3-1.8c1.4,0.1,2.4,0.2,2.9,0.2c0.9,0,1.3-0.4,1.3-1.3V22.6z M114.6,36.5h-1.5V24.4h1.5
		V36.5z"/>
	<path d="M122.4,36.6l1.4,0.5c-0.5,1.2-1,2.4-1.7,3.6c-0.4-0.2-0.9-0.4-1.4-0.6C121.3,39.2,121.8,38,122.4,36.6z M120.8,27.3h5.5
		c-0.5-0.5-1-1-1.6-1.4l0.6-0.6H122v-1.2h7.9c-0.3-0.6-0.5-1.1-0.8-1.6l1.3-0.6c0.4,0.7,0.8,1.5,1.1,2.1h7.3v1.2h-3.4l0.7,0.5
		c-0.5,0.5-1.1,1-1.6,1.5h5.6v1.2h-19.2V27.3z M128.9,36.6l1-0.8h-5.1v0.6h-1.5v-6.8h14v6.8h-1.5v-0.6h-6c0.9,0.7,1.6,1.4,2.3,2.1
		l-1.2,1C130.5,38.3,129.7,37.5,128.9,36.6z M135.9,30.7h-11.1v1.4h11.1V30.7z M124.8,34.7h11.1v-1.4h-11.1V34.7z M125.5,36.6h1.5
		v2.2c0,0.8,0.4,1.1,1.3,1.1h4c0.9,0,1.5-0.4,1.7-1.1c0.1-0.5,0.3-1.1,0.4-1.8c0.5,0.2,1,0.4,1.5,0.6c-0.2,0.7-0.3,1.4-0.4,1.8
		c-0.3,1.2-1.2,1.8-2.7,1.8H128c-1.7,0-2.5-0.8-2.5-2.3V36.6z M132.7,26.9c0.5-0.4,1.1-1,1.8-1.6h-8.3c0.6,0.4,1.2,0.9,1.7,1.4
		l-0.6,0.6h5.8L132.7,26.9z M136.6,37.5l1.1-0.9c0.9,1,1.8,1.9,2.5,2.8l-1.2,1C138.2,39.3,137.4,38.4,136.6,37.5z"/>
	<path d="M140.7,32.1c1.9-2.7,3.3-6,4.4-9.8l1.6,0.5c-0.5,1.6-1,3-1.6,4.4v14.5h-1.5V30.4c-0.7,1.2-1.4,2.4-2.1,3.4
		C141.3,33.3,141,32.7,140.7,32.1z M146.2,30.3c1.7-2.4,3-5.1,3.9-8l1.6,0.3c-0.3,1-0.7,2-1,2.9h9.7v1.4h-7.2v3.5h6.4v1.4h-6.4v3.6
		h6.6v1.4h-6.6v5h-1.5V26.9H150c-0.7,1.6-1.6,3.1-2.6,4.5C147.1,31,146.7,30.7,146.2,30.3z"/>
	<path d="M162.1,32.5h7.5v9.1h-1.5v-1.3h-4.5v1.3h-1.5V32.5z M168.1,33.9h-4.5V39h4.5V33.9z M164,23.1h13.6v7.8H176v-0.6h-10.4v0.6
		H164V23.1z M176,24.5h-10.4v4.4H176V24.5z M172,32.5h7.5v9.1H178v-1.3h-4.5v1.3H172V32.5z M178,33.9h-4.5V39h4.5V33.9z"/>
</g>
<g>
	<path class="st3" d="M20.4,83.6h8.4v-2.1h1.4v2.1h8.5V85h-7.3c2.1,1.6,4.7,2.8,7.9,3.6c-0.3,0.5-0.6,1-0.9,1.4
		c-0.7-0.2-1.4-0.5-2.1-0.8v8.6h-1.5v-0.9H24.2v0.9h-1.5v-8.5c-0.7,0.3-1.4,0.6-2.1,0.9c-0.3-0.4-0.6-0.8-0.9-1.3
		c3.4-1.1,6-2.4,7.8-3.9h-7.1V83.6z M19.9,98.8h19.2v1.4H19.9V98.8z M28.8,88.7v-3.4c-1.5,1.5-3.5,2.8-5.9,3.9h13.4
		c-2.4-1-4.5-2.3-6.1-3.8v3.3H28.8z M34.8,90.5H24.2v1.8h10.6V90.5z M24.2,95.5h10.6v-1.8H24.2V95.5z"/>
	<path class="st3" d="M40.2,88.3h6c0.3-0.5,0.6-1.1,0.9-1.6h-5.6v-1.3h6.2c0.2-0.5,0.4-1,0.6-1.6c-2.3,0.1-4.6,0.1-6.8,0.2
		c-0.1-0.4-0.2-0.9-0.3-1.3c6.3-0.1,11.8-0.3,16.6-0.6l0.2,1.3c-2.8,0.1-5.4,0.2-8.1,0.3c-0.2,0.5-0.4,1.1-0.6,1.6h8.6v1.3h-9.1
		c-0.3,0.5-0.5,1.1-0.8,1.6h11.5v1.3H47.1c-0.3,0.5-0.7,1-1.1,1.5h10.9v9.9h-1.4v-0.8h-9.9v0.8h-1.4v-7.7c-1,1.1-2.2,2.2-3.5,3.2
		c-0.3-0.4-0.6-0.9-0.9-1.3c2.2-1.6,4.1-3.5,5.5-5.5h-5.2V88.3z M55.5,92.3h-9.9v1.4h9.9V92.3z M45.6,96.3h9.9v-1.4h-9.9V96.3z
		 M45.6,98.9h9.9v-1.4h-9.9V98.9z"/>
	<path class="st3" d="M60.1,99.7c2.4-0.4,4.3-1,5.8-1.9c-1.1-0.8-2.1-1.8-3.1-3.1l1-0.8h-1.5v-8.3h6.9c0-0.6,0-1.2,0-1.8h-8.5v-1.4
		h18.1v1.4h-8.1c0,0.7,0,1.3,0,1.8h6.5v9.2h-1.5v-1h-5.5c-0.3,1.6-0.9,2.8-1.6,3.6c2.6,1,6.3,1.4,11,1.4c-0.3,0.6-0.6,1.1-0.8,1.6
		c-5.2-0.1-9.1-0.8-11.5-1.9c-1.5,1-3.6,1.8-6.4,2.4C60.7,100.6,60.4,100.1,60.1,99.7z M63.9,89.2h5.4c0-0.6,0-1.3,0-2.1h-5.4V89.2z
		 M69.2,90.5h-5.4v2.1h5.2C69.1,92,69.2,91.3,69.2,90.5z M67.2,96.9c0.7-0.6,1.2-1.6,1.6-2.9H64C64.9,95.2,66,96.2,67.2,96.9z
		 M70.6,92.6h5.3v-2.1h-5.1C70.7,91.3,70.6,92,70.6,92.6z M75.8,87.1h-5c0,0.8,0,1.5,0,2.1h5.1V87.1z"/>
	<path class="st3" d="M88.7,81.6h2c-0.7,0.7-1.4,1.4-2.1,2h9.3v1.3c-4.5,3.6-10,6.4-16.5,8.1c-0.3-0.5-0.6-1-0.9-1.4
		c2.7-0.7,5.1-1.5,7.3-2.4c-0.5-0.5-1.1-1.2-1.9-1.9l1.1-0.9c0.8,0.7,1.5,1.5,2.1,2.2c2.4-1.1,4.5-2.3,6.3-3.7h-8.5
		c-1.4,1.2-3,2.3-4.9,3.4c-0.3-0.4-0.7-0.8-1.1-1.2C84.1,85.5,86.7,83.7,88.7,81.6z M91.7,89.5h2c-0.6,0.6-1.2,1.1-1.9,1.7h7.2v1.4
		c-4.2,4.6-9.9,7.4-16.9,8.5c-0.2-0.5-0.5-1-0.9-1.5c3.2-0.5,6.1-1.2,8.6-2.3c-0.4-0.5-0.9-1.1-1.6-1.8l1.2-0.9
		c0.7,0.7,1.3,1.4,1.8,2.1c2.2-1.1,4.1-2.5,5.7-4.1H90c-2.3,1.7-4.8,3.2-7.3,4.3c-0.2-0.4-0.6-0.8-0.9-1.3
		C85.4,94,88.7,92,91.7,89.5z"/>
	<path class="st3" d="M107.8,81.8l-0.3,0.4c1.7,1.5,3.3,3.1,4.8,4.7l-1.1,1.2c-1.4-1.6-2.9-3.1-4.5-4.6c-1.3,2-2.6,3.7-4,5.1h8.1
		c-0.1,1.8-0.1,3.1-0.2,3.8c-0.1,2-1,2.9-2.7,2.9c-0.7,0-1.6,0-2.6-0.1c-0.1-0.6-0.2-1.1-0.3-1.6c0.9,0.1,1.7,0.2,2.5,0.2
		c0.9,0,1.5-0.6,1.5-1.8c0-0.6,0.1-1.4,0.1-2.2h-5.2v7.9c0,0.7,0.4,1.1,1.2,1.1h3.2c1,0,1.6-0.3,1.8-1c0.2-0.6,0.3-1.4,0.4-2.4
		c0.5,0.2,1,0.4,1.6,0.6c-0.1,0.9-0.3,1.7-0.5,2.4c-0.3,1.2-1.3,1.8-2.8,1.8H105c-1.6,0-2.4-0.8-2.4-2.4v-9.2
		c-0.4,0.4-0.8,0.8-1.2,1.1c-0.4-0.6-0.7-1.1-0.9-1.4c2.2-1.6,4-3.9,5.6-6.7H107.8z M117.2,81.9h1.6v16.4c0,1.6-0.8,2.4-2.4,2.4
		c-0.6,0-1.6,0-3.1,0c-0.1-0.6-0.2-1.2-0.3-1.8c1.4,0.1,2.4,0.2,2.9,0.2c0.9,0,1.3-0.4,1.3-1.3V81.9z M114.6,95.8h-1.5V83.7h1.5
		V95.8z"/>
	<path class="st3" d="M122.4,95.9l1.4,0.5c-0.5,1.2-1,2.4-1.7,3.6c-0.4-0.2-0.9-0.4-1.4-0.6C121.3,98.5,121.8,97.3,122.4,95.9z
		 M120.8,86.6h5.5c-0.5-0.5-1-1-1.6-1.4l0.6-0.6H122v-1.2h7.9c-0.3-0.6-0.5-1.1-0.8-1.6l1.3-0.6c0.4,0.7,0.8,1.5,1.1,2.1h7.3v1.2
		h-3.4l0.7,0.5c-0.5,0.5-1.1,1-1.6,1.5h5.6v1.2h-19.2V86.6z M128.9,95.9l1-0.8h-5.1v0.6h-1.5v-6.8h14v6.8h-1.5v-0.6h-6
		c0.9,0.7,1.6,1.4,2.3,2.1l-1.2,1C130.5,97.6,129.7,96.8,128.9,95.9z M135.9,90h-11.1v1.4h11.1V90z M124.8,94h11.1v-1.4h-11.1V94z
		 M125.5,95.9h1.5v2.2c0,0.8,0.4,1.1,1.3,1.1h4c0.9,0,1.5-0.4,1.7-1.1c0.1-0.5,0.3-1.1,0.4-1.8c0.5,0.2,1,0.4,1.5,0.6
		c-0.2,0.7-0.3,1.4-0.4,1.8c-0.3,1.2-1.2,1.8-2.7,1.8H128c-1.7,0-2.5-0.8-2.5-2.3V95.9z M132.7,86.2c0.5-0.4,1.1-1,1.8-1.6h-8.3
		c0.6,0.4,1.2,0.9,1.7,1.4l-0.6,0.6h5.8L132.7,86.2z M136.6,96.8l1.1-0.9c0.9,1,1.8,1.9,2.5,2.8l-1.2,1
		C138.2,98.6,137.4,97.7,136.6,96.8z"/>
	<path class="st3" d="M140.7,91.4c1.9-2.7,3.3-6,4.4-9.8l1.6,0.5c-0.5,1.6-1,3-1.6,4.4v14.5h-1.5V89.7c-0.7,1.2-1.4,2.4-2.1,3.4
		C141.3,92.6,141,92,140.7,91.4z M146.2,89.6c1.7-2.4,3-5.1,3.9-8l1.6,0.3c-0.3,1-0.7,2-1,2.9h9.7v1.4h-7.2v3.5h6.4V91h-6.4v3.6h6.6
		V96h-6.6v5h-1.5V86.2H150c-0.7,1.6-1.6,3.1-2.6,4.5C147.1,90.3,146.7,90,146.2,89.6z"/>
	<path class="st3" d="M162.1,91.8h7.5v9.1h-1.5v-1.3h-4.5v1.3h-1.5V91.8z M168.1,93.2h-4.5v5.1h4.5V93.2z M164,82.4h13.6v7.8H176
		v-0.6h-10.4v0.6H164V82.4z M176,83.8h-10.4v4.4H176V83.8z M172,91.8h7.5v9.1H178v-1.3h-4.5v1.3H172V91.8z M178,93.2h-4.5v5.1h4.5
		V93.2z"/>
</g>
</svg>
