<?xml version="1.0" encoding="utf-8"?>
<!-- Generator: Adobe Illustrator 20.0.0, SVG Export Plug-In . SVG Version: 6.00 Build 0)  -->
<svg version="1.1" id="Layer_1" xmlns="http://www.w3.org/2000/svg" xmlns:xlink="http://www.w3.org/1999/xlink" x="0px" y="0px"
	 viewBox="0 0 267.3 50" style="enable-background:new 0 0 267.3 50;" xml:space="preserve">
<style type="text/css">
	.st0{fill:none;stroke:#000000;stroke-width:1.0387;stroke-miterlimit:10;}
	.st1{fill:none;stroke:#000000;stroke-miterlimit:10;}
	.st2{fill:none;stroke:#000000;stroke-width:0.3639;stroke-miterlimit:10;}
	.st3{fill:#FFFFFF;}
	.st4{fill:#CFCDCD;}
	.st5{fill:#C9E9E6;}
	.st6{fill:#FFFFFF;stroke:#000000;stroke-width:2.3369;stroke-miterlimit:10;}
	.st7{fill:#FFE06A;}
	.st8{fill:none;stroke:#000000;stroke-width:2.3369;stroke-linecap:round;stroke-linejoin:round;stroke-miterlimit:10;}
	.st9{fill:#27BDBE;}
	.st10{fill:none;stroke:#27BDBE;stroke-width:4.6884;stroke-miterlimit:10;}
	.st11{fill:none;stroke:#000000;stroke-width:2.3369;stroke-miterlimit:10;}
	.st12{fill:#ECF8FE;}
	.st13{fill:none;stroke:#000000;stroke-width:2.1058;stroke-miterlimit:10;}
	.st14{fill:none;stroke:#000000;stroke-width:1.9613;stroke-miterlimit:10;}
	.st15{fill:#FFFFFF;stroke:#000000;stroke-width:2.1058;stroke-miterlimit:10;}
	.st16{fill:none;stroke:#000000;stroke-width:1.0529;stroke-miterlimit:10;}
	.st17{fill:#FFFFFF;stroke:#000000;stroke-width:1.5873;stroke-miterlimit:10;}
	.st18{fill:none;stroke:#000000;stroke-width:1.5873;stroke-linecap:round;stroke-linejoin:round;stroke-miterlimit:10;}
	.st19{fill:none;stroke:#000000;stroke-width:0.8323;stroke-linecap:round;stroke-linejoin:round;stroke-miterlimit:10;}
	.st20{fill:#D9D9D9;}
	.st21{fill:#BFBFBF;}
	.st22{fill:#999999;}
	.st23{fill:none;stroke:#000000;stroke-width:0.8889;stroke-miterlimit:10;}
	.st24{fill:none;stroke:#FFFFFF;stroke-miterlimit:10;}
</style>
<g>
	<g>
		<g>
			<path class="st3" d="M25.3,27.5l0.6-4.7h-4.7v-3c0-1.4,0.4-2.3,2.3-2.3l2.5,0v-4.2c-0.4-0.1-1.9-0.2-3.6-0.2
				c-3.6,0-6.1,2.2-6.1,6.2v3.5h-4.1v4.7h4.1v12.1h4.9V27.5H25.3z"/>
		</g>
	</g>
	<g>
		<g>
			<path class="st3" d="M71.3,10.4h-1.6l-1.1,4.3l-1.2-4.3h-1.7c0.3,1,0.7,2,1,3c0.5,1.5,0.8,2.7,1,3.4v4.4h1.6v-4.4L71.3,10.4z
				 M75.6,18.6v-2.8c0-0.9-0.1-1.5-0.5-1.9c-0.4-0.6-1-0.8-1.7-0.8c-0.7,0-1.3,0.3-1.7,0.8c-0.3,0.4-0.5,1-0.5,1.9v2.8
				c0,0.9,0.1,1.5,0.5,1.9c0.4,0.5,1,0.8,1.7,0.8c0.7,0,1.3-0.3,1.7-0.8C75.5,20.1,75.6,19.5,75.6,18.6z M74.1,18.9
				c0,0.7-0.2,1.1-0.7,1.1c-0.5,0-0.7-0.4-0.7-1.1v-3.4c0-0.7,0.2-1.1,0.7-1.1c0.5,0,0.7,0.4,0.7,1.1V18.9z M81,21.2v-8.1h-1.5v6.2
				c-0.3,0.5-0.6,0.7-0.9,0.7c-0.2,0-0.3-0.1-0.3-0.3c0,0,0-0.2,0-0.6v-6h-1.5v6.4c0,0.6,0.1,1,0.1,1.2c0.1,0.4,0.5,0.6,0.9,0.6
				c0.5,0,1.1-0.3,1.7-1v0.9H81z"/>
			<g>
				<path class="st3" d="M76,29.5c-0.2,0-0.5,0.1-0.7,0.4v4.9c0.2,0.2,0.5,0.4,0.7,0.4c0.4,0,0.6-0.4,0.6-1.1v-3.4
					C76.6,29.8,76.4,29.5,76,29.5z"/>
				<path class="st3" d="M81.4,29.5c-0.5,0-0.7,0.4-0.7,1.1v0.7h1.5v-0.7C82.1,29.8,81.9,29.5,81.4,29.5z"/>
				<path class="st3" d="M84.9,25.4c-0.3-1.3-1.3-2.2-2.6-2.4c-3-0.3-6-0.3-9-0.3c-3,0-6,0-9,0.3c-1.3,0.1-2.3,1.1-2.6,2.4
					c-0.4,1.8-0.4,3.8-0.4,5.7c0,1.9,0,3.9,0.4,5.7c0.3,1.3,1.3,2.2,2.6,2.4c3,0.3,6,0.3,9,0.3c3,0,6,0,9-0.3
					c1.3-0.1,2.3-1.1,2.6-2.4c0.4-1.8,0.4-3.8,0.4-5.7C85.4,29.2,85.4,27.2,84.9,25.4z M68.2,27h-1.7v9.2h-1.6V27h-1.7v-1.5h5.1V27z
					 M72.6,36.3h-1.4v-0.9c-0.6,0.7-1.1,1-1.7,1c-0.5,0-0.8-0.2-0.9-0.6c-0.1-0.2-0.1-0.6-0.1-1.2v-6.3h1.4v5.9c0,0.3,0,0.5,0,0.6
					c0,0.2,0.1,0.3,0.3,0.3c0.3,0,0.6-0.2,0.9-0.7v-6.1h1.4V36.3z M78.1,33.9c0,0.7,0,1.3-0.1,1.6c-0.2,0.6-0.6,0.9-1.2,0.9
					c-0.5,0-1-0.3-1.5-0.9v0.8h-1.5V25.5h1.5V29c0.5-0.6,1-0.9,1.5-0.9c0.6,0,1,0.3,1.2,0.9c0.1,0.3,0.1,0.9,0.1,1.6V33.9z
					 M83.6,32.5h-2.9v1.4c0,0.7,0.2,1.1,0.7,1.1c0.4,0,0.6-0.2,0.7-0.6c0-0.1,0-0.4,0-1h1.5v0.2c0,0.5,0,0.8,0,0.9
					c-0.1,0.3-0.2,0.6-0.3,0.9c-0.4,0.6-1,0.9-1.7,0.9c-0.8,0-1.3-0.3-1.8-0.8c-0.3-0.4-0.5-1-0.5-1.9v-2.8c0-0.9,0.1-1.5,0.4-1.9
					c0.4-0.6,1-0.8,1.7-0.8c0.7,0,1.3,0.3,1.7,0.8c0.3,0.4,0.4,1,0.4,1.9V32.5z"/>
			</g>
		</g>
	</g>
	<g>
		<g>
			<path class="st3" d="M123.1,14h16.4c1.6,0,2.8,1.3,2.8,2.8v16.4c0,1.6-1.3,2.8-2.8,2.8h-16.4c-1.6,0-2.8-1.3-2.8-2.8V16.8
				C120.2,15.2,121.5,14,123.1,14z M136.3,16.4c-0.5,0-1,0.4-1,1v2.4c0,0.5,0.4,1,1,1h2.5c0.5,0,1-0.4,1-1v-2.4c0-0.5-0.4-1-1-1
				H136.3z M139.8,23.3h-1.9c0.2,0.6,0.3,1.2,0.3,1.9c0,3.7-3.1,6.6-6.9,6.6c-3.8,0-6.9-3-6.9-6.6c0-0.7,0.1-1.3,0.3-1.9h-2v9.3
				c0,0.5,0.4,0.9,0.9,0.9h15.4c0.5,0,0.9-0.4,0.9-0.9V23.3z M131.3,20.7c-2.4,0-4.4,1.9-4.4,4.3c0,2.4,2,4.3,4.4,4.3
				c2.4,0,4.4-1.9,4.4-4.3C135.7,22.6,133.7,20.7,131.3,20.7z"/>
		</g>
	</g>
	<g>
		<g>
			<path class="st3" d="M201.4,17.4c-0.9,0.4-1.9,0.7-2.9,0.8c1-0.6,1.8-1.6,2.2-2.8c-1,0.6-2,1-3.2,1.2c-0.9-1-2.2-1.6-3.6-1.6
				c-2.8,0-5,2.2-5,5c0,0.4,0,0.8,0.1,1.1c-4.2-0.2-7.8-2.2-10.3-5.2c-0.4,0.7-0.7,1.6-0.7,2.5c0,1.7,0.9,3.3,2.2,4.2
				c-0.8,0-1.6-0.3-2.3-0.6v0.1c0,2.4,1.7,4.4,4,4.9c-0.4,0.1-0.9,0.2-1.3,0.2c-0.3,0-0.6,0-0.9-0.1c0.6,2,2.5,3.4,4.7,3.5
				c-1.7,1.3-3.9,2.1-6.2,2.1c-0.4,0-0.8,0-1.2-0.1c2.2,1.4,4.8,2.2,7.7,2.2c9.2,0,14.2-7.6,14.2-14.2c0-0.2,0-0.4,0-0.6
				C199.9,19.3,200.7,18.4,201.4,17.4z"/>
		</g>
	</g>
	<g>
		<g>
			<g>
				<path class="st3" d="M242.2,13.7c0.2,0.1,0.4,0.3,0.7,0.6c0.2,0.3,0.5,0.6,0.7,0.9c0.2,0.4,0.4,0.8,0.6,1.2
					c0.1,0.5,0.2,1,0.2,1.7c0,1.2-0.3,2.1-0.8,2.8c-0.2,0.3-0.5,0.7-0.8,0.9c-0.3,0.3-0.6,0.6-1,0.9c-0.2,0.2-0.4,0.4-0.5,0.7
					c-0.2,0.3-0.3,0.6-0.3,0.9c0,0.3,0.1,0.6,0.3,0.8c0.2,0.2,0.3,0.4,0.5,0.6l1.1,0.9c0.7,0.6,1.3,1.2,1.8,1.9
					c0.5,0.7,0.7,1.6,0.8,2.7c0,1.6-0.7,3-2.1,4.2c-1.4,1.3-3.5,1.9-6.3,2c-2.3,0-4-0.5-5.1-1.5c-1.1-0.9-1.7-2-1.7-3.2
					c0-0.6,0.2-1.3,0.6-2c0.4-0.7,1-1.4,2-2c1.1-0.6,2.2-1,3.3-1.2c1.2-0.2,2.1-0.3,2.9-0.3c-0.2-0.3-0.4-0.6-0.6-1
					c-0.2-0.3-0.3-0.8-0.3-1.2c0-0.3,0-0.5,0.1-0.7c0.1-0.2,0.1-0.4,0.2-0.6c-0.4,0-0.7,0.1-1,0.1c-1.7,0-3.1-0.6-4-1.6
					c-1-1-1.4-2.2-1.4-3.5c0-1.6,0.7-3.1,2-4.4c0.9-0.8,1.9-1.3,2.9-1.5c1-0.2,1.9-0.3,2.8-0.3h6.5l-2,1.2H242.2z M243.4,32.5
					c0-0.8-0.3-1.6-0.8-2.2c-0.6-0.6-1.5-1.3-2.7-2.2c-0.2,0-0.5,0-0.7,0c-0.2,0-0.6,0-1.3,0.1c-0.7,0.1-1.4,0.2-2.1,0.5
					c-0.2,0.1-0.4,0.2-0.7,0.3c-0.3,0.1-0.6,0.3-0.9,0.6c-0.3,0.3-0.6,0.6-0.8,1c-0.2,0.4-0.4,0.9-0.4,1.5c0,1.1,0.5,2.1,1.6,2.8
					c1,0.7,2.3,1.1,4.1,1.1c1.5,0,2.7-0.4,3.5-1C243,34.4,243.4,33.6,243.4,32.5z M238.9,23c0.9,0,1.6-0.3,2.1-0.9
					c0.3-0.4,0.5-0.8,0.5-1.3c0-0.4,0.1-0.8,0.1-1.1c0-1.3-0.3-2.6-1-3.9c-0.3-0.6-0.7-1.1-1.2-1.5c-0.5-0.4-1.1-0.6-1.8-0.6
					c-0.9,0-1.6,0.4-2.2,1.1c-0.5,0.7-0.7,1.5-0.7,2.4c0,1.2,0.3,2.4,1,3.7c0.3,0.6,0.8,1.1,1.3,1.5C237.6,22.8,238.2,23,238.9,23z"
					/>
				<polygon class="st3" points="255.1,16.1 251.6,16.1 251.6,12.7 250,12.7 250,16.1 246.5,16.1 246.5,17.8 250,17.8 250,21.2 
					251.6,21.2 251.6,17.8 255.1,17.8 				"/>
			</g>
		</g>
	</g>
</g>
</svg>
