<?xml version="1.0" encoding="utf-8"?>
<!-- Generator: Adobe Illustrator 20.0.0, SVG Export Plug-In . SVG Version: 6.00 Build 0)  -->
<svg version="1.1" id="Layer_1" xmlns="http://www.w3.org/2000/svg" xmlns:xlink="http://www.w3.org/1999/xlink" x="0px" y="0px"
	 viewBox="0 0 227.2 275.9" style="enable-background:new 0 0 227.2 275.9;" xml:space="preserve">
<style type="text/css">
	.st0{fill:none;stroke:#000000;stroke-width:1.0387;stroke-miterlimit:10;}
	.st1{fill:none;stroke:#000000;stroke-miterlimit:10;}
	.st2{fill:none;stroke:#000000;stroke-width:0.3639;stroke-miterlimit:10;}
	.st3{fill:#FFFFFF;}
	.st4{fill:#ECF8FE;}
	.st5{fill:#27BDBE;}
	.st6{fill:#FFE06A;}
	.st7{fill:#D9D9D9;}
	.st8{fill:#999999;}
	.st9{fill:#BFBFBF;}
	.st10{fill:#FFFFFF;stroke:#000000;stroke-width:1.5873;stroke-miterlimit:10;}
	.st11{fill:none;stroke:#000000;stroke-width:1.5873;stroke-linecap:round;stroke-linejoin:round;stroke-miterlimit:10;}
	.st12{fill:none;stroke:#000000;stroke-width:0.8323;stroke-linecap:round;stroke-linejoin:round;stroke-miterlimit:10;}
	.st13{fill:#CFCDCD;}
	.st14{fill:#C9E9E6;}
	.st15{fill:none;stroke:#000000;stroke-width:0.8889;stroke-miterlimit:10;}
	.st16{fill:none;stroke:#FFFFFF;stroke-miterlimit:10;}
</style>
<g>
	<g>
		<g>
			<path d="M88.7,233.8c-0.1,0-0.1-0.1-0.2-0.2L85,223.2c-0.1-0.1,0-0.2,0.1-0.2h0.6c0.1,0,0.2,0,0.2,0.2l3.2,9.2h0l3.1-9.2
				c0-0.1,0.1-0.2,0.2-0.2h0.6c0.1,0,0.2,0.1,0.1,0.2l-3.6,10.5c0,0.1-0.1,0.2-0.2,0.2H88.7z"/>
			<path d="M96.3,223.1c0-0.1,0.1-0.2,0.2-0.2H97c0.1,0,0.2,0.1,0.2,0.2v10.6c0,0.1-0.1,0.2-0.2,0.2h-0.6c-0.1,0-0.2-0.1-0.2-0.2
				V223.1z"/>
			<path d="M101,232.7c-0.1-0.1-0.1-0.2,0-0.2l0.4-0.5c0.1-0.1,0.2-0.1,0.2,0c0.7,0.6,1.9,1.1,3.1,1.1c1.7,0,2.8-0.9,2.8-2.2
				c0-1.1-0.6-1.9-2.6-2.1l-0.5-0.1c-2.1-0.3-3.1-1.3-3.1-2.9c0-1.9,1.3-3.1,3.4-3.1c1.2,0,2.4,0.4,3.1,0.9c0.1,0,0.1,0.1,0,0.2
				l-0.3,0.5c-0.1,0.1-0.1,0.1-0.2,0c-0.9-0.5-1.7-0.8-2.6-0.8c-1.6,0-2.5,0.9-2.5,2.1c0,1.1,0.7,1.8,2.6,2.1l0.5,0.1
				c2.2,0.3,3.2,1.3,3.2,2.9c0,1.8-1.3,3.2-3.8,3.2C103.2,234,101.8,233.4,101,232.7z"/>
			<path d="M113.1,230.1c0,2,1,3,2.8,3c1.7,0,2.8-1,2.8-3v-7c0-0.1,0.1-0.2,0.2-0.2h0.6c0.1,0,0.2,0.1,0.2,0.2v7
				c0,2.7-1.4,3.9-3.7,3.9c-2.2,0-3.7-1.3-3.7-3.9v-7c0-0.1,0.1-0.2,0.2-0.2h0.6c0.1,0,0.2,0.1,0.2,0.2V230.1z"/>
			<path d="M126.4,223.1c0-0.1,0.1-0.2,0.2-0.2h0.6c0.1,0,0.2,0.1,0.2,0.2l3.8,10.6c0,0.1,0,0.2-0.1,0.2h-0.6c-0.1,0-0.2,0-0.2-0.2
				l-1-2.7h-4.7l-1,2.7c0,0.1-0.1,0.2-0.2,0.2h-0.6c-0.1,0-0.1-0.1-0.1-0.2L126.4,223.1z M128.9,230.1l-2-5.7h0l-2,5.7H128.9z"/>
			<path d="M134.4,223.1c0-0.1,0.1-0.2,0.2-0.2h0.6c0.1,0,0.2,0.1,0.2,0.2v9.8c0,0.1,0,0.1,0.1,0.1h5.4c0.1,0,0.2,0.1,0.2,0.2v0.5
				c0,0.1-0.1,0.2-0.2,0.2h-6.2c-0.1,0-0.2-0.1-0.2-0.2V223.1z"/>
			<path d="M73.3,244.9c0-0.1,0.1-0.2,0.2-0.2h3.6c2.1,0,3.2,1.1,3.2,2.8c0,1.3-0.7,2.1-1.7,2.4v0c0.8,0.2,1.9,1,1.9,2.6
				c0,1.9-1.2,3-3.3,3h-3.6c-0.1,0-0.2-0.1-0.2-0.2V244.9z M77.1,249.6c1.5,0,2.3-0.8,2.3-2c0-1.2-0.8-2-2.3-2h-2.8
				c-0.1,0-0.1,0-0.1,0.1v3.9c0,0.1,0,0.1,0.1,0.1H77.1z M74.3,254.7h2.9c1.6,0,2.4-0.8,2.4-2.1c0-1.3-0.8-2.1-2.4-2.1h-2.9
				c-0.1,0-0.1,0-0.1,0.1L74.3,254.7C74.2,254.7,74.2,254.7,74.3,254.7z"/>
			<path d="M90.6,255.6c-0.1,0-0.1,0-0.2-0.1l-2.3-4.7H88h-2.8c-0.1,0-0.1,0-0.1,0.1v4.6c0,0.1-0.1,0.2-0.2,0.2h-0.6
				c-0.1,0-0.2-0.1-0.2-0.2v-10.6c0-0.1,0.1-0.2,0.2-0.2H88c2,0,3.3,1.2,3.3,3c0,1.5-0.8,2.5-2.2,2.9l2.4,4.8c0.1,0.1,0,0.2-0.1,0.2
				H90.6z M90.4,247.7c0-1.4-0.9-2.1-2.4-2.1h-2.8c-0.1,0-0.1,0-0.1,0.1v4.1c0,0.1,0,0.1,0.1,0.1H88
				C89.5,249.9,90.4,249.1,90.4,247.7z"/>
			<path d="M98.1,244.9c0-0.1,0.1-0.2,0.2-0.2h0.6c0.1,0,0.2,0.1,0.2,0.2l3.8,10.6c0,0.1,0,0.2-0.1,0.2h-0.6c-0.1,0-0.2,0-0.2-0.2
				l-1-2.7h-4.7l-1,2.7c0,0.1-0.1,0.2-0.2,0.2h-0.6c-0.1,0-0.1-0.1-0.1-0.2L98.1,244.9z M100.6,251.9l-2-5.7h0l-2,5.7H100.6z"/>
			<path d="M106.1,244.9c0-0.1,0.1-0.2,0.2-0.2h0.6c0.1,0,0.2,0,0.3,0.2l5.4,8.9h0v-8.9c0-0.1,0.1-0.2,0.2-0.2h0.6
				c0.1,0,0.2,0.1,0.2,0.2v10.6c0,0.1-0.1,0.2-0.2,0.2h-0.6c-0.1,0-0.2,0-0.3-0.2l-5.4-9H107v9c0,0.1-0.1,0.2-0.2,0.2h-0.6
				c-0.1,0-0.2-0.1-0.2-0.2V244.9z"/>
			<path d="M117.8,244.9c0-0.1,0.1-0.2,0.2-0.2h3.4c1.8,0,3,0.7,3.5,2.2c0.2,0.6,0.3,1.2,0.3,3.2c0,2-0.1,2.6-0.3,3.2
				c-0.5,1.5-1.7,2.2-3.5,2.2H118c-0.1,0-0.2-0.1-0.2-0.2V244.9z M118.8,254.7h2.4c1.4,0,2.3-0.5,2.7-1.6c0.2-0.5,0.3-1.1,0.3-2.9
				c0-1.8-0.1-2.4-0.3-2.9c-0.4-1.2-1.3-1.6-2.7-1.6h-2.4c-0.1,0-0.1,0-0.1,0.1L118.8,254.7C118.7,254.7,118.7,254.7,118.8,254.7z"
				/>
			<path d="M129,244.9c0-0.1,0.1-0.2,0.2-0.2h0.6c0.1,0,0.2,0.1,0.2,0.2v10.6c0,0.1-0.1,0.2-0.2,0.2h-0.6c-0.1,0-0.2-0.1-0.2-0.2
				V244.9z"/>
			<path d="M134.2,244.9c0-0.1,0.1-0.2,0.2-0.2h0.6c0.1,0,0.2,0,0.3,0.2l5.4,8.9h0v-8.9c0-0.1,0.1-0.2,0.2-0.2h0.6
				c0.1,0,0.2,0.1,0.2,0.2v10.6c0,0.1-0.1,0.2-0.2,0.2h-0.6c-0.1,0-0.2,0-0.3-0.2l-5.4-9h-0.1v9c0,0.1-0.1,0.2-0.2,0.2h-0.6
				c-0.1,0-0.2-0.1-0.2-0.2V244.9z"/>
			<path d="M145.4,250.1c0-1.9,0.1-2.6,0.3-3.2c0.5-1.6,1.8-2.4,3.6-2.4c1.8,0,2.9,0.9,3.4,2c0,0.1,0,0.2-0.1,0.2l-0.5,0.3
				c-0.1,0-0.2,0-0.2-0.1c-0.5-1-1.3-1.6-2.6-1.6c-1.3,0-2.3,0.6-2.7,1.8c-0.1,0.4-0.3,1.1-0.3,2.9c0,1.8,0.1,2.5,0.3,2.9
				c0.4,1.2,1.3,1.8,2.7,1.8c1.3,0,2.3-0.6,2.7-1.8c0.1-0.4,0.3-1,0.3-2.1c0-0.1,0-0.1-0.1-0.1h-2.5c-0.1,0-0.2-0.1-0.2-0.2v-0.5
				c0-0.1,0.1-0.2,0.2-0.2h3.3c0.1,0,0.2,0.1,0.2,0.2v0.7c0,1.1-0.1,1.9-0.3,2.4c-0.5,1.6-1.8,2.5-3.5,2.5c-1.8,0-3-0.8-3.6-2.4
				C145.6,252.8,145.4,252,145.4,250.1z"/>
		</g>
	</g>
	<circle class="st7" cx="45.9" cy="159.9" r="2.5"/>
	<g>
		<g>
			<circle class="st7" cx="26.9" cy="169.5" r="9.6"/>
		</g>
	</g>
	<g>
		<circle class="st7" cx="39.5" cy="32.8" r="3.8"/>
	</g>
	<g>
		<circle class="st7" cx="201.2" cy="125.3" r="3.4"/>
	</g>
	<g>
		<path class="st7" d="M209.8,37.3c0,4.8-3.9,8.7-8.7,8.7c-4.8,0-8.7-3.9-8.7-8.7c0-4.8,3.9-8.7,8.7-8.7
			C205.9,28.6,209.8,32.5,209.8,37.3z"/>
	</g>
	<g>
		<circle class="st3" cx="111.1" cy="101.7" r="31.1"/>
		<path d="M111.1,134c-17.8,0-32.3-14.5-32.3-32.3s14.5-32.3,32.3-32.3s32.3,14.5,32.3,32.3S128.9,134,111.1,134z M111.1,71.8
			c-16.5,0-29.9,13.4-29.9,29.9c0,16.5,13.4,29.9,29.9,29.9c16.5,0,29.9-13.4,29.9-29.9C141.1,85.2,127.6,71.8,111.1,71.8z"/>
	</g>
	<circle class="st9" cx="112.7" cy="98.6" r="27.5"/>
	<path d="M113.2,134c-31,0-58-30.1-59.3-31.5c-0.4-0.4-0.4-1.1,0-1.5c0.3-0.4,31-37.9,65.6-30.6c34.8,7.3,48.4,29.8,49,30.7
		c0.2,0.4,0.2,0.9,0,1.2c-0.2,0.2-16.9,24.5-45.8,30.7C119.5,133.7,116.3,134,113.2,134z M56.3,101.6c4.9,5.2,35.1,35.6,65.9,29.1
		c25.4-5.4,41.1-25.3,43.9-29.1c-2.5-3.7-16.5-22.6-47.1-29C88.5,66.2,60.9,96.4,56.3,101.6z"/>
	<g>
		<path class="st3" d="M90.9,101.7c0,11.2,9,20.2,20.2,20.2c11.2,0,20.2-9,20.2-20.2c0-11.2-9-20.2-20.2-20.2"/>
		<path d="M111.1,123.1c-11.8,0-21.4-9.6-21.4-21.4h2.3c0,10.5,8.5,19,19,19s19-8.5,19-19s-8.5-19-19-19v-2.3
			c11.8,0,21.4,9.6,21.4,21.4C132.5,113.5,122.9,123.1,111.1,123.1z"/>
	</g>
	<circle class="st8" cx="111.1" cy="101.7" r="16"/>
	<g>
		<path class="st3" d="M108,81.7v16.9H91.2C91.2,98.6,92.9,84.5,108,81.7z"/>
		<path d="M109.1,99.8H89.8l0.2-1.3c0-0.1,2-15,17.8-17.9l1.4-0.3V99.8z M92.6,97.4h14.2V83.2C96.5,85.7,93.4,94.2,92.6,97.4z"/>
	</g>
	<g>
		<path d="M112.7,41.6c-0.6,0-1.2-0.5-1.2-1.2V21.3c0-0.6,0.5-1.2,1.2-1.2s1.2,0.5,1.2,1.2v19.2C113.9,41.1,113.4,41.6,112.7,41.6z"
			/>
		<path d="M143.6,50.9c-0.2,0-0.4-0.1-0.6-0.2c-0.6-0.3-0.7-1-0.4-1.6l9.7-16.5c0.3-0.6,1-0.7,1.6-0.4c0.6,0.3,0.7,1,0.4,1.6
			l-9.7,16.5C144.4,50.7,144,50.9,143.6,50.9z"/>
		<path d="M165.5,74.6c-0.4,0-0.8-0.2-1-0.6c-0.3-0.6-0.1-1.3,0.5-1.6l16.8-9.3c0.6-0.3,1.3-0.1,1.6,0.5c0.3,0.6,0.1,1.3-0.5,1.6
			L166,74.5C165.8,74.6,165.6,74.6,165.5,74.6z"/>
		<path d="M184.3,142.2c-0.2,0-0.3,0-0.5-0.1l-17.3-8.3c-0.6-0.3-0.8-1-0.5-1.6c0.3-0.6,1-0.8,1.6-0.5l17.3,8.3
			c0.6,0.3,0.8,1,0.5,1.6C185.2,142,184.7,142.2,184.3,142.2z"/>
		<path d="M156,173.7c-0.4,0-0.7-0.2-1-0.5l-10.7-15.9c-0.4-0.5-0.2-1.3,0.3-1.6c0.5-0.4,1.3-0.2,1.6,0.3l10.7,15.9
			c0.4,0.5,0.2,1.3-0.3,1.6C156.5,173.6,156.2,173.7,156,173.7z"/>
		<path d="M56.9,75.5c-0.2,0-0.4,0-0.5-0.1l-17-8.9c-0.6-0.3-0.8-1-0.5-1.6c0.3-0.6,1-0.8,1.6-0.5l17,8.9c0.6,0.3,0.8,1,0.5,1.6
			C57.8,75.3,57.4,75.5,56.9,75.5z"/>
		<path d="M79.5,52.5c-0.4,0-0.8-0.2-1-0.6L68.3,35.7c-0.3-0.5-0.2-1.3,0.4-1.6c0.5-0.3,1.3-0.2,1.6,0.4l10.1,16.3
			c0.3,0.5,0.2,1.3-0.4,1.6C79.9,52.5,79.7,52.5,79.5,52.5z"/>
		<path d="M72.5,171.3c-0.2,0-0.4-0.1-0.6-0.2c-0.6-0.3-0.7-1-0.4-1.6l9.7-16.5c0.3-0.6,1-0.7,1.6-0.4c0.6,0.3,0.7,1,0.4,1.6
			l-9.7,16.5C73.3,171.1,72.9,171.3,72.5,171.3z"/>
		<path d="M43.6,140.4c-0.4,0-0.8-0.2-1-0.6c-0.3-0.6-0.1-1.3,0.5-1.6l16.8-9.3c0.6-0.3,1.3-0.1,1.6,0.5c0.3,0.6,0.1,1.3-0.5,1.6
			l-16.8,9.3C44,140.4,43.8,140.4,43.6,140.4z"/>
		<path d="M112.7,183.7c-0.6,0-1.2-0.5-1.2-1.2v-19.2c0-0.6,0.5-1.2,1.2-1.2s1.2,0.5,1.2,1.2v19.2
			C113.9,183.2,113.4,183.7,112.7,183.7z"/>
		<path d="M201.2,102.9H182c-0.6,0-1.2-0.5-1.2-1.2s0.5-1.2,1.2-1.2h19.2c0.6,0,1.2,0.5,1.2,1.2S201.8,102.9,201.2,102.9z"/>
		<path d="M39.5,102.9H20.3c-0.6,0-1.2-0.5-1.2-1.2s0.5-1.2,1.2-1.2h19.2c0.6,0,1.2,0.5,1.2,1.2S40.1,102.9,39.5,102.9z"/>
	</g>
</g>
</svg>
