<?xml version="1.0" encoding="utf-8"?>
<!-- Generator: Adobe Illustrator 20.0.0, SVG Export Plug-In . SVG Version: 6.00 Build 0)  -->
<svg version="1.1" id="Layer_1" xmlns="http://www.w3.org/2000/svg" xmlns:xlink="http://www.w3.org/1999/xlink" x="0px" y="0px"
	 viewBox="0 0 142 100" style="enable-background:new 0 0 142 100;" xml:space="preserve">
<style type="text/css">
	.st0{fill:#F15B4A;}
	.st1{clip-path:url(#SVGID_2_);}
	.st2{fill:#FCF7E9;}
	.st3{fill:#C7C4BC;}
	.st4{clip-path:url(#SVGID_4_);}
	.st5{fill:#FFFFFF;}
	.st6{fill:#EDC393;}
	.st7{fill:#B1B3B6;}
	.st8{fill:#333132;}
	.st9{fill:#4F341A;}
	.st10{fill:#2A160C;}
	.st11{fill:#452B13;}
	.st12{fill:#4D4E4A;}
	.st13{fill:#3E3B3A;}
	.st14{opacity:0.5;fill:#8F8C86;}
	.st15{opacity:0.5;clip-path:url(#SVGID_6_);fill:#8F8C86;}
	.st16{fill:#F37223;}
	.st17{fill:#BF5A28;}
	.st18{fill:#DAB17C;}
	.st19{fill:#F89420;}
	.st20{fill:url(#SVGID_7_);}
	.st21{fill:#FDBE14;}
	.st22{fill:#F2F2F2;}
	.st23{clip-path:url(#SVGID_9_);}
	.st24{fill:#06BDCD;}
	.st25{opacity:0.5;clip-path:url(#SVGID_9_);}
	.st26{fill:#8F8C86;}
	.st27{fill:#79BEC0;}
	.st28{opacity:0.5;fill:#FFFFFF;}
	.st29{clip-path:url(#SVGID_11_);}
	.st30{fill:#C5DA4E;}
	.st31{fill:#A3BD3D;}
	.st32{fill:#6AB352;}
	.st33{fill:#5A462C;}
	.st34{fill:#D4E172;}
	.st35{fill:#ECEC83;}
	.st36{fill:#C2E1F1;}
	.st37{fill:#8BA3B0;}
	.st38{fill:#8FC640;}
	.st39{fill:#72A441;}
	.st40{fill:#976339;}
	.st41{fill:#7A4F2A;}
	
		.st42{fill:none;stroke:#FFFFFF;stroke-width:0.771;stroke-linecap:round;stroke-linejoin:round;stroke-miterlimit:10;stroke-dasharray:4.6259;}
	
		.st43{fill:none;stroke:#FFFFFF;stroke-width:0.6936;stroke-linecap:round;stroke-linejoin:round;stroke-miterlimit:10;stroke-dasharray:4.1616;}
	.st44{fill:#D46528;}
	.st45{fill:#F3F1E6;}
	.st46{fill:#D4D2C3;}
	.st47{clip-path:url(#SVGID_25_);}
	.st48{fill:#EEE809;}
	.st49{fill:#94D9F8;}
	.st50{fill:#211E1F;}
	.st51{fill:#231F20;}
	.st52{fill:#F7941F;}
	.st53{fill:#47B77B;}
	.st54{fill:#221F1F;}
	.st55{fill:#F5EB0E;}
	.st56{fill:#EBE70E;}
	.st57{fill:url(#);}
	.st58{fill:none;stroke:url(#);stroke-miterlimit:10;}
	.st59{fill:#F7941D;}
	.st60{fill:#45B97C;}
	.st61{fill:none;stroke:#010101;stroke-miterlimit:10;}
	.st62{fill:#010101;}
	.st63{fill:#4BC3C9;}
	.st64{fill:#DD1D4F;}
	.st65{fill:none;stroke:#231F20;stroke-width:0.9625;stroke-linecap:round;stroke-linejoin:round;stroke-miterlimit:10;}
	.st66{fill:none;stroke:url(#);stroke-width:0.6902;stroke-miterlimit:10;}
	.st67{fill:#FBAA19;}
	.st68{fill:none;stroke:#221F1F;stroke-width:0.8692;stroke-miterlimit:10;}
	.st69{fill:none;stroke:#221F1F;stroke-width:0.8566;stroke-miterlimit:10;}
	.st70{fill:none;stroke:url(#);stroke-width:0.7698;stroke-miterlimit:10;}
	.st71{fill:none;stroke:#221F1F;stroke-width:0.8028;stroke-miterlimit:10;}
	.st72{fill:#FFFFFF;stroke:url(#);stroke-width:0.6902;stroke-miterlimit:10;}
	.st73{fill:none;stroke:url(#);stroke-width:0.4601;stroke-miterlimit:10;}
	.st74{fill:none;stroke:#79BEC0;stroke-width:2.3005;stroke-miterlimit:10;}
	.st75{fill:#C9E9E6;}
	.st76{fill:#E5EFF5;}
	.st77{fill:#0A3655;}
	.st78{fill:none;stroke:#79BEC0;stroke-width:1.2825;stroke-miterlimit:10;}
	.st79{fill:none;stroke:#F15B4A;stroke-miterlimit:10;}
	.st80{fill:none;stroke:#F15B4A;stroke-width:2;stroke-linecap:round;stroke-linejoin:round;stroke-miterlimit:10;}
	.st81{fill:#FFFFFF;stroke:#F15B4A;stroke-miterlimit:10;}
</style>
<g>
	<polygon class="st75" points="104.3,76.2 104.3,83.8 137.6,83.8 137.6,35.7 	"/>
	<path class="st27" d="M101.2,35.7v16.2h0.3c1.6,0,2.8,1.3,2.8,2.8v26.7h30.2V35.7H101.2z"/>
	<path class="st75" d="M78.3,54.7c0-1.6,1.3-2.8,2.8-2.8h13.6V29.7c0-1.4,1-2.6,2.4-2.8v-10L8.2,79.3l70.1,0V54.7z"/>
	<rect x="11.1" y="5.6" class="st27" width="83.3" height="9"/>
	<rect x="8.2" y="16.2" class="st54" width="88.9" height="1.4"/>
	<rect x="33.7" y="3.3" class="st54" width="1.4" height="13.6"/>
	<rect x="39.8" y="9" class="st54" width="52.3" height="1.6"/>
	<rect x="16.5" y="48.6" class="st54" width="49.4" height="1.6"/>
	<rect x="16.5" y="55.3" class="st54" width="49.4" height="1.6"/>
	<rect x="16.5" y="61.9" class="st54" width="49.4" height="1.6"/>
	<rect x="16.5" y="68.4" class="st54" width="49.4" height="1.6"/>
	<rect x="39.8" y="24.5" class="st67" width="49.3" height="19.4"/>
	<rect x="16.4" y="24.5" class="st0" width="18.5" height="19.4"/>
	<rect x="12.9" y="9" class="st54" width="3.6" height="1.6"/>
	<rect x="19.6" y="9" class="st54" width="3.6" height="1.6"/>
	<rect x="26" y="9" class="st54" width="3.6" height="1.6"/>
	<rect x="56.8" y="34" class="st54" width="3.6" height="1.6"/>
	<rect x="63.5" y="34" class="st54" width="3.6" height="1.6"/>
	<rect x="69.9" y="34" class="st54" width="3.6" height="1.6"/>
	<path class="st54" d="M96.3,27.2c0.4-0.2,0.8-0.3,1.2-0.3h0.3V2.6H7.4v76.8H9V4.1h87.3V27.2z"/>
	<rect x="114.1" y="30.3" class="st54" width="7.5" height="0.8"/>
	<path class="st54" d="M117.8,91.1c-1.6,0-3-1.3-3-3c0-1.6,1.3-3,3-3c1.6,0,3,1.3,3,3C120.8,89.8,119.5,91.1,117.8,91.1z
		 M117.8,85.9c-1.2,0-2.2,1-2.2,2.2c0,1.2,1,2.2,2.2,2.2c1.2,0,2.2-1,2.2-2.2C120,86.9,119.1,85.9,117.8,85.9z"/>
	<rect id="XMLID_7_" x="107.8" y="47.7" class="st67" width="20" height="2.8"/>
	<rect id="XMLID_6_" x="112.3" y="61.3" class="st0" width="11" height="2.8"/>
	<rect x="109.9" y="53.1" class="st77" width="15.9" height="1.6"/>
	<rect x="109.9" y="56.9" class="st77" width="15.9" height="1.6"/>
	<path class="st54" d="M101.5,97.4H81.1c-1.6,0-2.8-1.3-2.8-2.8V54.7c0-1.6,1.3-2.8,2.8-2.8h20.4c1.6,0,2.8,1.3,2.8,2.8v39.9
		C104.3,96.2,103.1,97.4,101.5,97.4z M81.1,53.4c-0.7,0-1.3,0.6-1.3,1.3v39.9c0,0.7,0.6,1.3,1.3,1.3h20.4c0.7,0,1.3-0.6,1.3-1.3
		V54.7c0-0.7-0.6-1.3-1.3-1.3H81.1z"/>
	<rect x="88.5" y="56.3" class="st54" width="5.5" height="0.8"/>
	<rect x="89.9" y="54.9" class="st54" width="2.8" height="0.8"/>
	<path class="st54" d="M91.3,95c-1.1,0-2-0.9-2-2c0-1.1,0.9-2,2-2c1.1,0,2,0.9,2,2C93.3,94.1,92.4,95,91.3,95z M91.3,91.8
		c-0.7,0-1.2,0.6-1.2,1.2c0,0.7,0.6,1.2,1.2,1.2c0.7,0,1.2-0.6,1.2-1.2C92.5,92.3,92,91.8,91.3,91.8z"/>
	<polyline class="st75" points="101.2,89.7 101.2,59.4 81.5,89.7 	"/>
	<path class="st54" d="M101.6,90.2H81V58.9h20.6V90.2z M81.8,89.4h19V59.7h-19L81.8,89.4z"/>
	<rect x="83.2" y="61.3" class="st67" width="16.2" height="26.5"/>
	<rect id="XMLID_5_" x="86.1" y="69.5" class="st5" width="10.8" height="1.5"/>
	<rect id="XMLID_4_" x="88.5" y="76.9" class="st0" width="6" height="1.5"/>
	<rect x="87.2" y="72.5" class="st54" width="8.6" height="0.8"/>
	<rect x="87.2" y="74.5" class="st54" width="8.6" height="0.8"/>
	<polygon class="st54" points="97.7,32.8 97.7,51.9 98.5,51.9 98.5,33.6 137.2,33.6 137.2,83.4 104.3,83.4 104.3,84.2 137.9,84.2 
		137.9,32.8 	"/>
	<path class="st54" d="M138.9,26.1H96.8c-1.6,0-2.8,1.3-2.8,2.8v22.9h1.6V29c0-0.7,0.6-1.3,1.3-1.3h42.1c0.7,0,1.3,0.6,1.3,1.3v61.8
		c0,0.7-0.6,1.3-1.3,1.3h-34.6v1.6h34.6c1.6,0,2.8-1.3,2.8-2.8V29C141.7,27.4,140.5,26.1,138.9,26.1z"/>
	<path class="st27" d="M78.3,54.7c0-1.6,1.3-2.8,2.8-2.8H89v-4.1H69.1v23.2h9.1V54.7z"/>
	<g>
		<rect x="0.3" y="78.6" class="st54" width="78" height="1.6"/>
	</g>
</g>
</svg>
