<?xml version="1.0" encoding="utf-8"?>
<!-- Generator: Adobe Illustrator 19.2.1, SVG Export Plug-In . SVG Version: 6.00 Build 0)  -->
<svg version="1.1" id="Layer_1" xmlns="http://www.w3.org/2000/svg" xmlns:xlink="http://www.w3.org/1999/xlink" x="0px" y="0px"
	 viewBox="0 0 90 80" style="enable-background:new 0 0 90 80;" xml:space="preserve">
<style type="text/css">
	.st0{fill:#4BC3C9;}
	.st1{fill:none;stroke:#231F20;stroke-width:0.7698;stroke-miterlimit:10;}
	.st2{fill:#DD1D4F;}
</style>
<g>
	<path class="st0" d="M72.3,56.5c-0.1-0.6-0.3-0.8-0.3-1.7c0-0.7,0.4-1.5,0-2.4c-0.1-0.3-0.3-0.5-0.5-0.5h-5.7c0,0-5.7-6.6-5-7.3
		c2.4-2.8,3.7-4.7,4.3-5.9c0.4-0.8-0.1-1.8-1-2l-8.4-1.2c-1.3-0.2-2.7,0.2-3.7,1.1c-7.3,7.2-14.5,4-17.7,1.7
		c-1.1-0.7-2.4-0.8-3.6-0.4c-6.7,2.2-9.1,7.8-9.1,7.8c-4.5,1-5-4.8-5-4.8s-4,8.4,2.5,9.8c-2,12,2.8,13.5,5.2,17.3
		c1.5,2.5,1.5,6.1,1.3,8.4c-0.1,1.2,0.9,2.3,2.1,2.3h3.1c1,0,1.8-0.7,2-1.6c0.4-1.8,1.1-4.4,2-4.1c6.9,2.9,14.9,0,14.9,0l0.6,4
		c0.1,1,1,1.7,1.9,1.7H57c1,0,1.9-0.8,2-1.8l0.5-6.8l10.2-7.6c0.7-0.6,1.2-0.8,1.7-2.1C71.8,58.8,72.6,57.9,72.3,56.5z M56.6,53.5
		c-1.5,0-2.8-1.2-2.8-2.8c0-1.5,1.2-2.8,2.8-2.8c1.5,0,2.8,1.2,2.8,2.8C59.4,52.3,58.1,53.5,56.6,53.5z"/>
	<path class="st1" d="M36.6,38.4c3.3,2.2,10.4,5.5,17.7-1.7c1-1,2.4-1.3,3.7-1.1l8.4,1.2c0.9,0.1,1.5,1.1,1,2
		c-0.7,1.2-1.9,3.1-4.3,5.9c-0.6,0.7,5,7.3,5,7.3h5.7c0.3,0,0.4,0.2,0.5,0.5c0.3,0.9,0,1.7,0,2.4c0,0.9,0.2,1.1,0.3,1.7
		c0.3,1.4-0.5,2.3-1.1,4.1c-0.5,1.3-1,1.6-1.7,2.1l-10.2,7.6L61.2,77c-0.1,1-0.9,1.8-2,1.8h-4.8c-1,0-1.8-0.7-1.9-1.7l-0.6-4
		c0,0-8,2.9-14.9,0c-0.9-0.4-1.6,2.3-2,4.1c-0.2,0.9-1.1,1.6-2,1.6h-3c-1.3,0-2.2-1.1-2.1-2.3c0.2-2.3,0.2-6-1.3-8.4
		c-2.4-3.9-7.2-5.4-5.2-17.3c-6.5-1.4-2.5-9.8-2.5-9.8s0.5,5.8,5,4.8c0,0,2.5-5.6,9.1-7.8C34.2,37.6,35.6,37.7,36.6,38.4z"/>
	<g>
		<path class="st2" d="M44.5,17.3C38.7,17.3,34,22,34,27.8s4.7,10.5,10.5,10.5S55,33.6,55,27.8S50.3,17.3,44.5,17.3z M47.9,32.1
			c-0.4,0.9-1.2,1.4-2.2,1.7c-0.3,0.1-0.3,0.2-0.3,0.4c0,0.3,0,0.6,0,1c-0.1,0.6-0.5,1-1,1s-1-0.4-1-1c0-0.2,0-0.4,0-0.6
			c0.1-0.5-0.2-0.6-0.5-0.6s-0.5,0-0.8-0.1c-0.5-0.1-0.8-0.6-0.8-1.1s0.5-0.9,1-1c0.2,0,0.4,0,0.7,0c0.2,0,0.4,0,0.7,0
			c0.4,0,1,0.1,1.5-0.1c0.5-0.1,0.8-0.4,0.9-0.9c0.1-0.5,0.1-1-0.3-1.4c-0.4-0.4-1-0.6-1.6-0.8c-0.5-0.2-1-0.3-1.5-0.6
			c-1.4-0.7-2-1.8-2-3.4c0.1-1.3,0.9-2.5,2.3-2.9c0.5-0.1,0.6-0.4,0.5-0.8c0-0.3,0-0.5,0-0.8c0.1-0.6,0.5-1,1.1-0.9
			c0.5,0,0.9,0.5,0.9,1c0,0.3,0,0.6,0,1c0,0.2,0.1,0.3,0.3,0.3s0.5,0,0.7,0c0.4,0,0.8,0.2,1,0.5c0.2,0.4,0.1,0.8-0.1,1.1
			c-0.3,0.4-0.6,0.5-1.1,0.4c-0.8-0.1-1.6-0.2-2.4,0c-0.7,0.2-1.1,0.7-1.1,1.4c0,0.4,0.2,0.7,0.5,0.9c0.5,0.3,1,0.5,1.5,0.7
			c0.6,0.2,1.2,0.5,1.7,0.8C48.2,28.5,48.7,30.4,47.9,32.1z"/>
	</g>
	<g>
		<g>
			<line class="st1" x1="38.3" y1="10.6" x2="37.6" y2="11.4"/>
			<line class="st1" x1="37" y1="11.9" x2="36.3" y2="12.7"/>
		</g>
		<g>
			<line class="st1" x1="36.3" y1="10.6" x2="37" y2="11.4"/>
			<line class="st1" x1="37.6" y1="11.9" x2="38.3" y2="12.7"/>
		</g>
	</g>
	<g>
		<line class="st1" x1="40.7" y1="11.8" x2="40.7" y2="7.1"/>
		<line class="st1" x1="40.7" y1="6.5" x2="40.7" y2="2.9"/>
	</g>
	<line class="st1" x1="44.5" y1="1.1" x2="44.5" y2="15.7"/>
	<g>
		<line class="st1" x1="48.3" y1="2.9" x2="48.3" y2="5.1"/>
		<line class="st1" x1="48.3" y1="5.9" x2="48.3" y2="11.8"/>
		<line class="st1" x1="48.3" y1="12.5" x2="48.3" y2="14"/>
	</g>
	<g>
		<line class="st1" x1="58.1" y1="25.1" x2="58.1" y2="14.2"/>
		<line class="st1" x1="58.1" y1="13.6" x2="58.1" y2="13"/>
	</g>
	<g>
		<line class="st1" x1="57" y1="31.1" x2="58.8" y2="29.3"/>
		<line class="st1" x1="57" y1="29.3" x2="58.8" y2="31.1"/>
	</g>
	<line class="st1" x1="61" y1="30.4" x2="61" y2="24.2"/>
	<line class="st1" x1="31.5" y1="28.9" x2="31.5" y2="18"/>
	<line class="st1" x1="34" y1="18.5" x2="34" y2="7.5"/>
	<line class="st1" x1="31.5" y1="16.8" x2="31.5" y2="16"/>
	<line class="st1" x1="29.1" y1="32.6" x2="29.1" y2="27.8"/>
	<g>
		<g>
			<line class="st1" x1="52.2" y1="16.2" x2="53" y2="15.4"/>
			<line class="st1" x1="53.6" y1="14.8" x2="54.4" y2="14"/>
		</g>
		<g>
			<line class="st1" x1="54.4" y1="16.2" x2="53.6" y2="15.4"/>
			<line class="st1" x1="53" y1="14.8" x2="52.2" y2="14"/>
		</g>
	</g>
	<g>
		<g>
			<line class="st1" x1="28.4" y1="24.7" x2="28.9" y2="24.2"/>
			<line class="st1" x1="29.3" y1="23.8" x2="29.9" y2="23.2"/>
		</g>
		<g>
			<line class="st1" x1="29.9" y1="24.7" x2="29.3" y2="24.2"/>
			<line class="st1" x1="28.9" y1="23.8" x2="28.4" y2="23.2"/>
		</g>
	</g>
	<line class="st1" x1="61" y1="23.3" x2="61" y2="21.5"/>
</g>
</svg>
