<?xml version="1.0" encoding="utf-8"?>
<!-- Generator: Adobe Illustrator 19.2.1, SVG Export Plug-In . SVG Version: 6.00 Build 0)  -->
<svg version="1.1" id="Layer_1" xmlns="http://www.w3.org/2000/svg" xmlns:xlink="http://www.w3.org/1999/xlink" x="0px" y="0px"
	 viewBox="0 0 79.4 79.4" style="enable-background:new 0 0 79.4 79.4;" xml:space="preserve">
<style type="text/css">
	.st0{fill:none;}
	.st1{fill:#010101;}
	.st2{fill:#FBAA19;}
	.st3{fill:url(#SVGID_1_);}
	.st4{fill:#79BEC0;}
	.st5{fill:none;stroke:#231F20;stroke-width:0.6902;stroke-miterlimit:10;}
	.st6{fill:none;stroke:#79BEC0;stroke-width:2.3005;stroke-miterlimit:10;}
	.st7{fill:#231F20;}
</style>
<pattern  y="79.4" width="61.4" height="61.4" patternUnits="userSpaceOnUse" id="SVGID_15_" viewBox="0 -61.4 61.4 61.4" style="overflow:visible;">
	<g>
		<rect y="-61.4" class="st0" width="61.4" height="61.4"/>
		<g>
			<rect y="-61.4" class="st0" width="61.4" height="61.4"/>
			<rect y="-61.4" class="st1" width="61.4" height="61.4"/>
		</g>
	</g>
</pattern>
<g>
	<path class="st2" d="M25.7,19.3c-13.9,0-25.2,11.3-25.2,25.2s11.3,25.2,25.2,25.2s25.2-11.3,25.2-25.2S39.6,19.3,25.7,19.3z
		 M27.7,46.5c-1.4,0-2.5-1.1-2.5-2.5s1.1-2.5,2.5-2.5s2.5,1.1,2.5,2.5S29.1,46.5,27.7,46.5z"/>
	<g>
		<rect x="21.6" y="9.6" class="st2" width="13" height="4.4"/>
		<g>
			<pattern  id="SVGID_1_" xlink:href="#SVGID_15_" patternTransform="matrix(0.2301 0 0 -0.2301 -12361.1533 -3213.3557)">
			</pattern>
			<circle class="st3" cx="27.7" cy="22.9" r="1.1"/>
		</g>
		<path class="st4" d="M25.7,19.3v23.2c0.5-0.6,1.2-1,2-1c1.4,0,2.5,1.1,2.5,2.5s-1.1,2.5-2.5,2.5c-0.3,0-0.5,0-0.7-0.1l13.5,18.5
			c6.3-4.6,10.5-12,10.5-20.4C50.9,30.5,39.6,19.3,25.7,19.3z M39.5,26.3c-0.3,0.5-1,0.7-1.5,0.4c-0.5-0.3-0.7-1-0.4-1.5
			s1-0.7,1.5-0.4S39.8,25.8,39.5,26.3z M47.4,55.8c-0.3,0.5-1,0.7-1.5,0.4s-0.7-1-0.4-1.5s1-0.7,1.5-0.4S47.7,55.3,47.4,55.8z
			 M47,34.6c-0.5,0.3-1.2,0.1-1.5-0.4s-0.1-1.2,0.4-1.5s1.2-0.1,1.5,0.4S47.5,34.3,47,34.6z M49.3,45.6c-0.6,0-1.1-0.5-1.1-1.1
			s0.5-1.1,1.1-1.1s1.1,0.5,1.1,1.1S49.9,45.6,49.3,45.6z"/>
		<circle class="st5" cx="27.8" cy="44" r="2.7"/>
		<line class="st5" x1="52.4" y1="39.1" x2="58.6" y2="39.1"/>
		<line class="st5" x1="61.5" y1="39.1" x2="64.2" y2="39.1"/>
		<line class="st5" x1="58.3" y1="44.3" x2="65.9" y2="44.3"/>
		<line class="st5" x1="67.9" y1="44.3" x2="76.2" y2="44.3"/>
		<line class="st5" x1="52.4" y1="49.7" x2="56" y2="49.7"/>
		<line class="st5" x1="57.8" y1="49.7" x2="66.5" y2="49.7"/>
		<g>
			<g>
				<line class="st5" x1="50.2" y1="33.1" x2="65" y2="33.1"/>
				<line class="st5" x1="69.6" y1="33.1" x2="75" y2="33.1"/>
				<line class="st5" x1="50.2" y1="33.1" x2="66.2" y2="33.1"/>
			</g>
		</g>
		<line class="st5" x1="68.1" y1="49.7" x2="70.1" y2="49.7"/>
		<g>
			<line class="st5" x1="49.6" y1="57" x2="69" y2="57"/>
			<line class="st5" x1="71.4" y1="57" x2="76.8" y2="57"/>
			<line class="st5" x1="77.6" y1="57" x2="78.9" y2="57"/>
		</g>
		<line class="st5" x1="56.9" y1="44.3" x2="55.7" y2="44.3"/>
		<g>
			<line class="st5" x1="28.1" y1="14" x2="28.1" y2="18.9"/>
			<line class="st5" x1="8.1" y1="21.4" x2="11.1" y2="25.3"/>
			<line class="st5" x1="47.5" y1="21.4" x2="44.5" y2="25.3"/>
			<g>
				<path class="st5" d="M50.5,33.3c-4.1-8.4-12.8-14.2-22.7-14.2c-14,0-25.3,11.3-25.3,25.3s11.3,25.3,25.3,25.3
					c9.5,0,17.8-5.2,22.1-13"/>
			</g>
		</g>
		<line class="st6" x1="49.9" y1="23.6" x2="44.7" y2="19.3"/>
		<line class="st6" x1="5.5" y1="23.6" x2="10.8" y2="19.3"/>
	</g>
</g>
<circle class="st7" cx="16.9" cy="25.8" r="1.1"/>
<circle class="st7" cx="9" cy="33.7" r="1.1"/>
<circle class="st7" cx="6.1" cy="44.5" r="1.1"/>
<circle class="st7" cx="9" cy="55.3" r="1.1"/>
<circle class="st7" cx="16.9" cy="63.2" r="1.1"/>
<circle class="st7" cx="27.7" cy="66.1" r="1.1"/>
<circle class="st7" cx="38.5" cy="63.2" r="1.1"/>
</svg>
