<?xml version="1.0" encoding="utf-8"?>
<!-- Generator: Adobe Illustrator 20.0.0, SVG Export Plug-In . SVG Version: 6.00 Build 0)  -->
<svg version="1.1" id="Layer_1" xmlns="http://www.w3.org/2000/svg" xmlns:xlink="http://www.w3.org/1999/xlink" x="0px" y="0px"
	 viewBox="0 0 634.1 670.5" style="enable-background:new 0 0 634.1 670.5;" xml:space="preserve">
<style type="text/css">
	.st0{fill:none;stroke:#000000;stroke-width:1.0387;stroke-miterlimit:10;}
	.st1{fill:none;stroke:#000000;stroke-miterlimit:10;}
	.st2{fill:none;stroke:#000000;stroke-width:0.3639;stroke-miterlimit:10;}
	.st3{fill:#FFFFFF;}
	.st4{fill:#CFCDCD;}
	.st5{fill:#C9E9E6;}
	.st6{fill:#FFFFFF;stroke:#000000;stroke-width:2.3369;stroke-miterlimit:10;}
	.st7{fill:#FFE06A;}
	.st8{fill:none;stroke:#000000;stroke-width:2.3369;stroke-linecap:round;stroke-linejoin:round;stroke-miterlimit:10;}
	.st9{fill:#27BDBE;}
	.st10{fill:none;stroke:#27BDBE;stroke-width:4.6884;stroke-miterlimit:10;}
	.st11{fill:none;stroke:#000000;stroke-width:2.3369;stroke-miterlimit:10;}
	.st12{fill:#ECF8FE;}
	.st13{fill:none;stroke:#000000;stroke-width:2.1058;stroke-miterlimit:10;}
	.st14{fill:none;stroke:#000000;stroke-width:1.9613;stroke-miterlimit:10;}
	.st15{fill:#FFFFFF;stroke:#000000;stroke-width:2.1058;stroke-miterlimit:10;}
	.st16{fill:none;stroke:#000000;stroke-width:1.0529;stroke-miterlimit:10;}
	.st17{fill:#FFFFFF;stroke:#000000;stroke-width:1.5873;stroke-miterlimit:10;}
	.st18{fill:none;stroke:#000000;stroke-width:1.5873;stroke-linecap:round;stroke-linejoin:round;stroke-miterlimit:10;}
	.st19{fill:none;stroke:#000000;stroke-width:0.8323;stroke-linecap:round;stroke-linejoin:round;stroke-miterlimit:10;}
	.st20{fill:#D9D9D9;}
	.st21{fill:#BFBFBF;}
	.st22{fill:#999999;}
	.st23{fill:none;stroke:#000000;stroke-width:0.8889;stroke-miterlimit:10;}
	.st24{fill:none;stroke:#FFFFFF;stroke-miterlimit:10;}
</style>
<g>
	<g>
		<g>
			<path d="M113.6,241.7c-0.1,0-0.1-0.1-0.2-0.2l-3.6-10.5c-0.1-0.1,0-0.2,0.1-0.2h0.6c0.1,0,0.2,0,0.2,0.2l3.2,9.2h0l3.1-9.2
				c0-0.1,0.1-0.2,0.2-0.2h0.6c0.1,0,0.2,0.1,0.1,0.2l-3.6,10.5c0,0.1-0.1,0.2-0.2,0.2H113.6z"/>
			<path d="M121.2,231c0-0.1,0.1-0.2,0.2-0.2h0.6c0.1,0,0.2,0.1,0.2,0.2v10.6c0,0.1-0.1,0.2-0.2,0.2h-0.6c-0.1,0-0.2-0.1-0.2-0.2
				V231z"/>
			<path d="M125.9,240.6c-0.1-0.1-0.1-0.2,0-0.2l0.4-0.5c0.1-0.1,0.2-0.1,0.2,0c0.7,0.6,1.9,1.1,3.1,1.1c1.7,0,2.8-0.9,2.8-2.2
				c0-1.1-0.6-1.9-2.6-2.1l-0.5-0.1c-2.1-0.3-3.1-1.3-3.1-2.9c0-1.9,1.3-3.1,3.4-3.1c1.2,0,2.4,0.4,3.1,0.9c0.1,0,0.1,0.1,0,0.2
				l-0.3,0.5c-0.1,0.1-0.1,0.1-0.2,0c-0.9-0.5-1.7-0.8-2.6-0.8c-1.6,0-2.5,0.9-2.5,2.1c0,1.1,0.7,1.8,2.6,2.1l0.5,0.1
				c2.2,0.3,3.2,1.3,3.2,2.9c0,1.8-1.3,3.2-3.8,3.2C128.1,241.8,126.7,241.2,125.9,240.6z"/>
			<path d="M138,237.9c0,2,1,3,2.8,3c1.7,0,2.8-1,2.8-3v-7c0-0.1,0.1-0.2,0.2-0.2h0.6c0.1,0,0.2,0.1,0.2,0.2v7
				c0,2.7-1.4,3.9-3.7,3.9c-2.2,0-3.7-1.3-3.7-3.9v-7c0-0.1,0.1-0.2,0.2-0.2h0.6c0.1,0,0.2,0.1,0.2,0.2V237.9z"/>
			<path d="M151.3,231c0-0.1,0.1-0.2,0.2-0.2h0.6c0.1,0,0.2,0.1,0.2,0.2l3.8,10.6c0,0.1,0,0.2-0.1,0.2h-0.6c-0.1,0-0.2,0-0.2-0.2
				l-1-2.7h-4.7l-1,2.7c0,0.1-0.1,0.2-0.2,0.2h-0.6c-0.1,0-0.1-0.1-0.1-0.2L151.3,231z M153.8,238l-2-5.7h0l-2,5.7H153.8z"/>
			<path d="M159.3,231c0-0.1,0.1-0.2,0.2-0.2h0.6c0.1,0,0.2,0.1,0.2,0.2v9.8c0,0.1,0,0.1,0.1,0.1h5.4c0.1,0,0.2,0.1,0.2,0.2v0.5
				c0,0.1-0.1,0.2-0.2,0.2h-6.2c-0.1,0-0.2-0.1-0.2-0.2V231z"/>
			<path d="M98.2,252.7c0-0.1,0.1-0.2,0.2-0.2h3.6c2.1,0,3.2,1.1,3.2,2.8c0,1.3-0.7,2.1-1.7,2.4v0c0.8,0.2,1.9,1,1.9,2.6
				c0,1.9-1.2,3-3.3,3h-3.6c-0.1,0-0.2-0.1-0.2-0.2V252.7z M102,257.5c1.5,0,2.3-0.8,2.3-2c0-1.2-0.8-2-2.3-2h-2.8
				c-0.1,0-0.1,0-0.1,0.1v3.9c0,0.1,0,0.1,0.1,0.1H102z M99.2,262.6h2.9c1.6,0,2.4-0.8,2.4-2.1c0-1.3-0.8-2.1-2.4-2.1h-2.9
				c-0.1,0-0.1,0-0.1,0.1L99.2,262.6C99.1,262.5,99.1,262.6,99.2,262.6z"/>
			<path d="M115.5,263.4c-0.1,0-0.1,0-0.2-0.1l-2.3-4.7h-0.2h-2.8c-0.1,0-0.1,0-0.1,0.1v4.6c0,0.1-0.1,0.2-0.2,0.2h-0.6
				c-0.1,0-0.2-0.1-0.2-0.2v-10.6c0-0.1,0.1-0.2,0.2-0.2h3.6c2,0,3.3,1.2,3.3,3c0,1.5-0.8,2.5-2.2,2.9l2.4,4.8
				c0.1,0.1,0,0.2-0.1,0.2H115.5z M115.3,255.6c0-1.4-0.9-2.1-2.4-2.1h-2.8c-0.1,0-0.1,0-0.1,0.1v4.1c0,0.1,0,0.1,0.1,0.1h2.8
				C114.4,257.7,115.3,256.9,115.3,255.6z"/>
			<path d="M123,252.7c0-0.1,0.1-0.2,0.2-0.2h0.6c0.1,0,0.2,0.1,0.2,0.2l3.8,10.6c0,0.1,0,0.2-0.1,0.2H127c-0.1,0-0.2,0-0.2-0.2
				l-1-2.7h-4.7l-1,2.7c0,0.1-0.1,0.2-0.2,0.2h-0.6c-0.1,0-0.1-0.1-0.1-0.2L123,252.7z M125.5,259.7l-2-5.7h0l-2,5.7H125.5z"/>
			<path d="M131,252.7c0-0.1,0.1-0.2,0.2-0.2h0.6c0.1,0,0.2,0,0.3,0.2l5.4,8.9h0v-8.9c0-0.1,0.1-0.2,0.2-0.2h0.6
				c0.1,0,0.2,0.1,0.2,0.2v10.6c0,0.1-0.1,0.2-0.2,0.2h-0.6c-0.1,0-0.2,0-0.3-0.2l-5.4-9h-0.1v9c0,0.1-0.1,0.2-0.2,0.2h-0.6
				c-0.1,0-0.2-0.1-0.2-0.2V252.7z"/>
			<path d="M142.7,252.7c0-0.1,0.1-0.2,0.2-0.2h3.4c1.8,0,3,0.7,3.5,2.2c0.2,0.6,0.3,1.2,0.3,3.2c0,2-0.1,2.6-0.3,3.2
				c-0.5,1.5-1.7,2.2-3.5,2.2h-3.4c-0.1,0-0.2-0.1-0.2-0.2V252.7z M143.7,262.6h2.4c1.4,0,2.3-0.5,2.7-1.6c0.2-0.5,0.3-1.1,0.3-2.9
				c0-1.8-0.1-2.4-0.3-2.9c-0.4-1.2-1.3-1.6-2.7-1.6h-2.4c-0.1,0-0.1,0-0.1,0.1L143.7,262.6C143.6,262.5,143.6,262.6,143.7,262.6z"
				/>
			<path d="M153.9,252.7c0-0.1,0.1-0.2,0.2-0.2h0.6c0.1,0,0.2,0.1,0.2,0.2v10.6c0,0.1-0.1,0.2-0.2,0.2h-0.6c-0.1,0-0.2-0.1-0.2-0.2
				V252.7z"/>
			<path d="M159.1,252.7c0-0.1,0.1-0.2,0.2-0.2h0.6c0.1,0,0.2,0,0.3,0.2l5.4,8.9h0v-8.9c0-0.1,0.1-0.2,0.2-0.2h0.6
				c0.1,0,0.2,0.1,0.2,0.2v10.6c0,0.1-0.1,0.2-0.2,0.2h-0.6c-0.1,0-0.2,0-0.3-0.2l-5.4-9H160v9c0,0.1-0.1,0.2-0.2,0.2h-0.6
				c-0.1,0-0.2-0.1-0.2-0.2V252.7z"/>
			<path d="M170.3,258c0-1.9,0.1-2.6,0.3-3.2c0.5-1.6,1.8-2.4,3.6-2.4c1.8,0,2.9,0.9,3.4,2c0,0.1,0,0.2-0.1,0.2l-0.5,0.3
				c-0.1,0-0.2,0-0.2-0.1c-0.5-1-1.3-1.6-2.6-1.6c-1.3,0-2.3,0.6-2.7,1.8c-0.1,0.4-0.3,1.1-0.3,2.9c0,1.8,0.1,2.5,0.3,2.9
				c0.4,1.2,1.3,1.8,2.7,1.8c1.3,0,2.3-0.6,2.7-1.8c0.1-0.4,0.3-1,0.3-2.1c0-0.1,0-0.1-0.1-0.1h-2.5c-0.1,0-0.2-0.1-0.2-0.2v-0.5
				c0-0.1,0.1-0.2,0.2-0.2h3.3c0.1,0,0.2,0.1,0.2,0.2v0.7c0,1.1-0.1,1.9-0.3,2.4c-0.5,1.6-1.8,2.5-3.5,2.5c-1.8,0-3-0.8-3.6-2.4
				C170.5,260.6,170.3,259.9,170.3,258z"/>
		</g>
	</g>
	<g>
		<circle class="st20" cx="70.8" cy="167.8" r="2.5"/>
		<circle class="st20" cx="51.8" cy="177.3" r="9.6"/>
		<circle class="st20" cx="64.4" cy="40.6" r="3.8"/>
		<circle class="st20" cx="226.1" cy="133.1" r="3.4"/>
		<path class="st20" d="M234.7,45.1c0,4.8-3.9,8.7-8.7,8.7c-4.8,0-8.7-3.9-8.7-8.7c0-4.8,3.9-8.7,8.7-8.7
			C230.8,36.4,234.7,40.3,234.7,45.1z"/>
		<circle class="st6" cx="136" cy="109.5" r="31.1"/>
		<circle class="st21" cx="137.6" cy="106.4" r="27.5"/>
		<path class="st8" d="M79.7,109.5c0,0,30.1-37.4,64.5-30.2c34.7,7.3,48.2,30.2,48.2,30.2s-16.3,24.1-45,30.2
			C112.8,147,79.7,109.5,79.7,109.5z"/>
		<path class="st6" d="M115.8,109.5c0,11.2,9,20.2,20.2,20.2c11.2,0,20.2-9,20.2-20.2c0-11.2-9-20.2-20.2-20.2"/>
		<path class="st22" d="M147.3,98.2c2.9,2.9,4.7,6.9,4.7,11.3c0,8.8-7.1,16-16,16c-8.8,0-16-7.1-16-16c0-8.8,7.1-16,16-16
			C140.4,93.6,144.4,95.4,147.3,98.2"/>
		<path class="st6" d="M132.9,89.6v16.9h-16.8C116.1,106.4,117.8,92.3,132.9,89.6z"/>
		<path d="M137.6,49.5c-0.6,0-1.2-0.5-1.2-1.2V29.1c0-0.6,0.5-1.2,1.2-1.2c0.6,0,1.2,0.5,1.2,1.2v19.2
			C138.8,49,138.3,49.5,137.6,49.5z"/>
		<path d="M168.5,58.8c-0.2,0-0.4-0.1-0.6-0.2c-0.6-0.3-0.7-1-0.4-1.6l9.7-16.5c0.3-0.6,1-0.7,1.6-0.4c0.6,0.3,0.7,1,0.4,1.6
			l-9.7,16.5C169.3,58.6,168.9,58.8,168.5,58.8z"/>
		<path d="M190.4,82.4c-0.4,0-0.8-0.2-1-0.6c-0.3-0.6-0.1-1.3,0.5-1.6l16.8-9.3c0.6-0.3,1.3-0.1,1.6,0.5c0.3,0.6,0.1,1.3-0.5,1.6
			l-16.8,9.3C190.7,82.4,190.5,82.4,190.4,82.4z"/>
		<path d="M209.2,150.1c-0.2,0-0.3,0-0.5-0.1l-17.3-8.3c-0.6-0.3-0.8-1-0.5-1.6c0.3-0.6,1-0.8,1.6-0.5l17.3,8.3
			c0.6,0.3,0.8,1,0.5,1.6C210.1,149.8,209.6,150.1,209.2,150.1z"/>
		<path d="M180.9,181.6c-0.4,0-0.7-0.2-1-0.5l-10.7-15.9c-0.4-0.5-0.2-1.3,0.3-1.6c0.5-0.4,1.3-0.2,1.6,0.3l10.7,15.9
			c0.4,0.5,0.2,1.3-0.3,1.6C181.4,181.5,181.1,181.6,180.9,181.6z"/>
		<path d="M81.8,83.4c-0.2,0-0.4,0-0.5-0.1l-17-8.9c-0.6-0.3-0.8-1-0.5-1.6c0.3-0.6,1-0.8,1.6-0.5l17,8.9c0.6,0.3,0.8,1,0.5,1.6
			C82.7,83.2,82.3,83.4,81.8,83.4z"/>
		<path d="M104.4,60.4c-0.4,0-0.8-0.2-1-0.6L93.2,43.5c-0.3-0.5-0.2-1.3,0.4-1.6c0.5-0.3,1.3-0.2,1.6,0.4l10.1,16.3
			c0.3,0.5,0.2,1.3-0.4,1.6C104.8,60.3,104.6,60.4,104.4,60.4z"/>
		<path d="M97.4,179.2c-0.2,0-0.4-0.1-0.6-0.2c-0.6-0.3-0.7-1-0.4-1.6l9.7-16.5c0.3-0.6,1-0.7,1.6-0.4c0.6,0.3,0.7,1,0.4,1.6
			l-9.7,16.5C98.2,179,97.8,179.2,97.4,179.2z"/>
		<path d="M68.5,148.3c-0.4,0-0.8-0.2-1-0.6c-0.3-0.6-0.1-1.3,0.5-1.6l16.8-9.3c0.6-0.3,1.3-0.1,1.6,0.5c0.3,0.6,0.1,1.3-0.5,1.6
			L69,148.1C68.9,148.2,68.7,148.3,68.5,148.3z"/>
		<path d="M137.6,191.5c-0.6,0-1.2-0.5-1.2-1.2v-19.2c0-0.6,0.5-1.2,1.2-1.2c0.6,0,1.2,0.5,1.2,1.2v19.2
			C138.8,191,138.3,191.5,137.6,191.5z"/>
		<path d="M226.1,110.7h-19.2c-0.6,0-1.2-0.5-1.2-1.2s0.5-1.2,1.2-1.2h19.2c0.6,0,1.2,0.5,1.2,1.2S226.7,110.7,226.1,110.7z"/>
		<path d="M64.4,110.7H45.2c-0.6,0-1.2-0.5-1.2-1.2s0.5-1.2,1.2-1.2h19.2c0.6,0,1.2,0.5,1.2,1.2S65,110.7,64.4,110.7z"/>
	</g>
	<rect x="431.4" y="84.4" class="st4" width="12.6" height="28.7"/>
	<rect x="423.5" y="87.9" class="st21" width="8" height="20.8"/>
	<rect x="523.9" y="62.6" class="st22" width="4.7" height="69"/>
	<rect x="434.6" y="134" class="st22" width="7.8" height="31.2"/>
	<rect x="448.1" y="80.7" class="st21" width="34.4" height="35.3"/>
	
		<rect x="459.1" y="116" transform="matrix(0.9997 2.454769e-02 -2.454769e-02 0.9997 3.6526 -11.3986)" class="st3" width="14" height="54.1"/>
	<path d="M473.6,171.5l-16.3-0.4l1.4-56.5L475,115L473.6,171.5z M459.6,168.8l11.7,0.3l1.3-51.8l-11.7-0.3L459.6,168.8z"/>
	<path class="st3" d="M465.7,131h16.8c0,0,5.6-0.6,6.4,3.1c0,0,1.1,4.4-4.8,5c0,0,6.5-0.3,6.9,3.1c0.3,3.4-1.8,5-6.7,5.1
		c0,0,6.1-0.2,6.3,3.3c0.2,3.5-4,4.3-6,4.2c0,0,5.1,0.7,5,4.6c-0.1,2.5-1.6,5.4-11.6,4.7l-32.9,0.2v-29.1h6.7c0,0-0.6-8.9,6.6-10.3
		v6.2L465.7,131z"/>
	<path d="M443.8,165.4v-31.5h6.7c0.1-3.6,1.8-9.1,7.6-10.3l1.4-0.3v6.5l23,0c0.7-0.1,6.6-0.4,7.6,4c0,0,0.5,2.1-0.7,3.9
		c-0.2,0.3-0.4,0.5-0.6,0.7c1.7,0.5,3.2,1.6,3.4,3.6c0.2,1.7-0.2,3.1-1.2,4.2c-0.4,0.4-0.8,0.7-1.3,1c1.1,0.7,1.9,1.7,2,3.2
		c0.1,1.4-0.4,2.6-1.3,3.5c-0.5,0.5-1.1,0.9-1.7,1.1c1.2,0.9,2.1,2.3,2.1,4.2c0,1.5-0.6,2.8-1.6,3.7c-1.9,1.8-5.6,2.5-11.2,2.1
		L443.8,165.4z M446.2,136.3v26.8l31.8-0.2c6.1,0.4,8.6-0.6,9.6-1.5c0.6-0.5,0.8-1.2,0.9-2.1c0.1-2.8-3.8-3.4-4-3.4l0.2-2.3
		c1.1,0.1,3.1-0.2,4.1-1.2c0.5-0.5,0.7-1,0.6-1.7c-0.1-2.1-4.4-2.2-5-2.2c0,0-0.1,0-0.1,0l0-2.3c0.1,0,0.2,0,0.4,0
		c2.3-0.1,3.9-0.5,4.7-1.4c0.5-0.6,0.7-1.3,0.6-2.4c-0.2-1.9-4.5-2.1-5.7-2L484,138c1.7-0.2,2.8-0.7,3.4-1.5c0.6-0.9,0.4-2,0.4-2
		c-0.6-2.7-5.1-2.2-5.1-2.2l-0.1,0l-25.4,0v-5.8c-4.6,2-4.3,8.4-4.3,8.7l0.1,1.2L446.2,136.3z"/>
	<path d="M449.3,114.2h-19V82.5h19V114.2z M432.6,111.9H447V84.8h-14.4V111.9z"/>
	<path d="M432.6,109.9h-10.3V86.8h10.3V109.9z M424.6,107.6h5.6V89.1h-5.6V107.6z"/>
	<path d="M536.2,136.4l-54.8-22.3V81.4l54.8-24.9V136.4z M483.7,112.5l50.2,20.4V60.1l-50.2,22.8V112.5z"/>
	<path d="M553,69.2c-0.4,0-0.8-0.2-1-0.6c-0.3-0.6-0.2-1.3,0.4-1.6l31.3-18.9c0.6-0.3,1.3-0.2,1.6,0.4c0.3,0.6,0.2,1.3-0.4,1.6
		l-31.3,18.9C553.4,69.2,553.2,69.2,553,69.2z"/>
	<path d="M590.6,94.3C590.6,94.3,590.6,94.3,590.6,94.3l-36.6-0.2c-0.6,0-1.2-0.5-1.2-1.2c0-0.6,0.5-1.2,1.2-1.2c0,0,0,0,0,0
		l36.5,0.2c0.6,0,1.2,0.5,1.2,1.2C591.8,93.8,591.3,94.3,590.6,94.3z"/>
	<path d="M587.2,138.2c-0.2,0-0.4-0.1-0.6-0.2L555.3,119c-0.6-0.3-0.7-1.1-0.4-1.6c0.3-0.6,1.1-0.7,1.6-0.4l31.3,18.9
		c0.6,0.3,0.7,1.1,0.4,1.6C588,138,587.6,138.2,587.2,138.2z"/>
	<path class="st22" d="M426.3,94.2V93c0-0.2,0.2-0.4,0.4-0.4h1.2c0.2,0,0.4,0.2,0.4,0.4v1.2c0,0.2-0.2,0.4-0.4,0.4h-1.2
		C426.5,94.6,426.3,94.4,426.3,94.2z"/>
	<path class="st22" d="M426.3,99.2V98c0-0.2,0.2-0.4,0.4-0.4h1.2c0.2,0,0.4,0.2,0.4,0.4v1.2c0,0.2-0.2,0.4-0.4,0.4h-1.2
		C426.5,99.6,426.3,99.4,426.3,99.2z"/>
	<path class="st22" d="M426.3,104.2V103c0-0.2,0.2-0.4,0.4-0.4h1.2c0.2,0,0.4,0.2,0.4,0.4v1.2c0,0.2-0.2,0.4-0.4,0.4h-1.2
		C426.5,104.6,426.3,104.4,426.3,104.2z"/>
	<path d="M483.7,117.2H447V79.5h36.7V117.2z M449.3,114.8h32v-33h-32V114.8z"/>
	<rect x="497.6" y="164" width="2.3" height="6.4"/>
	<rect x="504.1" y="161.6" width="2.3" height="8.8"/>
	<rect x="510.6" y="159.1" width="2.3" height="11.2"/>
	<rect x="517.1" y="156.3" width="2.3" height="14.1"/>
	<rect x="523.6" y="159.1" width="2.3" height="11.2"/>
	<rect x="530.1" y="162.2" width="2.3" height="8.2"/>
	<rect x="536.6" y="155.5" width="2.3" height="14.8"/>
	<rect x="543.1" y="150.2" width="2.3" height="20.1"/>
	<rect x="549.5" y="144.8" width="2.3" height="25.6"/>
	<rect x="556" y="138.4" width="2.3" height="31.9"/>
	<rect x="562.5" y="144.8" width="2.3" height="25.6"/>
	<rect x="569" y="151.9" width="2.3" height="18.5"/>
	<g>
		<path d="M467.1,241.7c-0.1,0-0.2-0.1-0.2-0.2v-9.8c0-0.1,0-0.1-0.1-0.1h-3.1c-0.1,0-0.2-0.1-0.2-0.2V231c0-0.1,0.1-0.2,0.2-0.2
			h7.4c0.1,0,0.2,0.1,0.2,0.2v0.5c0,0.1-0.1,0.2-0.2,0.2H468c-0.1,0-0.1,0-0.1,0.1v9.8c0,0.1-0.1,0.2-0.2,0.2H467.1z"/>
		<path d="M474.7,231c0-0.1,0.1-0.2,0.2-0.2h0.6c0.1,0,0.2,0.1,0.2,0.2v4.7c0,0.1,0,0.1,0.1,0.1h5.4c0.1,0,0.1,0,0.1-0.1V231
			c0-0.1,0.1-0.2,0.2-0.2h0.6c0.1,0,0.2,0.1,0.2,0.2v10.6c0,0.1-0.1,0.2-0.2,0.2h-0.6c-0.1,0-0.2-0.1-0.2-0.2v-4.8
			c0-0.1,0-0.1-0.1-0.1h-5.4c-0.1,0-0.1,0-0.1,0.1v4.8c0,0.1-0.1,0.2-0.2,0.2h-0.6c-0.1,0-0.2-0.1-0.2-0.2V231z"/>
		<path d="M486.7,231c0-0.1,0.1-0.2,0.2-0.2h6.2c0.1,0,0.2,0.1,0.2,0.2v0.5c0,0.1-0.1,0.2-0.2,0.2h-5.4c-0.1,0-0.1,0-0.1,0.1v3.9
			c0,0.1,0,0.1,0.1,0.1h4.6c0.1,0,0.2,0.1,0.2,0.2v0.5c0,0.1-0.1,0.2-0.2,0.2h-4.6c-0.1,0-0.1,0-0.1,0.1v4c0,0.1,0,0.1,0.1,0.1h5.4
			c0.1,0,0.2,0.1,0.2,0.2v0.5c0,0.1-0.1,0.2-0.2,0.2h-6.2c-0.1,0-0.2-0.1-0.2-0.2V231z"/>
		<path d="M497.2,231c0-0.1,0.1-0.2,0.2-0.2h0.6c0.1,0,0.2,0,0.2,0.2l3.5,7.8h0.1l3.5-7.8c0-0.1,0.1-0.2,0.2-0.2h0.6
			c0.1,0,0.2,0.1,0.2,0.2v10.6c0,0.1-0.1,0.2-0.2,0.2h-0.6c-0.1,0-0.2-0.1-0.2-0.2V233h0l-3.1,6.9c-0.1,0.1-0.1,0.2-0.3,0.2h-0.3
			c-0.1,0-0.2,0-0.3-0.2l-3.1-6.9h0v8.5c0,0.1-0.1,0.2-0.2,0.2h-0.6c-0.1,0-0.2-0.1-0.2-0.2V231z"/>
		<path d="M513.7,231c0-0.1,0.1-0.2,0.2-0.2h0.6c0.1,0,0.2,0.1,0.2,0.2l3.8,10.6c0,0.1,0,0.2-0.1,0.2h-0.6c-0.1,0-0.2,0-0.2-0.2
			l-1-2.7h-4.7l-1,2.7c0,0.1-0.1,0.2-0.2,0.2H510c-0.1,0-0.1-0.1-0.1-0.2L513.7,231z M516.2,238l-2-5.7h0l-2,5.7H516.2z"/>
		<path d="M523.2,241.7c-0.1,0-0.2-0.1-0.2-0.2v-9.8c0-0.1,0-0.1-0.1-0.1h-3.1c-0.1,0-0.2-0.1-0.2-0.2V231c0-0.1,0.1-0.2,0.2-0.2
			h7.4c0.1,0,0.2,0.1,0.2,0.2v0.5c0,0.1-0.1,0.2-0.2,0.2h-3.1c-0.1,0-0.1,0-0.1,0.1v9.8c0,0.1-0.1,0.2-0.2,0.2H523.2z"/>
		<path d="M530.8,231c0-0.1,0.1-0.2,0.2-0.2h0.6c0.1,0,0.2,0.1,0.2,0.2v10.6c0,0.1-0.1,0.2-0.2,0.2H531c-0.1,0-0.2-0.1-0.2-0.2V231z
			"/>
		<path d="M535.9,236.2c0-1.9,0.1-2.6,0.3-3.2c0.5-1.6,1.7-2.4,3.4-2.4c1.5,0,2.7,0.7,3.3,2c0,0.1,0,0.2,0,0.2l-0.5,0.3
			c-0.1,0-0.2,0-0.2-0.1c-0.5-0.9-1.3-1.6-2.5-1.6c-1.3,0-2.1,0.6-2.6,1.8c-0.1,0.4-0.2,1.1-0.2,2.9c0,1.8,0.1,2.5,0.2,2.9
			c0.4,1.2,1.2,1.8,2.6,1.8c1.2,0,2-0.6,2.5-1.6c0-0.1,0.1-0.1,0.2-0.1l0.5,0.3c0.1,0,0.1,0.1,0,0.2c-0.6,1.3-1.8,2-3.3,2
			c-1.7,0-2.9-0.8-3.4-2.4C536,238.9,535.9,238.1,535.9,236.2z"/>
		<path d="M431.7,258c0-1.9,0.1-2.6,0.3-3.2c0.5-1.6,1.7-2.4,3.4-2.4c1.5,0,2.7,0.7,3.3,2c0,0.1,0,0.2,0,0.2l-0.5,0.3
			c-0.1,0-0.2,0-0.2-0.1c-0.5-0.9-1.3-1.6-2.5-1.6c-1.3,0-2.1,0.6-2.6,1.8c-0.1,0.4-0.2,1.1-0.2,2.9c0,1.8,0.1,2.5,0.2,2.9
			c0.4,1.2,1.2,1.8,2.6,1.8c1.2,0,2-0.6,2.5-1.6c0-0.1,0.1-0.1,0.2-0.1l0.5,0.3c0.1,0,0.1,0.1,0,0.2c-0.6,1.3-1.8,2-3.3,2
			c-1.7,0-2.9-0.8-3.4-2.4C431.8,260.6,431.7,259.9,431.7,258z"/>
		<path d="M445.4,252.7c0-0.1,0.1-0.2,0.2-0.2h0.6c0.1,0,0.2,0.1,0.2,0.2l3.8,10.6c0,0.1,0,0.2-0.1,0.2h-0.6c-0.1,0-0.2,0-0.2-0.2
			l-1-2.7h-4.7l-1,2.7c0,0.1-0.1,0.2-0.2,0.2h-0.6c-0.1,0-0.1-0.1-0.1-0.2L445.4,252.7z M448,259.7l-2-5.7h0l-2,5.7H448z"/>
		<path d="M453.8,252.7c0-0.1,0.1-0.2,0.2-0.2h0.6c0.1,0,0.2,0,0.2,0.2l3.5,7.8h0.1l3.5-7.8c0-0.1,0.1-0.2,0.2-0.2h0.6
			c0.1,0,0.2,0.1,0.2,0.2v10.6c0,0.1-0.1,0.2-0.2,0.2h-0.6c-0.1,0-0.2-0.1-0.2-0.2v-8.5h0l-3.1,6.9c-0.1,0.1-0.1,0.2-0.3,0.2h-0.3
			c-0.1,0-0.2,0-0.3-0.2l-3.1-6.9h0v8.5c0,0.1-0.1,0.2-0.2,0.2h-0.6c-0.1,0-0.2-0.1-0.2-0.2V252.7z"/>
		<path d="M467.6,263.4c-0.1,0-0.2-0.1-0.2-0.2v-10.6c0-0.1,0.1-0.2,0.2-0.2h3.6c2.1,0,3.3,1.2,3.3,3.1c0,1.9-1.3,3.1-3.3,3.1h-2.8
			c-0.1,0-0.1,0-0.1,0.1v4.5c0,0.1-0.1,0.2-0.2,0.2H467.6z M473.7,255.6c0-1.4-0.9-2.2-2.5-2.2h-2.8c-0.1,0-0.1,0-0.1,0.1v4.2
			c0,0.1,0,0.1,0.1,0.1h2.8C472.8,257.8,473.7,257,473.7,255.6z"/>
		<path d="M480.2,252.7c0-0.1,0.1-0.2,0.2-0.2h0.6c0.1,0,0.2,0.1,0.2,0.2l3.8,10.6c0,0.1,0,0.2-0.1,0.2h-0.6c-0.1,0-0.2,0-0.2-0.2
			l-1-2.7h-4.7l-1,2.7c0,0.1-0.1,0.2-0.2,0.2h-0.6c-0.1,0-0.1-0.1-0.1-0.2L480.2,252.7z M482.7,259.7l-2-5.7h0l-2,5.7H482.7z"/>
		<path d="M488.5,252.7c0-0.1,0.1-0.2,0.2-0.2h0.6c0.1,0,0.2,0.1,0.2,0.2v10.6c0,0.1-0.1,0.2-0.2,0.2h-0.6c-0.1,0-0.2-0.1-0.2-0.2
			V252.7z"/>
		<path d="M493.6,258c0-1.9,0.1-2.6,0.3-3.2c0.5-1.6,1.8-2.4,3.6-2.4c1.8,0,2.9,0.9,3.4,2c0,0.1,0,0.2-0.1,0.2l-0.5,0.3
			c-0.1,0-0.2,0-0.2-0.1c-0.5-1-1.3-1.6-2.6-1.6c-1.3,0-2.3,0.6-2.7,1.8c-0.1,0.4-0.3,1.1-0.3,2.9c0,1.8,0.1,2.5,0.3,2.9
			c0.4,1.2,1.3,1.8,2.7,1.8c1.3,0,2.3-0.6,2.7-1.8c0.1-0.4,0.3-1,0.3-2.1c0-0.1,0-0.1-0.1-0.1h-2.5c-0.1,0-0.2-0.1-0.2-0.2v-0.5
			c0-0.1,0.1-0.2,0.2-0.2h3.3c0.1,0,0.2,0.1,0.2,0.2v0.7c0,1.1-0.1,1.9-0.3,2.4c-0.5,1.6-1.8,2.5-3.5,2.5c-1.8,0-3-0.8-3.6-2.4
			C493.7,260.6,493.6,259.9,493.6,258z"/>
		<path d="M505.4,252.7c0-0.1,0.1-0.2,0.2-0.2h0.6c0.1,0,0.2,0,0.3,0.2l5.4,8.9h0v-8.9c0-0.1,0.1-0.2,0.2-0.2h0.6
			c0.1,0,0.2,0.1,0.2,0.2v10.6c0,0.1-0.1,0.2-0.2,0.2H512c-0.1,0-0.2,0-0.3-0.2l-5.4-9h-0.1v9c0,0.1-0.1,0.2-0.2,0.2h-0.6
			c-0.1,0-0.2-0.1-0.2-0.2V252.7z"/>
		<path d="M522.9,252.7c0-0.1,0.1-0.2,0.2-0.2h3.4c1.8,0,3,0.7,3.5,2.2c0.2,0.6,0.3,1.2,0.3,3.2c0,2-0.1,2.6-0.3,3.2
			c-0.5,1.5-1.7,2.2-3.5,2.2h-3.4c-0.1,0-0.2-0.1-0.2-0.2V252.7z M523.9,262.6h2.4c1.4,0,2.3-0.5,2.7-1.6c0.2-0.5,0.3-1.1,0.3-2.9
			c0-1.8-0.1-2.4-0.3-2.9c-0.4-1.2-1.3-1.6-2.7-1.6h-2.4c-0.1,0-0.1,0-0.1,0.1L523.9,262.6C523.8,262.5,523.9,262.6,523.9,262.6z"/>
		<path d="M534.5,252.7c0-0.1,0.1-0.2,0.2-0.2h6.2c0.1,0,0.2,0.1,0.2,0.2v0.5c0,0.1-0.1,0.2-0.2,0.2h-5.4c-0.1,0-0.1,0-0.1,0.1v3.9
			c0,0.1,0,0.1,0.1,0.1h4.6c0.1,0,0.2,0.1,0.2,0.2v0.5c0,0.1-0.1,0.2-0.2,0.2h-4.6c-0.1,0-0.1,0-0.1,0.1v4c0,0.1,0,0.1,0.1,0.1h5.4
			c0.1,0,0.2,0.1,0.2,0.2v0.5c0,0.1-0.1,0.2-0.2,0.2h-6.2c-0.1,0-0.2-0.1-0.2-0.2V252.7z"/>
		<path d="M544.5,262.3c-0.1-0.1-0.1-0.2,0-0.2l0.4-0.5c0.1-0.1,0.2-0.1,0.2,0c0.7,0.6,1.9,1.1,3.1,1.1c1.7,0,2.8-0.9,2.8-2.2
			c0-1.1-0.6-1.9-2.6-2.1l-0.5-0.1c-2.1-0.3-3.1-1.3-3.1-2.9c0-1.9,1.3-3.1,3.4-3.1c1.2,0,2.4,0.4,3.1,0.9c0.1,0,0.1,0.1,0,0.2
			L551,254c-0.1,0.1-0.1,0.1-0.2,0c-0.9-0.5-1.7-0.8-2.6-0.8c-1.6,0-2.5,0.9-2.5,2.1c0,1.1,0.7,1.8,2.6,2.1l0.5,0.1
			c2.2,0.3,3.2,1.3,3.2,2.9c0,1.8-1.3,3.2-3.8,3.2C546.7,263.6,545.2,263,544.5,262.3z"/>
		<path d="M556.1,252.7c0-0.1,0.1-0.2,0.2-0.2h0.6c0.1,0,0.2,0.1,0.2,0.2v10.6c0,0.1-0.1,0.2-0.2,0.2h-0.6c-0.1,0-0.2-0.1-0.2-0.2
			V252.7z"/>
		<path d="M561.1,258c0-1.9,0.1-2.6,0.3-3.2c0.5-1.6,1.8-2.4,3.6-2.4c1.8,0,2.9,0.9,3.4,2c0,0.1,0,0.2-0.1,0.2l-0.5,0.3
			c-0.1,0-0.2,0-0.2-0.1c-0.5-1-1.3-1.6-2.6-1.6c-1.3,0-2.3,0.6-2.7,1.8c-0.1,0.4-0.3,1.1-0.3,2.9c0,1.8,0.1,2.5,0.3,2.9
			c0.4,1.2,1.3,1.8,2.7,1.8c1.3,0,2.3-0.6,2.7-1.8c0.1-0.4,0.3-1,0.3-2.1c0-0.1,0-0.1-0.1-0.1h-2.5c-0.1,0-0.2-0.1-0.2-0.2v-0.5
			c0-0.1,0.1-0.2,0.2-0.2h3.3c0.1,0,0.2,0.1,0.2,0.2v0.7c0,1.1-0.1,1.9-0.3,2.4c-0.5,1.6-1.8,2.5-3.5,2.5c-1.8,0-3-0.8-3.6-2.4
			C561.3,260.6,561.1,259.9,561.1,258z"/>
		<path d="M572.9,252.7c0-0.1,0.1-0.2,0.2-0.2h0.6c0.1,0,0.2,0,0.3,0.2l5.4,8.9h0v-8.9c0-0.1,0.1-0.2,0.2-0.2h0.6
			c0.1,0,0.2,0.1,0.2,0.2v10.6c0,0.1-0.1,0.2-0.2,0.2h-0.6c-0.1,0-0.2,0-0.3-0.2l-5.4-9h-0.1v9c0,0.1-0.1,0.2-0.2,0.2h-0.6
			c-0.1,0-0.2-0.1-0.2-0.2V252.7z"/>
	</g>
	<g>
		<g>
			<path d="M74,618.3c-0.2-0.6-0.3-1.3-0.3-3.2s0.1-2.6,0.3-3.2c0.5-1.6,1.7-2.4,3.5-2.4c1.8,0,3,0.8,3.5,2.4
				c0.2,0.6,0.3,1.3,0.3,3.2s-0.1,2.6-0.3,3.2c-0.5,1.6-1.7,2.4-3.5,2.4C75.8,620.8,74.5,619.9,74,618.3z M80.2,612.3
				c-0.4-1.2-1.3-1.8-2.6-1.8c-1.4,0-2.2,0.6-2.6,1.8c-0.1,0.4-0.3,1.1-0.3,2.9c0,1.8,0.1,2.5,0.3,2.9c0.4,1.2,1.3,1.8,2.6,1.8
				c1.3,0,2.2-0.6,2.6-1.8c0.1-0.4,0.3-1.1,0.3-2.9C80.4,613.4,80.3,612.7,80.2,612.3z"/>
			<path d="M85.2,609.9c0-0.1,0.1-0.2,0.2-0.2h0.6c0.1,0,0.2,0,0.3,0.2l5.4,8.9h0v-8.9c0-0.1,0.1-0.2,0.2-0.2h0.6
				c0.1,0,0.2,0.1,0.2,0.2v10.6c0,0.1-0.1,0.2-0.2,0.2h-0.6c-0.1,0-0.2,0-0.3-0.2l-5.4-9h-0.1v9c0,0.1-0.1,0.2-0.2,0.2h-0.6
				c-0.1,0-0.2-0.1-0.2-0.2V609.9z"/>
			<path d="M96.9,609.9c0-0.1,0.1-0.2,0.2-0.2h0.6c0.1,0,0.2,0.1,0.2,0.2v9.8c0,0.1,0,0.1,0.1,0.1h5.4c0.1,0,0.2,0.1,0.2,0.2v0.5
				c0,0.1-0.1,0.2-0.2,0.2H97c-0.1,0-0.2-0.1-0.2-0.2V609.9z"/>
			<path d="M106.6,609.9c0-0.1,0.1-0.2,0.2-0.2h0.6c0.1,0,0.2,0.1,0.2,0.2v10.6c0,0.1-0.1,0.2-0.2,0.2h-0.6c-0.1,0-0.2-0.1-0.2-0.2
				V609.9z"/>
			<path d="M111.8,609.9c0-0.1,0.1-0.2,0.2-0.2h0.6c0.1,0,0.2,0,0.3,0.2l5.4,8.9h0v-8.9c0-0.1,0.1-0.2,0.2-0.2h0.6
				c0.1,0,0.2,0.1,0.2,0.2v10.6c0,0.1-0.1,0.2-0.2,0.2h-0.6c-0.1,0-0.2,0-0.3-0.2l-5.4-9h-0.1v9c0,0.1-0.1,0.2-0.2,0.2H112
				c-0.1,0-0.2-0.1-0.2-0.2V609.9z"/>
			<path d="M123.5,609.9c0-0.1,0.1-0.2,0.2-0.2h6.2c0.1,0,0.2,0.1,0.2,0.2v0.5c0,0.1-0.1,0.2-0.2,0.2h-5.4c-0.1,0-0.1,0-0.1,0.1v3.9
				c0,0.1,0,0.1,0.1,0.1h4.6c0.1,0,0.2,0.1,0.2,0.2v0.5c0,0.1-0.1,0.2-0.2,0.2h-4.6c-0.1,0-0.1,0-0.1,0.1v4c0,0.1,0,0.1,0.1,0.1h5.4
				c0.1,0,0.2,0.1,0.2,0.2v0.5c0,0.1-0.1,0.2-0.2,0.2h-6.2c-0.1,0-0.2-0.1-0.2-0.2V609.9z"/>
			<path d="M138.9,609.9c0-0.1,0.1-0.2,0.2-0.2h3.4c1.8,0,3,0.7,3.5,2.2c0.2,0.6,0.3,1.2,0.3,3.2c0,2-0.1,2.6-0.3,3.2
				c-0.5,1.5-1.7,2.2-3.5,2.2h-3.4c-0.1,0-0.2-0.1-0.2-0.2V609.9z M139.9,619.7h2.4c1.4,0,2.3-0.5,2.7-1.6c0.2-0.5,0.3-1.1,0.3-2.9
				c0-1.8-0.1-2.4-0.3-2.9c-0.4-1.2-1.3-1.6-2.7-1.6h-2.4c-0.1,0-0.1,0-0.1,0.1L139.9,619.7C139.8,619.7,139.9,619.7,139.9,619.7z"
				/>
			<path d="M150.1,609.9c0-0.1,0.1-0.2,0.2-0.2h0.6c0.1,0,0.2,0.1,0.2,0.2v10.6c0,0.1-0.1,0.2-0.2,0.2h-0.6c-0.1,0-0.2-0.1-0.2-0.2
				V609.9z"/>
			<path d="M154.9,615.2c0-1.9,0.1-2.6,0.3-3.2c0.5-1.6,1.8-2.4,3.6-2.4c1.8,0,2.9,0.9,3.4,2c0,0.1,0,0.2-0.1,0.2l-0.5,0.3
				c-0.1,0-0.2,0-0.2-0.1c-0.5-1-1.3-1.6-2.6-1.6c-1.3,0-2.3,0.6-2.7,1.8c-0.1,0.4-0.3,1.1-0.3,2.9s0.1,2.5,0.3,2.9
				c0.4,1.2,1.3,1.8,2.7,1.8c1.3,0,2.3-0.6,2.7-1.8c0.1-0.4,0.3-1,0.3-2.1c0-0.1,0-0.1-0.1-0.1H159c-0.1,0-0.2-0.1-0.2-0.2v-0.5
				c0-0.1,0.1-0.2,0.2-0.2h3.3c0.1,0,0.2,0.1,0.2,0.2v0.7c0,1.1-0.1,1.9-0.3,2.4c-0.5,1.6-1.8,2.5-3.5,2.5c-1.8,0-3-0.8-3.6-2.4
				C155,617.8,154.9,617.1,154.9,615.2z"/>
			<path d="M166.3,609.9c0-0.1,0.1-0.2,0.2-0.2h0.6c0.1,0,0.2,0.1,0.2,0.2v10.6c0,0.1-0.1,0.2-0.2,0.2h-0.6c-0.1,0-0.2-0.1-0.2-0.2
				V609.9z"/>
			<path d="M173.9,620.6c-0.1,0-0.2-0.1-0.2-0.2v-9.8c0-0.1,0-0.1-0.1-0.1h-3.1c-0.1,0-0.2-0.1-0.2-0.2v-0.5c0-0.1,0.1-0.2,0.2-0.2
				h7.4c0.1,0,0.2,0.1,0.2,0.2v0.5c0,0.1-0.1,0.2-0.2,0.2h-3.1c-0.1,0-0.1,0-0.1,0.1v9.8c0,0.1-0.1,0.2-0.2,0.2H173.9z"/>
			<path d="M182.8,609.9c0-0.1,0.1-0.2,0.2-0.2h0.6c0.1,0,0.2,0.1,0.2,0.2l3.8,10.6c0,0.1,0,0.2-0.1,0.2h-0.6c-0.1,0-0.2,0-0.2-0.2
				l-1-2.7h-4.7l-1,2.7c0,0.1-0.1,0.2-0.2,0.2h-0.6c-0.1,0-0.1-0.1-0.1-0.2L182.8,609.9z M185.4,616.9l-2-5.7h0l-2,5.7H185.4z"/>
			<path d="M190.9,609.9c0-0.1,0.1-0.2,0.2-0.2h0.6c0.1,0,0.2,0.1,0.2,0.2v9.8c0,0.1,0,0.1,0.1,0.1h5.4c0.1,0,0.2,0.1,0.2,0.2v0.5
				c0,0.1-0.1,0.2-0.2,0.2H191c-0.1,0-0.2-0.1-0.2-0.2V609.9z"/>
			<path d="M97.5,642.4c-0.1,0-0.2-0.1-0.2-0.2v-10.6c0-0.1,0.1-0.2,0.2-0.2h3.6c2.1,0,3.3,1.2,3.3,3.1c0,1.9-1.3,3.1-3.3,3.1h-2.8
				c-0.1,0-0.1,0-0.1,0.1v4.5c0,0.1-0.1,0.2-0.2,0.2H97.5z M103.6,634.6c0-1.4-0.9-2.2-2.5-2.2h-2.8c-0.1,0-0.1,0-0.1,0.1v4.2
				c0,0.1,0,0.1,0.1,0.1h2.8C102.7,636.8,103.6,636,103.6,634.6z"/>
			<path d="M108,631.6c0-0.1,0.1-0.2,0.2-0.2h0.6c0.1,0,0.2,0.1,0.2,0.2v9.8c0,0.1,0,0.1,0.1,0.1h5.4c0.1,0,0.2,0.1,0.2,0.2v0.5
				c0,0.1-0.1,0.2-0.2,0.2h-6.2c-0.1,0-0.2-0.1-0.2-0.2V631.6z"/>
			<path d="M120.5,631.6c0-0.1,0.1-0.2,0.2-0.2h0.6c0.1,0,0.2,0.1,0.2,0.2l3.8,10.6c0,0.1,0,0.2-0.1,0.2h-0.6c-0.1,0-0.2,0-0.2-0.2
				l-1-2.7h-4.7l-1,2.7c0,0.1-0.1,0.2-0.2,0.2h-0.6c-0.1,0-0.1-0.1-0.1-0.2L120.5,631.6z M123.1,638.6l-2-5.7h0l-2,5.7H123.1z"/>
			<path d="M129.8,642.4c-0.1,0-0.2-0.1-0.2-0.2v-9.8c0-0.1,0-0.1-0.1-0.1h-3.1c-0.1,0-0.2-0.1-0.2-0.2v-0.5c0-0.1,0.1-0.2,0.2-0.2
				h7.4c0.1,0,0.2,0.1,0.2,0.2v0.5c0,0.1-0.1,0.2-0.2,0.2h-3.1c-0.1,0-0.1,0-0.1,0.1v9.8c0,0.1-0.1,0.2-0.2,0.2H129.8z"/>
			<path d="M137,631.6c0-0.1,0.1-0.2,0.2-0.2h6.2c0.1,0,0.2,0.1,0.2,0.2v0.5c0,0.1-0.1,0.2-0.2,0.2h-5.4c-0.1,0-0.1,0-0.1,0.1v4
				c0,0.1,0,0.1,0.1,0.1h4.6c0.1,0,0.2,0.1,0.2,0.2v0.5c0,0.1-0.1,0.2-0.2,0.2h-4.6c-0.1,0-0.1,0-0.1,0.1v4.7c0,0.1-0.1,0.2-0.2,0.2
				h-0.6c-0.1,0-0.2-0.1-0.2-0.2V631.6z"/>
			<path d="M147,640.1c-0.2-0.6-0.3-1.3-0.3-3.2c0-1.9,0.1-2.6,0.3-3.2c0.5-1.6,1.7-2.4,3.5-2.4c1.8,0,3,0.8,3.5,2.4
				c0.2,0.6,0.3,1.3,0.3,3.2c0,1.9-0.1,2.6-0.3,3.2c-0.5,1.6-1.7,2.4-3.5,2.4C148.7,642.5,147.5,641.7,147,640.1z M153.1,634
				c-0.4-1.2-1.3-1.8-2.6-1.8c-1.4,0-2.2,0.6-2.6,1.8c-0.1,0.4-0.3,1.1-0.3,2.9c0,1.8,0.1,2.5,0.3,2.9c0.4,1.2,1.3,1.8,2.6,1.8
				c1.3,0,2.2-0.6,2.6-1.8c0.1-0.4,0.3-1.1,0.3-2.9C153.4,635.2,153.3,634.5,153.1,634z"/>
			<path d="M164.6,642.4c-0.1,0-0.1,0-0.2-0.1l-2.3-4.7H162h-2.8c-0.1,0-0.1,0-0.1,0.1v4.6c0,0.1-0.1,0.2-0.2,0.2h-0.6
				c-0.1,0-0.2-0.1-0.2-0.2v-10.6c0-0.1,0.1-0.2,0.2-0.2h3.6c2,0,3.3,1.2,3.3,3c0,1.5-0.8,2.5-2.2,2.9l2.4,4.8
				c0.1,0.1,0,0.2-0.1,0.2H164.6z M164.4,634.5c0-1.4-0.9-2.1-2.4-2.1h-2.8c-0.1,0-0.1,0-0.1,0.1v4.1c0,0.1,0,0.1,0.1,0.1h2.8
				C163.5,636.6,164.4,635.9,164.4,634.5z"/>
			<path d="M169.3,631.6c0-0.1,0.1-0.2,0.2-0.2h0.6c0.1,0,0.2,0,0.2,0.2l3.5,7.8h0.1l3.5-7.8c0-0.1,0.1-0.2,0.2-0.2h0.6
				c0.1,0,0.2,0.1,0.2,0.2v10.6c0,0.1-0.1,0.2-0.2,0.2h-0.6c-0.1,0-0.2-0.1-0.2-0.2v-8.5h0l-3.1,6.9c-0.1,0.1-0.1,0.2-0.3,0.2h-0.3
				c-0.1,0-0.2,0-0.3-0.2l-3.1-6.9h0v8.5c0,0.1-0.1,0.2-0.2,0.2h-0.6c-0.1,0-0.2-0.1-0.2-0.2V631.6z"/>
		</g>
	</g>
	<g>
		<g>
			<path d="M434.8,609.9c0-0.1,0.1-0.2,0.2-0.2h6.2c0.1,0,0.2,0.1,0.2,0.2v0.5c0,0.1-0.1,0.2-0.2,0.2h-5.4c-0.1,0-0.1,0-0.1,0.1v3.9
				c0,0.1,0,0.1,0.1,0.1h4.6c0.1,0,0.2,0.1,0.2,0.2v0.5c0,0.1-0.1,0.2-0.2,0.2h-4.6c-0.1,0-0.1,0-0.1,0.1v4c0,0.1,0,0.1,0.1,0.1h5.4
				c0.1,0,0.2,0.1,0.2,0.2v0.5c0,0.1-0.1,0.2-0.2,0.2H435c-0.1,0-0.2-0.1-0.2-0.2V609.9z"/>
			<path d="M450.9,620.6c-0.1,0-0.2,0-0.2-0.1l-2.8-4.7h0l-2.8,4.7c0,0.1-0.1,0.1-0.2,0.1h-0.7c-0.1,0-0.1-0.1-0.1-0.2l3.3-5.5l-3-5
				c-0.1-0.1,0-0.2,0.1-0.2h0.7c0.1,0,0.2,0,0.2,0.1l2.5,4.1h0l2.5-4.1c0.1-0.1,0.1-0.1,0.2-0.1h0.7c0.1,0,0.1,0.1,0.1,0.2l-3,5
				l3.3,5.5c0,0.1,0,0.2-0.1,0.2H450.9z"/>
			<path d="M455.2,620.6c-0.1,0-0.2-0.1-0.2-0.2v-10.6c0-0.1,0.1-0.2,0.2-0.2h3.6c2.1,0,3.3,1.2,3.3,3.1c0,1.9-1.3,3.1-3.3,3.1H456
				c-0.1,0-0.1,0-0.1,0.1v4.5c0,0.1-0.1,0.2-0.2,0.2H455.2z M461.2,612.8c0-1.4-0.9-2.2-2.5-2.2H456c-0.1,0-0.1,0-0.1,0.1v4.2
				c0,0.1,0,0.1,0.1,0.1h2.8C460.4,615,461.2,614.2,461.2,612.8z"/>
			<path d="M465.7,609.9c0-0.1,0.1-0.2,0.2-0.2h0.6c0.1,0,0.2,0.1,0.2,0.2v9.8c0,0.1,0,0.1,0.1,0.1h5.4c0.1,0,0.2,0.1,0.2,0.2v0.5
				c0,0.1-0.1,0.2-0.2,0.2h-6.2c-0.1,0-0.2-0.1-0.2-0.2V609.9z"/>
			<path d="M478.2,609.9c0-0.1,0.1-0.2,0.2-0.2h0.6c0.1,0,0.2,0.1,0.2,0.2l3.8,10.6c0,0.1,0,0.2-0.1,0.2h-0.6c-0.1,0-0.2,0-0.2-0.2
				l-1-2.7h-4.7l-1,2.7c0,0.1-0.1,0.2-0.2,0.2h-0.6c-0.1,0-0.1-0.1-0.1-0.2L478.2,609.9z M480.8,616.9l-2-5.7h0l-2,5.7H480.8z"/>
			<path d="M486.2,609.9c0-0.1,0.1-0.2,0.2-0.2h0.6c0.1,0,0.2,0.1,0.2,0.2v10.6c0,0.1-0.1,0.2-0.2,0.2h-0.6c-0.1,0-0.2-0.1-0.2-0.2
				V609.9z"/>
			<path d="M491.4,609.9c0-0.1,0.1-0.2,0.2-0.2h0.6c0.1,0,0.2,0,0.3,0.2l5.4,8.9h0v-8.9c0-0.1,0.1-0.2,0.2-0.2h0.6
				c0.1,0,0.2,0.1,0.2,0.2v10.6c0,0.1-0.1,0.2-0.2,0.2h-0.6c-0.1,0-0.2,0-0.3-0.2l-5.4-9h-0.1v9c0,0.1-0.1,0.2-0.2,0.2h-0.6
				c-0.1,0-0.2-0.1-0.2-0.2V609.9z"/>
			<path d="M503.1,609.9c0-0.1,0.1-0.2,0.2-0.2h6.2c0.1,0,0.2,0.1,0.2,0.2v0.5c0,0.1-0.1,0.2-0.2,0.2h-5.4c-0.1,0-0.1,0-0.1,0.1v3.9
				c0,0.1,0,0.1,0.1,0.1h4.6c0.1,0,0.2,0.1,0.2,0.2v0.5c0,0.1-0.1,0.2-0.2,0.2h-4.6c-0.1,0-0.1,0-0.1,0.1v4c0,0.1,0,0.1,0.1,0.1h5.4
				c0.1,0,0.2,0.1,0.2,0.2v0.5c0,0.1-0.1,0.2-0.2,0.2h-6.2c-0.1,0-0.2-0.1-0.2-0.2V609.9z"/>
			<path d="M519.8,620.6c-0.1,0-0.1,0-0.2-0.1l-2.3-4.7h-0.2h-2.8c-0.1,0-0.1,0-0.1,0.1v4.6c0,0.1-0.1,0.2-0.2,0.2h-0.6
				c-0.1,0-0.2-0.1-0.2-0.2v-10.6c0-0.1,0.1-0.2,0.2-0.2h3.6c2,0,3.3,1.2,3.3,3c0,1.5-0.8,2.5-2.2,2.9l2.4,4.8
				c0.1,0.1,0,0.2-0.1,0.2H519.8z M519.5,612.7c0-1.4-0.9-2.1-2.4-2.1h-2.8c-0.1,0-0.1,0-0.1,0.1v4.1c0,0.1,0,0.1,0.1,0.1h2.8
				C518.7,614.9,519.5,614.1,519.5,612.7z"/>
			<path d="M531.9,620.6c-0.1,0-0.1-0.1-0.2-0.2l-3.6-10.5c-0.1-0.1,0-0.2,0.1-0.2h0.6c0.1,0,0.2,0,0.2,0.2l3.2,9.2h0l3.1-9.2
				c0-0.1,0.1-0.2,0.2-0.2h0.6c0.1,0,0.2,0.1,0.1,0.2l-3.6,10.5c0,0.1-0.1,0.2-0.2,0.2H531.9z"/>
			<path d="M539.5,609.9c0-0.1,0.1-0.2,0.2-0.2h0.6c0.1,0,0.2,0.1,0.2,0.2v10.6c0,0.1-0.1,0.2-0.2,0.2h-0.6c-0.1,0-0.2-0.1-0.2-0.2
				V609.9z"/>
			<path d="M544.7,609.9c0-0.1,0.1-0.2,0.2-0.2h3.4c1.8,0,3,0.7,3.5,2.2c0.2,0.6,0.3,1.2,0.3,3.2c0,2-0.1,2.6-0.3,3.2
				c-0.5,1.5-1.7,2.2-3.5,2.2h-3.4c-0.1,0-0.2-0.1-0.2-0.2V609.9z M545.7,619.7h2.4c1.4,0,2.3-0.5,2.7-1.6c0.2-0.5,0.3-1.1,0.3-2.9
				c0-1.8-0.1-2.4-0.3-2.9c-0.4-1.2-1.3-1.6-2.7-1.6h-2.4c-0.1,0-0.1,0-0.1,0.1L545.7,619.7C545.6,619.7,545.6,619.7,545.7,619.7z"
				/>
			<path d="M555.9,609.9c0-0.1,0.1-0.2,0.2-0.2h6.2c0.1,0,0.2,0.1,0.2,0.2v0.5c0,0.1-0.1,0.2-0.2,0.2h-5.4c-0.1,0-0.1,0-0.1,0.1v3.9
				c0,0.1,0,0.1,0.1,0.1h4.6c0.1,0,0.2,0.1,0.2,0.2v0.5c0,0.1-0.1,0.2-0.2,0.2h-4.6c-0.1,0-0.1,0-0.1,0.1v4c0,0.1,0,0.1,0.1,0.1h5.4
				c0.1,0,0.2,0.1,0.2,0.2v0.5c0,0.1-0.1,0.2-0.2,0.2H556c-0.1,0-0.2-0.1-0.2-0.2V609.9z"/>
			<path d="M565.9,618.3c-0.2-0.6-0.3-1.3-0.3-3.2s0.1-2.6,0.3-3.2c0.5-1.6,1.7-2.4,3.5-2.4c1.8,0,3,0.8,3.5,2.4
				c0.2,0.6,0.3,1.3,0.3,3.2s-0.1,2.6-0.3,3.2c-0.5,1.6-1.7,2.4-3.5,2.4C567.6,620.8,566.4,619.9,565.9,618.3z M572,612.3
				c-0.4-1.2-1.3-1.8-2.6-1.8c-1.4,0-2.2,0.6-2.6,1.8c-0.1,0.4-0.3,1.1-0.3,2.9c0,1.8,0.1,2.5,0.3,2.9c0.4,1.2,1.3,1.8,2.6,1.8
				c1.3,0,2.2-0.6,2.6-1.8c0.1-0.4,0.3-1.1,0.3-2.9C572.3,613.4,572.2,612.7,572,612.3z"/>
			<path d="M457.3,642.4c-0.1,0-0.2-0.1-0.2-0.2v-10.6c0-0.1,0.1-0.2,0.2-0.2h3.6c2.1,0,3.3,1.2,3.3,3.1c0,1.9-1.3,3.1-3.3,3.1h-2.8
				c-0.1,0-0.1,0-0.1,0.1v4.5c0,0.1-0.1,0.2-0.2,0.2H457.3z M463.3,634.6c0-1.4-0.9-2.2-2.5-2.2h-2.8c-0.1,0-0.1,0-0.1,0.1v4.2
				c0,0.1,0,0.1,0.1,0.1h2.8C462.5,636.8,463.3,636,463.3,634.6z"/>
			<path d="M474.2,642.4c-0.1,0-0.1,0-0.2-0.1l-2.3-4.7h-0.2h-2.8c-0.1,0-0.1,0-0.1,0.1v4.6c0,0.1-0.1,0.2-0.2,0.2h-0.6
				c-0.1,0-0.2-0.1-0.2-0.2v-10.6c0-0.1,0.1-0.2,0.2-0.2h3.6c2,0,3.3,1.2,3.3,3c0,1.5-0.8,2.5-2.2,2.9l2.4,4.8
				c0.1,0.1,0,0.2-0.1,0.2H474.2z M474,634.5c0-1.4-0.9-2.1-2.4-2.1h-2.8c-0.1,0-0.1,0-0.1,0.1v4.1c0,0.1,0,0.1,0.1,0.1h2.8
				C473.1,636.6,474,635.9,474,634.5z"/>
			<path d="M478.7,640.1c-0.2-0.6-0.3-1.3-0.3-3.2c0-1.9,0.1-2.6,0.3-3.2c0.5-1.6,1.7-2.4,3.5-2.4c1.8,0,3,0.8,3.5,2.4
				c0.2,0.6,0.3,1.3,0.3,3.2c0,1.9-0.1,2.6-0.3,3.2c-0.5,1.6-1.7,2.4-3.5,2.4C480.5,642.5,479.2,641.7,478.7,640.1z M484.9,634
				c-0.4-1.2-1.3-1.8-2.6-1.8c-1.4,0-2.2,0.6-2.6,1.8c-0.1,0.4-0.3,1.1-0.3,2.9c0,1.8,0.1,2.5,0.3,2.9c0.4,1.2,1.3,1.8,2.6,1.8
				c1.3,0,2.2-0.6,2.6-1.8c0.1-0.4,0.3-1.1,0.3-2.9C485.1,635.2,485,634.5,484.9,634z"/>
			<path d="M489.9,631.6c0-0.1,0.1-0.2,0.2-0.2h3.4c1.8,0,3,0.7,3.5,2.2c0.2,0.6,0.3,1.2,0.3,3.2c0,2-0.1,2.6-0.3,3.2
				c-0.5,1.5-1.7,2.2-3.5,2.2H490c-0.1,0-0.2-0.1-0.2-0.2V631.6z M490.9,641.5h2.4c1.4,0,2.3-0.5,2.7-1.6c0.2-0.5,0.3-1.1,0.3-2.9
				c0-1.8-0.1-2.4-0.3-2.9c-0.4-1.2-1.3-1.6-2.7-1.6h-2.4c-0.1,0-0.1,0-0.1,0.1L490.9,641.5C490.8,641.5,490.8,641.5,490.9,641.5z"
				/>
			<path d="M501.9,638.6c0,2,1,3,2.8,3c1.7,0,2.8-1,2.8-3v-7c0-0.1,0.1-0.2,0.2-0.2h0.6c0.1,0,0.2,0.1,0.2,0.2v7
				c0,2.7-1.4,3.9-3.7,3.9c-2.2,0-3.7-1.3-3.7-3.9v-7c0-0.1,0.1-0.2,0.2-0.2h0.6c0.1,0,0.2,0.1,0.2,0.2V638.6z"/>
			<path d="M512.1,636.9c0-1.9,0.1-2.6,0.3-3.2c0.5-1.6,1.7-2.4,3.4-2.4c1.5,0,2.7,0.7,3.3,2c0,0.1,0,0.2,0,0.2l-0.5,0.3
				c-0.1,0-0.2,0-0.2-0.1c-0.5-0.9-1.3-1.6-2.5-1.6c-1.3,0-2.1,0.6-2.6,1.8c-0.1,0.4-0.2,1.1-0.2,2.9c0,1.8,0.1,2.5,0.2,2.9
				c0.4,1.2,1.2,1.8,2.6,1.8c1.2,0,2-0.6,2.5-1.6c0-0.1,0.1-0.1,0.2-0.1l0.5,0.3c0.1,0,0.1,0.1,0,0.2c-0.6,1.3-1.8,2-3.3,2
				c-1.7,0-2.9-0.8-3.4-2.4C512.2,639.5,512.1,638.8,512.1,636.9z"/>
			<path d="M524.8,642.4c-0.1,0-0.2-0.1-0.2-0.2v-9.8c0-0.1,0-0.1-0.1-0.1h-3.1c-0.1,0-0.2-0.1-0.2-0.2v-0.5c0-0.1,0.1-0.2,0.2-0.2
				h7.4c0.1,0,0.2,0.1,0.2,0.2v0.5c0,0.1-0.1,0.2-0.2,0.2h-3.1c-0.1,0-0.1,0-0.1,0.1v9.8c0,0.1-0.1,0.2-0.2,0.2H524.8z"/>
			<path d="M532.1,631.6c0-0.1,0.1-0.2,0.2-0.2h0.6c0.1,0,0.2,0.1,0.2,0.2v10.6c0,0.1-0.1,0.2-0.2,0.2h-0.6c-0.1,0-0.2-0.1-0.2-0.2
				V631.6z"/>
			<path d="M537.1,640.1c-0.2-0.6-0.3-1.3-0.3-3.2c0-1.9,0.1-2.6,0.3-3.2c0.5-1.6,1.7-2.4,3.5-2.4c1.8,0,3,0.8,3.5,2.4
				c0.2,0.6,0.3,1.3,0.3,3.2c0,1.9-0.1,2.6-0.3,3.2c-0.5,1.6-1.7,2.4-3.5,2.4C538.9,642.5,537.7,641.7,537.1,640.1z M543.3,634
				c-0.4-1.2-1.3-1.8-2.6-1.8c-1.4,0-2.2,0.6-2.6,1.8c-0.1,0.4-0.3,1.1-0.3,2.9c0,1.8,0.1,2.5,0.3,2.9c0.4,1.2,1.3,1.8,2.6,1.8
				c1.3,0,2.2-0.6,2.6-1.8c0.1-0.4,0.3-1.1,0.3-2.9C543.6,635.2,543.4,634.5,543.3,634z"/>
			<path d="M548.3,631.6c0-0.1,0.1-0.2,0.2-0.2h0.6c0.1,0,0.2,0,0.3,0.2l5.4,8.9h0v-8.9c0-0.1,0.1-0.2,0.2-0.2h0.6
				c0.1,0,0.2,0.1,0.2,0.2v10.6c0,0.1-0.1,0.2-0.2,0.2h-0.6c-0.1,0-0.2,0-0.3-0.2l-5.4-9h-0.1v9c0,0.1-0.1,0.2-0.2,0.2h-0.6
				c-0.1,0-0.2-0.1-0.2-0.2V631.6z"/>
		</g>
	</g>
	<polygon class="st20" points="174.4,448.4 53.8,533 174.4,533 	"/>
	<rect x="57.8" y="433" class="st22" width="113" height="12.2"/>
	<rect x="43" y="532" width="142.5" height="2.1"/>
	<polygon points="175.5,533 173.4,533 173.4,431 54.9,431 54.9,533 52.8,533 52.8,428.9 175.5,428.9 	"/>
	<rect x="53.8" y="447.4" width="120.6" height="2"/>
	<rect x="88.5" y="429.9" width="2" height="18.5"/>
	<rect x="96.6" y="437.6" width="70.9" height="2.1"/>
	<rect x="65.1" y="491.3" width="67" height="2.1"/>
	<rect x="65.1" y="500.5" width="67" height="2.1"/>
	<rect x="65.1" y="509.4" width="67" height="2.1"/>
	<rect x="65.1" y="518.2" width="67" height="2.1"/>
	<rect x="96.6" y="458.7" class="st21" width="66.8" height="26.3"/>
	<rect x="67.1" y="461.3" class="st22" width="22.9" height="22.4"/>
	<rect x="136.5" y="490.1" class="st22" width="27" height="31.5"/>
	<rect x="60.2" y="437.6" width="4.9" height="2.1"/>
	<rect x="69.3" y="437.6" width="4.9" height="2.1"/>
	<rect x="77.9" y="437.6" width="4.9" height="2.1"/>
	<rect x="119.8" y="471.5" width="4.9" height="2.1"/>
	<rect x="128.9" y="471.5" width="4.9" height="2.1"/>
	<rect x="137.5" y="471.5" width="4.9" height="2.1"/>
	<g>
		<g>
			<path class="st3" d="M231.1,551.4H174c-1.6,0-2.8-1.3-2.8-2.8v-83.9c0-1.6,1.3-2.8,2.8-2.8h57.1c1.6,0,2.8,1.3,2.8,2.8v83.9
				C233.9,550.1,232.7,551.4,231.1,551.4z"/>
			<path d="M231.1,552.4H174c-2.1,0-3.9-1.7-3.9-3.9v-83.9c0-2.1,1.7-3.9,3.9-3.9h57.1c2.1,0,3.9,1.7,3.9,3.9v83.9
				C235,550.7,233.3,552.4,231.1,552.4z M174,462.9c-1,0-1.8,0.8-1.8,1.8v83.9c0,1,0.8,1.8,1.8,1.8h57.1c1,0,1.8-0.8,1.8-1.8v-83.9
				c0-1-0.8-1.8-1.8-1.8H174z"/>
		</g>
		<rect x="197.5" y="466.5" width="10.2" height="1.1"/>
		<path d="M202.6,549c-2.2,0-4-1.8-4-4c0-2.2,1.8-4,4-4c2.2,0,4,1.8,4,4C206.6,547.2,204.8,549,202.6,549z M202.6,542
			c-1.6,0-3,1.3-3,3c0,1.6,1.3,3,3,3s3-1.3,3-3C205.6,543.3,204.2,542,202.6,542z"/>
		<polyline class="st20" points="229.3,539.1 229.3,473.8 175.8,539.1 		"/>
		<path d="M229.8,539.6h-54.5v-69.7h54.5V539.6z M176.4,538.6h52.4V471h-52.4V538.6z"/>
		<rect x="179.9" y="473.8" class="st22" width="45.3" height="62.1"/>
	</g>
	<rect id="XMLID_10_" x="189" y="490.1" class="st3" width="27.2" height="3.9"/>
	<rect id="XMLID_9_" x="195.1" y="508.6" class="st21" width="14.9" height="3.9"/>
	<rect x="191.8" y="497.5" width="21.6" height="2.1"/>
	<rect x="191.8" y="502.6" width="21.6" height="2.1"/>
	<g>
		<g>
			<path class="st3" d="M180.4,556.5h-27.6c-1.6,0-2.8-1.3-2.8-2.8v-54.1c0-1.6,1.3-2.8,2.8-2.8h27.6c1.6,0,2.8,1.3,2.8,2.8v54.1
				C183.2,555.3,181.9,556.5,180.4,556.5z"/>
			<path d="M180.4,557.6h-27.6c-2.1,0-3.9-1.7-3.9-3.9v-54.1c0-2.1,1.7-3.9,3.9-3.9h27.6c2.1,0,3.9,1.7,3.9,3.9v54.1
				C184.3,555.9,182.5,557.6,180.4,557.6z M152.7,497.9c-1,0-1.8,0.8-1.8,1.8v54.1c0,1,0.8,1.8,1.8,1.8h27.6c1,0,1.8-0.8,1.8-1.8
				v-54.1c0-1-0.8-1.8-1.8-1.8H152.7z"/>
		</g>
		<rect x="162.8" y="501.8" width="7.5" height="1.1"/>
		<rect x="164.7" y="499.9" width="3.7" height="1.1"/>
		<path d="M166.6,554.3c-1.5,0-2.7-1.2-2.7-2.7c0-1.5,1.2-2.7,2.7-2.7c1.5,0,2.7,1.2,2.7,2.7C169.3,553.1,168.1,554.3,166.6,554.3z
			 M166.6,549.9c-0.9,0-1.7,0.8-1.7,1.7c0,0.9,0.8,1.7,1.7,1.7c0.9,0,1.7-0.8,1.7-1.7C168.2,550.7,167.5,549.9,166.6,549.9z"/>
		<polyline class="st20" points="180.7,548.3 180.7,504.7 152.4,548.3 		"/>
		<path d="M180.5,547.7h-27.9v-42.4h27.9V547.7z M153.7,546.7h25.8v-40.3h-25.8V546.7z"/>
		<rect x="155.6" y="508.6" class="st21" width="22" height="36"/>
	</g>
	<rect id="XMLID_8_" x="159.5" y="519.7" class="st3" width="14.7" height="2.1"/>
	<rect id="XMLID_5_" x="162.8" y="529.7" class="st22" width="8.1" height="2.1"/>
	<rect x="161" y="523.8" width="11.7" height="1.1"/>
	<rect x="161" y="526.5" width="11.7" height="1.1"/>
	<g>
		<path class="st22" d="M489.2,451.9c0-11.2,0-33.5,0-33.5h-55.9v33.5c0,0,0,11.2,11.2,11.2c17,0,55.9,0,55.9,0
			S489.2,463,489.2,451.9z"/>
	</g>
	<g>
		<path d="M505.9,463.7h-5.6c-0.1,0-11.9-0.1-11.9-11.9v-34.2h7v34.2c0,10.3,10,10.5,10.5,10.5V463.7z M489.9,419v32.8
			c0,9.9,9.1,10.4,10.4,10.5c-3-1.5-6.2-4.4-6.2-10.5V419H489.9z"/>
	</g>
	<g>
		<path class="st21" d="M511.5,451.9c0-11.2,11.2-11.2,11.2-11.2h-55.9c0,0-11.2,0-11.2,11.2c0,11.2-11.2,11.2-11.2,11.2l56,0.1
			C501.8,463,511.5,462.2,511.5,451.9z"/>
	</g>
	<g>
		<path class="st22" d="M522.7,440.7c-8.9,0-42.4,0-55.9,0c0,0,11.2,0,11.2,11.2c0,11.2,0,55.9,0,55.9l55.9,0v-55.9
			C533.8,451.9,533.8,440.7,522.7,440.7z"/>
	</g>
	<g>
		<rect x="433.3" y="422.9" class="st3" width="55.2" height="1.4"/>
	</g>
	<g>
		<rect x="477.8" y="456.7" class="st3" width="56.2" height="1.4"/>
	</g>
	<g>
		<rect x="477.8" y="479" class="st3" width="56.2" height="1.4"/>
	</g>
	<g>
		<rect x="477.8" y="501.4" class="st3" width="56.2" height="1.4"/>
	</g>
	<g>
		<rect x="433.3" y="445.6" class="st3" width="18" height="1.4"/>
	</g>
	<g>
		<path d="M444.5,463.7h-5.6c-11.7,0-11.9-11.8-11.9-11.9v-34.2h7v34.2c0,0.4,0.1,10.5,10.5,10.5V463.7z M428.4,419v32.8
			c0,0.4,0.1,10.1,10,10.5c-5.7-3.1-5.8-10.4-5.8-10.5V419H428.4z"/>
	</g>
	<g>
		<rect x="464" y="440" width="58.7" height="1.4"/>
	</g>
	<g>
		<path d="M478.7,508.4h-7v-56.6c0-10.4-10-10.5-10.5-10.5V440h5.6c0.1,0,11.9,0.1,11.9,11.9V508.4z M473.1,507h4.2v-55.2
			c0-9.9-9.1-10.4-10.4-10.5c3,1.5,6.2,4.4,6.2,10.5V507z"/>
	</g>
	<g>
		<path d="M540.1,508.4h-7l0-56.6c0-0.4-0.1-10.5-10.5-10.5V440h5.6c11.7,0,11.9,11.8,11.9,11.9V508.4z M534.5,507h4.2v-55.2
			c0-0.4-0.1-10.1-10-10.5c5.7,3.1,5.8,10.4,5.8,10.5V507z"/>
	</g>
	<g>
		<path d="M444.5,463.7v-1.3c-2.8,1.3-5.5,1.3-5.6,1.3v-1.4c0.4,0,10.5-0.1,10.5-10.5c0-11.7,11.8-11.9,11.9-11.9h5.6v1.4
			c-0.4,0-10.5,0.1-10.5,10.5C456.3,463.6,444.6,463.7,444.5,463.7z M461.1,441.4c-1.2,0-10.4,0.6-10.4,10.5c0,6-3.1,9-6.2,10.5
			c1.2,0,10.4-0.6,10.4-10.5C455,445.8,458.1,442.8,461.1,441.4z"/>
	</g>
	<g>
		<g>
			<rect x="506.6" y="507.3" class="st3" width="80.1" height="52.1"/>
			<path d="M587.5,560.2h-81.7v-53.7h81.7V560.2z M507.4,558.6h78.5v-50.5h-78.5V558.6z"/>
		</g>
	</g>
	<path class="st21" d="M510.8,512v42.7h72.5V512H510.8z"/>
	<polygon class="st3" points="542.6,538.3 542.6,528.4 551.4,533.3 	"/>
	<g>
		<g>
			<rect x="506.6" y="498.9" class="st21" width="80.1" height="8"/>
		</g>
		<g>
			<g>
				<polygon class="st3" points="515,507.3 514.3,506.6 522.2,498.7 522.9,499.4 				"/>
			</g>
			<g>
				<polygon class="st3" points="523,507.3 522.3,506.6 530.2,498.7 530.9,499.4 				"/>
			</g>
			<g>
				
					<rect x="529.1" y="502.5" transform="matrix(0.7072 -0.7071 0.7071 0.7072 -199.0576 525.3471)" class="st3" width="11.2" height="1"/>
			</g>
			<g>
				<polygon class="st3" points="539,507.3 538.3,506.6 546.3,498.7 547,499.4 				"/>
			</g>
			<g>
				<polygon class="st3" points="547.1,507.3 546.4,506.6 554.3,498.7 555,499.4 				"/>
			</g>
			<g>
				
					<rect x="553.1" y="502.5" transform="matrix(0.7071 -0.7071 0.7071 0.7071 -192.0261 542.3707)" class="st3" width="11.2" height="1"/>
			</g>
			<g>
				
					<rect x="561.1" y="502.5" transform="matrix(0.707 -0.7072 0.7072 0.707 -189.6644 548.1636)" class="st3" width="11.2" height="1"/>
			</g>
			<g>
				
					<rect x="569.1" y="502.5" transform="matrix(0.7053 -0.7089 0.7089 0.7053 -187.2028 555.6308)" class="st3" width="11.2" height="1"/>
			</g>
			<g>
				<polygon class="st3" points="579.1,507.3 578.4,506.6 586.4,498.7 587.1,499.4 				"/>
			</g>
			<g>
				
					<rect x="505.1" y="502.5" transform="matrix(0.7071 -0.7072 0.7072 0.7071 -206.1119 508.4388)" class="st3" width="11.1" height="1"/>
			</g>
		</g>
	</g>
	<g>
		<g>
			
				<rect x="505.6" y="485" transform="matrix(0.9887 -0.1502 0.1502 0.9887 -67.2532 87.5003)" class="st21" width="80.1" height="8"/>
		</g>
		<g>
			<g>
				
					<rect x="512.3" y="492.7" transform="matrix(0.5929 -0.8053 0.8053 0.5929 -186.3471 617.8389)" class="st3" width="11.2" height="1"/>
			</g>
			<g>
				
					<rect x="520.2" y="491.5" transform="matrix(0.5933 -0.805 0.805 0.5933 -182.2402 623.334)" class="st3" width="11.2" height="1"/>
			</g>
			<g>
				
					<rect x="528.2" y="490.3" transform="matrix(0.5925 -0.8056 0.8056 0.5925 -177.8642 630.0198)" class="st3" width="11.2" height="1"/>
			</g>
			<g>
				
					<rect x="536" y="489.1" transform="matrix(0.5907 -0.8069 0.8069 0.5907 -173.3594 637.4612)" class="st3" width="11.2" height="1"/>
			</g>
			<g>
				
					<rect x="544" y="487.9" transform="matrix(0.5934 -0.8049 0.8049 0.5934 -169.6411 640.9899)" class="st3" width="11.2" height="1"/>
			</g>
			<g>
				<polygon class="st3" points="554.6,492 553.8,491.4 560.4,482.4 561.2,483 				"/>
			</g>
			<g>
				
					<rect x="559.8" y="485.5" transform="matrix(0.5933 -0.805 0.805 0.5933 -161.2395 652.8641)" class="st3" width="11.2" height="1"/>
			</g>
			<g>
				
					<rect x="567.7" y="484.3" transform="matrix(0.5928 -0.8054 0.8054 0.5928 -156.9572 659.1825)" class="st3" width="11.2" height="1"/>
			</g>
			<g>
				
					<rect x="575.7" y="483.1" transform="matrix(0.5936 -0.8047 0.8047 0.5936 -152.9412 664.2995)" class="st3" width="11.2" height="1"/>
			</g>
			<g>
				
					<rect x="504.4" y="493.9" transform="matrix(0.5904 -0.8071 0.8071 0.5904 -190.1732 614.1503)" class="st3" width="11.1" height="1"/>
			</g>
		</g>
	</g>
	<path d="M506.3,499.4c-0.2,0-0.3-0.1-0.5-0.2c-0.2-0.1-0.3-0.3-0.3-0.5l-0.9-7.6c0-0.4,0.2-0.8,0.7-0.9l78.8-12.3
		c0.4-0.1,0.8,0.2,0.9,0.6l1.6,8.2c0,0.2,0,0.4-0.1,0.6c-0.1,0.2-0.3,0.3-0.5,0.3l-79.5,11.7C506.4,499.4,506.3,499.4,506.3,499.4z
		 M506.3,491.7l0.7,6l77.9-11.5l-1.3-6.6L506.3,491.7z"/>
	<path d="M586.7,508.1h-80.1c-0.4,0-0.8-0.3-0.8-0.8l-0.3-8.7c0-0.2,0.1-0.4,0.2-0.6c0.1-0.2,0.3-0.2,0.6-0.2l80.4,0.3
		c0.4,0,0.8,0.4,0.8,0.8v8.4C587.5,507.7,587.2,508.1,586.7,508.1z M507.4,506.5h78.5v-6.8l-78.8-0.3L507.4,506.5z"/>
</g>
</svg>
