<?xml version="1.0" encoding="utf-8"?>
<!-- Generator: Adobe Illustrator 20.0.0, SVG Export Plug-In . SVG Version: 6.00 Build 0)  -->
<svg version="1.1" id="Layer_1" xmlns="http://www.w3.org/2000/svg" xmlns:xlink="http://www.w3.org/1999/xlink" x="0px" y="0px"
	 viewBox="0 0 227.2 275.9" style="enable-background:new 0 0 227.2 275.9;" xml:space="preserve">
<style type="text/css">
	.st0{fill:none;stroke:#000000;stroke-width:1.0387;stroke-miterlimit:10;}
	.st1{fill:none;stroke:#000000;stroke-miterlimit:10;}
	.st2{fill:none;stroke:#000000;stroke-width:0.3639;stroke-miterlimit:10;}
	.st3{fill:#FFFFFF;}
	.st4{fill:#ECF8FE;}
	.st5{fill:#27BDBE;}
	.st6{fill:#FFE06A;}
	.st7{fill:#D9D9D9;}
	.st8{fill:#999999;}
	.st9{fill:#BFBFBF;}
	.st10{fill:#FFFFFF;stroke:#000000;stroke-width:1.5873;stroke-miterlimit:10;}
	.st11{fill:none;stroke:#000000;stroke-width:1.5873;stroke-linecap:round;stroke-linejoin:round;stroke-miterlimit:10;}
	.st12{fill:none;stroke:#000000;stroke-width:0.8323;stroke-linecap:round;stroke-linejoin:round;stroke-miterlimit:10;}
	.st13{fill:#CFCDCD;}
	.st14{fill:#C9E9E6;}
	.st15{fill:none;stroke:#000000;stroke-width:0.8889;stroke-miterlimit:10;}
	.st16{fill:none;stroke:#FFFFFF;stroke-miterlimit:10;}
</style>
<g>
	<g>
		<path d="M73.7,223.8c-0.1,0-0.2-0.1-0.2-0.2v-9.8c0-0.1,0-0.1-0.1-0.1h-3.1c-0.1,0-0.2-0.1-0.2-0.2v-0.5c0-0.1,0.1-0.2,0.2-0.2
			h7.4c0.1,0,0.2,0.1,0.2,0.2v0.5c0,0.1-0.1,0.2-0.2,0.2h-3.1c-0.1,0-0.1,0-0.1,0.1v9.8c0,0.1-0.1,0.2-0.2,0.2H73.7z"/>
		<path d="M81.3,213.1c0-0.1,0.1-0.2,0.2-0.2H82c0.1,0,0.2,0.1,0.2,0.2v4.7c0,0.1,0,0.1,0.1,0.1h5.4c0.1,0,0.1,0,0.1-0.1v-4.7
			c0-0.1,0.1-0.2,0.2-0.2h0.6c0.1,0,0.2,0.1,0.2,0.2v10.6c0,0.1-0.1,0.2-0.2,0.2h-0.6c-0.1,0-0.2-0.1-0.2-0.2v-4.8
			c0-0.1,0-0.1-0.1-0.1h-5.4c-0.1,0-0.1,0-0.1,0.1v4.8c0,0.1-0.1,0.2-0.2,0.2h-0.6c-0.1,0-0.2-0.1-0.2-0.2V213.1z"/>
		<path d="M93.3,213.1c0-0.1,0.1-0.2,0.2-0.2h6.2c0.1,0,0.2,0.1,0.2,0.2v0.5c0,0.1-0.1,0.2-0.2,0.2h-5.4c-0.1,0-0.1,0-0.1,0.1v3.9
			c0,0.1,0,0.1,0.1,0.1h4.6c0.1,0,0.2,0.1,0.2,0.2v0.5c0,0.1-0.1,0.2-0.2,0.2h-4.6c-0.1,0-0.1,0-0.1,0.1v4c0,0.1,0,0.1,0.1,0.1h5.4
			c0.1,0,0.2,0.1,0.2,0.2v0.5c0,0.1-0.1,0.2-0.2,0.2h-6.2c-0.1,0-0.2-0.1-0.2-0.2V213.1z"/>
		<path d="M103.7,213.1c0-0.1,0.1-0.2,0.2-0.2h0.6c0.1,0,0.2,0,0.2,0.2l3.5,7.8h0.1l3.5-7.8c0-0.1,0.1-0.2,0.2-0.2h0.6
			c0.1,0,0.2,0.1,0.2,0.2v10.6c0,0.1-0.1,0.2-0.2,0.2h-0.6c-0.1,0-0.2-0.1-0.2-0.2v-8.5h0l-3.1,6.9c-0.1,0.1-0.1,0.2-0.3,0.2h-0.3
			c-0.1,0-0.2,0-0.3-0.2l-3.1-6.9h0v8.5c0,0.1-0.1,0.2-0.2,0.2h-0.6c-0.1,0-0.2-0.1-0.2-0.2V213.1z"/>
		<path d="M120.2,213.1c0-0.1,0.1-0.2,0.2-0.2h0.6c0.1,0,0.2,0.1,0.2,0.2l3.8,10.6c0,0.1,0,0.2-0.1,0.2h-0.6c-0.1,0-0.2,0-0.2-0.2
			l-1-2.7h-4.7l-1,2.7c0,0.1-0.1,0.2-0.2,0.2h-0.6c-0.1,0-0.1-0.1-0.1-0.2L120.2,213.1z M122.8,220.1l-2-5.7h0l-2,5.7H122.8z"/>
		<path d="M129.8,223.8c-0.1,0-0.2-0.1-0.2-0.2v-9.8c0-0.1,0-0.1-0.1-0.1h-3.1c-0.1,0-0.2-0.1-0.2-0.2v-0.5c0-0.1,0.1-0.2,0.2-0.2
			h7.4c0.1,0,0.2,0.1,0.2,0.2v0.5c0,0.1-0.1,0.2-0.2,0.2h-3.1c-0.1,0-0.1,0-0.1,0.1v9.8c0,0.1-0.1,0.2-0.2,0.2H129.8z"/>
		<path d="M137.4,213.1c0-0.1,0.1-0.2,0.2-0.2h0.6c0.1,0,0.2,0.1,0.2,0.2v10.6c0,0.1-0.1,0.2-0.2,0.2h-0.6c-0.1,0-0.2-0.1-0.2-0.2
			V213.1z"/>
		<path d="M142.4,218.4c0-1.9,0.1-2.6,0.3-3.2c0.5-1.6,1.7-2.4,3.4-2.4c1.5,0,2.7,0.7,3.3,2c0,0.1,0,0.2,0,0.2l-0.5,0.3
			c-0.1,0-0.2,0-0.2-0.1c-0.5-0.9-1.3-1.6-2.5-1.6c-1.3,0-2.1,0.6-2.6,1.8c-0.1,0.4-0.2,1.1-0.2,2.9c0,1.8,0.1,2.5,0.2,2.9
			c0.4,1.2,1.2,1.8,2.6,1.8c1.2,0,2-0.6,2.5-1.6c0-0.1,0.1-0.1,0.2-0.1l0.5,0.3c0.1,0,0.1,0.1,0,0.2c-0.6,1.3-1.8,2-3.3,2
			c-1.7,0-2.9-0.8-3.4-2.4C142.5,221,142.4,220.3,142.4,218.4z"/>
		<path d="M38.2,240.1c0-1.9,0.1-2.6,0.3-3.2c0.5-1.6,1.7-2.4,3.4-2.4c1.5,0,2.7,0.7,3.3,2c0,0.1,0,0.2,0,0.2l-0.5,0.3
			c-0.1,0-0.2,0-0.2-0.1c-0.5-0.9-1.3-1.6-2.5-1.6c-1.3,0-2.1,0.6-2.6,1.8c-0.1,0.4-0.2,1.1-0.2,2.9c0,1.8,0.1,2.5,0.2,2.9
			c0.4,1.2,1.2,1.8,2.6,1.8c1.2,0,2-0.6,2.5-1.6c0-0.1,0.1-0.1,0.2-0.1l0.5,0.3c0.1,0,0.1,0.1,0,0.2c-0.6,1.3-1.8,2-3.3,2
			c-1.7,0-2.9-0.8-3.4-2.4C38.3,242.8,38.2,242,38.2,240.1z"/>
		<path d="M52,234.9c0-0.1,0.1-0.2,0.2-0.2h0.6c0.1,0,0.2,0.1,0.2,0.2l3.8,10.6c0,0.1,0,0.2-0.1,0.2H56c-0.1,0-0.2,0-0.2-0.2l-1-2.7
			h-4.7l-1,2.7c0,0.1-0.1,0.2-0.2,0.2h-0.6c-0.1,0-0.1-0.1-0.1-0.2L52,234.9z M54.5,241.9l-2-5.7h0l-2,5.7H54.5z"/>
		<path d="M60.3,234.9c0-0.1,0.1-0.2,0.2-0.2h0.6c0.1,0,0.2,0,0.2,0.2l3.5,7.8h0.1l3.5-7.8c0-0.1,0.1-0.2,0.2-0.2h0.6
			c0.1,0,0.2,0.1,0.2,0.2v10.6c0,0.1-0.1,0.2-0.2,0.2h-0.6c-0.1,0-0.2-0.1-0.2-0.2v-8.5h0l-3.1,6.9c-0.1,0.1-0.1,0.2-0.3,0.2h-0.3
			c-0.1,0-0.2,0-0.3-0.2l-3.1-6.9h0v8.5c0,0.1-0.1,0.2-0.2,0.2h-0.6c-0.1,0-0.2-0.1-0.2-0.2V234.9z"/>
		<path d="M74.2,245.6c-0.1,0-0.2-0.1-0.2-0.2v-10.6c0-0.1,0.1-0.2,0.2-0.2h3.6c2.1,0,3.3,1.2,3.3,3.1c0,1.9-1.3,3.1-3.3,3.1H75
			c-0.1,0-0.1,0-0.1,0.1v4.5c0,0.1-0.1,0.2-0.2,0.2H74.2z M80.2,237.8c0-1.4-0.9-2.2-2.5-2.2H75c-0.1,0-0.1,0-0.1,0.1v4.2
			c0,0.1,0,0.1,0.1,0.1h2.8C79.4,240,80.2,239.2,80.2,237.8z"/>
		<path d="M86.7,234.9c0-0.1,0.1-0.2,0.2-0.2h0.6c0.1,0,0.2,0.1,0.2,0.2l3.8,10.6c0,0.1,0,0.2-0.1,0.2h-0.6c-0.1,0-0.2,0-0.2-0.2
			l-1-2.7h-4.7l-1,2.7c0,0.1-0.1,0.2-0.2,0.2H83c-0.1,0-0.1-0.1-0.1-0.2L86.7,234.9z M89.2,241.9l-2-5.7h0l-2,5.7H89.2z"/>
		<path d="M95.1,234.9c0-0.1,0.1-0.2,0.2-0.2h0.6c0.1,0,0.2,0.1,0.2,0.2v10.6c0,0.1-0.1,0.2-0.2,0.2h-0.6c-0.1,0-0.2-0.1-0.2-0.2
			V234.9z"/>
		<path d="M100.1,240.1c0-1.9,0.1-2.6,0.3-3.2c0.5-1.6,1.8-2.4,3.6-2.4c1.8,0,2.9,0.9,3.4,2c0,0.1,0,0.2-0.1,0.2l-0.5,0.3
			c-0.1,0-0.2,0-0.2-0.1c-0.5-1-1.3-1.6-2.6-1.6c-1.3,0-2.3,0.6-2.7,1.8c-0.1,0.4-0.3,1.1-0.3,2.9c0,1.8,0.1,2.5,0.3,2.9
			c0.4,1.2,1.3,1.8,2.7,1.8c1.3,0,2.3-0.6,2.7-1.8c0.1-0.4,0.3-1,0.3-2.1c0-0.1,0-0.1-0.1-0.1h-2.5c-0.1,0-0.2-0.1-0.2-0.2v-0.5
			c0-0.1,0.1-0.2,0.2-0.2h3.3c0.1,0,0.2,0.1,0.2,0.2v0.7c0,1.1-0.1,1.9-0.3,2.4c-0.5,1.6-1.8,2.5-3.5,2.5c-1.8,0-3-0.8-3.6-2.4
			C100.2,242.8,100.1,242,100.1,240.1z"/>
		<path d="M111.9,234.9c0-0.1,0.1-0.2,0.2-0.2h0.6c0.1,0,0.2,0,0.3,0.2l5.4,8.9h0v-8.9c0-0.1,0.1-0.2,0.2-0.2h0.6
			c0.1,0,0.2,0.1,0.2,0.2v10.6c0,0.1-0.1,0.2-0.2,0.2h-0.6c-0.1,0-0.2,0-0.3-0.2l-5.4-9h-0.1v9c0,0.1-0.1,0.2-0.2,0.2h-0.6
			c-0.1,0-0.2-0.1-0.2-0.2V234.9z"/>
		<path d="M129.5,234.9c0-0.1,0.1-0.2,0.2-0.2h3.4c1.8,0,3,0.7,3.5,2.2c0.2,0.6,0.3,1.2,0.3,3.2c0,2-0.1,2.6-0.3,3.2
			c-0.5,1.5-1.7,2.2-3.5,2.2h-3.4c-0.1,0-0.2-0.1-0.2-0.2V234.9z M130.5,244.7h2.4c1.4,0,2.3-0.5,2.7-1.6c0.2-0.5,0.3-1.1,0.3-2.9
			c0-1.8-0.1-2.4-0.3-2.9c-0.4-1.2-1.3-1.6-2.7-1.6h-2.4c-0.1,0-0.1,0-0.1,0.1L130.5,244.7C130.4,244.7,130.4,244.7,130.5,244.7z"/>
		<path d="M141,234.9c0-0.1,0.1-0.2,0.2-0.2h6.2c0.1,0,0.2,0.1,0.2,0.2v0.5c0,0.1-0.1,0.2-0.2,0.2H142c-0.1,0-0.1,0-0.1,0.1v3.9
			c0,0.1,0,0.1,0.1,0.1h4.6c0.1,0,0.2,0.1,0.2,0.2v0.5c0,0.1-0.1,0.2-0.2,0.2H142c-0.1,0-0.1,0-0.1,0.1v4c0,0.1,0,0.1,0.1,0.1h5.4
			c0.1,0,0.2,0.1,0.2,0.2v0.5c0,0.1-0.1,0.2-0.2,0.2h-6.2c-0.1,0-0.2-0.1-0.2-0.2V234.9z"/>
		<path d="M151,244.5c-0.1-0.1-0.1-0.2,0-0.2l0.4-0.5c0.1-0.1,0.2-0.1,0.2,0c0.7,0.6,1.9,1.1,3.1,1.1c1.7,0,2.8-0.9,2.8-2.2
			c0-1.1-0.6-1.9-2.6-2.1l-0.5-0.1c-2.1-0.3-3.1-1.3-3.1-2.9c0-1.9,1.3-3.1,3.4-3.1c1.2,0,2.4,0.4,3.1,0.9c0.1,0,0.1,0.1,0,0.2
			l-0.3,0.5c-0.1,0.1-0.1,0.1-0.2,0c-0.9-0.5-1.7-0.8-2.6-0.8c-1.6,0-2.5,0.9-2.5,2.1c0,1.1,0.7,1.8,2.6,2.1l0.5,0.1
			c2.2,0.3,3.2,1.3,3.2,2.9c0,1.8-1.3,3.2-3.8,3.2C153.2,245.7,151.8,245.1,151,244.5z"/>
		<path d="M162.6,234.9c0-0.1,0.1-0.2,0.2-0.2h0.6c0.1,0,0.2,0.1,0.2,0.2v10.6c0,0.1-0.1,0.2-0.2,0.2h-0.6c-0.1,0-0.2-0.1-0.2-0.2
			V234.9z"/>
		<path d="M167.7,240.1c0-1.9,0.1-2.6,0.3-3.2c0.5-1.6,1.8-2.4,3.6-2.4c1.8,0,2.9,0.9,3.4,2c0,0.1,0,0.2-0.1,0.2l-0.5,0.3
			c-0.1,0-0.2,0-0.2-0.1c-0.5-1-1.3-1.6-2.6-1.6c-1.3,0-2.3,0.6-2.7,1.8c-0.1,0.4-0.3,1.1-0.3,2.9c0,1.8,0.1,2.5,0.3,2.9
			c0.4,1.2,1.3,1.8,2.7,1.8c1.3,0,2.3-0.6,2.7-1.8c0.1-0.4,0.3-1,0.3-2.1c0-0.1,0-0.1-0.1-0.1h-2.5c-0.1,0-0.2-0.1-0.2-0.2v-0.5
			c0-0.1,0.1-0.2,0.2-0.2h3.3c0.1,0,0.2,0.1,0.2,0.2v0.7c0,1.1-0.1,1.9-0.3,2.4c-0.5,1.6-1.8,2.5-3.5,2.5c-1.8,0-3-0.8-3.6-2.4
			C167.8,242.8,167.7,242,167.7,240.1z"/>
		<path d="M179.5,234.9c0-0.1,0.1-0.2,0.2-0.2h0.6c0.1,0,0.2,0,0.3,0.2l5.4,8.9h0v-8.9c0-0.1,0.1-0.2,0.2-0.2h0.6
			c0.1,0,0.2,0.1,0.2,0.2v10.6c0,0.1-0.1,0.2-0.2,0.2h-0.6c-0.1,0-0.2,0-0.3-0.2l-5.4-9h-0.1v9c0,0.1-0.1,0.2-0.2,0.2h-0.6
			c-0.1,0-0.2-0.1-0.2-0.2V234.9z"/>
	</g>
	<g>
		<rect x="38" y="66.6" class="st13" width="12.6" height="28.7"/>
		<rect x="30" y="70.1" class="st9" width="8" height="20.8"/>
		<rect x="130.4" y="44.7" class="st8" width="4.7" height="69"/>
		<rect x="41.2" y="116.1" class="st8" width="7.8" height="31.2"/>
		<rect x="54.7" y="62.8" class="st9" width="34.4" height="35.3"/>
		<g>
			<rect x="65.6" y="98.2" class="st3" width="14" height="54.1"/>
			<path d="M80.8,153.5H64.5V97h16.3V153.5z M66.8,151.1h11.7V99.3H66.8V151.1z"/>
		</g>
		<g>
			<path class="st3" d="M72.2,113.2h16.8c0,0,5.6-0.6,6.4,3.1c0,0,1.1,4.4-4.8,5c0,0,6.5-0.3,6.9,3.1c0.3,3.4-1.8,5-6.7,5.1
				c0,0,6.1-0.2,6.3,3.3c0.2,3.5-4,4.3-6,4.2c0,0,5.1,0.7,5,4.6c-0.1,2.5-1.6,5.4-11.6,4.7l-32.9,0.2v-29.1h6.7
				c0,0-0.6-8.9,6.6-10.3v6.2L72.2,113.2z"/>
			<path d="M50.4,147.6v-31.5H57c0.1-3.6,1.8-9.1,7.6-10.3l1.4-0.3v6.5l23,0c0.7-0.1,6.6-0.4,7.6,4c0,0,0.5,2.1-0.7,3.9
				c-0.2,0.3-0.4,0.5-0.6,0.7c1.7,0.5,3.2,1.6,3.4,3.6c0.2,1.7-0.2,3.1-1.2,4.2c-0.4,0.4-0.8,0.7-1.3,1c1.1,0.7,1.9,1.7,2,3.2
				c0.1,1.4-0.4,2.6-1.3,3.5c-0.5,0.5-1.1,0.9-1.7,1.1c1.2,0.9,2.1,2.3,2.1,4.2c0,1.5-0.6,2.8-1.6,3.7c-1.9,1.8-5.6,2.5-11.2,2.1
				L50.4,147.6z M52.7,118.4v26.8l31.8-0.2c6.1,0.4,8.6-0.6,9.6-1.5c0.6-0.5,0.8-1.2,0.9-2.1c0.1-2.8-3.8-3.4-4-3.4l0.2-2.3
				c1.1,0.1,3.1-0.2,4.1-1.2c0.5-0.5,0.7-1,0.6-1.7c-0.1-2.1-4.4-2.2-5-2.2c0,0-0.1,0-0.1,0l0-2.3c0.1,0,0.2,0,0.4,0
				c2.3-0.1,3.9-0.5,4.7-1.4c0.5-0.6,0.7-1.3,0.6-2.4c-0.2-1.9-4.5-2.1-5.7-2l-0.2-2.3c1.7-0.2,2.8-0.7,3.4-1.5c0.6-0.9,0.4-2,0.4-2
				c-0.6-2.7-5.1-2.2-5.1-2.2l-0.1,0l-25.4,0v-5.8c-4.6,2-4.3,8.4-4.3,8.7l0.1,1.2L52.7,118.4z"/>
		</g>
		<path d="M55.8,96.4h-19V64.6h19V96.4z M39.1,94h14.4V66.9H39.1V94z"/>
		<path d="M39.1,92.1H28.8V68.9h10.3V92.1z M31.2,89.8h5.6V71.2h-5.6V89.8z"/>
		<path d="M142.7,118.5L87.9,96.2V63.5l54.8-24.9V118.5z M90.2,94.7l50.2,20.4V42.2L90.2,65V94.7z"/>
		<path d="M159.6,51.4c-0.4,0-0.8-0.2-1-0.6c-0.3-0.6-0.2-1.3,0.4-1.6l31.3-18.9c0.6-0.3,1.3-0.2,1.6,0.4c0.3,0.6,0.2,1.3-0.4,1.6
			l-31.3,18.9C160,51.3,159.8,51.4,159.6,51.4z"/>
		<path d="M197.2,76.4C197.2,76.4,197.2,76.4,197.2,76.4l-36.6-0.2c-0.6,0-1.2-0.5-1.2-1.2c0-0.6,0.5-1.2,1.2-1.2c0,0,0,0,0,0
			l36.5,0.2c0.6,0,1.2,0.5,1.2,1.2C198.3,75.9,197.8,76.4,197.2,76.4z"/>
		<path d="M193.7,120.3c-0.2,0-0.4-0.1-0.6-0.2l-31.3-18.9c-0.6-0.3-0.7-1.1-0.4-1.6c0.3-0.6,1.1-0.7,1.6-0.4l31.3,18.9
			c0.6,0.3,0.7,1.1,0.4,1.6C194.5,120.1,194.1,120.3,193.7,120.3z"/>
		<g>
			<path class="st8" d="M32.9,76.3v-1.2c0-0.2,0.2-0.4,0.4-0.4h1.2c0.2,0,0.4,0.2,0.4,0.4v1.2c0,0.2-0.2,0.4-0.4,0.4h-1.2
				C33.1,76.8,32.9,76.6,32.9,76.3z"/>
			<path class="st8" d="M32.9,81.3v-1.2c0-0.2,0.2-0.4,0.4-0.4h1.2c0.2,0,0.4,0.2,0.4,0.4v1.2c0,0.2-0.2,0.4-0.4,0.4h-1.2
				C33.1,81.8,32.9,81.6,32.9,81.3z"/>
			<path class="st8" d="M32.9,86.4v-1.2c0-0.2,0.2-0.4,0.4-0.4h1.2c0.2,0,0.4,0.2,0.4,0.4v1.2c0,0.2-0.2,0.4-0.4,0.4h-1.2
				C33.1,86.8,32.9,86.6,32.9,86.4z"/>
		</g>
		<path d="M90.2,99.3H53.5V61.7h36.7V99.3z M55.8,97h32V64h-32V97z"/>
		<g>
			<rect x="104.2" y="146.1" width="2.3" height="6.4"/>
			<rect x="110.7" y="143.7" width="2.3" height="8.8"/>
			<rect x="117.2" y="141.3" width="2.3" height="11.2"/>
			<rect x="123.6" y="138.4" width="2.3" height="14.1"/>
			<rect x="130.1" y="141.3" width="2.3" height="11.2"/>
			<rect x="136.6" y="144.3" width="2.3" height="8.2"/>
			<rect x="143.1" y="137.7" width="2.3" height="14.8"/>
			<rect x="149.6" y="132.4" width="2.3" height="20.1"/>
			<rect x="156.1" y="126.9" width="2.3" height="25.6"/>
			<rect x="162.6" y="120.6" width="2.3" height="31.9"/>
			<rect x="169.1" y="126.9" width="2.3" height="25.6"/>
			<rect x="175.5" y="134" width="2.3" height="18.5"/>
		</g>
	</g>
</g>
</svg>
