<?xml version="1.0" encoding="utf-8"?>
<!-- Generator: Adobe Illustrator 20.0.0, SVG Export Plug-In . SVG Version: 6.00 Build 0)  -->
<svg version="1.1" id="Layer_1" xmlns="http://www.w3.org/2000/svg" xmlns:xlink="http://www.w3.org/1999/xlink" x="0px" y="0px"
	 viewBox="0 0 142 100" style="enable-background:new 0 0 142 100;" xml:space="preserve">
<style type="text/css">
	.st0{fill:#F15B4A;}
	.st1{clip-path:url(#SVGID_2_);}
	.st2{fill:#FCF7E9;}
	.st3{fill:#C7C4BC;}
	.st4{clip-path:url(#SVGID_4_);}
	.st5{fill:#FFFFFF;}
	.st6{fill:#EDC393;}
	.st7{fill:#B1B3B6;}
	.st8{fill:#333132;}
	.st9{fill:#4F341A;}
	.st10{fill:#2A160C;}
	.st11{fill:#452B13;}
	.st12{fill:#4D4E4A;}
	.st13{fill:#3E3B3A;}
	.st14{opacity:0.5;fill:#8F8C86;}
	.st15{opacity:0.5;clip-path:url(#SVGID_6_);fill:#8F8C86;}
	.st16{fill:#F37223;}
	.st17{fill:#BF5A28;}
	.st18{fill:#DAB17C;}
	.st19{fill:#F89420;}
	.st20{fill:url(#SVGID_7_);}
	.st21{fill:#FDBE14;}
	.st22{fill:#F2F2F2;}
	.st23{clip-path:url(#SVGID_9_);}
	.st24{fill:#06BDCD;}
	.st25{opacity:0.5;clip-path:url(#SVGID_9_);}
	.st26{fill:#8F8C86;}
	.st27{fill:#79BEC0;}
	.st28{opacity:0.5;fill:#FFFFFF;}
	.st29{clip-path:url(#SVGID_11_);}
	.st30{fill:#C5DA4E;}
	.st31{fill:#A3BD3D;}
	.st32{fill:#6AB352;}
	.st33{fill:#5A462C;}
	.st34{fill:#D4E172;}
	.st35{fill:#ECEC83;}
	.st36{fill:#C2E1F1;}
	.st37{fill:#8BA3B0;}
	.st38{fill:#8FC640;}
	.st39{fill:#72A441;}
	.st40{fill:#976339;}
	.st41{fill:#7A4F2A;}
	
		.st42{fill:none;stroke:#FFFFFF;stroke-width:0.771;stroke-linecap:round;stroke-linejoin:round;stroke-miterlimit:10;stroke-dasharray:4.6259;}
	
		.st43{fill:none;stroke:#FFFFFF;stroke-width:0.6936;stroke-linecap:round;stroke-linejoin:round;stroke-miterlimit:10;stroke-dasharray:4.1616;}
	.st44{fill:#D46528;}
	.st45{fill:#F3F1E6;}
	.st46{fill:#D4D2C3;}
	.st47{fill:none;stroke:#79BEC0;stroke-width:1.2825;stroke-miterlimit:10;}
	.st48{fill:none;stroke:#F15B4A;stroke-miterlimit:10;}
	.st49{fill:none;stroke:#F15B4A;stroke-width:2;stroke-linecap:round;stroke-linejoin:round;stroke-miterlimit:10;}
	.st50{fill:#FFFFFF;stroke:#F15B4A;stroke-miterlimit:10;}
	.st51{fill:#F15B4A;stroke:#F15B4A;stroke-miterlimit:10;}
	.st52{fill:#FBAA19;}
	.st53{fill:none;stroke:url(#);stroke-width:0.6902;stroke-miterlimit:10;}
	.st54{fill:#FFFFFF;stroke:url(#);stroke-width:0.6902;stroke-miterlimit:10;}
	.st55{fill:url(#);}
	.st56{fill:#FFFFFF;stroke:#FFFFFF;stroke-width:0.6902;stroke-miterlimit:10;}
	.st57{fill:none;stroke:#79BEC0;stroke-width:2.3005;stroke-miterlimit:10;}
	.st58{fill:none;stroke:url(#);stroke-width:0.4601;stroke-miterlimit:10;}
	.st59{fill:#E5EFF5;}
	.st60{fill:#221F1F;}
	.st61{fill:#0A3655;}
	.st62{clip-path:url(#SVGID_25_);}
	.st63{fill:#4BC3C9;}
	.st64{fill:#231F20;}
	.st65{fill:#EBE70E;}
	.st66{fill:#DD1D4F;}
	.st67{fill:none;stroke:#231F20;stroke-width:0.9625;stroke-linecap:round;stroke-linejoin:round;stroke-miterlimit:10;}
	.st68{fill:none;stroke:#221F1F;stroke-width:0.8028;stroke-miterlimit:10;}
	.st69{fill:#F6E830;}
	.st70{fill:none;stroke:#221F1F;stroke-width:0.8692;stroke-miterlimit:10;}
	.st71{fill:#FFFFFF;stroke:#221F1F;stroke-width:0.8566;stroke-miterlimit:10;}
	.st72{fill:none;stroke:#221F1F;stroke-width:0.8566;stroke-miterlimit:10;}
	.st73{fill:none;stroke:url(#);stroke-width:0.7698;stroke-miterlimit:10;}
	.st74{fill:#EEE809;}
	.st75{fill:#94D9F8;}
	.st76{fill:#211E1F;}
	.st77{fill:#F7941F;}
	.st78{fill:#47B77B;}
	.st79{fill:#F5EB0E;}
	.st80{fill:none;stroke:url(#);stroke-miterlimit:10;}
	.st81{fill:#F7941D;}
	.st82{fill:#45B97C;}
	.st83{fill:none;stroke:#010101;stroke-miterlimit:10;}
	.st84{fill:#010101;}
</style>
<g>
	<path class="st77" d="M69.6,40.7c-0.9,0-1.7,0.1-2.5,0.4v6.4h-6.4c-0.2,0.8-0.3,1.6-0.3,2.5c0,5.1,4.1,9.2,9.2,9.2
		c5.1,0,9.2-4.1,9.2-9.2C78.9,44.8,74.7,40.7,69.6,40.7z"/>
	<path class="st78" d="M70.5,32.2c-8.8,0-15.9,7.1-15.9,15.9c0,8.8,7.1,15.9,15.9,15.9s15.9-7.1,15.9-15.9
		C86.5,39.3,79.3,32.2,70.5,32.2z M69.6,60.9c-6.1,0-11.1-4.9-11.1-11.1c0-0.6,0-1.1,0.1-1.7c0.1-0.4-0.2-1-0.1-1.4l2.7-5.6l5.1-2.4
		c0.4-0.1,1,0.2,1.4,0.2c0.6-0.1,1.2-0.2,1.9-0.2c6.1,0,11.1,4.9,11.1,11.1C80.7,56,75.7,60.9,69.6,60.9z"/>
	<g>
		<path class="st60" d="M68.4,48.8H57.3l0.1-0.8c0-0.1,1.2-8.7,10.3-10.3l0.8-0.1V48.8z M58.8,47.4h8.2v-8.2
			C61,40.6,59.3,45.5,58.8,47.4z"/>
	</g>
	<circle class="st79" cx="20.8" cy="89.1" r="5.5"/>
	<circle class="st65" cx="31.9" cy="83.6" r="1.4"/>
	<circle class="st79" cx="121.7" cy="12.6" r="5"/>
	<g>
		<path class="st60" d="M69.6,68.6c-10.3,0-18.7-8.4-18.7-18.7c0-10.3,8.4-18.7,18.7-18.7s18.7,8.4,18.7,18.7
			C88.2,60.2,79.9,68.6,69.6,68.6z M69.6,32.6c-9.6,0-17.3,7.8-17.3,17.3c0,9.6,7.8,17.3,17.3,17.3c9.6,0,17.3-7.8,17.3-17.3
			C86.9,40.3,79.1,32.6,69.6,32.6z"/>
	</g>
	<path class="st60" d="M70.8,68.6c-17.9,0-33.6-17.4-34.3-18.2c-0.2-0.2-0.2-0.6,0-0.9c0.2-0.2,17.9-21.9,38-17.7
		c20.2,4.2,28,17.2,28.4,17.8c0.1,0.2,0.1,0.5,0,0.7C102.6,50.4,93,64.5,76.3,68C74.4,68.4,72.6,68.6,70.8,68.6z M37.9,49.9
		c2.8,3,20.3,20.6,38.1,16.8c14.7-3.1,23.8-14.6,25.4-16.8c-1.4-2.1-9.5-13.1-27.2-16.8C56.5,29.4,40.5,46.8,37.9,49.9z"/>
	<g>
		<path class="st60" d="M69.6,62.2c-6.8,0-12.4-5.5-12.4-12.4h1.4c0,6.1,4.9,11,11,11c6.1,0,11-4.9,11-11c0-6.1-4.9-11-11-11v-1.4
			c6.8,0,12.4,5.5,12.4,12.4S76.4,62.2,69.6,62.2z"/>
	</g>
	<path class="st60" d="M70.5,15.1c-0.4,0-0.7-0.3-0.7-0.7V3.3c0-0.4,0.3-0.7,0.7-0.7c0.4,0,0.7,0.3,0.7,0.7v11.1
		C71.2,14.8,70.9,15.1,70.5,15.1z"/>
	<path class="st60" d="M88.4,20.5c-0.1,0-0.2,0-0.3-0.1c-0.3-0.2-0.4-0.6-0.2-0.9l5.6-9.6c0.2-0.3,0.6-0.4,0.9-0.2
		c0.3,0.2,0.4,0.6,0.2,0.9l-5.6,9.6C88.8,20.4,88.6,20.5,88.4,20.5z"/>
	<path class="st60" d="M101,34.2c-0.2,0-0.5-0.1-0.6-0.3c-0.2-0.3-0.1-0.7,0.3-0.9l9.7-5.4c0.3-0.2,0.7-0.1,0.9,0.3
		c0.2,0.3,0.1,0.7-0.3,0.9l-9.7,5.4C101.2,34.2,101.1,34.2,101,34.2z"/>
	<path class="st60" d="M111.9,73.3c-0.1,0-0.2,0-0.3-0.1l-10-4.8c-0.3-0.2-0.5-0.6-0.3-0.9c0.2-0.3,0.6-0.5,0.9-0.3l10,4.8
		c0.3,0.2,0.5,0.6,0.3,0.9C112.4,73.2,112.2,73.3,111.9,73.3z"/>
	<path class="st60" d="M95.6,91.6c-0.2,0-0.4-0.1-0.6-0.3L88.8,82c-0.2-0.3-0.1-0.7,0.2-0.9c0.3-0.2,0.7-0.1,0.9,0.2l6.2,9.2
		c0.2,0.3,0.1,0.7-0.2,0.9C95.8,91.5,95.7,91.6,95.6,91.6z"/>
	<path class="st60" d="M38.2,34.7c-0.1,0-0.2,0-0.3-0.1l-9.8-5.2c-0.3-0.2-0.5-0.6-0.3-0.9c0.2-0.3,0.6-0.5,0.9-0.3l9.8,5.2
		c0.3,0.2,0.5,0.6,0.3,0.9C38.7,34.6,38.5,34.7,38.2,34.7z"/>
	<path class="st60" d="M51.3,21.4c-0.2,0-0.4-0.1-0.6-0.3l-5.9-9.4c-0.2-0.3-0.1-0.7,0.2-0.9c0.3-0.2,0.7-0.1,0.9,0.2l5.9,9.4
		c0.2,0.3,0.1,0.7-0.2,0.9C51.5,21.4,51.4,21.4,51.3,21.4z"/>
	<path class="st60" d="M47.2,90.2c-0.1,0-0.2,0-0.3-0.1c-0.3-0.2-0.4-0.6-0.2-0.9l5.6-9.6c0.2-0.3,0.6-0.4,0.9-0.2
		c0.3,0.2,0.4,0.6,0.2,0.9l-5.6,9.6C47.7,90.1,47.4,90.2,47.2,90.2z"/>
	<path class="st60" d="M30.5,72.3c-0.2,0-0.5-0.1-0.6-0.3c-0.2-0.3-0.1-0.7,0.3-0.9l9.7-5.4c0.3-0.2,0.7-0.1,0.9,0.3
		c0.2,0.3,0.1,0.7-0.3,0.9l-9.7,5.4C30.7,72.3,30.6,72.3,30.5,72.3z"/>
	<path class="st60" d="M70.5,97.3c-0.4,0-0.7-0.3-0.7-0.7V85.5c0-0.4,0.3-0.7,0.7-0.7c0.4,0,0.7,0.3,0.7,0.7v11.1
		C71.2,97,70.9,97.3,70.5,97.3z"/>
	<path class="st60" d="M121.7,50.6h-11.1c-0.4,0-0.7-0.3-0.7-0.7c0-0.4,0.3-0.7,0.7-0.7h11.1c0.4,0,0.7,0.3,0.7,0.7
		C122.4,50.3,122.1,50.6,121.7,50.6z"/>
	<path class="st60" d="M28.1,50.6H17c-0.4,0-0.7-0.3-0.7-0.7c0-0.4,0.3-0.7,0.7-0.7h11.1c0.4,0,0.7,0.3,0.7,0.7
		C28.8,50.3,28.5,50.6,28.1,50.6z"/>
	<g>
		<circle class="st65" cx="28.1" cy="10" r="2.2"/>
	</g>
	<g>
		<circle class="st65" cx="121.7" cy="63.6" r="2"/>
	</g>
</g>
</svg>
